<?xml version="1.0" encoding="utf-8"?>
<!-- Generator: Adobe Illustrator 17.0.0, SVG Export Plug-In . SVG Version: 6.00 Build 0)  -->
<!DOCTYPE svg PUBLIC "-//W3C//DTD SVG 1.1//EN" "http://www.w3.org/Graphics/SVG/1.1/DTD/svg11.dtd">
<svg version="1.1" id="Layer_1" xmlns="http://www.w3.org/2000/svg" xmlns:xlink="http://www.w3.org/1999/xlink" x="0px" y="0px"
	 width="379.545px" height="292.228px" viewBox="0 355.228 379.545 292.228" enable-background="new 0 355.228 379.545 292.228"
	 xml:space="preserve">
<g>
	<g>
		<g>
			<path fill="#8FC638" d="M209.257,526.769c1.668-14.373,5.722-33.561,7.445-41.411l0.008-0.011
				c-9.052-7.034-21.168-7.258-29.187-9.155c0,0-11.292,33.359-17.133,32.874c-5.842-0.486-20.133-25.945-20.133-25.945
				c-6.127,2.457-15.424,2.972-21.795,10.215c6.671,12.143,14.144,34.917,14.144,34.917c0.459,2.454,0.382,6.075,1.862,9.95
				c13.783,36.064,12.525,80.644,12.525,80.644c29.126-5.433,64.463,11.908,64.463,11.908
				c0.77-27.879-12.247-103.573-12.247-103.573C209.221,527.042,209.244,526.91,209.257,526.769z"/>
			<path fill="#3D5418" d="M170.738,513.841c-6.777,1.244-18.819-18.047-24.57-29.387c1.459-0.412,2.841-0.831,4.088-1.332
				c0,0,14.291,25.459,20.133,25.945c5.841,0.485,17.133-32.874,17.133-32.874c1.433,0.339,3.001,0.624,4.655,0.905
				C186.55,489.844,181.986,511.777,170.738,513.841z"/>
			<path fill="#EAB87D" d="M161.996,549.295c-4.004-0.226-4.236-1.275-4.252-2.694c-0.008-0.878,1.751-1.684,4.96-1.085
				c4.2,0.782,4.292-0.909,0.713-1.103c-7.874-0.426-6.883-4.396-1.372-4.305c7.478,0.126,10.733-0.48,17.442-2.818
				c7.472-2.602,7.151-7.311,9.301-1.651c3.939,10.362,1.618,7.6,10.102,12.506c7.367,4.261,13.367,7.699,18.096,10.388
				c-3.887-11.326-6.949-24.247-7.728-31.764l19.981-12.987c2.118,10.265,5.957,34.532,5.15,61.063
				c-0.152,5.073,0.822,9.198-4.069,9.665c-8.781,0.84-23.865-4.506-41.456-25.886c-1.312-1.593-2.265-1.385-8.178-1.117
				c-7.891,0.356-16.737,0.782-17.849-0.003c-0.944-0.666-1.145-1.868,0.614-2.317c2.114-0.54,0.015,0.105,2.474-0.321
				c4.324-0.749,1.04-0.927-4.202-1.064c-4.017-0.106-1.968-3.415,0.142-3.19c2.665,0.281,3.256,0.49,4.714-0.131
				C167.542,550.071,166.424,549.545,161.996,549.295z"/>
			<path fill="#423423" d="M218.427,520.809l10.812-7.027c2.118,10.265,5.957,34.532,5.15,61.063
				c-0.117,3.873,0.416,7.187-1.498,8.749c0.019-0.071,0.039-0.139,0.055-0.21C236.557,561.366,225.029,529.44,218.427,520.809z"/>
			<path fill="#EAB87D" d="M154.546,458.266c0,0,0.937,19.255-4.289,24.855c0,0,14.291,25.459,20.133,25.945
				c5.841,0.485,17.133-32.874,17.133-32.874c-3.847-4.956-5.952-22.502-5.952-22.502L154.546,458.266z"/>
			<path fill="#EAB87D" d="M176.351,454.574c0.735,10.281,3.665,20.315,8.299,29.538c-3.74,9.833-10.272,25.285-14.26,24.954
				c-3.632-0.302-10.527-10.255-15.227-17.742c4.579-9.886,5.285-22.453,4.702-33.958L176.351,454.574z"/>
			<path fill="#EAB87D" d="M121.79,528.442l21.043,9.417c0.543,11.375-0.181,21.855-1.711,29.983
				c1.555,8.135,4.762,9.419,9.277,23.002c3.137,9.433,5.813,16.915,7.286,20.951c1.374,1.079,2.658,2.095,3.782,2.983
				c0,0,6.299-1.235,8.503,1.833c2.205,3.068,4.811,9.524,7.59,10.516c2.474,0.881-3.896,1.319-7.644-3.114
				c-1.541,2.534-3.976,5.887-7.619,9.303c-8.636-6.871-8.859-11.177-8.859-11.177c-7.275-6.979-12.838-14.781-15.874-19.427
				c-5.737-8.481-10.167-17.61-9.756-24.211C123.915,568.393,121.372,547.028,121.79,528.442z"/>
			<path fill="#423423" d="M138.968,570.104c-0.902-1.876-9.764-24.026-6.051-36.684l9.917,4.438
				c0.543,11.375-0.181,21.855-1.711,29.983c0.639,3.344,1.558,5.531,2.732,7.889c1.682,3.379,3.886,7.113,6.545,15.112
				c3.133,9.42,5.807,16.894,7.28,20.932C121.589,576.018,140.562,573.415,138.968,570.104z"/>
			<path fill="#A9DB49" d="M121.475,520.565c0,0,15.894,11.621,22.993,17.638c-0.767-4.078-1.403-7.496-1.862-9.95
				c0,0-7.473-22.774-14.144-34.917C124.095,498.299,121.104,506.442,121.475,520.565z"/>
			<path fill="#A9DB49" d="M216.702,485.358c-1.723,7.85-5.777,27.037-7.445,41.411c9.79-7.179,20.06-12.532,20.06-12.532
				s-4.503-19.444-7.237-23.284c-1.605-2.239-3.413-4.083-5.371-5.606L216.702,485.358z"/>
			<g>
				<path fill="#8FC638" d="M229.895,500.222c0,0,0.797,3.508,1.226,6.83l-24.128,19.295l-0.498-2.888
					C216.821,508.552,229.895,500.222,229.895,500.222z"/>
				<path fill="#A9DB49" d="M233.788,505.44c0,0-19.483,11.233-27.935,22.318l1.875,2.858c0,0,14.687-10.98,27.465-17.019
					L233.788,505.44z"/>
			</g>
			<g>
				<path fill="#8FC638" d="M117.273,517.031c0,0,14.684,4.963,28.276,16.971l0.206,2.922l-28.042-12.969
					C117.337,520.628,117.273,517.031,117.273,517.031z"/>
				<path fill="#A9DB49" d="M114.74,523.029c0,0,21.601,6.25,32.458,14.994l-1.136,3.223c0,0-16.888-7.151-30.738-9.961
					L114.74,523.029z"/>
			</g>
		</g>
		<g>
			
				<linearGradient id="SVGID_1_" gradientUnits="userSpaceOnUse" x1="-84.002" y1="288.3611" x2="-72.8933" y2="313.0912" gradientTransform="matrix(0.9922 -0.1248 -0.1248 -0.9922 246.4945 706.3732)">
				<stop  offset="0" style="stop-color:#C88F54"/>
				<stop  offset="1" style="stop-color:#916E37"/>
			</linearGradient>
			<path fill="url(#SVGID_1_)" d="M134.279,431.933c-1.188-2.782-3.075-8.62-0.823-14.871c2.25-6.253,7.557-9.016,7.557-9.016
				l-6.824-7.624c0,0-5.632,1.86-7.83,8.525c-2.198,6.665-1.447,10.969,0.928,15.698c2.375,4.728,4.543,8.644,4.543,8.644
				L134.279,431.933z"/>
			
				<linearGradient id="SVGID_2_" gradientUnits="userSpaceOnUse" x1="-13.8891" y1="293.2561" x2="-24.9975" y2="310.1832" gradientTransform="matrix(0.9922 -0.1248 -0.1248 -0.9922 246.4945 706.3732)">
				<stop  offset="0" style="stop-color:#C88F54"/>
				<stop  offset="1" style="stop-color:#916E37"/>
			</linearGradient>
			<path fill="url(#SVGID_2_)" d="M183.743,397.223c2.384,0.643,6.162,1.528,8.048,6.528c1.885,4.999,1.907,15.993,1.199,16.186
				c-0.709,0.195-3.017-0.667-3.017-0.667s0.2-6.727-2.341-10.283c-2.542-3.555-6.54-7.031-6.54-7.031L183.743,397.223z"/>
			<path fill="#FFD399" d="M131.766,432.215c-2.35-11.747-0.777-26.154,20.167-30.605c20.944-4.45,32.063-3.754,36.849,7.652
				c4.787,11.407,5.676,26.237,6.972,35.429c1.296,9.192-1.713,27.445-13.653,31.321c-11.94,3.876-30.169,7.705-39.536-14.575
				S133.648,441.613,131.766,432.215z"/>
			<polygon fill="#471A14" points="129.543,429.809 132.949,427.179 134.743,429.287 133.571,430.568 			"/>
			
				<linearGradient id="SVGID_3_" gradientUnits="userSpaceOnUse" x1="-72.0235" y1="327.7826" x2="-41.739" y2="321.038" gradientTransform="matrix(0.9922 -0.1248 -0.1248 -0.9922 246.4945 706.3732)">
				<stop  offset="0" style="stop-color:#E5BD6D"/>
				<stop  offset="1" style="stop-color:#C08A52"/>
			</linearGradient>
			<path fill="url(#SVGID_3_)" d="M133.963,406.943c-2.672-5.004-1.916-11.438,4.619-15.992c7.932-5.527,10.639-6.122,17.328-7.067
				c6.688-0.947,13.416,0.626,18.13-0.682c9.96-2.764,10.739-5.714,11.735-7.284c0.714-1.125,1.096-2.328,1.533-1.136
				c0.295,0.804,1,5.69,1.083,13.011c0.083,7.321-4.231,19.081-15.894,21.282c-11.662,2.201-22.239,3.358-27.214,2.937
				C140.307,411.59,135.744,410.28,133.963,406.943z"/>
			
				<linearGradient id="SVGID_4_" gradientUnits="userSpaceOnUse" x1="-50.3895" y1="262.1667" x2="-44.3072" y2="265.0756" gradientTransform="matrix(0.9922 -0.1248 -0.1248 -0.9922 246.4945 706.3732)">
				<stop  offset="0" style="stop-color:#C88F54"/>
				<stop  offset="1" style="stop-color:#916E37"/>
			</linearGradient>
			<path fill="url(#SVGID_4_)" d="M156.083,450.239c0.251-0.501,1.481,3.528,5.72,2.261c4.239-1.267,3.004-5.669,6.051-6.835
				c1.616-0.619,3.197,0.435,3.378,1.878c0.182,1.444,1.279,5.312-1.399,8.163c-2.678,2.85-8.471,2.893-10.793,1.091
				C156.72,454.995,155.749,450.91,156.083,450.239z"/>
			
				<linearGradient id="SVGID_5_" gradientUnits="userSpaceOnUse" x1="-28.6803" y1="259.059" x2="-38.7309" y2="263.8198" gradientTransform="matrix(0.9922 -0.1248 -0.1248 -0.9922 246.4945 706.3732)">
				<stop  offset="0" style="stop-color:#C88F54"/>
				<stop  offset="1" style="stop-color:#916E37"/>
			</linearGradient>
			<path fill="url(#SVGID_5_)" d="M173.378,443.713c2.527-0.136,3.96,3.168,5.147,5.113c1.188,1.946,3.109,2.444,4.835,1.8
				c2.512-0.936,1.965-3.819,2.334-3.757c0.235,0.039,1.786,4.308-0.476,6.813c-1.774,1.967-6.81,3.79-10.4,1.476
				c-4.577-2.951-3.744-8.117-3.397-9.522C171.768,444.23,171.922,443.792,173.378,443.713z"/>
			<path fill="#FFFFFF" d="M144.043,435.048c-2.813-3.882-2.293-9.501,0.387-11.513c2.678-2.013,9.018-4.067,12.345-1.763
				c3.328,2.303,4.326,7.373,3.297,10.015c-1.029,2.644-2.315,4.912-7.146,6.053C148.773,438.82,146.198,438.024,144.043,435.048z"
				/>
			<path fill="#FFFFFF" d="M177.355,425.792c0.055-0.273,2.176-2.689,7.245-2.948c5.071-0.259,7.879,1.413,7.807,1.78
				c-0.072,0.367-1.37,1.613-3.796,2.1c-2.426,0.487-5.262,0.802-7.34,0.53C179.732,427.052,177.234,426.397,177.355,425.792z"/>
			
				<linearGradient id="SVGID_6_" gradientUnits="userSpaceOnUse" x1="-67.4985" y1="251.5721" x2="-36.9496" y2="256.4652" gradientTransform="matrix(0.9922 -0.1248 -0.1248 -0.9922 246.4945 706.3732)">
				<stop  offset="0" style="stop-color:#E5BD6D"/>
				<stop  offset="1" style="stop-color:#C08A52"/>
			</linearGradient>
			<path fill="url(#SVGID_6_)" d="M133.053,435.987c0.55-0.069,0.694-0.86,3.15,0.314c1.323,0.633,4.313,1.794,4.365,2.206
				s1.874,13.486,6.83,21.799c4.956,8.313,10.766,9.208,14.924,9.14c5.675-0.092,8.018-1.452,8.85-3.162
				c0.833-1.71-0.383-2.435,0.648-2.565c1.031-0.13,4.308-0.782,4.429-0.379c0.121,0.405-0.222,1.565,1.806,2.706
				c2.029,1.141,7.337,1.075,10.54-1.773c3.203-2.846,5.658-8.709,5.146-18.419c-0.299-5.693-1.406-10.873-1.638-11.612
				c-0.233-0.739,2.284-3.943,2.731-3.72s4.328,8.272,6.268,15.917c1.939,7.646,1.777,19.77-1.919,28.818
				c-3.212,7.86-12.483,13.44-23.032,15.047c-10.551,1.607-21.499-2.419-28.836-13.016c-7.339-10.597-10.566-21.215-12.841-29.307
				C132.199,439.89,132.504,436.056,133.053,435.987z"/>
			<path fill="#2D1900" d="M171.818,459.783c-0.287-1.125,1.346-2.777,2.422-1.561c1.215,1.375,0.157,2.074-0.32,2.449
				C173.442,461.046,172.231,461.408,171.818,459.783z"/>
			<path fill="#2D1900" d="M147.531,430.954c-1.151-3.551,1.945-5.783,5.072-5.222c3.126,0.562,3.646,4.697,2.355,6.58
				C153.668,434.193,148.779,434.808,147.531,430.954z"/>
			
				<linearGradient id="SVGID_7_" gradientUnits="userSpaceOnUse" x1="-41.8665" y1="271.6547" x2="-41.8665" y2="289.3753" gradientTransform="matrix(0.9922 -0.1248 -0.1248 -0.9922 246.4945 706.3732)">
				<stop  offset="0" style="stop-color:#E5523E"/>
				<stop  offset="1" style="stop-color:#FF986B"/>
			</linearGradient>
			<path fill="url(#SVGID_7_)" d="M172.155,418.359c0.336,1.006,0.486,4.662,2.205,10.835c1.72,6.172,2.19,14.072-0.411,17.541
				c-2.6,3.469-7.719,1.914-8.072-3.383c-0.352-5.296-0.846-10.89-0.837-15.813c0.009-4.924,0.251-8.829,0.251-8.829
				L172.155,418.359z"/>
			<path fill="#2D1900" d="M185.523,423.803c1.491,1.228,0.16,3.035-1.194,2.939s-1.983-0.706-1.84-1.978
				C182.632,423.49,184.497,422.958,185.523,423.803z"/>
			
				<linearGradient id="SVGID_8_" gradientUnits="userSpaceOnUse" x1="-69.3295" y1="287.7341" x2="-82.8189" y2="283.8988" gradientTransform="matrix(0.9922 -0.1248 -0.1248 -0.9922 246.4945 706.3732)">
				<stop  offset="0" style="stop-color:#FFD399"/>
				<stop  offset="0.216" style="stop-color:#FFC98F"/>
				<stop  offset="1" style="stop-color:#FFA46D"/>
			</linearGradient>
			<path fill="url(#SVGID_8_)" d="M136.767,431.609c-1.509-2.754-7.873-3.362-9.35-0.662c-1.475,2.698,1.105,6.563,4.25,7.144
				C134.814,438.674,139.487,436.573,136.767,431.609z"/>
			
				<linearGradient id="SVGID_9_" gradientUnits="userSpaceOnUse" x1="-79.092" y1="285.9341" x2="-82.266" y2="285.9341" gradientTransform="matrix(0.9922 -0.1248 -0.1248 -0.9922 246.4945 706.3732)">
				<stop  offset="0" style="stop-color:#E5523E"/>
				<stop  offset="1" style="stop-color:#FF986B"/>
			</linearGradient>
			<path fill="url(#SVGID_9_)" d="M129.679,432.826c-0.158-1.254,1.789-2.424,2.744-1.498c0.954,0.927,0.891,2.087,0.13,2.707
				C131.794,434.655,129.796,433.754,129.679,432.826z"/>
			
				<linearGradient id="SVGID_10_" gradientUnits="userSpaceOnUse" x1="-8.3467" y1="308.6163" x2="-31.0933" y2="317.0802" gradientTransform="matrix(0.9922 -0.1248 -0.1248 -0.9922 246.4945 706.3732)">
				<stop  offset="0" style="stop-color:#E5BD6D"/>
				<stop  offset="0.1616" style="stop-color:#D8AE5B"/>
				<stop  offset="1" style="stop-color:#966200"/>
			</linearGradient>
			<path opacity="0.26" fill="url(#SVGID_10_)" enable-background="new    " d="M186.956,374.302
				c0.091,2.615-0.227,6.373-1.772,11.318c-3.294,10.545-10.289,14.268-15.624,17.071c-5.334,2.804-10.145,4.12-18.213,6.38
				c-3.357,0.94-6.336,1.861-8.684,2.62c0.851,0.139,1.728,0.245,2.618,0.32c4.976,0.421,15.552-0.736,27.214-2.937
				c11.661-2.201,15.977-13.961,15.894-21.282c-0.084-7.321-0.789-12.207-1.083-13.011
				C187.189,374.459,187.075,374.323,186.956,374.302z"/>
			
				<linearGradient id="SVGID_11_" gradientUnits="userSpaceOnUse" x1="-4.6768" y1="266.2094" x2="-20.8109" y2="254.3073" gradientTransform="matrix(0.9922 -0.1248 -0.1248 -0.9922 246.4945 706.3732)">
				<stop  offset="0" style="stop-color:#E5BD6D"/>
				<stop  offset="0.1616" style="stop-color:#D8AE5B"/>
				<stop  offset="1" style="stop-color:#966200"/>
			</linearGradient>
			<path opacity="0.26" fill="url(#SVGID_11_)" enable-background="new    " d="M201.101,446.44
				c-1.939-7.645-5.821-15.694-6.268-15.917s-2.964,2.982-2.731,3.72c0.232,0.738,1.34,5.919,1.638,11.612
				c0.28,5.315-0.333,9.47-1.467,12.616c1.416,2.832,2.617,6.704,2.471,11.606c-0.336,11.262-3.075,13.148-11.688,18.535
				c7.524-2.567,13.641-7.273,16.126-13.354C202.878,466.21,203.041,454.086,201.101,446.44z"/>
			<path opacity="0.36" fill="#FFFFFF" enable-background="new    " d="M167.331,443.954c-0.643-1.851-0.159-3.287,0.406-2.576
				c0.563,0.71,0.836,1.577,0.802,2.724C168.506,445.248,167.774,445.228,167.331,443.954z"/>
			<path fill="#2D1900" d="M168.803,446.676c0.881,0.724,0.094,1.793-0.705,1.735c-0.8-0.056-1.17-0.417-1.086-1.168
				C167.096,446.492,168.197,446.178,168.803,446.676z"/>
			<path fill="#2D1900" d="M174.518,446.223c0.809,0.666,0.087,1.646-0.647,1.593c-0.734-0.052-1.075-0.382-0.997-1.073
				C172.951,446.054,173.961,445.765,174.518,446.223z"/>
			<path fill="#2D1900" d="M132.764,422.385c0.053-0.733,0.251-7.991,4.218-12.261c3.966-4.269,9.615-8.466,16.678-8.097
				c7.064,0.368,10.022,3.9,11.932,6.592c1.91,2.691,2.375,4.728,2.028,5.294c-0.347,0.568-5.732,3.549-6.39,3.318
				c-0.659-0.232-1.975-3.207-4.349-5.422c-2.373-2.215-8.418-2.815-11.432-0.97c-3.015,1.845-4.762,3.578-5.796,5.547
				c-2.01,3.829-2.678,7.2-3.09,7.252C136.152,423.69,132.688,423.441,132.764,422.385z"/>
			<path fill="#2D1900" d="M173.529,413.745c0.13-0.619,1.231-5.365,5.673-6c7.739-1.108,10.359,5.592,10.424,6.107
				c0.065,0.516-1.866,2.19-2.382,2.255s-2.015-4.012-5.924-3.183c-2.123,0.45-1.79,2.424-2.099,2.463
				C178.911,415.426,173.418,414.268,173.529,413.745z"/>
			
				<linearGradient id="SVGID_12_" gradientUnits="userSpaceOnUse" x1="-44.8459" y1="262.0062" x2="-45.5512" y2="291.9816" gradientTransform="matrix(0.9922 -0.1248 -0.1248 -0.9922 246.4945 706.3732)">
				<stop  offset="0" style="stop-color:#6E3222"/>
				<stop  offset="1" style="stop-color:#4A2822"/>
			</linearGradient>
			<path fill="url(#SVGID_12_)" d="M197.112,419.685c-0.001-0.008-0.002-0.015-0.003-0.023c-0.003-0.045-0.028-0.085-0.061-0.12
				c-0.02-0.043-0.037-0.093-0.059-0.131c-0.401-0.683-15.806-2.537-22.07-2.377c-6.263,0.16-17.737,0.497-27.31,3.482
				s-14.115,6.263-14.661,6.662c-0.173,0.126,0.299,1.823,0.767,2.691c0.327,1.06,0.756,2.355,1.238,3.568
				c1.072,2.693,5.032,10.554,14.159,11.501c9.126,0.946,14.308-5.971,16.12-12.378c1.384-4.89,0.9-9.67,0.433-12.201
				c1.935-0.162,4.032-0.306,6.327-0.436c0.094,2.133,0.501,6.338,2.188,10.34c2.39,5.669,5.923,7.948,11.864,7.723
				c5.942-0.223,9.597-5.291,10.495-9.803c0.621-3.12,0.783-4.656,0.735-6.235C197.352,421.407,197.351,420.357,197.112,419.685z
				 M162.245,430.3c-0.789,4.978-5.571,10.65-12.274,10.655c-6.701,0.006-9.708-4.747-11.348-8.626
				c-0.664-1.571-1.02-2.784-1.218-3.693c2.529-1.398,6.241-3.352,10.104-4.757c4.448-1.616,8.893-2.567,14.933-3.216
				C162.673,422.308,162.963,425.779,162.245,430.3z M186.11,434.642c-3.775-0.048-6.449-0.689-9.069-5.7
				c-1.865-3.566-2.468-7.27-2.662-9.117c8.211-0.165,16.472,1.495,20.439,2.149c0.02,0.997-0.088,2.301-0.469,3.99
				C193.205,431.03,189.886,434.691,186.11,434.642z"/>
		</g>
	</g>
	<g>
		<path fill="#B2AA1B" d="M81.136,624.281c0,0-39.119-56.278-32.113-76.636s37.641,13.839,37.641,13.839
			s13.406-66.556,26.418-72.397s48.044,43.837,48.044,43.837s51.714-60.688,71.899-56.684c20.186,4.004,24.189,48.746,24.189,48.746
			s39.885-23.372,47.968-15.54c8.083,7.832,0,40.72,0,40.72s26.1-7.589,36.109,4.284s-36.109,63.524-36.109,63.524L81.136,624.281z"
			/>
		<path fill="#BFBF1B" d="M73.999,635.271c0,0-27.193-18.284-30.684-36.592s35.696-2.239,35.696-2.239s-17.078-47.839-10.096-56.972
			s40.728,11.136,40.728,11.136s35.105-61.762,52.462-53.234c17.357,8.528,42.916,60.777,42.916,60.777s54.733-39.859,65.206-28.018
			c10.473,11.841-12.8,49.977-12.8,49.977s44.054-10.738,48.791,0c4.737,10.737-24.354,34.329-24.354,34.329
			s38.036-9.89,41.127,1.878s-50.437,18.957-50.437,18.957H73.999V635.271z"/>
		<path fill="#BAB61C" d="M290.435,587.924c-23.364,6.49-46.728,6.49-70.092-5.192c-33.748-15.576-59.708,23.364-90.86,37.642
			c-14.278,6.49-32.45-6.49-49.324-2.596c-6.825,1.463-11.819,5.489-14.913,10.772c4.947,4.162,8.753,6.722,8.753,6.722h198.554
			c0,0,53.528-7.19,50.437-18.957c-3.091-11.768-41.127-1.878-41.127-1.878s19.916-16.16,24.096-27.818
			C301.014,585.672,295.817,585.966,290.435,587.924z"/>
		<ellipse fill="#A5A10E" cx="154.988" cy="499.524" rx="3.717" ry="12.349"/>
		
			<ellipse transform="matrix(-0.9275 -0.3738 0.3738 -0.9275 129.8125 1027.9313)" fill="#A5A10E" cx="164.58" cy="501.378" rx="3.03" ry="10.067"/>
		
			<ellipse transform="matrix(-0.6739 0.7388 -0.7388 -0.6739 504.6517 956.2374)" fill="#A5A10E" cx="41.299" cy="589.488" rx="3.717" ry="12.349"/>
		
			<ellipse transform="matrix(-0.9012 0.4334 -0.4334 -0.9012 346.4594 1088.2419)" fill="#A5A10E" cx="49.191" cy="583.611" rx="3.03" ry="10.067"/>
		
			<ellipse transform="matrix(-0.997 0.0775 -0.0775 -0.997 568.5657 1021.7902)" fill="#A5A10E" cx="264.456" cy="521.928" rx="3.03" ry="10.067"/>
		
			<ellipse transform="matrix(-0.7584 -0.6518 0.6518 -0.7584 141.1854 1103.7074)" fill="#A5A10E" cx="275.152" cy="525.687" rx="2.876" ry="9.554"/>
		
			<ellipse transform="matrix(-0.6412 0.7673 -0.7673 -0.6412 637.5156 868.3128)" fill="#A5A10E" cx="115.772" cy="583.188" rx="3.03" ry="10.065"/>
		
			<ellipse transform="matrix(-0.9962 0.087 -0.087 -0.9962 301.7733 1143.1902)" fill="#A5A10E" cx="125.975" cy="578.171" rx="2.876" ry="9.554"/>
		
			<ellipse transform="matrix(-0.6413 0.7673 -0.7673 -0.6413 770.6488 734.4597)" fill="#A5A10E" cx="213.647" cy="547.366" rx="3.03" ry="10.067"/>
		
			<ellipse transform="matrix(-0.9962 0.087 -0.087 -0.9962 493.9534 1063.1312)" fill="#A5A10E" cx="223.809" cy="542.33" rx="2.875" ry="9.554"/>
		
			<ellipse transform="matrix(-0.997 0.0775 -0.0775 -0.997 495.7774 927.1671)" fill="#968F09" cx="229.898" cy="473.204" rx="3.03" ry="10.067"/>
		
			<ellipse transform="matrix(-0.7584 -0.6518 0.6518 -0.7584 112.1707 995.5077)" fill="#968F09" cx="240.591" cy="476.964" rx="2.876" ry="9.554"/>
		
			<ellipse transform="matrix(-0.9259 -0.3778 0.3778 -0.9259 438.7065 1177.9075)" fill="#968F09" cx="334.886" cy="545.924" rx="2.451" ry="8.143"/>
		
			<ellipse transform="matrix(-0.5882 0.8087 -0.8087 -0.5882 570.8566 741.333)" fill="#968F09" cx="96.686" cy="516.006" rx="2.451" ry="8.143"/>
		
			<ellipse transform="matrix(-0.9084 0.4182 -0.4182 -0.9084 406.8596 932.2836)" fill="#968F09" cx="101.283" cy="510.72" rx="1.991" ry="6.617"/>
		
			<ellipse transform="matrix(-0.3926 -0.9197 0.9197 -0.3926 -32.5794 1082.3234)" fill="#968F09" cx="341.106" cy="551.92" rx="1.976" ry="6.565"/>
		
			<ellipse transform="matrix(-0.9556 -0.2946 0.2946 -0.9556 382.8226 1199.1589)" fill="#A5A10E" cx="281.735" cy="570.744" rx="2.442" ry="8.113"/>
		
			<ellipse transform="matrix(-0.7381 -0.6747 0.6747 -0.7381 113.9233 1190.6818)" fill="#A5A10E" cx="288.062" cy="573.229" rx="1.867" ry="6.204"/>
		
			<ellipse transform="matrix(0.91 -0.4146 0.4146 0.91 -214.301 78.5302)" fill="#A5A10E" cx="73.738" cy="532.891" rx="2.442" ry="8.113"/>
		
			<ellipse transform="matrix(0.6456 -0.7637 0.7637 0.6456 -385.4494 241.7644)" fill="#A5A10E" cx="67.752" cy="536.165" rx="1.867" ry="6.204"/>
	</g>
</g>
</svg>
