<?xml version="1.0" encoding="utf-8"?>
<!-- Generator: Adobe Illustrator 17.0.0, SVG Export Plug-In . SVG Version: 6.00 Build 0)  -->
<!DOCTYPE svg PUBLIC "-//W3C//DTD SVG 1.1//EN" "http://www.w3.org/Graphics/SVG/1.1/DTD/svg11.dtd">
<svg version="1.1" id="Layer_1" xmlns="http://www.w3.org/2000/svg" xmlns:xlink="http://www.w3.org/1999/xlink" x="0px" y="0px"
	 width="379.545px" height="647.455px" viewBox="0 0 379.545 647.455" enable-background="new 0 0 379.545 647.455"
	 xml:space="preserve">
<g>
	<g>
		<path fill="#8FC638" d="M207.904,538.122c1.668-14.373,5.722-33.561,7.445-41.411l0.008-0.011
			c-9.052-7.034-21.168-7.258-29.187-9.155c0,0-11.292,33.359-17.133,32.874c-5.842-0.486-20.133-25.945-20.133-25.945
			c-6.127,2.457-15.424,2.972-21.795,10.215c6.671,12.143,14.144,34.917,14.144,34.917c0.459,2.454,0.382,6.075,1.862,9.95
			C156.898,585.62,155.64,630.2,155.64,630.2c29.126-5.433,64.463,11.908,64.463,11.908c0.77-27.879-12.247-103.573-12.247-103.573
			C207.868,538.395,207.891,538.263,207.904,538.122z"/>
		<path fill="#3D5418" d="M169.385,525.194c-6.777,1.244-18.819-18.047-24.57-29.387c1.459-0.412,2.841-0.831,4.088-1.332
			c0,0,14.291,25.459,20.133,25.945c5.841,0.485,17.133-32.874,17.133-32.874c1.433,0.339,3.001,0.624,4.655,0.905
			C185.197,501.197,180.633,523.13,169.385,525.194z"/>
		<path fill="#EAB87D" d="M160.643,560.648c-4.004-0.226-4.236-1.275-4.252-2.694c-0.008-0.878,1.751-1.684,4.96-1.085
			c4.2,0.782,4.292-0.909,0.713-1.103c-7.874-0.426-6.883-4.396-1.372-4.305c7.478,0.126,10.733-0.48,17.442-2.818
			c7.472-2.602,7.151-7.311,9.301-1.651c3.939,10.362,1.618,7.6,10.102,12.506c7.367,4.261,13.367,7.699,18.096,10.388
			c-3.887-11.326-6.949-24.247-7.728-31.764l19.981-12.987c2.118,10.265,5.957,34.532,5.15,61.063
			c-0.152,5.073,0.822,9.198-4.069,9.665c-8.781,0.84-23.865-4.506-41.456-25.886c-1.312-1.593-2.265-1.385-8.178-1.117
			c-7.891,0.356-16.737,0.782-17.849-0.003c-0.944-0.666-1.145-1.868,0.614-2.317c2.114-0.54,0.015,0.105,2.474-0.321
			c4.324-0.749,1.04-0.927-4.202-1.064c-4.017-0.106-1.968-3.415,0.142-3.19c2.665,0.281,3.256,0.49,4.714-0.131
			C166.189,561.424,165.071,560.898,160.643,560.648z"/>
		<path fill="#423423" d="M217.074,532.162l10.812-7.027c2.118,10.265,5.957,34.532,5.15,61.063
			c-0.117,3.873,0.416,7.187-1.498,8.749c0.019-0.071,0.039-0.139,0.055-0.21C235.204,572.719,223.676,540.793,217.074,532.162z"/>
		<path fill="#EAB87D" d="M153.193,469.619c0,0,0.937,19.255-4.289,24.855c0,0,14.291,25.459,20.133,25.945
			c5.841,0.485,17.133-32.874,17.133-32.874c-3.847-4.956-5.952-22.502-5.952-22.502L153.193,469.619z"/>
		<path fill="#EAB87D" d="M174.998,465.927c0.735,10.281,3.665,20.315,8.299,29.538c-3.74,9.833-10.272,25.285-14.26,24.954
			c-3.632-0.302-10.527-10.255-15.227-17.742c4.579-9.886,5.285-22.453,4.702-33.958L174.998,465.927z"/>
		<path fill="#EAB87D" d="M120.437,539.795l21.043,9.417c0.543,11.375-0.181,21.855-1.711,29.983
			c1.555,8.135,4.762,9.419,9.277,23.002c3.137,9.433,5.813,16.915,7.286,20.951c1.374,1.079,2.658,2.095,3.782,2.983
			c0,0,6.299-1.235,8.503,1.833c2.205,3.068,4.811,9.524,7.59,10.516c2.474,0.881-3.896,1.319-7.644-3.114
			c-1.541,2.534-3.976,5.887-7.619,9.303c-8.636-6.871-8.859-11.177-8.859-11.177c-7.275-6.979-12.838-14.781-15.874-19.427
			c-5.737-8.481-10.167-17.61-9.756-24.211C122.562,579.746,120.019,558.381,120.437,539.795z"/>
		<path fill="#423423" d="M137.615,581.457c-0.902-1.876-9.764-24.026-6.051-36.684l9.917,4.438
			c0.543,11.375-0.181,21.855-1.711,29.983c0.639,3.344,1.558,5.531,2.732,7.889c1.682,3.379,3.886,7.113,6.545,15.112
			c3.133,9.42,5.807,16.894,7.28,20.932C120.236,587.371,139.209,584.768,137.615,581.457z"/>
		<path fill="#A9DB49" d="M120.122,531.918c0,0,15.894,11.621,22.993,17.638c-0.767-4.078-1.403-7.496-1.862-9.95
			c0,0-7.473-22.774-14.144-34.917C122.742,509.652,119.751,517.795,120.122,531.918z"/>
		<path fill="#A9DB49" d="M215.349,496.711c-1.723,7.85-5.777,27.037-7.445,41.411c9.79-7.179,20.06-12.532,20.06-12.532
			s-4.503-19.444-7.237-23.284c-1.605-2.239-3.413-4.083-5.371-5.606L215.349,496.711z"/>
		<g>
			<path fill="#8FC638" d="M228.542,511.575c0,0,0.797,3.508,1.226,6.83L205.64,537.7l-0.498-2.888
				C215.468,519.905,228.542,511.575,228.542,511.575z"/>
			<path fill="#A9DB49" d="M232.435,516.793c0,0-19.483,11.233-27.935,22.318l1.875,2.858c0,0,14.687-10.98,27.465-17.019
				L232.435,516.793z"/>
		</g>
		<g>
			<path fill="#8FC638" d="M115.92,528.384c0,0,14.684,4.963,28.276,16.971l0.206,2.922l-28.042-12.969
				C115.984,531.981,115.92,528.384,115.92,528.384z"/>
			<path fill="#A9DB49" d="M113.387,534.382c0,0,21.601,6.25,32.458,14.994l-1.136,3.223c0,0-16.888-7.151-30.738-9.961
				L113.387,534.382z"/>
		</g>
	</g>
	<g>
		
			<linearGradient id="SVGID_1_" gradientUnits="userSpaceOnUse" x1="128.4832" y1="437.5815" x2="139.5919" y2="412.8514" gradientTransform="matrix(0.9922 -0.1248 0.1248 0.9922 -56.2932 23.961)">
			<stop  offset="0" style="stop-color:#C88F54"/>
			<stop  offset="1" style="stop-color:#916E37"/>
		</linearGradient>
		<path fill="url(#SVGID_1_)" d="M132.926,443.286c-1.188-2.782-3.075-8.62-0.823-14.871c2.25-6.253,7.557-9.016,7.557-9.016
			l-6.824-7.624c0,0-5.632,1.86-7.83,8.525c-2.198,6.665-1.447,10.969,0.928,15.698c2.375,4.728,4.543,8.644,4.543,8.644
			L132.926,443.286z"/>
		
			<linearGradient id="SVGID_2_" gradientUnits="userSpaceOnUse" x1="198.5858" y1="432.7032" x2="187.4774" y2="415.7761" gradientTransform="matrix(0.9922 -0.1248 0.1248 0.9922 -56.2932 23.961)">
			<stop  offset="0" style="stop-color:#C88F54"/>
			<stop  offset="1" style="stop-color:#916E37"/>
		</linearGradient>
		<path fill="url(#SVGID_2_)" d="M182.39,408.576c2.384,0.643,6.162,1.528,8.048,6.528c1.885,4.999,1.907,15.993,1.199,16.186
			c-0.709,0.195-3.017-0.667-3.017-0.667s0.2-6.727-2.341-10.283c-2.542-3.555-6.54-7.031-6.54-7.031L182.39,408.576z"/>
		<path fill="#FFD399" d="M130.413,443.568c-2.35-11.747-0.777-26.154,20.167-30.605c20.944-4.45,32.063-3.754,36.849,7.652
			c4.787,11.407,5.676,26.237,6.972,35.429c1.296,9.192-1.713,27.445-13.653,31.321c-11.94,3.876-30.169,7.705-39.536-14.575
			S132.295,452.966,130.413,443.568z"/>
		<polygon fill="#471A14" points="128.19,441.162 131.596,438.532 133.39,440.64 132.218,441.921 		"/>
		
			<linearGradient id="SVGID_3_" gradientUnits="userSpaceOnUse" x1="140.4667" y1="398.1819" x2="170.7512" y2="404.9265" gradientTransform="matrix(0.9922 -0.1248 0.1248 0.9922 -56.2932 23.961)">
			<stop  offset="0" style="stop-color:#E5BD6D"/>
			<stop  offset="1" style="stop-color:#C08A52"/>
		</linearGradient>
		<path fill="url(#SVGID_3_)" d="M132.61,418.296c-2.672-5.004-1.916-11.438,4.619-15.992c7.932-5.527,10.639-6.122,17.328-7.067
			c6.688-0.947,13.416,0.626,18.13-0.682c9.96-2.764,10.739-5.714,11.735-7.284c0.714-1.125,1.096-2.328,1.533-1.136
			c0.295,0.804,1,5.69,1.083,13.011c0.083,7.321-4.231,19.081-15.894,21.282c-11.662,2.201-22.239,3.358-27.214,2.937
			C138.954,422.943,134.391,421.633,132.61,418.296z"/>
		
			<linearGradient id="SVGID_4_" gradientUnits="userSpaceOnUse" x1="162.1076" y1="463.7861" x2="168.1899" y2="460.8772" gradientTransform="matrix(0.9922 -0.1248 0.1248 0.9922 -56.2932 23.961)">
			<stop  offset="0" style="stop-color:#C88F54"/>
			<stop  offset="1" style="stop-color:#916E37"/>
		</linearGradient>
		<path fill="url(#SVGID_4_)" d="M154.73,461.592c0.251-0.501,1.481,3.528,5.72,2.261c4.239-1.267,3.004-5.669,6.051-6.835
			c1.616-0.619,3.197,0.435,3.378,1.878c0.182,1.444,1.279,5.312-1.399,8.163c-2.678,2.85-8.471,2.893-10.793,1.091
			C155.367,466.348,154.396,462.263,154.73,461.592z"/>
		
			<linearGradient id="SVGID_5_" gradientUnits="userSpaceOnUse" x1="183.8045" y1="466.9075" x2="173.7539" y2="462.1467" gradientTransform="matrix(0.9922 -0.1248 0.1248 0.9922 -56.2932 23.961)">
			<stop  offset="0" style="stop-color:#C88F54"/>
			<stop  offset="1" style="stop-color:#916E37"/>
		</linearGradient>
		<path fill="url(#SVGID_5_)" d="M172.025,455.066c2.527-0.136,3.96,3.168,5.147,5.113c1.188,1.946,3.109,2.444,4.835,1.8
			c2.512-0.936,1.965-3.819,2.334-3.757c0.235,0.039,1.786,4.308-0.476,6.813c-1.774,1.967-6.81,3.79-10.4,1.476
			c-4.577-2.951-3.744-8.117-3.397-9.522C170.415,455.583,170.569,455.145,172.025,455.066z"/>
		<path fill="#FFFFFF" d="M142.69,446.401c-2.813-3.882-2.293-9.501,0.387-11.513c2.678-2.013,9.018-4.067,12.345-1.763
			c3.328,2.303,4.326,7.373,3.297,10.015c-1.029,2.644-2.315,4.912-7.146,6.053C147.42,450.173,144.845,449.377,142.69,446.401z"/>
		<path fill="#FFFFFF" d="M176.002,437.145c0.055-0.273,2.176-2.689,7.245-2.948c5.071-0.259,7.879,1.413,7.807,1.78
			c-0.072,0.367-1.37,1.613-3.796,2.1c-2.426,0.487-5.262,0.802-7.34,0.53C178.379,438.405,175.881,437.75,176.002,437.145z"/>
		
			<linearGradient id="SVGID_6_" gradientUnits="userSpaceOnUse" x1="144.9977" y1="474.3873" x2="175.5466" y2="469.4942" gradientTransform="matrix(0.9922 -0.1248 0.1248 0.9922 -56.2932 23.961)">
			<stop  offset="0" style="stop-color:#E5BD6D"/>
			<stop  offset="1" style="stop-color:#C08A52"/>
		</linearGradient>
		<path fill="url(#SVGID_6_)" d="M131.7,447.34c0.55-0.069,0.694-0.86,3.15,0.314c1.323,0.633,4.313,1.794,4.365,2.206
			c0.052,0.412,1.874,13.486,6.83,21.799c4.956,8.313,10.766,9.208,14.924,9.14c5.675-0.092,8.018-1.452,8.85-3.162
			c0.833-1.71-0.383-2.435,0.648-2.565c1.031-0.13,4.308-0.782,4.429-0.379c0.121,0.405-0.222,1.565,1.806,2.706
			c2.029,1.141,7.337,1.075,10.54-1.773c3.203-2.846,5.658-8.709,5.146-18.419c-0.299-5.693-1.406-10.873-1.638-11.612
			c-0.233-0.739,2.284-3.943,2.731-3.72c0.447,0.223,4.328,8.272,6.268,15.917c1.939,7.646,1.777,19.77-1.919,28.818
			c-3.212,7.86-12.483,13.44-23.032,15.047c-10.551,1.607-21.499-2.419-28.836-13.016c-7.339-10.597-10.566-21.215-12.841-29.307
			C130.846,451.243,131.151,447.409,131.7,447.34z"/>
		<path fill="#2D1900" d="M170.465,471.136c-0.287-1.125,1.346-2.777,2.422-1.561c1.215,1.375,0.157,2.074-0.32,2.449
			C172.089,472.399,170.878,472.761,170.465,471.136z"/>
		<path fill="#2D1900" d="M146.178,442.307c-1.151-3.551,1.945-5.783,5.072-5.222c3.126,0.562,3.646,4.697,2.355,6.58
			C152.315,445.546,147.426,446.161,146.178,442.307z"/>
		
			<linearGradient id="SVGID_7_" gradientUnits="userSpaceOnUse" x1="170.6103" y1="454.292" x2="170.6103" y2="436.5714" gradientTransform="matrix(0.9922 -0.1248 0.1248 0.9922 -56.2932 23.961)">
			<stop  offset="0" style="stop-color:#E5523E"/>
			<stop  offset="1" style="stop-color:#FF986B"/>
		</linearGradient>
		<path fill="url(#SVGID_7_)" d="M170.802,429.712c0.336,1.006,0.486,4.662,2.205,10.835c1.72,6.172,2.19,14.072-0.411,17.541
			c-2.6,3.469-7.719,1.914-8.072-3.383c-0.352-5.296-0.846-10.89-0.837-15.813c0.009-4.924,0.251-8.829,0.251-8.829L170.802,429.712
			z"/>
		<path fill="#2D1900" d="M184.17,435.156c1.491,1.228,0.16,3.035-1.194,2.939c-1.354-0.096-1.983-0.706-1.84-1.978
			C181.279,434.843,183.144,434.311,184.17,435.156z"/>
		
			<linearGradient id="SVGID_8_" gradientUnits="userSpaceOnUse" x1="143.1671" y1="438.2211" x2="129.6777" y2="442.0564" gradientTransform="matrix(0.9922 -0.1248 0.1248 0.9922 -56.2932 23.961)">
			<stop  offset="0" style="stop-color:#FFD399"/>
			<stop  offset="0.216" style="stop-color:#FFC98F"/>
			<stop  offset="1" style="stop-color:#FFA46D"/>
		</linearGradient>
		<path fill="url(#SVGID_8_)" d="M135.414,442.962c-1.509-2.754-7.873-3.362-9.35-0.662c-1.475,2.698,1.105,6.563,4.25,7.144
			C133.461,450.027,138.134,447.926,135.414,442.962z"/>
		
			<linearGradient id="SVGID_9_" gradientUnits="userSpaceOnUse" x1="133.4022" y1="440.0271" x2="130.2282" y2="440.0271" gradientTransform="matrix(0.9922 -0.1248 0.1248 0.9922 -56.2932 23.961)">
			<stop  offset="0" style="stop-color:#E5523E"/>
			<stop  offset="1" style="stop-color:#FF986B"/>
		</linearGradient>
		<path fill="url(#SVGID_9_)" d="M128.326,444.179c-0.158-1.254,1.789-2.424,2.744-1.498c0.954,0.927,0.891,2.087,0.13,2.707
			C130.441,446.008,128.443,445.107,128.326,444.179z"/>
		
			<linearGradient id="SVGID_10_" gradientUnits="userSpaceOnUse" x1="204.1406" y1="417.3489" x2="181.394" y2="408.885" gradientTransform="matrix(0.9922 -0.1248 0.1248 0.9922 -56.2932 23.961)">
			<stop  offset="0" style="stop-color:#E5BD6D"/>
			<stop  offset="0.1616" style="stop-color:#D8AE5B"/>
			<stop  offset="1" style="stop-color:#966200"/>
		</linearGradient>
		<path opacity="0.26" fill="url(#SVGID_10_)" d="M185.603,385.655c0.091,2.615-0.227,6.373-1.772,11.318
			c-3.294,10.545-10.289,14.268-15.624,17.071c-5.334,2.804-10.145,4.12-18.213,6.38c-3.357,0.94-6.336,1.861-8.684,2.62
			c0.851,0.139,1.728,0.245,2.618,0.32c4.976,0.421,15.552-0.736,27.214-2.937c11.661-2.201,15.977-13.961,15.894-21.282
			c-0.084-7.321-0.789-12.207-1.083-13.011C185.836,385.812,185.722,385.676,185.603,385.655z"/>
		
			<linearGradient id="SVGID_11_" gradientUnits="userSpaceOnUse" x1="207.8196" y1="459.7403" x2="191.6855" y2="471.6425" gradientTransform="matrix(0.9922 -0.1248 0.1248 0.9922 -56.2932 23.961)">
			<stop  offset="0" style="stop-color:#E5BD6D"/>
			<stop  offset="0.1616" style="stop-color:#D8AE5B"/>
			<stop  offset="1" style="stop-color:#966200"/>
		</linearGradient>
		<path opacity="0.26" fill="url(#SVGID_11_)" d="M199.748,457.793c-1.939-7.645-5.821-15.694-6.268-15.917
			c-0.447-0.223-2.964,2.982-2.731,3.72c0.232,0.738,1.34,5.919,1.638,11.612c0.28,5.315-0.333,9.47-1.467,12.616
			c1.416,2.832,2.617,6.704,2.471,11.606c-0.336,11.262-3.075,13.148-11.688,18.535c7.524-2.567,13.641-7.273,16.126-13.354
			C201.525,477.563,201.688,465.439,199.748,457.793z"/>
		<path opacity="0.36" fill="#FFFFFF" d="M165.978,455.307c-0.643-1.851-0.159-3.287,0.406-2.576
			c0.563,0.71,0.836,1.577,0.802,2.724C167.153,456.601,166.421,456.581,165.978,455.307z"/>
		<path fill="#2D1900" d="M167.45,458.029c0.881,0.724,0.094,1.793-0.705,1.735c-0.8-0.056-1.17-0.417-1.086-1.168
			C165.743,457.845,166.844,457.531,167.45,458.029z"/>
		<path fill="#2D1900" d="M173.165,457.576c0.809,0.666,0.087,1.646-0.647,1.593c-0.734-0.052-1.075-0.382-0.997-1.073
			C171.598,457.407,172.608,457.118,173.165,457.576z"/>
		<path fill="#2D1900" d="M131.411,433.738c0.053-0.733,0.251-7.991,4.218-12.261c3.966-4.269,9.615-8.466,16.678-8.097
			c7.064,0.368,10.022,3.9,11.932,6.592c1.91,2.691,2.375,4.728,2.028,5.294c-0.347,0.568-5.732,3.549-6.39,3.318
			c-0.659-0.232-1.975-3.207-4.349-5.422c-2.373-2.215-8.418-2.815-11.432-0.97c-3.015,1.845-4.762,3.578-5.796,5.547
			c-2.01,3.829-2.678,7.2-3.09,7.252C134.799,435.043,131.335,434.794,131.411,433.738z"/>
		<path fill="#2D1900" d="M172.176,425.098c0.13-0.619,1.231-5.365,5.673-6c7.739-1.108,10.359,5.592,10.424,6.107
			c0.065,0.516-1.866,2.19-2.382,2.255c-0.516,0.065-2.015-4.012-5.924-3.183c-2.123,0.45-1.79,2.424-2.099,2.463
			C177.558,426.779,172.065,425.621,172.176,425.098z"/>
		
			<linearGradient id="SVGID_12_" gradientUnits="userSpaceOnUse" x1="167.6312" y1="463.9409" x2="166.9259" y2="433.9655" gradientTransform="matrix(0.9922 -0.1248 0.1248 0.9922 -56.2932 23.961)">
			<stop  offset="0" style="stop-color:#6E3222"/>
			<stop  offset="1" style="stop-color:#4A2822"/>
		</linearGradient>
		<path fill="url(#SVGID_12_)" d="M195.759,431.038c-0.001-0.008-0.002-0.015-0.003-0.023c-0.003-0.045-0.028-0.085-0.061-0.12
			c-0.02-0.043-0.037-0.093-0.059-0.131c-0.401-0.683-15.806-2.537-22.07-2.377c-6.263,0.16-17.737,0.497-27.31,3.482
			c-9.573,2.985-14.115,6.263-14.661,6.662c-0.173,0.126,0.299,1.823,0.767,2.691c0.327,1.06,0.756,2.355,1.238,3.568
			c1.072,2.693,5.032,10.554,14.159,11.501c9.126,0.946,14.308-5.971,16.12-12.378c1.384-4.89,0.9-9.67,0.433-12.201
			c1.935-0.162,4.032-0.306,6.327-0.436c0.094,2.133,0.501,6.338,2.188,10.34c2.39,5.669,5.923,7.948,11.864,7.723
			c5.942-0.223,9.597-5.291,10.495-9.803c0.621-3.12,0.783-4.656,0.735-6.235C195.999,432.76,195.998,431.71,195.759,431.038z
			 M160.892,441.653c-0.789,4.978-5.571,10.65-12.274,10.655c-6.701,0.006-9.708-4.747-11.348-8.626
			c-0.664-1.571-1.02-2.784-1.218-3.693c2.529-1.398,6.241-3.352,10.104-4.757c4.448-1.616,8.893-2.567,14.933-3.216
			C161.32,433.661,161.61,437.132,160.892,441.653z M184.757,445.995c-3.775-0.048-6.449-0.689-9.069-5.7
			c-1.865-3.566-2.468-7.27-2.662-9.117c8.211-0.165,16.472,1.495,20.439,2.149c0.02,0.997-0.088,2.301-0.469,3.99
			C191.852,442.383,188.533,446.044,184.757,445.995z"/>
	</g>
</g>
<g>
	<rect x="4.993" y="205.931" fill="none" width="367.295" height="107.134"/>
	<g enable-background="new    ">
		<path d="M75.52,222.842v3.34h-2.754v-5.895h1.207c0.57-0.359,0.98-0.885,1.23-1.576s0.41-1.635,0.48-2.83l0.609-9.949H87.73
			v14.355h2.109v5.895h-2.742v-3.34L75.52,222.842L75.52,222.842z M78.485,216.068c-0.07,1.039-0.188,1.877-0.352,2.514
			s-0.43,1.174-0.797,1.611v0.094h7.383v-11.813h-5.754L78.485,216.068z"/>
		<path d="M95.371,223.041c-1.211,0-2.205-0.348-2.982-1.043s-1.166-1.598-1.166-2.707c0-1.102,0.408-1.973,1.225-2.613
			s1.982-1.008,3.498-1.102l3.281-0.188v-0.891c0-0.648-0.205-1.152-0.615-1.512s-0.979-0.539-1.705-0.539
			c-0.68,0-1.234,0.152-1.664,0.457s-0.691,0.719-0.785,1.242H91.75c0.063-1.18,0.568-2.139,1.518-2.877s2.201-1.107,3.756-1.107
			c1.539,0,2.771,0.375,3.697,1.125s1.389,1.75,1.389,3v8.555h-2.813v-1.98h-0.059c-0.352,0.664-0.883,1.193-1.594,1.588
			S96.176,223.041,95.371,223.041z M96.25,220.838c0.836,0,1.541-0.248,2.115-0.744s0.861-1.115,0.861-1.857v-0.949l-2.871,0.176
			c-0.703,0.047-1.248,0.221-1.635,0.521s-0.58,0.697-0.58,1.189c0,0.508,0.193,0.912,0.58,1.213S95.618,220.838,96.25,220.838z"/>
		<path d="M112.821,222.842v-5.273h-5.25v5.273h-2.906V210.42h2.906v4.898h5.25v-4.898h2.906v12.422H112.821z"/>
		<path d="M126.496,222.842v-5.273h-5.25v5.273h-2.906V210.42h2.906v4.898h5.25v-4.898h2.906v12.422H126.496z"/>
		<path d="M141.907,221.359c-1.086,1.152-2.547,1.729-4.383,1.729s-3.297-0.576-4.383-1.729s-1.629-2.729-1.629-4.729
			c0-1.992,0.547-3.568,1.641-4.729s2.551-1.74,4.371-1.74c1.828,0,3.287,0.58,4.377,1.74s1.635,2.736,1.635,4.729
			C143.536,218.631,142.993,220.207,141.907,221.359z M135.297,219.69c0.547,0.727,1.289,1.09,2.227,1.09s1.68-0.363,2.227-1.09
			s0.82-1.746,0.82-3.059c0-1.305-0.273-2.322-0.82-3.053s-1.289-1.096-2.227-1.096c-0.93,0-1.67,0.365-2.221,1.096
			s-0.826,1.748-0.826,3.053C134.477,217.943,134.75,218.963,135.297,219.69z"/>
		<path d="M148.481,222.842h-2.859V210.42h2.859v8.297h0.094l5.402-8.297h2.859v12.422h-2.859v-8.355h-0.094L148.481,222.842z
			 M147.379,204.877h1.875c0.008,0.664,0.205,1.207,0.592,1.629s0.896,0.633,1.529,0.633s1.143-0.211,1.529-0.633
			s0.584-0.965,0.592-1.629h1.875c0,1.133-0.367,2.045-1.102,2.736s-1.699,1.037-2.895,1.037s-2.16-0.346-2.895-1.037
			S147.379,206.01,147.379,204.877z"/>
		<path d="M175.106,214.51h-2.766c-0.164-0.586-0.473-1.063-0.926-1.43s-1.027-0.551-1.723-0.551c-0.922,0-1.654,0.369-2.197,1.107
			s-0.814,1.736-0.814,2.994c0,1.273,0.271,2.275,0.814,3.006s1.279,1.096,2.209,1.096c0.695,0,1.271-0.172,1.729-0.516
			s0.768-0.828,0.932-1.453h2.766c-0.18,1.313-0.756,2.361-1.729,3.146s-2.213,1.178-3.721,1.178c-1.82,0-3.266-0.578-4.336-1.734
			s-1.605-2.73-1.605-4.723c0-1.969,0.535-3.539,1.605-4.711s2.508-1.758,4.313-1.758c1.516,0,2.758,0.41,3.727,1.23
			S174.926,213.252,175.106,214.51z"/>
		<path d="M186.543,210.42v2.25h-3.82v10.172h-2.895V212.67h-3.82v-2.25H186.543z"/>
		<path d="M195.168,210.209c1.578,0,2.832,0.574,3.762,1.723s1.395,2.715,1.395,4.699c0,1.977-0.461,3.539-1.383,4.688
			s-2.164,1.723-3.727,1.723c-0.891,0-1.676-0.201-2.355-0.604s-1.191-0.955-1.535-1.658h-0.059v6.152h-2.918V210.42h2.848v2.145
			h0.059c0.359-0.734,0.879-1.311,1.559-1.729S194.278,210.209,195.168,210.209z M194.278,220.65c0.945,0,1.691-0.361,2.238-1.084
			s0.82-1.701,0.82-2.936c0-1.227-0.275-2.203-0.826-2.93s-1.295-1.09-2.232-1.09c-0.906,0-1.637,0.367-2.191,1.102
			s-0.836,1.707-0.844,2.918c0.008,1.219,0.289,2.193,0.844,2.924S193.371,220.65,194.278,220.65z"/>
		<path d="M206.102,223.041c-1.211,0-2.205-0.348-2.982-1.043s-1.166-1.598-1.166-2.707c0-1.102,0.408-1.973,1.225-2.613
			s1.982-1.008,3.498-1.102l3.281-0.188v-0.891c0-0.648-0.205-1.152-0.615-1.512s-0.979-0.539-1.705-0.539
			c-0.68,0-1.234,0.152-1.664,0.457s-0.691,0.719-0.785,1.242h-2.707c0.063-1.18,0.568-2.139,1.518-2.877s2.201-1.107,3.756-1.107
			c1.539,0,2.771,0.375,3.697,1.125s1.389,1.75,1.389,3v8.555h-2.813v-1.98h-0.059c-0.352,0.664-0.883,1.193-1.594,1.588
			S206.907,223.041,206.102,223.041z M206.981,220.838c0.836,0,1.541-0.248,2.115-0.744s0.861-1.115,0.861-1.857v-0.949
			l-2.871,0.176c-0.703,0.047-1.248,0.221-1.635,0.521s-0.58,0.697-0.58,1.189c0,0.508,0.193,0.912,0.58,1.213
			S206.348,220.838,206.981,220.838z"/>
		<path d="M223.551,222.842v-5.273h-5.25v5.273h-2.906V210.42h2.906v4.898h5.25v-4.898h2.906v12.422H223.551z"/>
		<path d="M231.93,222.842h-2.859V210.42h2.859v8.297h0.094l5.402-8.297h2.859v12.422h-2.859v-8.355h-0.094L231.93,222.842z"/>
		<path d="M255.672,226.088H253v-3.246h-10.113V210.42h2.906v10.172h5.063V210.42h2.906v10.172h1.91L255.672,226.088
			L255.672,226.088z"/>
		<path d="M257.313,222.842V210.42h2.906v3.727h2.402c1.453,0,2.609,0.393,3.469,1.178s1.289,1.842,1.289,3.17
			s-0.43,2.385-1.289,3.17s-2.016,1.178-3.469,1.178L257.313,222.842L257.313,222.842z M262.246,216.361h-2.027v4.242h2.027
			c0.68,0,1.223-0.195,1.629-0.586s0.609-0.902,0.609-1.535c0-0.641-0.205-1.154-0.615-1.541
			C263.459,216.554,262.918,216.361,262.246,216.361z M268.715,222.842V210.42h2.895v12.422H268.715z"/>
		<path d="M287.172,222.842v-5.273h-5.25v5.273h-2.906V210.42h2.906v4.898h5.25v-4.898h2.906v12.422H287.172z"/>
		<path d="M300.93,219.127h2.73c-0.188,1.18-0.785,2.135-1.793,2.865s-2.242,1.096-3.703,1.096c-1.859,0-3.32-0.572-4.383-1.717
			s-1.594-2.709-1.594-4.693c0-1.969,0.529-3.547,1.588-4.734s2.482-1.781,4.271-1.781c1.758,0,3.152,0.564,4.184,1.693
			s1.547,2.639,1.547,4.529v0.949h-8.684v0.176c0,1,0.283,1.805,0.85,2.414s1.326,0.914,2.279,0.914c0.672,0,1.252-0.154,1.74-0.463
			S300.774,219.65,300.93,219.127z M298.059,212.424c-0.813,0-1.49,0.279-2.033,0.838c-0.543,0.559-0.846,1.275-0.908,2.15h5.801
			c-0.031-0.883-0.309-1.602-0.832-2.156S298.887,212.424,298.059,212.424z"/>
	</g>
	<g enable-background="new    ">
		<path d="M131.014,243.31h-2.766c-0.164-0.586-0.473-1.063-0.926-1.43s-1.027-0.551-1.723-0.551c-0.922,0-1.654,0.369-2.197,1.107
			s-0.814,1.736-0.814,2.994c0,1.273,0.271,2.275,0.814,3.006s1.279,1.096,2.209,1.096c0.695,0,1.271-0.172,1.729-0.516
			s0.768-0.828,0.932-1.453h2.766c-0.18,1.313-0.756,2.361-1.729,3.146s-2.213,1.178-3.721,1.178c-1.82,0-3.266-0.578-4.336-1.734
			s-1.605-2.73-1.605-4.723c0-1.969,0.535-3.539,1.605-4.711s2.508-1.758,4.313-1.758c1.516,0,2.758,0.41,3.727,1.23
			S130.834,242.052,131.014,243.31z"/>
		<path d="M134.236,256.259c-0.633,0-1.016-0.016-1.148-0.047v-2.309c0.133,0.031,0.414,0.047,0.844,0.047
			c0.602,0,1.07-0.125,1.406-0.375s0.586-0.66,0.75-1.23c0-0.008,0.029-0.121,0.088-0.34s0.084-0.336,0.076-0.352l-4.418-12.434
			h3.188l2.93,9.938h0.047l2.93-9.938h3.07l-4.488,12.914c-0.531,1.539-1.188,2.611-1.969,3.217S135.658,256.259,134.236,256.259z"
			/>
		<path d="M163.896,254.888h-2.672v-3.246h-15.621V239.22h2.906v10.172h3.855V239.22h2.906v10.172h3.867V239.22h2.906v10.172h1.852
			L163.896,254.888L163.896,254.888z"/>
		<path d="M173.728,247.927h2.73c-0.188,1.18-0.785,2.135-1.793,2.865s-2.242,1.096-3.703,1.096c-1.859,0-3.32-0.572-4.383-1.717
			s-1.594-2.709-1.594-4.693c0-1.969,0.529-3.547,1.588-4.734s2.482-1.781,4.271-1.781c1.758,0,3.152,0.564,4.184,1.693
			s1.547,2.639,1.547,4.529v0.949h-8.684v0.176c0,1,0.283,1.805,0.85,2.414s1.326,0.914,2.279,0.914c0.672,0,1.252-0.154,1.74-0.463
			S173.572,248.45,173.728,247.927z M170.857,241.224c-0.813,0-1.49,0.279-2.033,0.838s-0.846,1.275-0.908,2.15h5.801
			c-0.031-0.883-0.309-1.602-0.832-2.156S171.685,241.224,170.857,241.224z"/>
		<path d="M189.526,243.31h-2.766c-0.164-0.586-0.473-1.063-0.926-1.43s-1.027-0.551-1.723-0.551c-0.922,0-1.654,0.369-2.197,1.107
			s-0.814,1.736-0.814,2.994c0,1.273,0.271,2.275,0.814,3.006s1.279,1.096,2.209,1.096c0.695,0,1.271-0.172,1.729-0.516
			s0.768-0.828,0.932-1.453h2.766c-0.18,1.313-0.756,2.361-1.729,3.146s-2.213,1.178-3.721,1.178c-1.82,0-3.266-0.578-4.336-1.734
			s-1.605-2.73-1.605-4.723c0-1.969,0.535-3.539,1.605-4.711s2.508-1.758,4.313-1.758c1.516,0,2.758,0.41,3.727,1.23
			S189.346,242.052,189.526,243.31z"/>
		<path d="M200.963,239.22v2.25h-3.82v10.172h-2.895V241.47h-3.82v-2.25H200.963z"/>
		<path d="M202.756,251.642V239.22h5.895c1.25,0,2.23,0.279,2.941,0.838s1.066,1.33,1.066,2.314c0,0.648-0.209,1.229-0.627,1.74
			s-0.936,0.822-1.553,0.932v0.094c0.82,0.109,1.48,0.43,1.98,0.961s0.75,1.184,0.75,1.957c0,1.102-0.4,1.975-1.201,2.619
			s-1.889,0.967-3.264,0.967H202.756z M207.971,241.2h-2.355v3.094h2.133c1.375,0,2.063-0.523,2.063-1.57
			c0-0.484-0.158-0.859-0.475-1.125S208.565,241.2,207.971,241.2z M207.924,246.146h-2.309v3.516h2.543
			c0.695,0,1.227-0.15,1.594-0.451s0.551-0.736,0.551-1.307C210.303,246.732,209.51,246.146,207.924,246.146z"/>
		<path d="M216.526,256.259c-0.633,0-1.016-0.016-1.148-0.047v-2.309c0.133,0.031,0.414,0.047,0.844,0.047
			c0.602,0,1.07-0.125,1.406-0.375s0.586-0.66,0.75-1.23c0-0.008,0.029-0.121,0.088-0.34s0.084-0.336,0.076-0.352l-4.418-12.434
			h3.188l2.93,9.938h0.047l2.93-9.938h3.07l-4.488,12.914c-0.531,1.539-1.188,2.611-1.969,3.217S217.948,256.259,216.526,256.259z"
			/>
		<path d="M235.78,247.927h2.73c-0.188,1.18-0.785,2.135-1.793,2.865s-2.242,1.096-3.703,1.096c-1.859,0-3.32-0.572-4.383-1.717
			s-1.594-2.709-1.594-4.693c0-1.969,0.529-3.547,1.588-4.734s2.482-1.781,4.271-1.781c1.758,0,3.152,0.564,4.184,1.693
			s1.547,2.639,1.547,4.529v0.949h-8.684v0.176c0,1,0.283,1.805,0.85,2.414s1.326,0.914,2.279,0.914c0.672,0,1.252-0.154,1.74-0.463
			S235.623,248.45,235.78,247.927z M232.909,241.224c-0.813,0-1.49,0.279-2.033,0.838s-0.846,1.275-0.908,2.15h5.801
			c-0.031-0.883-0.309-1.602-0.832-2.156S233.737,241.224,232.909,241.224z"/>
		<path d="M250.006,239.22v2.25h-3.82v10.172h-2.895V241.47h-3.82v-2.25H250.006z"/>
		<path d="M253.229,255.216h-2.238l0.973-6.363h2.848L253.229,255.216z"/>
	</g>
	<g enable-background="new    ">
		<path d="M27.257,280.441v-5.273h-5.25v5.273H19.1v-12.422h2.906v4.898h5.25v-4.898h2.906v12.422H27.257z"/>
		<path d="M42.667,278.959c-1.086,1.152-2.547,1.729-4.383,1.729s-3.297-0.576-4.383-1.729s-1.629-2.729-1.629-4.729
			c0-1.992,0.547-3.568,1.641-4.729s2.551-1.74,4.371-1.74c1.828,0,3.287,0.58,4.377,1.74s1.635,2.736,1.635,4.729
			C44.296,276.231,43.753,277.807,42.667,278.959z M36.058,277.289c0.547,0.727,1.289,1.09,2.227,1.09s1.68-0.363,2.227-1.09
			s0.82-1.746,0.82-3.059c0-1.305-0.273-2.322-0.82-3.053s-1.289-1.096-2.227-1.096c-0.93,0-1.67,0.365-2.221,1.096
			s-0.826,1.748-0.826,3.053C35.237,275.543,35.511,276.563,36.058,277.289z"/>
		<path d="M53.308,276.363c0.164,0.625,0.479,1.109,0.943,1.453s1.049,0.516,1.752,0.516c0.828,0,1.514-0.289,2.057-0.867
			s0.85-1.383,0.92-2.414h-4.887v-2.016h4.828c-0.109-0.906-0.428-1.617-0.955-2.133s-1.178-0.773-1.951-0.773
			c-0.711,0-1.297,0.182-1.758,0.545s-0.77,0.842-0.926,1.436h-2.766c0.172-1.266,0.746-2.307,1.723-3.123
			c0.977-0.816,2.23-1.225,3.762-1.225c1.797,0,3.229,0.586,4.295,1.758s1.6,2.742,1.6,4.711c0,1.992-0.533,3.566-1.6,4.723
			s-2.506,1.734-4.318,1.734c-1.516,0-2.762-0.393-3.738-1.178c-0.976-0.785-1.555-1.834-1.734-3.146h2.753
			C53.308,276.364,53.308,276.363,53.308,276.363z"/>
		<path d="M73.358,268.02v2.25h-3.82v10.172h-2.895V270.27h-3.82v-2.25H73.358z"/>
		<path d="M84.808,278.959c-1.086,1.152-2.547,1.729-4.383,1.729s-3.297-0.576-4.383-1.729c-1.086-1.153-1.629-2.729-1.629-4.729
			c0-1.992,0.547-3.568,1.641-4.729s2.551-1.74,4.371-1.74c1.828,0,3.287,0.58,4.377,1.74s1.635,2.736,1.635,4.729
			C86.436,276.231,85.893,277.807,84.808,278.959z M78.198,277.289c0.547,0.727,1.289,1.09,2.227,1.09s1.68-0.363,2.227-1.09
			s0.82-1.746,0.82-3.059c0-1.305-0.273-2.322-0.82-3.053s-1.289-1.096-2.227-1.096c-0.93,0-1.67,0.365-2.221,1.096
			s-0.826,1.748-0.826,3.053C77.378,275.543,77.651,276.563,78.198,277.289z"/>
		<path d="M99.022,280.688c-1.977,0-3.49-0.629-4.541-1.887s-1.576-3.102-1.576-5.531c0-2.305,0.248-4.174,0.744-5.607
			c0.496-1.433,1.238-2.486,2.227-3.158s2.268-1.035,3.838-1.09l1.254-0.035c0.703-0.031,1.363-0.102,1.98-0.211
			c0.617-0.109,1.043-0.227,1.277-0.352v2.332c-0.141,0.133-0.502,0.26-1.084,0.381s-1.248,0.197-1.998,0.229l-1.207,0.035
			c-0.805,0.023-1.482,0.135-2.033,0.334s-1.008,0.508-1.371,0.926s-0.646,0.918-0.85,1.5s-0.359,1.311-0.469,2.186h0.094
			c0.391-0.75,0.945-1.322,1.664-1.717s1.57-0.592,2.555-0.592c1.68,0,3.02,0.537,4.02,1.611s1.5,2.521,1.5,4.342
			c0,1.953-0.537,3.492-1.611,4.617S100.89,280.688,99.022,280.688z M98.987,278.32c0.969,0,1.723-0.338,2.262-1.014
			s0.809-1.631,0.809-2.865c0-1.188-0.27-2.107-0.809-2.76s-1.293-0.979-2.262-0.979c-0.977,0-1.736,0.326-2.279,0.979
			s-0.814,1.572-0.814,2.76c0,1.242,0.27,2.199,0.809,2.871S98.003,278.32,98.987,278.32z"/>
		<path d="M107.143,280.441v-12.422h2.906v3.727h2.402c1.453,0,2.609,0.393,3.469,1.178s1.289,1.842,1.289,3.17
			s-0.43,2.385-1.289,3.17s-2.016,1.178-3.469,1.178L107.143,280.441L107.143,280.441z M112.077,273.961h-2.027v4.242h2.027
			c0.68,0,1.223-0.195,1.629-0.586s0.609-0.902,0.609-1.535c0-0.641-0.205-1.154-0.615-1.541S112.749,273.961,112.077,273.961z
			 M118.546,280.441v-12.422h2.895v12.422H118.546z"/>
		<path d="M128.143,274.652c-0.063,0.945-0.174,1.764-0.334,2.455c-0.16,0.691-0.395,1.307-0.703,1.846
			c-0.308,0.539-0.717,0.943-1.225,1.213c-0.508,0.27-1.117,0.404-1.828,0.404c-0.391,0-0.707-0.047-0.949-0.141v-2.508
			c0.211,0.063,0.441,0.094,0.691,0.094c0.297,0,0.551-0.084,0.762-0.252s0.381-0.414,0.51-0.738s0.229-0.689,0.299-1.096
			c0.07-0.407,0.121-0.883,0.152-1.43l0.398-6.48h8.965v12.422h-2.906v-10.172h-3.539L128.143,274.652z"/>
		<path d="M141.151,280.641c-1.211,0-2.205-0.348-2.982-1.043s-1.166-1.598-1.166-2.707c0-1.102,0.408-1.973,1.225-2.613
			s1.982-1.008,3.498-1.102l3.281-0.188v-0.891c0-0.648-0.205-1.152-0.615-1.512s-0.979-0.539-1.705-0.539
			c-0.68,0-1.234,0.152-1.664,0.457c-0.43,0.305-0.691,0.719-0.785,1.242h-2.707c0.063-1.18,0.568-2.139,1.518-2.877
			c0.95-0.738,2.201-1.107,3.756-1.107c1.539,0,2.771,0.375,3.697,1.125s1.389,1.75,1.389,3v8.555h-2.813v-1.98h-0.059
			c-0.352,0.664-0.883,1.193-1.594,1.588C142.714,280.444,141.956,280.641,141.151,280.641z M142.03,278.438
			c0.836,0,1.541-0.248,2.115-0.744s0.861-1.115,0.861-1.857v-0.949l-2.871,0.176c-0.703,0.047-1.248,0.221-1.635,0.521
			s-0.58,0.697-0.58,1.189c0,0.508,0.193,0.912,0.58,1.213S141.397,278.438,142.03,278.438z"/>
		<path d="M163.405,280.441v-5.273h-5.25v5.273h-2.906v-12.422h2.906v4.898h5.25v-4.898h2.906v12.422H163.405z"/>
		<path d="M177.163,276.727h2.73c-0.188,1.18-0.785,2.135-1.793,2.865s-2.242,1.096-3.703,1.096c-1.859,0-3.32-0.572-4.383-1.717
			s-1.594-2.709-1.594-4.693c0-1.969,0.529-3.547,1.588-4.734c1.059-1.187,2.482-1.781,4.271-1.781c1.758,0,3.152,0.564,4.184,1.693
			s1.547,2.639,1.547,4.529v0.949h-8.684v0.176c0,1,0.283,1.805,0.85,2.414s1.326,0.914,2.279,0.914c0.672,0,1.252-0.154,1.74-0.463
			S177.007,277.25,177.163,276.727z M174.292,270.023c-0.813,0-1.49,0.279-2.033,0.838s-0.846,1.275-0.908,2.15h5.801
			c-0.031-0.883-0.309-1.602-0.832-2.156S175.12,270.023,174.292,270.023z"/>
		<path d="M190.135,280.441v-10.172h-5.132v10.172h-2.906v-12.422h10.957v12.422H190.135z"/>
		<path d="M199.756,274.652c-0.063,0.945-0.174,1.764-0.334,2.455c-0.16,0.691-0.395,1.307-0.703,1.846s-0.717,0.943-1.225,1.213
			c-0.508,0.27-1.117,0.404-1.828,0.404c-0.391,0-0.707-0.047-0.949-0.141v-2.508c0.211,0.063,0.441,0.094,0.691,0.094
			c0.297,0,0.551-0.084,0.762-0.252s0.381-0.414,0.51-0.738s0.229-0.689,0.299-1.096c0.07-0.407,0.121-0.883,0.152-1.43l0.398-6.48
			h8.965v12.422h-2.906v-10.172h-3.539L199.756,274.652z"/>
		<path d="M218.987,278.959c-1.086,1.152-2.547,1.729-4.383,1.729s-3.297-0.576-4.383-1.729s-1.629-2.729-1.629-4.729
			c0-1.992,0.547-3.568,1.641-4.729s2.551-1.74,4.371-1.74c1.828,0,3.287,0.58,4.377,1.74s1.635,2.736,1.635,4.729
			C220.616,276.231,220.073,277.807,218.987,278.959z M212.377,277.289c0.547,0.727,1.289,1.09,2.227,1.09s1.68-0.363,2.227-1.09
			s0.82-1.746,0.82-3.059c0-1.305-0.273-2.322-0.82-3.053s-1.289-1.096-2.227-1.096c-0.93,0-1.67,0.365-2.221,1.096
			s-0.826,1.748-0.826,3.053C211.557,275.543,211.83,276.563,212.377,277.289z"/>
		<path d="M227.295,275.988h-0.059l-2.578,4.453h-3.105l4.008-6.199l-3.973-6.223h3.281l2.508,4.359h0.059l2.473-4.359h3.199
			l-3.996,6.141l3.949,6.281h-3.188L227.295,275.988z"/>
		<path d="M238.311,280.641c-1.211,0-2.205-0.348-2.982-1.043s-1.166-1.598-1.166-2.707c0-1.102,0.408-1.973,1.225-2.613
			s1.982-1.008,3.498-1.102l3.281-0.188v-0.891c0-0.648-0.205-1.152-0.615-1.512s-0.979-0.539-1.705-0.539
			c-0.68,0-1.234,0.152-1.664,0.457c-0.43,0.305-0.691,0.719-0.785,1.242h-2.707c0.063-1.18,0.568-2.139,1.518-2.877
			c0.95-0.738,2.201-1.107,3.756-1.107c1.539,0,2.771,0.375,3.697,1.125s1.389,1.75,1.389,3v8.555h-2.813v-1.98h-0.059
			c-0.352,0.664-0.883,1.193-1.594,1.588C239.874,280.444,239.116,280.641,238.311,280.641z M239.19,278.438
			c0.836,0,1.541-0.248,2.115-0.744s0.861-1.115,0.861-1.857v-0.949l-2.871,0.176c-0.703,0.047-1.248,0.221-1.635,0.521
			s-0.58,0.697-0.58,1.189c0,0.508,0.193,0.912,0.58,1.213S238.557,278.438,239.19,278.438z"/>
		<path d="M254.67,280.441v-4.16h-1.664l-2.895,4.16h-3.258l3.34-4.617c-0.867-0.266-1.545-0.709-2.033-1.33
			s-0.732-1.365-0.732-2.232c0-1.305,0.439-2.338,1.318-3.1s2.061-1.143,3.545-1.143h5.238v12.422H254.67L254.67,280.441z
			 M252.514,274.148h2.156v-3.902h-2.156c-0.672,0-1.205,0.18-1.6,0.539s-0.592,0.848-0.592,1.465c0,0.555,0.199,1.01,0.598,1.365
			S251.85,274.148,252.514,274.148z"/>
		<path d="M272.975,280.441v-10.172h-5.133v10.172h-2.906v-12.422h10.957v12.422H272.975z"/>
		<path d="M288.385,278.959c-1.086,1.152-2.547,1.729-4.383,1.729s-3.297-0.576-4.383-1.729s-1.629-2.729-1.629-4.729
			c0-1.992,0.547-3.568,1.641-4.729s2.551-1.74,4.371-1.74c1.828,0,3.287,0.58,4.377,1.74s1.635,2.736,1.635,4.729
			C290.014,276.231,289.471,277.807,288.385,278.959z M281.776,277.289c0.547,0.727,1.289,1.09,2.227,1.09s1.68-0.363,2.227-1.09
			s0.82-1.746,0.82-3.059c0-1.305-0.273-2.322-0.82-3.053s-1.289-1.096-2.227-1.096c-0.93,0-1.67,0.365-2.221,1.096
			c-0.551,0.731-0.826,1.748-0.826,3.053C280.955,275.543,281.229,276.563,281.776,277.289z"/>
		<path d="M300.139,280.441v-10.172h-5.133v10.172H292.1v-12.422h10.957v12.422H300.139z"/>
		<path d="M305.659,280.441v-12.422h2.906v3.727h2.402c1.453,0,2.609,0.393,3.469,1.178s1.289,1.842,1.289,3.17
			s-0.43,2.385-1.289,3.17s-2.016,1.178-3.469,1.178L305.659,280.441L305.659,280.441z M310.592,273.961h-2.027v4.242h2.027
			c0.68,0,1.223-0.195,1.629-0.586s0.609-0.902,0.609-1.535c0-0.641-0.205-1.154-0.615-1.541
			C311.805,274.154,311.264,273.961,310.592,273.961z M317.061,280.441v-12.422h2.895v12.422H317.061z"/>
		<path d="M332.284,268.02v2.25h-3.82v10.172h-2.895V270.27h-3.82v-2.25H332.284z"/>
		<path d="M339.76,273.82l5.508,6.621h-3.574l-4.617-5.555h-0.094v5.555h-2.906v-12.422h2.906v5.18h0.094l4.547-5.18h3.398
			L339.76,273.82z"/>
		<path d="M350.19,280.641c-1.211,0-2.205-0.348-2.982-1.043c-0.777-0.695-1.166-1.598-1.166-2.707c0-1.102,0.408-1.973,1.225-2.613
			s1.982-1.008,3.498-1.102l3.281-0.188v-0.891c0-0.648-0.205-1.152-0.615-1.512c-0.41-0.36-0.979-0.539-1.705-0.539
			c-0.68,0-1.234,0.152-1.664,0.457s-0.691,0.719-0.785,1.242h-2.707c0.063-1.18,0.568-2.139,1.518-2.877s2.201-1.107,3.756-1.107
			c1.539,0,2.771,0.375,3.697,1.125c0.926,0.75,1.389,1.75,1.389,3v8.555h-2.813v-1.98h-0.059c-0.352,0.664-0.883,1.193-1.594,1.588
			C351.753,280.444,350.995,280.641,350.19,280.641z M351.069,278.438c0.836,0,1.541-0.248,2.115-0.744
			c0.574-0.496,0.861-1.115,0.861-1.857v-0.949l-2.871,0.176c-0.703,0.047-1.248,0.221-1.635,0.521s-0.58,0.697-0.58,1.189
			c0,0.508,0.193,0.912,0.58,1.213C349.926,278.288,350.436,278.438,351.069,278.438z"/>
	</g>
	<g>
		
			<linearGradient id="SVGID_13_" gradientUnits="userSpaceOnUse" x1="-754.5257" y1="944.1429" x2="-671.4323" y2="861.0494" gradientTransform="matrix(1 0 0 1 809.36 -773.0206)">
			<stop  offset="0" style="stop-color:#04BEFE"/>
			<stop  offset="1" style="stop-color:#4481EB"/>
		</linearGradient>
		<path fill="url(#SVGID_13_)" d="M95.429,176.634v-17.139H43.207V137.01c4.735-9.13,10.168-18.737,16.296-28.821
			C65.63,98.107,73.626,85.692,83.49,70.945h37.354v67.603h13.184v20.947h-13.184v17.139H95.429z M65.985,138.768v0.732h30.176
			V89.11h-0.513c-7.081,10.547-12.781,19.398-17.102,26.55C74.225,122.814,70.038,130.517,65.985,138.768z"/>
		
			<linearGradient id="SVGID_14_" gradientUnits="userSpaceOnUse" x1="-657.582" y1="933.6207" x2="-583.7908" y2="859.8297" gradientTransform="matrix(1 0 0 1 809.36 -773.0206)">
			<stop  offset="0" style="stop-color:#04BEFE"/>
			<stop  offset="1" style="stop-color:#4481EB"/>
		</linearGradient>
		<path fill="url(#SVGID_14_)" d="M188.739,179.271c-13.868,0-24.805-4.955-32.813-14.868c-8.009-9.912-12.012-23.511-12.012-40.796
			s4.016-30.835,12.048-40.649c8.031-9.814,18.957-14.722,32.776-14.722c13.77,0,24.657,4.907,32.666,14.722
			c8.007,9.814,12.012,23.34,12.012,40.576c0,17.237-3.991,30.835-11.976,40.796C213.459,174.29,202.557,179.271,188.739,179.271z
			 M175.959,149.315c3.149,6.006,7.409,9.009,12.781,9.009c5.371,0,9.606-2.99,12.708-8.972c3.1-5.98,4.65-14.563,4.65-25.745
			c0-11.181-1.551-19.713-4.65-25.598c-3.102-5.883-7.337-8.826-12.708-8.826c-5.372,0-9.631,2.955-12.781,8.862
			c-3.149,5.909-4.724,14.405-4.724,25.488C171.234,134.715,172.809,143.309,175.959,149.315z"/>
		
			<linearGradient id="SVGID_15_" gradientUnits="userSpaceOnUse" x1="-553.4757" y1="944.1429" x2="-470.3822" y2="861.0494" gradientTransform="matrix(1 0 0 1 809.36 -773.0206)">
			<stop  offset="0" style="stop-color:#04BEFE"/>
			<stop  offset="1" style="stop-color:#4481EB"/>
		</linearGradient>
		<path fill="url(#SVGID_15_)" d="M296.479,176.634v-17.139h-52.222V137.01c4.735-9.13,10.168-18.737,16.296-28.821
			c6.127-10.082,14.123-22.497,23.987-37.244h37.354v67.603h13.184v20.947h-13.184v17.139H296.479z M267.035,138.768v0.732h30.176
			V89.11h-0.513c-7.081,10.547-12.78,19.398-17.103,26.55C275.275,122.814,271.088,130.517,267.035,138.768z"/>
	</g>
</g>
<g>
	<path fill="#B2AA1B" d="M79.783,635.634c0,0-39.119-56.278-32.113-76.636c7.006-20.358,37.641,13.839,37.641,13.839
		s13.406-66.556,26.418-72.397s48.044,43.837,48.044,43.837s51.714-60.688,71.899-56.684c20.186,4.004,24.189,48.746,24.189,48.746
		s39.885-23.372,47.968-15.54c8.083,7.832,0,40.72,0,40.72s26.1-7.589,36.109,4.284c10.009,11.873-36.109,63.524-36.109,63.524
		L79.783,635.634z"/>
	<path fill="#BFBF1B" d="M72.646,646.624c0,0-27.193-18.284-30.684-36.592s35.696-2.239,35.696-2.239s-17.078-47.839-10.096-56.972
		c6.982-9.133,40.728,11.136,40.728,11.136s35.105-61.762,52.462-53.234c17.357,8.528,42.916,60.777,42.916,60.777
		s54.733-39.859,65.206-28.018c10.473,11.841-12.8,49.977-12.8,49.977s44.054-10.738,48.791,0
		c4.737,10.737-24.354,34.329-24.354,34.329s38.036-9.89,41.127,1.878c3.091,11.768-50.437,18.957-50.437,18.957H72.646V646.624z"/>
	<path fill="#BAB61C" d="M289.082,599.277c-23.364,6.49-46.728,6.49-70.092-5.192c-33.748-15.576-59.708,23.364-90.86,37.642
		c-14.278,6.49-32.45-6.49-49.324-2.596c-6.825,1.463-11.819,5.489-14.913,10.772c4.947,4.162,8.753,6.722,8.753,6.722H271.2
		c0,0,53.528-7.19,50.437-18.957c-3.091-11.768-41.127-1.878-41.127-1.878s19.916-16.16,24.096-27.818
		C299.661,597.025,294.464,597.319,289.082,599.277z"/>
	<ellipse fill="#A5A10E" cx="153.635" cy="510.877" rx="3.717" ry="12.349"/>
	
		<ellipse transform="matrix(0.3738 -0.9275 0.9275 0.3738 -373.347 472.47)" fill="#A5A10E" cx="163.232" cy="512.731" rx="10.067" ry="3.03"/>
	
		<ellipse transform="matrix(-0.7388 -0.6739 0.6739 -0.7388 -335.4379 1071.6587)" fill="#A5A10E" cx="39.952" cy="600.832" rx="12.349" ry="3.717"/>
	
		<ellipse transform="matrix(-0.4334 -0.9012 0.9012 -0.4334 -467.6086 895.9339)" fill="#A5A10E" cx="47.84" cy="594.963" rx="10.067" ry="3.03"/>
	
		<ellipse transform="matrix(-0.0775 -0.997 0.997 -0.0775 -248.1888 836.9195)" fill="#A5A10E" cx="263.099" cy="533.282" rx="10.067" ry="3.03"/>
	
		<ellipse transform="matrix(0.6518 -0.7584 0.7584 0.6518 -311.9503 394.6443)" fill="#A5A10E" cx="273.795" cy="537.038" rx="9.554" ry="2.876"/>
	
		<ellipse transform="matrix(-0.7673 -0.6412 0.6412 -0.7673 -178.9735 1124.0865)" fill="#A5A10E" cx="114.437" cy="594.511" rx="10.066" ry="3.03"/>
	
		<ellipse transform="matrix(-0.087 -0.9962 0.9962 -0.087 -451.8173 764.9659)" fill="#A5A10E" cx="124.627" cy="589.522" rx="9.554" ry="2.876"/>
	
		<ellipse transform="matrix(-0.7673 -0.6413 0.6413 -0.7673 16.8768 1123.5717)" fill="#A5A10E" cx="212.293" cy="558.724" rx="10.067" ry="3.03"/>
	
		<ellipse transform="matrix(-0.087 -0.9962 0.9962 -0.087 -309.7664 823.4684)" fill="#A5A10E" cx="222.461" cy="553.681" rx="9.554" ry="2.875"/>
	
		<ellipse transform="matrix(-0.0775 -0.997 0.997 -0.0775 -236.8473 749.9661)" fill="#968F09" cx="228.542" cy="484.558" rx="10.067" ry="3.03"/>
	
		<ellipse transform="matrix(0.6518 -0.7584 0.7584 0.6518 -287.0335 351.4679)" fill="#968F09" cx="239.234" cy="488.316" rx="9.554" ry="2.876"/>
	
		<ellipse transform="matrix(0.3778 -0.9259 0.9259 0.3778 -308.4563 655.5488)" fill="#968F09" cx="333.526" cy="557.278" rx="8.143" ry="2.451"/>
	
		<ellipse transform="matrix(-0.8087 -0.5882 0.5882 -0.8087 -137.7576 1009.9056)" fill="#968F09" cx="95.336" cy="527.353" rx="8.143" ry="2.451"/>
	
		<ellipse transform="matrix(-0.4182 -0.9084 0.9084 -0.4182 -332.548 831.1695)" fill="#968F09" cx="99.913" cy="522.085" rx="6.617" ry="1.991"/>
	
		<ellipse transform="matrix(0.9197 -0.3926 0.3926 0.9197 -193.8643 178.6167)" fill="#968F09" cx="339.758" cy="563.276" rx="6.565" ry="1.976"/>
	
		<ellipse transform="matrix(0.2946 -0.9556 0.9556 0.2946 -358.4717 678.5573)" fill="#A5A10E" cx="280.395" cy="582.095" rx="8.113" ry="2.442"/>
	
		<ellipse transform="matrix(0.6747 -0.7381 0.7381 0.6747 -338.2102 401.7824)" fill="#A5A10E" cx="286.705" cy="584.581" rx="6.204" ry="1.867"/>
	
		<ellipse transform="matrix(0.4146 0.91 -0.91 0.4146 537.6367 252.7313)" fill="#A5A10E" cx="72.383" cy="544.244" rx="8.113" ry="2.442"/>
	
		<ellipse transform="matrix(0.7637 0.6456 -0.6456 0.7637 369.1573 86.514)" fill="#A5A10E" cx="66.405" cy="547.509" rx="6.204" ry="1.867"/>
</g>
</svg>
