<?xml version="1.0" encoding="utf-8"?>
<!-- Generator: Adobe Illustrator 17.0.0, SVG Export Plug-In . SVG Version: 6.00 Build 0)  -->
<!DOCTYPE svg PUBLIC "-//W3C//DTD SVG 1.1//EN" "http://www.w3.org/Graphics/SVG/1.1/DTD/svg11.dtd">
<svg version="1.1" id="Layer_1" xmlns="http://www.w3.org/2000/svg" xmlns:xlink="http://www.w3.org/1999/xlink" x="0px" y="0px"
	 width="418.182px" height="261.364px" viewBox="0 0 418.182 261.364" enable-background="new 0 0 418.182 261.364"
	 xml:space="preserve">
<rect x="25.443" y="147.569" fill="none" width="367.295" height="107.134"/>
<g enable-background="new    ">
	<path d="M95.97,164.48v3.34h-2.754v-5.895h1.207c0.57-0.359,0.98-0.885,1.23-1.576s0.41-1.635,0.48-2.83l0.609-9.949h11.438v14.355
		h2.109v5.895h-2.742v-3.34H95.97z M98.935,157.706c-0.07,1.039-0.188,1.877-0.352,2.514s-0.43,1.174-0.797,1.611v0.094h7.383
		v-11.813h-5.754L98.935,157.706z"/>
	<path d="M115.821,164.679c-1.211,0-2.205-0.348-2.982-1.043s-1.166-1.598-1.166-2.707c0-1.102,0.408-1.973,1.225-2.613
		s1.982-1.008,3.498-1.102l3.281-0.188v-0.891c0-0.648-0.205-1.152-0.615-1.512s-0.979-0.539-1.705-0.539
		c-0.68,0-1.234,0.152-1.664,0.457s-0.691,0.719-0.785,1.242H112.2c0.063-1.18,0.568-2.139,1.518-2.877s2.201-1.107,3.756-1.107
		c1.539,0,2.771,0.375,3.697,1.125s1.389,1.75,1.389,3v8.555h-2.813v-1.98h-0.059c-0.352,0.664-0.883,1.193-1.594,1.588
		S116.626,164.679,115.821,164.679z M116.7,162.476c0.836,0,1.541-0.248,2.115-0.744s0.861-1.115,0.861-1.857v-0.949l-2.871,0.176
		c-0.703,0.047-1.248,0.221-1.635,0.521s-0.58,0.697-0.58,1.189c0,0.508,0.193,0.912,0.58,1.213S116.068,162.476,116.7,162.476z"/>
	<path d="M133.271,164.48v-5.273h-5.25v5.273h-2.906v-12.422h2.906v4.898h5.25v-4.898h2.906v12.422H133.271z"/>
	<path d="M146.946,164.48v-5.273h-5.25v5.273h-2.906v-12.422h2.906v4.898h5.25v-4.898h2.906v12.422H146.946z"/>
	<path d="M162.357,162.997c-1.086,1.152-2.547,1.729-4.383,1.729s-3.297-0.576-4.383-1.729s-1.629-2.729-1.629-4.729
		c0-1.992,0.547-3.568,1.641-4.729s2.551-1.74,4.371-1.74c1.828,0,3.287,0.58,4.377,1.74s1.635,2.736,1.635,4.729
		C163.986,160.269,163.443,161.845,162.357,162.997z M155.747,161.328c0.547,0.727,1.289,1.09,2.227,1.09s1.68-0.363,2.227-1.09
		s0.82-1.746,0.82-3.059c0-1.305-0.273-2.322-0.82-3.053s-1.289-1.096-2.227-1.096c-0.93,0-1.67,0.365-2.221,1.096
		s-0.826,1.748-0.826,3.053C154.927,159.581,155.2,160.601,155.747,161.328z"/>
	<path d="M168.931,164.48h-2.859v-12.422h2.859v8.297h0.094l5.402-8.297h2.859v12.422h-2.859v-8.355h-0.094L168.931,164.48z
		 M167.829,146.515h1.875c0.008,0.664,0.205,1.207,0.592,1.629s0.896,0.633,1.529,0.633s1.143-0.211,1.529-0.633
		s0.584-0.965,0.592-1.629h1.875c0,1.133-0.367,2.045-1.102,2.736s-1.699,1.037-2.895,1.037s-2.16-0.346-2.895-1.037
		S167.829,147.648,167.829,146.515z"/>
	<path d="M195.556,156.148h-2.766c-0.164-0.586-0.473-1.063-0.926-1.43s-1.027-0.551-1.723-0.551c-0.922,0-1.654,0.369-2.197,1.107
		s-0.814,1.736-0.814,2.994c0,1.273,0.271,2.275,0.814,3.006s1.279,1.096,2.209,1.096c0.695,0,1.271-0.172,1.729-0.516
		s0.768-0.828,0.932-1.453h2.766c-0.18,1.313-0.756,2.361-1.729,3.146s-2.213,1.178-3.721,1.178c-1.82,0-3.266-0.578-4.336-1.734
		s-1.605-2.73-1.605-4.723c0-1.969,0.535-3.539,1.605-4.711s2.508-1.758,4.313-1.758c1.516,0,2.758,0.41,3.727,1.23
		S195.376,154.89,195.556,156.148z"/>
	<path d="M206.993,152.058v2.25h-3.82v10.172h-2.895v-10.172h-3.82v-2.25H206.993z"/>
	<path d="M215.618,151.847c1.578,0,2.832,0.574,3.762,1.723s1.395,2.715,1.395,4.699c0,1.977-0.461,3.539-1.383,4.688
		s-2.164,1.723-3.727,1.723c-0.891,0-1.676-0.201-2.355-0.604s-1.191-0.955-1.535-1.658h-0.059v6.152h-2.918v-16.512h2.848v2.145
		h0.059c0.359-0.734,0.879-1.311,1.559-1.729S214.728,151.847,215.618,151.847z M214.728,162.288c0.945,0,1.691-0.361,2.238-1.084
		s0.82-1.701,0.82-2.936c0-1.227-0.275-2.203-0.826-2.93s-1.295-1.09-2.232-1.09c-0.906,0-1.637,0.367-2.191,1.102
		s-0.836,1.707-0.844,2.918c0.008,1.219,0.289,2.193,0.844,2.924S213.821,162.288,214.728,162.288z"/>
	<path d="M226.552,164.679c-1.211,0-2.205-0.348-2.982-1.043s-1.166-1.598-1.166-2.707c0-1.102,0.408-1.973,1.225-2.613
		s1.982-1.008,3.498-1.102l3.281-0.188v-0.891c0-0.648-0.205-1.152-0.615-1.512s-0.979-0.539-1.705-0.539
		c-0.68,0-1.234,0.152-1.664,0.457s-0.691,0.719-0.785,1.242h-2.707c0.063-1.18,0.568-2.139,1.518-2.877s2.201-1.107,3.756-1.107
		c1.539,0,2.771,0.375,3.697,1.125s1.389,1.75,1.389,3v8.555h-2.813v-1.98h-0.059c-0.352,0.664-0.883,1.193-1.594,1.588
		S227.357,164.679,226.552,164.679z M227.431,162.476c0.836,0,1.541-0.248,2.115-0.744s0.861-1.115,0.861-1.857v-0.949l-2.871,0.176
		c-0.703,0.047-1.248,0.221-1.635,0.521s-0.58,0.697-0.58,1.189c0,0.508,0.193,0.912,0.58,1.213S226.798,162.476,227.431,162.476z"
		/>
	<path d="M244.001,164.48v-5.273h-5.25v5.273h-2.906v-12.422h2.906v4.898h5.25v-4.898h2.906v12.422H244.001z"/>
	<path d="M252.38,164.48h-2.859v-12.422h2.859v8.297h0.094l5.402-8.297h2.859v12.422h-2.859v-8.355h-0.094L252.38,164.48z"/>
	<path d="M276.122,167.726h-2.672v-3.246h-10.113v-12.422h2.906v10.172h5.063v-10.172h2.906v10.172h1.91V167.726z"/>
	<path d="M277.763,164.48v-12.422h2.906v3.727h2.402c1.453,0,2.609,0.393,3.469,1.178s1.289,1.842,1.289,3.17
		s-0.43,2.385-1.289,3.17s-2.016,1.178-3.469,1.178H277.763z M282.696,157.999h-2.027v4.242h2.027c0.68,0,1.223-0.195,1.629-0.586
		s0.609-0.902,0.609-1.535c0-0.641-0.205-1.154-0.615-1.541S283.368,157.999,282.696,157.999z M289.165,164.48v-12.422h2.895v12.422
		H289.165z"/>
	<path d="M307.622,164.48v-5.273h-5.25v5.273h-2.906v-12.422h2.906v4.898h5.25v-4.898h2.906v12.422H307.622z"/>
	<path d="M321.38,160.765h2.73c-0.188,1.18-0.785,2.135-1.793,2.865s-2.242,1.096-3.703,1.096c-1.859,0-3.32-0.572-4.383-1.717
		s-1.594-2.709-1.594-4.693c0-1.969,0.529-3.547,1.588-4.734s2.482-1.781,4.271-1.781c1.758,0,3.152,0.564,4.184,1.693
		s1.547,2.639,1.547,4.529v0.949h-8.684v0.176c0,1,0.283,1.805,0.85,2.414s1.326,0.914,2.279,0.914c0.672,0,1.252-0.154,1.74-0.463
		S321.224,161.288,321.38,160.765z M318.509,154.062c-0.813,0-1.49,0.279-2.033,0.838s-0.846,1.275-0.908,2.15h5.801
		c-0.031-0.883-0.309-1.602-0.832-2.156S319.337,154.062,318.509,154.062z"/>
</g>
<g enable-background="new    ">
	<path d="M151.464,184.948h-2.766c-0.164-0.586-0.473-1.063-0.926-1.43s-1.027-0.551-1.723-0.551c-0.922,0-1.654,0.369-2.197,1.107
		s-0.814,1.736-0.814,2.994c0,1.273,0.271,2.275,0.814,3.006s1.279,1.096,2.209,1.096c0.695,0,1.271-0.172,1.729-0.516
		s0.768-0.828,0.932-1.453h2.766c-0.18,1.313-0.756,2.361-1.729,3.146s-2.213,1.178-3.721,1.178c-1.82,0-3.266-0.578-4.336-1.734
		s-1.605-2.73-1.605-4.723c0-1.969,0.535-3.539,1.605-4.711s2.508-1.758,4.313-1.758c1.516,0,2.758,0.41,3.727,1.23
		S151.284,183.69,151.464,184.948z"/>
	<path d="M154.686,197.897c-0.633,0-1.016-0.016-1.148-0.047v-2.309c0.133,0.031,0.414,0.047,0.844,0.047
		c0.602,0,1.07-0.125,1.406-0.375s0.586-0.66,0.75-1.23c0-0.008,0.029-0.121,0.088-0.34s0.084-0.336,0.076-0.352l-4.418-12.434
		h3.188l2.93,9.938h0.047l2.93-9.938h3.07l-4.488,12.914c-0.531,1.539-1.188,2.611-1.969,3.217S156.108,197.897,154.686,197.897z"/>
	<path d="M184.346,196.526h-2.672v-3.246h-15.621v-12.422h2.906v10.172h3.855v-10.172h2.906v10.172h3.867v-10.172h2.906v10.172
		h1.852V196.526z"/>
	<path d="M194.178,189.565h2.73c-0.188,1.18-0.785,2.135-1.793,2.865s-2.242,1.096-3.703,1.096c-1.859,0-3.32-0.572-4.383-1.717
		s-1.594-2.709-1.594-4.693c0-1.969,0.529-3.547,1.588-4.734s2.482-1.781,4.271-1.781c1.758,0,3.152,0.564,4.184,1.693
		s1.547,2.639,1.547,4.529v0.949h-8.684v0.176c0,1,0.283,1.805,0.85,2.414s1.326,0.914,2.279,0.914c0.672,0,1.252-0.154,1.74-0.463
		S194.022,190.088,194.178,189.565z M191.307,182.862c-0.813,0-1.49,0.279-2.033,0.838s-0.846,1.275-0.908,2.15h5.801
		c-0.031-0.883-0.309-1.602-0.832-2.156S192.135,182.862,191.307,182.862z"/>
	<path d="M209.976,184.948h-2.766c-0.164-0.586-0.473-1.063-0.926-1.43s-1.027-0.551-1.723-0.551c-0.922,0-1.654,0.369-2.197,1.107
		s-0.814,1.736-0.814,2.994c0,1.273,0.271,2.275,0.814,3.006s1.279,1.096,2.209,1.096c0.695,0,1.271-0.172,1.729-0.516
		s0.768-0.828,0.932-1.453h2.766c-0.18,1.313-0.756,2.361-1.729,3.146s-2.213,1.178-3.721,1.178c-1.82,0-3.266-0.578-4.336-1.734
		s-1.605-2.73-1.605-4.723c0-1.969,0.535-3.539,1.605-4.711s2.508-1.758,4.313-1.758c1.516,0,2.758,0.41,3.727,1.23
		S209.796,183.69,209.976,184.948z"/>
	<path d="M221.413,180.858v2.25h-3.82v10.172h-2.895v-10.172h-3.82v-2.25H221.413z"/>
	<path d="M223.206,193.28v-12.422h5.895c1.25,0,2.23,0.279,2.941,0.838s1.066,1.33,1.066,2.314c0,0.648-0.209,1.229-0.627,1.74
		s-0.936,0.822-1.553,0.932v0.094c0.82,0.109,1.48,0.43,1.98,0.961s0.75,1.184,0.75,1.957c0,1.102-0.4,1.975-1.201,2.619
		s-1.889,0.967-3.264,0.967H223.206z M228.421,182.838h-2.355v3.094h2.133c1.375,0,2.063-0.523,2.063-1.57
		c0-0.484-0.158-0.859-0.475-1.125S229.015,182.838,228.421,182.838z M228.374,187.784h-2.309v3.516h2.543
		c0.695,0,1.227-0.15,1.594-0.451s0.551-0.736,0.551-1.307C230.753,188.37,229.96,187.784,228.374,187.784z"/>
	<path d="M236.976,197.897c-0.633,0-1.016-0.016-1.148-0.047v-2.309c0.133,0.031,0.414,0.047,0.844,0.047
		c0.602,0,1.07-0.125,1.406-0.375s0.586-0.66,0.75-1.23c0-0.008,0.029-0.121,0.088-0.34s0.084-0.336,0.076-0.352l-4.418-12.434
		h3.188l2.93,9.938h0.047l2.93-9.938h3.07l-4.488,12.914c-0.531,1.539-1.188,2.611-1.969,3.217S238.398,197.897,236.976,197.897z"/>
	<path d="M256.23,189.565h2.73c-0.188,1.18-0.785,2.135-1.793,2.865s-2.242,1.096-3.703,1.096c-1.859,0-3.32-0.572-4.383-1.717
		s-1.594-2.709-1.594-4.693c0-1.969,0.529-3.547,1.588-4.734s2.482-1.781,4.271-1.781c1.758,0,3.152,0.564,4.184,1.693
		s1.547,2.639,1.547,4.529v0.949h-8.684v0.176c0,1,0.283,1.805,0.85,2.414s1.326,0.914,2.279,0.914c0.672,0,1.252-0.154,1.74-0.463
		S256.073,190.088,256.23,189.565z M253.359,182.862c-0.813,0-1.49,0.279-2.033,0.838s-0.846,1.275-0.908,2.15h5.801
		c-0.031-0.883-0.309-1.602-0.832-2.156S254.187,182.862,253.359,182.862z"/>
	<path d="M270.456,180.858v2.25h-3.82v10.172h-2.895v-10.172h-3.82v-2.25H270.456z"/>
	<path d="M273.679,196.854h-2.238l0.973-6.363h2.848L273.679,196.854z"/>
</g>
<g enable-background="new    ">
	<path d="M47.707,222.079v-5.273h-5.25v5.273H39.55v-12.422h2.906v4.898h5.25v-4.898h2.906v12.422H47.707z"/>
	<path d="M63.117,220.597c-1.086,1.152-2.547,1.729-4.383,1.729s-3.297-0.576-4.383-1.729s-1.629-2.729-1.629-4.729
		c0-1.992,0.547-3.568,1.641-4.729s2.551-1.74,4.371-1.74c1.828,0,3.287,0.58,4.377,1.74s1.635,2.736,1.635,4.729
		C64.746,217.869,64.203,219.445,63.117,220.597z M56.508,218.927c0.547,0.727,1.289,1.09,2.227,1.09s1.68-0.363,2.227-1.09
		s0.82-1.746,0.82-3.059c0-1.305-0.273-2.322-0.82-3.053s-1.289-1.096-2.227-1.096c-0.93,0-1.67,0.365-2.221,1.096
		s-0.826,1.748-0.826,3.053C55.687,217.181,55.961,218.201,56.508,218.927z"/>
	<path d="M73.758,218.001c0.164,0.625,0.479,1.109,0.943,1.453s1.049,0.516,1.752,0.516c0.828,0,1.514-0.289,2.057-0.867
		s0.85-1.383,0.92-2.414h-4.887v-2.016h4.828c-0.109-0.906-0.428-1.617-0.955-2.133s-1.178-0.773-1.951-0.773
		c-0.711,0-1.297,0.182-1.758,0.545s-0.77,0.842-0.926,1.436h-2.766c0.172-1.266,0.746-2.307,1.723-3.123s2.23-1.225,3.762-1.225
		c1.797,0,3.229,0.586,4.295,1.758s1.6,2.742,1.6,4.711c0,1.992-0.533,3.566-1.6,4.723s-2.506,1.734-4.318,1.734
		c-1.516,0-2.762-0.393-3.738-1.178s-1.555-1.834-1.734-3.146H73.758z"/>
	<path d="M93.808,209.658v2.25h-3.82v10.172h-2.895v-10.172h-3.82v-2.25H93.808z"/>
	<path d="M105.258,220.597c-1.086,1.152-2.547,1.729-4.383,1.729s-3.297-0.576-4.383-1.729s-1.629-2.729-1.629-4.729
		c0-1.992,0.547-3.568,1.641-4.729s2.551-1.74,4.371-1.74c1.828,0,3.287,0.58,4.377,1.74s1.635,2.736,1.635,4.729
		C106.886,217.869,106.343,219.445,105.258,220.597z M98.648,218.927c0.547,0.727,1.289,1.09,2.227,1.09s1.68-0.363,2.227-1.09
		s0.82-1.746,0.82-3.059c0-1.305-0.273-2.322-0.82-3.053s-1.289-1.096-2.227-1.096c-0.93,0-1.67,0.365-2.221,1.096
		s-0.826,1.748-0.826,3.053C97.828,217.181,98.101,218.201,98.648,218.927z"/>
	<path d="M119.472,222.326c-1.977,0-3.49-0.629-4.541-1.887s-1.576-3.102-1.576-5.531c0-2.305,0.248-4.174,0.744-5.607
		s1.238-2.486,2.227-3.158s2.268-1.035,3.838-1.09l1.254-0.035c0.703-0.031,1.363-0.102,1.98-0.211s1.043-0.227,1.277-0.352v2.332
		c-0.141,0.133-0.502,0.26-1.084,0.381s-1.248,0.197-1.998,0.229l-1.207,0.035c-0.805,0.023-1.482,0.135-2.033,0.334
		s-1.008,0.508-1.371,0.926s-0.646,0.918-0.85,1.5s-0.359,1.311-0.469,2.186h0.094c0.391-0.75,0.945-1.322,1.664-1.717
		s1.57-0.592,2.555-0.592c1.68,0,3.02,0.537,4.02,1.611s1.5,2.521,1.5,4.342c0,1.953-0.537,3.492-1.611,4.617
		S121.34,222.326,119.472,222.326z M119.437,219.958c0.969,0,1.723-0.338,2.262-1.014s0.809-1.631,0.809-2.865
		c0-1.188-0.27-2.107-0.809-2.76s-1.293-0.979-2.262-0.979c-0.977,0-1.736,0.326-2.279,0.979s-0.814,1.572-0.814,2.76
		c0,1.242,0.27,2.199,0.809,2.871S118.453,219.958,119.437,219.958z"/>
	<path d="M127.593,222.079v-12.422h2.906v3.727h2.402c1.453,0,2.609,0.393,3.469,1.178s1.289,1.842,1.289,3.17
		s-0.43,2.385-1.289,3.17s-2.016,1.178-3.469,1.178H127.593z M132.527,215.599H130.5v4.242h2.027c0.68,0,1.223-0.195,1.629-0.586
		s0.609-0.902,0.609-1.535c0-0.641-0.205-1.154-0.615-1.541S133.199,215.599,132.527,215.599z M138.996,222.079v-12.422h2.895
		v12.422H138.996z"/>
	<path d="M148.593,216.29c-0.063,0.945-0.174,1.764-0.334,2.455s-0.395,1.307-0.703,1.846s-0.717,0.943-1.225,1.213
		s-1.117,0.404-1.828,0.404c-0.391,0-0.707-0.047-0.949-0.141v-2.508c0.211,0.063,0.441,0.094,0.691,0.094
		c0.297,0,0.551-0.084,0.762-0.252s0.381-0.414,0.51-0.738s0.229-0.689,0.299-1.096s0.121-0.883,0.152-1.43l0.398-6.48h8.965v12.422
		h-2.906v-10.172h-3.539L148.593,216.29z"/>
	<path d="M161.601,222.279c-1.211,0-2.205-0.348-2.982-1.043s-1.166-1.598-1.166-2.707c0-1.102,0.408-1.973,1.225-2.613
		s1.982-1.008,3.498-1.102l3.281-0.188v-0.891c0-0.648-0.205-1.152-0.615-1.512s-0.979-0.539-1.705-0.539
		c-0.68,0-1.234,0.152-1.664,0.457s-0.691,0.719-0.785,1.242h-2.707c0.063-1.18,0.568-2.139,1.518-2.877s2.201-1.107,3.756-1.107
		c1.539,0,2.771,0.375,3.697,1.125s1.389,1.75,1.389,3v8.555h-2.813v-1.98h-0.059c-0.352,0.664-0.883,1.193-1.594,1.588
		S162.406,222.279,161.601,222.279z M162.48,220.076c0.836,0,1.541-0.248,2.115-0.744s0.861-1.115,0.861-1.857v-0.949l-2.871,0.176
		c-0.703,0.047-1.248,0.221-1.635,0.521s-0.58,0.697-0.58,1.189c0,0.508,0.193,0.912,0.58,1.213S161.847,220.076,162.48,220.076z"/>
	<path d="M183.855,222.079v-5.273h-5.25v5.273h-2.906v-12.422h2.906v4.898h5.25v-4.898h2.906v12.422H183.855z"/>
	<path d="M197.613,218.365h2.73c-0.188,1.18-0.785,2.135-1.793,2.865s-2.242,1.096-3.703,1.096c-1.859,0-3.32-0.572-4.383-1.717
		s-1.594-2.709-1.594-4.693c0-1.969,0.529-3.547,1.588-4.734s2.482-1.781,4.271-1.781c1.758,0,3.152,0.564,4.184,1.693
		s1.547,2.639,1.547,4.529v0.949h-8.684v0.176c0,1,0.283,1.805,0.85,2.414s1.326,0.914,2.279,0.914c0.672,0,1.252-0.154,1.74-0.463
		S197.457,218.888,197.613,218.365z M194.742,211.661c-0.813,0-1.49,0.279-2.033,0.838s-0.846,1.275-0.908,2.15h5.801
		c-0.031-0.883-0.309-1.602-0.832-2.156S195.57,211.661,194.742,211.661z"/>
	<path d="M210.585,222.079v-10.172h-5.132v10.172h-2.906v-12.422h10.957v12.422H210.585z"/>
	<path d="M220.206,216.29c-0.063,0.945-0.174,1.764-0.334,2.455s-0.395,1.307-0.703,1.846s-0.717,0.943-1.225,1.213
		s-1.117,0.404-1.828,0.404c-0.391,0-0.707-0.047-0.949-0.141v-2.508c0.211,0.063,0.441,0.094,0.691,0.094
		c0.297,0,0.551-0.084,0.762-0.252s0.381-0.414,0.51-0.738s0.229-0.689,0.299-1.096s0.121-0.883,0.152-1.43l0.398-6.48h8.965v12.422
		h-2.906v-10.172h-3.539L220.206,216.29z"/>
	<path d="M239.437,220.597c-1.086,1.152-2.547,1.729-4.383,1.729s-3.297-0.576-4.383-1.729s-1.629-2.729-1.629-4.729
		c0-1.992,0.547-3.568,1.641-4.729s2.551-1.74,4.371-1.74c1.828,0,3.287,0.58,4.377,1.74s1.635,2.736,1.635,4.729
		C241.066,217.869,240.523,219.445,239.437,220.597z M232.827,218.927c0.547,0.727,1.289,1.09,2.227,1.09s1.68-0.363,2.227-1.09
		s0.82-1.746,0.82-3.059c0-1.305-0.273-2.322-0.82-3.053s-1.289-1.096-2.227-1.096c-0.93,0-1.67,0.365-2.221,1.096
		s-0.826,1.748-0.826,3.053C232.007,217.181,232.28,218.201,232.827,218.927z"/>
	<path d="M247.745,217.626h-0.059l-2.578,4.453h-3.105l4.008-6.199l-3.973-6.223h3.281l2.508,4.359h0.059l2.473-4.359h3.199
		l-3.996,6.141l3.949,6.281h-3.188L247.745,217.626z"/>
	<path d="M258.761,222.279c-1.211,0-2.205-0.348-2.982-1.043s-1.166-1.598-1.166-2.707c0-1.102,0.408-1.973,1.225-2.613
		s1.982-1.008,3.498-1.102l3.281-0.188v-0.891c0-0.648-0.205-1.152-0.615-1.512s-0.979-0.539-1.705-0.539
		c-0.68,0-1.234,0.152-1.664,0.457s-0.691,0.719-0.785,1.242h-2.707c0.063-1.18,0.568-2.139,1.518-2.877s2.201-1.107,3.756-1.107
		c1.539,0,2.771,0.375,3.697,1.125s1.389,1.75,1.389,3v8.555h-2.813v-1.98h-0.059c-0.352,0.664-0.883,1.193-1.594,1.588
		S259.566,222.279,258.761,222.279z M259.64,220.076c0.836,0,1.541-0.248,2.115-0.744s0.861-1.115,0.861-1.857v-0.949l-2.871,0.176
		c-0.703,0.047-1.248,0.221-1.635,0.521s-0.58,0.697-0.58,1.189c0,0.508,0.193,0.912,0.58,1.213S259.007,220.076,259.64,220.076z"/>
	<path d="M275.12,222.079v-4.16h-1.664l-2.895,4.16h-3.258l3.34-4.617c-0.867-0.266-1.545-0.709-2.033-1.33
		s-0.732-1.365-0.732-2.232c0-1.305,0.439-2.338,1.318-3.1s2.061-1.143,3.545-1.143h5.238v12.422H275.12z M272.964,215.786h2.156
		v-3.902h-2.156c-0.672,0-1.205,0.18-1.6,0.539s-0.592,0.848-0.592,1.465c0,0.555,0.199,1.01,0.598,1.365
		S272.3,215.786,272.964,215.786z"/>
	<path d="M293.425,222.079v-10.172h-5.133v10.172h-2.906v-12.422h10.957v12.422H293.425z"/>
	<path d="M308.835,220.597c-1.086,1.152-2.547,1.729-4.383,1.729s-3.297-0.576-4.383-1.729s-1.629-2.729-1.629-4.729
		c0-1.992,0.547-3.568,1.641-4.729s2.551-1.74,4.371-1.74c1.828,0,3.287,0.58,4.377,1.74s1.635,2.736,1.635,4.729
		C310.464,217.869,309.921,219.445,308.835,220.597z M302.226,218.927c0.547,0.727,1.289,1.09,2.227,1.09s1.68-0.363,2.227-1.09
		s0.82-1.746,0.82-3.059c0-1.305-0.273-2.322-0.82-3.053s-1.289-1.096-2.227-1.096c-0.93,0-1.67,0.365-2.221,1.096
		s-0.826,1.748-0.826,3.053C301.405,217.181,301.679,218.201,302.226,218.927z"/>
	<path d="M320.589,222.079v-10.172h-5.133v10.172h-2.906v-12.422h10.957v12.422H320.589z"/>
	<path d="M326.109,222.079v-12.422h2.906v3.727h2.402c1.453,0,2.609,0.393,3.469,1.178s1.289,1.842,1.289,3.17
		s-0.43,2.385-1.289,3.17s-2.016,1.178-3.469,1.178H326.109z M331.042,215.599h-2.027v4.242h2.027c0.68,0,1.223-0.195,1.629-0.586
		s0.609-0.902,0.609-1.535c0-0.641-0.205-1.154-0.615-1.541S331.714,215.599,331.042,215.599z M337.511,222.079v-12.422h2.895
		v12.422H337.511z"/>
	<path d="M352.734,209.658v2.25h-3.82v10.172h-2.895v-10.172h-3.82v-2.25H352.734z"/>
	<path d="M360.21,215.458l5.508,6.621h-3.574l-4.617-5.555h-0.094v5.555h-2.906v-12.422h2.906v5.18h0.094l4.547-5.18h3.398
		L360.21,215.458z"/>
	<path d="M370.64,222.279c-1.211,0-2.205-0.348-2.982-1.043s-1.166-1.598-1.166-2.707c0-1.102,0.408-1.973,1.225-2.613
		s1.982-1.008,3.498-1.102l3.281-0.188v-0.891c0-0.648-0.205-1.152-0.615-1.512s-0.979-0.539-1.705-0.539
		c-0.68,0-1.234,0.152-1.664,0.457s-0.691,0.719-0.785,1.242h-2.707c0.063-1.18,0.568-2.139,1.518-2.877s2.201-1.107,3.756-1.107
		c1.539,0,2.771,0.375,3.697,1.125s1.389,1.75,1.389,3v8.555h-2.813v-1.98h-0.059c-0.352,0.664-0.883,1.193-1.594,1.588
		S371.445,222.279,370.64,222.279z M371.519,220.076c0.836,0,1.541-0.248,2.115-0.744s0.861-1.115,0.861-1.857v-0.949l-2.871,0.176
		c-0.703,0.047-1.248,0.221-1.635,0.521s-0.58,0.697-0.58,1.189c0,0.508,0.193,0.912,0.58,1.213S370.886,220.076,371.519,220.076z"
		/>
</g>
<g>
	
		<linearGradient id="SVGID_1_" gradientUnits="userSpaceOnUse" x1="-127.0557" y1="228.6438" x2="-43.9622" y2="311.7373" gradientTransform="matrix(1 0 0 -1 202.34 341.4041)">
		<stop  offset="0" style="stop-color:#04BEFE"/>
		<stop  offset="1" style="stop-color:#4481EB"/>
	</linearGradient>
	<path fill="url(#SVGID_1_)" d="M115.879,118.272v-17.139H63.657V78.648c4.735-9.13,10.168-18.737,16.296-28.821
		C86.08,39.745,94.076,27.33,103.94,12.583h37.354v67.603h13.184v20.947h-13.184v17.139H115.879z M86.435,80.406v0.732h30.176
		v-50.39h-0.513c-7.081,10.547-12.781,19.398-17.102,26.55C94.675,64.452,90.488,72.155,86.435,80.406z"/>
	
		<linearGradient id="SVGID_2_" gradientUnits="userSpaceOnUse" x1="-30.112" y1="239.166" x2="43.6791" y2="312.9571" gradientTransform="matrix(1 0 0 -1 202.34 341.4041)">
		<stop  offset="0" style="stop-color:#04BEFE"/>
		<stop  offset="1" style="stop-color:#4481EB"/>
	</linearGradient>
	<path fill="url(#SVGID_2_)" d="M209.189,120.909c-13.868,0-24.805-4.955-32.813-14.868c-8.009-9.912-12.012-23.511-12.012-40.796
		s4.016-30.835,12.048-40.649c8.031-9.814,18.957-14.722,32.776-14.722c13.77,0,24.657,4.907,32.666,14.722
		c8.007,9.814,12.012,23.34,12.012,40.576c0,17.237-3.991,30.835-11.976,40.796C233.909,115.928,223.007,120.909,209.189,120.909z
		 M196.409,90.953c3.149,6.006,7.409,9.009,12.781,9.009c5.371,0,9.606-2.99,12.708-8.972c3.1-5.98,4.65-14.563,4.65-25.745
		c0-11.181-1.551-19.713-4.65-25.598c-3.102-5.883-7.337-8.826-12.708-8.826c-5.372,0-9.631,2.955-12.781,8.862
		c-3.149,5.909-4.724,14.405-4.724,25.488C191.684,76.353,193.259,84.947,196.409,90.953z"/>
	
		<linearGradient id="SVGID_3_" gradientUnits="userSpaceOnUse" x1="73.9942" y1="228.6438" x2="157.0877" y2="311.7373" gradientTransform="matrix(1 0 0 -1 202.34 341.4041)">
		<stop  offset="0" style="stop-color:#04BEFE"/>
		<stop  offset="1" style="stop-color:#4481EB"/>
	</linearGradient>
	<path fill="url(#SVGID_3_)" d="M316.929,118.272v-17.139h-52.222V78.648c4.735-9.13,10.168-18.737,16.296-28.821
		c6.127-10.082,14.123-22.497,23.987-37.244h37.354v67.603h13.184v20.947h-13.184v17.139H316.929z M287.485,80.406v0.732h30.176
		v-50.39h-0.513c-7.081,10.547-12.78,19.398-17.103,26.55C295.725,64.452,291.538,72.155,287.485,80.406z"/>
</g>
</svg>
