<?xml version="1.0" encoding="utf-8"?>
<!-- Generator: Adobe Illustrator 17.0.0, SVG Export Plug-In . SVG Version: 6.00 Build 0)  -->
<!DOCTYPE svg PUBLIC "-//W3C//DTD SVG 1.1//EN" "http://www.w3.org/Graphics/SVG/1.1/DTD/svg11.dtd">
<svg version="1.1" id="Layer_1" xmlns="http://www.w3.org/2000/svg" xmlns:xlink="http://www.w3.org/1999/xlink" x="0px" y="0px"
	 width="281.714px" height="325.143px" viewBox="0 0 281.714 325.143" enable-background="new 0 0 281.714 325.143"
	 xml:space="preserve">
<g>
	<path d="M32.044,49.689c-6.016,0-10.757-1.973-14.224-5.918c-3.467-3.945-5.2-9.346-5.2-16.201c0-6.816,1.743-12.212,5.229-16.187
		c3.486-3.974,8.218-5.962,14.194-5.962c5.937,0,10.645,1.988,14.121,5.962c3.476,3.975,5.215,9.371,5.215,16.187
		c0,4.2-0.649,7.891-1.948,11.074c-1.299,3.184-3.149,5.645-5.552,7.383l5.361,7.441h-5.918l-3.721-5.068
		C37.318,49.259,34.798,49.689,32.044,49.689z M32.073,44.825c1.582,0,3.086-0.215,4.512-0.645l-5.596-7.588h5.977l3.838,5.098
		c1.66-1.328,2.934-3.208,3.823-5.64c0.889-2.432,1.333-5.259,1.333-8.481c0-5.313-1.25-9.521-3.75-12.627
		c-2.5-3.105-5.889-4.658-10.166-4.658c-4.317,0-7.73,1.553-10.239,4.658c-2.51,3.105-3.765,7.314-3.765,12.627
		c0,5.332,1.255,9.541,3.765,12.627C24.314,43.283,27.738,44.825,32.073,44.825z"/>
</g>
<g>
	<path d="M76.558,6.417V33.81c0,3.262,1.021,5.914,3.062,7.954c2.041,2.041,4.858,3.062,8.452,3.062
		c3.593,0,6.411-1.021,8.452-3.062c2.041-2.041,3.062-4.692,3.062-7.954V6.417h5.273v27.744c0,4.59-1.509,8.325-4.526,11.206
		c-3.018,2.881-7.104,4.321-12.261,4.321s-9.243-1.44-12.261-4.321c-3.018-2.881-4.526-6.616-4.526-11.206V6.417H76.558z"/>
</g>
<g>
	<path d="M146.208,48.192h-5.273V5.917h5.273V48.192z"/>
</g>
<g>
	<path d="M200.152,49.689c-5.742,0-10.288-1.982-13.638-5.947c-3.351-3.965-5.024-9.355-5.024-16.172
		c0-6.816,1.67-12.212,5.01-16.187c3.34-3.974,7.881-5.962,13.623-5.962c4.453,0,8.262,1.27,11.426,3.809
		c3.164,2.539,5.058,5.85,5.684,9.932h-5.361c-0.703-2.734-2.109-4.897-4.219-6.489c-2.109-1.592-4.619-2.388-7.529-2.388
		c-4.063,0-7.28,1.553-9.653,4.658s-3.56,7.314-3.56,12.627c0,5.313,1.19,9.517,3.574,12.612c2.383,3.096,5.605,4.644,9.668,4.644
		c2.948,0,5.474-0.708,7.573-2.124c2.099-1.416,3.481-3.344,4.146-5.786h5.361c-0.703,3.887-2.604,6.987-5.698,9.302
		C208.438,48.531,204.644,49.689,200.152,49.689z"/>
</g>
<g>
	<path d="M199.259,71.707c5.995,0,10.718,1.988,14.165,5.962c3.446,3.975,5.171,9.36,5.171,16.157s-1.725,12.188-5.171,16.172
		c-3.447,3.984-8.17,5.977-14.165,5.977c-6.035,0-10.781-1.992-14.238-5.977s-5.186-9.375-5.186-16.172s1.743-12.183,5.229-16.157
		C188.551,73.695,193.282,71.707,199.259,71.707z M199.259,76.57c-4.297,0-7.705,1.553-10.225,4.658s-3.779,7.305-3.779,12.598
		c0,5.293,1.245,9.497,3.735,12.612c2.49,3.116,5.913,4.673,10.269,4.673c4.316,0,7.715-1.563,10.195-4.688
		c2.479-3.125,3.721-7.324,3.721-12.598c0-5.313-1.241-9.517-3.721-12.612C206.973,78.119,203.575,76.57,199.259,76.57z"/>
</g>
<g>
	<path d="M201.851,184.693h-5.273v-42.276h5.273V184.693z"/>
</g>
<g>
	<path d="M187.554,252.122h-5.215v-42.275h5.127l22.939,32.9h0.469v-32.9h5.215v42.275h-5.127l-22.939-32.783h-0.469V252.122z"/>
</g>
<g>
	<path d="M183.467,310.791h5.332c0.332,2.208,1.475,3.966,3.428,5.273c1.953,1.309,4.434,1.963,7.441,1.963
		c2.852,0,5.21-0.688,7.075-2.065s2.798-3.109,2.798-5.2c0-1.797-0.684-3.286-2.051-4.468s-3.506-2.143-6.416-2.886l-5.42-1.406
		c-3.828-0.956-6.611-2.344-8.35-4.16s-2.607-4.229-2.607-7.236c0-3.593,1.372-6.499,4.116-8.716s6.353-3.325,10.825-3.325
		c4.082,0,7.5,1.095,10.254,3.281c2.754,2.188,4.238,4.991,4.453,8.408h-5.303c-0.371-2.168-1.401-3.862-3.091-5.083
		s-3.853-1.831-6.489-1.831c-2.813,0-5.073,0.649-6.782,1.948s-2.563,3.014-2.563,5.142c0,1.66,0.63,3.008,1.89,4.043
		c1.26,1.036,3.345,1.924,6.255,2.666l4.424,1.172c4.375,1.095,7.515,2.56,9.419,4.395c1.904,1.836,2.856,4.307,2.856,7.412
		c0,3.887-1.426,6.978-4.277,9.272s-6.689,3.442-11.514,3.442c-4.473,0-8.14-1.094-11.001-3.281
		C185.308,317.364,183.741,314.443,183.467,310.791z"/>
</g>
<g>
	<path d="M245.618,48.192h-5.273V5.917h5.273v20.537h0.469l18.516-20.537h6.621l-16.904,18.252l18.457,24.023h-6.826l-15.264-20.361
		l-5.068,5.596V48.192z"/>
</g>
<line fill="none" stroke="#000000" stroke-width="8" stroke-miterlimit="10" x1="3.857" y1="70.286" x2="162.857" y2="70.286"/>
<line fill="none" stroke="#000000" stroke-width="8" stroke-miterlimit="10" x1="230.857" y1="70.286" x2="277.857" y2="70.286"/>
</svg>
