<?xml version="1.0" encoding="utf-8"?>
<!-- Generator: Adobe Illustrator 17.0.0, SVG Export Plug-In . SVG Version: 6.00 Build 0)  -->
<!DOCTYPE svg PUBLIC "-//W3C//DTD SVG 1.1//EN" "http://www.w3.org/Graphics/SVG/1.1/DTD/svg11.dtd">
<svg version="1.1" id="Layer_1" xmlns="http://www.w3.org/2000/svg" xmlns:xlink="http://www.w3.org/1999/xlink" x="0px" y="0px"
	 width="1000px" height="1000px" viewBox="0 0 1000 1000" enable-background="new 0 0 1000 1000" xml:space="preserve">
<g>
	<g>
		<path fill="none" stroke="#FFFFFF" stroke-width="25" stroke-miterlimit="10" d="M907.67,773.5H521.38c0,0-1-0.25-2.48-0.85
			c-4.24-1.7-12.4-6.23-12.4-15.88v-38.04c26.82-1.89,52.09-9.36,74.67-21.27L607.92,678l-1.27,3.3
			c45.28-34.05,74.79-87.94,75.6-148.76c0-0.01,0-0.02,0-0.02l-5.96-49.93v-0.01c0,0,0,0,0-0.01
			c-19.95-77.39-87.63-135.61-169.79-141.4v-93.33c0,0,1.4-10.34,14.88-10.34h386.29c0,0,12.51-0.96,12.26,11.3
			c-0.31,15.33,0,510.68,0,510.68S920.18,773.5,907.67,773.5z"/>
		<g>
			<polygon fill="none" stroke="#FFFFFF" stroke-width="14" stroke-miterlimit="10" points="607.92,678 606.65,681.3 590.78,722.34 
				581.17,697.46 			"/>
			<g>
				<line fill="none" stroke="#FFFFFF" stroke-width="14" stroke-miterlimit="10" x1="608" y1="678" x2="607.92" y2="678"/>
			</g>
		</g>
		<g>
			<polyline fill="none" stroke="#FFFFFF" stroke-width="14" stroke-miterlimit="10" points="825.943,355.886 836.694,328.075 
				855.109,280.442 872.972,326.647 873.353,327.633 884.276,355.886 			"/>
			<g>
				<line fill="none" stroke="#FFFFFF" stroke-width="14" stroke-miterlimit="10" x1="841" y1="324" x2="872" y2="324"/>
			</g>
		</g>
		<path fill="#FFFFFF" stroke="#000000" stroke-width="3" stroke-miterlimit="10" d="M697.662,569.297"/>
		<g>
			<path fill="#FFFFFF" d="M718.44,508.72c0,0-24.03,19.78-35.27,23.53c-0.31,0.1-0.61,0.2-0.92,0.29c0-0.01,0-0.02,0-0.02
				l-5.96-49.93v-0.01c0,0,0,0,0-0.01c5.2,0.77,9.95,2.53,13.11,3.87C701.17,491.45,718.44,508.72,718.44,508.72z"/>
			<path fill="#FFFFFF" d="M719.039,508.301c0,0,17.271-17.271,22.277-29.036c3.747-8.806,10.683-29.917-9.387-38.798
				c-14.142-6.258-27.564-0.146-31.163,3.004c-6.007,5.256-10.171,14.842-5.256,29.558
				C699.265,484.272,719.039,508.301,719.039,508.301z"/>
			<path fill="#FFFFFF" d="M719.46,507.881c0,0,17.271,17.271,29.036,22.277c8.806,3.747,29.917,10.683,38.798-9.387
				c6.258-14.142,0.146-27.564-3.004-31.163c-5.256-6.007-14.842-10.171-29.558-5.256C743.49,488.106,719.46,507.881,719.46,507.881
				z"/>
			<g>
				<path fill="#FFFFFF" d="M719.455,508.301v56.61h-18.808C700.648,564.911,713.726,537.26,719.455,508.301z"/>
				<path fill="#FFFFFF" d="M719.455,508.301v56.61h18.818C738.273,564.911,725.188,537.26,719.455,508.301z"/>
			</g>
		</g>
	</g>
	<g>
		<path fill="none" stroke="#FFFFFF" stroke-width="25" stroke-miterlimit="10" d="M454.86,776.5H68.56c0,0-14.06-3.01-14.06-16.04
			V251.53c0,0,0.59-11.03,14.06-11.03h386.3c0,0,12.51-0.62,12.26,11.65c-0.08,3.93-0.12,39.56-0.13,90.33
			c-92.2,12.68-163.22,91.78-163.22,187.47c0,57.04,25.24,108.19,65.16,142.89c0.02,0.02,0.03,0.03,0.05,0.04
			c0.01,0.02,0.03,0.03,0.04,0.03c0.07,0.07,0.14,0.13,0.21,0.19l8.57,6.99c0.01,0.01,0.02,0.02,0.04,0.03
			c25.43,19.54,55.96,32.76,89.25,37.31c0.02,28.06,0.03,45.23,0.03,45.23S467.37,776.5,454.86,776.5z"/>
		<g>
			<path fill="#FFFFFF" d="M261.562,415.29c0,0-10.308-10.308-17.329-13.295c-5.255-2.236-17.855-6.376-23.155,5.602
				c-3.735,8.44-0.087,16.451,1.793,18.599c3.137,3.585,8.858,6.07,17.64,3.137C247.221,427.091,261.562,415.29,261.562,415.29z"/>
			<path fill="#FFFFFF" d="M261.921,415.039c0,0,10.308-10.308,13.295-17.329c2.236-5.255,6.376-17.855-5.602-23.155
				c-8.44-3.735-16.451-0.087-18.599,1.793c-3.585,3.137-6.07,8.858-3.137,17.64C250.12,400.697,261.921,415.039,261.921,415.039z"
				/>
			<path fill="#FFFFFF" d="M262.172,414.787c0,0,10.308,10.308,17.329,13.295c5.255,2.236,17.855,6.376,23.155-5.602
				c3.735-8.44,0.087-16.451-1.793-18.599c-3.137-3.585-8.858-6.07-17.64-3.137C276.514,402.986,262.172,414.787,262.172,414.787z"
				/>
			<g>
				<path fill="#FFFFFF" d="M262.169,415.039v33.785h-11.225C250.945,448.824,258.75,432.322,262.169,415.039z"/>
				<path fill="#FFFFFF" d="M262.169,415.039v33.785H273.4C273.4,448.824,265.591,432.322,262.169,415.039z"/>
			</g>
		</g>
		<g>
			<path fill="none" d="M367.31,452.72c-0.01,0.01-0.01,0.01-0.01,0.01"/>
			<path fill="none" d="M367.31,452.72c-0.01,0.01-0.01,0.01-0.01,0.01"/>
		</g>
		<g>
			<path fill="#FFFFFF" d="M366.996,345.454c0,0-10.308-10.308-17.329-13.295c-5.255-2.236-17.855-6.376-23.155,5.602
				c-3.735,8.44-0.087,16.451,1.793,18.599c3.137,3.585,8.858,6.07,17.64,3.137C352.655,357.256,366.996,345.454,366.996,345.454z"
				/>
			<path fill="#FFFFFF" d="M367.355,345.203c0,0,10.308-10.308,13.295-17.329c2.236-5.255,6.376-17.855-5.602-23.155
				c-8.44-3.735-16.451-0.087-18.599,1.793c-3.585,3.137-6.07,8.858-3.137,17.64C355.554,330.862,367.355,345.203,367.355,345.203z"
				/>
			<path fill="#FFFFFF" d="M367.607,344.952c0,0,10.308,10.308,17.329,13.295c5.255,2.236,17.855,6.376,23.155-5.602
				c3.735-8.44,0.087-16.451-1.793-18.599c-3.137-3.585-8.858-6.07-17.64-3.137C381.948,333.15,367.607,344.952,367.607,344.952z"/>
			<g>
				<path fill="#FFFFFF" d="M367.604,345.203v33.785h-11.225C356.379,378.988,364.184,362.486,367.604,345.203z"/>
				<path fill="#FFFFFF" d="M367.604,345.203v33.785h11.231C378.834,378.988,371.025,362.486,367.604,345.203z"/>
			</g>
		</g>
		<g>
			<path fill="#FFFFFF" d="M152.679,345.454c0,0-10.308-10.308-17.329-13.295c-5.255-2.236-17.855-6.376-23.155,5.602
				c-3.735,8.44-0.087,16.451,1.793,18.599c3.137,3.585,8.858,6.07,17.64,3.137C138.337,357.256,152.679,345.454,152.679,345.454z"
				/>
			<path fill="#FFFFFF" d="M153.038,345.203c0,0,10.308-10.308,13.295-17.329c2.236-5.255,6.376-17.855-5.602-23.155
				c-8.44-3.735-16.451-0.087-18.599,1.793c-3.585,3.137-6.07,8.858-3.137,17.64C141.236,330.862,153.038,345.203,153.038,345.203z"
				/>
			<path fill="#FFFFFF" d="M153.289,344.952c0,0,10.308,10.308,17.329,13.295c5.255,2.236,17.855,6.376,23.155-5.602
				c3.735-8.44,0.087-16.451-1.793-18.599c-3.137-3.585-8.858-6.07-17.64-3.137C167.63,333.15,153.289,344.952,153.289,344.952z"/>
			<g>
				<path fill="#FFFFFF" d="M153.286,345.203v33.785h-11.225C142.061,378.988,149.866,362.486,153.286,345.203z"/>
				<path fill="#FFFFFF" d="M153.286,345.203v33.785h11.231C164.517,378.988,156.707,362.486,153.286,345.203z"/>
			</g>
		</g>
		<g>
			<path fill="#FFFFFF" d="M152.373,457.391c0,0-10.308-10.308-17.329-13.295c-5.255-2.236-17.855-6.376-23.155,5.602
				c-3.735,8.44-0.087,16.451,1.793,18.599c3.137,3.585,8.858,6.07,17.64,3.137C138.032,469.193,152.373,457.391,152.373,457.391z"
				/>
			<path fill="#FFFFFF" d="M152.732,457.14c0,0,10.308-10.308,13.295-17.329c2.236-5.255,6.376-17.855-5.602-23.155
				c-8.44-3.735-16.451-0.087-18.599,1.793c-3.585,3.137-6.07,8.858-3.137,17.64C140.931,442.799,152.732,457.14,152.732,457.14z"/>
			<path fill="#FFFFFF" d="M152.984,456.889c0,0,10.308,10.308,17.329,13.295c5.255,2.236,17.855,6.376,23.155-5.602
				c3.735-8.44,0.087-16.451-1.793-18.599c-3.137-3.585-8.858-6.07-17.64-3.137C167.325,445.087,152.984,456.889,152.984,456.889z"
				/>
			<g>
				<path fill="#FFFFFF" d="M152.981,457.14v33.785h-11.225C141.756,490.926,149.561,474.423,152.981,457.14z"/>
				<path fill="#FFFFFF" d="M152.981,457.14v33.785h11.231C164.211,490.926,156.402,474.423,152.981,457.14z"/>
			</g>
		</g>
		<g>
			<path fill="#FFFFFF" d="M262.942,603.13c0,0-10.308,10.289-17.329,13.272c-5.255,2.232-17.855,6.364-23.155-5.592
				c-3.735-8.425-0.087-16.422,1.793-18.566c3.137-3.579,8.858-6.06,17.64-3.132C248.601,591.35,262.942,603.13,262.942,603.13z"/>
			<path fill="#FFFFFF" d="M263.301,603.381c0,0,10.308,10.289,13.295,17.298c2.236,5.246,6.376,17.823-5.602,23.114
				c-8.44,3.728-16.451,0.087-18.599-1.789c-3.585-3.132-6.07-8.842-3.137-17.609C251.499,617.697,263.301,603.381,263.301,603.381z
				"/>
			<path fill="#FFFFFF" d="M263.552,603.632c0,0,10.308-10.289,17.329-13.272c5.255-2.232,17.855-6.364,23.155,5.592
				c3.735,8.425,0.087,16.422-1.793,18.566c-3.137,3.579-8.858,6.06-17.64,3.132C277.893,615.412,263.552,603.632,263.552,603.632z"
				/>
			<g>
				<path fill="#FFFFFF" d="M263.549,603.381v-33.726h-11.225C252.324,569.656,260.129,586.129,263.549,603.381z"/>
				<path fill="#FFFFFF" d="M263.549,603.381v-33.726h11.231C274.78,569.656,266.97,586.129,263.549,603.381z"/>
			</g>
		</g>
		<g>
			<path fill="none" d="M368.69,565.76v0.01c0.01,0.01,0.04,0.03,0.08,0.07"/>
			<path fill="none" d="M368.77,565.84c-0.04-0.04-0.07-0.06-0.08-0.07s-0.01-0.01-0.01-0.01"/>
		</g>
		<g>
			<path fill="#FFFFFF" d="M368.376,672.842c0,0-10.308,10.289-17.329,13.272c-5.255,2.232-17.855,6.364-23.155-5.592
				c-3.735-8.425-0.087-16.422,1.793-18.566c3.137-3.579,8.858-6.06,17.64-3.132C354.035,661.062,368.376,672.842,368.376,672.842z"
				/>
			<path fill="#FFFFFF" d="M368.735,673.093c0,0,10.308,10.289,13.295,17.298c2.236,5.246,6.376,17.823-5.602,23.114
				c-8.44,3.728-16.451,0.087-18.599-1.789c-3.585-3.132-6.07-8.842-3.137-17.609C356.933,687.409,368.735,673.093,368.735,673.093z
				"/>
			<g>
				<path fill="none" d="M368.98,672.88v0.21c-0.02-0.08-0.03-0.17-0.05-0.25"/>
				<path fill="none" d="M368.98,672.88v0.21c0.01-0.06,0.02-0.12,0.04-0.18"/>
			</g>
		</g>
		<g>
			<path fill="#FFFFFF" d="M154.058,672.842c0,0-10.308,10.289-17.329,13.272c-5.255,2.232-17.855,6.364-23.155-5.592
				c-3.735-8.425-0.087-16.422,1.793-18.566c3.137-3.579,8.858-6.06,17.64-3.132C139.717,661.062,154.058,672.842,154.058,672.842z"
				/>
			<path fill="#FFFFFF" d="M154.417,673.093c0,0,10.308,10.289,13.295,17.298c2.236,5.246,6.376,17.823-5.602,23.114
				c-8.44,3.728-16.451,0.087-18.599-1.789c-3.585-3.132-6.07-8.842-3.137-17.609C142.616,687.409,154.417,673.093,154.417,673.093z
				"/>
			<path fill="#FFFFFF" d="M154.668,673.344c0,0,10.308-10.289,17.329-13.272c5.255-2.232,17.855-6.364,23.155,5.592
				c3.735,8.425,0.087,16.422-1.793,18.566c-3.137,3.579-8.858,6.06-17.64,3.132C169.01,685.124,154.668,673.344,154.668,673.344z"
				/>
			<g>
				<path fill="#FFFFFF" d="M154.665,673.093v-33.726h-11.225C143.441,639.367,151.246,655.841,154.665,673.093z"/>
				<path fill="#FFFFFF" d="M154.665,673.093v-33.726h11.231C165.896,639.367,158.087,655.841,154.665,673.093z"/>
			</g>
		</g>
		<g>
			<path fill="#FFFFFF" d="M153.753,561.103c0,0-10.308,10.289-17.329,13.272c-5.255,2.232-17.855,6.364-23.155-5.592
				c-3.735-8.425-0.087-16.422,1.793-18.566c3.137-3.579,8.858-6.06,17.64-3.132C139.412,549.323,153.753,561.103,153.753,561.103z"
				/>
			<path fill="#FFFFFF" d="M154.112,561.354c0,0,10.308,10.289,13.295,17.298c2.236,5.246,6.376,17.823-5.602,23.114
				c-8.44,3.728-16.451,0.087-18.599-1.789c-3.585-3.132-6.07-8.842-3.137-17.609C142.31,575.67,154.112,561.354,154.112,561.354z"
				/>
			<path fill="#FFFFFF" d="M154.363,561.605c0,0,10.308-10.289,17.329-13.272c5.255-2.232,17.855-6.364,23.155,5.592
				c3.735,8.425,0.087,16.422-1.793,18.566c-3.137,3.579-8.858,6.06-17.64,3.132C168.704,573.386,154.363,561.605,154.363,561.605z"
				/>
			<g>
				<path fill="#FFFFFF" d="M154.36,561.354v-33.726h-11.225C143.135,527.629,150.941,544.102,154.36,561.354z"/>
				<path fill="#FFFFFF" d="M154.36,561.354v-33.726h11.231C165.591,527.629,157.782,544.102,154.36,561.354z"/>
			</g>
		</g>
	</g>
</g>
<g>
	<path fill="#FFFFFF" d="M493.52,338.38c-104.53,0-189.25,84.72-189.25,189.25s84.72,189.25,189.25,189.25
		c104.54,0,189.25-84.72,189.25-189.25S598.06,338.38,493.52,338.38z M629.65,424.65l20.22,40.32l-47.33,23.74l-20.22-40.31
		L629.65,424.65z M469.99,356.03h45.11v52.95h-45.11V356.03z M356.34,426.31l47.41,23.74l-20.26,40.32l-47.41-23.74L356.34,426.31z
		 M357.99,630.91l-22.29-39.23l46.14-26.12l22.29,39.23L357.99,630.91z M516.08,696.92h-45.11v-52.95h45.11V696.92z M493.01,626.66
		c-55.5,0-100.48-44.98-100.48-100.48c0-55.55,44.98-100.53,100.48-100.53c55.55,0,100.53,44.98,100.53,100.53
		C593.54,581.68,548.56,626.66,493.01,626.66z M581.94,603.13l22.25-39.23l46.06,26.12L628,629.26L581.94,603.13z"/>
</g>
<path fill="#FFFFFF" d="M426.027,477.016l-3.506-8.091c0,0,19.957-16.991,47.061-9.979c27.104,7.012,25.081,35.06,24.677,38.836
	s-1.618,20.092-21.98,41.128s-33.577,33.307-33.577,33.307l-0.27,4.18h58.793v9.574h-78.75v-7.012l37.353-37.083
	c0,0,31.2-27.653,24.947-54.478c0,0-3.371-20.901-28.992-20.227C451.783,467.173,441.534,466.498,426.027,477.016z"/>
<polygon fill="#FFFFFF" points="518.93,480.905 516.705,472.409 543.203,458.453 555.44,458.453 555.238,584.77 543.101,584.77 
	543,469.982 539.663,469.881 "/>
</svg>
