<?xml version="1.0" encoding="utf-8"?>
<!-- Generator: Adobe Illustrator 17.0.0, SVG Export Plug-In . SVG Version: 6.00 Build 0)  -->
<!DOCTYPE svg PUBLIC "-//W3C//DTD SVG 1.1//EN" "http://www.w3.org/Graphics/SVG/1.1/DTD/svg11.dtd">
<svg version="1.1" id="Capa_1" xmlns="http://www.w3.org/2000/svg" xmlns:xlink="http://www.w3.org/1999/xlink" x="0px" y="0px"
	 width="1000px" height="1000px" viewBox="0 0 1000 1000" enable-background="new 0 0 1000 1000" xml:space="preserve">
<path fill="#07BBD3" d="M584.14,488.25c-2.52,9.35-5.45,18.8-8.79,28.34H415.8c0,0,1.43-10.57,3.35-28.34
	c4.31-40.08,11.07-116.81,9.32-191.67c-1-42.75-4.77-84.89-13.36-119.24c-2.82-11.29-6.16-21.74-10.1-31.09
	c-4.47-10.61,6.19-21.4,16.9-17.17c10.53,4.16,20.86,9.06,30.89,14.65c23.33,13,45.1,29.76,64.29,49.78
	c22.76,23.73,41.89,52.05,55.7,84.11C598.28,336.82,605.63,408.78,584.14,488.25z"/>
<path opacity="0.1" d="M517.09,194.81V361c-13.77-121.49-80.15-195.44-80.15-195.44v-27.73
	C461.59,144.33,491.55,168.06,517.09,194.81z"/>
<path opacity="0.1" d="M517.09,449.4v51.74C513.45,502.76,512.74,488.46,517.09,449.4z"/>
<path opacity="0.1" d="M572.79,277.62c-7.96-18.48-17.69-35.72-28.87-51.55C559.9,246.88,571.01,266.23,572.79,277.62z"/>
<path fill="#CDEDFF" d="M753.1,546.34c0,32.09-26.01,58.09-58.09,58.09H340.17c-16.04,0-30.56-6.5-41.07-17.01
	c-10.52-10.51-17.02-25.04-17.02-41.08c0-32.08,26.01-58.09,58.09-58.09h354.84c16.04,0,30.56,6.5,41.07,17.01
	C746.6,515.78,753.1,530.3,753.1,546.34z"/>
<path fill="#EAB713" d="M779.98,209.09c-8.84,6.7-16.97,14.02-24.43,21.92c-56.24,59.54-74.45,151.84-74.45,257.24H517.59v-23.61
	c0-69.58,16.15-136.24,55.2-187.02c34.37-44.73,86.5-77.14,160.98-88.37c11.97-1.81,24.53-3.07,37.68-3.74
	C784.38,184.85,790.3,201.27,779.98,209.09z"/>
<path fill="#E02281" d="M517.591,488.252v-23.607c0-150.711-143.476-233.741-277.627-187.962c-12,4.096-11.588,21.233,0.547,24.91
	c83.019,25.163,113.568,64.813,113.568,186.658h163.512V488.252z"/>
<path fill="#0D9B72" d="M850.11,185.49c0,32.17-26.08,58.24-58.24,58.24c-13.74,0-26.37-4.76-36.32-12.72
	c-12.44-9.93-20.71-24.87-21.78-41.76c-0.09-1.24-0.13-2.5-0.13-3.76c0-32.16,26.07-58.23,58.23-58.23
	C824.03,127.26,850.11,153.33,850.11,185.49z"/>
<circle fill="#0D9B72" cx="399.029" cy="121.36" r="58.235"/>
<circle fill="#0D9B72" cx="234.07" cy="286.332" r="58.235"/>
<rect x="176.3" y="605.256" fill="#0053E5" width="677.628" height="331.619"/>
<rect x="516.653" y="605.256" fill="#023682" width="337.276" height="331.619"/>
<g>
	<path fill="#FFFFFF" d="M358.935,700.533V823.91h24.39v30.868h-64.499V700.533H358.935z"/>
	<path fill="#FFFFFF" d="M501.253,790.851c0,15.498-0.366,26.47-1.096,32.917c-0.731,6.447-3.017,12.338-6.86,17.673
		c-3.843,5.335-9.036,9.432-15.577,12.29c-6.542,2.858-14.164,4.287-22.865,4.287c-8.257,0-15.672-1.35-22.246-4.049
		c-6.574-2.699-11.861-6.748-15.863-12.147c-4.001-5.398-6.383-11.274-7.145-17.625c-0.762-6.351-1.143-17.466-1.143-33.345v-26.39
		c0-15.497,0.365-26.469,1.096-32.917c0.73-6.446,3.016-12.338,6.86-17.673c3.842-5.335,9.035-9.432,15.577-12.29
		c6.541-2.858,14.163-4.287,22.865-4.287c8.256,0,15.672,1.35,22.246,4.049c6.574,2.7,11.861,6.749,15.863,12.147
		c4.001,5.399,6.383,11.275,7.145,17.625c0.762,6.352,1.143,17.467,1.143,33.345V790.851z M461.143,740.166
		c0-7.177-0.397-11.766-1.191-13.767c-0.795-2.001-2.429-3.001-4.907-3.001c-2.096,0-3.7,0.81-4.811,2.429
		c-1.112,1.62-1.667,6.399-1.667,14.338v72.026c0,8.956,0.365,14.481,1.096,16.577c0.73,2.096,2.429,3.144,5.097,3.144
		c2.73,0,4.478-1.206,5.24-3.62c0.762-2.413,1.143-8.161,1.143-17.244V740.166z"/>
	<path fill="#FFFFFF" d="M620.705,747.216h-37.251v-11.433c0-5.335-0.476-8.733-1.429-10.194c-0.953-1.461-2.541-2.191-4.764-2.191
		c-2.414,0-4.24,0.985-5.478,2.956c-1.239,1.971-1.858,4.957-1.858,8.961c0,5.148,0.695,9.026,2.088,11.631
		c1.33,2.607,5.108,5.751,11.335,9.431c17.855,10.597,29.1,19.294,33.737,26.089c4.636,6.797,6.955,17.753,6.955,32.869
		c0,10.989-1.286,19.087-3.859,24.294c-2.572,5.208-7.543,9.575-14.91,13.1c-7.368,3.525-15.943,5.288-25.724,5.288
		c-10.734,0-19.897-2.033-27.486-6.097c-7.59-4.064-12.561-9.241-14.91-15.529c-2.35-6.288-3.525-15.211-3.525-26.771v-10.099
		h37.251v18.769c0,5.78,0.524,9.496,1.572,11.147c1.048,1.652,2.906,2.477,5.573,2.477c2.668,0,4.652-1.048,5.955-3.144
		c1.301-2.096,1.953-5.208,1.953-9.337c0-9.082-1.239-15.021-3.716-17.816c-2.541-2.794-8.797-7.463-18.769-14.005
		c-9.972-6.605-16.577-11.4-19.817-14.386c-3.239-2.985-5.923-7.113-8.051-12.385c-2.128-5.271-3.192-12.004-3.192-20.198
		c0-11.814,1.508-20.451,4.525-25.914c3.016-5.462,7.891-9.733,14.624-12.814c6.732-3.08,14.862-4.621,24.39-4.621
		c10.416,0,19.293,1.683,26.629,5.049c7.336,3.367,12.195,7.607,14.577,12.719c2.382,5.113,3.573,13.799,3.573,26.057V747.216z"/>
	<path fill="#FFFFFF" d="M656.127,700.533h66.881v30.868h-26.771v29.249h25.057v29.344h-25.057v33.917h29.439v30.868h-69.549
		V700.533z"/>
</g>
<path opacity="0.1" d="M517.09,449.4V361C520.17,388.19,520.61,417.75,517.09,449.4z"/>
<path opacity="0.1" d="M543.92,226.07c-7.92-10.33-17.05-21.01-26.83-31.26v-1.3C526.73,203.56,535.72,214.44,543.92,226.07z"/>
<path opacity="0.1" d="M517.09,501.14V449.4c3.52-31.65,3.08-61.21,0-88.4V194.81c9.78,10.25,18.91,20.93,26.83,31.26
	c11.18,15.83,20.91,33.07,28.87,51.55C576.63,302.24,529.57,495.54,517.09,501.14z"/>
<path opacity="0.1" d="M850.11,185.49c0,32.17-26.08,58.24-58.24,58.24c-13.74,0-26.37-4.76-36.32-12.72
	c-56.24,59.54-74.45,151.84-74.45,257.24h13.91c16.04,0,30.56,6.5,41.07,17.01c10.52,10.52,17.02,25.04,17.02,41.08
	c0,32.09-26.01,58.09-58.09,58.09H517.09V501.14c12.48-5.6,59.54-198.9,55.7-223.52c34.37-44.73,86.5-77.14,160.98-88.37
	c-0.09-1.24-0.13-2.5-0.13-3.76c0-32.16,26.07-58.23,58.23-58.23C824.03,127.26,850.11,153.33,850.11,185.49z"/>
</svg>
