<?xml version="1.0" encoding="utf-8"?>
<!-- Generator: Adobe Illustrator 17.0.0, SVG Export Plug-In . SVG Version: 6.00 Build 0)  -->
<!DOCTYPE svg PUBLIC "-//W3C//DTD SVG 1.1//EN" "http://www.w3.org/Graphics/SVG/1.1/DTD/svg11.dtd">
<svg version="1.1" id="Layer_1" xmlns="http://www.w3.org/2000/svg" xmlns:xlink="http://www.w3.org/1999/xlink" x="0px" y="0px"
	 width="1000px" height="1000px" viewBox="0 0 1000 1000" enable-background="new 0 0 1000 1000" xml:space="preserve">
<path d="M499.75,451.5c-26.65,0-48.25,21.6-48.25,48.25S473.1,548,499.75,548S548,526.4,548,499.75S526.4,451.5,499.75,451.5z
	 M499.62,525c-14.15,0-25.62-11.47-25.62-25.62c0-14.16,11.47-25.63,25.62-25.63c14.16,0,25.63,11.47,25.63,25.63
	C525.25,513.53,513.78,525,499.62,525z"/>
<rect x="493.75" y="456" fill="#FFFFFF" width="11.5" height="13.5"/>
<rect x="494" y="529.411" fill="#FFFFFF" width="11.5" height="13.5"/>
<rect x="525.25" y="510.578" transform="matrix(0.4934 -0.8698 0.8698 0.4934 -180.962 723.9656)" fill="#FFFFFF" width="11.5" height="13.5"/>
<rect x="525.25" y="474.911" transform="matrix(-0.4484 -0.8938 0.8938 -0.4484 338.5862 1172.2664)" fill="#FFFFFF" width="11.5" height="13.5"/>
<polygon fill="#FFFFFF" points="459.512,516.079 465.196,526.082 476.958,519.422 471.275,509.419 "/>
<polygon fill="#FFFFFF" points="464.774,473.918 459.609,484.197 471.696,490.25 476.862,479.971 "/>
</svg>
