<?xml version="1.0" encoding="utf-8"?>
<!-- Generator: Adobe Illustrator 17.0.0, SVG Export Plug-In . SVG Version: 6.00 Build 0)  -->
<!DOCTYPE svg PUBLIC "-//W3C//DTD SVG 1.1//EN" "http://www.w3.org/Graphics/SVG/1.1/DTD/svg11.dtd">
<svg version="1.1" id="Layer_1" xmlns="http://www.w3.org/2000/svg" xmlns:xlink="http://www.w3.org/1999/xlink" x="0px" y="0px"
	 width="1000px" height="1000px" viewBox="0 0 1000 1000" enable-background="new 0 0 1000 1000" xml:space="preserve">
<circle fill="none" stroke="#000000" stroke-width="60" stroke-miterlimit="10" cx="489.928" cy="582.995" r="341.588"/>
<rect x="691.795" y="231.388" transform="matrix(0.8268 0.5625 -0.5625 0.8268 273.7586 -358.5122)" width="54.495" height="67.786"/>
<path d="M416.826,59.695h134.243c0,0,45.191,7.975,46.52,54.495c1.329,46.52-41.203,58.482-41.203,58.482H416.826
	c0,0-35.887-17.279-35.887-56.488S416.826,59.695,416.826,59.695z"/>
<rect x="462.032" y="157.672" width="54.495" height="67.786"/>
<rect x="687.246" y="166.997" transform="matrix(0.8347 0.5506 -0.5506 0.8347 241.3124 -379.9131)" width="132.676" height="90.136"/>
<path d="M462.032,221.932v79.748c0,0,6.661,22.595,27.247,21.266c20.586-1.329,27.247-21.266,27.247-21.266v-79.748"/>
<path d="M517.176,948.592v-79.748c0,0-6.661-22.595-27.247-21.266c-20.586,1.329-27.247,21.266-27.247,21.266v79.748"/>
<path d="M854.848,555.748H775.1c0,0-22.595,6.661-21.266,27.247c1.329,20.586,21.266,27.247,21.266,27.247h79.748"/>
<path d="M129.419,610.243h79.748c0,0,22.595-6.661,21.266-27.247s-21.266-27.247-21.266-27.247h-79.748"/>
<path d="M767.574,824.115l-56.39-56.39c0,0-20.687-11.267-34.304,4.229c-13.617,15.497-4.229,34.304-4.229,34.304l56.391,56.391"/>
<path d="M246.859,862.247l56.39-56.39c0,0,11.267-20.687-4.229-34.304c-15.497-13.617-34.304-4.229-34.304-4.229l-56.39,56.39"/>
<path d="M729.442,305.656l-56.39,56.39c0,0-11.267,20.687,4.229,34.304c15.497,13.617,34.304,4.229,34.304,4.229l56.39-56.39"/>
<path d="M208.726,343.789l56.39,56.39c0,0,20.687,11.267,34.304-4.229c13.617-15.497,4.229-34.304,4.229-34.304l-56.39-56.39"/>
<rect x="260.869" y="480.592" fill="none" width="456.819" height="90.573"/>
<text transform="matrix(1 0 0 1 283.5172 551.0503)" font-family="'SFProDisplay-Heavy'" font-size="100">COMING</text>
<rect x="260.118" y="560.368" fill="none" width="458.322" height="135.213"/>
<text transform="matrix(1 0 0 1 288.8073 674.2153)" font-family="'FugazOne-Regular'" font-size="150">SOON</text>
</svg>
