<?xml version="1.0" encoding="utf-8"?>
<!-- Generator: Adobe Illustrator 17.0.0, SVG Export Plug-In . SVG Version: 6.00 Build 0)  -->
<!DOCTYPE svg PUBLIC "-//W3C//DTD SVG 1.1//EN" "http://www.w3.org/Graphics/SVG/1.1/DTD/svg11.dtd">
<svg version="1.1" id="Layer_1" xmlns="http://www.w3.org/2000/svg" xmlns:xlink="http://www.w3.org/1999/xlink" x="0px" y="0px"
	 width="1000px" height="1000px" viewBox="0 0 1000 1000" enable-background="new 0 0 1000 1000" xml:space="preserve">
<g>
	<g>
		<path fill="#FFFFFF" stroke="#000000" stroke-width="18" stroke-miterlimit="10" d="M53.957,49h579.916
			c0,0,18.786-0.25,18.41,18.16c-0.47,23.008,0,763.723,0,763.723S652.659,849,633.873,849H53.957c0,0-18.957,1.489-18.957-18.074
			V66.91C35,66.91,33.733,48,53.957,49z"/>
		<polygon stroke="#000000" stroke-width="2" stroke-miterlimit="10" points="343.897,317.747 251.865,439.713 343.897,568.583 
			435.965,439.713 		"/>
		<g>
			<polyline fill="#FFFFFF" stroke="#000000" stroke-width="18" stroke-miterlimit="10" points="506.154,217.642 522.06,176.498 
				549.302,106.031 575.728,174.386 576.292,175.844 592.451,217.642 			"/>
			<g>
				<line fill="#FFFFFF" stroke="#000000" stroke-width="18" stroke-miterlimit="10" x1="528" y1="172" x2="574" y2="172"/>
			</g>
		</g>
		<g>
			<polyline fill="#FFFFFF" stroke="#000000" stroke-width="18" stroke-miterlimit="10" points="189.209,668.688 172.647,711.528 
				144.282,784.901 116.766,713.727 116.179,712.209 99.354,668.688 			"/>
			<g>
				<line fill="#FFFFFF" stroke="#000000" stroke-width="18" stroke-miterlimit="10" x1="169" y1="715" x2="123" y2="715"/>
			</g>
		</g>
	</g>
	<g>
		<g>
			<path fill="#FFFFFF" stroke="#000000" stroke-width="18" stroke-miterlimit="10" d="M366.928,150h579.916
				c0,0,18.786-0.122,18.41,18.288c-0.47,23.008,0,764.159,0,764.159S965.629,951,946.843,951H366.928
				c0,0-18.928,0.744-18.928-18.819V168.165C348,168.165,346.703,150,366.928,150z"/>
		</g>
		<g>
			<line fill="#FFFFFF" stroke="#000000" stroke-width="18" stroke-miterlimit="10" x1="399" y1="201" x2="399" y2="329"/>
			
				<line fill="#FFFFFF" stroke="#000000" stroke-width="18" stroke-miterlimit="10" x1="467.032" y1="206.136" x2="399.145" y2="283.228"/>
			
				<line fill="#FFFFFF" stroke="#000000" stroke-width="18" stroke-miterlimit="10" x1="476.237" y1="329.253" x2="424.835" y2="254.055"/>
		</g>
		<g>
			<line fill="#FFFFFF" stroke="#000000" stroke-width="18" stroke-miterlimit="10" x1="905" y1="900" x2="905" y2="771"/>
			
				<line fill="#FFFFFF" stroke="#000000" stroke-width="18" stroke-miterlimit="10" x1="836.521" y1="892.115" x2="905.421" y2="817.776"/>
			
				<line fill="#FFFFFF" stroke="#000000" stroke-width="18" stroke-miterlimit="10" x1="827.178" y1="773.395" x2="879.348" y2="845.907"/>
		</g>
		<g>
			<path d="M499.848,845.93l-45.473,42.803l-6.351,6.076l-1.098-0.921L445,892.139V771h21.342c0,0-9.205,20.666-9.297,42.482
				c1.197-2.117,4.511-4.947,13.44-7.893c13.808-4.603,25.314,6.915,25.314,6.915c8.653,7.456,9.205,14.366,9.205,14.366
				C508.501,834.97,499.848,845.93,499.848,845.93z"/>
			<path d="M455,771v117.733l-6.664,6.076l-1.169-0.921l-54.48-47.958c0,0-8.692-10.954-5.194-19.054c0,0,0.533-6.904,9.185-14.36
				c0,0,11.497-11.506,25.304-6.904c8.929,2.946,12.238,5.753,13.435,7.87c-0.092-21.816-9.302-42.482-9.302-42.482H455z"/>
		</g>
		<g>
			<path d="M806.835,258.466l45.473-42.803l6.352-6.076l-0.244,0.921l0.585,1.749V329h-18.659c0,0,9.205-18.468,9.297-40.283
				c-1.197,2.117-4.511,6.046-13.44,8.992c-13.807,4.603-25.314-6.366-25.314-6.366c-8.653-7.456-9.205-14.091-9.205-14.091
				C798.182,269.151,806.835,258.466,806.835,258.466z"/>
			<path d="M852,329V215.663l8.005-6.076l1.839,0.921l54.815,47.958c0,0,8.859,10.954,5.362,19.054c0,0-0.449,6.904-9.102,14.36
				c0,0-11.455,11.506-25.262,6.904c-8.929-2.946-12.217-7.951-13.414-10.068c0.092,21.816,9.323,40.283,9.323,40.283H852z"/>
		</g>
		<g>
			<path d="M789.219,648.011c-1.17,5.128-1.162,9.595-15.18,18.952c-14.756,9.849-52.244,10.295-69.402,14.806
				c-31.129,8.183-17.925,22.432-11.506,24.738c17.37,6.242,46.511,0.825,61.536-2.508c60.255-13.364,66.758-48.12,66.758-48.12
				L822,597.773c11.506,1.726,31.263-14.383,31.263-14.383c14.578-17.259-3.155-39.697-3.155-39.697L804,468.328V337.732
				c-14.667-20.399-28.407-5.356-33.333,0.268c-6.158,7.03-24.074,24.47-24.074,24.47c-14.958,12.082-24.852,5.811-29.32,0
				c-9.883-12.852-23.242-45-31.939-58.682c-15.333-24.122-28.191-6.861-32.684,0c-10.016,15.296-21.177,48.725-31.436,63.86
				c-6.655,9.817-20.71,1.151-20.71,1.151l-28.19-29.916c0,0-21.862-21.287-35.094,6.328l1.726,138.65
				c-13.232,12.082-16.704,22.632-17.835,31.642c-3.384,26.977-2.014,108.734-2.014,108.734s-57.012,2.877-69.281,40.272
				c0,0-8.878,30.832,1.516,49.157c5.309,9.36,11.345,18.793,33.667,29.333c12.966,6.122,32.57,12.337,55.582,10.611
				c0,0,29.386-2.841,58.152-17.799c0,0,51.958-33.949,63.39-73.433c4.733-16.346,3.667-13.536,4.876-26.636
				c2.576-27.928,0-112.186,0-112.186s17.667-37.891,40.6-41.746c0,0,20.116-3.775,40.252-0.899c0,0,22.163,1.079,36.546,17.763
				l35.292,57.963c0,0,0.614,6.041-12.619,7.767c0,0-28.78,0-40.861,32.218c0,0-10.834,13.002-20.143,14.958
				c-4.418,0.928-15.816,0.669-15.537-9.205c0.093-3.278,5.751-8.054,10.354-8.054c0,0-4.222-8.094-17.836-3.452
				C717.723,592.685,712,600.875,711,609.875c-0.788,7.094,2.125,16.5,12.5,24.375c6.379,4.842,16.145,11.255,36.125,8.5
				c7.278-1.003,18.652-5.28,27.281-10.458C786.906,632.292,790.875,640.75,789.219,648.011z"/>
			<circle cx="745.484" cy="537.366" r="18.41"/>
		</g>
	</g>
</g>
</svg>
