<?xml version="1.0" encoding="utf-8"?>
<!-- Generator: Adobe Illustrator 17.0.0, SVG Export Plug-In . SVG Version: 6.00 Build 0)  -->
<!DOCTYPE svg PUBLIC "-//W3C//DTD SVG 1.1//EN" "http://www.w3.org/Graphics/SVG/1.1/DTD/svg11.dtd">
<svg version="1.1" id="Layer_1" xmlns="http://www.w3.org/2000/svg" xmlns:xlink="http://www.w3.org/1999/xlink" x="0px" y="0px"
	 width="1000px" height="1000px" viewBox="0 0 1000 1000" enable-background="new 0 0 1000 1000" xml:space="preserve">
<g>
	<g>
		<linearGradient id="SVGID_1_" gradientUnits="userSpaceOnUse" x1="-10.8447" y1="829.0584" x2="723.5095" y2="94.7042">
			<stop  offset="0" style="stop-color:#04BEFE"/>
			<stop  offset="1" style="stop-color:#4481EB"/>
		</linearGradient>
		<path fill="url(#SVGID_1_)" d="M50.061,44h613.643c0,0,19.878-0.26,19.481,18.978c-0.497,24.043,0,798.089,0,798.089
			S683.582,880,663.704,880H50.061c0,0-20.061,1.555-20.061-18.889V62.718C30,62.718,28.66,43,50.061,44z"/>
		<polygon fill="#FFFFFF" stroke="#FFFFFF" stroke-width="2" stroke-miterlimit="10" points="356.897,330.747 264.865,452.713 
			356.897,581.583 448.965,452.713 		"/>
		<g>
			<polyline fill="none" stroke="#FFFFFF" stroke-width="18" stroke-miterlimit="10" points="519.154,230.642 535.06,189.498 
				562.302,119.031 588.728,187.386 589.292,188.844 605.451,230.642 			"/>
			<g>
				<line fill="#FFFFFF" stroke="#FFFFFF" stroke-width="18" stroke-miterlimit="10" x1="541" y1="185" x2="587" y2="185"/>
			</g>
		</g>
		<g>
			<polyline fill="none" stroke="#FFFFFF" stroke-width="18" stroke-miterlimit="10" points="202.209,681.688 185.647,724.528 
				157.282,797.901 129.766,726.727 129.179,725.209 112.354,681.688 			"/>
			<g>
				<line fill="#FFFFFF" stroke="#FFFFFF" stroke-width="18" stroke-miterlimit="10" x1="182" y1="728" x2="136" y2="728"/>
			</g>
		</g>
	</g>
	<g>
		<g>
			<g>
				<linearGradient id="SVGID_2_" gradientUnits="userSpaceOnUse" x1="320.0493" y1="912.897" x2="1019.1149" y2="213.8314">
					<stop  offset="0" style="stop-color:#04BEFE"/>
					<stop  offset="1" style="stop-color:#4481EB"/>
				</linearGradient>
				<path fill="url(#SVGID_2_)" stroke="#FFFFFF" stroke-width="18" stroke-miterlimit="10" d="M379.928,163h579.916
					c0,0,18.786-0.122,18.41,18.288c-0.47,23.008,0,764.159,0,764.159S978.629,964,959.843,964H379.928
					c0,0-18.928,0.744-18.928-18.819V181.165C361,181.165,359.703,163,379.928,163z"/>
			</g>
			<g>
				<line fill="none" stroke="#FFFFFF" stroke-width="18" stroke-miterlimit="10" x1="412" y1="214" x2="412" y2="342"/>
				
					<line fill="none" stroke="#FFFFFF" stroke-width="18" stroke-miterlimit="10" x1="480.032" y1="219.136" x2="412.145" y2="296.228"/>
				
					<line fill="none" stroke="#FFFFFF" stroke-width="18" stroke-miterlimit="10" x1="489.237" y1="342.253" x2="437.835" y2="267.055"/>
			</g>
			<g>
				<line fill="none" stroke="#FFFFFF" stroke-width="18" stroke-miterlimit="10" x1="918" y1="913" x2="918" y2="784"/>
				
					<line fill="none" stroke="#FFFFFF" stroke-width="18" stroke-miterlimit="10" x1="849.521" y1="905.115" x2="918.421" y2="830.776"/>
				
					<line fill="none" stroke="#FFFFFF" stroke-width="18" stroke-miterlimit="10" x1="840.178" y1="786.395" x2="892.348" y2="858.907"/>
			</g>
			<g>
				<path fill="#FFFFFF" d="M512.848,858.93l-45.473,42.803l-6.351,6.076l-1.098-0.921L458,905.139V784h21.342
					c0,0-9.205,20.666-9.297,42.482c1.197-2.117,4.511-4.947,13.44-7.893c13.808-4.603,25.314,6.915,25.314,6.915
					c8.653,7.456,9.205,14.366,9.205,14.366C521.501,847.97,512.848,858.93,512.848,858.93z"/>
				<path fill="#FFFFFF" d="M468,784v117.733l-6.664,6.076l-1.169-0.921l-54.48-47.958c0,0-8.692-10.954-5.194-19.054
					c0,0,0.533-6.904,9.185-14.36c0,0,11.497-11.506,25.304-6.904c8.929,2.946,12.238,5.753,13.435,7.87
					c-0.092-21.816-9.302-42.482-9.302-42.482H468z"/>
			</g>
			<g>
				<path fill="#FFFFFF" d="M819.835,271.466l45.473-42.803l6.352-6.076l-0.244,0.921l0.585,1.749V342h-18.659
					c0,0,9.205-18.468,9.297-40.283c-1.197,2.117-4.511,6.046-13.44,8.992c-13.807,4.603-25.314-6.366-25.314-6.366
					c-8.653-7.456-9.205-14.091-9.205-14.091C811.182,282.151,819.835,271.466,819.835,271.466z"/>
				<path fill="#FFFFFF" d="M864,342V228.663l8.005-6.076l1.839,0.921l54.815,47.958c0,0,8.859,10.954,5.362,19.054
					c0,0-0.449,6.904-9.102,14.36c0,0-11.455,11.506-25.262,6.904c-8.929-2.946-12.217-7.951-13.414-10.068
					c0.092,21.816,9.323,40.283,9.323,40.283H864z"/>
			</g>
		</g>
	</g>
</g>
<g>
	<path fill="#FFFFFF" d="M804.219,660.011c-1.17,5.128-1.162,9.595-15.18,18.952c-14.756,9.849-52.244,10.295-69.402,14.806
		c-31.129,8.183-17.925,22.432-11.506,24.738c17.37,6.242,46.511,0.825,61.536-2.508c60.255-13.364,66.758-48.12,66.758-48.12
		L837,609.773c11.506,1.726,31.263-14.383,31.263-14.383c14.578-17.259-3.155-39.697-3.155-39.697L819,480.328V349.732
		c-14.667-20.399-28.407-5.356-33.333,0.268c-6.158,7.03-24.074,24.47-24.074,24.47c-14.958,12.082-24.852,5.811-29.32,0
		c-9.883-12.852-23.242-45-31.939-58.682c-15.333-24.122-28.191-6.861-32.684,0c-10.016,15.296-21.177,48.725-31.436,63.86
		c-6.655,9.817-20.71,1.151-20.71,1.151l-28.19-29.916c0,0-21.862-21.287-35.094,6.328l1.726,138.65
		c-13.232,12.082-16.704,22.632-17.835,31.642c-3.384,26.977-2.014,108.734-2.014,108.734s-57.012,2.877-69.281,40.272
		c0,0-8.878,30.832,1.516,49.157c5.309,9.36,11.345,18.793,33.667,29.333c12.966,6.122,32.57,12.337,55.582,10.611
		c0,0,29.386-2.841,58.152-17.799c0,0,51.958-33.949,63.39-73.433c4.733-16.346,3.667-13.536,4.876-26.636
		c2.576-27.928,0-112.186,0-112.186s17.667-37.891,40.6-41.746c0,0,20.116-3.775,40.252-0.899c0,0,22.163,1.079,36.546,17.763
		l35.292,57.963c0,0,0.614,6.041-12.619,7.767c0,0-28.78,0-40.861,32.218c0,0-10.834,13.002-20.143,14.958
		c-4.418,0.928-15.816,0.669-15.537-9.205c0.093-3.278,5.751-8.054,10.354-8.054c0,0-4.222-8.094-17.836-3.452
		C732.723,604.685,727,612.875,726,621.875c-0.788,7.094,2.125,16.5,12.5,24.375c6.379,4.842,16.145,11.255,36.125,8.5
		c7.278-1.003,18.652-5.28,27.281-10.458C801.906,644.292,805.875,652.75,804.219,660.011z"/>
	<circle fill="#FFFFFF" cx="760.484" cy="549.366" r="18.41"/>
</g>
</svg>
