<?xml version="1.0" encoding="utf-8"?>
<!-- Generator: Adobe Illustrator 17.0.0, SVG Export Plug-In . SVG Version: 6.00 Build 0)  -->
<!DOCTYPE svg PUBLIC "-//W3C//DTD SVG 1.1//EN" "http://www.w3.org/Graphics/SVG/1.1/DTD/svg11.dtd">
<svg version="1.1" id="Layer_1" xmlns="http://www.w3.org/2000/svg" xmlns:xlink="http://www.w3.org/1999/xlink" x="0px" y="0px"
	 width="1000px" height="1000px" viewBox="0 0 1000 1000" enable-background="new 0 0 1000 1000" xml:space="preserve">
<path fill="none" stroke="#FFFFFF" stroke-width="25" stroke-miterlimit="10" d="M550.525,227.5h411.719
	c0,0,13.337-1.888,13.07,11.182c-0.333,16.335,0,540.585,0,540.585s0.267,11.233-13.07,11.233H550.525
	c0,0-14.025,2.606-14.025-11.283V236.794C536.5,236.794,536.166,227.5,550.525,227.5z"/>
<polygon fill="#FFFFFF" points="755.702,362.531 716.243,314.241 755.702,262.943 793.659,314.241 "/>
<polygon fill="#FFFFFF" points="755.702,553.547 716.243,505.256 755.702,453.959 793.658,505.256 "/>
<polygon fill="#FFFFFF" points="755.6,746.698 716.14,698.407 755.6,647.109 793.556,698.407 "/>
<path fill="none" stroke="#FFFFFF" stroke-width="25" stroke-miterlimit="10" d="M38.303,228.5h411.719
	c0,0,13.337-2.388,13.07,10.682c-0.333,16.335,0,540.835,0,540.835s0.267,11.483-13.07,11.483H38.303
	c0,0-14.803,1.606-14.803-12.283V236.794C23.5,236.794,23.945,228.5,38.303,228.5z"/>
<path fill="#FFFFFF" d="M243.214,468.452c3.259-4.005,9.284-8.653,13.036-10.513c11.645-5.775,19.321-3.983,25.571-2.503
	c30.471,7.216,29.833,34.294,29.833,34.294c1.253,24.853-13.663,41.921-24.317,51.316c-10.335,9.113-44.122,33.042-44.122,33.042
	s-33.737-23.929-44.056-33.042c-10.638-9.394-25.533-26.462-24.281-51.316c0,0-0.638-27.078,29.788-34.294
	c6.241-1.48,13.905-3.272,25.533,2.503C233.943,459.799,239.959,464.446,243.214,468.452z"/>
<g>
	<polyline fill="none" stroke="#FFFFFF" stroke-width="14" stroke-miterlimit="10" points="134.873,658.203 123.381,687.929 
		103.698,738.84 84.606,689.455 84.199,688.401 72.524,658.203 	"/>
	<g>
		<line fill="none" stroke="#FFFFFF" stroke-width="14" stroke-miterlimit="10" x1="124" y1="691" x2="85" y2="691"/>
	</g>
</g>
<g>
	<polyline fill="none" stroke="#FFFFFF" stroke-width="14" stroke-miterlimit="10" points="347.843,354.674 359.335,324.948 
		379.018,274.037 398.11,323.422 398.517,324.476 410.192,354.674 	"/>
	<g>
		<line fill="none" stroke="#FFFFFF" stroke-width="14" stroke-miterlimit="10" x1="361" y1="320" x2="398" y2="320"/>
	</g>
</g>
</svg>
