<?xml version="1.0" encoding="utf-8"?>
<!-- Generator: Adobe Illustrator 17.0.0, SVG Export Plug-In . SVG Version: 6.00 Build 0)  -->
<!DOCTYPE svg PUBLIC "-//W3C//DTD SVG 1.1//EN" "http://www.w3.org/Graphics/SVG/1.1/DTD/svg11.dtd">
<svg version="1.1" id="Layer_1" xmlns="http://www.w3.org/2000/svg" xmlns:xlink="http://www.w3.org/1999/xlink" x="0px" y="0px"
	 width="1000px" height="1000px" viewBox="0 0 1000 1000" enable-background="new 0 0 1000 1000" xml:space="preserve">
<path fill="none" stroke="#000000" stroke-width="18" stroke-miterlimit="10" d="M512,553"/>
<path fill="none" stroke="#000000" stroke-width="18" stroke-miterlimit="10" d="M512,979"/>
<g>
	<g>
		<path fill="#FFFFFF" stroke="#000000" stroke-width="18" stroke-miterlimit="10" d="M503,546.683"/>
	</g>
</g>
<g>
	<line stroke="#000000" stroke-width="18" stroke-miterlimit="10" x1="503" y1="538" x2="503" y2="547"/>
</g>
<path fill="none" stroke="#000000" stroke-width="18" stroke-miterlimit="10" d="M503,27.87
	c-12.463,0.493-24.058,10.136-24.058,10.136l-3.306,2.457L68.154,343.593c0,0-8.467,7.371-10.49,10.499
	C54.803,358.533,55,367.256,55,367.256v584.502c0,0-0.316,5.111,5.467,12.7C66.22,972.027,74.341,971,74.341,971H367v-4V566.52
	c0,0-0.09-7.91,4.35-13.99c4.62-6.34,15.51-5.53,15.51-5.53h232.29c0,0,10.89-0.81,15.51,5.53c4.42,6.05,4.34,13.92,4.34,13.99V967
	v4h292.71c0,0,8.1,1.03,13.85-6.54c5.79-7.59,5.44-12.7,5.44-12.7v-584.5c0,0,0.23-8.73-2.63-13.17
	c-2.03-3.13-10.47-10.5-10.47-10.5L530.36,40.46l-3.3-2.47C527.06,37.99,515.83,28.37,503,27.87L503,27.87z"/>
</svg>
