<?xml version="1.0" encoding="utf-8"?>
<!-- Generator: Adobe Illustrator 17.0.0, SVG Export Plug-In . SVG Version: 6.00 Build 0)  -->
<!DOCTYPE svg PUBLIC "-//W3C//DTD SVG 1.1//EN" "http://www.w3.org/Graphics/SVG/1.1/DTD/svg11.dtd">
<svg version="1.1" id="Layer_1" xmlns="http://www.w3.org/2000/svg" xmlns:xlink="http://www.w3.org/1999/xlink" x="0px" y="0px"
	 width="1000px" height="1000px" viewBox="0 0 1000 1000" enable-background="new 0 0 1000 1000" xml:space="preserve">
<circle fill="none" stroke="#04BEFE" stroke-width="40" stroke-miterlimit="10" cx="499.948" cy="101.32" r="71.78"/>
<circle fill="#04BEFE" stroke="#04BEFE" stroke-width="40" stroke-miterlimit="10" cx="505.137" cy="856.304" r="114.156"/>
<path fill="#04BEFE" stroke="#FFFFFF" stroke-width="20" stroke-miterlimit="10" d="M498.599,823.026c0.83,0,1.764,0,2.594,0
	c74.201,0.311,151.516-0.104,203.716-2.179c132.42-5.189,169.988-93.4,169.988-93.4c-118.099-97.24-125.882-199.772-125.882-199.772
	l-9.132-191.989c-0.415-14.84-38.19-191.574-238.689-198.215c-0.311,0-0.623,0-0.934,0c-0.104-0.104-0.208-0.104-0.311,0
	c-0.415-0.104-0.934-0.104-1.349-0.104v0.104h2.594v-0.104c-0.415,0-0.83,0-1.245,0.104c-0.519-0.104-0.934,0-1.349,0
	c-200.395,6.642-238.17,183.375-238.585,198.215l-9.132,191.989c0,0-7.783,102.532-125.779,199.772c0,0,37.568,88.211,169.884,93.4
	C347.187,822.922,424.398,823.337,498.599,823.026c0.83,0,1.764,0,2.594,0"/>
</svg>
