<?xml version="1.0" encoding="utf-8"?>
<!-- Generator: Adobe Illustrator 17.0.0, SVG Export Plug-In . SVG Version: 6.00 Build 0)  -->
<!DOCTYPE svg PUBLIC "-//W3C//DTD SVG 1.1//EN" "http://www.w3.org/Graphics/SVG/1.1/DTD/svg11.dtd">
<svg version="1.1" id="Layer_1" xmlns="http://www.w3.org/2000/svg" xmlns:xlink="http://www.w3.org/1999/xlink" x="0px" y="0px"
	 width="1000px" height="1000px" viewBox="0 0 1000 1000" enable-background="new 0 0 1000 1000" xml:space="preserve">
<g>
	<path fill="#FFFFFF" d="M507.56,52.88c-251.53,0-455.43,203.9-455.43,455.43c0,116.49,43.72,222.76,115.67,303.28
		c4.3-12.4,10.41-23.95,18.01-34.34c-20.17-24.82-37.48-52.08-51.47-81.14l57.6-27.66c11.62,24.44,25.93,47.31,42.53,68.22
		c17.21-8.34,36.52-13.01,56.93-13.01c72.24,0,130.79,58.56,130.79,130.8c0,1.89-0.04,3.76-0.12,5.63
		c21.9,5.74,44.57,9.3,68.93,10.51v61.27c-26.13-1.1-56.49-5.41-85.93-12.67c-5.78,10.12-12.87,19.39-21.04,27.59
		c39.28,11.05,80.72,16.96,123.53,16.96c47.81,0,93.9-7.37,137.19-21.04c-7.59-8.24-14.14-17.46-19.43-27.44
		c-28.05,8.72-56.97,14.41-93.32,16.21v-62.07c31.65-1.61,54.93-7.53,78.09-14.61c-0.01-0.32-0.01-0.65-0.01-0.97
		c0-72.48,58.76-131.25,131.25-131.25c19.3,0,37.63,4.17,54.14,11.64c14.13-17.69,26.88-36.74,37.23-56.95l53.44,18.15
		c-12.51,25.99-27.6,50.49-45.03,73.14c7.38,8.62,13.66,18.22,18.62,28.56C924.26,718.53,963,617.95,963,508.31
		C963,256.78,759.09,52.88,507.56,52.88z M521,98.38c52,1.59,91.06,10.61,132.11,25.98l-18.59,57.6
		c-35-12.99-73.52-20.52-113.52-21.71V98.38z M483,98.98v62.16c-32,2.58-63.32,9.62-92.77,20.32l-26.83-57
		C401.27,110.28,443,101.46,483,98.98z M118.78,661.25C104.99,623.87,96.37,585,93.89,544h64.54c2.18,30,8.53,61.4,18.54,90.35
		L118.78,661.25z M157.84,504H93.3c1.48-49,9.51-86.22,23.1-125.08l61.17,21.4C166.17,432.74,159.32,467,157.84,504z M192.74,361.41
		l-61.37-20.82c18.44-40.06,43.12-76.74,72.77-108.66l46,44.51C227.14,301.62,207.71,330.28,192.74,361.41z M278.49,248.58
		l-46.1-44.41c28.55-25.58,60.58-47.19,95.38-64.05l27.26,57.01C327.27,210.91,301.49,228.26,278.49,248.58z M568,490.17v0.01
		c2,6.44,3.46,13.38,3.46,20.61c0,8.73-1.86,17.03-5.15,24.54c0,0.01-0.01,0.02-0.01,0.03l62.66,62.66
		c2.72-0.58,5.53-0.88,8.42-0.88c22.24,0,40.27,18.03,40.27,40.27c0,22.25-18.03,40.28-40.27,40.28
		c-22.25,0-40.28-18.03-40.28-40.28c0-3.24,0.38-6.4,1.11-9.42l-61.79-61.79c-7.99,3.8-16.93,5.98-26.37,5.98
		c-9.66,0-18.8-2.18-26.93-6.18h-0.01l-63.09,63.05c0.58,2.7,0.88,5.5,0.88,8.38c0,22.25-18.03,40.27-40.27,40.27
		c-22.25,0-40.28-18.03-40.28-40.28c0-22.24,18.03-40.28,40.28-40.28c3.24,0,6.4,0.38,9.42,1.11l63.51-63.51
		c-3.13-7.36-4.64-15.45-4.64-23.95c0-6.48,1.08-12.73,3.08-18.59v-0.01l-62.44-62.21l-0.04-0.04c-2.76,0.6-5.64,0.92-8.58,0.92
		c-22.25,0-40.28-18.04-40.28-40.28c0-22.24,18.03-40.28,40.28-40.28c22.24,0,40.27,18.04,40.27,40.28c0,3.24-0.38,6.38-1.11,9.4
		l0.03,0.03l58.23,58.25l0.08,0.08c0.04-0.03,0.08-0.06,0.12-0.08c9.25-5.59,19.99-8.81,31.59-8.81c10.85,0,21.07,2.82,29.91,7.77
		l58.23-58.23c-0.58-2.71-0.88-5.53-0.88-8.41c0-22.24,18.03-40.28,40.28-40.28c22.24,0,40.27,18.04,40.27,40.28
		c0,22.24-18.03,40.28-40.27,40.28c-3.25,0-6.41-0.38-9.43-1.11l-60.3,60.3C567.97,490.09,567.99,490.13,568,490.17z M672.68,197.82
		l19.53-57.8c36.79,17.85,70.49,40.95,100.24,68.31l-41.54,42.93C727.51,230.14,701.14,212.1,672.68,197.82z M778.86,279.32
		l41.44-42.73c25.58,28.45,47.4,60.47,64.35,95.17l-51.36,24.59C819.31,328.29,799.49,302.42,778.86,279.32z M849.68,393.3
		l50.73-22.64c14.58,38.56,23.5,75.34,25.98,125.34h-56.32C867.79,455,859,424.26,850,393.63v-0.1
		C850,393.03,849.97,393.79,849.68,393.3z M849.87,641.48c0.2-0.39,0.13-0.89,0.13-1.28v-0.1c9-34.31,19.88-76.1,21.46-105.1h55.32
		c-1.58,39-10.79,85.76-25.46,125.91L849.87,641.48z"/>
	<g>
		
			<ellipse fill="none" stroke="#FFFFFF" stroke-width="14" stroke-miterlimit="10" cx="291.567" cy="853.956" rx="109.191" ry="109.794"/>
		<path fill="none" stroke="#FFFFFF" stroke-width="14" stroke-miterlimit="10" d="M367.45,933.883c0,0-39.553-15.562-52.399-25.235
			c0,0-3.808-10.485-2.386-24.448c0,0,14.445-12.846,13.481-22.519c0,0,8.099,1.422,10.155-8.581c0,0,3.351-14.268-8.225-12.998
			c0,0,4.265-12.541,2.843-39.833c0,0,0.45-16.24-19.523-21.097c0,0-8.835-2.539-19.827-2.488
			c-7.356-0.292-18.743,2.538-18.743,2.538c-18.359,3.96-19.523,24.905-19.523,24.905c-1.422,27.291,2.843,36.025,2.843,36.025
			c-11.577-1.269-8.225,12.998-8.225,12.998c2.056,10.003,10.155,8.581,10.155,8.581c-0.965,9.673,13.481,22.518,13.481,22.518
			c1.422,13.963-2.386,24.448-2.386,24.448c-12.846,9.673-52.399,25.235-52.399,25.235"/>
	</g>
	<g>
		
			<ellipse fill="none" stroke="#FFFFFF" stroke-width="14" stroke-miterlimit="10" cx="741.329" cy="853.832" rx="109.191" ry="109.794"/>
		<path fill="none" stroke="#FFFFFF" stroke-width="14" stroke-miterlimit="10" d="M817.212,933.759
			c0,0-39.553-15.562-52.399-25.235c0,0-3.808-10.485-2.386-24.448c0,0,14.445-12.846,13.481-22.518c0,0,8.099,1.422,10.155-8.581
			c0,0,3.351-14.268-8.225-12.998c0,0,4.265-12.541,2.843-39.833c0,0,0.45-16.24-19.523-21.097c0,0-8.835-2.539-19.827-2.488
			c-7.356-0.292-18.743,2.538-18.743,2.538c-18.359,3.96-19.523,24.905-19.523,24.905c-1.422,27.291,2.843,36.025,2.843,36.025
			c-11.577-1.269-8.225,12.998-8.225,12.998c2.056,10.003,10.155,8.581,10.155,8.581c-0.965,9.673,13.481,22.518,13.481,22.518
			c1.422,13.963-2.386,24.448-2.386,24.448c-12.846,9.673-52.399,25.235-52.399,25.235"/>
	</g>
</g>
</svg>
