<?xml version="1.0" encoding="utf-8"?>
<!-- Generator: Adobe Illustrator 17.0.0, SVG Export Plug-In . SVG Version: 6.00 Build 0)  -->
<!DOCTYPE svg PUBLIC "-//W3C//DTD SVG 1.1//EN" "http://www.w3.org/Graphics/SVG/1.1/DTD/svg11.dtd">
<svg version="1.1" id="Layer_1" xmlns="http://www.w3.org/2000/svg" xmlns:xlink="http://www.w3.org/1999/xlink" x="0px" y="0px"
	 width="1000px" height="1000px" viewBox="0 0 1000 1000" enable-background="new 0 0 1000 1000" xml:space="preserve">
<g>
	<path fill="none" stroke="#FFFFFF" stroke-width="18" stroke-miterlimit="10" d="M599.3,744.88c0.04,90.96,0.07,154.21,0.07,154.21
		S599.65,920,585.52,920H149.26c0,0-15.26-2.71-15.26-23.17v-703.6V98.06c0,0,0.05-18.06,15.26-18.06h436.26
		c0,0,14.13-0.6,13.85,18.65c-0.07,4.8-0.11,39.55-0.14,92.11c0,19.34-0.01,41.08-0.01,64.63"/>
	
		<line fill="none" stroke="#FFFFFF" stroke-width="18" stroke-miterlimit="10" x1="599.233" y1="190.758" x2="134.686" y2="193.23"/>
	
		<line fill="none" stroke="#FFFFFF" stroke-width="18" stroke-miterlimit="10" x1="599.233" y1="793.514" x2="134.686" y2="795.986"/>
	
		<line fill="none" stroke="#FFFFFF" stroke-width="18" stroke-miterlimit="10" x1="442.652" y1="852.802" x2="302.667" y2="855.273"/>
	<path fill="none" stroke="#FFFFFF" stroke-width="18" stroke-miterlimit="10" d="M380,487.925V355.43l207.238-0.388l-1.249-91.686
		c-1.94-21.756,11.31-9.712,11.31-9.712L866,499.368v1.941L597.312,746.698c0,0-13.432,12.027-11.492-9.699l1.321-91.56L380,645.051
		V500.34V487.925z"/>
</g>
<g>
	<circle fill="none" stroke="#FFFFFF" stroke-width="12" stroke-miterlimit="10" cx="558.345" cy="500.012" r="118.058"/>
	<circle fill="#FFFFFF" cx="460.904" cy="501.319" r="6.511"/>
	<circle fill="#FFFFFF" cx="464.16" cy="481.786" r="6.511"/>
	<circle fill="#FFFFFF" cx="469.043" cy="463.881" r="6.511"/>
	<circle fill="#FFFFFF" cx="477.181" cy="445.977" r="6.511"/>
	<circle fill="#FFFFFF" cx="488.847" cy="429.7" r="6.511"/>
	<circle fill="#FFFFFF" cx="505.124" cy="418.306" r="6.511"/>
	<circle fill="#FFFFFF" cx="521.401" cy="408.539" r="6.511"/>
	<circle fill="#FFFFFF" cx="539.034" cy="403.656" r="6.511"/>
	<circle fill="#FFFFFF" cx="557.21" cy="400.401" r="6.511"/>
	<ellipse fill="#FFFFFF" cx="653.478" cy="501.319" rx="6.495" ry="6.511"/>
	<ellipse fill="#FFFFFF" cx="650.231" cy="481.786" rx="6.495" ry="6.511"/>
	<ellipse fill="#FFFFFF" cx="645.36" cy="463.881" rx="6.495" ry="6.511"/>
	<ellipse fill="#FFFFFF" cx="637.242" cy="445.977" rx="6.495" ry="6.511"/>
	<ellipse fill="#FFFFFF" cx="625.605" cy="429.7" rx="6.495" ry="6.511"/>
	<ellipse fill="#FFFFFF" cx="609.369" cy="418.306" rx="6.495" ry="6.511"/>
	<ellipse fill="#FFFFFF" cx="593.132" cy="408.539" rx="6.495" ry="6.511"/>
	<ellipse fill="#FFFFFF" cx="575.542" cy="403.656" rx="6.495" ry="6.511"/>
	<circle fill="#FFFFFF" cx="464.16" cy="521.36" r="6.511"/>
	<circle fill="#FFFFFF" cx="469.043" cy="539.265" r="6.511"/>
	<circle fill="#FFFFFF" cx="477.181" cy="557.169" r="6.511"/>
	<circle fill="#FFFFFF" cx="488.847" cy="573.446" r="6.511"/>
	<circle fill="#FFFFFF" cx="505.124" cy="584.84" r="6.511"/>
	<circle fill="#FFFFFF" cx="521.401" cy="594.607" r="6.511"/>
	<circle fill="#FFFFFF" cx="539.034" cy="599.49" r="6.511"/>
	<circle fill="#FFFFFF" cx="557.21" cy="602.745" r="6.511"/>
	<ellipse fill="#FFFFFF" cx="650.231" cy="521.36" rx="6.495" ry="6.511"/>
	<ellipse fill="#FFFFFF" cx="645.36" cy="539.265" rx="6.495" ry="6.511"/>
	<ellipse fill="#FFFFFF" cx="637.242" cy="557.169" rx="6.495" ry="6.511"/>
	<ellipse fill="#FFFFFF" cx="625.605" cy="573.446" rx="6.495" ry="6.511"/>
	<ellipse fill="#FFFFFF" cx="609.369" cy="584.84" rx="6.495" ry="6.511"/>
	<ellipse fill="#FFFFFF" cx="593.132" cy="594.607" rx="6.495" ry="6.511"/>
	<ellipse fill="#FFFFFF" cx="575.542" cy="599.49" rx="6.495" ry="6.511"/>
	<g>
		<path fill="#FFFFFF" d="M497.342,479.305c4.057,17.238,25.749,50.921,46.029,57.711c2.576,0.862,6.939,2.481,19.046,1.323
			c0,0,2.293,0.532,2.822-3.086c0,0,0,0,0.882-8.289c0,0,2.293-3.174,9.699,3.351c0,0,7.23,5.643,10.934,7.76
			c0,0,10.581,1.94,24.689-0.353c0,0,2.469-0.705,2.822-3.351c0,0,0.529-1.499-2.469-4.762c0,0-11.11-12.521-16.048-16.401
			c0,0-1.763-1.234-0.176-2.822c0,0,10.758-12.609,16.136-24.425c0,0,2.435-5.207,2.557-8.906c0,0-0.441-1.058-2.645-1.411
			c-3.961-0.634-13.05-2.293-22.044,0c-1.988,0.507-2.459,2.141-4.409,5.996c-2.955,5.842-9.277,17.47-11.109,20.489
			c0,0-1.745,3.473-4.85,3.583c-0.597,0.021-3.792-0.762-4.497-4.673c0,0,0.176-19.751-0.265-20.81c0,0-0.994-3.439-3.904-3.703
			c0,0-10.469-1.94-19.904-0.088c0,0-2.204,0.088-3.527,2.028c0,0-0.617,1.234,1.499,1.94c0,0,2.116-0.088,2.645,1.146
			c0,0,0.308,15.172-1.411,20.104c0,0-0.617,2.557-1.94,2.91c0,0-1.499,0.088-2.557-1.411c0,0-11.727-20.369-13.667-24.248
			c0,0-1.571-1.943-3.351-2.469c0,0-16.869-2.525-19.928-0.176C497.762,476.753,497.157,478.521,497.342,479.305z"/>
	</g>
</g>
</svg>
