<?xml version="1.0" encoding="utf-8"?>
<!-- Generator: Adobe Illustrator 17.0.0, SVG Export Plug-In . SVG Version: 6.00 Build 0)  -->
<!DOCTYPE svg PUBLIC "-//W3C//DTD SVG 1.1//EN" "http://www.w3.org/Graphics/SVG/1.1/DTD/svg11.dtd">
<svg version="1.1" id="Layer_1" xmlns="http://www.w3.org/2000/svg" xmlns:xlink="http://www.w3.org/1999/xlink" x="0px" y="0px"
	 width="1000px" height="1000px" viewBox="0 0 1000 1000" enable-background="new 0 0 1000 1000" xml:space="preserve">
<path fill="none" stroke="#707070" stroke-width="35" stroke-miterlimit="10" d="M205,334.945V670H96.532
	c0,0-40.977-7.104-43.387-42.622c-2.41-35.518,0-248.627,0-248.627s7.231-39.07,42.182-43.806
	C128.777,330.412,205,334.945,205,334.945z"/>
<path fill="none" stroke="#707070" stroke-width="35" stroke-miterlimit="10" d="M253.874,681.878V324.781L514.766,59.752
	c0,0,45.154-30.103,67.732,16.306c22.577,46.409,10.034,856.678,10.034,856.678s-22.577,47.663-77.766,18.814L253.874,681.878z"/>
<path fill="#707070" d="M782.982,248.346c84.589,53.282,140.681,147.605,140.681,254.972c0,108.671-57.396,203.897-143.691,256.878
	l22.075,32.812c98.938-57.798,165.466-165.165,165.466-287.984c0-122.017-65.624-228.782-163.459-286.78L782.982,248.346z"/>
<path fill="#707070" d="M721.355,337.167c54.631,34.412,90.858,95.33,90.858,164.672c0,70.185-37.069,131.686-92.802,165.903
	l14.257,21.192c63.899-37.328,106.865-106.671,106.865-185.993c0-78.804-42.383-147.758-105.569-185.216L721.355,337.167z"/>
<path fill="#707070" d="M655.097,428.786c25.555,16.097,42.5,44.591,42.5,77.027c0,32.83-17.339,61.597-43.409,77.603l6.669,9.913
	c29.889-17.461,49.987-49.896,49.987-87c0-36.861-19.825-69.115-49.381-86.637L655.097,428.786z"/>
</svg>
