<?xml version="1.0" encoding="utf-8"?>
<!-- Generator: Adobe Illustrator 17.0.0, SVG Export Plug-In . SVG Version: 6.00 Build 0)  -->
<!DOCTYPE svg PUBLIC "-//W3C//DTD SVG 1.1//EN" "http://www.w3.org/Graphics/SVG/1.1/DTD/svg11.dtd">
<svg version="1.1" id="Layer_1" xmlns="http://www.w3.org/2000/svg" xmlns:xlink="http://www.w3.org/1999/xlink" x="0px" y="0px"
	 width="1000px" height="1000px" viewBox="0 0 1000 1000" enable-background="new 0 0 1000 1000" xml:space="preserve">
<ellipse fill="none" stroke="#000000" stroke-width="40" stroke-miterlimit="10" cx="502.916" cy="502.489" rx="458.833" ry="461.365"/>
<path fill="none" stroke="#000000" stroke-width="40" stroke-miterlimit="10" d="M821.782,838.348
	c0,0-166.207-65.395-220.187-106.04c0,0-16.002-44.059-10.028-102.733c0,0,60.701-53.98,56.647-94.625
	c0,0,34.031,5.974,42.672-36.058c0,0,14.082-59.954-34.564-54.62c0,0,17.922-52.7,11.948-167.381c0,0,1.891-68.243-82.037-88.651
	c0,0-37.125-10.668-83.317-10.455c-30.909-1.226-78.759,10.665-78.759,10.665c-77.147,16.642-82.037,104.653-82.037,104.653
	c-5.974,114.681,11.948,151.379,11.948,151.379c-48.646-5.334-34.564,54.62-34.564,54.62c8.641,42.032,42.672,36.058,42.672,36.058
	c-4.054,40.645,56.647,94.625,56.647,94.625c5.974,58.674-10.028,102.733-10.028,102.733
	c-53.98,40.645-220.187,106.04-220.187,106.04"/>
</svg>
