<?xml version="1.0" encoding="utf-8"?>
<!-- Generator: Adobe Illustrator 17.0.0, SVG Export Plug-In . SVG Version: 6.00 Build 0)  -->
<!DOCTYPE svg PUBLIC "-//W3C//DTD SVG 1.1//EN" "http://www.w3.org/Graphics/SVG/1.1/DTD/svg11.dtd">
<svg version="1.1" id="Layer_1" xmlns="http://www.w3.org/2000/svg" xmlns:xlink="http://www.w3.org/1999/xlink" x="0px" y="0px"
	 width="1000px" height="1000px" viewBox="0 0 1000 1000" enable-background="new 0 0 1000 1000" xml:space="preserve">
<g>
	<circle fill="#15C9CB" cx="505.427" cy="503.48" r="453.813"/>
	<path fill="#FFFFFF" d="M209.73,398.487c18.983,80.652,120.472,238.249,215.36,270.016c12.052,4.035,32.468,11.608,89.112,6.188
		c0,0,10.727,2.487,13.202-14.44c0,0,0,0,4.126-38.78c0,0,10.726-14.852,45.381,15.677c0,0,33.83,26.404,51.157,36.305
		c0,0,49.507,9.076,115.516-1.65c0,0,11.552-3.3,13.202-15.677c0,0,2.475-7.013-11.552-22.278c0,0-51.982-58.583-75.085-76.736
		c0,0-8.251-5.776-0.825-13.202c0,0,50.332-58.996,75.498-114.278c0,0,11.395-24.365,11.964-41.668c0,0-2.063-4.951-12.377-6.601
		c-18.532-2.965-61.058-10.727-103.139,0c-9.301,2.371-11.506,10.018-20.628,28.054c-13.825,27.335-43.404,81.74-51.979,95.863
		c0,0-8.163,16.25-22.694,16.765c-2.792,0.099-17.74-3.563-21.04-21.866c0,0,0.825-92.413-1.238-97.363
		c0,0-4.651-16.09-18.265-17.327c0,0-48.982-9.076-93.125-0.413c0,0-10.314,0.413-16.502,9.489c0,0-2.888,5.776,7.013,9.076
		c0,0,9.901-0.413,12.377,5.363c0,0,1.439,70.985-6.601,94.063c0,0-2.888,11.964-9.076,13.614c0,0-7.013,0.413-11.964-6.601
		c0,0-54.87-95.301-63.946-113.453c0,0-7.35-9.089-15.677-11.552c0,0-78.926-11.815-93.238-0.825
		C211.697,386.546,208.867,394.819,209.73,398.487z"/>
</g>
</svg>
