<?xml version="1.0" encoding="utf-8"?>
<!-- Generator: Adobe Illustrator 17.0.0, SVG Export Plug-In . SVG Version: 6.00 Build 0)  -->
<!DOCTYPE svg PUBLIC "-//W3C//DTD SVG 1.1//EN" "http://www.w3.org/Graphics/SVG/1.1/DTD/svg11.dtd">
<svg version="1.1" id="Layer_1" xmlns="http://www.w3.org/2000/svg" xmlns:xlink="http://www.w3.org/1999/xlink" x="0px" y="0px"
	 width="1000px" height="1000px" viewBox="0 0 1000 1000" enable-background="new 0 0 1000 1000" xml:space="preserve">
<rect x="273.692" y="516.425" fill="#7FC8F0" width="450.55" height="83.156"/>
<rect x="501.538" y="516.425" fill="#49BBED" width="222.703" height="83.156"/>
<path fill="#FFA91D" d="M810.882,297.27l-86.739,243.92H273.761l-86.739-243.92c-4.359-12.216-0.909-25.673,8.783-34.289
	c9.675-8.618,23.443-10.482,35.065-4.771l132.337,65.145l105.708-150.993c6.852-9.79,18.077-15.65,30.03-15.65
	c0.875,0,1.734,0.034,2.591,0.099c10.995,0.776,21.099,6.473,27.455,15.551l105.69,150.993l132.353-65.145
	c11.622-5.713,25.391-3.848,35.065,4.771C811.789,271.598,815.239,285.053,810.882,297.27z"/>
<g>
	<path fill="#7FC8F0" d="M540.63,131.19c0,22.089-17.301,40.15-39.094,41.371c-0.776,0.05-1.551,0.066-2.345,0.066
		c-22.899,0-41.454-18.556-41.454-41.438s18.556-41.438,41.454-41.438c0.793,0,1.569,0.016,2.345,0.066
		C523.327,91.04,540.63,109.101,540.63,131.19z"/>
	<circle fill="#7FC8F0" cx="175.656" cy="239.353" r="41.438"/>
</g>
<circle fill="#49BBED" cx="824.344" cy="245.954" r="41.438"/>
<path fill="#FF8900" d="M724.144,541.191H501.536V156.811c10.995,0.776,21.099,6.473,27.455,15.551l105.69,150.993l132.353-65.145
	c11.622-5.713,25.391-3.848,35.065,4.771c9.692,8.618,13.141,22.073,8.783,34.289L724.144,541.191z"/>
<path fill="#49BBED" d="M501.534,172.561V89.817c21.793,1.221,39.094,19.282,39.094,41.371
	C540.63,153.279,523.327,171.34,501.534,172.561z"/>
<rect x="161.185" y="578.631" fill="#E70020" width="677.628" height="331.619"/>
<g>
	<path fill="#FFFFFF" d="M462.343,673.693l-38.977,114.291L407.6,746.168l26.052-72.26H400.37l-15.766,49.709l-15.766-49.709H335.77
		l25.623,72.26l-15.32,41.817l-39.209-114.291h-38.961l61.959,155.465h30.229l24.516-60.885l24.748,60.885h29.998l62.19-155.465
		H462.343z"/>
	<path fill="#FFFFFF" d="M515.106,673.693v155.465h35.922V673.693H515.106z"/>
	<path fill="#FFFFFF" d="M681.302,673.693v91.296l-72.475-91.296h-28.033v155.465h35.924v-88.902l71.601,88.902h28.908V673.693
		H681.302z"/>
</g>
<rect x="501.538" y="578.631" fill="#990013" width="337.276" height="331.619"/>
<g>
	<rect x="515.111" y="673.687" fill="#E1E1E4" width="35.922" height="155.465"/>
	<polygon fill="#E1E1E4" points="681.302,673.693 717.226,673.693 717.226,829.159 688.318,829.159 616.718,740.256 
		616.718,829.159 580.796,829.159 580.796,673.693 608.827,673.693 681.302,764.987 	"/>
</g>
</svg>
