<?xml version="1.0" encoding="utf-8"?>
<!-- Generator: Adobe Illustrator 17.0.0, SVG Export Plug-In . SVG Version: 6.00 Build 0)  -->
<!DOCTYPE svg PUBLIC "-//W3C//DTD SVG 1.1//EN" "http://www.w3.org/Graphics/SVG/1.1/DTD/svg11.dtd">
<svg version="1.1" id="Layer_1" xmlns="http://www.w3.org/2000/svg" xmlns:xlink="http://www.w3.org/1999/xlink" x="0px" y="0px"
	 width="1000px" height="1000px" viewBox="0 0 1000 1000" enable-background="new 0 0 1000 1000" xml:space="preserve">
<g>
	<path fill="#47821C" d="M2.695,607.994c5.506-11.682,18.23-18.135,30.908-15.676c65.367,12.674,134.861,45.109,206.551,96.408
		c56.225,40.23,114.117,92.217,172.07,154.514c0.459,0.494,0.91,0.984,1.367,1.479h-195.91
		c-19.297-21.416-37.68-41.018-54.551-58.498C77.424,697.432,10.932,642.355,10.271,641.812
		C0.311,633.598-2.809,619.674,2.695,607.994z"/>
	<path fill="#4E901E" d="M47.914,398.332c7.816-10.279,21.605-13.945,33.494-8.902c61.301,25.998,122.525,72.184,181.971,137.275
		c46.623,51.049,92.43,113.943,136.152,186.936c28.516,47.605,52.283,92.992,70.84,131.078H297.414
		c-43.225-93.717-91.09-176.898-129.662-238.68C102.396,501.359,48.816,433.654,48.285,432.986
		C40.256,422.879,40.1,408.609,47.914,398.332z"/>
	<path fill="#5EAC24" d="M157.373,238.684c9.553-8.689,23.777-9.791,34.553-2.674c55.561,36.695,107.381,93.229,154.025,168.033
		c36.58,58.666,70.209,128.83,99.951,208.547c37.959,101.74,59.602,191.844,68.346,232.127H348.059
		c-25.865-147.004-73.311-285.582-110.545-380.02c-45.264-114.807-85.662-191.115-86.061-191.867
		C145.385,261.434,147.822,247.371,157.373,238.684z"/>
	<path fill="#6DC82A" d="M399.773,844.549c0.004-1,0.059-1.986,0.164-2.957c9.666-166.701-11.557-334.217-31.096-445.52
		c-21.316-121.438-45.314-204.168-45.553-204.986c-3.615-12.361,1.383-25.674,12.141-32.328c10.76-6.656,24.529-4.957,33.447,4.129
		c45.986,46.844,84.635,112.412,114.871,194.885c23.715,64.682,42.428,140.064,55.621,224.057
		c22.094,140.65,21.219,256.17,21.137,263.455L399.773,844.549z"/>
	<path fill="#4E901E" d="M997.305,607.994c-5.506-11.682-18.23-18.135-30.908-15.676c-65.367,12.674-134.861,45.109-206.551,96.408
		c-56.225,40.23-114.117,92.217-172.07,154.514c-0.459,0.494-0.91,0.984-1.367,1.479h195.91
		c19.295-21.416,37.68-41.018,54.551-58.498c85.707-88.789,152.199-143.865,152.859-144.408
		C999.689,633.598,1002.809,619.674,997.305,607.994z"/>
	<path fill="#5EAC24" d="M952.086,398.332c-7.816-10.279-21.606-13.945-33.494-8.902c-61.301,25.998-122.525,72.184-181.971,137.275
		c-46.623,51.049-92.43,113.943-136.152,186.936c-28.516,47.605-52.283,92.992-70.842,131.078h172.957
		c43.225-93.717,91.09-176.898,129.662-238.68c65.355-104.68,118.935-172.385,119.467-173.053
		C959.744,422.879,959.9,408.609,952.086,398.332z"/>
	<path fill="#6DC82A" d="M842.627,238.684c-9.553-8.689-23.777-9.791-34.553-2.674c-55.56,36.695-107.381,93.229-154.025,168.033
		c-36.58,58.666-70.209,128.83-99.951,208.547c-37.959,101.74-59.602,191.844-68.346,232.127h166.189
		c25.865-147.004,73.311-285.582,110.545-380.02c45.264-114.807,85.662-191.115,86.061-191.867
		C854.617,261.434,852.178,247.371,842.627,238.684z"/>
	<path fill="#91DC5A" d="M603.271,844.717c0-1-0.053-1.986-0.152-2.957c-9.156-166.744,13.465-334.16,34.09-445.373
		c22.502-121.338,47.58-203.957,47.828-204.773c3.777-12.346-1.305-25.68-12.336-32.383c-11.037-6.707-25.211-5.07-34.426,3.975
		c-47.529,46.633-87.598,112.021-119.092,194.359c-24.701,64.572-44.309,139.869-58.275,223.801
		c-23.393,140.549-23.035,256.07-22.988,263.355h165.353v-0.004H603.271z"/>
	<g>
		<path fill="#47821C" d="M234.693,844.717H95.238c-8.453,0-15.307-6.852-15.307-15.307c0-8.455,6.854-15.307,15.307-15.307h139.455
			c8.453,0,15.307,6.852,15.307,15.307C250,837.865,243.146,844.717,234.693,844.717z"/>
		<path fill="#47821C" d="M42.857,844.717H16.326c-8.453,0-15.307-6.852-15.307-15.307c0-8.455,6.854-15.307,15.307-15.307h26.531
			c8.453,0,15.307,6.852,15.307,15.307C58.164,837.865,51.311,844.717,42.857,844.717z"/>
	</g>
	<g>
		<path fill="#4E901E" d="M868.027,844.717H755.103c-8.455,0-15.307-6.852-15.307-15.307c0-8.455,6.852-15.307,15.307-15.307
			h112.924c8.455,0,15.307,6.852,15.307,15.307C883.334,837.865,876.482,844.717,868.027,844.717z"/>
		<path fill="#4E901E" d="M982.332,844.717h-59.883c-8.455,0-15.307-6.852-15.307-15.307c0-8.455,6.852-15.307,15.307-15.307h59.883
			c8.455,0,15.307,6.852,15.307,15.307C997.639,837.865,990.785,844.717,982.332,844.717z"/>
	</g>
	<g>
		<path fill="#5EAC24" d="M529.623,783.957c-8.291,0-15.104-6.623-15.295-14.953c-1.195-51.873,1.422-107.389,7.785-165.002
			c0.928-8.398,8.494-14.443,16.895-13.535c8.402,0.928,14.461,8.492,13.535,16.895c-6.217,56.27-8.777,110.416-7.609,160.936
			c0.195,8.451-6.498,15.459-14.949,15.654C529.861,783.955,529.74,783.957,529.623,783.957z"/>
		<path fill="#5EAC24" d="M546.418,553.566c-0.799,0-1.605-0.061-2.42-0.191c-8.35-1.324-14.041-9.17-12.715-17.518
			c7.287-45.885,14.074-74.35,14.359-75.539c1.973-8.219,10.234-13.277,18.451-11.313c8.219,1.971,13.285,10.232,11.316,18.451
			c-0.064,0.281-6.811,28.604-13.895,73.201C560.32,548.193,553.814,553.566,546.418,553.566z"/>
	</g>
</g>
</svg>
