<?xml version="1.0" encoding="utf-8"?>
<!-- Generator: Adobe Illustrator 17.0.0, SVG Export Plug-In . SVG Version: 6.00 Build 0)  -->
<!DOCTYPE svg PUBLIC "-//W3C//DTD SVG 1.1//EN" "http://www.w3.org/Graphics/SVG/1.1/DTD/svg11.dtd">
<svg version="1.1" id="Layer_1" xmlns="http://www.w3.org/2000/svg" xmlns:xlink="http://www.w3.org/1999/xlink" x="0px" y="0px"
	 width="512px" height="512px" viewBox="0 0 512 512" enable-background="new 0 0 512 512" xml:space="preserve">
<g id="XMLID_2409_">
	<g id="XMLID_10577_">
		<g id="XMLID_13980_">
			<g id="XMLID_13966_">
				<polygon id="XMLID_13063_" fill="#FFD387" points="236.301,338.438 225.228,369.244 223.991,372.704 197.048,447.711 
					186.447,477.229 165.427,469.686 173.322,447.711 202.177,367.384 203.333,364.155 215.282,330.886 				"/>
				<path id="XMLID_13041_" fill="#F9BA3D" d="M215.282,330.886l21.02,7.553l-11.073,30.806c-7.442-1.257-14.744-2.957-21.895-5.089
					L215.282,330.886z"/>
				<polygon id="XMLID_13977_" fill="#F9BA3D" points="173.32,447.71 197.05,447.71 186.448,477.233 165.427,469.685 				"/>
				<polygon id="XMLID_13053_" fill="#FFD387" points="346.479,469.686 325.459,477.229 314.859,447.711 287.916,372.704 
					286.668,369.234 275.605,338.438 296.625,330.886 308.553,364.115 309.73,367.384 338.584,447.711 				"/>
				<path id="XMLID_13046_" fill="#F9BA3D" d="M308.553,364.115c-7.201,2.172-14.503,3.872-21.885,5.119l-11.063-30.796l21.02-7.553
					L308.553,364.115z"/>
				<polygon id="XMLID_13967_" fill="#F9BA3D" points="346.48,469.685 325.459,477.233 314.857,447.71 338.587,447.71 				"/>
			</g>
			<rect id="XMLID_13953_" x="134.354" y="460.895" fill="#F2A212" width="243.199" height="26.615"/>
			<rect id="XMLID_13950_" x="120.941" y="482.693" fill="#FFD387" width="270.025" height="21.807"/>
		</g>
		<g id="XMLID_13900_">
			<g id="XMLID_13872_">
				<path id="XMLID_14107_" fill="#A4BEBD" d="M322.763,345.11c-86.93,36.89-187.3-3.66-224.19-90.58
					c-36.9-86.92,3.65-187.3,90.57-224.19c10.75-4.57,21.71-7.95,32.74-10.2c22.89-4.68,46.03-4.5,68.13,0.02
					c53.28,10.88,100.47,46.93,123.32,100.76C450.233,207.84,409.683,308.21,322.763,345.11z"/>
				<path id="XMLID_14105_" fill="#708C8A" d="M290.013,20.16L267.48,98.099c-3.341,11.556-19.714,11.556-23.056,0L221.883,20.14
					C244.773,15.46,267.913,15.64,290.013,20.16z"/>
				<path id="XMLID_10599_" fill="#708C8A" d="M256.018,343.883c-62.804,0-119.24-37.353-143.777-95.159
					c-16.294-38.387-16.665-80.821-1.043-119.486c15.622-38.666,45.366-68.934,83.753-85.229
					c19.459-8.26,39.962-12.448,60.938-12.448c62.804,0,119.24,37.353,143.777,95.159c16.294,38.387,16.665,80.821,1.043,119.487
					s-45.366,68.934-83.753,85.228C297.497,339.694,276.994,343.883,256.018,343.883z"/>
				<circle id="XMLID_13354_" fill="#FFEED3" cx="255.953" cy="187.722" r="143.124"/>
				<path id="XMLID_12835_" fill="#F13D2F" d="M388.646,241.333l-132.693-53.611l131.748-55.924
					C403.141,168.172,402.371,207.362,388.646,241.333z"/>
				<path id="XMLID_1_" fill="#F13D2F" d="M312.18,319.239l-56.178-131.627l132.809,53.355
					C374.081,277.634,345.878,304.857,312.18,319.239z"/>
				<path id="XMLID_2_" fill="#F13D2F" d="M202.736,320.174l53.35-132.798l56.183,131.638
					C275.925,334.525,236.734,333.832,202.736,320.174z"/>
				<path id="XMLID_14136_" fill="#50D2DF" d="M309.563,55.02v0.01l-53.61,132.69l-55.92-131.75c9.72-4.12,19.65-7.09,29.62-8.97
					c17.66-3.32,35.48-3.2,52.59,0.02C291.613,48.78,300.763,51.46,309.563,55.02z"/>
				<path id="XMLID_14132_" fill="#3CBBD0" d="M282.243,47.02l-14.76,51.08c-3.34,11.55-19.72,11.55-23.06,0L229.653,47
					C247.313,43.68,265.133,43.8,282.243,47.02z"/>
				<polygon id="XMLID_13876_" fill="#E95003" points="231.765,7.5 255.953,91.166 280.142,7.5 				"/>
				<path id="XMLID_3_" fill="#50D2DF" d="M387.778,131.797l-0.007,0.007l-131.734,55.918l53.62-132.703
					c9.786,3.96,18.908,8.881,27.287,14.602c14.835,10.14,27.351,22.825,37.173,37.201
					C379.497,114.692,384.072,123.057,387.778,131.797z"/>
				<path id="XMLID_4_" fill="#50D2DF" d="M199.849,55.5l0.007,0.007l55.918,131.734l-132.703-53.62
					c3.96-9.786,8.881-18.908,14.602-27.287c10.14-14.835,22.825-27.351,37.201-37.173C182.744,63.78,191.109,59.205,199.849,55.5z"
					/>
				<path id="XMLID_12841_" fill="#F9BA3D" d="M255.953,187.722l-131.748,55.924c-15.444-36.383-14.674-75.573-0.958-109.54
					L255.953,187.722z"/>
				<path id="XMLID_12843_" fill="#F9BA3D" d="M202.182,320.269l-0.009-0.004c-36.638-14.803-63.814-43.062-78.125-76.776
					l131.75-55.924L202.182,320.269z"/>
			</g>
		</g>
	</g>
</g>
</svg>
