<?xml version="1.0" encoding="utf-8"?>
<!-- Generator: Adobe Illustrator 17.0.0, SVG Export Plug-In . SVG Version: 6.00 Build 0)  -->
<!DOCTYPE svg PUBLIC "-//W3C//DTD SVG 1.1//EN" "http://www.w3.org/Graphics/SVG/1.1/DTD/svg11.dtd">
<svg version="1.1" id="Layer_1" xmlns="http://www.w3.org/2000/svg" xmlns:xlink="http://www.w3.org/1999/xlink" x="0px" y="0px"
	 width="750px" height="968px" viewBox="0 0 750 968" enable-background="new 0 0 750 968" xml:space="preserve">
<g>
	<path fill="#FFFFFF" stroke="#FFFFFF" stroke-width="18" stroke-miterlimit="10" d="M36.098,14h677.225
		c0,0,21.938-0.335,21.499,21.164c-0.548,26.868,0,894.277,0,894.277S735.261,953,713.323,953H36.098
		c0,0-22.098-3.109-22.098-25.955V34.828C14,34.828,12.48,14,36.098,14z"/>
	<g>
		<path d="M201.494,217.241c-2.637,3.188-7.513,6.888-10.55,8.369c-9.424,4.597-15.635,3.171-20.693,1.993
			c-24.659-5.744-24.142-27.3-24.142-27.3c-1.014-19.785,11.057-33.372,19.679-40.851c8.364-7.255,35.706-26.304,35.706-26.304
			s27.301,19.049,35.653,26.304c8.609,7.479,20.662,21.066,19.65,40.851c0,0,0.516,21.556-24.106,27.3
			c-5.05,1.178-11.253,2.605-20.662-1.993C208.996,224.129,204.128,220.43,201.494,217.241z"/>
		<path d="M210.642,214.356c1.75,16.081,8.014,36.661,8.014,36.661h-34.408c0,0,7.282-23.722,8.523-35.675"/>
	</g>
	<g>
		<path d="M547.167,217.241c-2.637,3.188-7.513,6.888-10.549,8.369c-9.424,4.597-15.635,3.171-20.693,1.993
			c-24.659-5.744-24.142-27.3-24.142-27.3c-1.014-19.785,11.057-33.372,19.679-40.851c8.364-7.255,35.706-26.304,35.706-26.304
			s27.302,19.049,35.653,26.304c8.609,7.479,20.662,21.066,19.65,40.851c0,0,0.516,21.556-24.106,27.3
			c-5.05,1.178-11.253,2.605-20.662-1.993C554.669,224.129,549.801,220.43,547.167,217.241z"/>
		<path d="M556.315,214.356c1.75,16.081,8.014,36.661,8.014,36.661h-34.408c0,0,7.282-23.722,8.523-35.675"/>
	</g>
	<g>
		<path d="M547.295,749.154c2.637-3.188,7.513-6.888,10.549-8.37c9.424-4.597,15.635-3.171,20.693-1.993
			c24.659,5.744,24.142,27.3,24.142,27.3c1.014,19.785-11.057,33.372-19.679,40.851c-8.364,7.255-35.706,26.304-35.706,26.304
			s-27.302-19.049-35.653-26.304c-8.609-7.479-20.662-21.066-19.65-40.851c0,0-0.516-21.556,24.106-27.3
			c5.05-1.178,11.253-2.605,20.662,1.993C539.793,742.266,544.661,745.966,547.295,749.154z"/>
		<path d="M538.146,752.039c-1.75-16.081-8.014-36.661-8.014-36.661h34.408c0,0-7.282,23.722-8.523,35.675"/>
	</g>
	<g>
		<path d="M202.622,749.154c2.637-3.188,7.513-6.888,10.55-8.37c9.424-4.597,15.635-3.171,20.693-1.993
			c24.659,5.744,24.142,27.3,24.142,27.3c1.014,19.785-11.057,33.372-19.679,40.851c-8.364,7.255-35.706,26.304-35.706,26.304
			s-27.301-19.049-35.653-26.304c-8.609-7.479-20.662-21.066-19.65-40.851c0,0-0.516-21.556,24.106-27.3
			c5.05-1.178,11.253-2.605,20.662,1.993C195.12,742.266,199.988,745.966,202.622,749.154z"/>
		<path d="M193.474,752.039c-1.75-16.081-8.014-36.661-8.014-36.661h34.408c0,0-7.282,23.722-8.523,35.675"/>
	</g>
	<g>
		<path d="M199.966,415.138c-2.637,3.188-7.513,6.888-10.55,8.369c-9.424,4.597-15.635,3.171-20.693,1.993
			c-24.659-5.744-24.142-27.3-24.142-27.3c-1.014-19.785,11.057-33.372,19.679-40.851c8.364-7.255,35.706-26.304,35.706-26.304
			s27.301,19.049,35.653,26.304c8.609,7.479,20.662,21.066,19.65,40.851c0,0,0.516,21.556-24.106,27.3
			c-5.05,1.178-11.253,2.605-20.662-1.993C207.468,422.027,202.599,418.327,199.966,415.138z"/>
		<path d="M209.114,412.253c1.75,16.081,8.014,36.661,8.014,36.661h-34.408c0,0,7.282-23.722,8.523-35.675"/>
	</g>
	<g>
		<path d="M545.639,415.138c-2.637,3.188-7.513,6.888-10.55,8.369c-9.424,4.597-15.635,3.171-20.693,1.993
			c-24.659-5.744-24.142-27.3-24.142-27.3c-1.014-19.785,11.057-33.372,19.679-40.851c8.364-7.255,35.706-26.304,35.706-26.304
			s27.301,19.049,35.653,26.304c8.609,7.479,20.662,21.066,19.65,40.851c0,0,0.516,21.556-24.106,27.3
			c-5.05,1.178-11.253,2.605-20.662-1.993C553.141,422.027,548.272,418.327,545.639,415.138z"/>
		<path d="M554.787,412.253c1.75,16.081,8.014,36.661,8.014,36.661h-34.408c0,0,7.282-23.722,8.523-35.675"/>
	</g>
	<g>
		<path d="M544.795,558.821c2.637-3.188,7.513-6.888,10.549-8.37c9.424-4.597,15.635-3.171,20.693-1.993
			c24.659,5.744,24.142,27.3,24.142,27.3c1.014,19.785-11.057,33.372-19.679,40.851c-8.364,7.255-35.706,26.304-35.706,26.304
			s-27.302-19.049-35.653-26.304c-8.609-7.479-20.662-21.066-19.65-40.851c0,0-0.516-21.556,24.106-27.3
			c5.05-1.178,11.253-2.605,20.662,1.993C537.293,551.932,542.161,555.632,544.795,558.821z"/>
		<path d="M535.647,561.706c-1.75-16.081-8.014-36.661-8.014-36.661h34.408c0,0-7.282,23.722-8.523,35.675"/>
	</g>
	<g>
		<path d="M200.122,558.821c2.637-3.188,7.513-6.888,10.55-8.37c9.424-4.597,15.635-3.171,20.693-1.993
			c24.659,5.744,24.142,27.3,24.142,27.3c1.014,19.785-11.057,33.372-19.679,40.851c-8.364,7.255-35.706,26.304-35.706,26.304
			s-27.301-19.049-35.653-26.304c-8.609-7.479-20.662-21.066-19.65-40.851c0,0-0.516-21.556,24.106-27.3
			c5.05-1.178,11.253-2.605,20.662,1.993C192.62,551.932,197.489,555.632,200.122,558.821z"/>
		<path d="M190.974,561.706c-1.75-16.081-8.014-36.661-8.014-36.661h34.408c0,0-7.282,23.722-8.523,35.675"/>
	</g>
	<g>
		<path d="M380.139,317.321c-2.637,3.188-7.513,6.888-10.55,8.369c-9.424,4.597-15.635,3.171-20.693,1.993
			c-24.659-5.744-24.142-27.3-24.142-27.3c-1.014-19.785,11.057-33.372,19.679-40.851c8.364-7.255,35.706-26.304,35.706-26.304
			s27.301,19.049,35.653,26.304c8.609,7.479,20.662,21.066,19.65,40.851c0,0,0.516,21.556-24.106,27.3
			c-5.05,1.178-11.253,2.605-20.662-1.993C387.641,324.209,382.772,320.509,380.139,317.321z"/>
		<path d="M389.287,314.436c1.75,16.081,8.014,36.661,8.014,36.661h-34.408c0,0,7.282-23.722,8.523-35.675"/>
	</g>
	<g>
		<path d="M380.056,628.399c2.637-3.188,7.513-6.888,10.55-8.37c9.424-4.597,15.635-3.171,20.693-1.993
			c24.659,5.744,24.142,27.3,24.142,27.3c1.014,19.785-11.057,33.372-19.679,40.851c-8.364,7.255-35.706,26.304-35.706,26.304
			s-27.301-19.049-35.653-26.304c-8.609-7.479-20.662-21.066-19.65-40.851c0,0-0.516-21.556,24.106-27.3
			c5.05-1.178,11.253-2.605,20.662,1.993C372.554,621.511,377.422,625.211,380.056,628.399z"/>
		<path d="M370.908,631.284c-1.75-16.081-8.014-36.661-8.014-36.661h34.408c0,0-7.282,23.722-8.523,35.675"/>
	</g>
	<g>
		<polygon points="41,75.583 38.333,65.542 59.833,54 71,54 71,152 58,152 58.167,66.5 		"/>
		<path d="M154.5,82.67c-1.5-6-7-30.67-31.33-30.17C98.83,53,92.31,82.67,92.31,82.67c-7.52,40.16,7.64,58.7,7.64,58.7
			c14.05,18.46,38.05,14.46,48.88-3.7C159.67,119.5,156,88.67,154.5,82.67z M138.65,130.79c-6.53,14.56-20.99,17.77-29.46,2.96
			c0,0-9.14-14.86-4.61-47.06c0,0,3.93-23.79,18.6-24.19c14.67-0.4,17.98,19.38,18.89,24.19
			C142.97,91.5,145.18,116.22,138.65,130.79z"/>
	</g>
	<g>
		<polygon points="712.657,881.312 715.324,891.406 693.824,903 683,903 683,805 695.657,805 695.491,890.448 		"/>
		<path d="M599.157,874.226c1.5,6,7,30.67,31.33,30.17c24.34-0.5,30.86-30.17,30.86-30.17c7.52-40.16-7.64-58.7-7.64-58.7
			c-14.05-18.46-38.05-14.46-48.88,3.7C593.987,837.396,597.657,868.226,599.157,874.226z M615.007,826.106
			c6.53-14.56,20.99-17.77,29.46-2.96c0,0,9.14,14.86,4.61,47.06c0,0-3.93,23.79-18.6,24.19c-14.67,0.4-17.98-19.38-18.89-24.19
			C610.687,865.396,608.477,840.676,615.007,826.106z"/>
	</g>
</g>
</svg>
