<?xml version="1.0" encoding="utf-8"?>
<!-- Generator: Adobe Illustrator 17.0.0, SVG Export Plug-In . SVG Version: 6.00 Build 0)  -->
<!DOCTYPE svg PUBLIC "-//W3C//DTD SVG 1.1//EN" "http://www.w3.org/Graphics/SVG/1.1/DTD/svg11.dtd">
<svg version="1.1" id="Layer_1" xmlns="http://www.w3.org/2000/svg" xmlns:xlink="http://www.w3.org/1999/xlink" x="0px" y="0px"
	 width="750px" height="968px" viewBox="0 0 750 968" enable-background="new 0 0 750 968" xml:space="preserve">
<g>
	<path fill="#FFFFFF" stroke="#FFFFFF" stroke-width="18" stroke-miterlimit="10" d="M36.098,14h677.225
		c0,0,21.938-0.335,21.499,21.164c-0.548,26.868,0,894.277,0,894.277S735.261,953,713.323,953H36.098
		c0,0-22.098-3.109-22.098-25.955V34.828C14,34.828,12.48,14,36.098,14z"/>
	<path fill="#FF0000" d="M211.919,150.465c3.102-3.812,8.837-8.236,12.409-10.008c11.085-5.497,18.391-3.792,24.34-2.383
		c29.005,6.869,28.397,32.644,28.397,32.644c1.193,23.657-13.006,39.904-23.147,48.847c-9.838,8.675-41.999,31.452-41.999,31.452
		s-32.113-22.778-41.937-31.452c-10.126-8.942-24.304-25.189-23.113-48.847c0,0-0.607-25.775,28.355-32.644
		c5.94-1.409,13.236-3.114,24.304,2.383C203.095,142.228,208.822,146.652,211.919,150.465z"/>
	<path fill="#FF0000" d="M538.077,150.465c3.102-3.812,8.837-8.236,12.409-10.008c11.085-5.497,18.391-3.792,24.34-2.383
		c29.005,6.869,28.397,32.644,28.397,32.644c1.193,23.657-13.006,39.904-23.147,48.847c-9.838,8.675-41.999,31.452-41.999,31.452
		s-32.113-22.778-41.937-31.452c-10.126-8.942-24.304-25.189-23.113-48.847c0,0-0.607-25.775,28.355-32.644
		c5.94-1.409,13.236-3.114,24.304,2.383C529.252,142.228,534.979,146.652,538.077,150.465z"/>
	<path fill="#FF0000" d="M538.877,817.691c-3.102,3.812-8.837,8.236-12.409,10.008c-11.085,5.497-18.391,3.792-24.34,2.383
		c-29.005-6.869-28.397-32.644-28.397-32.644c-1.193-23.657,13.006-39.904,23.147-48.846c9.838-8.675,41.999-31.452,41.999-31.452
		s32.113,22.778,41.937,31.452c10.126,8.942,24.304,25.189,23.113,48.846c0,0,0.607,25.775-28.355,32.644
		c-5.94,1.409-13.236,3.114-24.304-2.383C547.702,825.928,541.975,821.504,538.877,817.691z"/>
	<path fill="#FF0000" d="M211.72,817.691c-3.102,3.812-8.837,8.236-12.409,10.008c-11.085,5.497-18.391,3.792-24.34,2.383
		c-29.005-6.869-28.397-32.644-28.397-32.644c-1.193-23.657,13.006-39.904,23.147-48.846c9.838-8.675,41.999-31.452,41.999-31.452
		s32.113,22.778,41.937,31.452c10.126,8.942,24.304,25.189,23.113,48.846c0,0,0.607,25.775-28.355,32.644
		c-5.94,1.409-13.236,3.114-24.304-2.383C220.544,825.928,214.817,821.504,211.72,817.691z"/>
	<path fill="#FF0000" d="M208.623,346.34c3.102-3.812,8.837-8.236,12.409-10.008c11.085-5.497,18.391-3.792,24.34-2.383
		c29.005,6.869,28.397,32.644,28.397,32.644c1.193,23.657-13.006,39.904-23.147,48.847c-9.838,8.675-41.999,31.452-41.999,31.452
		s-32.113-22.778-41.937-31.452c-10.126-8.942-24.304-25.189-23.113-48.847c0,0-0.607-25.775,28.355-32.644
		c5.94-1.409,13.236-3.114,24.304,2.383C199.798,338.104,205.525,342.528,208.623,346.34z"/>
	<path fill="#FF0000" d="M534.78,346.34c3.102-3.812,8.837-8.236,12.409-10.008c11.085-5.497,18.391-3.792,24.34-2.383
		c29.005,6.869,28.397,32.644,28.397,32.644c1.193,23.657-13.006,39.904-23.147,48.847c-9.838,8.675-41.999,31.452-41.999,31.452
		s-32.113-22.778-41.937-31.452c-10.126-8.942-24.304-25.189-23.113-48.847c0,0-0.607-25.775,28.355-32.644
		c5.94-1.409,13.236-3.114,24.304,2.383C525.956,338.104,531.682,342.528,534.78,346.34z"/>
	<path fill="#FF0000" d="M535.904,625.238c-3.102,3.812-8.837,8.236-12.409,10.008c-11.085,5.497-18.391,3.792-24.34,2.383
		c-29.005-6.869-28.397-32.644-28.397-32.644c-1.193-23.657,13.006-39.904,23.147-48.847c9.838-8.675,41.999-31.452,41.999-31.452
		s32.113,22.778,41.937,31.452c10.126,8.942,24.304,25.189,23.113,48.847c0,0,0.607,25.775-28.355,32.644
		c-5.94,1.409-13.236,3.114-24.304-2.383C544.728,633.474,539.002,629.05,535.904,625.238z"/>
	<path fill="#FF0000" d="M208.746,625.238c-3.102,3.812-8.837,8.236-12.409,10.008c-11.085,5.497-18.391,3.792-24.34,2.383
		c-29.005-6.869-28.397-32.644-28.397-32.644c-1.193-23.657,13.006-39.904,23.147-48.847c9.838-8.675,41.999-31.452,41.999-31.452
		s32.113,22.778,41.937,31.452c10.126,8.942,24.304,25.189,23.113,48.847c0,0,0.607,25.775-28.355,32.644
		c-5.94,1.409-13.236,3.114-24.304-2.383C217.571,633.474,211.844,629.05,208.746,625.238z"/>
	<g>
		<polygon fill="#FF0000" points="39,80.583 36.333,70.542 57.833,59 69,59 69,157 56,157 56.167,71.5 		"/>
		<path fill="#FF0000" d="M152.5,87.67c-1.5-6-7-30.67-31.33-30.17C96.83,58,90.31,87.67,90.31,87.67
			c-7.52,40.16,7.64,58.7,7.64,58.7c14.05,18.46,38.05,14.46,48.88-3.7C157.67,124.5,154,93.67,152.5,87.67z M136.65,135.79
			c-6.53,14.56-20.99,17.77-29.46,2.96c0,0-9.14-14.86-4.61-47.06c0,0,3.93-23.79,18.6-24.19c14.67-0.4,17.98,19.38,18.89,24.19
			C140.97,96.5,143.18,121.22,136.65,135.79z"/>
	</g>
	<g>
		<polygon fill="#FF0000" points="710.657,886.312 713.324,896.406 691.824,908 681,908 681,810 693.657,810 693.491,895.448 		"/>
		<path fill="#FF0000" d="M597.157,879.226c1.5,6,7,30.67,31.33,30.17c24.34-0.5,30.86-30.17,30.86-30.17
			c7.52-40.16-7.64-58.7-7.64-58.7c-14.05-18.46-38.05-14.46-48.88,3.7C591.987,842.396,595.657,873.226,597.157,879.226z
			 M613.007,831.106c6.53-14.56,20.99-17.77,29.46-2.96c0,0,9.14,14.86,4.61,47.06c0,0-3.93,23.79-18.6,24.19
			c-14.67,0.4-17.98-19.38-18.89-24.19C608.687,870.396,606.477,845.676,613.007,831.106z"/>
	</g>
	<path fill="#FF0000" d="M376.451,263.968c3.102-3.812,8.837-8.236,12.409-10.008c11.085-5.497,18.391-3.792,24.34-2.383
		c29.005,6.869,28.397,32.644,28.397,32.644c1.193,23.657-13.006,39.904-23.147,48.847c-9.838,8.675-41.999,31.452-41.999,31.452
		s-32.113-22.778-41.937-31.452c-10.126-8.942-24.304-25.189-23.113-48.847c0,0-0.607-25.775,28.355-32.644
		c5.94-1.409,13.236-3.114,24.304,2.383C367.627,255.732,373.354,260.156,376.451,263.968z"/>
	<path fill="#FF0000" d="M376.549,703.031c-3.102,3.812-8.837,8.236-12.409,10.008c-11.085,5.497-18.391,3.792-24.34,2.383
		c-29.005-6.869-28.397-32.644-28.397-32.644c-1.193-23.657,13.006-39.904,23.147-48.846c9.838-8.675,41.999-31.452,41.999-31.452
		s32.113,22.778,41.937,31.452c10.126,8.942,24.304,25.189,23.113,48.846c0,0,0.607,25.775-28.355,32.644
		c-5.94,1.409-13.236,3.114-24.304-2.383C385.373,711.268,379.646,706.844,376.549,703.031z"/>
</g>
</svg>
