<?xml version="1.0" encoding="utf-8"?>
<!-- Generator: Adobe Illustrator 17.0.0, SVG Export Plug-In . SVG Version: 6.00 Build 0)  -->
<!DOCTYPE svg PUBLIC "-//W3C//DTD SVG 1.1//EN" "http://www.w3.org/Graphics/SVG/1.1/DTD/svg11.dtd">
<svg version="1.1" id="Layer_1" xmlns="http://www.w3.org/2000/svg" xmlns:xlink="http://www.w3.org/1999/xlink" x="0px" y="0px"
	 width="750px" height="968px" viewBox="0 0 750 968" enable-background="new 0 0 750 968" xml:space="preserve">
<g>
	<path fill="#FFFFFF" stroke="#FFFFFF" stroke-width="18" stroke-miterlimit="10" d="M36.098,14h677.225
		c0,0,21.938-0.335,21.499,21.164c-0.548,26.868,0,894.277,0,894.277S735.261,953,713.323,953H36.098
		c0,0-22.098-3.109-22.098-25.955V34.828C14,34.828,12.48,14,36.098,14z"/>
	<g>
		<path d="M198.542,203.014c0,0-15.993-15.993-26.887-20.629c-8.154-3.47-27.704-9.892-35.927,8.692
			c-5.795,13.096-0.135,25.525,2.781,28.857c4.867,5.562,13.743,9.418,27.37,4.867C176.29,221.325,198.542,203.014,198.542,203.014z
			"/>
		<path d="M199.099,202.625c0,0,15.993-15.993,20.629-26.887c3.47-8.154,9.892-27.704-8.692-35.927
			c-13.096-5.795-25.525-0.135-28.857,2.781c-5.562,4.867-9.418,13.743-4.867,27.37
			C180.788,180.373,199.099,202.625,199.099,202.625z"/>
		<path d="M199.489,202.235c0,0,15.993,15.993,26.887,20.629c8.154,3.47,27.704,9.892,35.927-8.692
			c5.795-13.096,0.135-25.525-2.781-28.857c-4.867-5.562-13.743-9.418-27.37-4.867C221.74,183.924,199.489,202.235,199.489,202.235z
			"/>
		<g>
			<path d="M199.484,202.625v52.421h-17.416C182.068,255.045,194.178,229.441,199.484,202.625z"/>
			<path d="M199.484,202.625v52.421h17.425C216.909,255.045,204.793,229.441,199.484,202.625z"/>
		</g>
	</g>
	<g>
		<path d="M544.171,203.466c0,0-15.993-15.993-26.887-20.629c-8.154-3.47-27.704-9.892-35.927,8.692
			c-5.795,13.096-0.135,25.525,2.781,28.857c4.867,5.562,13.743,9.418,27.37,4.867C521.92,221.777,544.171,203.466,544.171,203.466z
			"/>
		<path d="M544.728,203.076c0,0,15.993-15.993,20.629-26.887c3.47-8.154,9.892-27.704-8.692-35.927
			c-13.096-5.795-25.525-0.135-28.857,2.781c-5.562,4.867-9.419,13.743-4.867,27.37
			C526.417,180.825,544.728,203.076,544.728,203.076z"/>
		<path d="M545.118,202.686c0,0,15.993,15.993,26.887,20.629c8.154,3.47,27.704,9.892,35.927-8.692
			c5.795-13.096,0.135-25.525-2.781-28.857c-4.867-5.562-13.743-9.418-27.37-4.867C567.369,184.375,545.118,202.686,545.118,202.686
			z"/>
		<g>
			<path d="M545.113,203.076v52.421h-17.416C527.698,255.497,539.808,229.892,545.113,203.076z"/>
			<path d="M545.113,203.076v52.421h17.425C562.539,255.497,550.422,229.892,545.113,203.076z"/>
		</g>
	</g>
	<g>
		<path d="M543.727,396.758c0,0-15.993-15.993-26.887-20.629c-8.154-3.47-27.704-9.892-35.927,8.692
			c-5.795,13.096-0.135,25.525,2.781,28.857c4.867,5.562,13.743,9.418,27.37,4.867C521.475,415.069,543.727,396.758,543.727,396.758
			z"/>
		<path d="M544.284,396.369c0,0,15.993-15.993,20.629-26.887c3.47-8.154,9.892-27.704-8.692-35.927
			c-13.096-5.795-25.525-0.135-28.857,2.781c-5.562,4.867-9.418,13.743-4.867,27.37
			C525.973,374.117,544.284,396.369,544.284,396.369z"/>
		<path d="M544.674,395.979c0,0,15.993,15.993,26.887,20.629c8.154,3.47,27.704,9.892,35.927-8.692
			c5.795-13.096,0.135-25.525-2.781-28.857c-4.867-5.562-13.743-9.418-27.37-4.867C566.925,377.668,544.674,395.979,544.674,395.979
			z"/>
		<g>
			<path d="M544.669,396.369v52.421h-17.416C527.253,448.789,539.363,423.184,544.669,396.369z"/>
			<path d="M544.669,396.369v52.421h17.425C562.094,448.789,549.978,423.184,544.669,396.369z"/>
		</g>
	</g>
	<g>
		<path d="M199.763,396.758c0,0-15.993-15.993-26.887-20.629c-8.154-3.47-27.704-9.892-35.927,8.692
			c-5.795,13.096-0.135,25.525,2.781,28.857c4.867,5.562,13.743,9.418,27.37,4.867C177.511,415.069,199.763,396.758,199.763,396.758
			z"/>
		<path d="M200.32,396.369c0,0,15.993-15.993,20.629-26.887c3.47-8.154,9.892-27.704-8.692-35.927
			c-13.096-5.795-25.525-0.135-28.857,2.781c-5.562,4.867-9.418,13.743-4.867,27.37C182.009,374.117,200.32,396.369,200.32,396.369z
			"/>
		<path d="M200.709,395.979c0,0,15.993,15.993,26.887,20.629c8.154,3.47,27.704,9.892,35.927-8.692
			c5.795-13.096,0.135-25.525-2.781-28.857c-4.867-5.562-13.743-9.418-27.37-4.867C222.961,377.668,200.709,395.979,200.709,395.979
			z"/>
		<g>
			<path d="M200.705,396.369v52.421h-17.416C183.289,448.789,195.399,423.184,200.705,396.369z"/>
			<path d="M200.705,396.369v52.421h17.425C218.13,448.789,206.013,423.184,200.705,396.369z"/>
		</g>
	</g>
	<g>
		<path d="M201.304,576.82c0,0,15.993,15.993,26.887,20.629c8.154,3.47,27.704,9.892,35.927-8.692
			c5.795-13.096,0.135-25.525-2.781-28.857c-4.867-5.562-13.743-9.419-27.37-4.867C223.556,558.509,201.304,576.82,201.304,576.82z"
			/>
		<path d="M200.747,577.209c0,0-15.993,15.993-20.629,26.887c-3.47,8.154-9.892,27.704,8.692,35.927
			c13.096,5.795,25.525,0.135,28.857-2.781c5.562-4.867,9.418-13.743,4.867-27.37C219.058,599.461,200.747,577.209,200.747,577.209z
			"/>
		<path d="M200.358,577.599c0,0-15.993-15.993-26.887-20.629c-8.154-3.47-27.704-9.892-35.927,8.692
			c-5.795,13.096-0.135,25.525,2.781,28.857c4.867,5.562,13.743,9.419,27.37,4.867C178.106,595.91,200.358,577.599,200.358,577.599z
			"/>
		<g>
			<path d="M200.362,577.209v-52.421h17.416C217.778,524.789,205.668,550.394,200.362,577.209z"/>
			<path d="M200.362,577.209v-52.421h-17.425C182.937,524.789,195.054,550.394,200.362,577.209z"/>
		</g>
	</g>
	<g>
		<path d="M545.168,576.82c0,0,15.993,15.993,26.887,20.629c8.154,3.47,27.704,9.892,35.927-8.692
			c5.795-13.096,0.135-25.525-2.781-28.857c-4.867-5.562-13.743-9.419-27.37-4.867C567.42,558.509,545.168,576.82,545.168,576.82z"
			/>
		<path d="M544.611,577.209c0,0-15.993,15.993-20.629,26.887c-3.47,8.154-9.892,27.704,8.692,35.927
			c13.096,5.795,25.525,0.135,28.857-2.781c5.562-4.867,9.418-13.743,4.867-27.37C562.922,599.461,544.611,577.209,544.611,577.209z
			"/>
		<path d="M544.221,577.599c0,0-15.993-15.993-26.887-20.629c-8.154-3.47-27.704-9.892-35.927,8.692
			c-5.795,13.096-0.135,25.525,2.781,28.857c4.867,5.562,13.743,9.419,27.37,4.867C521.97,595.91,544.221,577.599,544.221,577.599z"
			/>
		<g>
			<path d="M544.226,577.209v-52.421h17.416C561.642,524.789,549.532,550.394,544.226,577.209z"/>
			<path d="M544.226,577.209v-52.421h-17.425C526.801,524.789,538.918,550.394,544.226,577.209z"/>
		</g>
	</g>
	<g>
		<path d="M545.142,770.196c0,0,15.993,15.993,26.887,20.629c8.154,3.47,27.704,9.892,35.927-8.692
			c5.795-13.096,0.135-25.525-2.781-28.857c-4.867-5.562-13.743-9.419-27.37-4.867C567.394,751.885,545.142,770.196,545.142,770.196
			z"/>
		<path d="M544.585,770.585c0,0-15.993,15.993-20.629,26.887c-3.47,8.154-9.892,27.704,8.692,35.927
			c13.096,5.795,25.525,0.135,28.857-2.781c5.562-4.867,9.418-13.743,4.867-27.37C562.896,792.837,544.585,770.585,544.585,770.585z
			"/>
		<path d="M544.195,770.975c0,0-15.993-15.993-26.887-20.629c-8.154-3.47-27.704-9.892-35.927,8.692
			c-5.795,13.096-0.135,25.525,2.781,28.857c4.867,5.562,13.743,9.419,27.37,4.867C521.944,789.286,544.195,770.975,544.195,770.975
			z"/>
		<g>
			<path d="M544.2,770.585v-52.421h17.416C561.616,718.165,549.506,743.769,544.2,770.585z"/>
			<path d="M544.2,770.585v-52.421h-17.425C526.775,718.165,538.892,743.769,544.2,770.585z"/>
		</g>
	</g>
	<g>
		<path d="M199.513,769.744c0,0,15.993,15.993,26.887,20.629c8.154,3.47,27.704,9.892,35.927-8.692
			c5.795-13.096,0.135-25.525-2.781-28.857c-4.867-5.562-13.743-9.419-27.37-4.867C221.765,751.433,199.513,769.744,199.513,769.744
			z"/>
		<path d="M198.956,770.134c0,0-15.993,15.993-20.629,26.887c-3.47,8.154-9.892,27.704,8.692,35.927
			c13.096,5.795,25.525,0.135,28.857-2.781c5.562-4.867,9.418-13.743,4.867-27.37C217.267,792.385,198.956,770.134,198.956,770.134z
			"/>
		<path d="M198.567,770.523c0,0-15.993-15.993-26.887-20.629c-8.154-3.47-27.704-9.892-35.927,8.692
			c-5.795,13.096-0.135,25.525,2.781,28.857c4.867,5.562,13.743,9.419,27.37,4.867C176.315,788.835,198.567,770.523,198.567,770.523
			z"/>
		<g>
			<path d="M198.571,770.134v-52.421h17.416C215.987,717.713,203.877,743.318,198.571,770.134z"/>
			<path d="M198.571,770.134v-52.421h-17.425C181.146,717.713,193.263,743.318,198.571,770.134z"/>
		</g>
	</g>
	<g>
		<path d="M381.565,314.463c0,0-15.993-15.993-26.887-20.629c-8.154-3.47-27.704-9.892-35.927,8.692
			c-5.795,13.096-0.135,25.525,2.781,28.857c4.867,5.562,13.743,9.418,27.37,4.867C359.314,332.774,381.565,314.463,381.565,314.463
			z"/>
		<path d="M382.122,314.073c0,0,15.993-15.993,20.629-26.887c3.47-8.154,9.892-27.704-8.692-35.927
			c-13.096-5.795-25.525-0.135-28.857,2.781c-5.562,4.867-9.418,13.743-4.867,27.37
			C363.811,291.822,382.122,314.073,382.122,314.073z"/>
		<path d="M382.512,313.683c0,0,15.993,15.993,26.887,20.629c8.154,3.47,27.704,9.892,35.927-8.692
			c5.795-13.096,0.135-25.525-2.781-28.857c-4.867-5.562-13.743-9.418-27.37-4.867C404.764,295.372,382.512,313.683,382.512,313.683
			z"/>
		<g>
			<path d="M382.508,314.073v52.421h-17.416C365.092,366.494,377.202,340.889,382.508,314.073z"/>
			<path d="M382.508,314.073v52.421h17.425C399.933,366.494,387.816,340.889,382.508,314.073z"/>
		</g>
	</g>
	<g>
		<path d="M382.986,653.537c0,0,15.993,15.993,26.887,20.629c8.154,3.47,27.704,9.892,35.927-8.692
			c5.795-13.096,0.135-25.525-2.781-28.857c-4.867-5.562-13.743-9.418-27.37-4.867C405.237,635.226,382.986,653.537,382.986,653.537
			z"/>
		<path d="M382.428,653.927c0,0-15.993,15.993-20.629,26.887c-3.47,8.154-9.892,27.704,8.692,35.927
			c13.096,5.795,25.525,0.135,28.857-2.781c5.562-4.867,9.418-13.743,4.867-27.37C400.739,676.178,382.428,653.927,382.428,653.927z
			"/>
		<path d="M382.039,654.317c0,0-15.993-15.993-26.887-20.629c-8.154-3.47-27.704-9.892-35.927,8.692
			c-5.795,13.096-0.135,25.525,2.781,28.857c4.867,5.562,13.743,9.418,27.37,4.867C359.787,672.628,382.039,654.317,382.039,654.317
			z"/>
		<g>
			<path d="M382.043,653.927v-52.421h17.416C399.459,601.506,387.349,627.111,382.043,653.927z"/>
			<path d="M382.043,653.927v-52.421h-17.425C364.618,601.506,376.735,627.111,382.043,653.927z"/>
		</g>
	</g>
	<g>
		<polygon points="39,74.583 36.333,64.542 57.833,53 69,53 69,151 56,151 56.167,65.5 		"/>
		<path d="M152.5,81.67c-1.5-6-7-30.67-31.33-30.17C96.83,52,90.31,81.67,90.31,81.67c-7.52,40.16,7.64,58.7,7.64,58.7
			c14.05,18.46,38.05,14.46,48.88-3.7C157.67,118.5,154,87.67,152.5,81.67z M136.65,129.79c-6.53,14.56-20.99,17.77-29.46,2.96
			c0,0-9.14-14.86-4.61-47.06c0,0,3.93-23.79,18.6-24.19c14.67-0.4,17.98,19.38,18.89,24.19
			C140.97,90.5,143.18,115.22,136.65,129.79z"/>
	</g>
	<g>
		<polygon points="710.657,880.312 713.324,890.406 691.824,902 681,902 681,804 693.657,804 693.491,889.448 		"/>
		<path d="M597.157,873.226c1.5,6,7,30.67,31.33,30.17c24.34-0.5,30.86-30.17,30.86-30.17c7.52-40.16-7.64-58.7-7.64-58.7
			c-14.05-18.46-38.05-14.46-48.88,3.7C591.987,836.396,595.657,867.226,597.157,873.226z M613.007,825.106
			c6.53-14.56,20.99-17.77,29.46-2.96c0,0,9.14,14.86,4.61,47.06c0,0-3.93,23.79-18.6,24.19c-14.67,0.4-17.98-19.38-18.89-24.19
			C608.687,864.396,606.477,839.676,613.007,825.106z"/>
	</g>
</g>
</svg>
