<?xml version="1.0" encoding="utf-8"?>
<!-- Generator: Adobe Illustrator 17.0.0, SVG Export Plug-In . SVG Version: 6.00 Build 0)  -->
<!DOCTYPE svg PUBLIC "-//W3C//DTD SVG 1.1//EN" "http://www.w3.org/Graphics/SVG/1.1/DTD/svg11.dtd">
<svg version="1.1" id="Layer_1" xmlns="http://www.w3.org/2000/svg" xmlns:xlink="http://www.w3.org/1999/xlink" x="0px" y="0px"
	 width="750px" height="968px" viewBox="0 0 750 968" enable-background="new 0 0 750 968" xml:space="preserve">
<g>
	<path fill="#FFFFFF" stroke="#FFFFFF" stroke-width="18" stroke-miterlimit="10" d="M36.098,14h677.225
		c0,0,21.938-0.335,21.499,21.164c-0.548,26.868,0,894.277,0,894.277S735.261,953,713.323,953H36.098
		c0,0-22.098-3.109-22.098-25.955V34.828C14,34.828,12.48,14,36.098,14z"/>
	<polygon fill="#FF0000" points="546.824,270.159 495.799,207.715 546.824,141.382 595.905,207.715 	"/>
	<polygon fill="#FF0000" points="201.714,270.159 150.689,207.715 201.714,141.382 250.795,207.715 	"/>
	<polygon fill="#FF0000" points="546.908,831.781 495.883,769.336 546.908,703.004 595.989,769.336 	"/>
	<polygon fill="#FF0000" points="201.798,831.781 150.773,769.336 201.798,703.004 250.879,769.336 	"/>
	<polygon fill="#FF0000" points="546.788,641.598 495.763,579.153 546.788,512.821 595.869,579.153 	"/>
	<polygon fill="#FF0000" points="201.678,641.598 150.653,579.153 201.678,512.821 250.759,579.153 	"/>
	<polygon fill="#FF0000" points="546.288,448.789 495.263,386.345 546.288,320.012 595.369,386.345 	"/>
	<polygon fill="#FF0000" points="201.178,448.789 150.153,386.345 201.178,320.012 250.259,386.345 	"/>
	<g>
		<polygon fill="#FF0000" points="39,76.583 36.333,66.542 57.833,55 69,55 69,153 56,153 56.167,67.5 		"/>
		<path fill="#FF0000" d="M152.5,83.67c-1.5-6-7-30.67-31.33-30.17C96.83,54,90.31,83.67,90.31,83.67
			c-7.52,40.16,7.64,58.7,7.64,58.7c14.05,18.46,38.05,14.46,48.88-3.7C157.67,120.5,154,89.67,152.5,83.67z M136.65,131.79
			c-6.53,14.56-20.99,17.77-29.46,2.96c0,0-9.14-14.86-4.61-47.06c0,0,3.93-23.79,18.6-24.19c14.67-0.4,17.98,19.38,18.89,24.19
			C140.97,92.5,143.18,117.22,136.65,131.79z"/>
	</g>
	<g>
		<polygon fill="#FF0000" points="710.657,882.312 713.324,892.406 691.824,904 681,904 681,806 693.657,806 693.491,891.448 		"/>
		<path fill="#FF0000" d="M597.157,875.226c1.5,6,7,30.67,31.33,30.17c24.34-0.5,30.86-30.17,30.86-30.17
			c7.52-40.16-7.64-58.7-7.64-58.7c-14.05-18.46-38.05-14.46-48.88,3.7C591.987,838.396,595.657,869.226,597.157,875.226z
			 M613.007,827.106c6.53-14.56,20.99-17.77,29.46-2.96c0,0,9.14,14.86,4.61,47.06c0,0-3.93,23.79-18.6,24.19
			c-14.67,0.4-17.98-19.38-18.89-24.19C608.687,866.396,606.477,841.676,613.007,827.106z"/>
	</g>
	<polygon fill="#FF0000" points="377.222,374.714 326.197,312.269 377.222,245.937 426.303,312.269 	"/>
	<polygon fill="#FF0000" points="378.722,722.063 327.697,659.618 378.722,593.286 427.803,659.618 	"/>
</g>
</svg>
