<?xml version="1.0" encoding="utf-8"?>
<!-- Generator: Adobe Illustrator 17.0.0, SVG Export Plug-In . SVG Version: 6.00 Build 0)  -->
<!DOCTYPE svg PUBLIC "-//W3C//DTD SVG 1.1//EN" "http://www.w3.org/Graphics/SVG/1.1/DTD/svg11.dtd">
<svg version="1.1" id="Layer_1" xmlns="http://www.w3.org/2000/svg" xmlns:xlink="http://www.w3.org/1999/xlink" x="0px" y="0px"
	 width="750px" height="968px" viewBox="0 0 750 968" enable-background="new 0 0 750 968" xml:space="preserve">
<g>
	<g>
		<g>
			<path fill="#FFFFFF" stroke="#FFFFFF" stroke-width="18" stroke-miterlimit="10" d="M36.098,14h677.225
				c0,0,21.938-0.335,21.499,21.164c-0.548,26.868,0,894.277,0,894.277S735.261,953,713.323,953H36.098
				c0,0-22.098-3.109-22.098-25.955V34.828C14,34.828,12.48,14,36.098,14z"/>
		</g>
		<path fill="#FF0000" d="M57,153v-8c0,0,34.228-34.341,36.5-37.667c2.419-3.541,13.833-14.333,9.333-31.167c0,0-3.667-12-18-11.5
			c0,0-13.333,0.833-21,8.5L59.167,63.5c0,0,15.167-13,35.333-8.833c0,0,19.833,2.5,22.333,23.667s-13.5,35.667-29,51.833
			S75.417,142,75.417,142L119,142.167V153H57z"/>
		<path fill="#FF0000" d="M699,804v7.843c0,0-34.228,34.341-36.5,37.667c-2.419,3.541-13.833,14.333-9.333,31.167
			c0,0,3.667,12,18,11.5c0,0,13.333-0.833,21-8.5l4.667,9.667c0,0-15.167,13-35.333,8.833c0,0-19.833-2.5-22.333-23.667
			s13.5-35.667,29-51.833c15.5-16.167,12.417-11.833,12.417-11.833L637,814.677V804H699z"/>
	</g>
	<polygon fill="#FF0000" points="374.214,266.659 323.189,204.215 374.214,137.882 423.295,204.215 	"/>
	<polygon fill="#FF0000" points="377.298,828.281 326.273,765.836 377.298,699.504 426.379,765.836 	"/>
</g>
</svg>
