<?xml version="1.0" encoding="utf-8"?>
<!-- Generator: Adobe Illustrator 17.0.0, SVG Export Plug-In . SVG Version: 6.00 Build 0)  -->
<!DOCTYPE svg PUBLIC "-//W3C//DTD SVG 1.1//EN" "http://www.w3.org/Graphics/SVG/1.1/DTD/svg11.dtd">
<svg version="1.1" id="Layer_1" xmlns="http://www.w3.org/2000/svg" xmlns:xlink="http://www.w3.org/1999/xlink" x="0px" y="0px"
	 width="750px" height="968px" viewBox="0 0 750 968" enable-background="new 0 0 750 968" xml:space="preserve">
<g>
	<g>
		<g>
			<path fill="#FFFFFF" stroke="#FFFFFF" stroke-width="18" stroke-miterlimit="10" d="M36.098,14h677.225
				c0,0,21.938-0.335,21.499,21.164c-0.548,26.868,0,894.277,0,894.277S735.261,953,713.323,953H36.098
				c0,0-22.098-3.109-22.098-25.955V34.828C14,34.828,12.48,14,36.098,14z"/>
		</g>
		<path d="M57,153v-8c0,0,34.228-34.341,36.5-37.667c2.419-3.541,13.833-14.333,9.333-31.167c0,0-3.667-12-18-11.5
			c0,0-13.333,0.833-21,8.5L59.167,63.5c0,0,15.167-13,35.333-8.833c0,0,19.833,2.5,22.333,23.667s-13.5,35.667-29,51.833
			S75.417,142,75.417,142L119,142.167V153H57z"/>
		<path d="M699,804v7.843c0,0-34.228,34.341-36.5,37.667c-2.419,3.541-13.833,14.333-9.333,31.167c0,0,3.667,12,18,11.5
			c0,0,13.333-0.833,21-8.5l4.667,9.667c0,0-15.167,13-35.333,8.833c0,0-19.833-2.5-22.333-23.667s13.5-35.667,29-51.833
			c15.5-16.167,12.417-11.833,12.417-11.833L637,814.677V804H699z"/>
	</g>
	<g>
		<path d="M374.167,224.241c-2.637,3.188-7.513,6.888-10.55,8.369c-9.424,4.597-15.635,3.171-20.693,1.993
			c-24.659-5.744-24.142-27.3-24.142-27.3c-1.014-19.785,11.057-33.372,19.679-40.851c8.364-7.255,35.706-26.304,35.706-26.304
			s27.301,19.049,35.653,26.304c8.609,7.479,20.662,21.066,19.65,40.851c0,0,0.516,21.556-24.106,27.3
			c-5.05,1.178-11.253,2.605-20.662-1.993C381.669,231.129,376.801,227.43,374.167,224.241z"/>
		<path d="M383.315,221.356c1.75,16.081,8.014,36.661,8.014,36.661h-34.408c0,0,7.282-23.722,8.523-35.675"/>
	</g>
	<g>
		<path d="M375.295,756.154c2.637-3.188,7.513-6.888,10.55-8.37c9.424-4.597,15.635-3.171,20.693-1.993
			c24.659,5.744,24.142,27.3,24.142,27.3c1.014,19.785-11.057,33.372-19.679,40.851c-8.364,7.255-35.706,26.304-35.706,26.304
			s-27.301-19.049-35.653-26.304c-8.609-7.479-20.662-21.066-19.65-40.851c0,0-0.516-21.556,24.106-27.3
			c5.05-1.178,11.253-2.605,20.662,1.993C367.793,749.266,372.661,752.966,375.295,756.154z"/>
		<path d="M366.147,759.039c-1.75-16.081-8.014-36.661-8.014-36.661h34.408c0,0-7.282,23.722-8.523,35.675"/>
	</g>
</g>
</svg>
