<?xml version="1.0" encoding="utf-8"?>
<!-- Generator: Adobe Illustrator 17.0.0, SVG Export Plug-In . SVG Version: 6.00 Build 0)  -->
<!DOCTYPE svg PUBLIC "-//W3C//DTD SVG 1.1//EN" "http://www.w3.org/Graphics/SVG/1.1/DTD/svg11.dtd">
<svg version="1.1" id="Layer_1" xmlns="http://www.w3.org/2000/svg" xmlns:xlink="http://www.w3.org/1999/xlink" x="0px" y="0px"
	 width="750px" height="968px" viewBox="0 0 750 968" enable-background="new 0 0 750 968" xml:space="preserve">
<g>
	<g>
		<path fill="#FFFFFF" stroke="#FFFFFF" stroke-width="18" stroke-miterlimit="10" d="M36.098,14h677.225
			c0,0,21.938-0.335,21.499,21.164c-0.548,26.868,0,894.277,0,894.277S735.261,953,713.323,953H36.098
			c0,0-22.098-3.109-22.098-25.955V34.828C14,34.828,12.48,14,36.098,14z"/>
	</g>
	<path fill="#FF0000" d="M57,153v-8c0,0,34.228-34.341,36.5-37.667c2.419-3.541,13.833-14.333,9.333-31.167c0,0-3.667-12-18-11.5
		c0,0-13.333,0.833-21,8.5L59.167,63.5c0,0,15.167-13,35.333-8.833c0,0,19.833,2.5,22.333,23.667s-13.5,35.667-29,51.833
		S75.417,142,75.417,142L119,142.167V153H57z"/>
	<path fill="#FF0000" d="M699,804v7.843c0,0-34.228,34.341-36.5,37.667c-2.419,3.541-13.833,14.333-9.333,31.167
		c0,0,3.667,12,18,11.5c0,0,13.333-0.833,21-8.5l4.667,9.667c0,0-15.167,13-35.333,8.833c0,0-19.833-2.5-22.333-23.667
		s13.5-35.667,29-51.833c15.5-16.167,12.417-11.833,12.417-11.833L637,814.677V804H699z"/>
	<path fill="#FF0000" d="M374.077,150.465c3.102-3.812,8.837-8.236,12.409-10.008c11.085-5.497,18.391-3.792,24.34-2.383
		c29.005,6.869,28.397,32.644,28.397,32.644c1.193,23.657-13.006,39.904-23.147,48.847c-9.838,8.675-41.999,31.452-41.999,31.452
		s-32.113-22.778-41.937-31.452c-10.126-8.942-24.304-25.189-23.113-48.847c0,0-0.607-25.775,28.355-32.644
		c5.94-1.409,13.236-3.114,24.304,2.383C365.253,142.228,370.979,146.652,374.077,150.465z"/>
	<path fill="#FF0000" d="M376.878,817.691c-3.102,3.812-8.837,8.236-12.409,10.008c-11.085,5.497-18.391,3.792-24.34,2.383
		c-29.005-6.869-28.397-32.644-28.397-32.644c-1.193-23.657,13.006-39.904,23.147-48.846c9.838-8.675,41.999-31.452,41.999-31.452
		s32.113,22.778,41.937,31.452c10.126,8.942,24.304,25.189,23.113,48.846c0,0,0.607,25.775-28.355,32.644
		c-5.94,1.409-13.236,3.114-24.304-2.383C385.702,825.928,379.975,821.504,376.878,817.691z"/>
</g>
</svg>
