<?xml version="1.0" encoding="utf-8"?>
<!-- Generator: Adobe Illustrator 17.0.0, SVG Export Plug-In . SVG Version: 6.00 Build 0)  -->
<!DOCTYPE svg PUBLIC "-//W3C//DTD SVG 1.1//EN" "http://www.w3.org/Graphics/SVG/1.1/DTD/svg11.dtd">
<svg version="1.1" id="Layer_1" xmlns="http://www.w3.org/2000/svg" xmlns:xlink="http://www.w3.org/1999/xlink" x="0px" y="0px"
	 width="750px" height="968px" viewBox="0 0 750 968" enable-background="new 0 0 750 968" xml:space="preserve">
<g>
	<g>
		<path fill="#FFFFFF" stroke="#FFFFFF" stroke-width="18" stroke-miterlimit="10" d="M36.098,14h677.225
			c0,0,21.938-0.335,21.499,21.164c-0.548,26.868,0,894.277,0,894.277S735.261,953,713.323,953H36.098
			c0,0-22.098-3.109-22.098-25.955V34.828C14,34.828,12.48,14,36.098,14z"/>
		<g>
			<path d="M374.014,209.466c0,0-15.993-15.993-26.887-20.629c-8.154-3.47-27.704-9.892-35.927,8.692
				c-5.795,13.096-0.135,25.525,2.781,28.857c4.867,5.562,13.743,9.418,27.37,4.867
				C351.763,227.777,374.014,209.466,374.014,209.466z"/>
			<path d="M374.571,209.076c0,0,15.993-15.993,20.629-26.887c3.47-8.154,9.892-27.704-8.692-35.927
				c-13.096-5.795-25.525-0.135-28.857,2.781c-5.562,4.867-9.418,13.743-4.867,27.37
				C356.26,186.825,374.571,209.076,374.571,209.076z"/>
			<path d="M374.961,208.686c0,0,15.993,15.993,26.887,20.629c8.154,3.47,27.704,9.892,35.927-8.692
				c5.795-13.096,0.135-25.525-2.781-28.857c-4.867-5.562-13.743-9.418-27.37-4.867
				C397.212,190.375,374.961,208.686,374.961,208.686z"/>
			<g>
				<path d="M374.956,209.076v52.421H357.54C357.54,261.497,369.651,235.892,374.956,209.076z"/>
				<path d="M374.956,209.076v52.421h17.425C392.382,261.497,380.265,235.892,374.956,209.076z"/>
			</g>
		</g>
		<g>
			<path d="M375.986,776.196c0,0,15.993,15.993,26.887,20.629c8.154,3.47,27.704,9.892,35.927-8.692
				c5.795-13.096,0.135-25.525-2.781-28.857c-4.867-5.562-13.743-9.419-27.37-4.867
				C398.237,757.885,375.986,776.196,375.986,776.196z"/>
			<path d="M375.429,776.585c0,0-15.993,15.993-20.629,26.887c-3.47,8.154-9.892,27.704,8.692,35.927
				c13.096,5.795,25.525,0.135,28.857-2.781c5.562-4.867,9.418-13.743,4.867-27.37C393.74,798.837,375.429,776.585,375.429,776.585z
				"/>
			<path d="M375.039,776.975c0,0-15.993-15.993-26.887-20.629c-8.154-3.47-27.704-9.892-35.927,8.692
				c-5.795,13.096-0.135,25.525,2.781,28.857c4.867,5.562,13.743,9.419,27.37,4.867
				C352.788,795.286,375.039,776.975,375.039,776.975z"/>
			<g>
				<path d="M375.044,776.585v-52.421h17.416C392.46,724.165,380.349,749.769,375.044,776.585z"/>
				<path d="M375.044,776.585v-52.421h-17.425C357.618,724.165,369.735,749.769,375.044,776.585z"/>
			</g>
		</g>
	</g>
	<path d="M57,153v-8c0,0,34.228-34.341,36.5-37.667c2.419-3.541,13.833-14.333,9.333-31.167c0,0-3.667-12-18-11.5
		c0,0-13.333,0.833-21,8.5L59.167,63.5c0,0,15.167-13,35.333-8.833c0,0,19.833,2.5,22.333,23.667s-13.5,35.667-29,51.833
		S75.417,142,75.417,142L119,142.167V153H57z"/>
	<path d="M699,804v7.843c0,0-34.228,34.341-36.5,37.667c-2.419,3.541-13.833,14.333-9.333,31.167c0,0,3.667,12,18,11.5
		c0,0,13.333-0.833,21-8.5l4.667,9.667c0,0-15.167,13-35.333,8.833c0,0-19.833-2.5-22.333-23.667s13.5-35.667,29-51.833
		c15.5-16.167,12.417-11.833,12.417-11.833L637,814.677V804H699z"/>
</g>
</svg>
