<?xml version="1.0" encoding="utf-8"?>
<!-- Generator: Adobe Illustrator 17.0.0, SVG Export Plug-In . SVG Version: 6.00 Build 0)  -->
<!DOCTYPE svg PUBLIC "-//W3C//DTD SVG 1.1//EN" "http://www.w3.org/Graphics/SVG/1.1/DTD/svg11.dtd">
<svg version="1.1" id="Layer_1" xmlns="http://www.w3.org/2000/svg" xmlns:xlink="http://www.w3.org/1999/xlink" x="0px" y="0px"
	 width="750px" height="968px" viewBox="0 0 750 968" enable-background="new 0 0 750 968" xml:space="preserve">
<g>
	<path fill="#FFFFFF" stroke="#FFFFFF" stroke-width="18" stroke-miterlimit="10" d="M36.098,14h677.225
		c0,0,21.938-0.335,21.499,21.164c-0.548,26.868,0,894.277,0,894.277S735.261,953,713.323,953H36.098
		c0,0-22.098-3.109-22.098-25.955V34.828C14,34.828,12.48,14,36.098,14z"/>
	<path fill="#FF0000" d="M51,147.125l3.813-10.063c0,0,17.406,10.469,32.656,3.969c0,0,13.953-4.453,10.078-22.203
		c0,0-2.172-12.828-21.922-13.828H66l-0.125-10.125c0,0,19.75,1.875,26.25-8.375c0,0,6.25-7.5-0.5-17.5c0,0-5-6.5-17-5.375
		c0,0-6.5,0.75-16.375,6.375l-3.438-9.5c0,0,14.313-9.625,29.938-7.125c0,0,14,0.875,20.625,12c0,0,7.125,12.75-1,23.5
		c0,0-3.25,6-10.625,11.75c0,0,15.375,3.5,18,19.625c0,0,3.625,16.75-13.5,28.75c0,0-13.25,8.75-36.25,2.75
		C62,151.75,53,148.875,51,147.125z"/>
	<path fill="#FF0000" d="M697.071,808.688l-3.813,10.063c0,0-17.406-10.469-32.656-3.969c0,0-13.953,4.547-10.078,22.297
		c0,0,2.172,12.922,21.922,13.922h9.625l0.125,10.031c0,0-19.75-1.922-26.25,8.328c0,0-6.25,7.477,0.5,17.477c0,0,5,6.488,17,5.363
		c0,0,6.5-0.756,16.375-6.381l3.438,9.497c0,0-14.313,9.624-29.938,7.124c0,0-14-0.876-20.625-12.001c0,0-7.125-12.75,1-23.5
		c0,0,3.25-6,10.625-11.75c0,0-15.375-3.5-18-19.625c0,0-3.625-16.75,13.5-28.75c0,0,13.25-8.75,36.25-2.75
		C686.071,804.063,695.071,806.938,697.071,808.688z"/>
	<path fill="#FF0000" d="M376.419,150.465c3.102-3.812,8.837-8.236,12.409-10.008c11.085-5.497,18.391-3.792,24.34-2.383
		c29.005,6.869,28.397,32.644,28.397,32.644c1.193,23.657-13.006,39.904-23.147,48.847c-9.838,8.675-41.999,31.452-41.999,31.452
		s-32.113-22.778-41.937-31.452c-10.126-8.942-24.304-25.189-23.113-48.847c0,0-0.607-25.775,28.355-32.644
		c5.94-1.409,13.236-3.114,24.304,2.383C367.595,142.228,373.322,146.652,376.419,150.465z"/>
	<path fill="#FF0000" d="M376.432,437.621c3.102-3.812,8.837-8.236,12.409-10.008c11.085-5.497,18.391-3.792,24.34-2.383
		c29.005,6.869,28.397,32.644,28.397,32.644c1.193,23.658-13.006,39.904-23.147,48.847c-9.838,8.675-41.999,31.452-41.999,31.452
		s-32.113-22.778-41.937-31.452c-10.126-8.942-24.304-25.189-23.113-48.847c0,0-0.607-25.775,28.355-32.644
		c5.94-1.409,13.236-3.114,24.304,2.383C367.608,429.385,373.334,433.809,376.432,437.621z"/>
	<path fill="#FF0000" d="M376.22,817.691c-3.102,3.812-8.837,8.236-12.409,10.008c-11.085,5.497-18.391,3.792-24.34,2.383
		c-29.005-6.869-28.397-32.644-28.397-32.644c-1.193-23.657,13.006-39.904,23.147-48.846c9.838-8.675,41.999-31.452,41.999-31.452
		s32.113,22.778,41.937,31.452c10.126,8.942,24.304,25.189,23.113,48.846c0,0,0.607,25.775-28.355,32.644
		c-5.94,1.409-13.236,3.114-24.304-2.383C385.044,825.928,379.317,821.504,376.22,817.691z"/>
</g>
</svg>
