<?xml version="1.0" encoding="utf-8"?>
<!-- Generator: Adobe Illustrator 17.0.0, SVG Export Plug-In . SVG Version: 6.00 Build 0)  -->
<!DOCTYPE svg PUBLIC "-//W3C//DTD SVG 1.1//EN" "http://www.w3.org/Graphics/SVG/1.1/DTD/svg11.dtd">
<svg version="1.1" id="Layer_1" xmlns="http://www.w3.org/2000/svg" xmlns:xlink="http://www.w3.org/1999/xlink" x="0px" y="0px"
	 width="750px" height="968px" viewBox="0 0 750 968" enable-background="new 0 0 750 968" xml:space="preserve">
<g>
	<g>
		<path fill="#FFFFFF" stroke="#FFFFFF" stroke-width="18" stroke-miterlimit="10" d="M36.098,14h677.225
			c0,0,21.938-0.335,21.499,21.164c-0.548,26.868,0,894.277,0,894.277S735.261,953,713.323,953H36.098
			c0,0-22.098-3.109-22.098-25.955V34.828C14,34.828,12.48,14,36.098,14z"/>
		<g>
			<path d="M374.147,200.635c0,0-15.993-15.993-26.887-20.629c-8.154-3.47-27.704-9.892-35.927,8.692
				c-5.795,13.096-0.135,25.525,2.781,28.857c4.867,5.562,13.743,9.418,27.37,4.867
				C351.895,218.946,374.147,200.635,374.147,200.635z"/>
			<path d="M374.704,200.245c0,0,15.993-15.993,20.629-26.887c3.47-8.154,9.892-27.704-8.692-35.927
				c-13.096-5.795-25.525-0.135-28.857,2.781c-5.562,4.867-9.418,13.743-4.867,27.37
				C356.393,177.994,374.704,200.245,374.704,200.245z"/>
			<path d="M375.093,199.856c0,0,15.993,15.993,26.887,20.629c8.154,3.47,27.704,9.892,35.927-8.692
				c5.795-13.096,0.135-25.525-2.781-28.857c-4.867-5.562-13.743-9.418-27.37-4.867
				C397.345,181.545,375.093,199.856,375.093,199.856z"/>
			<g>
				<path d="M375.089,200.245v52.421h-17.416C357.673,252.666,369.783,227.061,375.089,200.245z"/>
				<path d="M375.089,200.245v52.421h17.425C392.514,252.666,380.397,227.061,375.089,200.245z"/>
			</g>
		</g>
		<g>
			<path d="M374.907,488.069c0,0-15.993-15.993-26.887-20.629c-8.154-3.47-27.704-9.892-35.927,8.692
				c-5.795,13.096-0.135,25.525,2.781,28.857c4.867,5.562,13.743,9.418,27.37,4.867C352.655,506.38,374.907,488.069,374.907,488.069
				z"/>
			<path d="M375.464,487.679c0,0,15.993-15.993,20.629-26.887c3.47-8.154,9.892-27.704-8.692-35.927
				c-13.096-5.795-25.525-0.135-28.857,2.781c-5.562,4.867-9.418,13.743-4.867,27.37
				C357.153,465.427,375.464,487.679,375.464,487.679z"/>
			<path d="M375.853,487.289c0,0,15.993,15.993,26.887,20.629c8.154,3.47,27.704,9.892,35.927-8.692
				c5.795-13.096,0.135-25.525-2.781-28.857c-4.867-5.562-13.743-9.418-27.37-4.867
				C398.105,468.978,375.853,487.289,375.853,487.289z"/>
			<g>
				<path d="M375.849,487.679v52.421h-17.416C358.433,540.099,370.543,514.495,375.849,487.679z"/>
				<path d="M375.849,487.679v52.421h17.425C393.274,540.099,381.157,514.495,375.849,487.679z"/>
			</g>
		</g>
		<g>
			<path d="M375.118,767.365c0,0,15.993,15.993,26.887,20.629c8.154,3.47,27.704,9.892,35.927-8.692
				c5.795-13.096,0.135-25.525-2.781-28.857c-4.867-5.562-13.743-9.418-27.37-4.867
				C397.369,749.054,375.118,767.365,375.118,767.365z"/>
			<path d="M374.561,767.755c0,0-15.993,15.993-20.629,26.887c-3.47,8.154-9.892,27.704,8.692,35.927
				c13.096,5.795,25.525,0.135,28.857-2.781c5.562-4.867,9.418-13.743,4.867-27.37C392.872,790.006,374.561,767.755,374.561,767.755
				z"/>
			<path d="M374.171,768.144c0,0-15.993-15.993-26.887-20.629c-8.154-3.47-27.704-9.892-35.927,8.692
				c-5.795,13.096-0.135,25.525,2.781,28.857c4.867,5.562,13.743,9.418,27.37,4.867C351.92,786.455,374.171,768.144,374.171,768.144
				z"/>
			<g>
				<path d="M374.176,767.755v-52.421h17.416C391.592,715.334,379.481,740.939,374.176,767.755z"/>
				<path d="M374.176,767.755v-52.421H356.75C356.75,715.334,368.867,740.939,374.176,767.755z"/>
			</g>
		</g>
	</g>
	<path d="M51,147.125l3.813-10.063c0,0,17.406,10.469,32.656,3.969c0,0,13.953-4.453,10.078-22.203c0,0-2.172-12.828-21.922-13.828
		H66l-0.125-10.125c0,0,19.75,1.875,26.25-8.375c0,0,6.25-7.5-0.5-17.5c0,0-5-6.5-17-5.375c0,0-6.5,0.75-16.375,6.375l-3.438-9.5
		c0,0,14.313-9.625,29.938-7.125c0,0,14,0.875,20.625,12c0,0,7.125,12.75-1,23.5c0,0-3.25,6-10.625,11.75c0,0,15.375,3.5,18,19.625
		c0,0,3.625,16.75-13.5,28.75c0,0-13.25,8.75-36.25,2.75C62,151.75,53,148.875,51,147.125z"/>
	<path d="M697.071,808.688l-3.813,10.063c0,0-17.406-10.469-32.656-3.969c0,0-13.953,4.547-10.078,22.297
		c0,0,2.172,12.922,21.922,13.922h9.625l0.125,10.031c0,0-19.75-1.922-26.25,8.328c0,0-6.25,7.477,0.5,17.477c0,0,5,6.488,17,5.363
		c0,0,6.5-0.756,16.375-6.381l3.438,9.497c0,0-14.313,9.624-29.938,7.124c0,0-14-0.876-20.625-12.001c0,0-7.125-12.75,1-23.5
		c0,0,3.25-6,10.625-11.75c0,0-15.375-3.5-18-19.625c0,0-3.625-16.75,13.5-28.75c0,0,13.25-8.75,36.25-2.75
		C686.071,804.063,695.071,806.938,697.071,808.688z"/>
</g>
</svg>
