<?xml version="1.0" encoding="utf-8"?>
<!-- Generator: Adobe Illustrator 17.0.0, SVG Export Plug-In . SVG Version: 6.00 Build 0)  -->
<!DOCTYPE svg PUBLIC "-//W3C//DTD SVG 1.1//EN" "http://www.w3.org/Graphics/SVG/1.1/DTD/svg11.dtd">
<svg version="1.1" id="Layer_1" xmlns="http://www.w3.org/2000/svg" xmlns:xlink="http://www.w3.org/1999/xlink" x="0px" y="0px"
	 width="750px" height="968px" viewBox="0 0 750 968" enable-background="new 0 0 750 968" xml:space="preserve">
<g>
	<path fill="#FFFFFF" stroke="#FFFFFF" stroke-width="18" stroke-miterlimit="10" d="M36.098,14h677.225
		c0,0,21.938-0.335,21.499,21.164c-0.548,26.868,0,894.277,0,894.277S735.261,953,713.323,953H36.098
		c0,0-22.098-3.109-22.098-25.955V34.828C14,34.828,12.48,14,36.098,14z"/>
	<path d="M51,147.125l3.813-10.063c0,0,17.406,10.469,32.656,3.969c0,0,13.953-4.453,10.078-22.203c0,0-2.172-12.828-21.922-13.828
		H66l-0.125-10.125c0,0,19.75,1.875,26.25-8.375c0,0,6.25-7.5-0.5-17.5c0,0-5-6.5-17-5.375c0,0-6.5,0.75-16.375,6.375l-3.438-9.5
		c0,0,14.313-9.625,29.938-7.125c0,0,14,0.875,20.625,12c0,0,7.125,12.75-1,23.5c0,0-3.25,6-10.625,11.75c0,0,15.375,3.5,18,19.625
		c0,0,3.625,16.75-13.5,28.75c0,0-13.25,8.75-36.25,2.75C62,151.75,53,148.875,51,147.125z"/>
	<path d="M697.071,808.688l-3.813,10.063c0,0-17.406-10.469-32.656-3.969c0,0-13.953,4.547-10.078,22.297
		c0,0,2.172,12.922,21.922,13.922h9.625l0.125,10.031c0,0-19.75-1.922-26.25,8.328c0,0-6.25,7.477,0.5,17.477c0,0,5,6.488,17,5.363
		c0,0,6.5-0.756,16.375-6.381l3.438,9.497c0,0-14.313,9.624-29.938,7.124c0,0-14-0.876-20.625-12.001c0,0-7.125-12.75,1-23.5
		c0,0,3.25-6,10.625-11.75c0,0-15.375-3.5-18-19.625c0,0-3.625-16.75,13.5-28.75c0,0,13.25-8.75,36.25-2.75
		C686.071,804.063,695.071,806.938,697.071,808.688z"/>
	<g>
		<path d="M374.494,217.241c-2.637,3.188-7.513,6.888-10.55,8.369c-9.424,4.597-15.635,3.171-20.693,1.993
			c-24.659-5.744-24.142-27.3-24.142-27.3c-1.014-19.785,11.057-33.372,19.679-40.851c8.364-7.255,35.706-26.304,35.706-26.304
			s27.301,19.049,35.653,26.304c8.609,7.479,20.662,21.066,19.65,40.851c0,0,0.516,21.556-24.106,27.3
			c-5.05,1.178-11.253,2.605-20.662-1.993C381.996,224.129,377.128,220.43,374.494,217.241z"/>
		<path d="M383.642,214.356c1.75,16.081,8.014,36.661,8.014,36.661h-34.408c0,0,7.282-23.722,8.523-35.675"/>
	</g>
	<g>
		<path d="M375.494,505.241c-2.637,3.188-7.513,6.888-10.55,8.369c-9.424,4.597-15.635,3.171-20.693,1.993
			c-24.659-5.744-24.142-27.3-24.142-27.3c-1.014-19.785,11.057-33.372,19.679-40.851c8.364-7.255,35.706-26.304,35.706-26.304
			s27.301,19.049,35.653,26.304c8.609,7.479,20.662,21.066,19.65,40.851c0,0,0.516,21.556-24.106,27.3
			c-5.05,1.178-11.253,2.605-20.662-1.993C382.996,512.129,378.128,508.43,375.494,505.241z"/>
		<path d="M384.642,502.356c1.75,16.081,8.014,36.661,8.014,36.661h-34.408c0,0,7.282-23.722,8.523-35.675"/>
	</g>
	<g>
		<path d="M375.622,749.154c2.637-3.188,7.513-6.888,10.55-8.37c9.424-4.597,15.635-3.171,20.693-1.993
			c24.659,5.744,24.142,27.3,24.142,27.3c1.014,19.785-11.057,33.372-19.679,40.851c-8.364,7.255-35.706,26.304-35.706,26.304
			s-27.301-19.049-35.653-26.304c-8.609-7.479-20.662-21.066-19.65-40.851c0,0-0.516-21.556,24.106-27.3
			c5.05-1.178,11.253-2.605,20.662,1.993C368.12,742.266,372.988,745.966,375.622,749.154z"/>
		<path d="M366.474,752.039c-1.75-16.081-8.014-36.661-8.014-36.661h34.408c0,0-7.282,23.722-8.523,35.675"/>
	</g>
</g>
</svg>
