<?xml version="1.0" encoding="utf-8"?>
<!-- Generator: Adobe Illustrator 17.0.0, SVG Export Plug-In . SVG Version: 6.00 Build 0)  -->
<!DOCTYPE svg PUBLIC "-//W3C//DTD SVG 1.1//EN" "http://www.w3.org/Graphics/SVG/1.1/DTD/svg11.dtd">
<svg version="1.1" id="Layer_1" xmlns="http://www.w3.org/2000/svg" xmlns:xlink="http://www.w3.org/1999/xlink" x="0px" y="0px"
	 width="750px" height="968px" viewBox="0 0 750 968" enable-background="new 0 0 750 968" xml:space="preserve">
<g>
	<path fill="#FFFFFF" stroke="#FFFFFF" stroke-width="18" stroke-miterlimit="10" d="M36.098,14h677.225
		c0,0,21.938-0.335,21.499,21.164c-0.548,26.868,0,894.277,0,894.277S735.261,953,713.323,953H36.098
		c0,0-22.098-3.109-22.098-25.955V34.828C14,34.828,12.48,14,36.098,14z"/>
	<path fill="#FF0000" d="M105,114.5V55H90.25L47,116.5v9.5h45.08l-0.33,26h12.67l0.33-26H118v-11.33L105,114.5z M91.75,115H60.08
		L92,67.17L91.75,115z"/>
	<path fill="#FF0000" d="M644,841.808V901h15.557L702,839.808V830h-44.273l0.33-26h-12.67l-0.33,26H631v11.638L644,841.808z
		 M658.057,841h31.67l-31.92,47.83L658.057,841z"/>
	<polygon fill="#FF0000" points="548.324,266.659 497.299,204.215 548.324,137.882 597.405,204.215 	"/>
	<polygon fill="#FF0000" points="203.214,266.659 152.189,204.215 203.214,137.882 252.295,204.215 	"/>
	<polygon fill="#FF0000" points="548.408,828.281 497.383,765.836 548.408,699.504 597.489,765.836 	"/>
	<polygon fill="#FF0000" points="203.298,828.281 152.273,765.836 203.298,699.504 252.379,765.836 	"/>
</g>
</svg>
