<?xml version="1.0" encoding="utf-8"?>
<!-- Generator: Adobe Illustrator 17.0.0, SVG Export Plug-In . SVG Version: 6.00 Build 0)  -->
<!DOCTYPE svg PUBLIC "-//W3C//DTD SVG 1.1//EN" "http://www.w3.org/Graphics/SVG/1.1/DTD/svg11.dtd">
<svg version="1.1" id="Layer_1" xmlns="http://www.w3.org/2000/svg" xmlns:xlink="http://www.w3.org/1999/xlink" x="0px" y="0px"
	 width="750px" height="968px" viewBox="0 0 750 968" enable-background="new 0 0 750 968" xml:space="preserve">
<g>
	<path fill="#FFFFFF" stroke="#FFFFFF" stroke-width="18" stroke-miterlimit="10" d="M36.098,14h677.225
		c0,0,21.938-0.335,21.499,21.164c-0.548,26.868,0,894.277,0,894.277S735.261,953,713.323,953H36.098
		c0,0-22.098-3.109-22.098-25.955V34.828C14,34.828,12.48,14,36.098,14z"/>
	<g>
		<path d="M198.542,203.014c0,0-15.993-15.993-26.887-20.629c-8.154-3.47-27.704-9.892-35.927,8.692
			c-5.795,13.096-0.135,25.525,2.781,28.857c4.867,5.562,13.743,9.418,27.37,4.867C176.29,221.325,198.542,203.014,198.542,203.014z
			"/>
		<path d="M199.099,202.625c0,0,15.993-15.993,20.629-26.887c3.47-8.154,9.892-27.704-8.692-35.927
			c-13.096-5.795-25.525-0.135-28.857,2.781c-5.562,4.867-9.418,13.743-4.867,27.37
			C180.788,180.373,199.099,202.625,199.099,202.625z"/>
		<path d="M199.489,202.235c0,0,15.993,15.993,26.887,20.629c8.154,3.47,27.704,9.892,35.927-8.692
			c5.795-13.096,0.135-25.525-2.781-28.857c-4.867-5.562-13.743-9.418-27.37-4.867C221.74,183.924,199.489,202.235,199.489,202.235z
			"/>
		<g>
			<path d="M199.484,202.625v52.421h-17.416C182.068,255.045,194.178,229.441,199.484,202.625z"/>
			<path d="M199.484,202.625v52.421h17.425C216.909,255.045,204.793,229.441,199.484,202.625z"/>
		</g>
	</g>
	<g>
		<path d="M544.171,209.466c0,0-15.993-15.993-26.887-20.629c-8.154-3.47-27.704-9.892-35.927,8.692
			c-5.795,13.096-0.135,25.525,2.781,28.857c4.867,5.562,13.743,9.418,27.37,4.867C521.92,227.777,544.171,209.466,544.171,209.466z
			"/>
		<path d="M544.728,209.076c0,0,15.993-15.993,20.629-26.887c3.47-8.154,9.892-27.704-8.692-35.927
			c-13.096-5.795-25.525-0.135-28.857,2.781c-5.562,4.867-9.419,13.743-4.867,27.37
			C526.417,186.825,544.728,209.076,544.728,209.076z"/>
		<path d="M545.118,208.686c0,0,15.993,15.993,26.887,20.629c8.154,3.47,27.704,9.892,35.927-8.692
			c5.795-13.096,0.135-25.525-2.781-28.857c-4.867-5.562-13.743-9.418-27.37-4.867C567.369,190.375,545.118,208.686,545.118,208.686
			z"/>
		<g>
			<path d="M545.113,209.076v52.421h-17.416C527.698,261.497,539.808,235.892,545.113,209.076z"/>
			<path d="M545.113,209.076v52.421h17.425C562.539,261.497,550.422,235.892,545.113,209.076z"/>
		</g>
	</g>
	<g>
		<path d="M545.142,776.196c0,0,15.993,15.993,26.887,20.629c8.154,3.47,27.704,9.892,35.927-8.692
			c5.795-13.096,0.135-25.525-2.781-28.857c-4.867-5.562-13.743-9.419-27.37-4.867C567.394,757.885,545.142,776.196,545.142,776.196
			z"/>
		<path d="M544.585,776.585c0,0-15.993,15.993-20.629,26.887c-3.47,8.154-9.892,27.704,8.692,35.927
			c13.096,5.795,25.525,0.135,28.857-2.781c5.562-4.867,9.418-13.743,4.867-27.37C562.896,798.837,544.585,776.585,544.585,776.585z
			"/>
		<path d="M544.195,776.975c0,0-15.993-15.993-26.887-20.629c-8.154-3.47-27.704-9.892-35.927,8.692
			c-5.795,13.096-0.135,25.525,2.781,28.857c4.867,5.562,13.743,9.419,27.37,4.867C521.944,795.286,544.195,776.975,544.195,776.975
			z"/>
		<g>
			<path d="M544.2,776.585v-52.421h17.416C561.616,724.165,549.506,749.769,544.2,776.585z"/>
			<path d="M544.2,776.585v-52.421h-17.425C526.775,724.165,538.892,749.769,544.2,776.585z"/>
		</g>
	</g>
	<g>
		<path d="M199.513,769.744c0,0,15.993,15.993,26.887,20.629c8.154,3.47,27.704,9.892,35.927-8.692
			c5.795-13.096,0.135-25.525-2.781-28.857c-4.867-5.562-13.743-9.419-27.37-4.867C221.765,751.433,199.513,769.744,199.513,769.744
			z"/>
		<path d="M198.956,770.134c0,0-15.993,15.993-20.629,26.887c-3.47,8.154-9.892,27.704,8.692,35.927
			c13.096,5.795,25.525,0.135,28.857-2.781c5.562-4.867,9.418-13.743,4.867-27.37C217.267,792.385,198.956,770.134,198.956,770.134z
			"/>
		<path d="M198.567,770.523c0,0-15.993-15.993-26.887-20.629c-8.154-3.47-27.704-9.892-35.927,8.692
			c-5.795,13.096-0.135,25.525,2.781,28.857c4.867,5.562,13.743,9.419,27.37,4.867C176.315,788.835,198.567,770.523,198.567,770.523
			z"/>
		<g>
			<path d="M198.571,770.134v-52.421h17.416C215.987,717.713,203.877,743.318,198.571,770.134z"/>
			<path d="M198.571,770.134v-52.421h-17.425C181.146,717.713,193.263,743.318,198.571,770.134z"/>
		</g>
	</g>
	<path d="M105,114.5V55H90.25L47,116.5v9.5h45.08l-0.33,26h12.67l0.33-26H118v-11.33L105,114.5z M91.75,115H60.08L92,67.17
		L91.75,115z"/>
	<path d="M644,841.808V901h15.557L702,839.808V830h-44.273l0.33-26h-12.67l-0.33,26H631v11.638L644,841.808z M658.057,841h31.67
		l-31.92,47.83L658.057,841z"/>
</g>
</svg>
