<?xml version="1.0" encoding="utf-8"?>
<!-- Generator: Adobe Illustrator 17.0.0, SVG Export Plug-In . SVG Version: 6.00 Build 0)  -->
<!DOCTYPE svg PUBLIC "-//W3C//DTD SVG 1.1//EN" "http://www.w3.org/Graphics/SVG/1.1/DTD/svg11.dtd">
<svg version="1.1" id="Layer_1" xmlns="http://www.w3.org/2000/svg" xmlns:xlink="http://www.w3.org/1999/xlink" x="0px" y="0px"
	 width="750px" height="968px" viewBox="0 0 750 968" enable-background="new 0 0 750 968" xml:space="preserve">
<g>
	<path fill="#FFFFFF" stroke="#FFFFFF" stroke-width="18" stroke-miterlimit="10" d="M36.098,14h677.225
		c0,0,21.938-0.335,21.499,21.164c-0.548,26.868,0,894.277,0,894.277S735.261,953,713.323,953H36.098
		c0,0-22.098-3.109-22.098-25.955V34.828C14,34.828,12.48,14,36.098,14z"/>
	<g>
		<path d="M198.542,203.014c0,0-15.993-15.993-26.887-20.629c-8.154-3.47-27.704-9.892-35.927,8.692
			c-5.795,13.096-0.135,25.525,2.781,28.857c4.867,5.562,13.743,9.418,27.37,4.867C176.29,221.325,198.542,203.014,198.542,203.014z
			"/>
		<path d="M199.099,202.625c0,0,15.993-15.993,20.629-26.887c3.47-8.154,9.892-27.704-8.692-35.927
			c-13.096-5.795-25.525-0.135-28.857,2.781c-5.562,4.867-9.418,13.743-4.867,27.37
			C180.788,180.373,199.099,202.625,199.099,202.625z"/>
		<path d="M199.489,202.235c0,0,15.993,15.993,26.887,20.629c8.154,3.47,27.704,9.892,35.927-8.692
			c5.795-13.096,0.135-25.525-2.781-28.857c-4.867-5.562-13.743-9.418-27.37-4.867C221.74,183.924,199.489,202.235,199.489,202.235z
			"/>
		<g>
			<path d="M199.484,202.625v52.421h-17.416C182.068,255.045,194.178,229.441,199.484,202.625z"/>
			<path d="M199.484,202.625v52.421h17.425C216.909,255.045,204.793,229.441,199.484,202.625z"/>
		</g>
	</g>
	<g>
		<path d="M544.171,209.466c0,0-15.993-15.993-26.887-20.629c-8.154-3.47-27.704-9.892-35.927,8.692
			c-5.795,13.096-0.135,25.525,2.781,28.857c4.867,5.562,13.743,9.418,27.37,4.867C521.92,227.777,544.171,209.466,544.171,209.466z
			"/>
		<path d="M544.728,209.076c0,0,15.993-15.993,20.629-26.887c3.47-8.154,9.892-27.704-8.692-35.927
			c-13.096-5.795-25.525-0.135-28.857,2.781c-5.562,4.867-9.419,13.743-4.867,27.37
			C526.417,186.825,544.728,209.076,544.728,209.076z"/>
		<path d="M545.118,208.686c0,0,15.993,15.993,26.887,20.629c8.154,3.47,27.704,9.892,35.927-8.692
			c5.795-13.096,0.135-25.525-2.781-28.857c-4.867-5.562-13.743-9.418-27.37-4.867C567.369,190.375,545.118,208.686,545.118,208.686
			z"/>
		<g>
			<path d="M545.113,209.076v52.421h-17.416C527.698,261.497,539.808,235.892,545.113,209.076z"/>
			<path d="M545.113,209.076v52.421h17.425C562.539,261.497,550.422,235.892,545.113,209.076z"/>
		</g>
	</g>
	<g>
		<path d="M384.655,494.035c0,0-15.993-15.993-26.887-20.629c-8.154-3.47-27.704-9.892-35.927,8.692
			c-5.795,13.096-0.135,25.525,2.781,28.857c4.867,5.562,13.743,9.418,27.37,4.867C362.404,512.346,384.655,494.035,384.655,494.035
			z"/>
		<path d="M385.212,493.645c0,0,15.993-15.993,20.629-26.887c3.47-8.154,9.892-27.704-8.692-35.927
			c-13.096-5.795-25.525-0.135-28.857,2.781c-5.562,4.867-9.418,13.743-4.867,27.37
			C366.901,471.393,385.212,493.645,385.212,493.645z"/>
		<path d="M385.602,493.255c0,0,15.993,15.993,26.887,20.629c8.154,3.47,27.704,9.892,35.927-8.692
			c5.795-13.096,0.135-25.525-2.781-28.857c-4.867-5.562-13.743-9.418-27.37-4.867C407.853,474.944,385.602,493.255,385.602,493.255
			z"/>
		<g>
			<path d="M385.597,493.645v52.421h-17.416C368.181,546.065,380.291,520.461,385.597,493.645z"/>
			<path d="M385.597,493.645v52.421h17.425C403.022,546.065,390.906,520.461,385.597,493.645z"/>
		</g>
	</g>
	<g>
		<path d="M545.142,776.196c0,0,15.993,15.993,26.887,20.629c8.154,3.47,27.704,9.892,35.927-8.692
			c5.795-13.096,0.135-25.525-2.781-28.857c-4.867-5.562-13.743-9.419-27.37-4.867C567.394,757.885,545.142,776.196,545.142,776.196
			z"/>
		<path d="M544.585,776.585c0,0-15.993,15.993-20.629,26.887c-3.47,8.154-9.892,27.704,8.692,35.927
			c13.096,5.795,25.525,0.135,28.857-2.781c5.562-4.867,9.418-13.743,4.867-27.37C562.896,798.837,544.585,776.585,544.585,776.585z
			"/>
		<path d="M544.195,776.975c0,0-15.993-15.993-26.887-20.629c-8.154-3.47-27.704-9.892-35.927,8.692
			c-5.795,13.096-0.135,25.525,2.781,28.857c4.867,5.562,13.743,9.419,27.37,4.867C521.944,795.286,544.195,776.975,544.195,776.975
			z"/>
		<g>
			<path d="M544.2,776.585v-52.421h17.416C561.616,724.165,549.506,749.769,544.2,776.585z"/>
			<path d="M544.2,776.585v-52.421h-17.425C526.775,724.165,538.892,749.769,544.2,776.585z"/>
		</g>
	</g>
	<g>
		<path d="M199.513,769.744c0,0,15.993,15.993,26.887,20.629c8.154,3.47,27.704,9.892,35.927-8.692
			c5.795-13.096,0.135-25.525-2.781-28.857c-4.867-5.562-13.743-9.419-27.37-4.867C221.765,751.433,199.513,769.744,199.513,769.744
			z"/>
		<path d="M198.956,770.134c0,0-15.993,15.993-20.629,26.887c-3.47,8.154-9.892,27.704,8.692,35.927
			c13.096,5.795,25.525,0.135,28.857-2.781c5.562-4.867,9.418-13.743,4.867-27.37C217.267,792.385,198.956,770.134,198.956,770.134z
			"/>
		<path d="M198.567,770.523c0,0-15.993-15.993-26.887-20.629c-8.154-3.47-27.704-9.892-35.927,8.692
			c-5.795,13.096-0.135,25.525,2.781,28.857c4.867,5.562,13.743,9.419,27.37,4.867C176.315,788.835,198.567,770.523,198.567,770.523
			z"/>
		<g>
			<path d="M198.571,770.134v-52.421h17.416C215.987,717.713,203.877,743.318,198.571,770.134z"/>
			<path d="M198.571,770.134v-52.421h-17.425C181.146,717.713,193.263,743.318,198.571,770.134z"/>
		</g>
	</g>
	<path d="M51.782,147.411l3.38-10.203c0,0,8.081,4.365,16.78,5.03c4.285,0.327,23.016,1.37,27.088-17.515
		c0,0,3.214-13.077-9.161-20.827c0,0-8.653-6.744-32.122-3.15L63.876,54H110v11.338l-36.75-0.375l-3.719,25.125
		c0,0,20.984-4.375,35.172,9.375s5.092,34.587,4.148,36.25c-0.746,1.316-9.426,18.813-35.863,17.313
		C72.989,153.025,62.501,152.921,51.782,147.411z"/>
	<path d="M697.454,809.75l-3.38,10.203c0,0-8.081-4.365-16.78-5.03c-4.285-0.327-23.016-1.37-27.089,17.515
		c0,0-3.214,13.077,9.161,20.827c0,0,8.653,6.664,32.122,3.07L685.36,903H639v-11.177l36.867,0.375l3.777-25.125
		c0,0-20.955,4.375-35.143-9.375s-5.077-34.587-4.134-36.25c0.746-1.316,9.433-18.813,35.871-17.313
		C676.239,804.135,686.735,804.239,697.454,809.75z"/>
</g>
</svg>
