<?xml version="1.0" encoding="utf-8"?>
<!-- Generator: Adobe Illustrator 17.0.0, SVG Export Plug-In . SVG Version: 6.00 Build 0)  -->
<!DOCTYPE svg PUBLIC "-//W3C//DTD SVG 1.1//EN" "http://www.w3.org/Graphics/SVG/1.1/DTD/svg11.dtd">
<svg version="1.1" id="Layer_1" xmlns="http://www.w3.org/2000/svg" xmlns:xlink="http://www.w3.org/1999/xlink" x="0px" y="0px"
	 width="750px" height="968px" viewBox="0 0 750 968" enable-background="new 0 0 750 968" xml:space="preserve">
<g>
	<path fill="#FFFFFF" stroke="#FFFFFF" stroke-width="18" stroke-miterlimit="10" d="M36.098,14h677.225
		c0,0,21.938-0.335,21.499,21.164c-0.548,26.868,0,894.277,0,894.277S735.261,953,713.323,953H36.098
		c0,0-22.098-3.109-22.098-25.955V34.828C14,34.828,12.48,14,36.098,14z"/>
	<path fill="#FF0000" d="M51.782,147.411l3.38-10.203c0,0,8.081,4.365,16.78,5.03c4.285,0.327,23.016,1.37,27.088-17.515
		c0,0,3.214-13.077-9.161-20.827c0,0-8.653-6.744-32.122-3.15L63.876,54H110v11.338l-36.75-0.375l-3.719,25.125
		c0,0,20.984-4.375,35.172,9.375s5.092,34.587,4.148,36.25c-0.746,1.316-9.426,18.813-35.863,17.313
		C72.989,153.025,62.501,152.921,51.782,147.411z"/>
	<path fill="#FF0000" d="M697.454,809.75l-3.38,10.203c0,0-8.081-4.365-16.78-5.03c-4.285-0.327-23.016-1.37-27.089,17.515
		c0,0-3.214,13.077,9.161,20.827c0,0,8.653,6.664,32.122,3.07L685.36,903H639v-11.177l36.867,0.375l3.777-25.125
		c0,0-20.955,4.375-35.143-9.375s-5.077-34.587-4.134-36.25c0.746-1.316,9.433-18.813,35.871-17.313
		C676.239,804.135,686.735,804.239,697.454,809.75z"/>
	<polygon fill="#FF0000" points="548.324,266.659 497.299,204.215 548.324,137.882 597.405,204.215 	"/>
	<polygon fill="#FF0000" points="384.069,551.533 333.044,489.089 384.069,422.756 433.15,489.089 	"/>
	<polygon fill="#FF0000" points="203.214,266.659 152.189,204.215 203.214,137.882 252.295,204.215 	"/>
	<polygon fill="#FF0000" points="548.408,828.281 497.383,765.836 548.408,699.504 597.489,765.836 	"/>
	<polygon fill="#FF0000" points="203.298,828.281 152.273,765.836 203.298,699.504 252.379,765.836 	"/>
</g>
</svg>
