<?xml version="1.0" encoding="utf-8"?>
<!-- Generator: Adobe Illustrator 17.0.0, SVG Export Plug-In . SVG Version: 6.00 Build 0)  -->
<!DOCTYPE svg PUBLIC "-//W3C//DTD SVG 1.1//EN" "http://www.w3.org/Graphics/SVG/1.1/DTD/svg11.dtd">
<svg version="1.1" id="Layer_1" xmlns="http://www.w3.org/2000/svg" xmlns:xlink="http://www.w3.org/1999/xlink" x="0px" y="0px"
	 width="750px" height="968px" viewBox="0 0 750 968" enable-background="new 0 0 750 968" xml:space="preserve">
<g>
	<path fill="#FFFFFF" stroke="#FFFFFF" stroke-width="18" stroke-miterlimit="10" d="M36.098,14h677.225
		c0,0,21.938-0.335,21.499,21.164c-0.548,26.868,0,894.277,0,894.277S735.261,953,713.323,953H36.098
		c0,0-22.098-3.109-22.098-25.955V34.828C14,34.828,12.48,14,36.098,14z"/>
	<path fill="#FF0000" d="M51.782,147.411l3.38-10.203c0,0,8.081,4.365,16.78,5.03c4.285,0.327,23.016,1.37,27.088-17.515
		c0,0,3.214-13.077-9.161-20.827c0,0-8.653-6.744-32.122-3.15L63.876,54H110v11.338l-36.75-0.375l-3.719,25.125
		c0,0,20.984-4.375,35.172,9.375s5.092,34.587,4.148,36.25c-0.746,1.316-9.426,18.813-35.863,17.313
		C72.989,153.025,62.501,152.921,51.782,147.411z"/>
	<path fill="#FF0000" d="M697.454,809.75l-3.38,10.203c0,0-8.081-4.365-16.78-5.03c-4.285-0.327-23.016-1.37-27.089,17.515
		c0,0-3.214,13.077,9.161,20.827c0,0,8.653,6.664,32.122,3.07L685.36,903H639v-11.177l36.867,0.375l3.777-25.125
		c0,0-20.955,4.375-35.143-9.375s-5.077-34.587-4.134-36.25c0.746-1.316,9.433-18.813,35.871-17.313
		C676.239,804.135,686.735,804.239,697.454,809.75z"/>
	<path fill="#FF0000" d="M203.419,150.465c3.102-3.812,8.837-8.236,12.409-10.008c11.085-5.497,18.391-3.792,24.34-2.383
		c29.005,6.869,28.397,32.644,28.397,32.644c1.193,23.657-13.006,39.904-23.147,48.847c-9.838,8.675-41.999,31.452-41.999,31.452
		s-32.113-22.778-41.937-31.452c-10.126-8.942-24.304-25.189-23.113-48.847c0,0-0.607-25.775,28.355-32.644
		c5.94-1.409,13.236-3.114,24.304,2.383C194.595,142.228,200.322,146.652,203.419,150.465z"/>
	<path fill="#FF0000" d="M548.077,150.465c3.102-3.812,8.837-8.236,12.409-10.008c11.085-5.497,18.391-3.792,24.34-2.383
		c29.005,6.869,28.397,32.644,28.397,32.644c1.193,23.657-13.006,39.904-23.147,48.847c-9.838,8.675-41.999,31.452-41.999,31.452
		s-32.113-22.778-41.937-31.452c-10.126-8.942-24.304-25.189-23.113-48.847c0,0-0.607-25.775,28.355-32.644
		c5.94-1.409,13.236-3.114,24.304,2.383C539.252,142.228,544.979,146.652,548.077,150.465z"/>
	<path fill="#FF0000" d="M385.553,450.266c3.102-3.812,8.837-8.236,12.409-10.008c11.085-5.497,18.391-3.792,24.34-2.383
		c29.005,6.869,28.397,32.644,28.397,32.644c1.193,23.657-13.006,39.904-23.147,48.846c-9.838,8.675-41.999,31.452-41.999,31.452
		s-32.113-22.778-41.937-31.452c-10.126-8.942-24.304-25.189-23.113-48.846c0,0-0.607-25.775,28.355-32.644
		c5.94-1.409,13.236-3.114,24.304,2.383C376.729,442.03,382.456,446.454,385.553,450.266z"/>
	<path fill="#FF0000" d="M548.877,817.691c-3.102,3.812-8.837,8.236-12.409,10.008c-11.085,5.497-18.391,3.792-24.341,2.383
		c-29.005-6.869-28.397-32.644-28.397-32.644c-1.193-23.657,13.006-39.904,23.147-48.846c9.838-8.675,41.999-31.452,41.999-31.452
		s32.113,22.778,41.937,31.452c10.126,8.942,24.304,25.189,23.113,48.846c0,0,0.607,25.775-28.355,32.644
		c-5.94,1.409-13.236,3.114-24.304-2.383C557.702,825.928,551.975,821.504,548.877,817.691z"/>
	<path fill="#FF0000" d="M203.22,817.691c-3.102,3.812-8.837,8.236-12.409,10.008c-11.085,5.497-18.391,3.792-24.34,2.383
		c-29.005-6.869-28.397-32.644-28.397-32.644c-1.193-23.657,13.006-39.904,23.147-48.846c9.838-8.675,41.999-31.452,41.999-31.452
		s32.113,22.778,41.937,31.452c10.126,8.942,24.304,25.189,23.113,48.846c0,0,0.607,25.775-28.355,32.644
		c-5.94,1.409-13.236,3.114-24.304-2.383C212.044,825.928,206.317,821.504,203.22,817.691z"/>
</g>
</svg>
