<?xml version="1.0" encoding="utf-8"?>
<!-- Generator: Adobe Illustrator 17.0.0, SVG Export Plug-In . SVG Version: 6.00 Build 0)  -->
<!DOCTYPE svg PUBLIC "-//W3C//DTD SVG 1.1//EN" "http://www.w3.org/Graphics/SVG/1.1/DTD/svg11.dtd">
<svg version="1.1" id="Layer_1" xmlns="http://www.w3.org/2000/svg" xmlns:xlink="http://www.w3.org/1999/xlink" x="0px" y="0px"
	 width="750px" height="968px" viewBox="0 0 750 968" enable-background="new 0 0 750 968" xml:space="preserve">
<g>
	<path fill="#FFFFFF" stroke="#FFFFFF" stroke-width="18" stroke-miterlimit="10" d="M36.098,14h677.225
		c0,0,21.938-0.335,21.499,21.164c-0.548,26.868,0,894.277,0,894.277S735.261,953,713.323,953H36.098
		c0,0-22.098-3.109-22.098-25.955V34.828C14,34.828,12.48,14,36.098,14z"/>
	<path fill="#FF0000" d="M115.35,114.242c0,0-2.37-21.87-22.5-25.5c0,0-19.63-4.37-30.37,11c0,0,1.2-17,14.94-26.87
		c0,0,11.58-9.87,28.58-8.25v-11c0,0-31.08-3.5-49.32,26.5c0,0-12.6,21.62-5.73,49c0,0,3.95,15.12,17.95,22
		c0,0,15.605,7.62,31.845-2.12C100.745,149.002,117.98,139.122,115.35,114.242z M100.98,133.872c0,0-6.88,15.37-24.5,9.5
		c-17.63-5.87-13.63-29-13.63-29c1-6.69,5.25-16.25,22.25-15.37C102.1,99.872,106.6,118.872,100.98,133.872z"/>
	<path fill="#FF0000" d="M634.005,842.487c0,0,2.37,21.87,22.5,25.5c0,0,19.63,4.37,30.37-11c0,0-1.378,17-15.118,26.87
		c0,0-11.758,9.87-28.758,8.25v11c0,0,31.258,3.5,49.498-26.5c0,0,12.689-21.62,5.819-49c0,0-3.906-15.12-17.906-22
		c0,0-15.583-7.62-31.823,2.12C648.588,807.727,631.375,817.607,634.005,842.487z M648.375,822.857c0,0,6.88-15.37,24.5-9.5
		c17.63,5.87,13.63,29,13.63,29c-1,6.69-5.25,16.25-22.25,15.37C647.255,856.857,642.755,837.857,648.375,822.857z"/>
	<path fill="#FF0000" d="M203.419,150.465c3.102-3.812,8.837-8.236,12.409-10.008c11.085-5.497,18.391-3.792,24.34-2.383
		c29.005,6.869,28.397,32.644,28.397,32.644c1.193,23.657-13.006,39.904-23.147,48.847c-9.838,8.675-41.999,31.452-41.999,31.452
		s-32.113-22.778-41.937-31.452c-10.126-8.942-24.304-25.189-23.113-48.847c0,0-0.607-25.775,28.355-32.644
		c5.94-1.409,13.236-3.114,24.304,2.383C194.595,142.228,200.322,146.652,203.419,150.465z"/>
	<path fill="#FF0000" d="M548.077,150.465c3.102-3.812,8.837-8.236,12.409-10.008c11.085-5.497,18.391-3.792,24.34-2.383
		c29.005,6.869,28.397,32.644,28.397,32.644c1.193,23.657-13.006,39.904-23.147,48.847c-9.838,8.675-41.999,31.452-41.999,31.452
		s-32.113-22.778-41.937-31.452c-10.126-8.942-24.304-25.189-23.113-48.847c0,0-0.607-25.775,28.355-32.644
		c5.94-1.409,13.236-3.114,24.304,2.383C539.252,142.228,544.979,146.652,548.077,150.465z"/>
	<path fill="#FF0000" d="M203.432,437.621c3.102-3.812,8.837-8.236,12.409-10.008c11.085-5.497,18.391-3.792,24.34-2.383
		c29.005,6.869,28.397,32.644,28.397,32.644c1.193,23.658-13.006,39.904-23.147,48.847c-9.838,8.675-41.999,31.452-41.999,31.452
		s-32.113-22.778-41.937-31.452c-10.126-8.942-24.304-25.189-23.113-48.847c0,0-0.607-25.775,28.355-32.644
		c5.94-1.409,13.236-3.114,24.304,2.383C194.608,429.385,200.334,433.809,203.432,437.621z"/>
	<path fill="#FF0000" d="M548.089,437.621c3.102-3.812,8.837-8.236,12.409-10.008c11.085-5.497,18.391-3.792,24.34-2.383
		c29.005,6.869,28.397,32.644,28.397,32.644c1.193,23.658-13.006,39.904-23.147,48.847c-9.838,8.675-41.999,31.452-41.999,31.452
		s-32.113-22.778-41.937-31.452c-10.126-8.942-24.304-25.189-23.113-48.847c0,0-0.607-25.775,28.355-32.644
		c5.94-1.409,13.236-3.114,24.304,2.383C539.265,429.385,544.992,433.809,548.089,437.621z"/>
	<path fill="#FF0000" d="M548.877,817.691c-3.102,3.812-8.837,8.236-12.409,10.008c-11.085,5.497-18.391,3.792-24.341,2.383
		c-29.005-6.869-28.397-32.644-28.397-32.644c-1.193-23.657,13.006-39.904,23.147-48.846c9.838-8.675,41.999-31.452,41.999-31.452
		s32.113,22.778,41.937,31.452c10.126,8.942,24.304,25.189,23.113,48.846c0,0,0.607,25.775-28.355,32.644
		c-5.94,1.409-13.236,3.114-24.304-2.383C557.702,825.928,551.975,821.504,548.877,817.691z"/>
	<path fill="#FF0000" d="M203.22,817.691c-3.102,3.812-8.837,8.236-12.409,10.008c-11.085,5.497-18.391,3.792-24.34,2.383
		c-29.005-6.869-28.397-32.644-28.397-32.644c-1.193-23.657,13.006-39.904,23.147-48.846c9.838-8.675,41.999-31.452,41.999-31.452
		s32.113,22.778,41.937,31.452c10.126,8.942,24.304,25.189,23.113,48.846c0,0,0.607,25.775-28.355,32.644
		c-5.94,1.409-13.236,3.114-24.304-2.383C212.044,825.928,206.317,821.504,203.22,817.691z"/>
</g>
</svg>
