<?xml version="1.0" encoding="utf-8"?>
<!-- Generator: Adobe Illustrator 17.0.0, SVG Export Plug-In . SVG Version: 6.00 Build 0)  -->
<!DOCTYPE svg PUBLIC "-//W3C//DTD SVG 1.1//EN" "http://www.w3.org/Graphics/SVG/1.1/DTD/svg11.dtd">
<svg version="1.1" id="Layer_1" xmlns="http://www.w3.org/2000/svg" xmlns:xlink="http://www.w3.org/1999/xlink" x="0px" y="0px"
	 width="750px" height="968px" viewBox="0 0 750 968" enable-background="new 0 0 750 968" xml:space="preserve">
<g>
	<path fill="#FFFFFF" stroke="#FFFFFF" stroke-width="18" stroke-miterlimit="10" d="M36.098,14h677.225
		c0,0,21.938-0.335,21.499,21.164c-0.548,26.868,0,894.277,0,894.277S735.261,953,713.323,953H36.098
		c0,0-22.098-3.109-22.098-25.955V34.828C14,34.828,12.48,14,36.098,14z"/>
	<path d="M115.35,114.242c0,0-2.37-21.87-22.5-25.5c0,0-19.63-4.37-30.37,11c0,0,1.2-17,14.94-26.87c0,0,11.58-9.87,28.58-8.25v-11
		c0,0-31.08-3.5-49.32,26.5c0,0-12.6,21.62-5.73,49c0,0,3.95,15.12,17.95,22c0,0,15.605,7.62,31.845-2.12
		C100.745,149.002,117.98,139.122,115.35,114.242z M100.98,133.872c0,0-6.88,15.37-24.5,9.5c-17.63-5.87-13.63-29-13.63-29
		c1-6.69,5.25-16.25,22.25-15.37C102.1,99.872,106.6,118.872,100.98,133.872z"/>
	<path d="M634.005,842.487c0,0,2.37,21.87,22.5,25.5c0,0,19.63,4.37,30.37-11c0,0-1.378,17-15.118,26.87
		c0,0-11.758,9.87-28.758,8.25v11c0,0,31.258,3.5,49.498-26.5c0,0,12.689-21.62,5.819-49c0,0-3.906-15.12-17.906-22
		c0,0-15.583-7.62-31.823,2.12C648.588,807.727,631.375,817.607,634.005,842.487z M648.375,822.857c0,0,6.88-15.37,24.5-9.5
		c17.63,5.87,13.63,29,13.63,29c-1,6.69-5.25,16.25-22.25,15.37C647.255,856.857,642.755,837.857,648.375,822.857z"/>
	<g>
		<path d="M201.494,217.241c-2.637,3.188-7.513,6.888-10.55,8.369c-9.424,4.597-15.635,3.171-20.693,1.993
			c-24.659-5.744-24.142-27.3-24.142-27.3c-1.014-19.785,11.057-33.372,19.679-40.851c8.364-7.255,35.706-26.304,35.706-26.304
			s27.301,19.049,35.653,26.304c8.609,7.479,20.662,21.066,19.65,40.851c0,0,0.516,21.556-24.106,27.3
			c-5.05,1.178-11.253,2.605-20.662-1.993C208.996,224.129,204.128,220.43,201.494,217.241z"/>
		<path d="M210.642,214.356c1.75,16.081,8.014,36.661,8.014,36.661h-34.408c0,0,7.282-23.722,8.523-35.675"/>
	</g>
	<g>
		<path d="M547.167,217.241c-2.637,3.188-7.513,6.888-10.549,8.369c-9.424,4.597-15.635,3.171-20.693,1.993
			c-24.659-5.744-24.142-27.3-24.142-27.3c-1.014-19.785,11.057-33.372,19.679-40.851c8.364-7.255,35.706-26.304,35.706-26.304
			s27.302,19.049,35.653,26.304c8.609,7.479,20.662,21.066,19.65,40.851c0,0,0.516,21.556-24.106,27.3
			c-5.05,1.178-11.253,2.605-20.662-1.993C554.669,224.129,549.801,220.43,547.167,217.241z"/>
		<path d="M556.315,214.356c1.75,16.081,8.014,36.661,8.014,36.661h-34.408c0,0,7.282-23.722,8.523-35.675"/>
	</g>
	<g>
		<path d="M202.494,505.241c-2.637,3.188-7.513,6.888-10.55,8.369c-9.424,4.597-15.635,3.171-20.693,1.993
			c-24.659-5.744-24.142-27.3-24.142-27.3c-1.014-19.785,11.057-33.372,19.679-40.851c8.364-7.255,35.706-26.304,35.706-26.304
			s27.301,19.049,35.653,26.304c8.609,7.479,20.662,21.066,19.65,40.851c0,0,0.516,21.556-24.106,27.3
			c-5.05,1.178-11.253,2.605-20.662-1.993C209.996,512.129,205.128,508.43,202.494,505.241z"/>
		<path d="M211.642,502.356c1.75,16.081,8.014,36.661,8.014,36.661h-34.408c0,0,7.282-23.722,8.523-35.675"/>
	</g>
	<g>
		<path d="M547.167,505.241c-2.637,3.188-7.513,6.888-10.55,8.369c-9.424,4.597-15.635,3.171-20.693,1.993
			c-24.659-5.744-24.142-27.3-24.142-27.3c-1.014-19.785,11.057-33.372,19.679-40.851c8.364-7.255,35.706-26.304,35.706-26.304
			s27.301,19.049,35.653,26.304c8.609,7.479,20.662,21.066,19.65,40.851c0,0,0.516,21.556-24.106,27.3
			c-5.05,1.178-11.253,2.605-20.662-1.993C554.669,512.129,549.801,508.43,547.167,505.241z"/>
		<path d="M556.316,502.356c1.75,16.081,8.014,36.661,8.014,36.661h-34.408c0,0,7.282-23.722,8.523-35.675"/>
	</g>
	<g>
		<path d="M547.295,749.154c2.637-3.188,7.513-6.888,10.549-8.37c9.424-4.597,15.635-3.171,20.693-1.993
			c24.659,5.744,24.142,27.3,24.142,27.3c1.014,19.785-11.057,33.372-19.679,40.851c-8.364,7.255-35.706,26.304-35.706,26.304
			s-27.302-19.049-35.653-26.304c-8.609-7.479-20.662-21.066-19.65-40.851c0,0-0.516-21.556,24.106-27.3
			c5.05-1.178,11.253-2.605,20.662,1.993C539.793,742.266,544.661,745.966,547.295,749.154z"/>
		<path d="M538.146,752.039c-1.75-16.081-8.014-36.661-8.014-36.661h34.408c0,0-7.282,23.722-8.523,35.675"/>
	</g>
	<g>
		<path d="M202.622,749.154c2.637-3.188,7.513-6.888,10.55-8.37c9.424-4.597,15.635-3.171,20.693-1.993
			c24.659,5.744,24.142,27.3,24.142,27.3c1.014,19.785-11.057,33.372-19.679,40.851c-8.364,7.255-35.706,26.304-35.706,26.304
			s-27.301-19.049-35.653-26.304c-8.609-7.479-20.662-21.066-19.65-40.851c0,0-0.516-21.556,24.106-27.3
			c5.05-1.178,11.253-2.605,20.662,1.993C195.12,742.266,199.988,745.966,202.622,749.154z"/>
		<path d="M193.474,752.039c-1.75-16.081-8.014-36.661-8.014-36.661h34.408c0,0-7.282,23.722-8.523,35.675"/>
	</g>
</g>
</svg>
