<?xml version="1.0" encoding="utf-8"?>
<!-- Generator: Adobe Illustrator 17.0.0, SVG Export Plug-In . SVG Version: 6.00 Build 0)  -->
<!DOCTYPE svg PUBLIC "-//W3C//DTD SVG 1.1//EN" "http://www.w3.org/Graphics/SVG/1.1/DTD/svg11.dtd">
<svg version="1.1" id="Layer_1" xmlns="http://www.w3.org/2000/svg" xmlns:xlink="http://www.w3.org/1999/xlink" x="0px" y="0px"
	 width="750px" height="968px" viewBox="0 0 750 968" enable-background="new 0 0 750 968" xml:space="preserve">
<g>
	<path fill="#FFFFFF" stroke="#FFFFFF" stroke-width="18" stroke-miterlimit="10" d="M36.098,14h677.225
		c0,0,21.938-0.335,21.499,21.164c-0.548,26.868,0,894.277,0,894.277S735.261,953,713.323,953H36.098
		c0,0-22.098-3.109-22.098-25.955V34.828C14,34.828,12.48,14,36.098,14z"/>
	<g>
		<path d="M198.542,203.014c0,0-15.993-15.993-26.887-20.629c-8.154-3.47-27.704-9.892-35.927,8.692
			c-5.795,13.096-0.135,25.525,2.781,28.857c4.867,5.562,13.743,9.418,27.37,4.867C176.29,221.325,198.542,203.014,198.542,203.014z
			"/>
		<path d="M199.099,202.625c0,0,15.993-15.993,20.629-26.887c3.47-8.154,9.892-27.704-8.692-35.927
			c-13.096-5.795-25.525-0.135-28.857,2.781c-5.562,4.867-9.418,13.743-4.867,27.37
			C180.788,180.373,199.099,202.625,199.099,202.625z"/>
		<path d="M199.489,202.235c0,0,15.993,15.993,26.887,20.629c8.154,3.47,27.704,9.892,35.927-8.692
			c5.795-13.096,0.135-25.525-2.781-28.857c-4.867-5.562-13.743-9.418-27.37-4.867C221.74,183.924,199.489,202.235,199.489,202.235z
			"/>
		<g>
			<path d="M199.484,202.625v52.421h-17.416C182.068,255.045,194.178,229.441,199.484,202.625z"/>
			<path d="M199.484,202.625v52.421h17.425C216.909,255.045,204.793,229.441,199.484,202.625z"/>
		</g>
	</g>
	<g>
		<path d="M544.171,203.466c0,0-15.993-15.993-26.887-20.629c-8.154-3.47-27.704-9.892-35.927,8.692
			c-5.795,13.096-0.135,25.525,2.781,28.857c4.867,5.562,13.743,9.418,27.37,4.867C521.92,221.777,544.171,203.466,544.171,203.466z
			"/>
		<path d="M544.728,203.076c0,0,15.993-15.993,20.629-26.887c3.47-8.154,9.892-27.704-8.692-35.927
			c-13.096-5.795-25.525-0.135-28.857,2.781c-5.562,4.867-9.419,13.743-4.867,27.37
			C526.417,180.825,544.728,203.076,544.728,203.076z"/>
		<path d="M545.118,202.686c0,0,15.993,15.993,26.887,20.629c8.154,3.47,27.704,9.892,35.927-8.692
			c5.795-13.096,0.135-25.525-2.781-28.857c-4.867-5.562-13.743-9.418-27.37-4.867C567.369,184.375,545.118,202.686,545.118,202.686
			z"/>
		<g>
			<path d="M545.113,203.076v52.421h-17.416C527.698,255.497,539.808,229.892,545.113,203.076z"/>
			<path d="M545.113,203.076v52.421h17.425C562.539,255.497,550.422,229.892,545.113,203.076z"/>
		</g>
	</g>
	<g>
		<path d="M543.64,490.899c0,0-15.993-15.993-26.887-20.629c-8.154-3.47-27.704-9.892-35.927,8.692
			c-5.795,13.096-0.135,25.525,2.781,28.857c4.867,5.562,13.743,9.418,27.37,4.867C521.388,509.21,543.64,490.899,543.64,490.899z"
			/>
		<path d="M544.197,490.51c0,0,15.993-15.993,20.629-26.887c3.47-8.154,9.892-27.704-8.692-35.927
			c-13.096-5.795-25.525-0.135-28.857,2.781c-5.562,4.867-9.419,13.743-4.867,27.37C525.886,468.258,544.197,490.51,544.197,490.51z
			"/>
		<path d="M544.586,490.12c0,0,15.993,15.993,26.887,20.629c8.154,3.47,27.704,9.892,35.927-8.692
			c5.795-13.096,0.135-25.525-2.781-28.857c-4.867-5.562-13.743-9.418-27.37-4.867C566.838,471.809,544.586,490.12,544.586,490.12z"
			/>
		<g>
			<path d="M544.582,490.51v52.421h-17.416C527.166,542.93,539.276,517.325,544.582,490.51z"/>
			<path d="M544.582,490.51v52.421h17.425C562.007,542.93,549.89,517.325,544.582,490.51z"/>
		</g>
	</g>
	<g>
		<path d="M199.303,490.448c0,0-15.993-15.993-26.887-20.629c-8.154-3.47-27.704-9.892-35.927,8.692
			c-5.795,13.096-0.135,25.525,2.781,28.857c4.867,5.562,13.743,9.418,27.37,4.867C177.051,508.759,199.303,490.448,199.303,490.448
			z"/>
		<path d="M199.86,490.058c0,0,15.993-15.993,20.629-26.887c3.47-8.154,9.892-27.704-8.692-35.927
			c-13.096-5.795-25.525-0.135-28.857,2.781c-5.562,4.867-9.418,13.743-4.867,27.37C181.549,467.807,199.86,490.058,199.86,490.058z
			"/>
		<path d="M200.249,489.668c0,0,15.993,15.993,26.887,20.629c8.154,3.47,27.704,9.892,35.927-8.692
			c5.795-13.096,0.135-25.525-2.781-28.857c-4.867-5.562-13.743-9.418-27.37-4.867C222.501,471.357,200.249,489.668,200.249,489.668
			z"/>
		<g>
			<path d="M200.245,490.058v52.421h-17.416C182.829,542.479,194.939,516.874,200.245,490.058z"/>
			<path d="M200.245,490.058v52.421h17.425C217.67,542.479,205.553,516.874,200.245,490.058z"/>
		</g>
	</g>
	<g>
		<path d="M545.142,770.196c0,0,15.993,15.993,26.887,20.629c8.154,3.47,27.704,9.892,35.927-8.692
			c5.795-13.096,0.135-25.525-2.781-28.857c-4.867-5.562-13.743-9.419-27.37-4.867C567.394,751.885,545.142,770.196,545.142,770.196
			z"/>
		<path d="M544.585,770.585c0,0-15.993,15.993-20.629,26.887c-3.47,8.154-9.892,27.704,8.692,35.927
			c13.096,5.795,25.525,0.135,28.857-2.781c5.562-4.867,9.418-13.743,4.867-27.37C562.896,792.837,544.585,770.585,544.585,770.585z
			"/>
		<path d="M544.195,770.975c0,0-15.993-15.993-26.887-20.629c-8.154-3.47-27.704-9.892-35.927,8.692
			c-5.795,13.096-0.135,25.525,2.781,28.857c4.867,5.562,13.743,9.419,27.37,4.867C521.944,789.286,544.195,770.975,544.195,770.975
			z"/>
		<g>
			<path d="M544.2,770.585v-52.421h17.416C561.616,718.165,549.506,743.769,544.2,770.585z"/>
			<path d="M544.2,770.585v-52.421h-17.425C526.775,718.165,538.892,743.769,544.2,770.585z"/>
		</g>
	</g>
	<g>
		<path d="M199.513,769.744c0,0,15.993,15.993,26.887,20.629c8.154,3.47,27.704,9.892,35.927-8.692
			c5.795-13.096,0.135-25.525-2.781-28.857c-4.867-5.562-13.743-9.419-27.37-4.867C221.765,751.433,199.513,769.744,199.513,769.744
			z"/>
		<path d="M198.956,770.134c0,0-15.993,15.993-20.629,26.887c-3.47,8.154-9.892,27.704,8.692,35.927
			c13.096,5.795,25.525,0.135,28.857-2.781c5.562-4.867,9.418-13.743,4.867-27.37C217.267,792.385,198.956,770.134,198.956,770.134z
			"/>
		<path d="M198.567,770.523c0,0-15.993-15.993-26.887-20.629c-8.154-3.47-27.704-9.892-35.927,8.692
			c-5.795,13.096-0.135,25.525,2.781,28.857c4.867,5.562,13.743,9.419,27.37,4.867C176.315,788.835,198.567,770.523,198.567,770.523
			z"/>
		<g>
			<path d="M198.571,770.134v-52.421h17.416C215.987,717.713,203.877,743.318,198.571,770.134z"/>
			<path d="M198.571,770.134v-52.421h-17.425C181.146,717.713,193.263,743.318,198.571,770.134z"/>
		</g>
	</g>
	<path d="M115.35,114.242c0,0-2.37-21.87-22.5-25.5c0,0-19.63-4.37-30.37,11c0,0,1.2-17,14.94-26.87c0,0,11.58-9.87,28.58-8.25v-11
		c0,0-31.08-3.5-49.32,26.5c0,0-12.6,21.62-5.73,49c0,0,3.95,15.12,17.95,22c0,0,15.605,7.62,31.845-2.12
		C100.745,149.002,117.98,139.122,115.35,114.242z M100.98,133.872c0,0-6.88,15.37-24.5,9.5c-17.63-5.87-13.63-29-13.63-29
		c1-6.69,5.25-16.25,22.25-15.37C102.1,99.872,106.6,118.872,100.98,133.872z"/>
	<path d="M634.005,842.487c0,0,2.37,21.87,22.5,25.5c0,0,19.63,4.37,30.37-11c0,0-1.378,17-15.118,26.87
		c0,0-11.758,9.87-28.758,8.25v11c0,0,31.258,3.5,49.498-26.5c0,0,12.689-21.62,5.819-49c0,0-3.906-15.12-17.906-22
		c0,0-15.583-7.62-31.823,2.12C648.588,807.727,631.375,817.607,634.005,842.487z M648.375,822.857c0,0,6.88-15.37,24.5-9.5
		c17.63,5.87,13.63,29,13.63,29c-1,6.69-5.25,16.25-22.25,15.37C647.255,856.857,642.755,837.857,648.375,822.857z"/>
</g>
</svg>
