<?xml version="1.0" encoding="utf-8"?>
<!-- Generator: Adobe Illustrator 17.0.0, SVG Export Plug-In . SVG Version: 6.00 Build 0)  -->
<!DOCTYPE svg PUBLIC "-//W3C//DTD SVG 1.1//EN" "http://www.w3.org/Graphics/SVG/1.1/DTD/svg11.dtd">
<svg version="1.1" id="Layer_1" xmlns="http://www.w3.org/2000/svg" xmlns:xlink="http://www.w3.org/1999/xlink" x="0px" y="0px"
	 width="750px" height="968px" viewBox="0 0 750 968" enable-background="new 0 0 750 968" xml:space="preserve">
<g>
	<path fill="#FFFFFF" stroke="#FFFFFF" stroke-width="18" stroke-miterlimit="10" d="M37.098,14h677.225
		c0,0,21.938-0.335,21.499,21.164c-0.548,26.868,0,894.277,0,894.277S736.261,953,714.323,953H37.098
		c0,0-22.098-3.109-22.098-25.955V34.828C15,34.828,13.48,14,37.098,14z"/>
	<g>
		<path d="M199.542,203.014c0,0-15.993-15.993-26.887-20.629c-8.154-3.47-27.704-9.892-35.927,8.692
			c-5.795,13.096-0.135,25.525,2.781,28.857c4.867,5.562,13.743,9.418,27.37,4.867C177.29,221.325,199.542,203.014,199.542,203.014z
			"/>
		<path d="M200.099,202.625c0,0,15.993-15.993,20.629-26.887c3.47-8.154,9.892-27.704-8.692-35.927
			c-13.096-5.795-25.525-0.135-28.857,2.781c-5.562,4.867-9.418,13.743-4.867,27.37
			C181.788,180.373,200.099,202.625,200.099,202.625z"/>
		<path d="M200.489,202.235c0,0,15.993,15.993,26.887,20.629c8.154,3.47,27.704,9.892,35.927-8.692
			c5.795-13.096,0.135-25.525-2.781-28.857c-4.867-5.562-13.743-9.418-27.37-4.867C222.74,183.924,200.489,202.235,200.489,202.235z
			"/>
		<g>
			<path d="M200.484,202.625v52.421h-17.416C183.068,255.045,195.178,229.441,200.484,202.625z"/>
			<path d="M200.484,202.625v52.421h17.425C217.909,255.045,205.793,229.441,200.484,202.625z"/>
		</g>
	</g>
	<g>
		<path d="M545.171,203.466c0,0-15.993-15.993-26.887-20.629c-8.154-3.47-27.704-9.892-35.927,8.692
			c-5.795,13.096-0.135,25.525,2.781,28.857c4.867,5.562,13.743,9.418,27.37,4.867C522.92,221.777,545.171,203.466,545.171,203.466z
			"/>
		<path d="M545.728,203.076c0,0,15.993-15.993,20.629-26.887c3.47-8.154,9.892-27.704-8.692-35.927
			c-13.096-5.795-25.525-0.135-28.857,2.781c-5.562,4.867-9.419,13.743-4.867,27.37
			C527.417,180.825,545.728,203.076,545.728,203.076z"/>
		<path d="M546.118,202.686c0,0,15.993,15.993,26.887,20.629c8.154,3.47,27.704,9.892,35.927-8.692
			c5.795-13.096,0.135-25.525-2.781-28.857c-4.867-5.562-13.743-9.418-27.37-4.867C568.369,184.375,546.118,202.686,546.118,202.686
			z"/>
		<g>
			<path d="M546.113,203.076v52.421h-17.416C528.698,255.497,540.808,229.892,546.113,203.076z"/>
			<path d="M546.113,203.076v52.421h17.425C563.539,255.497,551.422,229.892,546.113,203.076z"/>
		</g>
	</g>
	<g>
		<path d="M544.64,490.899c0,0-15.993-15.993-26.887-20.629c-8.154-3.47-27.704-9.892-35.927,8.692
			c-5.795,13.096-0.135,25.525,2.781,28.857c4.867,5.562,13.743,9.418,27.37,4.867C522.388,509.21,544.64,490.899,544.64,490.899z"
			/>
		<path d="M545.197,490.51c0,0,15.993-15.993,20.629-26.887c3.47-8.154,9.892-27.704-8.692-35.927
			c-13.096-5.795-25.525-0.135-28.857,2.781c-5.562,4.867-9.419,13.743-4.867,27.37C526.886,468.258,545.197,490.51,545.197,490.51z
			"/>
		<path d="M545.586,490.12c0,0,15.993,15.993,26.887,20.629c8.154,3.47,27.704,9.892,35.927-8.692
			c5.795-13.096,0.135-25.525-2.781-28.857c-4.867-5.562-13.743-9.418-27.37-4.867C567.838,471.809,545.586,490.12,545.586,490.12z"
			/>
		<g>
			<path d="M545.582,490.51v52.421h-17.416C528.166,542.93,540.276,517.325,545.582,490.51z"/>
			<path d="M545.582,490.51v52.421h17.425C563.007,542.93,550.89,517.325,545.582,490.51z"/>
		</g>
	</g>
	<g>
		<path d="M373.355,320.759c0,0-15.993-15.993-26.887-20.629c-8.154-3.47-27.704-9.892-35.927,8.692
			c-5.795,13.096-0.135,25.525,2.781,28.857c4.867,5.562,13.743,9.418,27.37,4.867C351.104,339.07,373.355,320.759,373.355,320.759z
			"/>
		<path d="M373.912,320.369c0,0,15.993-15.993,20.629-26.887c3.47-8.154,9.892-27.704-8.692-35.927
			c-13.096-5.795-25.525-0.135-28.857,2.781c-5.562,4.867-9.418,13.743-4.867,27.37
			C355.601,298.118,373.912,320.369,373.912,320.369z"/>
		<path d="M374.302,319.979c0,0,15.993,15.993,26.887,20.629c8.154,3.47,27.704,9.892,35.927-8.692
			c5.795-13.096,0.135-25.525-2.781-28.857c-4.867-5.562-13.743-9.418-27.37-4.867C396.553,301.668,374.302,319.979,374.302,319.979
			z"/>
		<g>
			<path d="M374.297,320.369v52.421h-17.416C356.881,372.789,368.992,347.185,374.297,320.369z"/>
			<path d="M374.297,320.369v52.421h17.425C391.723,372.789,379.606,347.185,374.297,320.369z"/>
		</g>
	</g>
	<g>
		<path d="M200.303,490.448c0,0-15.993-15.993-26.887-20.629c-8.154-3.47-27.704-9.892-35.927,8.692
			c-5.795,13.096-0.135,25.525,2.781,28.857c4.867,5.562,13.743,9.418,27.37,4.867C178.051,508.759,200.303,490.448,200.303,490.448
			z"/>
		<path d="M200.86,490.058c0,0,15.993-15.993,20.629-26.887c3.47-8.154,9.892-27.704-8.692-35.927
			c-13.096-5.795-25.525-0.135-28.857,2.781c-5.562,4.867-9.418,13.743-4.867,27.37C182.549,467.807,200.86,490.058,200.86,490.058z
			"/>
		<path d="M201.249,489.668c0,0,15.993,15.993,26.887,20.629c8.154,3.47,27.704,9.892,35.927-8.692
			c5.795-13.096,0.135-25.525-2.781-28.857c-4.867-5.562-13.743-9.418-27.37-4.867C223.501,471.357,201.249,489.668,201.249,489.668
			z"/>
		<g>
			<path d="M201.245,490.058v52.421h-17.416C183.829,542.479,195.939,516.874,201.245,490.058z"/>
			<path d="M201.245,490.058v52.421h17.425C218.67,542.479,206.553,516.874,201.245,490.058z"/>
		</g>
	</g>
	<g>
		<path d="M546.142,770.196c0,0,15.993,15.993,26.887,20.629c8.154,3.47,27.704,9.892,35.927-8.692
			c5.795-13.096,0.135-25.525-2.781-28.857c-4.867-5.562-13.743-9.419-27.37-4.867C568.394,751.885,546.142,770.196,546.142,770.196
			z"/>
		<path d="M545.585,770.585c0,0-15.993,15.993-20.629,26.887c-3.47,8.154-9.892,27.704,8.692,35.927
			c13.096,5.795,25.525,0.135,28.857-2.781c5.562-4.867,9.418-13.743,4.867-27.37C563.896,792.837,545.585,770.585,545.585,770.585z
			"/>
		<path d="M545.195,770.975c0,0-15.993-15.993-26.887-20.629c-8.154-3.47-27.704-9.892-35.927,8.692
			c-5.795,13.096-0.135,25.525,2.781,28.857c4.867,5.562,13.743,9.419,27.37,4.867C522.944,789.286,545.195,770.975,545.195,770.975
			z"/>
		<g>
			<path d="M545.2,770.585v-52.421h17.416C562.616,718.165,550.506,743.769,545.2,770.585z"/>
			<path d="M545.2,770.585v-52.421h-17.425C527.775,718.165,539.892,743.769,545.2,770.585z"/>
		</g>
	</g>
	<g>
		<path d="M200.513,769.744c0,0,15.993,15.993,26.887,20.629c8.154,3.47,27.704,9.892,35.927-8.692
			c5.795-13.096,0.135-25.525-2.781-28.857c-4.867-5.562-13.743-9.419-27.37-4.867C222.765,751.433,200.513,769.744,200.513,769.744
			z"/>
		<path d="M199.956,770.134c0,0-15.993,15.993-20.629,26.887c-3.47,8.154-9.892,27.704,8.692,35.927
			c13.096,5.795,25.525,0.135,28.857-2.781c5.562-4.867,9.418-13.743,4.867-27.37C218.267,792.385,199.956,770.134,199.956,770.134z
			"/>
		<path d="M199.567,770.523c0,0-15.993-15.993-26.887-20.629c-8.154-3.47-27.704-9.892-35.927,8.692
			c-5.795,13.096-0.135,25.525,2.781,28.857c4.867,5.562,13.743,9.419,27.37,4.867C177.315,788.835,199.567,770.523,199.567,770.523
			z"/>
		<g>
			<path d="M199.571,770.134v-52.421h17.416C216.987,717.713,204.877,743.318,199.571,770.134z"/>
			<path d="M199.571,770.134v-52.421h-17.425C182.146,717.713,194.263,743.318,199.571,770.134z"/>
		</g>
	</g>
</g>
<polygon points="51.5,54.5 51.5,65.25 99,65.25 56.75,151.5 70.75,151.5 113,63.5 113,54.5 "/>
<polygon points="697.827,901.317 697.827,890.567 650.327,890.567 692.577,804.317 678.577,804.317 636.327,892.317 
	636.327,901.317 "/>
</svg>
