<?xml version="1.0" encoding="utf-8"?>
<!-- Generator: Adobe Illustrator 17.0.0, SVG Export Plug-In . SVG Version: 6.00 Build 0)  -->
<!DOCTYPE svg PUBLIC "-//W3C//DTD SVG 1.1//EN" "http://www.w3.org/Graphics/SVG/1.1/DTD/svg11.dtd">
<svg version="1.1" id="Layer_1" xmlns="http://www.w3.org/2000/svg" xmlns:xlink="http://www.w3.org/1999/xlink" x="0px" y="0px"
	 width="750px" height="968px" viewBox="0 0 750 968" enable-background="new 0 0 750 968" xml:space="preserve">
<g>
	<g>
		<path fill="#FFFFFF" stroke="#FFFFFF" stroke-width="18" stroke-miterlimit="10" d="M37.053,15h677.225
			c0,0,21.938-0.472,21.499,21.027c-0.548,26.868,0,894.345,0,894.345S736.216,954,714.278,954H37.053
			c0,0-22.053-3.382-22.053-26.227V35.556C15,35.556,13.434,15,37.053,15z"/>
	</g>
	<polygon points="51.455,55.227 51.455,65.977 98.955,65.977 56.705,152.227 70.705,152.227 112.955,64.227 112.955,55.227 	"/>
	<polygon points="697.781,902.044 697.781,891.294 650.281,891.294 692.531,805.044 678.531,805.044 636.281,893.044 
		636.281,902.044 	"/>
	<g>
		<path d="M199.494,220.241c-2.637,3.188-7.513,6.888-10.55,8.369c-9.424,4.597-15.635,3.171-20.693,1.993
			c-24.659-5.744-24.142-27.3-24.142-27.3c-1.014-19.785,11.057-33.372,19.679-40.851c8.364-7.255,35.706-26.304,35.706-26.304
			s27.301,19.049,35.653,26.304c8.609,7.479,20.662,21.066,19.65,40.851c0,0,0.516,21.556-24.106,27.3
			c-5.05,1.178-11.253,2.605-20.662-1.993C206.996,227.129,202.128,223.43,199.494,220.241z"/>
		<path d="M208.642,217.356c1.75,16.081,8.014,36.661,8.014,36.661h-34.408c0,0,7.282-23.722,8.523-35.675"/>
	</g>
	<g>
		<path d="M545.167,220.241c-2.637,3.188-7.513,6.888-10.549,8.369c-9.424,4.597-15.635,3.171-20.693,1.993
			c-24.659-5.744-24.142-27.3-24.142-27.3c-1.014-19.785,11.057-33.372,19.679-40.851c8.364-7.255,35.706-26.304,35.706-26.304
			s27.302,19.049,35.653,26.304c8.609,7.479,20.662,21.066,19.65,40.851c0,0,0.516,21.556-24.106,27.3
			c-5.05,1.178-11.253,2.605-20.662-1.993C552.669,227.129,547.801,223.43,545.167,220.241z"/>
		<path d="M554.315,217.356c1.75,16.081,8.014,36.661,8.014,36.661h-34.408c0,0,7.282-23.722,8.523-35.675"/>
	</g>
	<g>
		<path d="M200.494,508.241c-2.637,3.188-7.513,6.888-10.55,8.369c-9.424,4.597-15.635,3.171-20.693,1.993
			c-24.659-5.744-24.142-27.3-24.142-27.3c-1.014-19.785,11.057-33.372,19.679-40.851c8.364-7.255,35.706-26.304,35.706-26.304
			s27.301,19.049,35.653,26.304c8.609,7.479,20.662,21.066,19.65,40.851c0,0,0.516,21.556-24.106,27.3
			c-5.05,1.178-11.253,2.605-20.662-1.993C207.996,515.129,203.128,511.43,200.494,508.241z"/>
		<path d="M209.642,505.356c1.75,16.081,8.014,36.661,8.014,36.661h-34.408c0,0,7.282-23.722,8.523-35.675"/>
	</g>
	<g>
		<path d="M545.167,508.241c-2.637,3.188-7.513,6.888-10.55,8.369c-9.424,4.597-15.635,3.171-20.693,1.993
			c-24.659-5.744-24.142-27.3-24.142-27.3c-1.014-19.785,11.057-33.372,19.679-40.851c8.364-7.255,35.706-26.304,35.706-26.304
			s27.301,19.049,35.653,26.304c8.609,7.479,20.662,21.066,19.65,40.851c0,0,0.516,21.556-24.106,27.3
			c-5.05,1.178-11.253,2.605-20.662-1.993C552.669,515.129,547.801,511.43,545.167,508.241z"/>
		<path d="M554.316,505.356c1.75,16.081,8.014,36.661,8.014,36.661h-34.408c0,0,7.282-23.722,8.523-35.675"/>
	</g>
	<g>
		<path d="M545.295,752.154c2.637-3.188,7.513-6.888,10.549-8.37c9.424-4.597,15.635-3.171,20.693-1.993
			c24.659,5.744,24.142,27.3,24.142,27.3c1.014,19.785-11.057,33.372-19.679,40.851c-8.364,7.255-35.706,26.304-35.706,26.304
			s-27.302-19.049-35.653-26.304c-8.609-7.479-20.662-21.066-19.65-40.851c0,0-0.516-21.556,24.106-27.3
			c5.05-1.178,11.253-2.605,20.662,1.993C537.793,745.266,542.661,748.966,545.295,752.154z"/>
		<path d="M536.146,755.039c-1.75-16.081-8.014-36.661-8.014-36.661h34.408c0,0-7.282,23.722-8.523,35.675"/>
	</g>
	<g>
		<path d="M200.622,752.154c2.637-3.188,7.513-6.888,10.55-8.37c9.424-4.597,15.635-3.171,20.693-1.993
			c24.659,5.744,24.142,27.3,24.142,27.3c1.014,19.785-11.057,33.372-19.679,40.851c-8.364,7.255-35.706,26.304-35.706,26.304
			s-27.301-19.049-35.653-26.304c-8.609-7.479-20.662-21.066-19.65-40.851c0,0-0.516-21.556,24.106-27.3
			c5.05-1.178,11.253-2.605,20.662,1.993C193.12,745.266,197.988,748.966,200.622,752.154z"/>
		<path d="M191.474,755.039c-1.75-16.081-8.014-36.661-8.014-36.661h34.408c0,0-7.282,23.722-8.523,35.675"/>
	</g>
	<g>
		<path d="M375.167,338.105c-2.637,3.188-7.513,6.888-10.55,8.369c-9.424,4.597-15.635,3.171-20.693,1.993
			c-24.659-5.744-24.142-27.3-24.142-27.3c-1.014-19.785,11.057-33.372,19.679-40.851c8.364-7.255,35.706-26.304,35.706-26.304
			s27.301,19.049,35.653,26.304c8.609,7.479,20.662,21.066,19.65,40.851c0,0,0.516,21.556-24.106,27.3
			c-5.05,1.178-11.253,2.605-20.662-1.993C382.669,344.993,377.801,341.293,375.167,338.105z"/>
		<path d="M384.315,335.22c1.75,16.081,8.014,36.661,8.014,36.661h-34.408c0,0,7.282-23.722,8.523-35.675"/>
	</g>
</g>
</svg>
