<?xml version="1.0" encoding="utf-8"?>
<!-- Generator: Adobe Illustrator 17.0.0, SVG Export Plug-In . SVG Version: 6.00 Build 0)  -->
<!DOCTYPE svg PUBLIC "-//W3C//DTD SVG 1.1//EN" "http://www.w3.org/Graphics/SVG/1.1/DTD/svg11.dtd">
<svg version="1.1" id="Layer_1" xmlns="http://www.w3.org/2000/svg" xmlns:xlink="http://www.w3.org/1999/xlink" x="0px" y="0px"
	 width="750px" height="968px" viewBox="0 0 750 968" enable-background="new 0 0 750 968" xml:space="preserve">
<g>
	<g>
		<path fill="#FFFFFF" stroke="#FFFFFF" stroke-width="18" stroke-miterlimit="10" d="M36.053,14.727h677.225
			c0,0,21.938-0.335,21.499,21.164c-0.548,26.868,0,894.277,0,894.277s0.439,23.559-21.499,23.559H36.053
			c0,0-22.098-3.109-22.098-25.955V35.556C13.955,35.556,12.434,14.727,36.053,14.727z"/>
	</g>
	<polygon fill="#FF0000" points="50.455,55.227 50.455,65.977 97.955,65.977 55.705,152.227 69.705,152.227 111.955,64.227 
		111.955,55.227 	"/>
	<polygon fill="#FF0000" points="696.781,902.044 696.781,891.294 649.281,891.294 691.531,805.044 677.531,805.044 
		635.281,893.044 635.281,902.044 	"/>
	<path fill="#FF0000" d="M200.419,153.465c3.102-3.812,8.837-8.236,12.409-10.008c11.085-5.497,18.391-3.792,24.34-2.383
		c29.005,6.869,28.397,32.644,28.397,32.644c1.193,23.657-13.006,39.904-23.147,48.847c-9.838,8.675-41.999,31.452-41.999,31.452
		s-32.113-22.778-41.937-31.452c-10.126-8.942-24.304-25.189-23.113-48.847c0,0-0.607-25.775,28.355-32.644
		c5.94-1.409,13.236-3.114,24.304,2.383C191.595,145.228,197.322,149.652,200.419,153.465z"/>
	<path fill="#FF0000" d="M545.077,153.465c3.102-3.812,8.837-8.236,12.409-10.008c11.085-5.497,18.391-3.792,24.34-2.383
		c29.005,6.869,28.397,32.644,28.397,32.644c1.193,23.657-13.006,39.904-23.147,48.847c-9.838,8.675-41.999,31.452-41.999,31.452
		s-32.113-22.778-41.937-31.452c-10.126-8.942-24.304-25.189-23.113-48.847c0,0-0.607-25.775,28.355-32.644
		c5.94-1.409,13.236-3.114,24.304,2.383C536.252,145.228,541.979,149.652,545.077,153.465z"/>
	<path fill="#FF0000" d="M200.432,440.621c3.102-3.812,8.837-8.236,12.409-10.008c11.085-5.497,18.391-3.792,24.34-2.383
		c29.005,6.869,28.397,32.644,28.397,32.644c1.193,23.658-13.006,39.904-23.147,48.847c-9.838,8.675-41.999,31.452-41.999,31.452
		s-32.113-22.778-41.937-31.452c-10.126-8.942-24.304-25.189-23.113-48.847c0,0-0.607-25.775,28.355-32.644
		c5.94-1.409,13.236-3.114,24.304,2.383C191.608,432.385,197.334,436.809,200.432,440.621z"/>
	<path fill="#FF0000" d="M545.089,440.621c3.102-3.812,8.837-8.236,12.409-10.008c11.085-5.497,18.391-3.792,24.34-2.383
		c29.005,6.869,28.397,32.644,28.397,32.644c1.193,23.658-13.006,39.904-23.147,48.847c-9.838,8.675-41.999,31.452-41.999,31.452
		s-32.113-22.778-41.937-31.452c-10.126-8.942-24.304-25.189-23.113-48.847c0,0-0.607-25.775,28.355-32.644
		c5.94-1.409,13.236-3.114,24.304,2.383C536.265,432.385,541.992,436.809,545.089,440.621z"/>
	<path fill="#FF0000" d="M374.951,269.568c3.102-3.812,8.837-8.236,12.409-10.008c11.085-5.497,18.391-3.792,24.34-2.383
		c29.005,6.869,28.397,32.644,28.397,32.644c1.193,23.658-13.006,39.904-23.147,48.847c-9.838,8.675-41.999,31.452-41.999,31.452
		s-32.113-22.778-41.937-31.452c-10.126-8.942-24.304-25.189-23.113-48.847c0,0-0.607-25.775,28.355-32.644
		c5.94-1.409,13.236-3.114,24.304,2.383C366.127,261.331,371.854,265.755,374.951,269.568z"/>
	<path fill="#FF0000" d="M545.877,820.691c-3.102,3.812-8.837,8.236-12.409,10.008c-11.085,5.497-18.391,3.792-24.34,2.383
		c-29.005-6.869-28.397-32.644-28.397-32.644c-1.193-23.657,13.006-39.904,23.147-48.846c9.838-8.675,41.999-31.452,41.999-31.452
		s32.113,22.778,41.937,31.452c10.126,8.942,24.304,25.189,23.113,48.846c0,0,0.607,25.775-28.355,32.644
		c-5.94,1.409-13.236,3.114-24.304-2.383C554.702,828.928,548.975,824.504,545.877,820.691z"/>
	<path fill="#FF0000" d="M200.22,820.691c-3.102,3.812-8.837,8.236-12.409,10.008c-11.085,5.497-18.391,3.792-24.34,2.383
		c-29.005-6.869-28.397-32.644-28.397-32.644c-1.193-23.657,13.006-39.904,23.147-48.846c9.838-8.675,41.999-31.452,41.999-31.452
		s32.113,22.778,41.937,31.452c10.126,8.942,24.304,25.189,23.113,48.846c0,0,0.607,25.775-28.355,32.644
		c-5.94,1.409-13.236,3.114-24.304-2.383C209.044,828.928,203.317,824.504,200.22,820.691z"/>
</g>
</svg>
