<?xml version="1.0" encoding="utf-8"?>
<!-- Generator: Adobe Illustrator 17.0.0, SVG Export Plug-In . SVG Version: 6.00 Build 0)  -->
<!DOCTYPE svg PUBLIC "-//W3C//DTD SVG 1.1//EN" "http://www.w3.org/Graphics/SVG/1.1/DTD/svg11.dtd">
<svg version="1.1" id="Layer_1" xmlns="http://www.w3.org/2000/svg" xmlns:xlink="http://www.w3.org/1999/xlink" x="0px" y="0px"
	 width="750px" height="968px" viewBox="0 0 750 968" enable-background="new 0 0 750 968" xml:space="preserve">
<g>
	<g>
		<path fill="#FFFFFF" stroke="#FFFFFF" stroke-width="18" stroke-miterlimit="10" d="M37.053,15h677.225
			c0,0,21.938-0.472,21.499,21.027c-0.548,26.868,0,894.345,0,894.345S736.216,954,714.278,954H37.053
			c0,0-22.053-3.382-22.053-26.227V35.556C15,35.556,13.434,15,37.053,15z"/>
	</g>
	<polygon fill="#FF0000" points="51.455,55.227 51.455,65.977 98.955,65.977 56.705,152.227 70.705,152.227 112.955,64.227 
		112.955,55.227 	"/>
	<polygon fill="#FF0000" points="697.781,902.044 697.781,891.294 650.281,891.294 692.531,805.044 678.531,805.044 
		636.281,893.044 636.281,902.044 	"/>
	<polygon fill="#FF0000" points="546.324,268.659 495.299,206.215 546.324,139.882 595.405,206.215 	"/>
	<polygon fill="#FF0000" points="378.972,376.762 327.947,314.318 378.972,247.986 428.053,314.318 	"/>
	<polygon fill="#FF0000" points="201.214,268.659 150.189,206.215 201.214,139.882 250.295,206.215 	"/>
	<polygon fill="#FF0000" points="546.324,555.836 495.299,493.392 546.324,427.06 595.405,493.392 	"/>
	<polygon fill="#FF0000" points="201.214,555.836 150.189,493.392 201.214,427.06 250.295,493.392 	"/>
	<polygon fill="#FF0000" points="546.408,830.281 495.383,767.836 546.408,701.504 595.489,767.836 	"/>
	<polygon fill="#FF0000" points="201.298,830.281 150.273,767.836 201.298,701.504 250.379,767.836 	"/>
</g>
</svg>
