<?xml version="1.0" encoding="utf-8"?>
<!-- Generator: Adobe Illustrator 17.0.0, SVG Export Plug-In . SVG Version: 6.00 Build 0)  -->
<!DOCTYPE svg PUBLIC "-//W3C//DTD SVG 1.1//EN" "http://www.w3.org/Graphics/SVG/1.1/DTD/svg11.dtd">
<svg version="1.1" id="Layer_1" xmlns="http://www.w3.org/2000/svg" xmlns:xlink="http://www.w3.org/1999/xlink" x="0px" y="0px"
	 width="750px" height="968px" viewBox="0 0 750 968" enable-background="new 0 0 750 968" xml:space="preserve">
<g>
	<path fill="#FFFFFF" stroke="#FFFFFF" stroke-width="18" stroke-miterlimit="10" d="M36.098,14h677.225
		c0,0,21.938-0.335,21.499,21.164c-0.548,26.868,0,894.277,0,894.277S735.261,953,713.323,953H36.098
		c0,0-22.098-3.109-22.098-25.955V34.828C14,34.828,12.48,14,36.098,14z"/>
	<path fill="#FF0000" d="M114.916,122.39c0,0-1.34-14.84-19.5-21.84c0,0,19.54-9.16,15.66-27.33
		c-4-18.79-19.031-20.167-28.871-20.167c-11.66,0-27.959,8.837-29.129,24.997c-1.16,16.17,15.5,23.84,15.5,23.84s-24.66,7.83-18,35
		c0,0,6.17,18,32,17.5C82.576,154.39,116.576,155.55,114.916,122.39z M67.916,70.39c0,0,7.5-11.5,21.5-7.92
		c6.87,1.77,18.37,12.91,5.5,27.75c-2.1,2.42-6.34,5.5-10.84,6.83C84.076,97.05,57.576,90.89,67.916,70.39z M98.076,138.39
		c-8.5,10.83-33.66,9-35.16-9.37c-1.5-18.36,17.33-22.8,17.33-22.8C101.746,111.05,106.576,127.55,98.076,138.39z"/>
	<path fill="#FF0000" d="M699.742,872.207c0,0-1.34-14.84-19.5-21.84c0,0,19.54-9.16,15.66-27.33
		c-4-18.79-19.031-20.167-28.871-20.167c-11.66,0-27.959,8.837-29.129,24.997c-1.16,16.17,15.5,23.84,15.5,23.84s-24.66,7.83-18,35
		c0,0,6.17,18,32,17.5C667.402,904.207,701.402,905.367,699.742,872.207z M652.742,820.207c0,0,7.5-11.5,21.5-7.92
		c6.87,1.77,18.37,12.91,5.5,27.75c-2.1,2.42-6.34,5.5-10.84,6.83C668.902,846.867,642.402,840.707,652.742,820.207z
		 M682.902,888.207c-8.5,10.83-33.66,9-35.16-9.37c-1.5-18.36,17.33-22.8,17.33-22.8
		C686.572,860.867,691.402,877.367,682.902,888.207z"/>
	<path fill="#FF0000" d="M203.419,150.465c3.102-3.812,8.837-8.236,12.409-10.008c11.085-5.497,18.391-3.792,24.34-2.383
		c29.005,6.869,28.397,32.644,28.397,32.644c1.193,23.657-13.006,39.904-23.147,48.847c-9.838,8.675-41.999,31.452-41.999,31.452
		s-32.113-22.778-41.937-31.452c-10.126-8.942-24.304-25.189-23.113-48.847c0,0-0.607-25.775,28.355-32.644
		c5.94-1.409,13.236-3.114,24.304,2.383C194.595,142.228,200.322,146.652,203.419,150.465z"/>
	<path fill="#FF0000" d="M548.077,150.465c3.102-3.812,8.837-8.236,12.409-10.008c11.085-5.497,18.391-3.792,24.34-2.383
		c29.005,6.869,28.397,32.644,28.397,32.644c1.193,23.657-13.006,39.904-23.147,48.847c-9.838,8.675-41.999,31.452-41.999,31.452
		s-32.113-22.778-41.937-31.452c-10.126-8.942-24.304-25.189-23.113-48.847c0,0-0.607-25.775,28.355-32.644
		c5.94-1.409,13.236-3.114,24.304,2.383C539.252,142.228,544.979,146.652,548.077,150.465z"/>
	<path fill="#FF0000" d="M203.432,437.621c3.102-3.812,8.837-8.236,12.409-10.008c11.085-5.497,18.391-3.792,24.34-2.383
		c29.005,6.869,28.397,32.644,28.397,32.644c1.193,23.658-13.006,39.904-23.147,48.847c-9.838,8.675-41.999,31.452-41.999,31.452
		s-32.113-22.778-41.937-31.452c-10.126-8.942-24.304-25.189-23.113-48.847c0,0-0.607-25.775,28.355-32.644
		c5.94-1.409,13.236-3.114,24.304,2.383C194.608,429.385,200.334,433.809,203.432,437.621z"/>
	<path fill="#FF0000" d="M548.089,437.621c3.102-3.812,8.837-8.236,12.409-10.008c11.085-5.497,18.391-3.792,24.34-2.383
		c29.005,6.869,28.397,32.644,28.397,32.644c1.193,23.658-13.006,39.904-23.147,48.847c-9.838,8.675-41.999,31.452-41.999,31.452
		s-32.113-22.778-41.937-31.452c-10.126-8.942-24.304-25.189-23.113-48.847c0,0-0.607-25.775,28.355-32.644
		c5.94-1.409,13.236-3.114,24.304,2.383C539.265,429.385,544.992,433.809,548.089,437.621z"/>
	<path fill="#FF0000" d="M548.877,817.691c-3.102,3.812-8.837,8.236-12.409,10.008c-11.085,5.497-18.391,3.792-24.341,2.383
		c-29.005-6.869-28.397-32.644-28.397-32.644c-1.193-23.657,13.006-39.904,23.147-48.846c9.838-8.675,41.999-31.452,41.999-31.452
		s32.113,22.778,41.937,31.452c10.126,8.942,24.304,25.189,23.113,48.846c0,0,0.607,25.775-28.355,32.644
		c-5.94,1.409-13.236,3.114-24.304-2.383C557.702,825.928,551.975,821.504,548.877,817.691z"/>
	<path fill="#FF0000" d="M203.22,817.691c-3.102,3.812-8.837,8.236-12.409,10.008c-11.085,5.497-18.391,3.792-24.34,2.383
		c-29.005-6.869-28.397-32.644-28.397-32.644c-1.193-23.657,13.006-39.904,23.147-48.846c9.838-8.675,41.999-31.452,41.999-31.452
		s32.113,22.778,41.937,31.452c10.126,8.942,24.304,25.189,23.113,48.846c0,0,0.607,25.775-28.355,32.644
		c-5.94,1.409-13.236,3.114-24.304-2.383C212.044,825.928,206.317,821.504,203.22,817.691z"/>
	<path fill="#FF0000" d="M380.951,264.469c3.102-3.812,8.837-8.236,12.409-10.008c11.085-5.497,18.391-3.792,24.34-2.383
		c29.005,6.869,28.397,32.644,28.397,32.644c1.193,23.658-13.006,39.904-23.147,48.847c-9.838,8.675-41.999,31.452-41.999,31.452
		s-32.113-22.778-41.937-31.452c-10.126-8.942-24.304-25.189-23.113-48.847c0,0-0.607-25.775,28.355-32.644
		c5.94-1.409,13.236-3.114,24.304,2.383C372.127,256.232,377.854,260.656,380.951,264.469z"/>
	<path fill="#FF0000" d="M381.049,703.531c-3.102,3.812-8.837,8.236-12.409,10.008c-11.085,5.497-18.391,3.792-24.34,2.383
		c-29.005-6.869-28.397-32.644-28.397-32.644c-1.193-23.657,13.006-39.904,23.147-48.847c9.838-8.675,41.999-31.452,41.999-31.452
		s32.113,22.778,41.937,31.452c10.126,8.942,24.304,25.189,23.113,48.847c0,0,0.607,25.775-28.355,32.644
		c-5.94,1.409-13.236,3.114-24.304-2.383C389.873,711.768,384.146,707.344,381.049,703.531z"/>
</g>
</svg>
