<?xml version="1.0" encoding="utf-8"?>
<!-- Generator: Adobe Illustrator 17.0.0, SVG Export Plug-In . SVG Version: 6.00 Build 0)  -->
<!DOCTYPE svg PUBLIC "-//W3C//DTD SVG 1.1//EN" "http://www.w3.org/Graphics/SVG/1.1/DTD/svg11.dtd">
<svg version="1.1" id="Layer_1" xmlns="http://www.w3.org/2000/svg" xmlns:xlink="http://www.w3.org/1999/xlink" x="0px" y="0px"
	 width="750px" height="968px" viewBox="0 0 750 968" enable-background="new 0 0 750 968" xml:space="preserve">
<path fill="#FFFFFF" stroke="#FFFFFF" stroke-width="18" stroke-miterlimit="10" d="M36.098,14h677.225
	c0,0,21.938-0.335,21.499,21.164c-0.548,26.868,0,894.277,0,894.277S735.261,953,713.323,953H36.098c0,0-22.098-3.109-22.098-25.955
	V34.828C14,34.828,12.48,14,36.098,14z"/>
<path fill="#FF0000" d="M114.916,122.39c0,0-1.34-14.84-19.5-21.84c0,0,19.54-9.16,15.66-27.33
	c-4-18.79-19.031-20.167-28.871-20.167c-11.66,0-27.959,8.837-29.129,24.997c-1.16,16.17,15.5,23.84,15.5,23.84s-24.66,7.83-18,35
	c0,0,6.17,18,32,17.5C82.576,154.39,116.576,155.55,114.916,122.39z M67.916,70.39c0,0,7.5-11.5,21.5-7.92
	c6.87,1.77,18.37,12.91,5.5,27.75c-2.1,2.42-6.34,5.5-10.84,6.83C84.076,97.05,57.576,90.89,67.916,70.39z M98.076,138.39
	c-8.5,10.83-33.66,9-35.16-9.37c-1.5-18.36,17.33-22.8,17.33-22.8C101.746,111.05,106.576,127.55,98.076,138.39z"/>
<path fill="#FF0000" d="M699.742,872.207c0,0-1.34-14.84-19.5-21.84c0,0,19.54-9.16,15.66-27.33
	c-4-18.79-19.031-20.167-28.871-20.167c-11.66,0-27.959,8.837-29.129,24.997c-1.16,16.17,15.5,23.84,15.5,23.84s-24.66,7.83-18,35
	c0,0,6.17,18,32,17.5C667.402,904.207,701.402,905.367,699.742,872.207z M652.742,820.207c0,0,7.5-11.5,21.5-7.92
	c6.87,1.77,18.37,12.91,5.5,27.75c-2.1,2.42-6.34,5.5-10.84,6.83C668.902,846.867,642.402,840.707,652.742,820.207z
	 M682.902,888.207c-8.5,10.83-33.66,9-35.16-9.37c-1.5-18.36,17.33-22.8,17.33-22.8
	C686.572,860.867,691.402,877.367,682.902,888.207z"/>
<polygon fill="#FF0000" points="548.324,266.659 497.299,204.215 548.324,137.882 597.405,204.215 "/>
<polygon fill="#FF0000" points="380.972,374.762 329.947,312.318 380.972,245.986 430.053,312.318 "/>
<polygon fill="#FF0000" points="382.472,722.111 331.447,659.667 382.472,593.334 431.553,659.667 "/>
<polygon fill="#FF0000" points="203.214,266.659 152.189,204.215 203.214,137.882 252.295,204.215 "/>
<polygon fill="#FF0000" points="548.324,553.836 497.299,491.392 548.324,425.06 597.405,491.392 "/>
<polygon fill="#FF0000" points="203.214,553.836 152.189,491.392 203.214,425.06 252.295,491.392 "/>
<polygon fill="#FF0000" points="548.408,828.281 497.383,765.836 548.408,699.504 597.489,765.836 "/>
<polygon fill="#FF0000" points="203.298,828.281 152.273,765.836 203.298,699.504 252.379,765.836 "/>
</svg>
