<?xml version="1.0" encoding="utf-8"?>
<!-- Generator: Adobe Illustrator 17.0.0, SVG Export Plug-In . SVG Version: 6.00 Build 0)  -->
<!DOCTYPE svg PUBLIC "-//W3C//DTD SVG 1.1//EN" "http://www.w3.org/Graphics/SVG/1.1/DTD/svg11.dtd">
<svg version="1.1" id="Layer_1" xmlns="http://www.w3.org/2000/svg" xmlns:xlink="http://www.w3.org/1999/xlink" x="0px" y="0px"
	 width="750px" height="968px" viewBox="0 0 750 968" enable-background="new 0 0 750 968" xml:space="preserve">
<g>
	<path fill="#FFFFFF" stroke="#FFFFFF" stroke-width="18" stroke-miterlimit="10" d="M36.098,14h677.225
		c0,0,21.938-0.335,21.499,21.164c-0.548,26.868,0,894.277,0,894.277S735.261,953,713.323,953H36.098
		c0,0-22.098-3.109-22.098-25.955V34.828C14,34.828,12.48,14,36.098,14z"/>
	<g>
		<path d="M198.542,203.014c0,0-15.993-15.993-26.887-20.629c-8.154-3.47-27.704-9.892-35.927,8.692
			c-5.795,13.096-0.135,25.525,2.781,28.857c4.867,5.562,13.743,9.418,27.37,4.867C176.29,221.325,198.542,203.014,198.542,203.014z
			"/>
		<path d="M199.099,202.625c0,0,15.993-15.993,20.629-26.887c3.47-8.154,9.892-27.704-8.692-35.927
			c-13.096-5.795-25.525-0.135-28.857,2.781c-5.562,4.867-9.418,13.743-4.867,27.37
			C180.788,180.373,199.099,202.625,199.099,202.625z"/>
		<path d="M199.489,202.235c0,0,15.993,15.993,26.887,20.629c8.154,3.47,27.704,9.892,35.927-8.692
			c5.795-13.096,0.135-25.525-2.781-28.857c-4.867-5.562-13.743-9.418-27.37-4.867C221.74,183.924,199.489,202.235,199.489,202.235z
			"/>
		<g>
			<path d="M199.484,202.625v52.421h-17.416C182.068,255.045,194.178,229.441,199.484,202.625z"/>
			<path d="M199.484,202.625v52.421h17.425C216.909,255.045,204.793,229.441,199.484,202.625z"/>
		</g>
	</g>
	<g>
		<path d="M544.171,203.466c0,0-15.993-15.993-26.887-20.629c-8.154-3.47-27.704-9.892-35.927,8.692
			c-5.795,13.096-0.135,25.525,2.781,28.857c4.867,5.562,13.743,9.418,27.37,4.867C521.92,221.777,544.171,203.466,544.171,203.466z
			"/>
		<path d="M544.728,203.076c0,0,15.993-15.993,20.629-26.887c3.47-8.154,9.892-27.704-8.692-35.927
			c-13.096-5.795-25.525-0.135-28.857,2.781c-5.562,4.867-9.419,13.743-4.867,27.37
			C526.417,180.825,544.728,203.076,544.728,203.076z"/>
		<path d="M545.118,202.686c0,0,15.993,15.993,26.887,20.629c8.154,3.47,27.704,9.892,35.927-8.692
			c5.795-13.096,0.135-25.525-2.781-28.857c-4.867-5.562-13.743-9.418-27.37-4.867C567.369,184.375,545.118,202.686,545.118,202.686
			z"/>
		<g>
			<path d="M545.113,203.076v52.421h-17.416C527.698,255.497,539.808,229.892,545.113,203.076z"/>
			<path d="M545.113,203.076v52.421h17.425C562.539,255.497,550.422,229.892,545.113,203.076z"/>
		</g>
	</g>
	<g>
		<path d="M543.64,490.899c0,0-15.993-15.993-26.887-20.629c-8.154-3.47-27.704-9.892-35.927,8.692
			c-5.795,13.096-0.135,25.525,2.781,28.857c4.867,5.562,13.743,9.418,27.37,4.867C521.388,509.21,543.64,490.899,543.64,490.899z"
			/>
		<path d="M544.197,490.51c0,0,15.993-15.993,20.629-26.887c3.47-8.154,9.892-27.704-8.692-35.927
			c-13.096-5.795-25.525-0.135-28.857,2.781c-5.562,4.867-9.419,13.743-4.867,27.37C525.886,468.258,544.197,490.51,544.197,490.51z
			"/>
		<path d="M544.586,490.12c0,0,15.993,15.993,26.887,20.629c8.154,3.47,27.704,9.892,35.927-8.692
			c5.795-13.096,0.135-25.525-2.781-28.857c-4.867-5.562-13.743-9.418-27.37-4.867C566.838,471.809,544.586,490.12,544.586,490.12z"
			/>
		<g>
			<path d="M544.582,490.51v52.421h-17.416C527.166,542.93,539.276,517.325,544.582,490.51z"/>
			<path d="M544.582,490.51v52.421h17.425C562.007,542.93,549.89,517.325,544.582,490.51z"/>
		</g>
	</g>
	<g>
		<path d="M372.355,320.759c0,0-15.993-15.993-26.887-20.629c-8.154-3.47-27.704-9.892-35.927,8.692
			c-5.795,13.096-0.135,25.525,2.781,28.857c4.867,5.562,13.743,9.418,27.37,4.867C350.104,339.07,372.355,320.759,372.355,320.759z
			"/>
		<path d="M372.912,320.369c0,0,15.993-15.993,20.629-26.887c3.47-8.154,9.892-27.704-8.692-35.927
			c-13.096-5.795-25.525-0.135-28.857,2.781c-5.562,4.867-9.418,13.743-4.867,27.37
			C354.601,298.118,372.912,320.369,372.912,320.369z"/>
		<path d="M373.302,319.979c0,0,15.993,15.993,26.887,20.629c8.154,3.47,27.704,9.892,35.927-8.692
			c5.795-13.096,0.135-25.525-2.781-28.857c-4.867-5.562-13.743-9.418-27.37-4.867C395.553,301.668,373.302,319.979,373.302,319.979
			z"/>
		<g>
			<path d="M373.297,320.369v52.421h-17.416C355.881,372.789,367.992,347.185,373.297,320.369z"/>
			<path d="M373.297,320.369v52.421h17.425C390.723,372.789,378.606,347.185,373.297,320.369z"/>
		</g>
	</g>
	<g>
		<path d="M373.775,659.833c0,0,15.993,15.993,26.887,20.629c8.154,3.47,27.704,9.892,35.927-8.692
			c5.795-13.096,0.135-25.525-2.781-28.857c-4.867-5.562-13.743-9.418-27.37-4.867C396.027,641.522,373.775,659.833,373.775,659.833
			z"/>
		<path d="M373.218,660.223c0,0-15.993,15.993-20.629,26.887c-3.47,8.154-9.892,27.703,8.692,35.927
			c13.096,5.795,25.525,0.135,28.857-2.781c5.562-4.867,9.418-13.743,4.867-27.37C391.529,682.474,373.218,660.223,373.218,660.223z
			"/>
		<path d="M372.829,660.613c0,0-15.993-15.993-26.887-20.629c-8.154-3.47-27.704-9.892-35.927,8.692
			c-5.795,13.096-0.135,25.525,2.781,28.857c4.867,5.562,13.743,9.418,27.37,4.867C350.577,678.924,372.829,660.613,372.829,660.613
			z"/>
		<g>
			<path d="M372.833,660.223v-52.421h17.416C390.249,607.802,378.139,633.407,372.833,660.223z"/>
			<path d="M372.833,660.223v-52.421h-17.425C355.408,607.802,367.525,633.407,372.833,660.223z"/>
		</g>
	</g>
	<g>
		<path d="M199.303,490.448c0,0-15.993-15.993-26.887-20.629c-8.154-3.47-27.704-9.892-35.927,8.692
			c-5.795,13.096-0.135,25.525,2.781,28.857c4.867,5.562,13.743,9.418,27.37,4.867C177.051,508.759,199.303,490.448,199.303,490.448
			z"/>
		<path d="M199.86,490.058c0,0,15.993-15.993,20.629-26.887c3.47-8.154,9.892-27.704-8.692-35.927
			c-13.096-5.795-25.525-0.135-28.857,2.781c-5.562,4.867-9.418,13.743-4.867,27.37C181.549,467.807,199.86,490.058,199.86,490.058z
			"/>
		<path d="M200.249,489.668c0,0,15.993,15.993,26.887,20.629c8.154,3.47,27.704,9.892,35.927-8.692
			c5.795-13.096,0.135-25.525-2.781-28.857c-4.867-5.562-13.743-9.418-27.37-4.867C222.501,471.357,200.249,489.668,200.249,489.668
			z"/>
		<g>
			<path d="M200.245,490.058v52.421h-17.416C182.829,542.479,194.939,516.874,200.245,490.058z"/>
			<path d="M200.245,490.058v52.421h17.425C217.67,542.479,205.553,516.874,200.245,490.058z"/>
		</g>
	</g>
	<g>
		<path d="M545.142,770.196c0,0,15.993,15.993,26.887,20.629c8.154,3.47,27.704,9.892,35.927-8.692
			c5.795-13.096,0.135-25.525-2.781-28.857c-4.867-5.562-13.743-9.419-27.37-4.867C567.394,751.885,545.142,770.196,545.142,770.196
			z"/>
		<path d="M544.585,770.585c0,0-15.993,15.993-20.629,26.887c-3.47,8.154-9.892,27.704,8.692,35.927
			c13.096,5.795,25.525,0.135,28.857-2.781c5.562-4.867,9.418-13.743,4.867-27.37C562.896,792.837,544.585,770.585,544.585,770.585z
			"/>
		<path d="M544.195,770.975c0,0-15.993-15.993-26.887-20.629c-8.154-3.47-27.704-9.892-35.927,8.692
			c-5.795,13.096-0.135,25.525,2.781,28.857c4.867,5.562,13.743,9.419,27.37,4.867C521.944,789.286,544.195,770.975,544.195,770.975
			z"/>
		<g>
			<path d="M544.2,770.585v-52.421h17.416C561.616,718.165,549.506,743.769,544.2,770.585z"/>
			<path d="M544.2,770.585v-52.421h-17.425C526.775,718.165,538.892,743.769,544.2,770.585z"/>
		</g>
	</g>
	<g>
		<path d="M199.513,769.744c0,0,15.993,15.993,26.887,20.629c8.154,3.47,27.704,9.892,35.927-8.692
			c5.795-13.096,0.135-25.525-2.781-28.857c-4.867-5.562-13.743-9.419-27.37-4.867C221.765,751.433,199.513,769.744,199.513,769.744
			z"/>
		<path d="M198.956,770.134c0,0-15.993,15.993-20.629,26.887c-3.47,8.154-9.892,27.704,8.692,35.927
			c13.096,5.795,25.525,0.135,28.857-2.781c5.562-4.867,9.418-13.743,4.867-27.37C217.267,792.385,198.956,770.134,198.956,770.134z
			"/>
		<path d="M198.567,770.523c0,0-15.993-15.993-26.887-20.629c-8.154-3.47-27.704-9.892-35.927,8.692
			c-5.795,13.096-0.135,25.525,2.781,28.857c4.867,5.562,13.743,9.419,27.37,4.867C176.315,788.835,198.567,770.523,198.567,770.523
			z"/>
		<g>
			<path d="M198.571,770.134v-52.421h17.416C215.987,717.713,203.877,743.318,198.571,770.134z"/>
			<path d="M198.571,770.134v-52.421h-17.425C181.146,717.713,193.263,743.318,198.571,770.134z"/>
		</g>
	</g>
	<path d="M114.916,122.39c0,0-1.34-14.84-19.5-21.84c0,0,19.54-9.16,15.66-27.33c-4-18.79-19.031-20.167-28.871-20.167
		c-11.66,0-27.959,8.837-29.129,24.997c-1.16,16.17,15.5,23.84,15.5,23.84s-24.66,7.83-18,35c0,0,6.17,18,32,17.5
		C82.576,154.39,116.576,155.55,114.916,122.39z M67.916,70.39c0,0,7.5-11.5,21.5-7.92c6.87,1.77,18.37,12.91,5.5,27.75
		c-2.1,2.42-6.34,5.5-10.84,6.83C84.076,97.05,57.576,90.89,67.916,70.39z M98.076,138.39c-8.5,10.83-33.66,9-35.16-9.37
		c-1.5-18.36,17.33-22.8,17.33-22.8C101.746,111.05,106.576,127.55,98.076,138.39z"/>
	<path d="M699.742,872.207c0,0-1.34-14.84-19.5-21.84c0,0,19.54-9.16,15.66-27.33c-4-18.79-19.031-20.167-28.871-20.167
		c-11.66,0-27.959,8.837-29.129,24.997c-1.16,16.17,15.5,23.84,15.5,23.84s-24.66,7.83-18,35c0,0,6.17,18,32,17.5
		C667.402,904.207,701.402,905.367,699.742,872.207z M652.742,820.207c0,0,7.5-11.5,21.5-7.92c6.87,1.77,18.37,12.91,5.5,27.75
		c-2.1,2.42-6.34,5.5-10.84,6.83C668.902,846.867,642.402,840.707,652.742,820.207z M682.902,888.207c-8.5,10.83-33.66,9-35.16-9.37
		c-1.5-18.36,17.33-22.8,17.33-22.8C686.572,860.867,691.402,877.367,682.902,888.207z"/>
</g>
</svg>
