<?xml version="1.0" encoding="utf-8"?>
<!-- Generator: Adobe Illustrator 17.0.0, SVG Export Plug-In . SVG Version: 6.00 Build 0)  -->
<!DOCTYPE svg PUBLIC "-//W3C//DTD SVG 1.1//EN" "http://www.w3.org/Graphics/SVG/1.1/DTD/svg11.dtd">
<svg version="1.1" id="Layer_1" xmlns="http://www.w3.org/2000/svg" xmlns:xlink="http://www.w3.org/1999/xlink" x="0px" y="0px"
	 width="750px" height="968px" viewBox="0 0 750 968" enable-background="new 0 0 750 968" xml:space="preserve">
<g>
	<path fill="#FFFFFF" stroke="#FFFFFF" stroke-width="18" stroke-miterlimit="10" d="M36.098,14h677.225
		c0,0,21.938-0.335,21.499,21.164c-0.548,26.868,0,894.277,0,894.277S735.261,953,713.323,953H36.098
		c0,0-22.098-3.109-22.098-25.955V34.828C14,34.828,12.48,14,36.098,14z"/>
	<path fill="#FF0000" d="M78.567,53.481c-33.87,3.75-38,52.25-13.62,61.63c24.38,9.37,36.88-8.5,36.88-8.5
		c0.74,3.12-5.474,24.37-18.974,31.37S58,143.231,58,143.231v11c0,0,13.854,0,22.854-3.38c29.02-10.88,32.247-34.39,33.857-48.62
		C116.341,87.851,112.447,49.731,78.567,53.481z M101.327,91.981c0,0-1.88,18.87-23.38,15.87s-20.78-42.64,1.88-44.24
		C102.477,62.001,101.327,91.981,101.327,91.981z"/>
	<path fill="#FF0000" d="M670.617,903.79c33.87-3.75,38-52.25,13.62-61.63c-24.38-9.37-36.88,8.5-36.88,8.5
		c-0.74-3.12,5.882-24.37,19.382-31.37S692,814.04,692,814.04v-11c0,0-14.262,0-23.262,3.38c-29.02,10.88-32.451,34.39-34.061,48.62
		C633.048,869.42,636.737,907.54,670.617,903.79z M647.857,865.29c0,0,1.88-18.87,23.38-15.87s20.78,42.64-1.88,44.24
		C646.707,895.27,647.857,865.29,647.857,865.29z"/>
	<polygon fill="#FF0000" points="546.824,270.159 495.799,207.715 546.824,141.382 595.905,207.715 	"/>
	<polygon fill="#FF0000" points="201.714,270.159 150.689,207.715 201.714,141.382 250.795,207.715 	"/>
	<polygon fill="#FF0000" points="546.908,831.781 495.883,769.336 546.908,703.004 595.989,769.336 	"/>
	<polygon fill="#FF0000" points="201.798,831.781 150.773,769.336 201.798,703.004 250.879,769.336 	"/>
	<polygon fill="#FF0000" points="546.788,641.598 495.763,579.153 546.788,512.821 595.869,579.153 	"/>
	<polygon fill="#FF0000" points="201.678,641.598 150.653,579.153 201.678,512.821 250.759,579.153 	"/>
	<polygon fill="#FF0000" points="546.288,448.789 495.263,386.345 546.288,320.012 595.369,386.345 	"/>
	<polygon fill="#FF0000" points="201.178,448.789 150.153,386.345 201.178,320.012 250.259,386.345 	"/>
	<polygon fill="#FF0000" points="380.945,548.159 329.921,485.715 380.945,419.382 430.026,485.715 	"/>
</g>
</svg>
