<?xml version="1.0" encoding="utf-8"?>
<!-- Generator: Adobe Illustrator 17.0.0, SVG Export Plug-In . SVG Version: 6.00 Build 0)  -->
<!DOCTYPE svg PUBLIC "-//W3C//DTD SVG 1.1//EN" "http://www.w3.org/Graphics/SVG/1.1/DTD/svg11.dtd">
<svg version="1.1" id="Layer_1" xmlns="http://www.w3.org/2000/svg" xmlns:xlink="http://www.w3.org/1999/xlink" x="0px" y="0px"
	 width="750px" height="968px" viewBox="0 0 750 968" enable-background="new 0 0 750 968" xml:space="preserve">
<g>
	<path fill="#FFFFFF" stroke="#FFFFFF" stroke-width="18" stroke-miterlimit="10" d="M36.098,14h677.225
		c0,0,21.938-0.335,21.499,21.164c-0.548,26.868,0,894.277,0,894.277S735.261,953,713.323,953H36.098
		c0,0-22.098-3.109-22.098-25.955V34.828C14,34.828,12.48,14,36.098,14z"/>
	<path d="M78.567,53.481c-33.87,3.75-38,52.25-13.62,61.63c24.38,9.37,36.88-8.5,36.88-8.5c0.74,3.12-5.474,24.37-18.974,31.37
		S58,143.231,58,143.231v11c0,0,13.854,0,22.854-3.38c29.02-10.88,32.247-34.39,33.857-48.62
		C116.341,87.851,112.447,49.731,78.567,53.481z M101.327,91.981c0,0-1.88,18.87-23.38,15.87s-20.78-42.64,1.88-44.24
		C102.477,62.001,101.327,91.981,101.327,91.981z"/>
	<path d="M670.617,903.79c33.87-3.75,38-52.25,13.62-61.63c-24.38-9.37-36.88,8.5-36.88,8.5c-0.74-3.12,5.882-24.37,19.382-31.37
		S692,814.04,692,814.04v-11c0,0-14.262,0-23.262,3.38c-29.02,10.88-32.451,34.39-34.061,48.62
		C633.048,869.42,636.737,907.54,670.617,903.79z M647.857,865.29c0,0,1.88-18.87,23.38-15.87s20.78,42.64-1.88,44.24
		C646.707,895.27,647.857,865.29,647.857,865.29z"/>
	<g>
		<path d="M201.494,217.241c-2.637,3.188-7.513,6.888-10.55,8.369c-9.424,4.597-15.635,3.171-20.693,1.993
			c-24.659-5.744-24.142-27.3-24.142-27.3c-1.014-19.785,11.057-33.372,19.679-40.851c8.364-7.255,35.706-26.304,35.706-26.304
			s27.301,19.049,35.653,26.304c8.609,7.479,20.662,21.066,19.65,40.851c0,0,0.516,21.556-24.106,27.3
			c-5.05,1.178-11.253,2.605-20.662-1.993C208.996,224.129,204.128,220.43,201.494,217.241z"/>
		<path d="M210.642,214.356c1.75,16.081,8.014,36.661,8.014,36.661h-34.408c0,0,7.282-23.722,8.523-35.675"/>
	</g>
	<g>
		<path d="M547.167,217.241c-2.637,3.188-7.513,6.888-10.549,8.369c-9.424,4.597-15.635,3.171-20.693,1.993
			c-24.659-5.744-24.142-27.3-24.142-27.3c-1.014-19.785,11.057-33.372,19.679-40.851c8.364-7.255,35.706-26.304,35.706-26.304
			s27.302,19.049,35.653,26.304c8.609,7.479,20.662,21.066,19.65,40.851c0,0,0.516,21.556-24.106,27.3
			c-5.05,1.178-11.253,2.605-20.662-1.993C554.669,224.129,549.801,220.43,547.167,217.241z"/>
		<path d="M556.315,214.356c1.75,16.081,8.014,36.661,8.014,36.661h-34.408c0,0,7.282-23.722,8.523-35.675"/>
	</g>
	<g>
		<path d="M547.295,749.154c2.637-3.188,7.513-6.888,10.549-8.37c9.424-4.597,15.635-3.171,20.693-1.993
			c24.659,5.744,24.142,27.3,24.142,27.3c1.014,19.785-11.057,33.372-19.679,40.851c-8.364,7.255-35.706,26.304-35.706,26.304
			s-27.302-19.049-35.653-26.304c-8.609-7.479-20.662-21.066-19.65-40.851c0,0-0.516-21.556,24.106-27.3
			c5.05-1.178,11.253-2.605,20.662,1.993C539.793,742.266,544.661,745.966,547.295,749.154z"/>
		<path d="M538.146,752.039c-1.75-16.081-8.014-36.661-8.014-36.661h34.408c0,0-7.282,23.722-8.523,35.675"/>
	</g>
	<g>
		<path d="M202.622,749.154c2.637-3.188,7.513-6.888,10.55-8.37c9.424-4.597,15.635-3.171,20.693-1.993
			c24.659,5.744,24.142,27.3,24.142,27.3c1.014,19.785-11.057,33.372-19.679,40.851c-8.364,7.255-35.706,26.304-35.706,26.304
			s-27.301-19.049-35.653-26.304c-8.609-7.479-20.662-21.066-19.65-40.851c0,0-0.516-21.556,24.106-27.3
			c5.05-1.178,11.253-2.605,20.662,1.993C195.12,742.266,199.988,745.966,202.622,749.154z"/>
		<path d="M193.474,752.039c-1.75-16.081-8.014-36.661-8.014-36.661h34.408c0,0-7.282,23.722-8.523,35.675"/>
	</g>
	<g>
		<path d="M199.966,415.138c-2.637,3.188-7.513,6.888-10.55,8.369c-9.424,4.597-15.635,3.171-20.693,1.993
			c-24.659-5.744-24.142-27.3-24.142-27.3c-1.014-19.785,11.057-33.372,19.679-40.851c8.364-7.255,35.706-26.304,35.706-26.304
			s27.301,19.049,35.653,26.304c8.609,7.479,20.662,21.066,19.65,40.851c0,0,0.516,21.556-24.106,27.3
			c-5.05,1.178-11.253,2.605-20.662-1.993C207.468,422.027,202.599,418.327,199.966,415.138z"/>
		<path d="M209.114,412.253c1.75,16.081,8.014,36.661,8.014,36.661h-34.408c0,0,7.282-23.722,8.523-35.675"/>
	</g>
	<g>
		<path d="M545.639,415.138c-2.637,3.188-7.513,6.888-10.55,8.369c-9.424,4.597-15.635,3.171-20.693,1.993
			c-24.659-5.744-24.142-27.3-24.142-27.3c-1.014-19.785,11.057-33.372,19.679-40.851c8.364-7.255,35.706-26.304,35.706-26.304
			s27.301,19.049,35.653,26.304c8.609,7.479,20.662,21.066,19.65,40.851c0,0,0.516,21.556-24.106,27.3
			c-5.05,1.178-11.253,2.605-20.662-1.993C553.141,422.027,548.272,418.327,545.639,415.138z"/>
		<path d="M554.787,412.253c1.75,16.081,8.014,36.661,8.014,36.661h-34.408c0,0,7.282-23.722,8.523-35.675"/>
	</g>
	<g>
		<path d="M544.795,558.821c2.637-3.188,7.513-6.888,10.549-8.37c9.424-4.597,15.635-3.171,20.693-1.993
			c24.659,5.744,24.142,27.3,24.142,27.3c1.014,19.785-11.057,33.372-19.679,40.851c-8.364,7.255-35.706,26.304-35.706,26.304
			s-27.302-19.049-35.653-26.304c-8.609-7.479-20.662-21.066-19.65-40.851c0,0-0.516-21.556,24.106-27.3
			c5.05-1.178,11.253-2.605,20.662,1.993C537.293,551.932,542.161,555.632,544.795,558.821z"/>
		<path d="M535.647,561.706c-1.75-16.081-8.014-36.661-8.014-36.661h34.408c0,0-7.282,23.722-8.523,35.675"/>
	</g>
	<g>
		<path d="M200.122,558.821c2.637-3.188,7.513-6.888,10.55-8.37c9.424-4.597,15.635-3.171,20.693-1.993
			c24.659,5.744,24.142,27.3,24.142,27.3c1.014,19.785-11.057,33.372-19.679,40.851c-8.364,7.255-35.706,26.304-35.706,26.304
			s-27.301-19.049-35.653-26.304c-8.609-7.479-20.662-21.066-19.65-40.851c0,0-0.516-21.556,24.106-27.3
			c5.05-1.178,11.253-2.605,20.662,1.993C192.62,551.932,197.489,555.632,200.122,558.821z"/>
		<path d="M190.974,561.706c-1.75-16.081-8.014-36.661-8.014-36.661h34.408c0,0-7.282,23.722-8.523,35.675"/>
	</g>
	<g>
		<path d="M380.139,509.138c-2.637,3.188-7.513,6.888-10.55,8.37c-9.424,4.597-15.635,3.171-20.693,1.993
			c-24.659-5.744-24.142-27.3-24.142-27.3c-1.014-19.785,11.057-33.372,19.679-40.851c8.364-7.255,35.706-26.304,35.706-26.304
			s27.301,19.049,35.653,26.304c8.609,7.479,20.662,21.066,19.65,40.851c0,0,0.516,21.556-24.106,27.3
			c-5.05,1.178-11.253,2.605-20.662-1.993C387.641,516.027,382.772,512.327,380.139,509.138z"/>
		<path d="M389.287,506.253c1.75,16.081,8.014,36.661,8.014,36.661h-34.408c0,0,7.282-23.722,8.523-35.675"/>
	</g>
</g>
</svg>
