<?xml version="1.0" encoding="utf-8"?>
<!-- Generator: Adobe Illustrator 17.0.0, SVG Export Plug-In . SVG Version: 6.00 Build 0)  -->
<!DOCTYPE svg PUBLIC "-//W3C//DTD SVG 1.1//EN" "http://www.w3.org/Graphics/SVG/1.1/DTD/svg11.dtd">
<svg version="1.1" id="Layer_1" xmlns="http://www.w3.org/2000/svg" xmlns:xlink="http://www.w3.org/1999/xlink" x="0px" y="0px"
	 width="750px" height="968px" viewBox="0 0 750 968" enable-background="new 0 0 750 968" xml:space="preserve">
<g>
	<path fill="#FFFFFF" stroke="#FFFFFF" stroke-width="18" stroke-miterlimit="10" d="M36.098,14h677.225
		c0,0,21.938-0.335,21.499,21.164c-0.548,26.868,0,894.277,0,894.277S735.261,953,713.323,953H36.098
		c0,0-22.098-3.109-22.098-25.955V34.828C14,34.828,12.48,14,36.098,14z"/>
	<g>
		<path d="M198.542,203.014c0,0-15.993-15.993-26.887-20.629c-8.154-3.47-27.704-9.892-35.927,8.692
			c-5.795,13.096-0.135,25.525,2.781,28.857c4.867,5.562,13.743,9.418,27.37,4.867C176.29,221.325,198.542,203.014,198.542,203.014z
			"/>
		<path d="M199.099,202.625c0,0,15.993-15.993,20.629-26.887c3.47-8.154,9.892-27.704-8.692-35.927
			c-13.096-5.795-25.525-0.135-28.857,2.781c-5.562,4.867-9.418,13.743-4.867,27.37
			C180.788,180.373,199.099,202.625,199.099,202.625z"/>
		<path d="M199.489,202.235c0,0,15.993,15.993,26.887,20.629c8.154,3.47,27.704,9.892,35.927-8.692
			c5.795-13.096,0.135-25.525-2.781-28.857c-4.867-5.562-13.743-9.418-27.37-4.867C221.74,183.924,199.489,202.235,199.489,202.235z
			"/>
		<g>
			<path d="M199.484,202.625v52.421h-17.416C182.068,255.045,194.178,229.441,199.484,202.625z"/>
			<path d="M199.484,202.625v52.421h17.425C216.909,255.045,204.793,229.441,199.484,202.625z"/>
		</g>
	</g>
	<g>
		<path d="M544.171,203.466c0,0-15.993-15.993-26.887-20.629c-8.154-3.47-27.704-9.892-35.927,8.692
			c-5.795,13.096-0.135,25.525,2.781,28.857c4.867,5.562,13.743,9.418,27.37,4.867C521.92,221.777,544.171,203.466,544.171,203.466z
			"/>
		<path d="M544.728,203.076c0,0,15.993-15.993,20.629-26.887c3.47-8.154,9.892-27.704-8.692-35.927
			c-13.096-5.795-25.525-0.135-28.857,2.781c-5.562,4.867-9.419,13.743-4.867,27.37
			C526.417,180.825,544.728,203.076,544.728,203.076z"/>
		<path d="M545.118,202.686c0,0,15.993,15.993,26.887,20.629c8.154,3.47,27.704,9.892,35.927-8.692
			c5.795-13.096,0.135-25.525-2.781-28.857c-4.867-5.562-13.743-9.418-27.37-4.867C567.369,184.375,545.118,202.686,545.118,202.686
			z"/>
		<g>
			<path d="M545.113,203.076v52.421h-17.416C527.698,255.497,539.808,229.892,545.113,203.076z"/>
			<path d="M545.113,203.076v52.421h17.425C562.539,255.497,550.422,229.892,545.113,203.076z"/>
		</g>
	</g>
	<g>
		<path d="M543.727,396.758c0,0-15.993-15.993-26.887-20.629c-8.154-3.47-27.704-9.892-35.927,8.692
			c-5.795,13.096-0.135,25.525,2.781,28.857c4.867,5.562,13.743,9.418,27.37,4.867C521.475,415.069,543.727,396.758,543.727,396.758
			z"/>
		<path d="M544.284,396.369c0,0,15.993-15.993,20.629-26.887c3.47-8.154,9.892-27.704-8.692-35.927
			c-13.096-5.795-25.525-0.135-28.857,2.781c-5.562,4.867-9.418,13.743-4.867,27.37
			C525.973,374.117,544.284,396.369,544.284,396.369z"/>
		<path d="M544.674,395.979c0,0,15.993,15.993,26.887,20.629c8.154,3.47,27.704,9.892,35.927-8.692
			c5.795-13.096,0.135-25.525-2.781-28.857c-4.867-5.562-13.743-9.418-27.37-4.867C566.925,377.668,544.674,395.979,544.674,395.979
			z"/>
		<g>
			<path d="M544.669,396.369v52.421h-17.416C527.253,448.789,539.363,423.184,544.669,396.369z"/>
			<path d="M544.669,396.369v52.421h17.425C562.094,448.789,549.978,423.184,544.669,396.369z"/>
		</g>
	</g>
	<g>
		<path d="M379.027,490.841c0,0-15.993-15.993-26.887-20.629c-8.154-3.47-27.704-9.892-35.927,8.692
			c-5.795,13.096-0.135,25.525,2.781,28.857c4.867,5.562,13.743,9.418,27.37,4.867C356.775,509.152,379.027,490.841,379.027,490.841
			z"/>
		<path d="M379.584,490.452c0,0,15.993-15.993,20.629-26.887c3.47-8.154,9.892-27.704-8.692-35.927
			c-13.096-5.795-25.525-0.135-28.857,2.781c-5.562,4.867-9.418,13.743-4.867,27.37C361.273,468.2,379.584,490.452,379.584,490.452z
			"/>
		<path d="M379.973,490.062c0,0,15.993,15.993,26.887,20.629c8.154,3.47,27.704,9.892,35.927-8.692
			c5.795-13.096,0.135-25.525-2.781-28.857c-4.867-5.562-13.743-9.418-27.37-4.867C402.225,471.751,379.973,490.062,379.973,490.062
			z"/>
		<g>
			<path d="M379.969,490.452v52.421h-17.416C362.553,542.872,374.663,517.267,379.969,490.452z"/>
			<path d="M379.969,490.452v52.421h17.425C397.394,542.872,385.277,517.267,379.969,490.452z"/>
		</g>
	</g>
	<g>
		<path d="M199.763,396.758c0,0-15.993-15.993-26.887-20.629c-8.154-3.47-27.704-9.892-35.927,8.692
			c-5.795,13.096-0.135,25.525,2.781,28.857c4.867,5.562,13.743,9.418,27.37,4.867C177.511,415.069,199.763,396.758,199.763,396.758
			z"/>
		<path d="M200.32,396.369c0,0,15.993-15.993,20.629-26.887c3.47-8.154,9.892-27.704-8.692-35.927
			c-13.096-5.795-25.525-0.135-28.857,2.781c-5.562,4.867-9.418,13.743-4.867,27.37C182.009,374.117,200.32,396.369,200.32,396.369z
			"/>
		<path d="M200.709,395.979c0,0,15.993,15.993,26.887,20.629c8.154,3.47,27.704,9.892,35.927-8.692
			c5.795-13.096,0.135-25.525-2.781-28.857c-4.867-5.562-13.743-9.418-27.37-4.867C222.961,377.668,200.709,395.979,200.709,395.979
			z"/>
		<g>
			<path d="M200.705,396.369v52.421h-17.416C183.289,448.789,195.399,423.184,200.705,396.369z"/>
			<path d="M200.705,396.369v52.421h17.425C218.13,448.789,206.013,423.184,200.705,396.369z"/>
		</g>
	</g>
	<g>
		<path d="M201.304,576.82c0,0,15.993,15.993,26.887,20.629c8.154,3.47,27.704,9.892,35.927-8.692
			c5.795-13.096,0.135-25.525-2.781-28.857c-4.867-5.562-13.743-9.419-27.37-4.867C223.556,558.509,201.304,576.82,201.304,576.82z"
			/>
		<path d="M200.747,577.209c0,0-15.993,15.993-20.629,26.887c-3.47,8.154-9.892,27.704,8.692,35.927
			c13.096,5.795,25.525,0.135,28.857-2.781c5.562-4.867,9.418-13.743,4.867-27.37C219.058,599.461,200.747,577.209,200.747,577.209z
			"/>
		<path d="M200.358,577.599c0,0-15.993-15.993-26.887-20.629c-8.154-3.47-27.704-9.892-35.927,8.692
			c-5.795,13.096-0.135,25.525,2.781,28.857c4.867,5.562,13.743,9.419,27.37,4.867C178.106,595.91,200.358,577.599,200.358,577.599z
			"/>
		<g>
			<path d="M200.362,577.209v-52.421h17.416C217.778,524.789,205.668,550.394,200.362,577.209z"/>
			<path d="M200.362,577.209v-52.421h-17.425C182.937,524.789,195.054,550.394,200.362,577.209z"/>
		</g>
	</g>
	<g>
		<path d="M545.168,576.82c0,0,15.993,15.993,26.887,20.629c8.154,3.47,27.704,9.892,35.927-8.692
			c5.795-13.096,0.135-25.525-2.781-28.857c-4.867-5.562-13.743-9.419-27.37-4.867C567.42,558.509,545.168,576.82,545.168,576.82z"
			/>
		<path d="M544.611,577.209c0,0-15.993,15.993-20.629,26.887c-3.47,8.154-9.892,27.704,8.692,35.927
			c13.096,5.795,25.525,0.135,28.857-2.781c5.562-4.867,9.418-13.743,4.867-27.37C562.922,599.461,544.611,577.209,544.611,577.209z
			"/>
		<path d="M544.221,577.599c0,0-15.993-15.993-26.887-20.629c-8.154-3.47-27.704-9.892-35.927,8.692
			c-5.795,13.096-0.135,25.525,2.781,28.857c4.867,5.562,13.743,9.419,27.37,4.867C521.97,595.91,544.221,577.599,544.221,577.599z"
			/>
		<g>
			<path d="M544.226,577.209v-52.421h17.416C561.642,524.789,549.532,550.394,544.226,577.209z"/>
			<path d="M544.226,577.209v-52.421h-17.425C526.801,524.789,538.918,550.394,544.226,577.209z"/>
		</g>
	</g>
	<g>
		<path d="M545.142,770.196c0,0,15.993,15.993,26.887,20.629c8.154,3.47,27.704,9.892,35.927-8.692
			c5.795-13.096,0.135-25.525-2.781-28.857c-4.867-5.562-13.743-9.419-27.37-4.867C567.394,751.885,545.142,770.196,545.142,770.196
			z"/>
		<path d="M544.585,770.585c0,0-15.993,15.993-20.629,26.887c-3.47,8.154-9.892,27.704,8.692,35.927
			c13.096,5.795,25.525,0.135,28.857-2.781c5.562-4.867,9.418-13.743,4.867-27.37C562.896,792.837,544.585,770.585,544.585,770.585z
			"/>
		<path d="M544.195,770.975c0,0-15.993-15.993-26.887-20.629c-8.154-3.47-27.704-9.892-35.927,8.692
			c-5.795,13.096-0.135,25.525,2.781,28.857c4.867,5.562,13.743,9.419,27.37,4.867C521.944,789.286,544.195,770.975,544.195,770.975
			z"/>
		<g>
			<path d="M544.2,770.585v-52.421h17.416C561.616,718.165,549.506,743.769,544.2,770.585z"/>
			<path d="M544.2,770.585v-52.421h-17.425C526.775,718.165,538.892,743.769,544.2,770.585z"/>
		</g>
	</g>
	<g>
		<path d="M199.513,769.744c0,0,15.993,15.993,26.887,20.629c8.154,3.47,27.704,9.892,35.927-8.692
			c5.795-13.096,0.135-25.525-2.781-28.857c-4.867-5.562-13.743-9.419-27.37-4.867C221.765,751.433,199.513,769.744,199.513,769.744
			z"/>
		<path d="M198.956,770.134c0,0-15.993,15.993-20.629,26.887c-3.47,8.154-9.892,27.704,8.692,35.927
			c13.096,5.795,25.525,0.135,28.857-2.781c5.562-4.867,9.418-13.743,4.867-27.37C217.267,792.385,198.956,770.134,198.956,770.134z
			"/>
		<path d="M198.567,770.523c0,0-15.993-15.993-26.887-20.629c-8.154-3.47-27.704-9.892-35.927,8.692
			c-5.795,13.096-0.135,25.525,2.781,28.857c4.867,5.562,13.743,9.419,27.37,4.867C176.315,788.835,198.567,770.523,198.567,770.523
			z"/>
		<g>
			<path d="M198.571,770.134v-52.421h17.416C215.987,717.713,203.877,743.318,198.571,770.134z"/>
			<path d="M198.571,770.134v-52.421h-17.425C181.146,717.713,193.263,743.318,198.571,770.134z"/>
		</g>
	</g>
	<path d="M78.567,53.481c-33.87,3.75-38,52.25-13.62,61.63c24.38,9.37,36.88-8.5,36.88-8.5c0.74,3.12-5.474,24.37-18.974,31.37
		S58,143.231,58,143.231v11c0,0,13.854,0,22.854-3.38c29.02-10.88,32.247-34.39,33.857-48.62
		C116.341,87.851,112.447,49.731,78.567,53.481z M101.327,91.981c0,0-1.88,18.87-23.38,15.87s-20.78-42.64,1.88-44.24
		C102.477,62.001,101.327,91.981,101.327,91.981z"/>
	<path d="M670.617,903.79c33.87-3.75,38-52.25,13.62-61.63c-24.38-9.37-36.88,8.5-36.88,8.5c-0.74-3.12,5.882-24.37,19.382-31.37
		S692,814.04,692,814.04v-11c0,0-14.262,0-23.262,3.38c-29.02,10.88-32.451,34.39-34.061,48.62
		C633.048,869.42,636.737,907.54,670.617,903.79z M647.857,865.29c0,0,1.88-18.87,23.38-15.87s20.78,42.64-1.88,44.24
		C646.707,895.27,647.857,865.29,647.857,865.29z"/>
</g>
</svg>
