<?xml version="1.0" encoding="utf-8"?>
<!-- Generator: Adobe Illustrator 17.0.0, SVG Export Plug-In . SVG Version: 6.00 Build 0)  -->
<!DOCTYPE svg PUBLIC "-//W3C//DTD SVG 1.1//EN" "http://www.w3.org/Graphics/SVG/1.1/DTD/svg11.dtd">
<svg version="1.1" id="Layer_1" xmlns="http://www.w3.org/2000/svg" xmlns:xlink="http://www.w3.org/1999/xlink" x="0px" y="0px"
	 width="750px" height="968px" viewBox="0 0 750 968" enable-background="new 0 0 750 968" xml:space="preserve">
<g>
	<path fill="#FFFFFF" stroke="#FFFFFF" stroke-width="18" stroke-miterlimit="10" d="M36.098,14h677.225
		c0,0,21.938-0.335,21.499,21.164c-0.548,26.868,0,894.277,0,894.277S735.261,953,713.323,953H36.098
		c0,0-22.098-3.109-22.098-25.955V34.828C14,34.828,12.48,14,36.098,14z"/>
	<path fill="#FF0000" d="M88.102,50h-15.67l-34.33,101h13l11-31.67l35.67,0.17l10.33,31.5h14.5L88.102,50z M64.432,109l15.84-47.83
		L95.102,109H64.432z"/>
	<path fill="#FF0000" d="M658.754,920h15.67l34.33-101h-13l-11,31.816l-35.67-0.243L638.754,819h-14.5L658.754,920z M682.424,861
		l-15.84,47.83L651.754,861H682.424z"/>
	<polygon fill="#FF0000" points="640.343,178.712 589.318,116.267 640.343,49.935 689.424,116.267 	"/>
	<polygon fill="#FF0000" points="110.299,787.516 161.323,849.961 110.299,916.293 61.218,849.961 	"/>
	<polygon fill="#FF0000" points="394.619,615.833 294.306,493.068 394.619,362.661 491.111,493.068 	"/>
</g>
</svg>
