<?xml version="1.0" encoding="utf-8"?>
<!-- Generator: Adobe Illustrator 17.0.0, SVG Export Plug-In . SVG Version: 6.00 Build 0)  -->
<!DOCTYPE svg PUBLIC "-//W3C//DTD SVG 1.1//EN" "http://www.w3.org/Graphics/SVG/1.1/DTD/svg11.dtd">
<svg version="1.1" id="Layer_1" xmlns="http://www.w3.org/2000/svg" xmlns:xlink="http://www.w3.org/1999/xlink" x="0px" y="0px"
	 width="750px" height="968px" viewBox="0 0 750 968" enable-background="new 0 0 750 968" xml:space="preserve">
<g>
	<path fill="#FFFFFF" stroke="#FFFFFF" stroke-width="18" stroke-miterlimit="10" d="M36.098,14h677.225
		c0,0,21.938-0.335,21.499,21.164c-0.548,26.868,0,894.277,0,894.277S735.261,953,713.323,953H36.098
		c0,0-22.098-3.109-22.098-25.955V34.828C14,34.828,12.48,14,36.098,14z"/>
	<path fill="#FF0000" d="M88.102,50h-15.67l-34.33,101h13l11-31.67l35.67,0.17l10.33,31.5h14.5L88.102,50z M64.432,109l15.84-47.83
		L95.102,109H64.432z"/>
	<path fill="#FF0000" d="M658.754,920h15.67l34.33-101h-13l-11,31.816l-35.67-0.243L638.754,819h-14.5L658.754,920z M682.424,861
		l-15.84,47.83L651.754,861H682.424z"/>
	<path fill="#FF0000" d="M640.269,65.795c3.102-3.812,8.837-8.236,12.409-10.008c11.085-5.497,18.391-3.792,24.341-2.383
		c29.005,6.869,28.397,32.644,28.397,32.644c1.193,23.657-13.006,39.904-23.147,48.847c-9.838,8.675-41.999,31.452-41.999,31.452
		s-32.113-22.778-41.937-31.452c-10.126-8.942-24.304-25.189-23.113-48.847c0,0-0.607-25.775,28.355-32.644
		c5.94-1.409,13.236-3.114,24.304,2.383C631.445,57.559,637.172,61.983,640.269,65.795z"/>
	<path fill="#FF0000" d="M392.604,397.985c6.684-8.214,19.039-17.745,26.734-21.561c23.881-11.843,39.623-8.169,52.44-5.133
		c62.49,14.798,61.18,70.329,61.18,70.329c2.571,50.968-28.02,85.971-49.869,105.236c-21.195,18.689-90.484,67.762-90.484,67.762
		s-69.186-49.073-90.349-67.762c-21.817-19.266-52.362-54.268-49.795-105.236c0,0-1.308-55.53,61.088-70.329
		c12.798-3.035,28.516-6.71,52.362,5.133C373.593,380.24,385.93,389.771,392.604,397.985z"/>
	<path fill="#FF0000" d="M110.372,901.348c-3.102,3.812-8.837,8.236-12.409,10.008c-11.085,5.497-18.391,3.792-24.34,2.383
		c-29.005-6.869-28.397-32.644-28.397-32.644c-1.193-23.657,13.006-39.904,23.147-48.846c9.838-8.675,41.999-31.452,41.999-31.452
		s32.113,22.778,41.937,31.452c10.126,8.942,24.304,25.189,23.113,48.846c0,0,0.607,25.775-28.355,32.644
		c-5.94,1.409-13.236,3.114-24.304-2.383C119.197,909.584,113.47,905.16,110.372,901.348z"/>
</g>
</svg>
