<?xml version="1.0" encoding="utf-8"?>
<!-- Generator: Adobe Illustrator 17.0.0, SVG Export Plug-In . SVG Version: 6.00 Build 0)  -->
<!DOCTYPE svg PUBLIC "-//W3C//DTD SVG 1.1//EN" "http://www.w3.org/Graphics/SVG/1.1/DTD/svg11.dtd">
<svg version="1.1" id="Layer_1" xmlns="http://www.w3.org/2000/svg" xmlns:xlink="http://www.w3.org/1999/xlink" x="0px" y="0px"
	 width="750px" height="968px" viewBox="0 0 750 968" enable-background="new 0 0 750 968" xml:space="preserve">
<g>
	<path fill="#FFFFFF" stroke="#FFFFFF" stroke-width="18" stroke-miterlimit="10" d="M36.098,14h677.225
		c0,0,21.938-0.335,21.499,21.164c-0.548,26.868,0,894.277,0,894.277S735.261,953,713.323,953H36.098
		c0,0-22.098-3.109-22.098-25.955V34.828C14,34.828,12.48,14,36.098,14z"/>
	<g>
		<path d="M641.371,118.713c0,0-15.993-15.993-26.887-20.629c-8.154-3.47-27.704-9.892-35.927,8.692
			c-5.795,13.096-0.135,25.525,2.781,28.857c4.867,5.562,13.743,9.418,27.37,4.867C619.12,137.024,641.371,118.713,641.371,118.713z
			"/>
		<path d="M641.928,118.324c0,0,15.993-15.993,20.629-26.887c3.47-8.154,9.892-27.704-8.692-35.927
			c-13.096-5.795-25.525-0.135-28.857,2.781c-5.562,4.867-9.419,13.743-4.867,27.37C623.617,96.072,641.928,118.324,641.928,118.324
			z"/>
		<path d="M642.318,117.934c0,0,15.993,15.993,26.887,20.629c8.154,3.47,27.704,9.892,35.927-8.692
			c5.795-13.096,0.135-25.525-2.781-28.857c-4.867-5.562-13.743-9.418-27.37-4.867C664.57,99.623,642.318,117.934,642.318,117.934z"
			/>
		<g>
			<path d="M642.313,118.324v52.421h-17.416C624.898,170.744,637.008,145.14,642.313,118.324z"/>
			<path d="M642.313,118.324v52.421h17.425C659.739,170.744,647.622,145.14,642.313,118.324z"/>
		</g>
	</g>
	<g>
		<path d="M110.771,854.579c0,0,15.993,15.993,26.887,20.629c8.154,3.47,27.704,9.892,35.927-8.692
			c5.795-13.096,0.135-25.525-2.781-28.857c-4.867-5.562-13.743-9.418-27.37-4.867C133.022,836.268,110.771,854.579,110.771,854.579
			z"/>
		<path d="M110.213,854.969c0,0-15.993,15.993-20.629,26.887c-3.47,8.154-9.892,27.704,8.692,35.927
			c13.096,5.795,25.525,0.135,28.857-2.781c5.562-4.867,9.418-13.743,4.867-27.37C128.524,877.22,110.213,854.969,110.213,854.969z"
			/>
		<path d="M109.824,855.359c0,0-15.993-15.993-26.887-20.629c-8.154-3.47-27.704-9.892-35.927,8.692
			c-5.795,13.096-0.135,25.525,2.781,28.857c4.867,5.562,13.743,9.418,27.37,4.867C87.572,873.67,109.824,855.359,109.824,855.359z"
			/>
		<g>
			<path d="M109.828,854.969v-52.421h17.416C127.244,802.548,115.134,828.153,109.828,854.969z"/>
			<path d="M109.828,854.969v-52.421H92.403C92.403,802.548,104.52,828.153,109.828,854.969z"/>
		</g>
	</g>
	<g>
		<path d="M390.682,503.279c0,0-34.223-34.223-57.535-44.143c-17.449-7.425-59.282-21.168-76.878,18.6
			c-12.4,28.023-0.288,54.62,5.952,61.751c10.416,11.903,29.409,20.154,58.569,10.416
			C343.067,542.462,390.682,503.279,390.682,503.279z"/>
		<path d="M391.875,502.445c0,0,34.223-34.223,44.143-57.535c7.425-17.449,21.168-59.282-18.6-76.878
			c-28.023-12.4-54.62-0.288-61.751,5.952c-11.903,10.416-20.154,29.409-10.416,58.569
			C352.692,454.83,391.875,502.445,391.875,502.445z"/>
		<path d="M392.709,501.611c0,0,34.223,34.223,57.535,44.143c17.449,7.425,59.282,21.168,76.878-18.6
			c12.4-28.023,0.288-54.62-5.952-61.751c-10.416-11.903-29.409-20.154-58.569-10.416
			C440.324,462.427,392.709,501.611,392.709,501.611z"/>
		<g>
			<path d="M392.699,502.445v112.173h-37.268C355.431,614.618,381.345,559.827,392.699,502.445z"/>
			<path d="M392.699,502.445v112.173h37.288C429.986,614.618,404.058,559.827,392.699,502.445z"/>
		</g>
	</g>
	<path d="M88.102,50h-15.67l-34.33,101h13l11-31.67l35.67,0.17l10.33,31.5h14.5L88.102,50z M64.432,109l15.84-47.83L95.102,109
		H64.432z"/>
	<path d="M658.754,920h15.67l34.33-101h-13l-11,31.816l-35.67-0.243L638.754,819h-14.5L658.754,920z M682.424,861l-15.84,47.83
		L651.754,861H682.424z"/>
</g>
</svg>
