<?xml version="1.0" encoding="utf-8"?>
<!-- Generator: Adobe Illustrator 17.0.0, SVG Export Plug-In . SVG Version: 6.00 Build 0)  -->
<!DOCTYPE svg PUBLIC "-//W3C//DTD SVG 1.1//EN" "http://www.w3.org/Graphics/SVG/1.1/DTD/svg11.dtd">
<svg version="1.1" id="Layer_1" xmlns="http://www.w3.org/2000/svg" xmlns:xlink="http://www.w3.org/1999/xlink" x="0px" y="0px"
	 width="750px" height="968px" viewBox="0 0 750 968" enable-background="new 0 0 750 968" xml:space="preserve">
<g>
	<path fill="#FFFFFF" stroke="#FFFFFF" stroke-width="18" stroke-miterlimit="10" d="M36.098,14h677.225
		c0,0,21.938-0.335,21.499,21.164c-0.548,26.868,0,894.277,0,894.277S735.261,953,713.323,953H36.098
		c0,0-22.098-3.109-22.098-25.955V34.828C14,34.828,12.48,14,36.098,14z"/>
	<path d="M88.102,50h-15.67l-34.33,101h13l11-31.67l35.67,0.17l10.33,31.5h14.5L88.102,50z M64.432,109l15.84-47.83L95.102,109
		H64.432z"/>
	<path d="M658.754,920h15.67l34.33-101h-13l-11,31.816l-35.67-0.243L638.754,819h-14.5L658.754,920z M682.424,861l-15.84,47.83
		L651.754,861H682.424z"/>
	<g>
		<path d="M639.413,134.093c-2.637,3.188-7.513,6.888-10.549,8.369c-9.424,4.597-15.635,3.171-20.693,1.993
			c-24.659-5.744-24.142-27.3-24.142-27.3c-1.014-19.785,11.057-33.372,19.679-40.851C612.07,69.049,639.413,50,639.413,50
			s27.302,19.049,35.653,26.304c8.609,7.479,20.662,21.066,19.65,40.851c0,0,0.516,21.556-24.106,27.3
			c-5.05,1.178-11.253,2.605-20.662-1.993C646.915,140.982,642.046,137.282,639.413,134.093z"/>
		<path d="M648.561,131.208c1.75,16.081,8.014,36.661,8.014,36.661h-34.408c0,0,7.282-23.722,8.523-35.675"/>
	</g>
	<g>
		<path d="M390.771,542.519c-5.641,6.819-16.069,14.732-22.563,17.901c-20.156,9.833-33.441,6.782-44.259,4.262
			c-52.741-12.286-51.635-58.39-51.635-58.39c-2.17-42.316,23.649-71.376,42.089-87.372c17.888-15.516,76.368-56.259,76.368-56.259
			s58.392,40.742,76.254,56.259c18.413,15.995,44.192,45.056,42.026,87.372c0,0,1.104,46.104-51.558,58.39
			c-10.801,2.52-24.067,5.571-44.192-4.262C406.816,557.251,396.403,549.338,390.771,542.519z"/>
		<path d="M410.337,536.348c3.743,34.393,17.14,78.41,17.14,78.41h-73.591c0,0,15.574-50.736,18.229-76.3"/>
	</g>
	<g>
		<path d="M110.282,833.324c2.637-3.188,7.513-6.888,10.55-8.37c9.424-4.597,15.635-3.171,20.693-1.993
			c24.659,5.744,24.142,27.3,24.142,27.3c1.014,19.785-11.057,33.372-19.679,40.851c-8.364,7.255-35.706,26.304-35.706,26.304
			s-27.301-19.049-35.653-26.304c-8.609-7.479-20.662-21.066-19.65-40.851c0,0-0.516-21.556,24.106-27.3
			c5.05-1.178,11.253-2.605,20.662,1.993C102.78,826.436,107.649,830.136,110.282,833.324z"/>
		<path d="M101.134,836.209c-1.75-16.081-8.014-36.661-8.014-36.661h34.408c0,0-7.282,23.722-8.523,35.675"/>
	</g>
</g>
</svg>
