<?xml version="1.0" encoding="utf-8"?>
<!-- Generator: Adobe Illustrator 17.0.0, SVG Export Plug-In . SVG Version: 6.00 Build 0)  -->
<!DOCTYPE svg PUBLIC "-//W3C//DTD SVG 1.1//EN" "http://www.w3.org/Graphics/SVG/1.1/DTD/svg11.dtd">
<svg version="1.1" id="Layer_1" xmlns="http://www.w3.org/2000/svg" xmlns:xlink="http://www.w3.org/1999/xlink" x="0px" y="0px"
	 width="750px" height="968px" viewBox="0 0 750 968" enable-background="new 0 0 750 968" xml:space="preserve">
<g>
	<path fill="#FFFFFF" stroke="#FFFFFF" stroke-width="18" stroke-miterlimit="10" d="M36.098,14h677.225
		c0,0,21.938-0.335,21.499,21.164c-0.548,26.868,0,894.277,0,894.277S735.261,953,713.323,953H36.098
		c0,0-22.098-3.109-22.098-25.955V34.828C14,34.828,12.48,14,36.098,14z"/>
	<g>
		<path fill="#FF0000" d="M570.844,501.2l-47.201-75.334c-14.727-16.992-8.59-29.076-8.59-29.076s30.681-56.359,30.681-70.802
			c0-14.444-13.217-13.217-13.217-13.217s-278.866-0.189-292.271,0c-13.405,0.189-13.028,14.916-13.028,14.916
			s30.681,51.544,37.573,73.162c6.891,21.618-3.776,40.499-3.776,40.499c-13.216,12.084-16.71,22.657-17.842,31.625
			c-3.398,27-1.982,108.752-1.982,108.752s-57.02,2.832-69.292,40.216c0,0-8.874,30.775,1.511,49.09
			c5.287,9.346,11.328,18.786,33.701,29.359c12.934,6.136,32.569,12.367,55.509,10.573c0,0,29.36-2.832,58.152-17.748
			c0,0,51.922-33.985,63.344-73.445c4.72-16.332,3.682-13.5,4.909-26.622c2.549-27.849,0-112.056,0-112.056
			s17.653-37.95,40.499-41.726c0,0,20.107-3.776,40.31-0.944c0,0,22.091,1.133,36.534,17.748l35.213,57.963
			c0,0,0.66,6.041-12.556,7.741c0,0-14.444,1.133-17.37,17.275l0.944,50.694c0,0,0.188,8.307-1.416,15.577
			c-1.227,5.192-1.227,9.629-15.199,18.975c-14.727,9.818-52.205,10.29-69.386,14.821c-31.058,8.118-17.936,22.373-11.517,24.733
			c17.37,6.23,46.541,0.755,61.551-2.549c60.229-13.311,66.743-48.051,66.743-48.051l0.566-58.152
			c11.422,1.794,31.247-14.349,31.247-14.349C589.725,523.574,570.844,501.2,570.844,501.2z M493.812,358.18l-17.37,32.758H297.076
			l-17.748-32.758c-0.283-8.874,8.591-9.157,8.591-9.157s195.602-0.85,201.55,0C495.322,349.872,493.812,358.18,493.812,358.18z"/>
		<circle fill="#FF0000" cx="467.43" cy="485.419" r="18.4"/>
	</g>
	<path fill="#FF0000" d="M93.501,143.474c-14.403,18.572-38.833,8.833-38.833,8.833l1.667-10.167c0,0,18,5.667,25.167-3.833
		c2.812-3.727,3.868-6.99,4.333-18.167c0.5-12,0.029-11.007,0.167-68h13v67.667C99.001,119.807,99.834,135.307,93.501,143.474z"/>
	<path fill="#FF0000" d="M661.505,829.526c14.403-18.572,38.833-8.833,38.833-8.833l-1.667,10.167c0,0-18-5.667-25.167,3.833
		c-2.812,3.727-3.868,6.99-4.333,18.167c-0.5,12-0.029,11.006-0.167,68h-13v-67.667
		C656.005,853.193,655.171,837.693,661.505,829.526z"/>
	<path fill="#FF0000" d="M640.269,65.795c3.102-3.812,8.837-8.236,12.409-10.008c11.085-5.497,18.391-3.792,24.341-2.383
		c29.005,6.869,28.397,32.644,28.397,32.644c1.193,23.657-13.006,39.904-23.147,48.847c-9.838,8.675-41.999,31.452-41.999,31.452
		s-32.113-22.778-41.937-31.452c-10.126-8.942-24.304-25.189-23.113-48.847c0,0-0.607-25.775,28.355-32.644
		c5.94-1.409,13.236-3.114,24.304,2.383C631.445,57.559,637.172,61.983,640.269,65.795z"/>
	<path fill="#FF0000" d="M110.372,901.348c-3.102,3.812-8.837,8.236-12.409,10.008c-11.085,5.497-18.391,3.792-24.34,2.383
		c-29.005-6.869-28.397-32.644-28.397-32.644c-1.193-23.657,13.006-39.904,23.147-48.846c9.838-8.675,41.999-31.452,41.999-31.452
		s32.113,22.778,41.937,31.452c10.126,8.942,24.304,25.189,23.113,48.846c0,0,0.607,25.775-28.355,32.644
		c-5.94,1.409-13.236,3.114-24.304-2.383C119.197,909.584,113.47,905.16,110.372,901.348z"/>
</g>
</svg>
