<?xml version="1.0" encoding="utf-8"?>
<!-- Generator: Adobe Illustrator 17.0.0, SVG Export Plug-In . SVG Version: 6.00 Build 0)  -->
<!DOCTYPE svg PUBLIC "-//W3C//DTD SVG 1.1//EN" "http://www.w3.org/Graphics/SVG/1.1/DTD/svg11.dtd">
<svg version="1.1" id="Layer_1" xmlns="http://www.w3.org/2000/svg" xmlns:xlink="http://www.w3.org/1999/xlink" x="0px" y="0px"
	 width="750px" height="968px" viewBox="0 0 750 968" enable-background="new 0 0 750 968" xml:space="preserve">
<g>
	<path fill="#FFFFFF" stroke="#FFFFFF" stroke-width="18" stroke-miterlimit="10" d="M37.098,15h677.225
		c0,0,21.938-0.335,21.499,21.164c-0.548,26.868,0,894.277,0,894.277S736.261,954,714.323,954H37.098
		c0,0-22.098-3.109-22.098-25.955V35.828C15,35.828,13.48,15,37.098,15z"/>
	<g>
		<path d="M642.371,119.713c0,0-15.993-15.993-26.887-20.629c-8.154-3.47-27.704-9.892-35.927,8.692
			c-5.795,13.096-0.135,25.525,2.781,28.857c4.867,5.562,13.743,9.418,27.37,4.867C620.12,138.024,642.371,119.713,642.371,119.713z
			"/>
		<path d="M642.928,119.324c0,0,15.993-15.993,20.629-26.887c3.47-8.154,9.892-27.704-8.692-35.927
			c-13.096-5.795-25.525-0.135-28.857,2.781c-5.562,4.867-9.419,13.743-4.867,27.37C624.617,97.072,642.928,119.324,642.928,119.324
			z"/>
		<path d="M643.318,118.934c0,0,15.993,15.993,26.887,20.629c8.154,3.47,27.704,9.892,35.927-8.692
			c5.795-13.096,0.135-25.525-2.781-28.857c-4.867-5.562-13.743-9.418-27.37-4.867C665.57,100.623,643.318,118.934,643.318,118.934z
			"/>
		<g>
			<path d="M643.313,119.324v52.421h-17.416C625.898,171.744,638.008,146.14,643.313,119.324z"/>
			<path d="M643.313,119.324v52.421h17.425C660.739,171.744,648.622,146.14,643.313,119.324z"/>
		</g>
	</g>
	<g>
		<path d="M571.844,502.2l-47.201-75.334c-14.727-16.992-8.59-29.076-8.59-29.076s30.681-56.359,30.681-70.802
			c0-14.444-13.217-13.217-13.217-13.217s-278.866-0.189-292.271,0c-13.405,0.189-13.028,14.916-13.028,14.916
			s30.681,51.544,37.573,73.162c6.891,21.618-3.776,40.499-3.776,40.499c-13.216,12.084-16.71,22.657-17.842,31.625
			c-3.398,27-1.982,108.752-1.982,108.752s-57.02,2.832-69.292,40.216c0,0-8.874,30.775,1.511,49.09
			c5.287,9.346,11.328,18.786,33.701,29.359c12.934,6.136,32.569,12.367,55.509,10.573c0,0,29.36-2.832,58.152-17.748
			c0,0,51.922-33.985,63.344-73.445c4.72-16.332,3.682-13.5,4.909-26.622c2.549-27.849,0-112.056,0-112.056
			s17.653-37.95,40.499-41.726c0,0,20.107-3.776,40.31-0.944c0,0,22.091,1.133,36.534,17.748l35.213,57.963
			c0,0,0.66,6.041-12.556,7.741c0,0-14.444,1.133-17.37,17.275l0.944,50.694c0,0,0.188,8.307-1.416,15.577
			c-1.227,5.192-1.227,9.629-15.199,18.975c-14.727,9.818-52.205,10.29-69.386,14.821c-31.058,8.118-17.936,22.373-11.517,24.733
			c17.37,6.23,46.541,0.755,61.551-2.549c60.229-13.311,66.743-48.051,66.743-48.051l0.566-58.152
			c11.422,1.794,31.247-14.349,31.247-14.349C590.725,524.574,571.844,502.2,571.844,502.2z M494.812,359.18l-17.37,32.758H298.076
			l-17.748-32.758c-0.283-8.874,8.591-9.157,8.591-9.157s195.602-0.85,201.55,0C496.322,350.872,494.812,359.18,494.812,359.18z"/>
		<circle cx="468.43" cy="486.419" r="18.4"/>
	</g>
	<g>
		<path d="M114.271,855.579c0,0,15.993,15.993,26.887,20.629c8.154,3.47,27.704,9.892,35.927-8.692
			c5.795-13.096,0.135-25.525-2.781-28.857c-4.867-5.562-13.743-9.418-27.37-4.867C136.522,837.268,114.271,855.579,114.271,855.579
			z"/>
		<path d="M113.713,855.969c0,0-15.993,15.993-20.629,26.887c-3.47,8.154-9.892,27.704,8.692,35.927
			c13.096,5.795,25.525,0.135,28.857-2.781c5.562-4.867,9.418-13.743,4.867-27.37C132.024,878.22,113.713,855.969,113.713,855.969z"
			/>
		<path d="M113.324,856.359c0,0-15.993-15.993-26.887-20.629c-8.154-3.47-27.704-9.892-35.927,8.692
			c-5.795,13.096-0.135,25.525,2.781,28.857c4.867,5.562,13.743,9.418,27.37,4.867C91.072,874.67,113.324,856.359,113.324,856.359z"
			/>
		<g>
			<path d="M113.328,855.969v-52.421h17.416C130.744,803.548,118.634,829.153,113.328,855.969z"/>
			<path d="M113.328,855.969v-52.421H95.903C95.903,803.548,108.02,829.153,113.328,855.969z"/>
		</g>
	</g>
	<path d="M94.501,144.474c-14.403,18.572-38.833,8.833-38.833,8.833l1.667-10.167c0,0,18,5.667,25.167-3.833
		c2.812-3.727,3.868-6.99,4.333-18.167c0.5-12,0.029-11.007,0.167-68h13v67.667C100.001,120.807,100.834,136.307,94.501,144.474z"/>
	<path d="M662.505,830.526c14.403-18.572,38.833-8.833,38.833-8.833l-1.667,10.167c0,0-18-5.667-25.167,3.833
		c-2.812,3.727-3.868,6.99-4.333,18.167c-0.5,12-0.029,11.006-0.167,68h-13v-67.667
		C657.005,854.193,656.171,838.693,662.505,830.526z"/>
</g>
</svg>
