<?xml version="1.0" encoding="utf-8"?>
<!-- Generator: Adobe Illustrator 17.0.0, SVG Export Plug-In . SVG Version: 6.00 Build 0)  -->
<!DOCTYPE svg PUBLIC "-//W3C//DTD SVG 1.1//EN" "http://www.w3.org/Graphics/SVG/1.1/DTD/svg11.dtd">
<svg version="1.1" id="Layer_1" xmlns="http://www.w3.org/2000/svg" xmlns:xlink="http://www.w3.org/1999/xlink" x="0px" y="0px"
	 width="750px" height="968px" viewBox="0 0 750 968" enable-background="new 0 0 750 968" xml:space="preserve">
<g>
	<path fill="#FFFFFF" stroke="#FFFFFF" stroke-width="18" stroke-miterlimit="10" d="M37.098,16h677.225
		c0,0,21.938-0.335,21.499,21.164c-0.548,26.868,0,894.277,0,894.277S736.261,955,714.323,955H37.098
		c0,0-22.098-3.109-22.098-25.955V36.828C15,36.828,13.48,16,37.098,16z"/>
	<g>
		<path fill="none" stroke="#000000" stroke-width="18" stroke-miterlimit="10" d="M356.947,498.355
			c0,0-49.894,13.167-79.692,35.342c0,0,13.167,16.631,44.351,33.263c0,0-16.631,30.491-12.474,63.061
			c0,0,31.877-1.386,61.675-13.86c0,0,22.175,39.5,33.263,45.737c0,0,33.956-20.096,42.965-44.351c0,0,30.491,27.026,54.052,28.412
			c0,0,1.386-69.991-13.167-98.403c0,0,20.096-3.465,33.956-13.167v-67.219c0,0,16.631-6.93,28.412-22.175
			c0,0-21.482-60.289-47.815-92.166c0,0-104.64-7.623-142.753,103.254L356.947,498.355z"/>
		<path fill="none" stroke="#000000" stroke-width="18" stroke-miterlimit="10" d="M358.633,472.644
			c-35.042-42.343-113.948-92.788-113.948-92.788s42.272-30.021,95.631-27.138c0,0,0.693-83.046-21.482-115.616
			c0,0,69.298,10.395,102.561,56.824c0,0,40.193-56.131,90.087-51.973c0,0-15.596,102.2-9.009,110.876"/>
		<circle cx="470.942" cy="419.702" r="16.285"/>
		<circle fill="none" stroke="#000000" stroke-width="18" stroke-miterlimit="10" cx="210.271" cy="382.974" r="20.443"/>
		<circle fill="none" stroke="#000000" stroke-width="18" stroke-miterlimit="10" cx="286.128" cy="211.75" r="20.443"/>
		<circle fill="none" stroke="#000000" stroke-width="18" stroke-miterlimit="10" cx="540.538" cy="223.825" r="20.443"/>
	</g>
	<rect x="233.243" y="698.103" fill="none" width="342.058" height="143"/>
	<text transform="matrix(1 0 0 1 233.2427 804.6019)" font-family="'MyriadPro-Regular'" font-size="150">Joker</text>
</g>
</svg>
