<?xml version="1.0" encoding="utf-8"?>
<!-- Generator: Adobe Illustrator 17.0.0, SVG Export Plug-In . SVG Version: 6.00 Build 0)  -->
<!DOCTYPE svg PUBLIC "-//W3C//DTD SVG 1.1//EN" "http://www.w3.org/Graphics/SVG/1.1/DTD/svg11.dtd">
<svg version="1.1" id="Layer_1" xmlns="http://www.w3.org/2000/svg" xmlns:xlink="http://www.w3.org/1999/xlink" x="0px" y="0px"
	 width="750px" height="968px" viewBox="0 0 750 968" enable-background="new 0 0 750 968" xml:space="preserve">
<path fill="#FFFFFF" stroke="#FFFFFF" stroke-width="18" stroke-miterlimit="10" d="M36.098,14h677.225
	c0,0,21.938-0.335,21.499,21.164c-0.548,26.868,0,894.277,0,894.277S735.261,953,713.323,953H36.098c0,0-22.098-3.109-22.098-25.955
	V34.828C14,34.828,12.48,14,36.098,14z"/>
<g>
	<path d="M641.371,118.713c0,0-15.993-15.993-26.887-20.629c-8.154-3.47-27.704-9.892-35.927,8.692
		c-5.795,13.096-0.135,25.525,2.781,28.857c4.867,5.562,13.743,9.418,27.37,4.867C619.12,137.024,641.371,118.713,641.371,118.713z"
		/>
	<path d="M641.928,118.324c0,0,15.993-15.993,20.629-26.887c3.47-8.154,9.892-27.704-8.692-35.927
		c-13.096-5.795-25.525-0.135-28.857,2.781c-5.562,4.867-9.419,13.743-4.867,27.37C623.617,96.072,641.928,118.324,641.928,118.324z
		"/>
	<path d="M642.318,117.934c0,0,15.993,15.993,26.887,20.629c8.154,3.47,27.704,9.892,35.927-8.692
		c5.795-13.096,0.135-25.525-2.781-28.857c-4.867-5.562-13.743-9.418-27.37-4.867C664.57,99.623,642.318,117.934,642.318,117.934z"
		/>
	<g>
		<path d="M642.313,118.324v52.421h-17.416C624.898,170.744,637.008,145.14,642.313,118.324z"/>
		<path d="M642.313,118.324v52.421h17.425C659.739,170.744,647.622,145.14,642.313,118.324z"/>
	</g>
</g>
<g>
	<path d="M511.219,613.011c-1.17,5.128-1.162,9.595-15.18,18.952c-14.756,9.849-52.244,10.295-69.402,14.806
		c-31.129,8.183-17.925,22.432-11.506,24.738c17.37,6.242,46.511,0.825,61.536-2.508c60.255-13.364,66.759-48.12,66.759-48.12
		L544,562.773c11.506,1.726,31.263-14.383,31.263-14.383c14.578-17.259-3.155-39.697-3.155-39.697L526,433.328V302.732
		c-14.667-20.399-28.407-5.356-33.333,0.268c-6.158,7.03-24.074,24.47-24.074,24.47c-14.958,12.082-24.852,5.811-29.32,0
		c-9.883-12.852-23.242-45-31.939-58.682c-15.333-24.122-28.191-6.861-32.684,0c-10.016,15.296-21.177,48.725-31.436,63.86
		c-6.655,9.817-20.71,1.151-20.71,1.151l-28.19-29.916c0,0-21.862-21.287-35.094,6.328l1.726,138.65
		c-13.232,12.082-16.704,22.632-17.835,31.642c-3.384,26.977-2.014,108.734-2.014,108.734s-57.012,2.877-69.281,40.272
		c0,0-8.878,30.832,1.516,49.157c5.309,9.36,11.345,18.793,33.667,29.333c12.966,6.122,32.57,12.337,55.582,10.611
		c0,0,29.386-2.841,58.152-17.799c0,0,51.958-33.949,63.39-73.433c4.733-16.346,3.667-13.536,4.876-26.636
		c2.576-27.928,0-112.186,0-112.186s17.667-37.891,40.6-41.746c0,0,20.116-3.775,40.252-0.899c0,0,22.163,1.079,36.546,17.763
		l35.292,57.963c0,0,0.614,6.041-12.619,7.767c0,0-28.78,0-40.861,32.218c0,0-10.834,13.002-20.143,14.958
		c-4.418,0.928-15.816,0.669-15.537-9.205c0.093-3.278,5.751-8.054,10.354-8.054c0,0-4.222-8.094-17.836-3.452
		C439.723,557.685,434,565.875,433,574.875c-0.788,7.094,2.125,16.5,12.5,24.375c6.379,4.842,16.145,11.255,36.125,8.5
		c7.278-1.003,18.652-5.28,27.281-10.458C508.906,597.292,512.875,605.75,511.219,613.011z"/>
	<circle cx="467.484" cy="502.366" r="18.41"/>
</g>
<polygon points="60,102.227 60,53 47,53 47,154 60,154 60,116.227 69.519,104.614 102.705,154 117.705,154 78.705,96 115.038,53 
	98.705,53 "/>
<g>
	<path d="M113.271,854.579c0,0,15.993,15.993,26.887,20.629c8.154,3.47,27.704,9.892,35.927-8.692
		c5.795-13.096,0.135-25.525-2.781-28.857c-4.867-5.562-13.743-9.418-27.37-4.867C135.522,836.268,113.271,854.579,113.271,854.579z
		"/>
	<path d="M112.713,854.969c0,0-15.993,15.993-20.629,26.887c-3.47,8.154-9.892,27.704,8.692,35.927
		c13.096,5.795,25.525,0.135,28.857-2.781c5.562-4.867,9.418-13.743,4.867-27.37C131.024,877.22,112.713,854.969,112.713,854.969z"
		/>
	<path d="M112.324,855.359c0,0-15.993-15.993-26.887-20.629c-8.154-3.47-27.704-9.892-35.927,8.692
		c-5.795,13.096-0.135,25.525,2.781,28.857c4.867,5.562,13.743,9.418,27.37,4.867C90.072,873.67,112.324,855.359,112.324,855.359z"
		/>
	<g>
		<path d="M112.328,854.969v-52.421h17.416C129.744,802.548,117.634,828.153,112.328,854.969z"/>
		<path d="M112.328,854.969v-52.421H94.903C94.903,802.548,107.02,828.153,112.328,854.969z"/>
	</g>
</g>
<polygon points="689,870.517 689,920 702,920 702,819 689,819 689,856.517 679.302,868.259 645.937,819 630.937,819 669.937,877 
	633.604,920 649.937,920 "/>
</svg>
