<?xml version="1.0" encoding="utf-8"?>
<!-- Generator: Adobe Illustrator 17.0.0, SVG Export Plug-In . SVG Version: 6.00 Build 0)  -->
<!DOCTYPE svg PUBLIC "-//W3C//DTD SVG 1.1//EN" "http://www.w3.org/Graphics/SVG/1.1/DTD/svg11.dtd">
<svg version="1.1" id="Layer_1" xmlns="http://www.w3.org/2000/svg" xmlns:xlink="http://www.w3.org/1999/xlink" x="0px" y="0px"
	 width="750px" height="968px" viewBox="0 0 750 968" enable-background="new 0 0 750 968" xml:space="preserve">
<path fill="#FFFFFF" stroke="#FFFFFF" stroke-width="18" stroke-miterlimit="10" d="M36.098,14h677.225
	c0,0,21.938-0.335,21.499,21.164c-0.548,26.868,0,894.277,0,894.277S735.261,953,713.323,953H36.098c0,0-22.098-3.109-22.098-25.955
	V34.828C14,34.828,12.48,14,36.098,14z"/>
<g>
	<path d="M639.413,134.093c-2.637,3.188-7.513,6.888-10.549,8.369c-9.424,4.597-15.635,3.171-20.693,1.993
		c-24.659-5.744-24.142-27.3-24.142-27.3c-1.014-19.785,11.057-33.372,19.679-40.851C612.07,69.049,639.413,50,639.413,50
		s27.302,19.049,35.653,26.304c8.609,7.479,20.662,21.066,19.65,40.851c0,0,0.516,21.556-24.106,27.3
		c-5.05,1.178-11.253,2.605-20.662-1.993C646.915,140.982,642.046,137.282,639.413,134.093z"/>
	<path d="M648.561,131.208c1.75,16.081,8.014,36.661,8.014,36.661h-34.408c0,0,7.282-23.722,8.523-35.675"/>
</g>
<g>
	<path d="M509.219,614.011c-1.17,5.128-1.162,9.595-15.18,18.952c-14.756,9.849-52.244,10.295-69.402,14.806
		c-31.129,8.183-17.925,22.432-11.506,24.738c17.37,6.242,46.511,0.825,61.536-2.508c60.255-13.364,66.759-48.12,66.759-48.12
		L542,563.773c11.506,1.726,31.263-14.383,31.263-14.383c14.578-17.259-3.155-39.697-3.155-39.697L524,434.328V303.732
		c-14.667-20.399-28.407-5.356-33.333,0.268c-6.158,7.03-24.074,24.47-24.074,24.47c-14.958,12.082-24.852,5.811-29.32,0
		c-9.883-12.852-23.242-45-31.939-58.682c-15.333-24.122-28.191-6.861-32.684,0c-10.016,15.296-21.177,48.725-31.436,63.86
		c-6.655,9.817-20.71,1.151-20.71,1.151l-28.19-29.916c0,0-21.862-21.287-35.094,6.328l1.726,138.65
		c-13.232,12.082-16.704,22.632-17.835,31.642c-3.384,26.977-2.014,108.734-2.014,108.734s-57.012,2.877-69.281,40.272
		c0,0-8.878,30.832,1.516,49.157c5.309,9.36,11.345,18.793,33.667,29.333c12.966,6.122,32.57,12.337,55.582,10.611
		c0,0,29.386-2.841,58.152-17.799c0,0,51.958-33.949,63.39-73.433c4.733-16.346,3.667-13.536,4.876-26.636
		c2.576-27.928,0-112.186,0-112.186s17.667-37.891,40.6-41.746c0,0,20.116-3.775,40.252-0.899c0,0,22.163,1.079,36.546,17.763
		l35.292,57.963c0,0,0.614,6.041-12.619,7.767c0,0-28.78,0-40.861,32.218c0,0-10.834,13.002-20.143,14.958
		c-4.418,0.928-15.816,0.669-15.537-9.205c0.093-3.278,5.751-8.054,10.354-8.054c0,0-4.222-8.094-17.836-3.452
		C437.723,558.685,432,566.875,431,575.875c-0.788,7.094,2.125,16.5,12.5,24.375c6.379,4.842,16.145,11.255,36.125,8.5
		c7.278-1.003,18.652-5.28,27.281-10.458C506.906,598.292,510.875,606.75,509.219,614.011z"/>
	<circle cx="465.484" cy="503.366" r="18.41"/>
</g>
<polygon points="58,99.227 58,50 45,50 45,151 58,151 58,113.227 67.519,101.614 100.705,151 115.705,151 76.705,93 113.038,50 
	96.705,50 "/>
<polygon points="687,867.517 687,917 700,917 700,816 687,816 687,853.517 677.302,865.259 643.937,816 628.937,816 667.937,874 
	631.604,917 647.937,917 "/>
<g>
	<path d="M110.282,833.324c2.637-3.188,7.513-6.888,10.55-8.37c9.424-4.597,15.635-3.171,20.693-1.993
		c24.659,5.744,24.142,27.3,24.142,27.3c1.014,19.785-11.057,33.372-19.679,40.851c-8.364,7.255-35.706,26.304-35.706,26.304
		s-27.301-19.049-35.653-26.304c-8.609-7.479-20.662-21.066-19.65-40.851c0,0-0.516-21.556,24.106-27.3
		c5.05-1.178,11.253-2.605,20.662,1.993C102.78,826.436,107.649,830.136,110.282,833.324z"/>
	<path d="M101.134,836.209c-1.75-16.081-8.014-36.661-8.014-36.661h34.408c0,0-7.282,23.722-8.523,35.675"/>
</g>
</svg>
