<?xml version="1.0" encoding="utf-8"?>
<!-- Generator: Adobe Illustrator 17.0.0, SVG Export Plug-In . SVG Version: 6.00 Build 0)  -->
<!DOCTYPE svg PUBLIC "-//W3C//DTD SVG 1.1//EN" "http://www.w3.org/Graphics/SVG/1.1/DTD/svg11.dtd">
<svg version="1.1" id="Layer_1" xmlns="http://www.w3.org/2000/svg" xmlns:xlink="http://www.w3.org/1999/xlink" x="0px" y="0px"
	 width="750px" height="968px" viewBox="0 0 750 968" enable-background="new 0 0 750 968" xml:space="preserve">
<path fill="#FFFFFF" stroke="#FFFFFF" stroke-width="18" stroke-miterlimit="10" d="M36.098,14h677.225
	c0,0,21.938-0.335,21.499,21.164c-0.548,26.868,0,894.277,0,894.277S735.261,953,713.323,953H36.098c0,0-22.098-3.109-22.098-25.955
	V34.828C14,34.828,12.48,14,36.098,14z"/>
<g>
	<path fill="#FF0000" d="M574.502,517.774c-1.7-13.036-74.345-130.552-74.345-130.552v-90.31
		c-16.437-34.102-34.48-13.131-39.392-5.007c-15.115,24.751-25.223,6.33-29.663-3.873c-27.679-62.442-43.266-5.006-49.689,5.951
		c-10.203,17.665-26.64,8.88-30.607,2.362c-22.672-37.314-37.786,0-37.786,0l-0.661,90.876
		C208.823,436.25,210.807,559.056,210.807,559.056c51.956,10.675,74.439,43.077,81.524,64.331s-3.59,40.809-17.571,42.51
		c-13.981,1.795-20.216-7.085-20.216-7.085c-9.447-83.791-71.511-48.367-71.511-48.367c-29.473,30.702-7.652,67.921,0,79.068
		c7.746,11.242,39.015,39.015,107.503,20.121s90.876-78.501,90.876-78.501l2.456-142.361c1.417-43.36,31.93-59.608,49.689-64.804
		c16.815-4.818,35.047-0.756,41.187,3.401c22.011,14.926,52.523,75.006,52.523,75.006c5.29,11.052,2.362,14.737,2.362,14.737
		c-7.652,9.447-27.112,12.375-27.112,12.375l-0.567,73.306c-41.943-1.795-76.707,27.773-86.72,36.842
		c-34.008,30.89,5.479,42.226,15.114,28.528c14.926-21.443,68.016-34.764,85.114-35.897c17.098-1.134,18.326-13.603,18.326-13.603
		l1.228-67.26c17.665-2.362,31.268-10.013,34.197-13.036C572.14,535.44,576.297,530.716,574.502,517.774z M459.442,372.863h-110.62
		v-33.441c0,0,11.147-20.027,22.672,0c0,0,6.801,6.329,16.248-1.984c0,0,6.991-15.587,16.532-17.004
		c9.447,1.417,16.438,17.004,16.438,17.004c9.447,8.313,16.153,1.984,16.153,1.984c11.525-20.027,22.578,0,22.578,0V372.863z"/>
	<circle fill="#FF0000" cx="461.757" cy="485.254" r="18.893"/>
</g>
<g>
	<path fill="#FF0000" d="M137.67,102c-1-56.66-73.34-62.5-88.67-15.5c-15.56,47.69,18,66.33,18,66.33
		C94.07,166.5,138.67,158.59,137.67,102z M74.56,144.33c0,0-23.49-14.93-12.6-53.12c10.73-37.63,61.36-32.95,62.06,12.42
		C124.72,148.93,93.51,155.27,74.56,144.33z"/>
	<path fill="#FF0000" d="M65.254,151.706c12.921,9.206,26.912,7.961,26.912,7.961c2.333,2.333,42.667,13,42.667,13l3.5-10.667
		c0,0-24.499-4.654-29.166-6.577"/>
</g>
<g>
	<path fill="#FF0000" d="M607.546,874.633c1,56.66,73.34,62.5,88.67,15.5c15.56-47.69-18-66.33-18-66.33
		C651.146,810.133,606.546,818.043,607.546,874.633z M670.656,832.303c0,0,23.49,14.93,12.6,53.12
		c-10.73,37.63-61.36,32.95-62.06-12.42C620.496,827.703,651.706,821.363,670.656,832.303z"/>
	<path fill="#FF0000" d="M679.962,824.927c-12.921-9.206-26.912-7.961-26.912-7.961c-2.333-2.333-42.667-13-42.667-13l-3.5,10.667
		c0,0,24.499,4.654,29.166,6.577"/>
</g>
<path fill="#FF0000" d="M640.269,65.795c3.102-3.812,8.837-8.236,12.409-10.008c11.085-5.497,18.391-3.792,24.341-2.383
	c29.005,6.869,28.397,32.644,28.397,32.644c1.193,23.657-13.006,39.904-23.147,48.847c-9.838,8.675-41.999,31.452-41.999,31.452
	s-32.113-22.778-41.937-31.452c-10.126-8.942-24.304-25.189-23.113-48.847c0,0-0.607-25.775,28.355-32.644
	c5.94-1.409,13.236-3.114,24.304,2.383C631.445,57.559,637.172,61.983,640.269,65.795z"/>
<path fill="#FF0000" d="M110.372,901.348c-3.102,3.812-8.837,8.236-12.409,10.008c-11.085,5.497-18.391,3.792-24.34,2.383
	c-29.005-6.869-28.397-32.644-28.397-32.644c-1.193-23.657,13.006-39.904,23.147-48.846c9.838-8.675,41.999-31.452,41.999-31.452
	s32.113,22.778,41.937,31.452c10.126,8.942,24.304,25.189,23.113,48.846c0,0,0.607,25.775-28.355,32.644
	c-5.94,1.409-13.236,3.114-24.304-2.383C119.197,909.584,113.47,905.16,110.372,901.348z"/>
</svg>
