<?xml version="1.0" encoding="utf-8"?>
<!-- Generator: Adobe Illustrator 17.0.0, SVG Export Plug-In . SVG Version: 6.00 Build 0)  -->
<!DOCTYPE svg PUBLIC "-//W3C//DTD SVG 1.1//EN" "http://www.w3.org/Graphics/SVG/1.1/DTD/svg11.dtd">
<svg version="1.1" id="Layer_1" xmlns="http://www.w3.org/2000/svg" xmlns:xlink="http://www.w3.org/1999/xlink" x="0px" y="0px"
	 width="750px" height="968px" viewBox="0 0 750 968" enable-background="new 0 0 750 968" xml:space="preserve">
<g>
	<path fill="#FFFFFF" stroke="#FFFFFF" stroke-width="18" stroke-miterlimit="10" d="M36.098,14h677.225
		c0,0,21.938-0.335,21.499,21.164c-0.548,26.868,0,894.277,0,894.277S735.261,953,713.323,953H36.098
		c0,0-22.098-3.109-22.098-25.955V34.828C14,34.828,12.48,14,36.098,14z"/>
	<g>
		<path d="M574.502,517.774c-1.7-13.036-74.345-130.552-74.345-130.552v-90.31c-16.437-34.102-34.48-13.131-39.392-5.007
			c-15.115,24.751-25.223,6.33-29.663-3.873c-27.679-62.442-43.266-5.006-49.689,5.951c-10.203,17.665-26.64,8.88-30.607,2.362
			c-22.672-37.314-37.786,0-37.786,0l-0.661,90.876C208.823,436.25,210.807,559.056,210.807,559.056
			c51.956,10.675,74.439,43.077,81.524,64.331s-3.59,40.809-17.571,42.51c-13.981,1.795-20.216-7.085-20.216-7.085
			c-9.447-83.791-71.511-48.367-71.511-48.367c-29.473,30.702-7.652,67.921,0,79.068c7.746,11.242,39.015,39.015,107.503,20.121
			s90.876-78.501,90.876-78.501l2.456-142.361c1.417-43.36,31.93-59.608,49.689-64.804c16.815-4.818,35.047-0.756,41.187,3.401
			c22.011,14.926,52.523,75.006,52.523,75.006c5.29,11.052,2.362,14.737,2.362,14.737c-7.652,9.447-27.112,12.375-27.112,12.375
			l-0.567,73.306c-41.943-1.795-76.707,27.773-86.72,36.842c-34.008,30.89,5.479,42.226,15.114,28.528
			c14.926-21.443,68.016-34.764,85.114-35.897c17.098-1.134,18.326-13.603,18.326-13.603l1.228-67.26
			c17.665-2.362,31.268-10.013,34.197-13.036C572.14,535.44,576.297,530.716,574.502,517.774z M459.442,372.863h-110.62v-33.441
			c0,0,11.147-20.027,22.672,0c0,0,6.801,6.329,16.248-1.984c0,0,6.991-15.587,16.532-17.004
			c9.447,1.417,16.438,17.004,16.438,17.004c9.447,8.313,16.153,1.984,16.153,1.984c11.525-20.027,22.578,0,22.578,0V372.863z"/>
		<circle cx="461.757" cy="485.254" r="18.893"/>
	</g>
	<g>
		<path d="M137.67,102c-1-56.66-73.34-62.5-88.67-15.5c-15.56,47.69,18,66.33,18,66.33C94.07,166.5,138.67,158.59,137.67,102z
			 M74.56,144.33c0,0-23.49-14.93-12.6-53.12c10.73-37.63,61.36-32.95,62.06,12.42C124.72,148.93,93.51,155.27,74.56,144.33z"/>
		<path d="M65.254,151.706c12.921,9.206,26.912,7.961,26.912,7.961c2.333,2.333,42.667,13,42.667,13l3.5-10.667
			c0,0-24.499-4.654-29.166-6.577"/>
	</g>
	<g>
		<path d="M607.546,874.633c1,56.66,73.34,62.5,88.67,15.5c15.56-47.69-18-66.33-18-66.33
			C651.146,810.133,606.546,818.043,607.546,874.633z M670.656,832.303c0,0,23.49,14.93,12.6,53.12
			c-10.73,37.63-61.36,32.95-62.06-12.42C620.496,827.703,651.706,821.363,670.656,832.303z"/>
		<path d="M679.962,824.927c-12.921-9.206-26.912-7.961-26.912-7.961c-2.333-2.333-42.667-13-42.667-13l-3.5,10.667
			c0,0,24.499,4.654,29.166,6.577"/>
	</g>
	<g>
		<path d="M639.413,134.093c-2.637,3.188-7.513,6.888-10.549,8.369c-9.424,4.597-15.635,3.171-20.693,1.993
			c-24.659-5.744-24.142-27.3-24.142-27.3c-1.014-19.785,11.057-33.372,19.679-40.851C612.07,69.049,639.413,50,639.413,50
			s27.302,19.049,35.653,26.304c8.609,7.479,20.662,21.066,19.65,40.851c0,0,0.516,21.556-24.106,27.3
			c-5.05,1.178-11.253,2.605-20.662-1.993C646.915,140.982,642.046,137.282,639.413,134.093z"/>
		<path d="M648.561,131.208c1.75,16.081,8.014,36.661,8.014,36.661h-34.408c0,0,7.282-23.722,8.523-35.675"/>
	</g>
	<g>
		<path d="M110.282,833.324c2.637-3.188,7.513-6.888,10.55-8.37c9.424-4.597,15.635-3.171,20.693-1.993
			c24.659,5.744,24.142,27.3,24.142,27.3c1.014,19.785-11.057,33.372-19.679,40.851c-8.364,7.255-35.706,26.304-35.706,26.304
			s-27.301-19.049-35.653-26.304c-8.609-7.479-20.662-21.066-19.65-40.851c0,0-0.516-21.556,24.106-27.3
			c5.05-1.178,11.253-2.605,20.662,1.993C102.78,826.436,107.649,830.136,110.282,833.324z"/>
		<path d="M101.134,836.209c-1.75-16.081-8.014-36.661-8.014-36.661h34.408c0,0-7.282,23.722-8.523,35.675"/>
	</g>
</g>
</svg>
