<?xml version="1.0" encoding="utf-8"?>
<!-- Generator: Adobe Illustrator 17.0.0, SVG Export Plug-In . SVG Version: 6.00 Build 0)  -->
<!DOCTYPE svg PUBLIC "-//W3C//DTD SVG 1.1//EN" "http://www.w3.org/Graphics/SVG/1.1/DTD/svg11.dtd">
<svg version="1.1" id="Layer_1" xmlns="http://www.w3.org/2000/svg" xmlns:xlink="http://www.w3.org/1999/xlink" x="0px" y="0px"
	 width="750px" height="968px" viewBox="0 0 750 968" enable-background="new 0 0 750 968" xml:space="preserve">
<path fill="#FFFFFF" stroke="#FFFFFF" stroke-width="18" stroke-miterlimit="10" d="M38.098,12h677.225
	c0,0,21.938-0.335,21.499,21.164c-0.548,26.868,0,894.277,0,894.277S737.261,951,715.323,951H38.098c0,0-22.098-3.109-22.098-25.955
	V32.828C16,32.828,14.48,12,38.098,12z"/>
<g>
	<path d="M641.371,118.713c0,0-15.993-15.993-26.887-20.629c-8.154-3.47-27.704-9.892-35.927,8.692
		c-5.795,13.096-0.135,25.525,2.781,28.857c4.867,5.562,13.743,9.418,27.37,4.867C619.12,137.024,641.371,118.713,641.371,118.713z"
		/>
	<path d="M641.928,118.324c0,0,15.993-15.993,20.629-26.887c3.47-8.154,9.892-27.704-8.692-35.927
		c-13.096-5.795-25.525-0.135-28.857,2.781c-5.562,4.867-9.419,13.743-4.867,27.37C623.617,96.072,641.928,118.324,641.928,118.324z
		"/>
	<path d="M642.318,117.934c0,0,15.993,15.993,26.887,20.629c8.154,3.47,27.704,9.892,35.927-8.692
		c5.795-13.096,0.135-25.525-2.781-28.857c-4.867-5.562-13.743-9.418-27.37-4.867C664.57,99.623,642.318,117.934,642.318,117.934z"
		/>
	<g>
		<path d="M642.313,118.324v52.421h-17.416C624.898,170.744,637.008,145.14,642.313,118.324z"/>
		<path d="M642.313,118.324v52.421h17.425C659.739,170.744,647.622,145.14,642.313,118.324z"/>
	</g>
</g>
<g>
	<path d="M113.271,854.579c0,0,15.993,15.993,26.887,20.629c8.154,3.47,27.704,9.892,35.927-8.692
		c5.795-13.096,0.135-25.525-2.781-28.857c-4.867-5.562-13.743-9.418-27.37-4.867C135.522,836.268,113.271,854.579,113.271,854.579z
		"/>
	<path d="M112.713,854.969c0,0-15.993,15.993-20.629,26.887c-3.47,8.154-9.892,27.704,8.692,35.927
		c13.096,5.795,25.525,0.135,28.857-2.781c5.562-4.867,9.418-13.743,4.867-27.37C131.024,877.22,112.713,854.969,112.713,854.969z"
		/>
	<path d="M112.324,855.359c0,0-15.993-15.993-26.887-20.629c-8.154-3.47-27.704-9.892-35.927,8.692
		c-5.795,13.096-0.135,25.525,2.781,28.857c4.867,5.562,13.743,9.418,27.37,4.867C90.072,873.67,112.324,855.359,112.324,855.359z"
		/>
	<g>
		<path d="M112.328,854.969v-52.421h17.416C129.744,802.548,117.634,828.153,112.328,854.969z"/>
		<path d="M112.328,854.969v-52.421H94.903C94.903,802.548,107.02,828.153,112.328,854.969z"/>
	</g>
</g>
<g>
	<path d="M576.502,515.774c-1.7-13.036-74.345-130.552-74.345-130.552v-90.31c-16.437-34.102-34.48-13.131-39.392-5.007
		c-15.115,24.751-25.223,6.33-29.663-3.873c-27.679-62.442-43.266-5.006-49.689,5.951c-10.203,17.665-26.64,8.88-30.607,2.362
		c-22.672-37.314-37.786,0-37.786,0l-0.661,90.876C210.823,434.25,212.807,557.056,212.807,557.056
		c51.956,10.675,74.439,43.077,81.524,64.331s-3.59,40.809-17.571,42.51c-13.981,1.795-20.216-7.085-20.216-7.085
		c-9.447-83.791-71.511-48.367-71.511-48.367c-29.473,30.702-7.652,67.921,0,79.068c7.746,11.242,39.015,39.015,107.503,20.121
		s90.876-78.501,90.876-78.501l2.456-142.361c1.417-43.36,31.93-59.608,49.689-64.804c16.815-4.818,35.047-0.756,41.187,3.401
		c22.011,14.926,52.523,75.006,52.523,75.006c5.29,11.052,2.362,14.737,2.362,14.737c-7.652,9.447-27.112,12.375-27.112,12.375
		l-0.567,73.306c-41.943-1.795-76.707,27.773-86.72,36.842c-34.008,30.89,5.479,42.226,15.114,28.528
		c14.926-21.443,68.016-34.764,85.114-35.897c17.098-1.134,18.326-13.603,18.326-13.603l1.228-67.26
		c17.665-2.362,31.268-10.013,34.197-13.036C574.14,533.44,578.297,528.716,576.502,515.774z M461.442,370.863h-110.62v-33.441
		c0,0,11.147-20.027,22.672,0c0,0,6.801,6.329,16.248-1.984c0,0,6.991-15.587,16.532-17.004
		c9.447,1.417,16.438,17.004,16.438,17.004c9.447,8.313,16.153,1.984,16.153,1.984c11.525-20.027,22.578,0,22.578,0V370.863z"/>
	<circle cx="463.757" cy="483.254" r="18.893"/>
</g>
<g>
	<path d="M139.67,100c-1-56.66-73.34-62.5-88.67-15.5c-15.56,47.69,18,66.33,18,66.33C96.07,164.5,140.67,156.59,139.67,100z
		 M76.56,142.33c0,0-23.49-14.93-12.6-53.12c10.73-37.63,61.36-32.95,62.06,12.42C126.72,146.93,95.51,153.27,76.56,142.33z"/>
	<path d="M67.254,149.706c12.921,9.206,26.912,7.961,26.912,7.961c2.333,2.333,42.667,13,42.667,13l3.5-10.667
		c0,0-24.499-4.654-29.166-6.577"/>
</g>
<g>
	<path d="M609.546,872.633c1,56.66,73.34,62.5,88.67,15.5c15.56-47.69-18-66.33-18-66.33
		C653.146,808.133,608.546,816.043,609.546,872.633z M672.656,830.303c0,0,23.49,14.93,12.6,53.12
		c-10.73,37.63-61.36,32.95-62.06-12.42C622.496,825.703,653.706,819.363,672.656,830.303z"/>
	<path d="M681.962,822.927c-12.921-9.206-26.912-7.961-26.912-7.961c-2.333-2.333-42.667-13-42.667-13l-3.5,10.667
		c0,0,24.499,4.654,29.166,6.577"/>
</g>
</svg>
