<?xml version="1.0" encoding="utf-8"?>
<!-- Generator: Adobe Illustrator 17.0.0, SVG Export Plug-In . SVG Version: 6.00 Build 0)  -->
<!DOCTYPE svg PUBLIC "-//W3C//DTD SVG 1.1//EN" "http://www.w3.org/Graphics/SVG/1.1/DTD/svg11.dtd">
<svg version="1.1" id="Layer_1" xmlns="http://www.w3.org/2000/svg" xmlns:xlink="http://www.w3.org/1999/xlink" x="0px" y="0px"
	 width="512px" height="512px" viewBox="0 0 512 512" enable-background="new 0 0 512 512" xml:space="preserve">
<g>
	<path fill="#7C8388" d="M281.333,277.332L124.641,434.021c-12.908,12.908-33.751,12.908-46.662,0
		c-12.908-12.911-12.908-33.753,0-46.662L234.671,230.67L281.333,277.332z"/>
	<path fill="#575F64" d="M258.002,254.001l23.331,23.331L124.641,434.021c-12.908,12.908-33.751,12.908-46.662,0L258.002,254.001z"
		/>
	<path fill="#7C8388" d="M405.761,152.901l-31.107,31.107c-4.353,4.356-11.199,4.356-15.552,0l-31.107-31.107
		c-4.356-4.353-4.356-11.199,0-15.552l31.107-31.107c4.353-4.356,11.199-4.356,15.552,0l31.107,31.107
		C410.117,141.705,410.117,148.548,405.761,152.901z"/>
	<path fill="#575F64" d="M359.099,184.011l-15.552-15.555l46.662-46.662l15.552,15.555c4.356,4.356,4.356,11.199,0,15.552
		l-31.107,31.107C370.301,188.364,363.455,188.364,359.099,184.011z"/>
	<path fill="#BBDCFF" d="M320.216,269.556l-46.662,15.555l-46.659-46.662l15.552-46.662h31.107l46.662,46.662V269.556z"/>
	<path fill="#9ABADB" d="M320.216,269.556l-46.662,15.555l-23.331-23.331l46.662-46.662l23.331,23.331V269.556z"/>
	<path fill="#BBDCFF" d="M312.44,137.349l-3.288-3.288C278.667,103,235.831,60.56,191.137,69.513l-13.06,2.612
		c-3.973,0.799-7.195,3.715-8.372,7.596c-1.177,3.881-0.12,8.097,2.75,10.967l93.324,93.321c4.299,4.299,11.256,4.299,15.552,0
		l31.107-31.107C316.739,148.605,316.739,141.648,312.44,137.349z"/>
	<path fill="#9ABADB" d="M439.875,333.926l2.615-13.063c8.936-44.723-33.447-87.61-64.548-118.012l-3.288-3.288
		c-4.299-4.299-11.256-4.299-15.555,0l-31.107,31.107c-4.299,4.299-4.299,11.256,0,15.555l93.324,93.321
		c2.87,2.873,7.086,3.927,10.967,2.75C436.163,341.118,439.079,337.899,439.875,333.926z"/>
	<path fill="#E0F4FF" d="M390.209,199.563l-69.993,69.993l-77.769-77.769l69.993-69.993c4.353-4.353,11.196-4.353,15.552,0
		l62.214,62.217C394.562,188.364,394.562,195.209,390.209,199.563z"/>
	<path fill="#BBDCFF" d="M390.209,199.563l-69.993,69.993l-38.883-38.886l77.769-77.769l31.107,31.107
		C394.562,188.364,394.562,195.209,390.209,199.563z"/>
</g>
</svg>
