<?xml version="1.0" encoding="utf-8"?>
<!-- Generator: Adobe Illustrator 17.0.0, SVG Export Plug-In . SVG Version: 6.00 Build 0)  -->
<!DOCTYPE svg PUBLIC "-//W3C//DTD SVG 1.1//EN" "http://www.w3.org/Graphics/SVG/1.1/DTD/svg11.dtd">
<svg version="1.1" id="Layer_1" xmlns="http://www.w3.org/2000/svg" xmlns:xlink="http://www.w3.org/1999/xlink" x="0px" y="0px"
	 width="512px" height="512px" viewBox="0 0 512 512" enable-background="new 0 0 512 512" xml:space="preserve">
<g>
	<g>
		<polyline fill="none" stroke="#FFFFFF" stroke-width="6" stroke-miterlimit="10" points="428.9,292.28 428.9,296.28 428.9,300.28 
			428.9,336.33 428.9,340.33 428.9,344.33 		"/>
		<polyline fill="#FFFFFF" stroke="#FFFFFF" stroke-width="6" stroke-miterlimit="10" points="428.9,468.49 428.9,472.49 
			325.88,472.49 321.88,472.49 190.13,472.49 186.13,472.49 83.1,472.49 83.1,468.49 		"/>
		<polyline fill="none" stroke="#FFFFFF" stroke-width="6" stroke-miterlimit="10" points="83.1,344.33 83.1,340.33 83.1,336.33 
			83.1,300.28 83.1,296.28 83.1,292.28 		"/>
		<polyline fill="none" stroke="#FFFFFF" stroke-width="6" stroke-miterlimit="10" points="83.1,380.38 83.1,384.39 83.1,388.38 
			83.1,424.44 83.1,428.44 83.1,432.44 		"/>
		<polyline fill="none" stroke="#FFFFFF" stroke-width="6" stroke-miterlimit="10" points="428.9,432.44 428.9,428.44 428.9,424.44 
			428.9,388.38 428.9,384.39 428.9,380.38 		"/>
		<polyline fill="none" stroke="#FFFFFF" stroke-width="6" stroke-miterlimit="10" points="83.1,256.23 83.1,252.23 83.1,251.04 
			83.1,248.23 83.1,246.1 83.1,244.06 83.1,241.16 		"/>
		<polyline fill="none" stroke="#FFFFFF" stroke-width="6" stroke-miterlimit="10" points="428.9,256.23 428.9,252.23 428.9,251.04 
			428.9,248.23 428.9,246.1 428.9,244.05 428.9,241.15 		"/>
	</g>
	<g>
		<path fill="none" stroke="#FFFFFF" stroke-width="6" stroke-miterlimit="10" d="M79.1,380.38v4.01v3.99v36.06v4v4 M79.1,292.28v4
			v4v36.05v4v4 M432.9,432.44v-4v-4v-36.06v-3.99v-4.01 M432.9,292.28v4v4v36.05v4v4 M426.07,244.05l2.83,2.05l2.93,2.13h1.07v-4.18
			H426.07z M426.07,244.05l2.83,2.05l2.93,2.13h1.07v-4.18H426.07z M426.07,244.05l2.83,2.05l2.93,2.13h1.07v-4.18H426.07z
			 M226.72,193.71H252v-25.14C238.94,170.33,228.56,180.66,226.72,193.71z M260,201.71v25.47c13.17-1.78,23.62-12.27,25.33-25.47
			H260z M256,160.29c-20.72,0-37.58,16.86-37.58,37.58c0,20.73,16.86,37.59,37.58,37.59s37.58-16.86,37.58-37.59
			C293.58,177.15,276.72,160.29,256,160.29z M260,168.57v25.14h25.28C283.44,180.66,273.06,170.33,260,168.57z M226.67,201.71
			c1.71,13.2,12.16,23.69,25.33,25.47v-25.47H226.67z M226.72,193.71H252v-25.14C238.94,170.33,228.56,180.66,226.72,193.71z
			 M260,201.71v25.47c13.17-1.78,23.62-12.27,25.33-25.47H260z M256,160.29c-20.72,0-37.58,16.86-37.58,37.58
			c0,20.73,16.86,37.59,37.58,37.59s37.58-16.86,37.58-37.59C293.58,177.15,276.72,160.29,256,160.29z M260,168.57v25.14h25.28
			C283.44,180.66,273.06,170.33,260,168.57z M226.67,201.71c1.71,13.2,12.16,23.69,25.33,25.47v-25.47H226.67z M426.07,244.05
			l2.83,2.05l2.93,2.13h1.07v-4.18H426.07z M226.72,193.71H252v-25.14C238.94,170.33,228.56,180.66,226.72,193.71z M260,201.71
			v25.47c13.17-1.78,23.62-12.27,25.33-25.47H260z M256,160.29c-20.72,0-37.58,16.86-37.58,37.58c0,20.73,16.86,37.59,37.58,37.59
			s37.58-16.86,37.58-37.59C293.58,177.15,276.72,160.29,256,160.29z M260,168.57v25.14h25.28
			C283.44,180.66,273.06,170.33,260,168.57z M226.67,201.71c1.71,13.2,12.16,23.69,25.33,25.47v-25.47H226.67z M226.72,193.71H252
			v-25.14C238.94,170.33,228.56,180.66,226.72,193.71z M260,201.71v25.47c13.17-1.78,23.62-12.27,25.33-25.47H260z M256,160.29
			c-20.72,0-37.58,16.86-37.58,37.58c0,20.73,16.86,37.59,37.58,37.59s37.58-16.86,37.58-37.59
			C293.58,177.15,276.72,160.29,256,160.29z M260,168.57v25.14h25.28C283.44,180.66,273.06,170.33,260,168.57z M226.67,201.71
			c1.71,13.2,12.16,23.69,25.33,25.47v-25.47H226.67z M426.07,244.05l2.83,2.05l2.93,2.13h1.07v-4.18H426.07z M226.72,193.71H252
			v-25.14C238.94,170.33,228.56,180.66,226.72,193.71z M260,201.71v25.47c13.17-1.78,23.62-12.27,25.33-25.47H260z M256,160.29
			c-20.72,0-37.58,16.86-37.58,37.58c0,20.73,16.86,37.59,37.58,37.59s37.58-16.86,37.58-37.59
			C293.58,177.15,276.72,160.29,256,160.29z M260,168.57v25.14h25.28C283.44,180.66,273.06,170.33,260,168.57z M226.67,201.71
			c1.71,13.2,12.16,23.69,25.33,25.47v-25.47H226.67z M226.72,193.71H252v-25.14C238.94,170.33,228.56,180.66,226.72,193.71z
			 M260,201.71v25.47c13.17-1.78,23.62-12.27,25.33-25.47H260z M256,160.29c-20.72,0-37.58,16.86-37.58,37.58
			c0,20.73,16.86,37.59,37.58,37.59s37.58-16.86,37.58-37.59C293.58,177.15,276.72,160.29,256,160.29z M260,168.57v25.14h25.28
			C283.44,180.66,273.06,170.33,260,168.57z M226.67,201.71c1.71,13.2,12.16,23.69,25.33,25.47v-25.47H226.67z M426.07,244.05
			l2.83,2.05l2.93,2.13h1.07v-4.18H426.07z M87.1,252.23v4h337.8v-4H87.1z M226.72,193.71H252v-25.14
			C238.94,170.33,228.56,180.66,226.72,193.71z M260,201.71v25.47c13.17-1.78,23.62-12.27,25.33-25.47H260z M256,160.29
			c-20.72,0-37.58,16.86-37.58,37.58c0,20.73,16.86,37.59,37.58,37.59s37.58-16.86,37.58-37.59
			C293.58,177.15,276.72,160.29,256,160.29z M260,168.57v25.14h25.28C283.44,180.66,273.06,170.33,260,168.57z M226.67,201.71
			c1.71,13.2,12.16,23.69,25.33,25.47v-25.47H226.67z M426.07,244.05l2.83,2.05l2.93,2.13h1.07v-4.18H426.07z M426.07,244.05
			l2.83,2.05l2.93,2.13h1.07v-4.18H426.07z M426.07,244.05l2.83,2.05l2.93,2.13h1.07v-4.18H426.07z M426.07,244.05l2.83,2.05
			l2.93,2.13h1.07v-4.18H426.07z M426.07,244.05l2.83,2.05l2.93,2.13h1.07v-4.18H426.07z M426.07,244.05l2.83,2.05l2.93,2.13h1.07
			v-4.18H426.07z M258.35,117.24c-0.7-0.51-1.53-0.76-2.35-0.76s-1.65,0.26-2.35,0.76L87.1,238.25v4.95l6.81-4.95L256,120.48
			l162.07,117.76l6.83,4.96v-4.96L258.35,117.24z M426.07,244.05l2.83,2.05l2.93,2.13h1.07v-4.18H426.07z M426.07,244.05l2.83,2.05
			l2.93,2.13h1.07v-4.18H426.07z M426.07,244.05l2.83,2.05l2.93,2.13h1.07v-4.18H426.07z M426.07,244.05l2.83,2.05l2.93,2.13h1.07
			v-4.18H426.07z M426.07,244.05l2.83,2.05l2.93,2.13h1.07v-4.18H426.07z M426.07,244.05l2.83,2.05l2.93,2.13h1.07v-4.18H426.07z
			 M226.72,193.71H252v-25.14C238.94,170.33,228.56,180.66,226.72,193.71z M260,201.71v25.47c13.17-1.78,23.62-12.27,25.33-25.47
			H260z M256,160.29c-20.72,0-37.58,16.86-37.58,37.58c0,20.73,16.86,37.59,37.58,37.59s37.58-16.86,37.58-37.59
			C293.58,177.15,276.72,160.29,256,160.29z M260,168.57v25.14h25.28C283.44,180.66,273.06,170.33,260,168.57z M226.67,201.71
			c1.71,13.2,12.16,23.69,25.33,25.47v-25.47H226.67z M426.07,244.05l2.83,2.05l2.93,2.13h1.07v-4.18H426.07z M226.72,193.71H252
			v-25.14C238.94,170.33,228.56,180.66,226.72,193.71z M260,201.71v25.47c13.17-1.78,23.62-12.27,25.33-25.47H260z M256,160.29
			c-20.72,0-37.58,16.86-37.58,37.58c0,20.73,16.86,37.59,37.58,37.59s37.58-16.86,37.58-37.59
			C293.58,177.15,276.72,160.29,256,160.29z M260,168.57v25.14h25.28C283.44,180.66,273.06,170.33,260,168.57z M226.67,201.71
			c1.71,13.2,12.16,23.69,25.33,25.47v-25.47H226.67z M226.72,193.71H252v-25.14C238.94,170.33,228.56,180.66,226.72,193.71z
			 M260,201.71v25.47c13.17-1.78,23.62-12.27,25.33-25.47H260z M256,160.29c-20.72,0-37.58,16.86-37.58,37.58
			c0,20.73,16.86,37.59,37.58,37.59s37.58-16.86,37.58-37.59C293.58,177.15,276.72,160.29,256,160.29z M260,168.57v25.14h25.28
			C283.44,180.66,273.06,170.33,260,168.57z M226.67,201.71c1.71,13.2,12.16,23.69,25.33,25.47v-25.47H226.67z M426.07,244.05
			l2.83,2.05l2.93,2.13h1.07v-4.18H426.07z M226.72,193.71H252v-25.14C238.94,170.33,228.56,180.66,226.72,193.71z M260,201.71
			v25.47c13.17-1.78,23.62-12.27,25.33-25.47H260z M256,160.29c-20.72,0-37.58,16.86-37.58,37.58c0,20.73,16.86,37.59,37.58,37.59
			s37.58-16.86,37.58-37.59C293.58,177.15,276.72,160.29,256,160.29z M260,168.57v25.14h25.28
			C283.44,180.66,273.06,170.33,260,168.57z M226.67,201.71c1.71,13.2,12.16,23.69,25.33,25.47v-25.47H226.67z M226.72,193.71H252
			v-25.14C238.94,170.33,228.56,180.66,226.72,193.71z M260,201.71v25.47c13.17-1.78,23.62-12.27,25.33-25.47H260z M256,160.29
			c-20.72,0-37.58,16.86-37.58,37.58c0,20.73,16.86,37.59,37.58,37.59s37.58-16.86,37.58-37.59
			C293.58,177.15,276.72,160.29,256,160.29z M260,168.57v25.14h25.28C283.44,180.66,273.06,170.33,260,168.57z M226.67,201.71
			c1.71,13.2,12.16,23.69,25.33,25.47v-25.47H226.67z M426.07,244.05l2.83,2.05l2.93,2.13h1.07v-4.18H426.07z M226.72,193.71H252
			v-25.14C238.94,170.33,228.56,180.66,226.72,193.71z M260,201.71v25.47c13.17-1.78,23.62-12.27,25.33-25.47H260z M256,160.29
			c-20.72,0-37.58,16.86-37.58,37.58c0,20.73,16.86,37.59,37.58,37.59s37.58-16.86,37.58-37.59
			C293.58,177.15,276.72,160.29,256,160.29z M260,168.57v25.14h25.28C283.44,180.66,273.06,170.33,260,168.57z M226.67,201.71
			c1.71,13.2,12.16,23.69,25.33,25.47v-25.47H226.67z M226.72,193.71H252v-25.14C238.94,170.33,228.56,180.66,226.72,193.71z
			 M260,201.71v25.47c13.17-1.78,23.62-12.27,25.33-25.47H260z M256,160.29c-20.72,0-37.58,16.86-37.58,37.58
			c0,20.73,16.86,37.59,37.58,37.59s37.58-16.86,37.58-37.59C293.58,177.15,276.72,160.29,256,160.29z M260,168.57v25.14h25.28
			C283.44,180.66,273.06,170.33,260,168.57z M226.67,201.71c1.71,13.2,12.16,23.69,25.33,25.47v-25.47H226.67z M426.07,244.05
			l2.83,2.05l2.93,2.13h1.07v-4.18H426.07z M426.07,244.05l2.83,2.05l2.93,2.13h1.07v-4.18H426.07z M424.9,256.23H87.1
			 M424.9,292.28H301.88h-91.75H87.1 M432.9,256.23v-2.28v-1.72v-3.22v-0.78v-1.97v-2.21h-4h-2.83h-1.17v-0.85l-6.83-4.96
			L256,120.48L93.91,238.25l-6.81,4.95v0.86h-1.19H83.1h-1.8h-2.2v2.21v1.96v0.78v3.22v1.72v2.28 M432.9,468.49v4c0,2.21-1.79,4-4,4
			H321.88H190.13H83.1c-2.21,0-4-1.79-4-4v-4"/>
	</g>
	<g>
		<g>
			<path fill="#FFFFFF" stroke="#FFFFFF" stroke-width="6" stroke-miterlimit="10" d="M256,160.29c-20.72,0-37.58,16.86-37.58,37.58
				c0,20.73,16.86,37.59,37.58,37.59s37.58-16.86,37.58-37.59C293.58,177.15,276.72,160.29,256,160.29z M285.28,193.71H260v-25.14
				C273.06,170.33,283.44,180.66,285.28,193.71z M252,168.57v25.14h-25.28C228.56,180.66,238.94,170.33,252,168.57z M226.67,201.71
				H252v25.47C238.83,225.4,228.38,214.91,226.67,201.71z M260,227.18v-25.47h25.33C283.62,214.91,273.17,225.4,260,227.18z
				 M256,160.29c-20.72,0-37.58,16.86-37.58,37.58c0,20.73,16.86,37.59,37.58,37.59s37.58-16.86,37.58-37.59
				C293.58,177.15,276.72,160.29,256,160.29z M285.28,193.71H260v-25.14C273.06,170.33,283.44,180.66,285.28,193.71z M252,168.57
				v25.14h-25.28C228.56,180.66,238.94,170.33,252,168.57z M226.67,201.71H252v25.47C238.83,225.4,228.38,214.91,226.67,201.71z
				 M260,227.18v-25.47h25.33C283.62,214.91,273.17,225.4,260,227.18z M432.9,244.05l-4-2.9l-4-2.91l-166.55-121
				c-0.7-0.51-1.53-0.76-2.35-0.76s-1.65,0.26-2.35,0.76L87.1,238.25l-4,2.91v2.9h2.81l1.19-0.86l6.81-4.95L256,120.48
				l162.07,117.76l6.83,4.96l1.17,0.85l2.83,2.05l2.93,2.13h6.82L432.9,244.05z M256,160.29c-20.72,0-37.58,16.86-37.58,37.58
				c0,20.73,16.86,37.59,37.58,37.59s37.58-16.86,37.58-37.59C293.58,177.15,276.72,160.29,256,160.29z M285.28,193.71H260v-25.14
				C273.06,170.33,283.44,180.66,285.28,193.71z M252,168.57v25.14h-25.28C228.56,180.66,238.94,170.33,252,168.57z M226.67,201.71
				H252v25.47C238.83,225.4,228.38,214.91,226.67,201.71z M260,227.18v-25.47h25.33C283.62,214.91,273.17,225.4,260,227.18z
				 M432.9,244.05l-4-2.9l-4-2.91l-166.55-121c-0.7-0.51-1.53-0.76-2.35-0.76s-1.65,0.26-2.35,0.76L87.1,238.25l-4,2.91v2.9h2.81
				l1.19-0.86l6.81-4.95L256,120.48l162.07,117.76l6.83,4.96l1.17,0.85l2.83,2.05l2.93,2.13h6.82L432.9,244.05z M432.9,244.05
				l-4-2.9l-4-2.91l-166.55-121c-0.7-0.51-1.53-0.76-2.35-0.76s-1.65,0.26-2.35,0.76L87.1,238.25l-4,2.91v2.9h2.81l1.19-0.86
				l6.81-4.95L256,120.48l162.07,117.76l6.83,4.96l1.17,0.85l2.83,2.05l2.93,2.13h6.82L432.9,244.05z M432.9,244.05v4.18h5.75
				L432.9,244.05z M432.9,244.05v4.18h5.75L432.9,244.05z M432.9,244.05v4.18h5.75L432.9,244.05z M432.9,244.05v4.18h5.75
				L432.9,244.05z M432.9,244.05v4.18h5.75L432.9,244.05z M432.9,244.05v4.18h5.75L432.9,244.05z M256,160.29
				c-20.72,0-37.58,16.86-37.58,37.58c0,20.73,16.86,37.59,37.58,37.59s37.58-16.86,37.58-37.59
				C293.58,177.15,276.72,160.29,256,160.29z M285.28,193.71H260v-25.14C273.06,170.33,283.44,180.66,285.28,193.71z M252,168.57
				v25.14h-25.28C228.56,180.66,238.94,170.33,252,168.57z M226.67,201.71H252v25.47C238.83,225.4,228.38,214.91,226.67,201.71z
				 M260,227.18v-25.47h25.33C283.62,214.91,273.17,225.4,260,227.18z M432.9,244.05v4.18h5.75L432.9,244.05z M256,160.29
				c-20.72,0-37.58,16.86-37.58,37.58c0,20.73,16.86,37.59,37.58,37.59s37.58-16.86,37.58-37.59
				C293.58,177.15,276.72,160.29,256,160.29z M285.28,193.71H260v-25.14C273.06,170.33,283.44,180.66,285.28,193.71z M252,168.57
				v25.14h-25.28C228.56,180.66,238.94,170.33,252,168.57z M226.67,201.71H252v25.47C238.83,225.4,228.38,214.91,226.67,201.71z
				 M260,227.18v-25.47h25.33C283.62,214.91,273.17,225.4,260,227.18z M432.9,244.05v4.18h5.75L432.9,244.05z M256,160.29
				c-20.72,0-37.58,16.86-37.58,37.58c0,20.73,16.86,37.59,37.58,37.59s37.58-16.86,37.58-37.59
				C293.58,177.15,276.72,160.29,256,160.29z M285.28,193.71H260v-25.14C273.06,170.33,283.44,180.66,285.28,193.71z M252,168.57
				v25.14h-25.28C228.56,180.66,238.94,170.33,252,168.57z M226.67,201.71H252v25.47C238.83,225.4,228.38,214.91,226.67,201.71z
				 M260,227.18v-25.47h25.33C283.62,214.91,273.17,225.4,260,227.18z M432.9,244.05v4.18h5.75L432.9,244.05z M256,160.29
				c-20.72,0-37.58,16.86-37.58,37.58c0,20.73,16.86,37.59,37.58,37.59s37.58-16.86,37.58-37.59
				C293.58,177.15,276.72,160.29,256,160.29z M285.28,193.71H260v-25.14C273.06,170.33,283.44,180.66,285.28,193.71z M252,168.57
				v25.14h-25.28C228.56,180.66,238.94,170.33,252,168.57z M226.67,201.71H252v25.47C238.83,225.4,228.38,214.91,226.67,201.71z
				 M260,227.18v-25.47h25.33C283.62,214.91,273.17,225.4,260,227.18z M432.9,244.05v4.18h5.75L432.9,244.05z M256,160.29
				c-20.72,0-37.58,16.86-37.58,37.58c0,20.73,16.86,37.59,37.58,37.59s37.58-16.86,37.58-37.59
				C293.58,177.15,276.72,160.29,256,160.29z M285.28,193.71H260v-25.14C273.06,170.33,283.44,180.66,285.28,193.71z M252,168.57
				v25.14h-25.28C228.56,180.66,238.94,170.33,252,168.57z M226.67,201.71H252v25.47C238.83,225.4,228.38,214.91,226.67,201.71z
				 M260,227.18v-25.47h25.33C283.62,214.91,273.17,225.4,260,227.18z M432.9,244.05v4.18h5.75L432.9,244.05z M256,160.29
				c-20.72,0-37.58,16.86-37.58,37.58c0,20.73,16.86,37.59,37.58,37.59s37.58-16.86,37.58-37.59
				C293.58,177.15,276.72,160.29,256,160.29z M285.28,193.71H260v-25.14C273.06,170.33,283.44,180.66,285.28,193.71z M252,168.57
				v25.14h-25.28C228.56,180.66,238.94,170.33,252,168.57z M226.67,201.71H252v25.47C238.83,225.4,228.38,214.91,226.67,201.71z
				 M260,227.18v-25.47h25.33C283.62,214.91,273.17,225.4,260,227.18z M258.35,117.24c-0.7-0.51-1.53-0.76-2.35-0.76
				s-1.65,0.26-2.35,0.76L87.1,238.25v4.95l6.81-4.95L256,120.48l162.07,117.76l6.83,4.96v-4.96L258.35,117.24z M432.9,244.05v4.18
				h5.75L432.9,244.05z M432.9,244.05v4.18h5.75L432.9,244.05z M256,160.29c-20.72,0-37.58,16.86-37.58,37.58
				c0,20.73,16.86,37.59,37.58,37.59s37.58-16.86,37.58-37.59C293.58,177.15,276.72,160.29,256,160.29z M285.28,193.71H260v-25.14
				C273.06,170.33,283.44,180.66,285.28,193.71z M252,168.57v25.14h-25.28C228.56,180.66,238.94,170.33,252,168.57z M226.67,201.71
				H252v25.47C238.83,225.4,228.38,214.91,226.67,201.71z M260,227.18v-25.47h25.33C283.62,214.91,273.17,225.4,260,227.18z
				 M432.9,244.05v4.18h5.75L432.9,244.05z M256,160.29c-20.72,0-37.58,16.86-37.58,37.58c0,20.73,16.86,37.59,37.58,37.59
				s37.58-16.86,37.58-37.59C293.58,177.15,276.72,160.29,256,160.29z M285.28,193.71H260v-25.14
				C273.06,170.33,283.44,180.66,285.28,193.71z M252,168.57v25.14h-25.28C228.56,180.66,238.94,170.33,252,168.57z M226.67,201.71
				H252v25.47C238.83,225.4,228.38,214.91,226.67,201.71z M260,227.18v-25.47h25.33C283.62,214.91,273.17,225.4,260,227.18z
				 M432.9,244.05v4.18h5.75L432.9,244.05z M256,160.29c-20.72,0-37.58,16.86-37.58,37.58c0,20.73,16.86,37.59,37.58,37.59
				s37.58-16.86,37.58-37.59C293.58,177.15,276.72,160.29,256,160.29z M285.28,193.71H260v-25.14
				C273.06,170.33,283.44,180.66,285.28,193.71z M252,168.57v25.14h-25.28C228.56,180.66,238.94,170.33,252,168.57z M226.67,201.71
				H252v25.47C238.83,225.4,228.38,214.91,226.67,201.71z M260,227.18v-25.47h25.33C283.62,214.91,273.17,225.4,260,227.18z
				 M432.9,244.05v4.18h5.75L432.9,244.05z M256,160.29c-20.72,0-37.58,16.86-37.58,37.58c0,20.73,16.86,37.59,37.58,37.59
				s37.58-16.86,37.58-37.59C293.58,177.15,276.72,160.29,256,160.29z M285.28,193.71H260v-25.14
				C273.06,170.33,283.44,180.66,285.28,193.71z M252,168.57v25.14h-25.28C228.56,180.66,238.94,170.33,252,168.57z M226.67,201.71
				H252v25.47C238.83,225.4,228.38,214.91,226.67,201.71z M260,227.18v-25.47h25.33C283.62,214.91,273.17,225.4,260,227.18z
				 M432.9,244.05v4.18h5.75L432.9,244.05z M256,160.29c-20.72,0-37.58,16.86-37.58,37.58c0,20.73,16.86,37.59,37.58,37.59
				s37.58-16.86,37.58-37.59C293.58,177.15,276.72,160.29,256,160.29z M285.28,193.71H260v-25.14
				C273.06,170.33,283.44,180.66,285.28,193.71z M252,168.57v25.14h-25.28C228.56,180.66,238.94,170.33,252,168.57z M226.67,201.71
				H252v25.47C238.83,225.4,228.38,214.91,226.67,201.71z M260,227.18v-25.47h25.33C283.62,214.91,273.17,225.4,260,227.18z
				 M432.9,244.05v4.18h5.75L432.9,244.05z M432.9,244.05v4.18h5.75L432.9,244.05z M432.9,244.05v4.18h5.75L432.9,244.05z
				 M432.9,244.05v4.18h5.75L432.9,244.05z M432.9,244.05v4.18h5.75L432.9,244.05z M432.9,244.05v4.18h5.75L432.9,244.05z
				 M432.9,244.05l-4-2.9l-4-2.91l-166.55-121c-0.7-0.51-1.53-0.76-2.35-0.76s-1.65,0.26-2.35,0.76L87.1,238.25l-4,2.91v2.9h2.81
				l1.19-0.86l6.81-4.95L256,120.48l162.07,117.76l6.83,4.96l1.17,0.85l2.83,2.05l2.93,2.13h6.82L432.9,244.05z M432.9,244.05
				l-4-2.9l-4-2.91l-166.55-121c-0.7-0.51-1.53-0.76-2.35-0.76s-1.65,0.26-2.35,0.76L87.1,238.25l-4,2.91v2.9h2.81l1.19-0.86
				l6.81-4.95L256,120.48l162.07,117.76l6.83,4.96l1.17,0.85l2.83,2.05l2.93,2.13h6.82L432.9,244.05z M432.9,244.05l-4-2.9l-4-2.91
				l-166.55-121c-0.7-0.51-1.53-0.76-2.35-0.76s-1.65,0.26-2.35,0.76L87.1,238.25l-4,2.91v2.9h2.81l1.19-0.86l6.81-4.95L256,120.48
				l162.07,117.76l6.83,4.96l1.17,0.85l2.83,2.05l2.93,2.13h6.82L432.9,244.05z M256,160.29c-20.72,0-37.58,16.86-37.58,37.58
				c0,20.73,16.86,37.59,37.58,37.59s37.58-16.86,37.58-37.59C293.58,177.15,276.72,160.29,256,160.29z M285.28,193.71H260v-25.14
				C273.06,170.33,283.44,180.66,285.28,193.71z M252,168.57v25.14h-25.28C228.56,180.66,238.94,170.33,252,168.57z M226.67,201.71
				H252v25.47C238.83,225.4,228.38,214.91,226.67,201.71z M260,227.18v-25.47h25.33C283.62,214.91,273.17,225.4,260,227.18z
				 M256,160.29c-20.72,0-37.58,16.86-37.58,37.58c0,20.73,16.86,37.59,37.58,37.59s37.58-16.86,37.58-37.59
				C293.58,177.15,276.72,160.29,256,160.29z M285.28,193.71H260v-25.14C273.06,170.33,283.44,180.66,285.28,193.71z M252,168.57
				v25.14h-25.28C228.56,180.66,238.94,170.33,252,168.57z M226.67,201.71H252v25.47C238.83,225.4,228.38,214.91,226.67,201.71z
				 M260,227.18v-25.47h25.33C283.62,214.91,273.17,225.4,260,227.18z M256,160.29c-20.72,0-37.58,16.86-37.58,37.58
				c0,20.73,16.86,37.59,37.58,37.59s37.58-16.86,37.58-37.59C293.58,177.15,276.72,160.29,256,160.29z M285.28,193.71H260v-25.14
				C273.06,170.33,283.44,180.66,285.28,193.71z M252,168.57v25.14h-25.28C228.56,180.66,238.94,170.33,252,168.57z M226.67,201.71
				H252v25.47C238.83,225.4,228.38,214.91,226.67,201.71z M260,227.18v-25.47h25.33C283.62,214.91,273.17,225.4,260,227.18z
				 M256,160.29c-20.72,0-37.58,16.86-37.58,37.58c0,20.73,16.86,37.59,37.58,37.59s37.58-16.86,37.58-37.59
				C293.58,177.15,276.72,160.29,256,160.29z M285.28,193.71H260v-25.14C273.06,170.33,283.44,180.66,285.28,193.71z M252,168.57
				v25.14h-25.28C228.56,180.66,238.94,170.33,252,168.57z M226.67,201.71H252v25.47C238.83,225.4,228.38,214.91,226.67,201.71z
				 M260,227.18v-25.47h25.33C283.62,214.91,273.17,225.4,260,227.18z M256,160.29c-20.72,0-37.58,16.86-37.58,37.58
				c0,20.73,16.86,37.59,37.58,37.59s37.58-16.86,37.58-37.59C293.58,177.15,276.72,160.29,256,160.29z M285.28,193.71H260v-25.14
				C273.06,170.33,283.44,180.66,285.28,193.71z M252,168.57v25.14h-25.28C228.56,180.66,238.94,170.33,252,168.57z M226.67,201.71
				H252v25.47C238.83,225.4,228.38,214.91,226.67,201.71z M260,227.18v-25.47h25.33C283.62,214.91,273.17,225.4,260,227.18z
				 M256,160.29c-20.72,0-37.58,16.86-37.58,37.58c0,20.73,16.86,37.59,37.58,37.59s37.58-16.86,37.58-37.59
				C293.58,177.15,276.72,160.29,256,160.29z M285.28,193.71H260v-25.14C273.06,170.33,283.44,180.66,285.28,193.71z M252,168.57
				v25.14h-25.28C228.56,180.66,238.94,170.33,252,168.57z M226.67,201.71H252v25.47C238.83,225.4,228.38,214.91,226.67,201.71z
				 M260,227.18v-25.47h25.33C283.62,214.91,273.17,225.4,260,227.18z M256,160.29c-20.72,0-37.58,16.86-37.58,37.58
				c0,20.73,16.86,37.59,37.58,37.59s37.58-16.86,37.58-37.59C293.58,177.15,276.72,160.29,256,160.29z M285.28,193.71H260v-25.14
				C273.06,170.33,283.44,180.66,285.28,193.71z M252,168.57v25.14h-25.28C228.56,180.66,238.94,170.33,252,168.57z M226.67,201.71
				H252v25.47C238.83,225.4,228.38,214.91,226.67,201.71z M260,227.18v-25.47h25.33C283.62,214.91,273.17,225.4,260,227.18z
				 M256,160.29c-20.72,0-37.58,16.86-37.58,37.58c0,20.73,16.86,37.59,37.58,37.59s37.58-16.86,37.58-37.59
				C293.58,177.15,276.72,160.29,256,160.29z M285.28,193.71H260v-25.14C273.06,170.33,283.44,180.66,285.28,193.71z M252,168.57
				v25.14h-25.28C228.56,180.66,238.94,170.33,252,168.57z M226.67,201.71H252v25.47C238.83,225.4,228.38,214.91,226.67,201.71z
				 M260,227.18v-25.47h25.33C283.62,214.91,273.17,225.4,260,227.18z M256,160.29c-20.72,0-37.58,16.86-37.58,37.58
				c0,20.73,16.86,37.59,37.58,37.59s37.58-16.86,37.58-37.59C293.58,177.15,276.72,160.29,256,160.29z M285.28,193.71H260v-25.14
				C273.06,170.33,283.44,180.66,285.28,193.71z M252,168.57v25.14h-25.28C228.56,180.66,238.94,170.33,252,168.57z M226.67,201.71
				H252v25.47C238.83,225.4,228.38,214.91,226.67,201.71z M260,227.18v-25.47h25.33C283.62,214.91,273.17,225.4,260,227.18z
				 M256,160.29c-20.72,0-37.58,16.86-37.58,37.58c0,20.73,16.86,37.59,37.58,37.59s37.58-16.86,37.58-37.59
				C293.58,177.15,276.72,160.29,256,160.29z M285.28,193.71H260v-25.14C273.06,170.33,283.44,180.66,285.28,193.71z M252,168.57
				v25.14h-25.28C228.56,180.66,238.94,170.33,252,168.57z M226.67,201.71H252v25.47C238.83,225.4,228.38,214.91,226.67,201.71z
				 M260,227.18v-25.47h25.33C283.62,214.91,273.17,225.4,260,227.18z M256,160.29c-20.72,0-37.58,16.86-37.58,37.58
				c0,20.73,16.86,37.59,37.58,37.59s37.58-16.86,37.58-37.59C293.58,177.15,276.72,160.29,256,160.29z M285.28,193.71H260v-25.14
				C273.06,170.33,283.44,180.66,285.28,193.71z M252,168.57v25.14h-25.28C228.56,180.66,238.94,170.33,252,168.57z M226.67,201.71
				H252v25.47C238.83,225.4,228.38,214.91,226.67,201.71z M260,227.18v-25.47h25.33C283.62,214.91,273.17,225.4,260,227.18z
				 M256,160.29c-20.72,0-37.58,16.86-37.58,37.58c0,20.73,16.86,37.59,37.58,37.59s37.58-16.86,37.58-37.59
				C293.58,177.15,276.72,160.29,256,160.29z M285.28,193.71H260v-25.14C273.06,170.33,283.44,180.66,285.28,193.71z M252,168.57
				v25.14h-25.28C228.56,180.66,238.94,170.33,252,168.57z M226.67,201.71H252v25.47C238.83,225.4,228.38,214.91,226.67,201.71z
				 M260,227.18v-25.47h25.33C283.62,214.91,273.17,225.4,260,227.18z M256,160.29c-20.72,0-37.58,16.86-37.58,37.58
				c0,20.73,16.86,37.59,37.58,37.59s37.58-16.86,37.58-37.59C293.58,177.15,276.72,160.29,256,160.29z M285.28,193.71H260v-25.14
				C273.06,170.33,283.44,180.66,285.28,193.71z M252,168.57v25.14h-25.28C228.56,180.66,238.94,170.33,252,168.57z M226.67,201.71
				H252v25.47C238.83,225.4,228.38,214.91,226.67,201.71z M260,227.18v-25.47h25.33C283.62,214.91,273.17,225.4,260,227.18z
				 M489.07,200.3L277.28,46.43c-12.69-9.22-29.87-9.22-42.56,0L22.93,200.3c-16.18,11.75-19.77,34.4-8.01,50.58
				c8.62,11.86,23.07,16.95,36.55,14.2c1.34-0.27,2.68-0.63,4-1.06c1.35-0.44,2.69-0.97,4-1.58v-4.49l2.84-1.72h6.85l5.51-4
				l4.43-3.22l1.07-0.78l2.93-2.13v-2.04h-4l-5.74,4.17H55.47c-2.21,0-4,1.79-4,4v8.74c-12.21,2.81-25.49-1.68-33.31-12.44
				c-5.06-6.96-7.1-15.48-5.76-23.98c1.34-8.49,5.92-15.96,12.88-21.02L237.07,49.66c11.32-8.23,26.54-8.23,37.86,0l211.79,153.87
				c6.96,5.06,11.54,12.53,12.88,21.02c1.35,8.5-0.7,17.02-5.75,23.98c-6.05,8.31-15.8,13.28-26.09,13.28
				c-2.46,0-4.89-0.27-7.23-0.83v-8.75c0-2.21-1.79-4-4-4h-17.88l-5.75-4.18l-4-2.9l-4-2.91l-166.55-121
				c-0.7-0.51-1.53-0.76-2.35-0.76s-1.65,0.26-2.35,0.76L87.1,238.25l-4,2.91v2.9h2.81l1.19-0.86l6.81-4.95L256,120.48
				l162.07,117.76l6.83,4.96l1.17,0.85l2.83,2.05l2.93,2.13l1.07,0.78l4.43,3.22l5.51,4h9.69v6.21c1.31,0.62,2.64,1.14,4,1.58
				c1.32,0.44,2.66,0.79,4,1.06c2.39,0.49,4.82,0.73,7.23,0.73c11.19,0,22.24-5.18,29.32-14.93
				C508.84,234.7,505.25,212.05,489.07,200.3z M256,160.29c-20.72,0-37.58,16.86-37.58,37.58c0,20.73,16.86,37.59,37.58,37.59
				s37.58-16.86,37.58-37.59C293.58,177.15,276.72,160.29,256,160.29z M285.28,193.71H260v-25.14
				C273.06,170.33,283.44,180.66,285.28,193.71z M252,168.57v25.14h-25.28C228.56,180.66,238.94,170.33,252,168.57z M226.67,201.71
				H252v25.47C238.83,225.4,228.38,214.91,226.67,201.71z M260,227.18v-25.47h25.33C283.62,214.91,273.17,225.4,260,227.18z
				 M256,160.29c-20.72,0-37.58,16.86-37.58,37.58c0,20.73,16.86,37.59,37.58,37.59s37.58-16.86,37.58-37.59
				C293.58,177.15,276.72,160.29,256,160.29z M285.28,193.71H260v-25.14C273.06,170.33,283.44,180.66,285.28,193.71z M252,168.57
				v25.14h-25.28C228.56,180.66,238.94,170.33,252,168.57z M226.67,201.71H252v25.47C238.83,225.4,228.38,214.91,226.67,201.71z
				 M260,227.18v-25.47h25.33C283.62,214.91,273.17,225.4,260,227.18z M256,160.29c-20.72,0-37.58,16.86-37.58,37.58
				c0,20.73,16.86,37.59,37.58,37.59s37.58-16.86,37.58-37.59C293.58,177.15,276.72,160.29,256,160.29z M285.28,193.71H260v-25.14
				C273.06,170.33,283.44,180.66,285.28,193.71z M252,168.57v25.14h-25.28C228.56,180.66,238.94,170.33,252,168.57z M226.67,201.71
				H252v25.47C238.83,225.4,228.38,214.91,226.67,201.71z M260,227.18v-25.47h25.33C283.62,214.91,273.17,225.4,260,227.18z
				 M256,160.29c-20.72,0-37.58,16.86-37.58,37.58c0,20.73,16.86,37.59,37.58,37.59s37.58-16.86,37.58-37.59
				C293.58,177.15,276.72,160.29,256,160.29z M285.28,193.71H260v-25.14C273.06,170.33,283.44,180.66,285.28,193.71z M252,168.57
				v25.14h-25.28C228.56,180.66,238.94,170.33,252,168.57z M226.67,201.71H252v25.47C238.83,225.4,228.38,214.91,226.67,201.71z
				 M260,227.18v-25.47h25.33C283.62,214.91,273.17,225.4,260,227.18z M256,160.29c-20.72,0-37.58,16.86-37.58,37.58
				c0,20.73,16.86,37.59,37.58,37.59s37.58-16.86,37.58-37.59C293.58,177.15,276.72,160.29,256,160.29z M285.28,193.71H260v-25.14
				C273.06,170.33,283.44,180.66,285.28,193.71z M252,168.57v25.14h-25.28C228.56,180.66,238.94,170.33,252,168.57z M226.67,201.71
				H252v25.47C238.83,225.4,228.38,214.91,226.67,201.71z M260,227.18v-25.47h25.33C283.62,214.91,273.17,225.4,260,227.18z
				 M256,160.29c-20.72,0-37.58,16.86-37.58,37.58c0,20.73,16.86,37.59,37.58,37.59s37.58-16.86,37.58-37.59
				C293.58,177.15,276.72,160.29,256,160.29z M285.28,193.71H260v-25.14C273.06,170.33,283.44,180.66,285.28,193.71z M252,168.57
				v25.14h-25.28C228.56,180.66,238.94,170.33,252,168.57z M226.67,201.71H252v25.47C238.83,225.4,228.38,214.91,226.67,201.71z
				 M260,227.18v-25.47h25.33C283.62,214.91,273.17,225.4,260,227.18z M256,160.29c-20.72,0-37.58,16.86-37.58,37.58
				c0,20.73,16.86,37.59,37.58,37.59s37.58-16.86,37.58-37.59C293.58,177.15,276.72,160.29,256,160.29z M285.28,193.71H260v-25.14
				C273.06,170.33,283.44,180.66,285.28,193.71z M252,168.57v25.14h-25.28C228.56,180.66,238.94,170.33,252,168.57z M226.67,201.71
				H252v25.47C238.83,225.4,228.38,214.91,226.67,201.71z M260,227.18v-25.47h25.33C283.62,214.91,273.17,225.4,260,227.18z
				 M256,160.29c-20.72,0-37.58,16.86-37.58,37.58c0,20.73,16.86,37.59,37.58,37.59s37.58-16.86,37.58-37.59
				C293.58,177.15,276.72,160.29,256,160.29z M285.28,193.71H260v-25.14C273.06,170.33,283.44,180.66,285.28,193.71z M252,168.57
				v25.14h-25.28C228.56,180.66,238.94,170.33,252,168.57z M226.67,201.71H252v25.47C238.83,225.4,228.38,214.91,226.67,201.71z
				 M260,227.18v-25.47h25.33C283.62,214.91,273.17,225.4,260,227.18z M256,160.29c-20.72,0-37.58,16.86-37.58,37.58
				c0,20.73,16.86,37.59,37.58,37.59s37.58-16.86,37.58-37.59C293.58,177.15,276.72,160.29,256,160.29z M285.28,193.71H260v-25.14
				C273.06,170.33,283.44,180.66,285.28,193.71z M252,168.57v25.14h-25.28C228.56,180.66,238.94,170.33,252,168.57z M226.67,201.71
				H252v25.47C238.83,225.4,228.38,214.91,226.67,201.71z M260,227.18v-25.47h25.33C283.62,214.91,273.17,225.4,260,227.18z"/>
		</g>
	</g>
	<g>
		<g>
			<path fill="#FFFFFF" stroke="#FFFFFF" stroke-width="6" stroke-miterlimit="10" d="M256,160.29c-20.72,0-37.58,16.86-37.58,37.58
				c0,20.73,16.86,37.59,37.58,37.59s37.58-16.86,37.58-37.59C293.58,177.15,276.72,160.29,256,160.29z M285.28,193.71H260v-25.14
				C273.06,170.33,283.44,180.66,285.28,193.71z M252,168.57v25.14h-25.28C228.56,180.66,238.94,170.33,252,168.57z M226.67,201.71
				H252v25.47C238.83,225.4,228.38,214.91,226.67,201.71z M260,227.18v-25.47h25.33C283.62,214.91,273.17,225.4,260,227.18z
				 M256,160.29c-20.72,0-37.58,16.86-37.58,37.58c0,20.73,16.86,37.59,37.58,37.59s37.58-16.86,37.58-37.59
				C293.58,177.15,276.72,160.29,256,160.29z M285.28,193.71H260v-25.14C273.06,170.33,283.44,180.66,285.28,193.71z M252,168.57
				v25.14h-25.28C228.56,180.66,238.94,170.33,252,168.57z M226.67,201.71H252v25.47C238.83,225.4,228.38,214.91,226.67,201.71z
				 M260,227.18v-25.47h25.33C283.62,214.91,273.17,225.4,260,227.18z M432.9,244.05l-4-2.9l-4-2.91h-6.83L256,120.48L93.91,238.25
				l-6.81,4.95l-1.19,0.86l-2.81,2.04l-2.93,2.13h6.8l0.13-0.1l5.6-4.07l8-5.81L256,125.42l155.28,112.82l8,5.81l5.62,4.08l0.13,0.1
				h13.62L432.9,244.05z M256,160.29c-20.72,0-37.58,16.86-37.58,37.58c0,20.73,16.86,37.59,37.58,37.59s37.58-16.86,37.58-37.59
				C293.58,177.15,276.72,160.29,256,160.29z M285.28,193.71H260v-25.14C273.06,170.33,283.44,180.66,285.28,193.71z M252,168.57
				v25.14h-25.28C228.56,180.66,238.94,170.33,252,168.57z M226.67,201.71H252v25.47C238.83,225.4,228.38,214.91,226.67,201.71z
				 M260,227.18v-25.47h25.33C283.62,214.91,273.17,225.4,260,227.18z M256,160.29c-20.72,0-37.58,16.86-37.58,37.58
				c0,20.73,16.86,37.59,37.58,37.59s37.58-16.86,37.58-37.59C293.58,177.15,276.72,160.29,256,160.29z M285.28,193.71H260v-25.14
				C273.06,170.33,283.44,180.66,285.28,193.71z M252,168.57v25.14h-25.28C228.56,180.66,238.94,170.33,252,168.57z M226.67,201.71
				H252v25.47C238.83,225.4,228.38,214.91,226.67,201.71z M260,227.18v-25.47h25.33C283.62,214.91,273.17,225.4,260,227.18z
				 M81.3,244.06h1.8v-1.8L81.3,244.06z M83.1,241.16v1.1l4-4.01L83.1,241.16z M256,160.29c-20.72,0-37.58,16.86-37.58,37.58
				c0,20.73,16.86,37.59,37.58,37.59s37.58-16.86,37.58-37.59C293.58,177.15,276.72,160.29,256,160.29z M285.28,193.71H260v-25.14
				C273.06,170.33,283.44,180.66,285.28,193.71z M252,168.57v25.14h-25.28C228.56,180.66,238.94,170.33,252,168.57z M226.67,201.71
				H252v25.47C238.83,225.4,228.38,214.91,226.67,201.71z M260,227.18v-25.47h25.33C283.62,214.91,273.17,225.4,260,227.18z
				 M432.9,244.05l-4-2.9l-4-2.91l-166.55-121c-0.7-0.51-1.53-0.76-2.35-0.76s-1.65,0.26-2.35,0.76L87.1,238.25h6.81l-6.81,4.95
				l-1.19,0.86l-2.81,2.04l-2.93,2.13h6.8l0.13-0.1l5.6-4.07l8-5.81L256,125.42l155.28,112.82l8,5.81l5.62,4.08l0.13,0.1h13.62
				L432.9,244.05z M256,160.29c-20.72,0-37.58,16.86-37.58,37.58c0,20.73,16.86,37.59,37.58,37.59s37.58-16.86,37.58-37.59
				C293.58,177.15,276.72,160.29,256,160.29z M285.28,193.71H260v-25.14C273.06,170.33,283.44,180.66,285.28,193.71z M252,168.57
				v25.14h-25.28C228.56,180.66,238.94,170.33,252,168.57z M226.67,201.71H252v25.47C238.83,225.4,228.38,214.91,226.67,201.71z
				 M260,227.18v-25.47h25.33C283.62,214.91,273.17,225.4,260,227.18z M256,160.29c-20.72,0-37.58,16.86-37.58,37.58
				c0,20.73,16.86,37.59,37.58,37.59s37.58-16.86,37.58-37.59C293.58,177.15,276.72,160.29,256,160.29z M285.28,193.71H260v-25.14
				C273.06,170.33,283.44,180.66,285.28,193.71z M252,168.57v25.14h-25.28C228.56,180.66,238.94,170.33,252,168.57z M226.67,201.71
				H252v25.47C238.83,225.4,228.38,214.91,226.67,201.71z M260,227.18v-25.47h25.33C283.62,214.91,273.17,225.4,260,227.18z
				 M256,160.29c-20.72,0-37.58,16.86-37.58,37.58c0,20.73,16.86,37.59,37.58,37.59s37.58-16.86,37.58-37.59
				C293.58,177.15,276.72,160.29,256,160.29z M285.28,193.71H260v-25.14C273.06,170.33,283.44,180.66,285.28,193.71z M252,168.57
				v25.14h-25.28C228.56,180.66,238.94,170.33,252,168.57z M226.67,201.71H252v25.47C238.83,225.4,228.38,214.91,226.67,201.71z
				 M260,227.18v-25.47h25.33C283.62,214.91,273.17,225.4,260,227.18z M428.9,246.1l-2.83-2.05l-1.17-0.85l-6.83-4.96L256,120.48
				L93.91,238.25l-6.81,4.95l-1.19,0.86l-2.81,2.04l-2.93,2.13h6.8l0.13-0.1l5.6-4.07l8-5.81L256,125.42l155.28,112.82l8,5.81
				l5.62,4.08l0.13,0.1h6.8L428.9,246.1z M256,160.29c-20.72,0-37.58,16.86-37.58,37.58c0,20.73,16.86,37.59,37.58,37.59
				s37.58-16.86,37.58-37.59C293.58,177.15,276.72,160.29,256,160.29z M285.28,193.71H260v-25.14
				C273.06,170.33,283.44,180.66,285.28,193.71z M252,168.57v25.14h-25.28C228.56,180.66,238.94,170.33,252,168.57z M226.67,201.71
				H252v25.47C238.83,225.4,228.38,214.91,226.67,201.71z M260,227.18v-25.47h25.33C283.62,214.91,273.17,225.4,260,227.18z
				 M256,160.29c-20.72,0-37.58,16.86-37.58,37.58c0,20.73,16.86,37.59,37.58,37.59s37.58-16.86,37.58-37.59
				C293.58,177.15,276.72,160.29,256,160.29z M285.28,193.71H260v-25.14C273.06,170.33,283.44,180.66,285.28,193.71z M252,168.57
				v25.14h-25.28C228.56,180.66,238.94,170.33,252,168.57z M226.67,201.71H252v25.47C238.83,225.4,228.38,214.91,226.67,201.71z
				 M260,227.18v-25.47h25.33C283.62,214.91,273.17,225.4,260,227.18z M428.9,246.1l-2.83-2.05l-1.17-0.85l-6.83-4.96L256,120.48
				L93.91,238.25h6.79L256,125.42l155.28,112.82l8,5.81l5.62,4.08l0.13,0.1h6.8L428.9,246.1z M256,160.29
				c-20.72,0-37.58,16.86-37.58,37.58c0,20.73,16.86,37.59,37.58,37.59s37.58-16.86,37.58-37.59
				C293.58,177.15,276.72,160.29,256,160.29z M285.28,193.71H260v-25.14C273.06,170.33,283.44,180.66,285.28,193.71z M252,168.57
				v25.14h-25.28C228.56,180.66,238.94,170.33,252,168.57z M226.67,201.71H252v25.47C238.83,225.4,228.38,214.91,226.67,201.71z
				 M260,227.18v-25.47h25.33C283.62,214.91,273.17,225.4,260,227.18z M428.9,246.1l-2.83-2.05l-1.17-0.85l-6.83-4.96L256,120.48
				L93.91,238.25h6.79L256,125.42l155.28,112.82l8,5.81l5.62,4.08l0.13,0.1h6.8L428.9,246.1z M428.9,246.1l-2.83-2.05h-6.79
				l5.62,4.08l0.13,0.1h6.8L428.9,246.1z M83.1,241.16v1.1l4-4.01L83.1,241.16z M81.3,244.06h1.8v-1.8L81.3,244.06z M432.9,244.05
				l-4-2.9l-4-2.91h-6.83l6.83,4.96l1.17,0.85h-6.79l5.62,4.08l0.13,0.1h13.62L432.9,244.05z M256,160.29
				c-20.72,0-37.58,16.86-37.58,37.58c0,20.73,16.86,37.59,37.58,37.59s37.58-16.86,37.58-37.59
				C293.58,177.15,276.72,160.29,256,160.29z M285.28,193.71H260v-25.14C273.06,170.33,283.44,180.66,285.28,193.71z M252,168.57
				v25.14h-25.28C228.56,180.66,238.94,170.33,252,168.57z M226.67,201.71H252v25.47C238.83,225.4,228.38,214.91,226.67,201.71z
				 M260,227.18v-25.47h25.33C283.62,214.91,273.17,225.4,260,227.18z M428.9,246.1l-2.83-2.05l-1.17-0.85l-6.83-4.96h6.83
				l-166.55-121c-0.7-0.51-1.53-0.76-2.35-0.76s-1.65,0.26-2.35,0.76L87.1,238.25h13.6L256,125.42l155.28,112.82l8,5.81l5.62,4.08
				l0.13,0.1h6.8L428.9,246.1z M428.9,246.1l-2.83-2.05h-6.79l5.62,4.08l0.13,0.1h6.8L428.9,246.1z M83.1,241.16v1.1l4-4.01
				L83.1,241.16z M81.3,244.06h1.8v-1.8L81.3,244.06z M432.9,244.05l-4-2.9l-4-2.91h-6.83l6.83,4.96l1.17,0.85h-6.79l5.62,4.08
				l0.13,0.1h13.62L432.9,244.05z M256,160.29c-20.72,0-37.58,16.86-37.58,37.58c0,20.73,16.86,37.59,37.58,37.59
				s37.58-16.86,37.58-37.59C293.58,177.15,276.72,160.29,256,160.29z M285.28,193.71H260v-25.14
				C273.06,170.33,283.44,180.66,285.28,193.71z M252,168.57v25.14h-25.28C228.56,180.66,238.94,170.33,252,168.57z M226.67,201.71
				H252v25.47C238.83,225.4,228.38,214.91,226.67,201.71z M260,227.18v-25.47h25.33C283.62,214.91,273.17,225.4,260,227.18z
				 M428.9,246.1l-2.83-2.05l-1.17-0.85l-6.83-4.96h6.83l-166.55-121c-0.7-0.51-1.53-0.76-2.35-0.76s-1.65,0.26-2.35,0.76
				L87.1,238.25h13.6L256,125.42l155.28,112.82l8,5.81l5.62,4.08l0.13,0.1h6.8L428.9,246.1z M428.9,246.1l-2.83-2.05h-6.79
				l5.62,4.08l0.13,0.1h6.8L428.9,246.1z M83.1,241.16v1.1l4-4.01L83.1,241.16z M81.3,244.06h1.8v-1.8L81.3,244.06z M81.3,244.06
				h1.8v-1.8L81.3,244.06z M83.1,241.16v1.1l4-4.01L83.1,241.16z M256,160.29c-20.72,0-37.58,16.86-37.58,37.58
				c0,20.73,16.86,37.59,37.58,37.59s37.58-16.86,37.58-37.59C293.58,177.15,276.72,160.29,256,160.29z M285.28,193.71H260v-25.14
				C273.06,170.33,283.44,180.66,285.28,193.71z M252,168.57v25.14h-25.28C228.56,180.66,238.94,170.33,252,168.57z M226.67,201.71
				H252v25.47C238.83,225.4,228.38,214.91,226.67,201.71z M260,227.18v-25.47h25.33C283.62,214.91,273.17,225.4,260,227.18z
				 M428.9,246.1l-2.83-2.05l-1.17-0.85l-6.83-4.96h6.83l-166.55-121c-0.7-0.51-1.53-0.76-2.35-0.76s-1.65,0.26-2.35,0.76
				L87.1,238.25h13.6L256,125.42l155.28,112.82l8,5.81l5.62,4.08l0.13,0.1h6.8L428.9,246.1z M256,160.29
				c-20.72,0-37.58,16.86-37.58,37.58c0,20.73,16.86,37.59,37.58,37.59s37.58-16.86,37.58-37.59
				C293.58,177.15,276.72,160.29,256,160.29z M285.28,193.71H260v-25.14C273.06,170.33,283.44,180.66,285.28,193.71z M252,168.57
				v25.14h-25.28C228.56,180.66,238.94,170.33,252,168.57z M226.67,201.71H252v25.47C238.83,225.4,228.38,214.91,226.67,201.71z
				 M260,227.18v-25.47h25.33C283.62,214.91,273.17,225.4,260,227.18z M256,160.29c-20.72,0-37.58,16.86-37.58,37.58
				c0,20.73,16.86,37.59,37.58,37.59s37.58-16.86,37.58-37.59C293.58,177.15,276.72,160.29,256,160.29z M285.28,193.71H260v-25.14
				C273.06,170.33,283.44,180.66,285.28,193.71z M252,168.57v25.14h-25.28C228.56,180.66,238.94,170.33,252,168.57z M226.67,201.71
				H252v25.47C238.83,225.4,228.38,214.91,226.67,201.71z M260,227.18v-25.47h25.33C283.62,214.91,273.17,225.4,260,227.18z
				 M256,160.29c-20.72,0-37.58,16.86-37.58,37.58c0,20.73,16.86,37.59,37.58,37.59s37.58-16.86,37.58-37.59
				C293.58,177.15,276.72,160.29,256,160.29z M285.28,193.71H260v-25.14C273.06,170.33,283.44,180.66,285.28,193.71z M252,168.57
				v25.14h-25.28C228.56,180.66,238.94,170.33,252,168.57z M226.67,201.71H252v25.47C238.83,225.4,228.38,214.91,226.67,201.71z
				 M260,227.18v-25.47h25.33C283.62,214.91,273.17,225.4,260,227.18z M81.3,244.06h1.8v-1.8L81.3,244.06z M81.3,244.06h1.8v-1.8
				L81.3,244.06z M83.1,241.16l-4,2.9h4v-1.8l4-4.01L83.1,241.16z M432.9,244.05l-4-2.9l-4-2.91l-166.55-121
				c-0.7-0.51-1.53-0.76-2.35-0.76s-1.65,0.26-2.35,0.76L87.1,238.25h6.81L256,120.48l162.07,117.76l6.83,4.96l1.17,0.85l2.83,2.05
				l2.93,2.13h6.82L432.9,244.05z M81.3,244.06h1.8v-1.8L81.3,244.06z M81.3,244.06h1.8v-1.8L81.3,244.06z M256,160.29
				c-20.72,0-37.58,16.86-37.58,37.58c0,20.73,16.86,37.59,37.58,37.59s37.58-16.86,37.58-37.59
				C293.58,177.15,276.72,160.29,256,160.29z M285.28,193.71H260v-25.14C273.06,170.33,283.44,180.66,285.28,193.71z M252,168.57
				v25.14h-25.28C228.56,180.66,238.94,170.33,252,168.57z M226.67,201.71H252v25.47C238.83,225.4,228.38,214.91,226.67,201.71z
				 M260,227.18v-25.47h25.33C283.62,214.91,273.17,225.4,260,227.18z M81.3,244.06h1.8v-1.8L81.3,244.06z M83.1,241.16v1.1l4-4.01
				L83.1,241.16z M256,160.29c-20.72,0-37.58,16.86-37.58,37.58c0,20.73,16.86,37.59,37.58,37.59s37.58-16.86,37.58-37.59
				C293.58,177.15,276.72,160.29,256,160.29z M285.28,193.71H260v-25.14C273.06,170.33,283.44,180.66,285.28,193.71z M252,168.57
				v25.14h-25.28C228.56,180.66,238.94,170.33,252,168.57z M226.67,201.71H252v25.47C238.83,225.4,228.38,214.91,226.67,201.71z
				 M260,227.18v-25.47h25.33C283.62,214.91,273.17,225.4,260,227.18z M428.9,246.1l-2.83-2.05l-1.17-0.85l-6.83-4.96h6.83
				l-166.55-121c-0.7-0.51-1.53-0.76-2.35-0.76s-1.65,0.26-2.35,0.76L87.1,238.25h13.6L256,125.42l155.28,112.82l8,5.81l5.62,4.08
				l0.13,0.1h6.8L428.9,246.1z M256,160.29c-20.72,0-37.58,16.86-37.58,37.58c0,20.73,16.86,37.59,37.58,37.59
				s37.58-16.86,37.58-37.59C293.58,177.15,276.72,160.29,256,160.29z M285.28,193.71H260v-25.14
				C273.06,170.33,283.44,180.66,285.28,193.71z M252,168.57v25.14h-25.28C228.56,180.66,238.94,170.33,252,168.57z M226.67,201.71
				H252v25.47C238.83,225.4,228.38,214.91,226.67,201.71z M260,227.18v-25.47h25.33C283.62,214.91,273.17,225.4,260,227.18z
				 M428.9,246.1l-2.83-2.05l-1.17-0.85l-6.83-4.96h6.83l-166.55-121c-0.7-0.51-1.53-0.76-2.35-0.76s-1.65,0.26-2.35,0.76
				L87.1,238.25h13.6L256,125.42l155.28,112.82l8,5.81l5.62,4.08l0.13,0.1h6.8L428.9,246.1z M428.9,246.1l-2.83-2.05h-6.79
				l5.62,4.08l0.13,0.1h6.8L428.9,246.1z M83.1,241.16v1.1l4-4.01L83.1,241.16z M81.3,244.06h1.8v-1.8L81.3,244.06z M432.9,246.26
				v-2.21l-4-2.9l-4-2.91h-6.83l6.83,4.96l1.17,0.85l2.83,2.05l2.93,2.13h3.03L432.9,246.26z M81.3,244.06h1.8v-1.8L81.3,244.06z
				 M256,160.29c-20.72,0-37.58,16.86-37.58,37.58c0,20.73,16.86,37.59,37.58,37.59s37.58-16.86,37.58-37.59
				C293.58,177.15,276.72,160.29,256,160.29z M285.28,193.71H260v-25.14C273.06,170.33,283.44,180.66,285.28,193.71z M252,168.57
				v25.14h-25.28C228.56,180.66,238.94,170.33,252,168.57z M226.67,201.71H252v25.47C238.83,225.4,228.38,214.91,226.67,201.71z
				 M260,227.18v-25.47h25.33C283.62,214.91,273.17,225.4,260,227.18z M428.9,246.1l-2.83-2.05l-1.17-0.85l-6.83-4.96L256,120.48
				L93.91,238.25l-6.81,4.95l-1.19,0.86l-2.81,2.04l-2.93,2.13h6.8l0.13-0.1l5.6-4.07l8-5.81L256,125.42l155.28,112.82l8,5.81
				l5.62,4.08l0.13,0.1h6.8L428.9,246.1z M81.3,244.06h1.8v-1.8L81.3,244.06z M81.3,244.06h1.8v-1.8L81.3,244.06z M256,160.29
				c-20.72,0-37.58,16.86-37.58,37.58c0,20.73,16.86,37.59,37.58,37.59s37.58-16.86,37.58-37.59
				C293.58,177.15,276.72,160.29,256,160.29z M285.28,193.71H260v-25.14C273.06,170.33,283.44,180.66,285.28,193.71z M252,168.57
				v25.14h-25.28C228.56,180.66,238.94,170.33,252,168.57z M226.67,201.71H252v25.47C238.83,225.4,228.38,214.91,226.67,201.71z
				 M260,227.18v-25.47h25.33C283.62,214.91,273.17,225.4,260,227.18z M428.9,246.1l-2.83-2.05l-1.17-0.85l-6.83-4.96L256,120.48
				L93.91,238.25l-6.81,4.95l-1.19,0.86l-2.81,2.04l-2.93,2.13h6.8l0.13-0.1l5.6-4.07l8-5.81L256,125.42l155.28,112.82l8,5.81
				l5.62,4.08l0.13,0.1h6.8L428.9,246.1z M81.3,244.06h1.8v-1.8L81.3,244.06z M256,160.29c-20.72,0-37.58,16.86-37.58,37.58
				c0,20.73,16.86,37.59,37.58,37.59s37.58-16.86,37.58-37.59C293.58,177.15,276.72,160.29,256,160.29z M285.28,193.71H260v-25.14
				C273.06,170.33,283.44,180.66,285.28,193.71z M252,168.57v25.14h-25.28C228.56,180.66,238.94,170.33,252,168.57z M226.67,201.71
				H252v25.47C238.83,225.4,228.38,214.91,226.67,201.71z M260,227.18v-25.47h25.33C283.62,214.91,273.17,225.4,260,227.18z
				 M428.9,246.1l-2.83-2.05l-1.17-0.85l-6.83-4.96L256,120.48L93.91,238.25H87.1l-4,4.01v-1.1l-4,2.9h2.2l-2.2,2.21l-1.96,1.96
				l-3.99,4l-3.99,4l5.51-4l4.43-3.22l1.07-0.78h6.8l0.13-0.1l5.6-4.07l8-5.81L256,125.42l155.28,112.82l8,5.81l5.62,4.08l0.13,0.1
				h6.8L428.9,246.1z M438.85,252.23l-3.99-4h-3.03l1.07,0.78l4.43,3.22l5.51,4L438.85,252.23z M81.3,244.06h1.8v-1.8L81.3,244.06z
				 M81.3,244.06h1.8v-1.8L81.3,244.06z M256,160.29c-20.72,0-37.58,16.86-37.58,37.58c0,20.73,16.86,37.59,37.58,37.59
				s37.58-16.86,37.58-37.59C293.58,177.15,276.72,160.29,256,160.29z M285.28,193.71H260v-25.14
				C273.06,170.33,283.44,180.66,285.28,193.71z M252,168.57v25.14h-25.28C228.56,180.66,238.94,170.33,252,168.57z M226.67,201.71
				H252v25.47C238.83,225.4,228.38,214.91,226.67,201.71z M260,227.18v-25.47h25.33C283.62,214.91,273.17,225.4,260,227.18z
				 M428.9,246.1l-2.83-2.05l-1.17-0.85l-6.83-4.96L256,120.48L93.91,238.25l-6.81,4.95l-1.19,0.86l-2.81,2.04l-2.93,2.13h6.8
				l0.13-0.1l5.6-4.07l8-5.81L256,125.42l155.28,112.82l8,5.81l5.62,4.08l0.13,0.1h6.8L428.9,246.1z M81.3,244.06h1.8v-1.8
				L81.3,244.06z M432.9,244.05l-4-2.9l-4-2.91l-166.55-121c-0.7-0.51-1.53-0.76-2.35-0.76s-1.65,0.26-2.35,0.76L87.1,238.25h6.81
				L256,120.48l162.07,117.76l6.83,4.96l1.17,0.85l2.83,2.05l2.93,2.13h6.82L432.9,244.05z M83.1,241.16l-4,2.9h4v-1.8l4-4.01
				L83.1,241.16z M432.9,244.05l-4-2.9l-4-2.91l-166.55-121c-0.7-0.51-1.53-0.76-2.35-0.76s-1.65,0.26-2.35,0.76L87.1,238.25h6.81
				L256,120.48l162.07,117.76l6.83,4.96l1.17,0.85l2.83,2.05l2.93,2.13h6.82L432.9,244.05z M83.1,241.16l-4,2.9h4v-1.8l4-4.01
				L83.1,241.16z M432.9,244.05l-4-2.9l-4-2.91l-166.55-121c-0.7-0.51-1.53-0.76-2.35-0.76s-1.65,0.26-2.35,0.76L87.1,238.25h6.81
				L256,120.48l162.07,117.76l6.83,4.96l1.17,0.85l2.83,2.05l2.93,2.13h6.82L432.9,244.05z M83.1,241.16l-4,2.9h4v-1.8l4-4.01
				L83.1,241.16z M256,160.29c-20.72,0-37.58,16.86-37.58,37.58c0,20.73,16.86,37.59,37.58,37.59s37.58-16.86,37.58-37.59
				C293.58,177.15,276.72,160.29,256,160.29z M285.28,193.71H260v-25.14C273.06,170.33,283.44,180.66,285.28,193.71z M252,168.57
				v25.14h-25.28C228.56,180.66,238.94,170.33,252,168.57z M226.67,201.71H252v25.47C238.83,225.4,228.38,214.91,226.67,201.71z
				 M260,227.18v-25.47h25.33C283.62,214.91,273.17,225.4,260,227.18z M432.9,244.05l-4-2.9l-4-2.91l-166.55-121
				c-0.7-0.51-1.53-0.76-2.35-0.76s-1.65,0.26-2.35,0.76L87.1,238.25h6.81L256,120.48l162.07,117.76l6.83,4.96l1.17,0.85l2.83,2.05
				l2.93,2.13h6.82L432.9,244.05z M79.1,244.06h4v-1.8l4-4.01l-4,2.91L79.1,244.06z M256,160.29c-20.72,0-37.58,16.86-37.58,37.58
				c0,20.73,16.86,37.59,37.58,37.59s37.58-16.86,37.58-37.59C293.58,177.15,276.72,160.29,256,160.29z M285.28,193.71H260v-25.14
				C273.06,170.33,283.44,180.66,285.28,193.71z M252,168.57v25.14h-25.28C228.56,180.66,238.94,170.33,252,168.57z M226.67,201.71
				H252v25.47C238.83,225.4,228.38,214.91,226.67,201.71z M260,227.18v-25.47h25.33C283.62,214.91,273.17,225.4,260,227.18z
				 M489.07,200.3L277.28,46.43c-12.69-9.22-29.87-9.22-42.56,0L22.93,200.3c-16.18,11.75-19.77,34.4-8.01,50.58
				c8.62,11.86,23.07,16.95,36.55,14.2c1.34-0.27,2.68-0.63,4-1.06c1.35-0.44,2.69-0.97,4-1.58v-4.49l2.84-1.72h390.22v6.21
				c1.31,0.62,2.64,1.14,4,1.58c1.32,0.44,2.66,0.79,4,1.06c2.39,0.49,4.82,0.73,7.23,0.73c11.19,0,22.24-5.18,29.32-14.93
				C508.84,234.7,505.25,212.05,489.07,200.3z M87.1,248.13l5.6-4.07l8-5.81L256,125.42l155.28,112.82l8,5.81l5.62,4.08l0.13,0.1
				H86.97L87.1,248.13z M493.85,248.53c-6.05,8.31-15.8,13.28-26.09,13.28c-2.46,0-4.89-0.27-7.23-0.83v-8.75c0-2.21-1.79-4-4-4
				h-17.88l-5.75-4.18l-4-2.9l-4-2.91l-166.55-121c-0.7-0.51-1.53-0.76-2.35-0.76s-1.65,0.26-2.35,0.76L87.1,238.25l-4,2.91l-4,2.9
				l-5.74,4.17H55.47c-2.21,0-4,1.79-4,4v8.74c-12.21,2.81-25.49-1.68-33.31-12.44c-5.06-6.96-7.1-15.48-5.76-23.98
				c1.34-8.49,5.92-15.96,12.88-21.02L237.07,49.66c11.32-8.23,26.54-8.23,37.86,0l211.79,153.87c6.96,5.06,11.54,12.53,12.88,21.02
				C500.95,233.05,498.9,241.57,493.85,248.53z M256,160.29c-20.72,0-37.58,16.86-37.58,37.58c0,20.73,16.86,37.59,37.58,37.59
				s37.58-16.86,37.58-37.59C293.58,177.15,276.72,160.29,256,160.29z M252,168.57v25.14h-25.28
				C228.56,180.66,238.94,170.33,252,168.57z M226.67,201.71H252v25.47C238.83,225.4,228.38,214.91,226.67,201.71z M260,227.18
				v-25.47h25.33C283.62,214.91,273.17,225.4,260,227.18z M260,193.71v-25.14c13.06,1.76,23.44,12.09,25.28,25.14H260z M83.1,241.16
				l-4,2.9h4v-1.8l4-4.01L83.1,241.16z M432.9,244.05l-4-2.9l-4-2.91l-166.55-121c-0.7-0.51-1.53-0.76-2.35-0.76
				s-1.65,0.26-2.35,0.76L87.1,238.25h6.81L256,120.48l162.07,117.76l6.83,4.96l1.17,0.85l2.83,2.05l2.93,2.13h6.82L432.9,244.05z
				 M83.1,241.16l-4,2.9h4v-1.8l4-4.01L83.1,241.16z M432.9,244.05l-4-2.9l-4-2.91l-166.55-121c-0.7-0.51-1.53-0.76-2.35-0.76
				s-1.65,0.26-2.35,0.76L87.1,238.25h6.81L256,120.48l162.07,117.76l6.83,4.96l1.17,0.85l2.83,2.05l2.93,2.13h6.82L432.9,244.05z
				 M83.1,241.16l-4,2.9h4v-1.8l4-4.01L83.1,241.16z M432.9,244.05l-4-2.9l-4-2.91l-166.55-121c-0.7-0.51-1.53-0.76-2.35-0.76
				s-1.65,0.26-2.35,0.76L87.1,238.25h6.81L256,120.48l162.07,117.76l6.83,4.96l1.17,0.85l2.83,2.05l2.93,2.13h6.82L432.9,244.05z"
				/>
		</g>
	</g>
	<g>
		<g>
			<path fill="#FFFFFF" stroke="#FFFFFF" stroke-width="6" stroke-miterlimit="10" d="M432.9,244.05l-4-2.9l-4-2.91l-166.55-121
				c-0.7-0.51-1.53-0.76-2.35-0.76s-1.65,0.26-2.35,0.76L87.1,238.25l-4,2.91l-4,2.9l-5.74,4.17l-5.5,4h6.81l4.43-3.22l1.07-0.78
				h6.8l0.13-0.1l5.6-4.07l8-5.81L256,125.42l155.28,112.82l8,5.81l5.62,4.08l0.13,0.1h13.62L432.9,244.05z M432.9,244.05l-4-2.9
				l-4-2.91l-166.55-121c-0.7-0.51-1.53-0.76-2.35-0.76s-1.65,0.26-2.35,0.76L87.1,238.25l-4,2.91l-4,2.9l-5.74,4.17l-5.5,4h6.81
				l4.43-3.22l1.07-0.78h6.8l0.13-0.1l5.6-4.07l8-5.81L256,125.42l155.28,112.82l8,5.81l5.62,4.08l0.13,0.1h13.62L432.9,244.05z
				 M432.9,244.05l-4-2.9l-4-2.91l-166.55-121c-0.7-0.51-1.53-0.76-2.35-0.76s-1.65,0.26-2.35,0.76L87.1,238.25l-4,2.91l-4,2.9
				l-5.74,4.17l-5.5,4h6.81l4.43-3.22l1.07-0.78h6.8l0.13-0.1l5.6-4.07l8-5.81L256,125.42l155.28,112.82l8,5.81l5.62,4.08l0.13,0.1
				h13.62L432.9,244.05z M432.9,244.05l-4-2.9l-4-2.91l-166.55-121c-0.7-0.51-1.53-0.76-2.35-0.76s-1.65,0.26-2.35,0.76L87.1,238.25
				l-4,2.91l-4,2.9l-5.74,4.17l-5.5,4h6.81l4.43-3.22l1.07-0.78h6.8l0.13-0.1l5.6-4.07l8-5.81L256,125.42l155.28,112.82l8,5.81
				l5.62,4.08l0.13,0.1h13.62L432.9,244.05z M432.9,244.05l-4-2.9l-4-2.91l-166.55-121c-0.7-0.51-1.53-0.76-2.35-0.76
				s-1.65,0.26-2.35,0.76L87.1,238.25l-4,2.91l-4,2.9l-5.74,4.17l-5.5,4h6.81l4.43-3.22l1.07-0.78h6.8l0.13-0.1l5.6-4.07l8-5.81
				L256,125.42l155.28,112.82l8,5.81l5.62,4.08l0.13,0.1h13.62L432.9,244.05z M432.9,244.05l-4-2.9l-4-2.91l-166.55-121
				c-0.7-0.51-1.53-0.76-2.35-0.76s-1.65,0.26-2.35,0.76L87.1,238.25l-4,2.91l-4,2.9l-5.74,4.17l-5.5,4h6.81l4.43-3.22l1.07-0.78
				h6.8l0.13-0.1l5.6-4.07l8-5.81L256,125.42l155.28,112.82l8,5.81l5.62,4.08l0.13,0.1h13.62L432.9,244.05z M432.9,244.05l-4-2.9
				l-4-2.91l-166.55-121c-0.7-0.51-1.53-0.76-2.35-0.76s-1.65,0.26-2.35,0.76L87.1,238.25l-4,2.91l-4,2.9l-5.74,4.17l-5.5,4h6.81
				l4.43-3.22l1.07-0.78h6.8l0.13-0.1l5.6-4.07l8-5.81L256,125.42l155.28,112.82l8,5.81l5.62,4.08l0.13,0.1h13.62L432.9,244.05z
				 M432.9,244.05l-4-2.9l-4-2.91l-166.55-121c-0.7-0.51-1.53-0.76-2.35-0.76s-1.65,0.26-2.35,0.76L87.1,238.25l-4,2.91l-4,2.9
				l-5.74,4.17l-5.5,4h6.81l4.43-3.22l1.07-0.78h6.8l0.13-0.1l5.6-4.07l8-5.81L256,125.42l155.28,112.82l8,5.81l5.62,4.08l0.13,0.1
				h13.62L432.9,244.05z M432.9,244.05v4.18h5.75L432.9,244.05z M432.9,244.05v4.18h5.75L432.9,244.05z M432.9,244.05v4.18h5.75
				L432.9,244.05z M432.9,244.05v4.18h5.75L432.9,244.05z M432.9,244.05v4.18h5.75L432.9,244.05z M432.9,244.05v4.18h5.75
				L432.9,244.05z M432.9,244.05v4.18h5.75L432.9,244.05z M432.9,244.05v4.18h5.75L432.9,244.05z M432.9,244.05v4.18h5.75
				L432.9,244.05z M432.9,244.05v4.18h5.75L432.9,244.05z M432.9,244.05v4.18h5.75L432.9,244.05z M432.9,244.05v4.18h5.75
				L432.9,244.05z M432.9,244.05l-4-2.9l-4-2.91l-166.55-121c-0.7-0.51-1.53-0.76-2.35-0.76s-1.65,0.26-2.35,0.76L87.1,238.25
				l-4,2.91l-4,2.9h6.81l1.19-0.86l6.81-4.95L256,120.48l162.07,117.76l6.83,4.96l1.17,0.85l2.83,2.05l2.93,2.13h6.82L432.9,244.05z
				 M432.9,244.05v4.18h5.75L432.9,244.05z M432.9,244.05v4.18h5.75L432.9,244.05z M432.9,244.05v4.18h5.75L432.9,244.05z
				 M432.9,244.05v4.18h5.75L432.9,244.05z M432.9,244.05v4.18h5.75L432.9,244.05z M432.9,244.05v4.18h5.75L432.9,244.05z
				 M432.9,244.05v4.18h5.75L432.9,244.05z M432.9,244.05v4.18h5.75L432.9,244.05z M432.9,244.05v4.18h5.75L432.9,244.05z
				 M432.9,244.05v4.18h5.75L432.9,244.05z M432.9,244.05v4.18h5.75L432.9,244.05z M448.86,255.65l-4.71-3.42l-5.5-4l-5.75-4.18
				l-4-2.9l-4-2.91l-166.55-121c-0.7-0.51-1.53-0.76-2.35-0.76s-1.65,0.26-2.35,0.76L87.1,238.25l-4,2.91l-4,2.9l-5.74,4.17l-5.5,4
				l-4.71,3.42c-0.28,0.2-0.56,0.4-0.84,0.58h13.65l3.14-2.28l2.36-1.72l1.64-1.19l3.87-2.81l0.13-0.1l5.6-4.07l8-5.81L256,125.42
				l155.28,112.82l8,5.81l5.62,4.08l0.13,0.1l3.87,2.81l1.64,1.19l2.36,1.72l3.14,2.28h13.65
				C449.41,256.04,449.13,255.85,448.86,255.65z M438.65,248.23l-5.75-4.18l-4-2.9l-4-2.91l-166.55-121
				c-0.7-0.51-1.53-0.76-2.35-0.76s-1.65,0.26-2.35,0.76L87.1,238.25l-4,2.91l-4,2.9l-5.74,4.17l-5.5,4l-4.71,3.42
				c-0.28,0.2-0.56,0.4-0.84,0.58h6.85l5.51-4l4.43-3.22l1.07-0.78h6.8l0.13-0.1l5.6-4.07l8-5.81L256,125.42l155.28,112.82l8,5.81
				l5.62,4.08l0.13,0.1h6.8l1.07,0.78l4.43,3.22h6.82L438.65,248.23z M448.86,255.65l-4.71-3.42l-5.5-4l-5.75-4.18l-4-2.9l-4-2.91
				l-166.55-121c-0.7-0.51-1.53-0.76-2.35-0.76s-1.65,0.26-2.35,0.76L87.1,238.25l-4,2.91l-4,2.9l-5.74,4.17l-5.5,4l-4.71,3.42
				c-0.28,0.2-0.56,0.4-0.84,0.58h6.85l5.51-4l4.43-3.22l1.07-0.78h6.8l0.13-0.1l5.6-4.07l8-5.81L256,125.42l155.28,112.82l8,5.81
				l5.62,4.08l0.13,0.1h6.8l1.07,0.78l4.43,3.22l5.51,4h6.85C449.41,256.04,449.13,255.85,448.86,255.65z M448.86,255.65l-4.71-3.42
				l-5.5-4l-5.75-4.18l-4-2.9l-4-2.91l-166.55-121c-0.7-0.51-1.53-0.76-2.35-0.76s-1.65,0.26-2.35,0.76L87.1,238.25l-4,2.91l-4,2.9
				l-5.74,4.17l-5.5,4l-4.71,3.42c-0.28,0.2-0.56,0.4-0.84,0.58h6.85l5.51-4l4.43-3.22l1.07-0.78h6.8l0.13-0.1l5.6-4.07l8-5.81
				L256,125.42l155.28,112.82l8,5.81l5.62,4.08l0.13,0.1h6.8l1.07,0.78l4.43,3.22l5.51,4h6.85
				C449.41,256.04,449.13,255.85,448.86,255.65z M448.86,255.65l-4.71-3.42l-5.5-4l-5.75-4.18l-4-2.9l-4-2.91l-166.55-121
				c-0.7-0.51-1.53-0.76-2.35-0.76s-1.65,0.26-2.35,0.76L87.1,238.25l-4,2.91l-4,2.9l-5.74,4.17l-5.5,4l-4.71,3.42
				c-0.28,0.2-0.56,0.4-0.84,0.58h6.85l5.51-4l4.43-3.22l1.07-0.78h6.8l0.13-0.1l5.6-4.07l8-5.81L256,125.42l155.28,112.82l8,5.81
				l5.62,4.08l0.13,0.1h6.8l1.07,0.78l4.43,3.22l5.51,4h6.85C449.41,256.04,449.13,255.85,448.86,255.65z M448.86,255.65l-4.71-3.42
				l-5.5-4l-5.75-4.18l-4-2.9l-4-2.91l-166.55-121c-0.7-0.51-1.53-0.76-2.35-0.76s-1.65,0.26-2.35,0.76L87.1,238.25l-4,2.91l-4,2.9
				l-5.74,4.17l-5.5,4l-4.71,3.42c-0.28,0.2-0.56,0.4-0.84,0.58h6.85l5.51-4l4.43-3.22l1.07-0.78h6.8l0.13-0.1l5.6-4.07l8-5.81
				L256,125.42l155.28,112.82l8,5.81l5.62,4.08l0.13,0.1h6.8l1.07,0.78l4.43,3.22l5.51,4h6.85
				C449.41,256.04,449.13,255.85,448.86,255.65z M448.86,255.65l-4.71-3.42l-5.5-4l-5.75-4.18l-4-2.9l-4-2.91l-166.55-121
				c-0.7-0.51-1.53-0.76-2.35-0.76s-1.65,0.26-2.35,0.76L87.1,238.25l-4,2.91l-4,2.9l-5.74,4.17l-5.5,4l-4.71,3.42
				c-0.28,0.2-0.56,0.4-0.84,0.58h6.85l5.51-4l4.43-3.22l1.07-0.78h6.8l0.13-0.1l5.6-4.07l8-5.81L256,125.42l155.28,112.82l8,5.81
				l5.62,4.08l0.13,0.1h6.8l1.07,0.78l4.43,3.22l5.51,4h6.85C449.41,256.04,449.13,255.85,448.86,255.65z M448.86,255.65l-4.71-3.42
				l-5.5-4l-5.75-4.18l-4-2.9l-4-2.91l-166.55-121c-0.7-0.51-1.53-0.76-2.35-0.76s-1.65,0.26-2.35,0.76L87.1,238.25l-4,2.91l-4,2.9
				l-5.74,4.17l-5.5,4l-4.71,3.42c-0.28,0.2-0.56,0.4-0.84,0.58h6.85l5.51-4l4.43-3.22l1.07-0.78h6.8l0.13-0.1l5.6-4.07l8-5.81
				L256,125.42l155.28,112.82l8,5.81l5.62,4.08l0.13,0.1h6.8l1.07,0.78l4.43,3.22l5.51,4h6.85
				C449.41,256.04,449.13,255.85,448.86,255.65z M448.86,255.65l-4.71-3.42l-5.5-4l-5.75-4.18l-4-2.9l-4-2.91l-166.55-121
				c-0.7-0.51-1.53-0.76-2.35-0.76s-1.65,0.26-2.35,0.76L87.1,238.25l-4,2.91l-4,2.9l-5.74,4.17l-5.5,4l-4.71,3.42
				c-0.28,0.2-0.56,0.4-0.84,0.58h6.85l5.51-4l4.43-3.22l1.07-0.78h6.8l0.13-0.1l5.6-4.07l8-5.81L256,125.42l155.28,112.82l8,5.81
				l5.62,4.08l0.13,0.1h6.8l1.07,0.78l4.43,3.22l5.51,4h6.85C449.41,256.04,449.13,255.85,448.86,255.65z M448.86,255.65l-4.71-3.42
				l-5.5-4l-5.75-4.18l-4-2.9l-4-2.91l-166.55-121c-0.7-0.51-1.53-0.76-2.35-0.76s-1.65,0.26-2.35,0.76L87.1,238.25l-4,2.91l-4,2.9
				l-5.74,4.17l-5.5,4l-4.71,3.42c-0.28,0.2-0.56,0.4-0.84,0.58h6.85l5.51-4l4.43-3.22l1.07-0.78h6.8l0.13-0.1l5.6-4.07l8-5.81
				L256,125.42l155.28,112.82l8,5.81l5.62,4.08l0.13,0.1h6.8l1.07,0.78l4.43,3.22l5.51,4h6.85
				C449.41,256.04,449.13,255.85,448.86,255.65z M448.86,255.65l-4.71-3.42l-5.5-4l-5.75-4.18l-4-2.9l-4-2.91l-166.55-121
				c-0.7-0.51-1.53-0.76-2.35-0.76s-1.65,0.26-2.35,0.76L87.1,238.25l-4,2.91l-4,2.9l-5.74,4.17l-5.5,4l-4.71,3.42
				c-0.28,0.2-0.56,0.4-0.84,0.58h6.85l5.51-4l4.43-3.22l1.07-0.78h6.8l0.13-0.1l5.6-4.07l8-5.81L256,125.42l155.28,112.82l8,5.81
				l5.62,4.08l0.13,0.1h6.8l1.07,0.78l4.43,3.22l5.51,4h6.85C449.41,256.04,449.13,255.85,448.86,255.65z M448.86,255.65l-4.71-3.42
				l-5.5-4l-5.75-4.18l-4-2.9l-4-2.91l-166.55-121c-0.7-0.51-1.53-0.76-2.35-0.76s-1.65,0.26-2.35,0.76L87.1,238.25l-4,2.91l-4,2.9
				l-5.74,4.17l-5.5,4l-4.71,3.42c-0.28,0.2-0.56,0.4-0.84,0.58h6.85l5.51-4l4.43-3.22l1.07-0.78h6.8l0.13-0.1l5.6-4.07l8-5.81
				L256,125.42l155.28,112.82l8,5.81l5.62,4.08l0.13,0.1h6.8l1.07,0.78l4.43,3.22l5.51,4h6.85
				C449.41,256.04,449.13,255.85,448.86,255.65z M507.5,223.3c-1.68-10.61-7.39-19.93-16.08-26.24L279.64,43.19
				c-14.15-10.27-33.14-10.27-47.27,0L20.58,197.06c-8.69,6.31-14.4,15.63-16.08,26.24s0.87,21.24,7.18,29.93
				c9.38,12.9,25.05,18.59,39.79,15.89c1.35-0.23,2.68-0.55,4-0.94c1.35-0.38,2.68-0.85,4-1.38v-8.85c-1.3,0.71-2.64,1.32-4,1.82
				c-1.31,0.49-2.65,0.89-4,1.2c-12.21,2.81-25.49-1.68-33.31-12.44c-5.06-6.96-7.1-15.48-5.76-23.98
				c1.34-8.49,5.92-15.96,12.88-21.02L237.07,49.66c11.32-8.23,26.54-8.23,37.86,0l211.79,153.87c6.96,5.06,11.54,12.53,12.88,21.02
				c1.35,8.5-0.7,17.02-5.75,23.98c-6.05,8.31-15.8,13.28-26.09,13.28c-2.46,0-4.89-0.27-7.23-0.83c-1.36-0.3-2.7-0.7-4-1.2
				c-1.37-0.51-2.71-1.12-4-1.83v8.86c1.31,0.54,2.64,1,4,1.39c1.31,0.39,2.64,0.71,4,0.94c2.36,0.44,4.78,0.66,7.23,0.66
				c12.84,0,25.02-6.19,32.56-16.57C506.63,244.54,509.18,233.91,507.5,223.3z M444.15,252.23l-5.5-4l-5.75-4.18l-4-2.9l-4-2.91
				l-166.55-121c-0.7-0.51-1.53-0.76-2.35-0.76s-1.65,0.26-2.35,0.76L87.1,238.25l-4,2.91l-4,2.9l-5.74,4.17l-5.5,4l-4.71,3.42
				c-0.28,0.2-0.56,0.4-0.84,0.58h6.85l5.51-4l4.43-3.22l1.07-0.78h6.8l0.13-0.1l5.6-4.07l8-5.81L256,125.42l155.28,112.82l8,5.81
				l5.62,4.08l0.13,0.1h6.8l1.07,0.78l4.43,3.22l5.51,4h6.85c-0.28-0.19-0.56-0.38-0.83-0.58L444.15,252.23z M448.86,255.65
				l-4.71-3.42l-5.5-4l-5.75-4.18l-4-2.9l-4-2.91l-166.55-121c-0.7-0.51-1.53-0.76-2.35-0.76s-1.65,0.26-2.35,0.76L87.1,238.25
				l-4,2.91l-4,2.9l-5.74,4.17l-5.5,4l-4.71,3.42c-0.28,0.2-0.56,0.4-0.84,0.58h6.85l5.51-4l4.43-3.22l1.07-0.78h6.8l0.13-0.1
				l5.6-4.07l8-5.81L256,125.42l155.28,112.82l8,5.81l5.62,4.08l0.13,0.1h6.8l1.07,0.78l4.43,3.22l5.51,4h6.85
				C449.41,256.04,449.13,255.85,448.86,255.65z M448.86,255.65l-4.71-3.42l-5.5-4l-5.75-4.18l-4-2.9l-4-2.91l-166.55-121
				c-0.7-0.51-1.53-0.76-2.35-0.76s-1.65,0.26-2.35,0.76L87.1,238.25l-4,2.91l-4,2.9l-5.74,4.17l-5.5,4l-4.71,3.42
				c-0.28,0.2-0.56,0.4-0.84,0.58h6.85l5.51-4l4.43-3.22l1.07-0.78h6.8l0.13-0.1l5.6-4.07l8-5.81L256,125.42l155.28,112.82l8,5.81
				l5.62,4.08l0.13,0.1h6.8l1.07,0.78l4.43,3.22l5.51,4h6.85C449.41,256.04,449.13,255.85,448.86,255.65z M448.86,255.65l-4.71-3.42
				l-5.5-4l-5.75-4.18l-4-2.9l-4-2.91l-166.55-121c-0.7-0.51-1.53-0.76-2.35-0.76s-1.65,0.26-2.35,0.76L87.1,238.25l-4,2.91l-4,2.9
				l-5.74,4.17l-5.5,4l-4.71,3.42c-0.28,0.2-0.56,0.4-0.84,0.58h6.85l5.51-4l4.43-3.22l1.07-0.78h6.8l0.13-0.1l5.6-4.07l8-5.81
				L256,125.42l155.28,112.82l8,5.81l5.62,4.08l0.13,0.1h6.8l1.07,0.78l4.43,3.22l5.51,4h6.85
				C449.41,256.04,449.13,255.85,448.86,255.65z M448.86,255.65l-4.71-3.42l-5.5-4l-5.75-4.18l-4-2.9l-4-2.91l-166.55-121
				c-0.7-0.51-1.53-0.76-2.35-0.76s-1.65,0.26-2.35,0.76L87.1,238.25l-4,2.91l-4,2.9l-5.74,4.17l-5.5,4l-4.71,3.42
				c-0.28,0.2-0.56,0.4-0.84,0.58h6.85l5.51-4l4.43-3.22l1.07-0.78h6.8l0.13-0.1l5.6-4.07l8-5.81L256,125.42l155.28,112.82l8,5.81
				l5.62,4.08l0.13,0.1h6.8l1.07,0.78l4.43,3.22l5.51,4h6.85C449.41,256.04,449.13,255.85,448.86,255.65z M448.86,255.65l-4.71-3.42
				l-5.5-4l-5.75-4.18l-4-2.9l-4-2.91l-166.55-121c-0.7-0.51-1.53-0.76-2.35-0.76s-1.65,0.26-2.35,0.76L87.1,238.25l-4,2.91l-4,2.9
				l-5.74,4.17l-5.5,4l-4.71,3.42c-0.28,0.2-0.56,0.4-0.84,0.58h6.85l5.51-4l4.43-3.22l1.07-0.78h6.8l0.13-0.1l5.6-4.07l8-5.81
				L256,125.42l155.28,112.82l8,5.81l5.62,4.08l0.13,0.1h6.8l1.07,0.78l4.43,3.22l5.51,4h6.85
				C449.41,256.04,449.13,255.85,448.86,255.65z M448.86,255.65l-4.71-3.42l-5.5-4l-5.75-4.18l-4-2.9l-4-2.91l-166.55-121
				c-0.7-0.51-1.53-0.76-2.35-0.76s-1.65,0.26-2.35,0.76L87.1,238.25l-4,2.91l-4,2.9l-5.74,4.17l-5.5,4l-4.71,3.42
				c-0.28,0.2-0.56,0.4-0.84,0.58h6.85l5.51-4l4.43-3.22l1.07-0.78h6.8l0.13-0.1l5.6-4.07l8-5.81L256,125.42l155.28,112.82l8,5.81
				l5.62,4.08l0.13,0.1h6.8l1.07,0.78l4.43,3.22l5.51,4h6.85C449.41,256.04,449.13,255.85,448.86,255.65z M448.86,255.65l-4.71-3.42
				l-5.5-4l-5.75-4.18l-4-2.9l-4-2.91l-166.55-121c-0.7-0.51-1.53-0.76-2.35-0.76s-1.65,0.26-2.35,0.76L87.1,238.25l-4,2.91l-4,2.9
				l-5.74,4.17l-5.5,4l-4.71,3.42c-0.28,0.2-0.56,0.4-0.84,0.58h6.85l5.51-4l4.43-3.22l1.07-0.78h6.8l0.13-0.1l5.6-4.07l8-5.81
				L256,125.42l155.28,112.82l8,5.81l5.62,4.08l0.13,0.1h6.8l1.07,0.78l4.43,3.22l5.51,4h6.85
				C449.41,256.04,449.13,255.85,448.86,255.65z M448.86,255.65l-4.71-3.42l-5.5-4l-5.75-4.18l-4-2.9l-4-2.91l-166.55-121
				c-0.7-0.51-1.53-0.76-2.35-0.76s-1.65,0.26-2.35,0.76L87.1,238.25l-4,2.91l-4,2.9l-5.74,4.17l-5.5,4l-4.71,3.42
				c-0.28,0.2-0.56,0.4-0.84,0.58h6.85l5.51-4l4.43-3.22l1.07-0.78h6.8l0.13-0.1l5.6-4.07l8-5.81L256,125.42l155.28,112.82l8,5.81
				l5.62,4.08l0.13,0.1h6.8l1.07,0.78l4.43,3.22l5.51,4h6.85C449.41,256.04,449.13,255.85,448.86,255.65z M448.86,255.65l-4.71-3.42
				l-5.5-4l-5.75-4.18l-4-2.9l-4-2.91l-166.55-121c-0.7-0.51-1.53-0.76-2.35-0.76s-1.65,0.26-2.35,0.76L87.1,238.25l-4,2.91l-4,2.9
				l-5.74,4.17l-5.5,4l-4.71,3.42c-0.28,0.2-0.56,0.4-0.84,0.58h6.85l5.51-4l4.43-3.22l1.07-0.78h6.8l0.13-0.1l5.6-4.07l8-5.81
				L256,125.42l155.28,112.82l8,5.81l5.62,4.08l0.13,0.1h6.8l1.07,0.78l4.43,3.22l5.51,4h6.85
				C449.41,256.04,449.13,255.85,448.86,255.65z M448.86,255.65l-4.71-3.42l-5.5-4l-5.75-4.18l-4-2.9l-4-2.91l-166.55-121
				c-0.7-0.51-1.53-0.76-2.35-0.76s-1.65,0.26-2.35,0.76L87.1,238.25l-4,2.91l-4,2.9l-5.74,4.17l-5.5,4l-4.71,3.42
				c-0.28,0.2-0.56,0.4-0.84,0.58h6.85l5.51-4l4.43-3.22l1.07-0.78h6.8l0.13-0.1l5.6-4.07l8-5.81L256,125.42l155.28,112.82l8,5.81
				l5.62,4.08l0.13,0.1h6.8l1.07,0.78l4.43,3.22l5.51,4h6.85C449.41,256.04,449.13,255.85,448.86,255.65z"/>
		</g>
	</g>
	<g>
		<g>
			<path fill="#FFFFFF" stroke="#FFFFFF" stroke-width="6" stroke-miterlimit="10" d="M432.9,244.05l-4-2.9l-4-2.91l-166.55-121
				c-0.7-0.51-1.53-0.76-2.35-0.76s-1.65,0.26-2.35,0.76L87.1,238.25l-4,2.91l-4,2.9l-5.74,4.17l-5.5,4h6.81l4.43-3.22l1.07-0.78
				h6.8l0.13-0.1l5.6-4.07l8-5.81L256,125.42l155.28,112.82l8,5.81l5.62,4.08l0.13,0.1h13.62L432.9,244.05z M432.9,244.05l-4-2.9
				l-4-2.91l-166.55-121c-0.7-0.51-1.53-0.76-2.35-0.76s-1.65,0.26-2.35,0.76L87.1,238.25l-4,2.91l-4,2.9l-5.74,4.17l-5.5,4h6.81
				l4.43-3.22l1.07-0.78h6.8l0.13-0.1l5.6-4.07l8-5.81L256,125.42l155.28,112.82l8,5.81l5.62,4.08l0.13,0.1h13.62L432.9,244.05z
				 M432.9,244.05l-4-2.9l-4-2.91l-166.55-121c-0.7-0.51-1.53-0.76-2.35-0.76s-1.65,0.26-2.35,0.76L87.1,238.25l-4,2.91l-4,2.9
				l-5.74,4.17l-5.5,4h6.81l4.43-3.22l1.07-0.78h6.8l0.13-0.1l5.6-4.07l8-5.81L256,125.42l155.28,112.82l8,5.81l5.62,4.08l0.13,0.1
				h13.62L432.9,244.05z M432.9,244.05l-4-2.9l-4-2.91l-166.55-121c-0.7-0.51-1.53-0.76-2.35-0.76s-1.65,0.26-2.35,0.76L87.1,238.25
				l-4,2.91l-4,2.9l-5.74,4.17l-5.5,4h6.81l4.43-3.22l1.07-0.78h6.8l0.13-0.1l5.6-4.07l8-5.81L256,125.42l155.28,112.82l8,5.81
				l5.62,4.08l0.13,0.1h13.62L432.9,244.05z M432.9,244.05l-4-2.9l-4-2.91l-166.55-121c-0.7-0.51-1.53-0.76-2.35-0.76
				s-1.65,0.26-2.35,0.76L87.1,238.25l-4,2.91l-4,2.9l-5.74,4.17l-5.5,4h6.81l4.43-3.22l1.07-0.78h6.8l0.13-0.1l5.6-4.07l8-5.81
				L256,125.42l155.28,112.82l8,5.81l5.62,4.08l0.13,0.1h13.62L432.9,244.05z M432.9,244.05l-4-2.9l-4-2.91l-166.55-121
				c-0.7-0.51-1.53-0.76-2.35-0.76s-1.65,0.26-2.35,0.76L87.1,238.25l-4,2.91l-4,2.9l-5.74,4.17l-5.5,4h6.81l4.43-3.22l1.07-0.78
				h6.8l0.13-0.1l5.6-4.07l8-5.81L256,125.42l155.28,112.82l8,5.81l5.62,4.08l0.13,0.1h13.62L432.9,244.05z M432.9,244.05l-4-2.9
				l-4-2.91l-166.55-121c-0.7-0.51-1.53-0.76-2.35-0.76s-1.65,0.26-2.35,0.76L87.1,238.25l-4,2.91l-4,2.9l-5.74,4.17l-5.5,4h6.81
				l4.43-3.22l1.07-0.78h6.8l0.13-0.1l5.6-4.07l8-5.81L256,125.42l155.28,112.82l8,5.81l5.62,4.08l0.13,0.1h13.62L432.9,244.05z
				 M432.9,244.05l-4-2.9l-4-2.91l-166.55-121c-0.7-0.51-1.53-0.76-2.35-0.76s-1.65,0.26-2.35,0.76L87.1,238.25l-4,2.91l-4,2.9
				l-5.74,4.17l-5.5,4h6.81l4.43-3.22l1.07-0.78h6.8l0.13-0.1l5.6-4.07l8-5.81L256,125.42l155.28,112.82l8,5.81l5.62,4.08l0.13,0.1
				h13.62L432.9,244.05z M432.9,244.05v4.18h5.75L432.9,244.05z M432.9,244.05v4.18h5.75L432.9,244.05z M432.9,244.05v4.18h5.75
				L432.9,244.05z M432.9,244.05v4.18h5.75L432.9,244.05z M432.9,244.05v4.18h5.75L432.9,244.05z M432.9,244.05v4.18h5.75
				L432.9,244.05z M432.9,244.05v4.18h5.75L432.9,244.05z M432.9,244.05v4.18h5.75L432.9,244.05z M432.9,244.05v4.18h5.75
				L432.9,244.05z M432.9,244.05v4.18h5.75L432.9,244.05z M432.9,244.05v4.18h5.75L432.9,244.05z M432.9,244.05v4.18h5.75
				L432.9,244.05z M432.9,244.05l-4-2.9l-4-2.91l-166.55-121c-0.7-0.51-1.53-0.76-2.35-0.76s-1.65,0.26-2.35,0.76L87.1,238.25
				l-4,2.91l-4,2.9h6.81l1.19-0.86l6.81-4.95L256,120.48l162.07,117.76l6.83,4.96l1.17,0.85l2.83,2.05l2.93,2.13h6.82L432.9,244.05z
				 M432.9,244.05v4.18h5.75L432.9,244.05z M432.9,244.05v4.18h5.75L432.9,244.05z M432.9,244.05v4.18h5.75L432.9,244.05z
				 M432.9,244.05v4.18h5.75L432.9,244.05z M432.9,244.05v4.18h5.75L432.9,244.05z M432.9,244.05v4.18h5.75L432.9,244.05z
				 M432.9,244.05v4.18h5.75L432.9,244.05z M432.9,244.05v4.18h5.75L432.9,244.05z M432.9,244.05v4.18h5.75L432.9,244.05z
				 M432.9,244.05v4.18h5.75L432.9,244.05z M432.9,244.05v4.18h5.75L432.9,244.05z M448.86,255.65l-4.71-3.42l-5.5-4l-5.75-4.18
				l-4-2.9l-4-2.91l-166.55-121c-0.7-0.51-1.53-0.76-2.35-0.76s-1.65,0.26-2.35,0.76L87.1,238.25l-4,2.91l-4,2.9l-5.74,4.17l-5.5,4
				l-4.71,3.42c-0.28,0.2-0.56,0.4-0.84,0.58h13.65l3.14-2.28l2.36-1.72l1.64-1.19l3.87-2.81l0.13-0.1l5.6-4.07l8-5.81L256,125.42
				l155.28,112.82l8,5.81l5.62,4.08l0.13,0.1l3.87,2.81l1.64,1.19l2.36,1.72l3.14,2.28h13.65
				C449.41,256.04,449.13,255.85,448.86,255.65z M438.65,248.23l-5.75-4.18l-4-2.9l-4-2.91l-166.55-121
				c-0.7-0.51-1.53-0.76-2.35-0.76s-1.65,0.26-2.35,0.76L87.1,238.25l-4,2.91l-4,2.9l-5.74,4.17l-5.5,4l-4.71,3.42
				c-0.28,0.2-0.56,0.4-0.84,0.58h6.85l5.51-4l4.43-3.22l1.07-0.78h6.8l0.13-0.1l5.6-4.07l8-5.81L256,125.42l155.28,112.82l8,5.81
				l5.62,4.08l0.13,0.1h6.8l1.07,0.78l4.43,3.22h6.82L438.65,248.23z M448.86,255.65l-4.71-3.42l-5.5-4l-5.75-4.18l-4-2.9l-4-2.91
				l-166.55-121c-0.7-0.51-1.53-0.76-2.35-0.76s-1.65,0.26-2.35,0.76L87.1,238.25l-4,2.91l-4,2.9l-5.74,4.17l-5.5,4l-4.71,3.42
				c-0.28,0.2-0.56,0.4-0.84,0.58h6.85l5.51-4l4.43-3.22l1.07-0.78h6.8l0.13-0.1l5.6-4.07l8-5.81L256,125.42l155.28,112.82l8,5.81
				l5.62,4.08l0.13,0.1h6.8l1.07,0.78l4.43,3.22l5.51,4h6.85C449.41,256.04,449.13,255.85,448.86,255.65z M448.86,255.65l-4.71-3.42
				l-5.5-4l-5.75-4.18l-4-2.9l-4-2.91l-166.55-121c-0.7-0.51-1.53-0.76-2.35-0.76s-1.65,0.26-2.35,0.76L87.1,238.25l-4,2.91l-4,2.9
				l-5.74,4.17l-5.5,4l-4.71,3.42c-0.28,0.2-0.56,0.4-0.84,0.58h6.85l5.51-4l4.43-3.22l1.07-0.78h6.8l0.13-0.1l5.6-4.07l8-5.81
				L256,125.42l155.28,112.82l8,5.81l5.62,4.08l0.13,0.1h6.8l1.07,0.78l4.43,3.22l5.51,4h6.85
				C449.41,256.04,449.13,255.85,448.86,255.65z M448.86,255.65l-4.71-3.42l-5.5-4l-5.75-4.18l-4-2.9l-4-2.91l-166.55-121
				c-0.7-0.51-1.53-0.76-2.35-0.76s-1.65,0.26-2.35,0.76L87.1,238.25l-4,2.91l-4,2.9l-5.74,4.17l-5.5,4l-4.71,3.42
				c-0.28,0.2-0.56,0.4-0.84,0.58h6.85l5.51-4l4.43-3.22l1.07-0.78h6.8l0.13-0.1l5.6-4.07l8-5.81L256,125.42l155.28,112.82l8,5.81
				l5.62,4.08l0.13,0.1h6.8l1.07,0.78l4.43,3.22l5.51,4h6.85C449.41,256.04,449.13,255.85,448.86,255.65z M448.86,255.65l-4.71-3.42
				l-5.5-4l-5.75-4.18l-4-2.9l-4-2.91l-166.55-121c-0.7-0.51-1.53-0.76-2.35-0.76s-1.65,0.26-2.35,0.76L87.1,238.25l-4,2.91l-4,2.9
				l-5.74,4.17l-5.5,4l-4.71,3.42c-0.28,0.2-0.56,0.4-0.84,0.58h6.85l5.51-4l4.43-3.22l1.07-0.78h6.8l0.13-0.1l5.6-4.07l8-5.81
				L256,125.42l155.28,112.82l8,5.81l5.62,4.08l0.13,0.1h6.8l1.07,0.78l4.43,3.22l5.51,4h6.85
				C449.41,256.04,449.13,255.85,448.86,255.65z M448.86,255.65l-4.71-3.42l-5.5-4l-5.75-4.18l-4-2.9l-4-2.91l-166.55-121
				c-0.7-0.51-1.53-0.76-2.35-0.76s-1.65,0.26-2.35,0.76L87.1,238.25l-4,2.91l-4,2.9l-5.74,4.17l-5.5,4l-4.71,3.42
				c-0.28,0.2-0.56,0.4-0.84,0.58h6.85l5.51-4l4.43-3.22l1.07-0.78h6.8l0.13-0.1l5.6-4.07l8-5.81L256,125.42l155.28,112.82l8,5.81
				l5.62,4.08l0.13,0.1h6.8l1.07,0.78l4.43,3.22l5.51,4h6.85C449.41,256.04,449.13,255.85,448.86,255.65z M448.86,255.65l-4.71-3.42
				l-5.5-4l-5.75-4.18l-4-2.9l-4-2.91l-166.55-121c-0.7-0.51-1.53-0.76-2.35-0.76s-1.65,0.26-2.35,0.76L87.1,238.25l-4,2.91l-4,2.9
				l-5.74,4.17l-5.5,4l-4.71,3.42c-0.28,0.2-0.56,0.4-0.84,0.58h6.85l5.51-4l4.43-3.22l1.07-0.78h6.8l0.13-0.1l5.6-4.07l8-5.81
				L256,125.42l155.28,112.82l8,5.81l5.62,4.08l0.13,0.1h6.8l1.07,0.78l4.43,3.22l5.51,4h6.85
				C449.41,256.04,449.13,255.85,448.86,255.65z M448.86,255.65l-4.71-3.42l-5.5-4l-5.75-4.18l-4-2.9l-4-2.91l-166.55-121
				c-0.7-0.51-1.53-0.76-2.35-0.76s-1.65,0.26-2.35,0.76L87.1,238.25l-4,2.91l-4,2.9l-5.74,4.17l-5.5,4l-4.71,3.42
				c-0.28,0.2-0.56,0.4-0.84,0.58h6.85l5.51-4l4.43-3.22l1.07-0.78h6.8l0.13-0.1l5.6-4.07l8-5.81L256,125.42l155.28,112.82l8,5.81
				l5.62,4.08l0.13,0.1h6.8l1.07,0.78l4.43,3.22l5.51,4h6.85C449.41,256.04,449.13,255.85,448.86,255.65z M448.86,255.65l-4.71-3.42
				l-5.5-4l-5.75-4.18l-4-2.9l-4-2.91l-166.55-121c-0.7-0.51-1.53-0.76-2.35-0.76s-1.65,0.26-2.35,0.76L87.1,238.25l-4,2.91l-4,2.9
				l-5.74,4.17l-5.5,4l-4.71,3.42c-0.28,0.2-0.56,0.4-0.84,0.58h6.85l5.51-4l4.43-3.22l1.07-0.78h6.8l0.13-0.1l5.6-4.07l8-5.81
				L256,125.42l155.28,112.82l8,5.81l5.62,4.08l0.13,0.1h6.8l1.07,0.78l4.43,3.22l5.51,4h6.85
				C449.41,256.04,449.13,255.85,448.86,255.65z M448.86,255.65l-4.71-3.42l-5.5-4l-5.75-4.18l-4-2.9l-4-2.91l-166.55-121
				c-0.7-0.51-1.53-0.76-2.35-0.76s-1.65,0.26-2.35,0.76L87.1,238.25l-4,2.91l-4,2.9l-5.74,4.17l-5.5,4l-4.71,3.42
				c-0.28,0.2-0.56,0.4-0.84,0.58h6.85l5.51-4l4.43-3.22l1.07-0.78h6.8l0.13-0.1l5.6-4.07l8-5.81L256,125.42l155.28,112.82l8,5.81
				l5.62,4.08l0.13,0.1h6.8l1.07,0.78l4.43,3.22l5.51,4h6.85C449.41,256.04,449.13,255.85,448.86,255.65z M448.86,255.65l-4.71-3.42
				l-5.5-4l-5.75-4.18l-4-2.9l-4-2.91l-166.55-121c-0.7-0.51-1.53-0.76-2.35-0.76s-1.65,0.26-2.35,0.76L87.1,238.25l-4,2.91l-4,2.9
				l-5.74,4.17l-5.5,4l-4.71,3.42c-0.28,0.2-0.56,0.4-0.84,0.58h6.85l5.51-4l4.43-3.22l1.07-0.78h6.8l0.13-0.1l5.6-4.07l8-5.81
				L256,125.42l155.28,112.82l8,5.81l5.62,4.08l0.13,0.1h6.8l1.07,0.78l4.43,3.22l5.51,4h6.85
				C449.41,256.04,449.13,255.85,448.86,255.65z M507.5,223.3c-1.68-10.61-7.39-19.93-16.08-26.24L279.64,43.19
				c-14.15-10.27-33.14-10.27-47.27,0L20.58,197.06c-8.69,6.31-14.4,15.63-16.08,26.24s0.87,21.24,7.18,29.93
				c9.38,12.9,25.05,18.59,39.79,15.89c1.35-0.23,2.68-0.55,4-0.94c1.35-0.38,2.68-0.85,4-1.38v-8.85c-1.3,0.71-2.64,1.32-4,1.82
				c-1.31,0.49-2.65,0.89-4,1.2c-12.21,2.81-25.49-1.68-33.31-12.44c-5.06-6.96-7.1-15.48-5.76-23.98
				c1.34-8.49,5.92-15.96,12.88-21.02L237.07,49.66c11.32-8.23,26.54-8.23,37.86,0l211.79,153.87c6.96,5.06,11.54,12.53,12.88,21.02
				c1.35,8.5-0.7,17.02-5.75,23.98c-6.05,8.31-15.8,13.28-26.09,13.28c-2.46,0-4.89-0.27-7.23-0.83c-1.36-0.3-2.7-0.7-4-1.2
				c-1.37-0.51-2.71-1.12-4-1.83v8.86c1.31,0.54,2.64,1,4,1.39c1.31,0.39,2.64,0.71,4,0.94c2.36,0.44,4.78,0.66,7.23,0.66
				c12.84,0,25.02-6.19,32.56-16.57C506.63,244.54,509.18,233.91,507.5,223.3z M444.15,252.23l-5.5-4l-5.75-4.18l-4-2.9l-4-2.91
				l-166.55-121c-0.7-0.51-1.53-0.76-2.35-0.76s-1.65,0.26-2.35,0.76L87.1,238.25l-4,2.91l-4,2.9l-5.74,4.17l-5.5,4l-4.71,3.42
				c-0.28,0.2-0.56,0.4-0.84,0.58h6.85l5.51-4l4.43-3.22l1.07-0.78h6.8l0.13-0.1l5.6-4.07l8-5.81L256,125.42l155.28,112.82l8,5.81
				l5.62,4.08l0.13,0.1h6.8l1.07,0.78l4.43,3.22l5.51,4h6.85c-0.28-0.19-0.56-0.38-0.83-0.58L444.15,252.23z M448.86,255.65
				l-4.71-3.42l-5.5-4l-5.75-4.18l-4-2.9l-4-2.91l-166.55-121c-0.7-0.51-1.53-0.76-2.35-0.76s-1.65,0.26-2.35,0.76L87.1,238.25
				l-4,2.91l-4,2.9l-5.74,4.17l-5.5,4l-4.71,3.42c-0.28,0.2-0.56,0.4-0.84,0.58h6.85l5.51-4l4.43-3.22l1.07-0.78h6.8l0.13-0.1
				l5.6-4.07l8-5.81L256,125.42l155.28,112.82l8,5.81l5.62,4.08l0.13,0.1h6.8l1.07,0.78l4.43,3.22l5.51,4h6.85
				C449.41,256.04,449.13,255.85,448.86,255.65z M448.86,255.65l-4.71-3.42l-5.5-4l-5.75-4.18l-4-2.9l-4-2.91l-166.55-121
				c-0.7-0.51-1.53-0.76-2.35-0.76s-1.65,0.26-2.35,0.76L87.1,238.25l-4,2.91l-4,2.9l-5.74,4.17l-5.5,4l-4.71,3.42
				c-0.28,0.2-0.56,0.4-0.84,0.58h6.85l5.51-4l4.43-3.22l1.07-0.78h6.8l0.13-0.1l5.6-4.07l8-5.81L256,125.42l155.28,112.82l8,5.81
				l5.62,4.08l0.13,0.1h6.8l1.07,0.78l4.43,3.22l5.51,4h6.85C449.41,256.04,449.13,255.85,448.86,255.65z M448.86,255.65l-4.71-3.42
				l-5.5-4l-5.75-4.18l-4-2.9l-4-2.91l-166.55-121c-0.7-0.51-1.53-0.76-2.35-0.76s-1.65,0.26-2.35,0.76L87.1,238.25l-4,2.91l-4,2.9
				l-5.74,4.17l-5.5,4l-4.71,3.42c-0.28,0.2-0.56,0.4-0.84,0.58h6.85l5.51-4l4.43-3.22l1.07-0.78h6.8l0.13-0.1l5.6-4.07l8-5.81
				L256,125.42l155.28,112.82l8,5.81l5.62,4.08l0.13,0.1h6.8l1.07,0.78l4.43,3.22l5.51,4h6.85
				C449.41,256.04,449.13,255.85,448.86,255.65z M448.86,255.65l-4.71-3.42l-5.5-4l-5.75-4.18l-4-2.9l-4-2.91l-166.55-121
				c-0.7-0.51-1.53-0.76-2.35-0.76s-1.65,0.26-2.35,0.76L87.1,238.25l-4,2.91l-4,2.9l-5.74,4.17l-5.5,4l-4.71,3.42
				c-0.28,0.2-0.56,0.4-0.84,0.58h6.85l5.51-4l4.43-3.22l1.07-0.78h6.8l0.13-0.1l5.6-4.07l8-5.81L256,125.42l155.28,112.82l8,5.81
				l5.62,4.08l0.13,0.1h6.8l1.07,0.78l4.43,3.22l5.51,4h6.85C449.41,256.04,449.13,255.85,448.86,255.65z M448.86,255.65l-4.71-3.42
				l-5.5-4l-5.75-4.18l-4-2.9l-4-2.91l-166.55-121c-0.7-0.51-1.53-0.76-2.35-0.76s-1.65,0.26-2.35,0.76L87.1,238.25l-4,2.91l-4,2.9
				l-5.74,4.17l-5.5,4l-4.71,3.42c-0.28,0.2-0.56,0.4-0.84,0.58h6.85l5.51-4l4.43-3.22l1.07-0.78h6.8l0.13-0.1l5.6-4.07l8-5.81
				L256,125.42l155.28,112.82l8,5.81l5.62,4.08l0.13,0.1h6.8l1.07,0.78l4.43,3.22l5.51,4h6.85
				C449.41,256.04,449.13,255.85,448.86,255.65z M448.86,255.65l-4.71-3.42l-5.5-4l-5.75-4.18l-4-2.9l-4-2.91l-166.55-121
				c-0.7-0.51-1.53-0.76-2.35-0.76s-1.65,0.26-2.35,0.76L87.1,238.25l-4,2.91l-4,2.9l-5.74,4.17l-5.5,4l-4.71,3.42
				c-0.28,0.2-0.56,0.4-0.84,0.58h6.85l5.51-4l4.43-3.22l1.07-0.78h6.8l0.13-0.1l5.6-4.07l8-5.81L256,125.42l155.28,112.82l8,5.81
				l5.62,4.08l0.13,0.1h6.8l1.07,0.78l4.43,3.22l5.51,4h6.85C449.41,256.04,449.13,255.85,448.86,255.65z M448.86,255.65l-4.71-3.42
				l-5.5-4l-5.75-4.18l-4-2.9l-4-2.91l-166.55-121c-0.7-0.51-1.53-0.76-2.35-0.76s-1.65,0.26-2.35,0.76L87.1,238.25l-4,2.91l-4,2.9
				l-5.74,4.17l-5.5,4l-4.71,3.42c-0.28,0.2-0.56,0.4-0.84,0.58h6.85l5.51-4l4.43-3.22l1.07-0.78h6.8l0.13-0.1l5.6-4.07l8-5.81
				L256,125.42l155.28,112.82l8,5.81l5.62,4.08l0.13,0.1h6.8l1.07,0.78l4.43,3.22l5.51,4h6.85
				C449.41,256.04,449.13,255.85,448.86,255.65z M448.86,255.65l-4.71-3.42l-5.5-4l-5.75-4.18l-4-2.9l-4-2.91l-166.55-121
				c-0.7-0.51-1.53-0.76-2.35-0.76s-1.65,0.26-2.35,0.76L87.1,238.25l-4,2.91l-4,2.9l-5.74,4.17l-5.5,4l-4.71,3.42
				c-0.28,0.2-0.56,0.4-0.84,0.58h6.85l5.51-4l4.43-3.22l1.07-0.78h6.8l0.13-0.1l5.6-4.07l8-5.81L256,125.42l155.28,112.82l8,5.81
				l5.62,4.08l0.13,0.1h6.8l1.07,0.78l4.43,3.22l5.51,4h6.85C449.41,256.04,449.13,255.85,448.86,255.65z M448.86,255.65l-4.71-3.42
				l-5.5-4l-5.75-4.18l-4-2.9l-4-2.91l-166.55-121c-0.7-0.51-1.53-0.76-2.35-0.76s-1.65,0.26-2.35,0.76L87.1,238.25l-4,2.91l-4,2.9
				l-5.74,4.17l-5.5,4l-4.71,3.42c-0.28,0.2-0.56,0.4-0.84,0.58h6.85l5.51-4l4.43-3.22l1.07-0.78h6.8l0.13-0.1l5.6-4.07l8-5.81
				L256,125.42l155.28,112.82l8,5.81l5.62,4.08l0.13,0.1h6.8l1.07,0.78l4.43,3.22l5.51,4h6.85
				C449.41,256.04,449.13,255.85,448.86,255.65z M448.86,255.65l-4.71-3.42l-5.5-4l-5.75-4.18l-4-2.9l-4-2.91l-166.55-121
				c-0.7-0.51-1.53-0.76-2.35-0.76s-1.65,0.26-2.35,0.76L87.1,238.25l-4,2.91l-4,2.9l-5.74,4.17l-5.5,4l-4.71,3.42
				c-0.28,0.2-0.56,0.4-0.84,0.58h6.85l5.51-4l4.43-3.22l1.07-0.78h6.8l0.13-0.1l5.6-4.07l8-5.81L256,125.42l155.28,112.82l8,5.81
				l5.62,4.08l0.13,0.1h6.8l1.07,0.78l4.43,3.22l5.51,4h6.85C449.41,256.04,449.13,255.85,448.86,255.65z"/>
		</g>
	</g>
	<g>
		<path fill="#FFFFFF" stroke="#FFFFFF" stroke-width="6" stroke-miterlimit="10" d="M256,160.29c-20.72,0-37.58,16.86-37.58,37.58
			c0,20.73,16.86,37.59,37.58,37.59s37.58-16.86,37.58-37.59C293.58,177.15,276.72,160.29,256,160.29z M260,227.18
			c-1.31,0.19-2.64,0.28-4,0.28s-2.69-0.09-4-0.28c-13.17-1.78-23.62-12.27-25.33-25.47c-0.17-1.25-0.25-2.53-0.25-3.83
			c0-1.42,0.1-2.81,0.3-4.17c1.84-13.05,12.22-23.38,25.28-25.14c1.31-0.19,2.64-0.28,4-0.28s2.69,0.09,4,0.28
			c13.06,1.76,23.44,12.09,25.28,25.14c0.2,1.36,0.3,2.75,0.3,4.17c0,1.3-0.08,2.58-0.25,3.83
			C283.62,214.91,273.17,225.4,260,227.18z"/>
	</g>
	<g>
		<path fill="#FFFFFF" stroke="#FFFFFF" stroke-width="6" stroke-miterlimit="10" d="M260,166.23v62.96c0,2.21-1.79,4-4,4
			s-4-1.79-4-4v-62.96c0-2.21,1.79-4,4-4S260,164.02,260,166.23z"/>
	</g>
	<g>
		<path fill="#FFFFFF" stroke="#FFFFFF" stroke-width="6" stroke-miterlimit="10" d="M291.48,197.71c0,2.21-1.79,4-4,4h-62.96
			c-2.21,0-4-1.79-4-4c0-2.21,1.79-4,4-4h62.96C289.69,193.71,291.48,195.5,291.48,197.71z"/>
	</g>
	<g>
		<path fill="none" stroke="#FFFFFF" stroke-width="6" stroke-miterlimit="10" d="M69.16,256.23h-6.85 M59.47,262.44v-4.49
			 M432.9,253.95l-2.36-1.72H81.46l-2.36,1.72l-3.14,2.28h360.08L432.9,253.95z M59.47,256.23v1.72l2.84-1.72H59.47z M432.9,253.95
			l-2.36-1.72H74.67l-5.51,4h366.88L432.9,253.95z M59.47,256.23v1.72l2.84-1.72H59.47z M432.9,253.95l-2.36-1.72H74.67l-5.51,4
			h366.88L432.9,253.95z M59.47,256.23v1.72l2.84-1.72H59.47z M432.9,253.95l-2.36-1.72H74.67l-5.51,4h366.88L432.9,253.95z
			 M59.47,256.23v1.72l2.84-1.72H59.47z M432.9,253.95l-2.36-1.72H74.67l-5.51,4h366.88L432.9,253.95z M59.47,256.23v1.72l2.84-1.72
			H59.47z M432.9,253.95l-2.36-1.72H74.67l-5.51,4h366.88L432.9,253.95z M59.47,256.23v1.72l2.84-1.72H59.47z M432.9,253.95
			l-2.36-1.72H74.67l-5.51,4h366.88L432.9,253.95z M59.47,256.23v1.72l2.84-1.72H59.47z M432.9,253.95l-2.36-1.72H74.67l-5.51,4
			h366.88L432.9,253.95z M59.47,256.23v1.72l2.84-1.72H59.47z M432.9,253.95l-2.36-1.72H74.67l-5.51,4h366.88L432.9,253.95z
			 M432.9,253.95l-2.36-1.72H74.67l-5.51,4h366.88L432.9,253.95z M59.47,256.23v1.72l2.84-1.72H59.47z M424.9,256.23H87.1
			 M424.9,292.28H301.88h-91.75H87.1 M452.53,266.81v-4.37 M442.84,256.23h-6.8 M452.53,266.81v25.47H432.9h-4h-4H301.88h-91.75
			H87.1h-4h-4H59.47V266.8v-4.36 M69.16,256.23h6.8h3.14h4h4h337.8h4h4h3.14 M452.53,262.44v-4.49c1.29,0.71,2.63,1.32,4,1.83v4.24
			v4.18v28.08H432.9h-4H315.13H196.88H83.1h-4H55.47v-28.1v-4.16v-4.25c1.36-0.5,2.7-1.11,4-1.82v4.49"/>
	</g>
	<g>
		<path fill="#FFFFFF" stroke="#FFFFFF" stroke-width="6" stroke-miterlimit="10" d="M317.88,428.44v40.05H194.13v-40.05H55.47
			v44.05h401.06v-44.05H317.88z M59.47,468.49v-36.05h126.66v36.05H59.47z M452.53,468.49H325.88v-36.05h126.65V468.49z"/>
	</g>
	<g>
		<path fill="#FFFFFF" stroke="#FFFFFF" stroke-width="6" stroke-miterlimit="10" d="M317.88,340.33v44.06h138.65v-44.06H317.88z
			 M452.53,380.38H325.88v-36.05h126.65V380.38z"/>
		<path fill="#FFFFFF" stroke="#FFFFFF" stroke-width="6" stroke-miterlimit="10" d="M55.47,340.33v44.06h138.66v-44.06H55.47z
			 M59.47,380.38v-36.05h126.66v36.05H59.47z"/>
	</g>
	<g>
		<path fill="#FFFFFF" stroke="#FFFFFF" stroke-width="6" stroke-miterlimit="10" d="M456.53,424.44H321.88v8h130.65v36.05H59.47
			v-36.05h130.66v-8H55.47c-2.21,0-4,1.79-4,4v44.05c0,2.21,1.79,4,4,4h401.06c2.21,0,4-1.79,4-4v-44.05
			C460.53,426.23,458.74,424.44,456.53,424.44z"/>
	</g>
	<g>
		<path fill="#FFFFFF" stroke="#FFFFFF" stroke-width="6" stroke-miterlimit="10" d="M55.47,336.33c-2.21,0-4,1.79-4,4v44.05
			c0,2.21,1.79,4,4,4h134.66v-8H59.47v-36.05h130.66v-8H55.47z M456.53,336.33H321.88v8h130.65v36.05H321.88v8h134.65
			c2.21,0,4-1.79,4-4v-44.05C460.53,338.12,458.74,336.33,456.53,336.33z"/>
	</g>
	<g>
		<path fill="#FFFFFF" stroke="#FFFFFF" stroke-width="6" stroke-miterlimit="10" d="M448.86,255.65l-4.71-3.42l-5.5-4H80.17
			l-1.07,0.78l-4.43,3.22h-6.81l-4.71,3.42c-0.28,0.2-0.56,0.4-0.84,0.58h387.38C449.41,256.04,449.13,255.85,448.86,255.65z
			 M448.86,255.65l-4.71-3.42l-5.5-4H80.17l-1.07,0.78l-4.43,3.22h-6.81l-4.71,3.42c-0.28,0.2-0.56,0.4-0.84,0.58h387.38
			C449.41,256.04,449.13,255.85,448.86,255.65z M448.86,255.65l-4.71-3.42l-5.5-4H80.17l-1.07,0.78l-4.43,3.22h-6.81l-4.71,3.42
			c-0.28,0.2-0.56,0.4-0.84,0.58h387.38C449.41,256.04,449.13,255.85,448.86,255.65z M448.86,255.65l-4.71-3.42l-5.5-4H80.17
			l-1.07,0.78l-4.43,3.22h-6.81l-4.71,3.42c-0.28,0.2-0.56,0.4-0.84,0.58h387.38C449.41,256.04,449.13,255.85,448.86,255.65z
			 M448.86,255.65l-4.71-3.42l-5.5-4H80.17l-1.07,0.78l-4.43,3.22h-6.81l-4.71,3.42c-0.28,0.2-0.56,0.4-0.84,0.58h387.38
			C449.41,256.04,449.13,255.85,448.86,255.65z M301.88,292.28c4.9,0,9.45,1.47,13.25,4H428.9v-4H301.88z M448.86,255.65l-4.71-3.42
			l-5.5-4H80.17l-1.07,0.78l-4.43,3.22h-6.81l-4.71,3.42c-0.28,0.2-0.56,0.4-0.84,0.58h387.38
			C449.41,256.04,449.13,255.85,448.86,255.65z M301.88,292.28c4.9,0,9.45,1.47,13.25,4H428.9v-4H301.88z M448.86,255.65l-4.71-3.42
			l-5.5-4H80.17l-1.07,0.78l-4.43,3.22h-6.81l-4.71,3.42c-0.28,0.2-0.56,0.4-0.84,0.58h387.38
			C449.41,256.04,449.13,255.85,448.86,255.65z M301.88,292.28c4.9,0,9.45,1.47,13.25,4H428.9v-4H301.88z M448.86,255.65l-4.71-3.42
			l-5.5-4H80.17l-1.07,0.78l-4.43,3.22h-6.81l-4.71,3.42c-0.28,0.2-0.56,0.4-0.84,0.58h387.38
			C449.41,256.04,449.13,255.85,448.86,255.65z M301.88,292.28c4.9,0,9.45,1.47,13.25,4H428.9v-4H301.88z M448.86,255.65l-4.71-3.42
			l-5.5-4H80.17l-1.07,0.78l-4.43,3.22h-6.81l-4.71,3.42c-0.28,0.2-0.56,0.4-0.84,0.58h387.38
			C449.41,256.04,449.13,255.85,448.86,255.65z M301.88,292.28c4.9,0,9.45,1.47,13.25,4H428.9v-4H301.88z M448.86,255.65l-4.71-3.42
			l-5.5-4H80.17l-1.07,0.78l-4.43,3.22h-6.81l-4.71,3.42c-0.28,0.2-0.56,0.4-0.84,0.58h387.38
			C449.41,256.04,449.13,255.85,448.86,255.65z M301.88,292.28c4.9,0,9.45,1.47,13.25,4H428.9v-4H301.88z M448.86,255.65l-4.71-3.42
			l-5.5-4H80.17l-1.07,0.78l-4.43,3.22h-6.81l-4.71,3.42c-0.28,0.2-0.56,0.4-0.84,0.58h387.38
			C449.41,256.04,449.13,255.85,448.86,255.65z M301.88,292.28c4.9,0,9.45,1.47,13.25,4H428.9v-4H301.88z M448.86,255.65l-4.71-3.42
			l-5.5-4H80.17l-1.07,0.78l-4.43,3.22h-6.81l-4.71,3.42c-0.28,0.2-0.56,0.4-0.84,0.58h387.38
			C449.41,256.04,449.13,255.85,448.86,255.65z M301.88,292.28c4.9,0,9.45,1.47,13.25,4H428.9v-4H301.88z M448.86,255.65l-4.71-3.42
			l-5.5-4H80.17l-1.07,0.78l-4.43,3.22h-6.81l-4.71,3.42c-0.28,0.2-0.56,0.4-0.84,0.58h387.38
			C449.41,256.04,449.13,255.85,448.86,255.65z M301.88,292.28c4.9,0,9.45,1.47,13.25,4H428.9v-4H301.88z M448.86,255.65l-4.71-3.42
			l-5.5-4H80.17l-1.07,0.78l-4.43,3.22h-6.81l-4.71,3.42c-0.28,0.2-0.56,0.4-0.84,0.58h387.38
			C449.41,256.04,449.13,255.85,448.86,255.65z M301.88,292.28c4.9,0,9.45,1.47,13.25,4H428.9v-4H301.88z M448.86,255.65l-4.71-3.42
			l-5.5-4H80.17l-1.07,0.78l-4.43,3.22h-6.81l-4.71,3.42c-0.28,0.2-0.56,0.4-0.84,0.58h387.38
			C449.41,256.04,449.13,255.85,448.86,255.65z M301.88,292.28c4.9,0,9.45,1.47,13.25,4H428.9v-4H301.88z M448.86,255.65l-4.71-3.42
			l-5.5-4H80.17l-1.07,0.78l-4.43,3.22h-6.81l-4.71,3.42c-0.28,0.2-0.56,0.4-0.84,0.58h387.38
			C449.41,256.04,449.13,255.85,448.86,255.65z M448.86,255.65l-4.71-3.42l-5.5-4H80.17l-1.07,0.78l-4.43,3.22h-19.2v7.54
			c1.36-0.5,2.7-1.11,4-1.82v-1.72h390.22C449.41,256.04,449.13,255.85,448.86,255.65z M448.86,255.65l-4.71-3.42l-5.5-4H80.17
			l-1.07,0.78l-4.43,3.22l-5.51,4h380.53C449.41,256.04,449.13,255.85,448.86,255.65z M437.33,252.23l-4.43-3.22l-1.07-0.78H80.17
			l-1.07,0.78l-4.43,3.22l-5.51,4h373.68L437.33,252.23z M437.33,252.23l-4.43-3.22l-1.07-0.78H80.17l-1.07,0.78l-4.43,3.22l-5.51,4
			h373.68L437.33,252.23z M437.33,252.23l-4.43-3.22l-1.07-0.78H80.17l-1.07,0.78l-4.43,3.22l-5.51,4h373.68L437.33,252.23z
			 M437.33,252.23l-4.43-3.22l-1.07-0.78H80.17l-1.07,0.78l-4.43,3.22l-5.51,4h373.68L437.33,252.23z M437.33,252.23l-4.43-3.22
			l-1.07-0.78H80.17l-1.07,0.78l-4.43,3.22l-5.51,4h373.68L437.33,252.23z M437.33,252.23l-4.43-3.22l-1.07-0.78H80.17l-1.07,0.78
			l-4.43,3.22l-5.51,4h373.68L437.33,252.23z M437.33,252.23l-4.43-3.22l-1.07-0.78H80.17l-1.07,0.78l-4.43,3.22l-5.51,4h373.68
			L437.33,252.23z M437.33,252.23l-4.43-3.22l-1.07-0.78H80.17l-1.07,0.78l-4.43,3.22l-5.51,4h373.68L437.33,252.23z M437.33,252.23
			l-4.43-3.22l-1.07-0.78H80.17l-1.07,0.78l-4.43,3.22l-5.51,4h373.68L437.33,252.23z M437.33,252.23l-4.43-3.22l-1.07-0.78H80.17
			l-1.07,0.78l-4.43,3.22l-5.51,4h373.68L437.33,252.23z M437.33,252.23l-4.43-3.22l-1.07-0.78H80.17l-1.07,0.78l-4.43,3.22l-5.51,4
			h373.68L437.33,252.23z M456.53,248.23H55.47c-2.21,0-4,1.79-4,4v44.05c0,2.21,1.79,4,4,4h401.06c2.21,0,4-1.79,4-4v-44.05
			C460.53,250.02,458.74,248.23,456.53,248.23z M452.53,292.28H59.47v-36.05h393.06V292.28z M437.33,252.23l-4.43-3.22l-1.07-0.78
			H80.17l-1.07,0.78l-4.43,3.22l-5.51,4h373.68L437.33,252.23z M437.33,252.23l-4.43-3.22l-1.07-0.78H80.17l-1.07,0.78l-4.43,3.22
			l-5.51,4h373.68L437.33,252.23z M437.33,252.23l-4.43-3.22l-1.07-0.78H80.17l-1.07,0.78l-4.43,3.22l-5.51,4h373.68L437.33,252.23z
			 M437.33,252.23l-4.43-3.22l-1.07-0.78H80.17l-1.07,0.78l-4.43,3.22l-5.51,4h373.68L437.33,252.23z M437.33,252.23l-4.43-3.22
			l-1.07-0.78H80.17l-1.07,0.78l-4.43,3.22l-5.51,4h373.68L437.33,252.23z M437.33,252.23l-4.43-3.22l-1.07-0.78H80.17l-1.07,0.78
			l-4.43,3.22l-5.51,4h373.68L437.33,252.23z M437.33,252.23l-4.43-3.22l-1.07-0.78H80.17l-1.07,0.78l-4.43,3.22l-5.51,4h373.68
			L437.33,252.23z M437.33,252.23l-4.43-3.22l-1.07-0.78H80.17l-1.07,0.78l-4.43,3.22l-5.51,4h373.68L437.33,252.23z M437.33,252.23
			l-4.43-3.22l-1.07-0.78H80.17l-1.07,0.78l-4.43,3.22l-5.51,4h373.68L437.33,252.23z M437.33,252.23l-4.43-3.22l-1.07-0.78H80.17
			l-1.07,0.78l-4.43,3.22l-5.51,4h373.68L437.33,252.23z M437.33,252.23l-4.43-3.22l-1.07-0.78H80.17l-1.07,0.78l-4.43,3.22l-5.51,4
			h383.37v1.72c1.29,0.71,2.63,1.32,4,1.83v-7.55H437.33z M448.86,255.65l-4.71-3.42l-5.5-4H80.17l-1.07,0.78l-4.43,3.22l-5.51,4
			h380.53C449.41,256.04,449.13,255.85,448.86,255.65z M448.86,255.65l-4.71-3.42l-5.5-4H80.17l-1.07,0.78l-4.43,3.22h-6.81
			l-4.71,3.42c-0.28,0.2-0.56,0.4-0.84,0.58h387.38C449.41,256.04,449.13,255.85,448.86,255.65z M301.88,292.28
			c4.9,0,9.45,1.47,13.25,4H428.9v-4H301.88z M448.86,255.65l-4.71-3.42l-5.5-4H80.17l-1.07,0.78l-4.43,3.22h-6.81l-4.71,3.42
			c-0.28,0.2-0.56,0.4-0.84,0.58h387.38C449.41,256.04,449.13,255.85,448.86,255.65z M301.88,292.28c4.9,0,9.45,1.47,13.25,4H428.9
			v-4H301.88z M448.86,255.65l-4.71-3.42l-5.5-4H80.17l-1.07,0.78l-4.43,3.22h-6.81l-4.71,3.42c-0.28,0.2-0.56,0.4-0.84,0.58h387.38
			C449.41,256.04,449.13,255.85,448.86,255.65z M301.88,292.28c4.9,0,9.45,1.47,13.25,4H428.9v-4H301.88z M448.86,255.65l-4.71-3.42
			l-5.5-4H80.17l-1.07,0.78l-4.43,3.22h-6.81l-4.71,3.42c-0.28,0.2-0.56,0.4-0.84,0.58h387.38
			C449.41,256.04,449.13,255.85,448.86,255.65z M301.88,292.28c4.9,0,9.45,1.47,13.25,4H428.9v-4H301.88z M448.86,255.65l-4.71-3.42
			l-5.5-4H80.17l-1.07,0.78l-4.43,3.22h-6.81l-4.71,3.42c-0.28,0.2-0.56,0.4-0.84,0.58h387.38
			C449.41,256.04,449.13,255.85,448.86,255.65z M301.88,292.28c4.9,0,9.45,1.47,13.25,4H428.9v-4H301.88z M448.86,255.65l-4.71-3.42
			l-5.5-4H80.17l-1.07,0.78l-4.43,3.22h-6.81l-4.71,3.42c-0.28,0.2-0.56,0.4-0.84,0.58h387.38
			C449.41,256.04,449.13,255.85,448.86,255.65z M301.88,292.28c4.9,0,9.45,1.47,13.25,4H428.9v-4H301.88z M448.86,255.65l-4.71-3.42
			l-5.5-4H80.17l-1.07,0.78l-4.43,3.22h-6.81l-4.71,3.42c-0.28,0.2-0.56,0.4-0.84,0.58h387.38
			C449.41,256.04,449.13,255.85,448.86,255.65z M301.88,292.28c4.9,0,9.45,1.47,13.25,4H428.9v-4H301.88z M448.86,255.65l-4.71-3.42
			l-5.5-4H80.17l-1.07,0.78l-4.43,3.22h-6.81l-4.71,3.42c-0.28,0.2-0.56,0.4-0.84,0.58h387.38
			C449.41,256.04,449.13,255.85,448.86,255.65z M301.88,292.28c4.9,0,9.45,1.47,13.25,4H428.9v-4H301.88z M448.86,255.65l-4.71-3.42
			l-5.5-4H80.17l-1.07,0.78l-4.43,3.22h-6.81l-4.71,3.42c-0.28,0.2-0.56,0.4-0.84,0.58h387.38
			C449.41,256.04,449.13,255.85,448.86,255.65z M301.88,292.28c4.9,0,9.45,1.47,13.25,4H428.9v-4H301.88z M448.86,255.65l-4.71-3.42
			l-5.5-4H80.17l-1.07,0.78l-4.43,3.22h-6.81l-4.71,3.42c-0.28,0.2-0.56,0.4-0.84,0.58h387.38
			C449.41,256.04,449.13,255.85,448.86,255.65z M301.88,292.28c4.9,0,9.45,1.47,13.25,4H428.9v-4H301.88z M448.86,255.65l-4.71-3.42
			l-5.5-4H80.17l-1.07,0.78l-4.43,3.22h-6.81l-4.71,3.42c-0.28,0.2-0.56,0.4-0.84,0.58h387.38
			C449.41,256.04,449.13,255.85,448.86,255.65z M301.88,292.28c4.9,0,9.45,1.47,13.25,4H428.9v-4H301.88z M448.86,255.65l-4.71-3.42
			l-5.5-4H80.17l-1.07,0.78l-4.43,3.22h-6.81l-4.71,3.42c-0.28,0.2-0.56,0.4-0.84,0.58h387.38
			C449.41,256.04,449.13,255.85,448.86,255.65z M301.88,292.28c4.9,0,9.45,1.47,13.25,4H428.9v-4H301.88z M448.86,255.65l-4.71-3.42
			l-5.5-4H80.17l-1.07,0.78l-4.43,3.22h-6.81l-4.71,3.42c-0.28,0.2-0.56,0.4-0.84,0.58h387.38
			C449.41,256.04,449.13,255.85,448.86,255.65z M448.86,255.65l-4.71-3.42l-5.5-4H80.17l-1.07,0.78l-4.43,3.22h-6.81l-4.71,3.42
			c-0.28,0.2-0.56,0.4-0.84,0.58h387.38C449.41,256.04,449.13,255.85,448.86,255.65z M448.86,255.65l-4.71-3.42l-5.5-4H80.17
			l-1.07,0.78l-4.43,3.22h-6.81l-4.71,3.42c-0.28,0.2-0.56,0.4-0.84,0.58h387.38C449.41,256.04,449.13,255.85,448.86,255.65z
			 M448.86,255.65l-4.71-3.42l-5.5-4H80.17l-1.07,0.78l-4.43,3.22h-6.81l-4.71,3.42c-0.28,0.2-0.56,0.4-0.84,0.58h387.38
			C449.41,256.04,449.13,255.85,448.86,255.65z"/>
	</g>
	<g>
		
			<rect x="190.13" y="468.49" fill="#FFFFFF" stroke="#FFFFFF" stroke-width="6" stroke-miterlimit="10" width="131.75" height="4"/>
	</g>
	<g>
		<path fill="#FFFFFF" stroke="#FFFFFF" stroke-width="6" stroke-miterlimit="10" d="M319.75,300.28c-1.36-1.52-2.91-2.87-4.62-4
			c-3.8-2.53-8.35-4-13.25-4h-91.75c-4.89,0-9.45,1.47-13.25,4c-1.71,1.13-3.26,2.48-4.62,4c-3.81,4.25-6.13,9.86-6.13,16v156.21
			c0,2.21,1.79,4,4,4h131.75c2.2,0,4-1.79,4-4V316.28C325.88,310.14,323.56,304.53,319.75,300.28z M301.88,300.28
			c8.82,0,16,7.18,16,16v152.21H194.13V316.28c0-8.82,7.17-16,16-16H301.88z"/>
	</g>
	<g>
		<path fill="#FFFFFF" stroke="#FFFFFF" stroke-width="6" stroke-miterlimit="10" d="M220.48,376.64c-8.62,0-15.63,7.01-15.63,15.63
			s7.01,15.63,15.63,15.63c8.61,0,15.62-7.01,15.62-15.63S229.09,376.64,220.48,376.64z M220.48,399.9c-4.21,0-7.63-3.42-7.63-7.63
			c0-4.2,3.42-7.62,7.63-7.62c4.2,0,7.62,3.42,7.62,7.62C228.1,396.48,224.68,399.9,220.48,399.9z"/>
	</g>
</g>
</svg>
