<?xml version="1.0" encoding="utf-8"?>
<!-- Generator: Adobe Illustrator 17.0.0, SVG Export Plug-In . SVG Version: 6.00 Build 0)  -->
<!DOCTYPE svg PUBLIC "-//W3C//DTD SVG 1.1//EN" "http://www.w3.org/Graphics/SVG/1.1/DTD/svg11.dtd">
<svg version="1.1" id="Layer_1" xmlns="http://www.w3.org/2000/svg" xmlns:xlink="http://www.w3.org/1999/xlink" x="0px" y="0px"
	 width="512px" height="512px" viewBox="0 0 512 512" enable-background="new 0 0 512 512" xml:space="preserve">
<path fill="#AD7B64" d="M80.587,132.957v68.234c0,8.089,2.378,16.005,6.839,22.755l60.688,91.854H380.41l60.688-91.854
	c4.461-6.75,6.839-14.666,6.839-22.755v-68.234H80.587z"/>
<path fill="#865B47" d="M408.48,132.957v68.234c0,8.089-2.381,16.005-6.839,22.755L340.953,315.8h39.46l60.685-91.854
	c4.461-6.75,6.839-14.666,6.839-22.755v-68.234H408.48z"/>
<path fill="#D4D6D6" d="M466.411,132.957H62.113c-7.437,0-13.47-6.03-13.47-13.47v-13.822c0-7.44,6.033-13.47,13.47-13.47h404.299
	c7.44,0,13.47,6.03,13.47,13.47v13.822C479.881,126.927,473.852,132.957,466.411,132.957z"/>
<path fill="#BBBDBD" d="M467.72,92.195h-36.939c6.716,0,12.162,5.445,12.162,12.162v16.435c0,6.72-5.445,12.165-12.162,12.165
	h36.939c6.716,0,12.161-5.445,12.161-12.165v-16.435C479.881,97.641,474.436,92.195,467.72,92.195z"/>
<path fill="#D4D6D6" d="M438.805,360.367H71.692c-0.933,0-1.688-0.755-1.688-1.688v-41.195c0-0.929,0.755-1.684,1.688-1.684h367.114
	c7.799,0,14.122,6.323,14.122,14.126v16.316C452.928,354.044,446.604,360.367,438.805,360.367z"/>
<path fill="#BBBDBD" d="M440.114,315.8h-36.037c7.078,0,12.814,5.736,12.814,12.814v18.939c0,7.078-5.736,12.814-12.814,12.814
	h36.037c7.078,0,12.814-5.736,12.814-12.814v-18.939C452.928,321.536,447.192,315.8,440.114,315.8z"/>
<path fill="#828282" d="M64.815,389.015H42.9c-5.954,0-10.781-4.827-10.781-10.781v-80.3c0-5.954,4.827-10.781,10.781-10.781h21.915
	c5.954,0,10.781,4.827,10.781,10.781v80.3C75.596,384.188,70.769,389.015,64.815,389.015z"/>
<path fill="#5A5A5A" d="M65.372,287.152H46.754c5.647,0,10.225,4.578,10.225,10.225v81.414c0,5.647-4.578,10.225-10.225,10.225
	h18.618c5.647,0,10.225-4.578,10.225-10.225v-81.414C75.596,291.73,71.019,287.152,65.372,287.152z"/>
<path fill="#30353B" d="M206.216,419.805h-2.388c-21.86,0-39.58-17.72-39.58-39.58v-19.858h81.544v19.858
	C245.793,402.085,228.073,419.805,206.216,419.805z"/>
<path fill="#828282" d="M147.113,419.805c-21.857,0-39.576-17.72-39.576-39.58v-19.858h81.544v17.47
	C189.081,401.016,170.292,419.805,147.113,419.805z"/>
<path fill="#5A5A5A" d="M164.345,378.432c0,18.235-11.355,33.813-27.38,40.058c3.242,0.857,6.641,1.315,10.149,1.315
	c23.179,0,41.967-18.789,41.967-41.967v-17.47h-24.736V378.432z"/>
<path fill="#30353B" d="M382.903,419.805h-2.388c-21.86,0-39.58-17.72-39.58-39.58v-19.858h81.544v19.858
	C422.48,402.085,404.76,419.805,382.903,419.805z"/>
<path fill="#828282" d="M323.804,419.805c-21.86,0-39.58-17.72-39.58-39.58v-19.858h81.544v17.47
	C365.768,401.016,346.979,419.805,323.804,419.805z"/>
<path fill="#5A5A5A" d="M340.936,378.52c0,18.434-11.174,34.127-26.82,40.089c3.098,0.779,6.344,1.196,9.685,1.196
	c23.179,0,41.967-18.789,41.967-41.967v-17.47h-24.832V378.52z"/>
</svg>
