<?xml version="1.0" encoding="utf-8"?>
<!-- Generator: Adobe Illustrator 17.0.0, SVG Export Plug-In . SVG Version: 6.00 Build 0)  -->
<!DOCTYPE svg PUBLIC "-//W3C//DTD SVG 1.1//EN" "http://www.w3.org/Graphics/SVG/1.1/DTD/svg11.dtd">
<svg version="1.1" id="Layer_1" xmlns="http://www.w3.org/2000/svg" xmlns:xlink="http://www.w3.org/1999/xlink" x="0px" y="0px"
	 width="2432.878px" height="791.09px" viewBox="-955.337 0 2432.878 791.09" enable-background="new -955.337 0 2432.878 791.09"
	 xml:space="preserve">
<g>
	<g>
		<path fill="#C6CBCB" d="M707.914,262.873c0,0-7.195-17.061,11.367-28.437c18.563-11.375,35.625-2.438,43.75,8.938
			c0,0-19.496,0.813-20.313,19.498c0,0,4.871-19.08,28.436-16.852s26.02,29.041,6.512,36.35
			c-19.512,7.314-32.914,2.844-32.914,2.844s-21.938,15.846-45.094-2.844c0,0-29.248,9.344-32.094-16.654
			c-2.842-26,26.814-29.248,43.877-30.873C711.441,234.842,697.48,249.465,707.914,262.873z"/>
		<path opacity="0.5" fill="#586A73" enable-background="new    " d="M790.322,260.979c1.816,8.24-2.361,17.535-12.656,21.393
			c-19.512,7.314-32.914,2.844-32.914,2.844s-21.938,15.846-45.094-2.844c0,0-29.248,9.344-32.094-16.654
			c-0.588-5.359,0.209-9.748,1.988-13.359c0,0-7.041,27.109,29.236,21.26c0,0,23.402,22.461,44.469,6.371
			c0,0,20.443,6.727,36.857-2.049C791.375,271.92,790.322,260.979,790.322,260.979z"/>
	</g>
	<path fill="#586A73" d="M944.315,706.369c0,16.69-13.531,30.217-30.217,30.217H97.703c-16.688,0-30.215-13.527-30.215-30.217l0,0
		c0-16.686,13.527-30.213,30.215-30.213h816.394C930.783,676.158,944.315,689.684,944.315,706.369L944.315,706.369z"/>
	<rect x="-955.337" y="656.514" fill="#C6CBCB" width="2432.878" height="133.082"/>
	<rect x="-955.337" fill="#97CCCC" width="2432.878" height="656.514"/>
	<g>
		<path fill="#2D404E" d="M124.363,714.076c35.545,0,753.59,0,773.734,0c20.141,0,36.732-4.746,26.07-29.625
			c-10.666-24.883-90.053-207.357-90.053-207.357s-9.48-34.361-22.514-34.361c-13.033,0-17.773,11.848-24.883,28.438
			c-7.107,16.592-18.367,63.393-37.918,63.393c-19.551,0-53.393-92.291-72.943-139.687
			c-19.551-47.396-84.941-215.771-100.937-252.504c-15.994-36.732-19.25-72.881-44.139-72.881
			c-17.773,0-47.002,86.049-62.406,126.928c-15.404,40.879-76.822,181.738-89.264,208.398
			c-12.441,26.66-18.961,52.729-34.363,52.729c-15.402,0-30.211-41.473-43.246-74.057c-13.037-32.584-17.186-68.725-42.066-68.725
			c-24.883,0-47.396,63.984-56.871,82.943c-9.479,18.959-98.346,241.717-109.008,268.969
			C82.895,693.93,84.074,714.076,124.363,714.076z"/>
		<path fill="#253744" d="M259.439,314.762c24.881,0,29.029,36.141,42.066,68.725c7.174,17.939,14.891,38.572,22.945,53.496
			l103.041,277.094H271.73l-24.111-87.49l54.859-103.602l-43.039-95.656l19.369-72.518L259.439,314.762z"/>
		<path fill="#253744" d="M924.168,684.451c-10.666-24.883-90.053-207.357-90.053-207.357s-9.48-34.361-22.514-34.361
			c0,0,7.656,20.443,11.195,45.912c3.539,25.469,21.984,101.939,21.984,101.939l-11.848,84.389l27.627,39.104
			c21.613,0,35.023,0,37.541,0C918.24,714.076,934.83,709.328,924.168,684.451z"/>
		<path fill="#253744" d="M530.781,69.486c24.887,0,31.402,31.992,47.398,68.725c15.994,36.732,83.498,222.307,103.049,269.703
			c10.109,24.508,26.533,62.205,37.561,86.74l80.41,219.42H609.213l21.244-245.984l-64.902-119.182l-1.18-112.102l-23.602-29.5
			c0,0,16.521-63.721,11.803-90.861C547.852,89.305,530.781,69.486,530.781,69.486z"/>
		<path fill="#D1D5D5" d="M301.506,380.898c-13.037-32.584-17.186-68.725-42.066-68.725c-24.883,0-47.396,63.984-56.871,82.943
			c-1.105,2.215-3.297,7.207-6.316,14.346c0,0-11.354,25.646,6.877,31.506s30.6-59.896,51.432-57.291s16.273,22.803,29.947,25.391
			C308.594,413.625,301.506,380.898,301.506,380.898z"/>
		<path fill="#D1D5D5" d="M676.723,451.557c-13.111,0-32.186-21.752-49.014-40.941c-12.611-14.383-24.525-27.967-30.486-27.967
			c-0.273,0-0.531,0.029-0.775,0.086c-5.074,1.209-8.627,6.551-12.74,12.736c-6.645,9.994-14.916,22.43-33.719,22.43
			c-17.197,0-22.033-33.686-26.713-66.262c-3.611-25.145-7.023-48.895-15.803-54.238c-1.697-1.033-3.469-1.537-5.416-1.537
			c-9.285,0-20.162,11.574-31.678,23.828c-12.371,13.164-25.164,26.777-37.041,26.777c-0.498,0-0.996-0.023-1.49-0.072
			c-4.605-0.457-8.086-2.523-10.342-6.145c-8.635-13.852,3.07-45.633,3.572-46.979c18.879-46.654,35.574-88.734,42.539-107.215
			c18.92-50.211,46.055-116.967,63.166-116.967c20.248,0,28.607,21.189,39.193,48.014c2.66,6.742,5.412,13.713,8.563,20.945
			c8.785,20.176,34.59,86.818,59.543,151.268c17.16,44.316,33.369,86.176,43.5,111.549c0.541,1.064,13.541,26.982,7.588,41.682
			c-1.67,4.121-4.707,6.965-9.025,8.453C679.078,451.371,677.928,451.557,676.723,451.557L676.723,451.557z"/>
		<path fill="#D1D5D5" d="M845.092,552.379c-1.043,0-2.148-0.027-3.313-0.08c-16.861-0.805-21.23-14.344-25.088-26.291
			c-2.465-7.633-4.594-14.229-9.545-16.246c-1.25-0.508-2.334-0.768-3.225-0.768c-3.008,0-3.768,3.002-4.644,6.48
			c-1.147,4.539-2.445,9.686-9.109,9.686c-0.764,0-1.592-0.072-2.467-0.209c-3.818-0.609-6.787-2.441-8.82-5.436
			c-5.393-7.949-2.498-21.26-2.373-21.822c1.785-4.727,10.377-28.285,10.377-28.285c6.818-15.928,11.748-27.439,24.713-27.439
			c13.172,0,22.498,29.814,22.889,31.084l27.873,65.305c0.08,0.164,2.119,4.463-0.297,8.328
			C859.697,550.463,853.988,552.379,845.092,552.379L845.092,552.379z"/>
		<path fill="#253744" d="M862.01,538.895c-10.951-25.66-20.281-47.518-24.861-58.252c4.582,10.736,13.908,32.59,24.856,58.236
			C862.002,538.883,862.008,538.893,862.01,538.895z"/>
		<path fill="#253744" d="M583.896,151.916c0.129,0.32,0.262,0.645,0.395,0.973C584.156,152.561,584.025,152.236,583.896,151.916z"
			/>
		<path fill="#253744" d="M587.832,161.676c0.078,0.193,0.152,0.383,0.231,0.578C587.984,162.061,587.91,161.869,587.832,161.676z"
			/>
		<path fill="#253744" d="M585.123,154.939c0.121,0.299,0.242,0.6,0.365,0.904C585.365,155.539,585.242,155.238,585.123,154.939z"/>
		<path fill="#253744" d="M582.766,149.152c0.123,0.301,0.25,0.609,0.373,0.916C583.016,149.762,582.891,149.453,582.766,149.152z"
			/>
		<path fill="#253744" d="M586.441,158.213c0.096,0.236,0.189,0.471,0.285,0.711C586.631,158.684,586.537,158.451,586.441,158.213z"
			/>
		<path fill="#253744" d="M581.705,146.566c0.117,0.283,0.236,0.574,0.355,0.865C581.941,147.143,581.82,146.85,581.705,146.566z"/>
		<path fill="#253744" d="M579.779,141.953c0.113,0.266,0.232,0.553,0.348,0.828C580.012,142.504,579.893,142.219,579.779,141.953z"
			/>
		<path fill="#253744" d="M578.947,139.992c0.074,0.174,0.154,0.367,0.23,0.545C579.102,140.357,579.022,140.166,578.947,139.992z"
			/>
		<path fill="#253744" d="M580.701,144.15c0.113,0.268,0.229,0.551,0.344,0.828C580.93,144.701,580.813,144.42,580.701,144.15z"/>
		<path fill="#253744" d="M589.393,165.58c0.014,0.031,0.025,0.061,0.037,0.092C589.418,165.641,589.406,165.611,589.393,165.58z"/>
		<path fill="#C6CBCB" d="M284.506,409.068c24.088,4.557,16.998-28.168,16.998-28.168c-13.037-32.584-17.186-68.725-42.066-68.725
			l19.369,40.049l-10.305,38.582C274.367,397.758,275.373,407.34,284.506,409.068z"/>
		<path fill="#D1D5D5" d="M582.059,147.432c0.232,0.563,0.467,1.133,0.707,1.721C582.525,148.564,582.291,147.994,582.059,147.432z"
			/>
		<path fill="#D1D5D5" d="M579.18,140.537c0.197,0.459,0.393,0.922,0.602,1.416C579.572,141.459,579.375,140.996,579.18,140.537z"/>
		<path fill="#D1D5D5" d="M588.063,162.256c0.435,1.086,0.877,2.193,1.33,3.324C588.941,164.447,588.498,163.34,588.063,162.256z"/>
		<path fill="#D1D5D5" d="M581.045,144.979c0.215,0.518,0.434,1.043,0.66,1.588C581.477,146.021,581.26,145.496,581.045,144.979z"/>
		<path fill="#D1D5D5" d="M580.127,142.781c0.189,0.447,0.377,0.895,0.574,1.369C580.504,143.678,580.316,143.229,580.127,142.781z"
			/>
		<path fill="#D1D5D5" d="M578.18,138.211c0.242,0.557,0.5,1.154,0.77,1.781C578.68,139.363,578.422,138.768,578.18,138.211z"/>
		<path fill="#D1D5D5" d="M589.43,165.672c14.24,35.703,36.799,94.141,57.086,146.502
			C626.225,259.807,603.67,201.373,589.43,165.672z"/>
		<path fill="#D1D5D5" d="M586.729,158.924c0.361,0.896,0.73,1.818,1.104,2.752C587.459,160.742,587.088,159.822,586.729,158.924z"
			/>
		<path fill="#D1D5D5" d="M585.486,155.844c0.313,0.773,0.631,1.564,0.955,2.369C586.117,157.408,585.799,156.617,585.486,155.844z"
			/>
		<path fill="#D1D5D5" d="M583.141,150.068c0.248,0.604,0.498,1.219,0.756,1.848C583.639,151.287,583.389,150.672,583.141,150.068z"
			/>
		<path fill="#D1D5D5" d="M686.799,414.797c-2.535-7.754-5.514-13.656-5.572-13.77c2.066,5.172,3.871,9.645,5.365,13.264
			C686.662,414.457,686.73,414.631,686.799,414.797z"/>
		<path fill="#D1D5D5" d="M584.291,152.889c0.271,0.67,0.549,1.354,0.832,2.051C584.84,154.242,584.561,153.557,584.291,152.889z"/>
		<path fill="#C6CBCB" d="M676.723,451.557c-13.111,0-32.186-21.752-49.014-40.941c-12.611-14.383-24.525-27.967-30.486-27.967
			c-0.273,0-0.531,0.029-0.775,0.086c-2.9,0.691-5.553,2.781-8.6,6.777l-0.367,0.48l-22.27-40.896l-1.225-112.148L540.346,207.4
			l0.049-0.189c0.164-0.637,16.445-63.949,11.795-90.697c-4.65-26.725-21.533-46.574-21.703-46.771l-0.557-0.646h0.854
			c20.248,0,28.607,21.189,39.193,48.014c2.66,6.742,116.822,300.08,116.822,300.08c4.557,13.932,7.389,28.98-6.654,33.816
			C679.078,451.371,677.928,451.557,676.723,451.557z"/>
		<path fill="#D1D5D5" d="M862.01,538.895c0.039,0.094,0.08,0.188,0.121,0.281C862.063,539.018,862.02,538.918,862.01,538.895z"/>
		<path fill="#D1D5D5" d="M834.115,473.537c0,0,1.098,2.572,3.033,7.107C835.209,476.104,834.115,473.537,834.115,473.537z"/>
		<path fill="#C6CBCB" d="M845.092,552.379c-1.043,0-2.148-0.027-3.313-0.08c-2.211-0.107-4.262-0.42-6.27-0.953l-0.227-0.061
			l-0.053-0.229c-4.812-21.16-10.943-49.221-12.818-62.73c-3.492-25.131-11.1-45.625-11.176-45.83l-0.197-0.529h0.563
			c13.172,0,25.156,32.215,25.547,33.484l25.301,63.104c0.482,1.193,1.734,5.004-0.529,8.354c-2.453,3.631-8.113,5.471-16.824,5.471
			C845.094,552.379,845.094,552.379,845.092,552.379z"/>
	</g>
	<path fill="#E2E5E7" d="M300.076,183.73c0,0-10.084-23.914,15.938-39.861c26.018-15.945,49.936-3.418,61.324,12.527
		c0,0-27.332,1.141-28.475,27.334c0,0,6.832-26.746,39.861-23.623c33.027,3.123,36.473,40.707,9.125,50.957
		c-27.346,10.252-46.137,3.986-46.137,3.986s-30.75,22.211-63.207-3.986c0,0-41,13.096-44.988-23.35
		c-3.984-36.443,37.584-40.998,61.502-43.275C305.02,144.439,285.453,164.938,300.076,183.73z"/>
	<path fill="#C6CBCB" d="M415.598,181.074c2.545,11.553-3.311,24.578-17.746,29.988c-27.346,10.252-46.137,3.986-46.137,3.986
		s-30.75,22.211-63.207-3.986c0,0-41,13.096-44.988-23.35c-0.822-7.51,0.291-13.664,2.789-18.727c0,0-9.873,38.002,40.979,29.799
		c0,0,32.809,31.488,62.332,8.932c0,0,28.66,9.43,51.67-2.871C417.07,196.412,415.598,181.074,415.598,181.074z"/>
	<path opacity="0.3" fill="#586A73" enable-background="new    " d="M781.389,755.607l-25.27,12.846c0,0,110.475,26.762,120.9,1.875
		C887.445,745.441,781.389,755.607,781.389,755.607z"/>
	<path opacity="0.3" fill="#586A73" enable-background="new    " d="M83.182,765.445l-16.029,8.148c0,0,70.082,16.977,76.695,1.189
		S83.182,765.445,83.182,765.445z"/>
	<path opacity="0.3" fill="#586A73" enable-background="new    " d="M337.283,763.098l-10.602,7.055c0,0,62.307,15.096,68.186,1.059
		C400.748,757.174,337.283,763.098,337.283,763.098z"/>
	<path opacity="0.3" fill="#586A73" enable-background="new    " d="M624.754,765.182l-16.029,8.148c0,0,70.082,16.977,76.695,1.189
		C692.033,758.733,624.754,765.182,624.754,765.182z"/>
	<path opacity="0.2" fill="#2D404E" enable-background="new    " d="M177.291,720.568l-10.34,5.256c0,0,45.211,10.951,49.479,0.768
		C220.695,716.408,177.291,720.568,177.291,720.568z"/>
	<g>
		<path fill="#48B19B" d="M837.469,711.002c-12.396-24.791-46.486-103.816-68.178-103.816c-21.693,0-55.783,79.025-68.178,103.816
			c-12.398,24.793-3.1,31.766,21.691,31.766s46.486,0,46.486,0s21.691,0,46.486,0C840.568,742.766,849.863,735.795,837.469,711.002z
			"/>
		<rect x="756.119" y="742.766" fill="#9D6227" width="26.34" height="25.689"/>
		<path fill="#48B19B" d="M791.73,665.248c-6.354-26.385-14.408-45.662-20.502-57.859c-0.656-0.131-1.303-0.205-1.938-0.205
			c-21.693,0-55.783,79.025-68.178,103.816c-12.398,24.793-3.1,31.766,21.691,31.766s46.486,0,46.486,0s13.227,0,30.826,0
			C800.311,725.494,799.203,696.289,791.73,665.248z"/>
		<path fill="#49A893" d="M837.469,711.002c-12.033-24.065-44.506-99.23-66.24-103.611c6.094,12.197,14.148,31.475,20.502,57.859
			c7.473,31.043,8.582,60.246,8.387,77.516c4.939,0,10.225,0,15.66,0C840.568,742.766,849.863,735.795,837.469,711.002z"/>
		<polygon fill="#915A26" points="756.119,742.766 756.119,761.615 782.461,742.766 		"/>
	</g>
	<g>
		<path fill="#48B19B" d="M124.652,733.256c-8.762-17.525-32.857-73.383-48.191-73.383c-15.336,0-39.43,55.859-48.191,73.383
			c-8.764,17.525-2.191,22.451,15.334,22.451s32.859,0,32.859,0s15.334,0,32.857,0S133.416,750.781,124.652,733.256z"/>
		<rect x="67.152" y="755.707" fill="#9D6227" width="18.619" height="18.16"/>
		<path fill="#48B19B" d="M92.324,700.918c-4.49-18.648-10.184-32.275-14.492-40.896c-0.463-0.094-0.92-0.145-1.369-0.145
			c-15.336,0-39.43,55.859-48.191,73.383c-8.764,17.525-2.191,22.451,15.334,22.451s32.859,0,32.859,0s9.35,0,21.789,0
			C98.389,743.5,97.605,722.857,92.324,700.918z"/>
		<path fill="#49A893" d="M124.652,733.256c-8.506-17.012-31.459-70.141-46.822-73.238c4.309,8.621,10.002,22.25,14.492,40.896
			c5.283,21.941,6.064,42.586,5.928,54.793c3.492,0,7.229,0,11.068,0C126.844,755.707,133.416,750.781,124.652,733.256z"/>
		<polygon fill="#915A26" points="67.152,755.707 67.152,769.033 85.771,755.707 		"/>
	</g>
	<g>
		<path fill="#48B19B" d="M202.26,701.576c-5.381-10.762-20.178-45.063-29.594-45.063s-24.213,34.301-29.594,45.063
			c-5.381,10.762-1.344,13.787,9.416,13.787c10.762,0,20.178,0,20.178,0s9.416,0,20.178,0S207.641,712.338,202.26,701.576z"/>
		<rect x="166.951" y="715.363" fill="#9D6227" width="11.434" height="11.152"/>
		<path fill="#48B19B" d="M182.408,681.717c-2.758-11.451-6.254-19.82-8.9-25.113c-0.285-0.057-0.566-0.09-0.842-0.09
			c-9.416,0-24.213,34.301-29.594,45.063c-5.381,10.762-1.344,13.787,9.416,13.787c10.762,0,20.178,0,20.178,0s5.742,0,13.381,0
			C186.131,707.867,185.65,695.193,182.408,681.717z"/>
		<path fill="#49A893" d="M202.26,701.576c-5.223-10.447-19.318-43.072-28.752-44.973c2.645,5.293,6.143,13.662,8.9,25.113
			c3.244,13.473,3.725,26.15,3.641,33.646c2.145,0,4.438,0,6.797,0C203.605,715.363,207.641,712.338,202.26,701.576z"/>
		<polygon fill="#915A26" points="166.951,715.363 166.951,723.547 178.383,715.363 		"/>
	</g>
	<g>
		<path fill="#48B19B" d="M655.352,740.119c-7.107-14.209-26.647-59.506-39.078-59.506c-12.434,0-31.971,45.295-39.08,59.506
			c-7.105,14.209-1.772,18.203,12.436,18.203c14.209,0,26.645,0,26.645,0s12.432,0,26.645,0
			C657.127,758.321,662.453,754.328,655.352,740.119z"/>
		<rect x="608.725" y="758.321" fill="#9D6227" width="15.096" height="14.727"/>
		<path fill="#48B19B" d="M629.137,713.895c-3.643-15.121-8.26-26.174-11.754-33.162c-0.373-0.076-0.748-0.119-1.109-0.119
			c-12.434,0-31.971,45.295-39.08,59.506c-7.105,14.209-1.772,18.203,12.436,18.203c14.209,0,26.645,0,26.645,0s7.582,0,17.67,0
			C634.053,748.424,633.42,731.686,629.137,713.895z"/>
		<path fill="#49A893" d="M655.352,740.119c-6.897-13.795-25.512-56.875-37.967-59.387c3.494,6.988,8.109,18.041,11.754,33.162
			c4.283,17.791,4.918,34.531,4.807,44.428c2.832,0,5.859,0,8.975,0C657.127,758.321,662.453,754.328,655.352,740.119z"/>
		<polygon fill="#915A26" points="608.725,758.321 608.725,769.125 623.82,758.321 		"/>
	</g>
	<g>
		<path fill="#48B19B" d="M366.086,742.904c-6.078-12.156-22.791-50.9-33.426-50.9c-10.637,0-27.348,38.744-33.426,50.9
			s-1.52,15.572,10.635,15.572c12.154,0,22.791,0,22.791,0s10.635,0,22.791,0S372.162,755.059,366.086,742.904z"/>
		<rect x="326.203" y="758.477" fill="#9D6227" width="12.914" height="12.596"/>
		<path fill="#48B19B" d="M343.662,720.473c-3.115-12.934-7.064-22.387-10.051-28.365c-0.322-0.064-0.639-0.102-0.949-0.102
			c-10.637,0-27.348,38.744-33.426,50.9c-6.078,12.156-1.52,15.572,10.635,15.572c12.154,0,22.791,0,22.791,0s6.484,0,15.113,0
			C347.869,750.008,347.326,735.689,343.662,720.473z"/>
		<path fill="#49A893" d="M366.086,742.904c-5.9-11.801-21.82-48.65-32.477-50.799c2.988,5.98,6.938,15.432,10.051,28.365
			c3.664,15.219,4.207,29.537,4.111,38.004c2.422,0,5.014,0,7.678,0C367.605,758.477,372.162,755.059,366.086,742.904z"/>
		<polygon fill="#915A26" points="326.203,758.477 326.203,767.719 339.117,758.477 		"/>
	</g>
	<path opacity="0.3" fill="#586A73" enable-background="new    " d="M-133.919,747.369l-17.174,8.636
		c0,0,75.086,17.992,82.171,1.261C-61.836,740.534-133.919,747.369-133.919,747.369z"/>
	<g>
		<path fill="#CF4737" d="M-144.305,701.12h3.245l0,0v11.798l0,0h-3.245c-1.466,0-2.655-1.189-2.655-2.655v-6.489
			C-146.96,702.308-145.771,701.12-144.305,701.12z"/>
		<path fill="#FEC9A3" d="M-89.87,698.676c-1.209-1.612-3.498-1.939-5.11-0.73c-0.139,0.103-0.268,0.217-0.391,0.339l-7.347,7.347
			l-7.374-8.849v11.798l0.645,0.966c2.38,3.567,7.201,4.532,10.77,2.152c0.426-0.285,0.823-0.609,1.184-0.972l7.284-7.284
			C-88.926,702.16-88.781,700.129-89.87,698.676z"/>
		<g id="surface1">
			<path fill="#E0E0E2" d="M-112.71,696.918l-0.224,0.672l6.841-6.841l-1.856-1.856
				C-110.091,691.197-111.714,693.934-112.71,696.918z"/>
			<path fill="#E0E0E2" d="M-94.899,679.555l-0.672,0.224c-2.984,0.996-5.721,2.619-8.025,4.76l1.856,1.856L-94.899,679.555z"/>
			<path fill="#808285" d="M-106.404,686.085l-2.177,2.177l3.109,3.109l2.177-2.177L-106.404,686.085z"/>
			<path fill="#939598" d="M-103.294,689.194l2.177-2.177l-3.109-3.109l-2.177,2.177L-103.294,689.194z"/>
			<path fill="#6D6E71" d="M-103.294,689.194l0.933-0.933l10.343,10.343l-0.933,0.933L-103.294,689.194z"/>
			<path fill="#58595B" d="M-92.807,699.682l-10.488-10.488l-0.933,0.933l10.488,10.488L-92.807,699.682z"/>
			<path fill="#6D6E71" d="M-89.302,703.187l0.311-0.311c0.343-0.343,0.343-0.9,0-1.244l-3.109-3.109l-0.933,0.933L-89.302,703.187z
				"/>
			<path fill="#58595B" d="M-93.344,699.766l-0.622,0.622l3.109,3.109c0.344,0.344,0.9,0.344,1.244,0l0.311-0.311l-3.731-3.731
				L-93.344,699.766z"/>
			<path fill="#58595B" d="M-107.337,685.152l-0.311,0.311c-0.343,0.343-0.344,0.9,0,1.244l0.311,0.311l0.933-0.933
				L-107.337,685.152z"/>
			<path fill="#6D6E71" d="M-105.471,685.152l-0.311-0.311c-0.344-0.344-0.9-0.344-1.244,0l-0.311,0.311l0.933,0.933
				L-105.471,685.152z"/>
		</g>
		<path fill="#3E8CC7" d="M-115.99,689.411h-5.899c-3.258,0-5.899,2.641-5.899,5.899v26.546h17.697V695.31
			C-110.091,692.052-112.733,689.411-115.99,689.411z"/>
		<path fill="#FEC9A3" d="M-111.566,674.663l-11.612,1.475c-0.124,0.482-0.186,0.978-0.186,1.475v5.899
			c0,3.258,2.641,5.899,5.899,5.899s5.899-2.641,5.899-5.899v-5.899C-111.506,676.63-111.506,675.645-111.566,674.663z"/>
		<g>
			<path fill="#75462E" d="M-123.364,676.138v5.899l5.899-5.899h4.424c2.444,0,4.424-1.981,4.424-4.424h-10.323
				C-121.383,671.713-123.364,673.694-123.364,676.138L-123.364,676.138"/>
		</g>
		<g>
			<path fill="#75462E" d="M-122.699,687.936h-10.988v2.704h10.988c2.132,0.001,3.86,1.587,3.858,3.542
				c0,0.534-0.133,1.061-0.386,1.541l-9.269,17.496l-3.716,0.406v2.704l4.203-0.556c0.969-0.128,1.804-0.688,2.231-1.495
				l9.198-17.372c1.643-3.102,0.232-6.838-3.152-8.344C-120.656,688.151-121.671,687.937-122.699,687.936z"/>
			<path fill="#75462E" d="M-141.061,714.41c0,2.444,1.981,4.424,4.424,4.424h4.424c2.444,0,4.424-1.981,4.424-4.424v-1.475h-13.273
				C-141.061,712.936-141.061,714.41-141.061,714.41z"/>
		</g>
		<path fill="#DE4C3C" d="M-128.039,690.797c-0.625-1.768-2.298-2.951-4.174-2.95h-4.424c-2.444,0-4.424,1.981-4.424,4.424v20.647
			h13.273v-20.647L-128.039,690.797z"/>
		<path fill="#FEC9A3" d="M-117.76,696.154l-8.554,5.215l10.028,7.213c1.693,1.133,2.147,3.421,1.015,5.114
			c-0.035,0.053-0.072,0.105-0.111,0.156l0,0c-1.174,1.562-3.361,1.936-4.988,0.855l-12.345-8.753
			c-1.531-1.023-2.45-2.745-2.448-4.586l0,0c0-1.842,0.92-3.563,2.454-4.585l10.87-6.756c1.627-1.081,3.814-0.706,4.988,0.855l0,0
			c1.217,1.633,0.88,3.942-0.752,5.16C-117.654,696.082-117.707,696.119-117.76,696.154z"/>
		<g>
			<path fill="#5B3524" d="M-117.974,726.683l-1.054,3.66l-3.043,10.566l-9.624,5.32l3.043-10.566l3.358-11.66
				c0.517-1.795,1.987-3,3.659-3c0.402,0,0.802,0.071,1.189,0.213c0.978,0.358,1.773,1.124,2.24,2.156
				C-117.739,724.405-117.657,725.58-117.974,726.683z"/>
			<path fill="#5B3524" d="M-119.028,730.343l-3.043,10.566l-9.624,5.32l-5.878,3.249l-2.357,1.304
				c-1.543,0.853-3.315,0.733-4.502-0.276l-1.225-2.453c-0.132-1.665,0.805-3.435,2.447-4.343l2.158-1.193l12.401-6.855
				L-119.028,730.343z"/>
		</g>
		<path fill="#75462E" d="M-110.091,720.38v1.219c0,3.257-2.641,5.899-5.9,5.899h-5.899c-3.258,0-5.899-2.641-5.899-5.899v-1.219
			H-110.091z"/>
		<path fill="#75462E" d="M-95.742,755.038l-3.946,1.824c-1.377-0.203-2.709-1.049-3.51-2.357c-0.04-0.064-0.078-0.13-0.115-0.196
			l-15.152-27.41c-0.955-1.727-0.757-3.726,0.491-4.975c0.301-0.301,0.653-0.546,1.049-0.729c0.998-0.463,2.164-0.485,3.284-0.063
			c1.12,0.423,2.06,1.24,2.646,2.301l13.774,24.915l1.379,2.495C-95.068,752.244-95.053,753.825-95.742,755.038z"/>
		<g>
			<path fill="#3E8CC7" d="M-135.821,755.618c-0.25,0.5-0.63,0.908-1.088,1.19c-0.457,0.283-0.992,0.441-1.55,0.441h-0.779
				c-1.118,0-2.14-0.631-2.638-1.631l-2.556-5.112l-1.225-2.453l-1.302-2.603l5.899-2.949l0.009,0.016l3.48,6.96l1.752,3.503
				C-135.407,753.811-135.407,754.788-135.821,755.618z"/>
			<path fill="#3E8CC7" d="M-89.93,750.311c0,1.21-0.723,2.374-1.973,2.952l-3.84,1.774l-3.946,1.824l-1.788,0.826l-1.722-3.183
				l-1.469-2.716l7.445-3.441l2.128-0.983c1.764-0.814,3.906-0.155,4.787,1.475C-90.051,749.312-89.93,749.816-89.93,750.311z"/>
		</g>
	</g>
	<path fill="#E2E5E7" d="M-261.234,274.687c0,0-7.815-18.533,12.351-30.892c20.163-12.357,38.7-2.649,47.526,9.709
		c0,0-21.182,0.884-22.068,21.184c0,0,5.295-20.728,30.892-18.308c25.596,2.42,28.266,31.548,7.072,39.491
		c-21.193,7.945-35.755,3.089-35.755,3.089s-23.831,17.213-48.985-3.089c0,0-31.775,10.149-34.865-18.096
		c-3.088-28.243,29.127-31.773,47.663-33.538C-257.403,244.237-272.567,260.122-261.234,274.687z"/>
	<path fill="#C6CBCB" d="M-171.706,272.628c1.972,8.953-2.566,19.048-13.753,23.241c-21.193,7.945-35.755,3.089-35.755,3.089
		s-23.831,17.213-48.985-3.089c0,0-31.775,10.149-34.865-18.096c-0.637-5.82,0.226-10.59,2.161-14.513
		c0,0-7.651,29.451,31.758,23.094c0,0,25.426,24.403,48.307,6.922c0,0,22.211,7.308,40.044-2.225
		C-170.565,284.515-171.706,272.628-171.706,272.628z"/>
	<path fill="#E2E5E7" d="M-836.347,112.663c0,0-9.214-21.852,14.563-36.424c23.774-14.57,45.63-3.123,56.037,11.447
		c0,0-24.975,1.042-26.019,24.977c0,0,6.243-24.44,36.424-21.586c30.18,2.854,33.328,37.197,8.338,46.563
		c-24.988,9.368-42.159,3.643-42.159,3.643s-28.099,20.296-57.757-3.643c0,0-37.465,11.967-41.109-21.336
		c-3.641-33.301,34.343-37.463,56.199-39.544C-831.83,76.759-849.71,95.49-836.347,112.663z"/>
	<path fill="#C6CBCB" d="M-730.786,110.235c2.326,10.557-3.025,22.459-16.216,27.403c-24.988,9.368-42.159,3.643-42.159,3.643
		s-28.099,20.296-57.757-3.643c0,0-37.465,11.967-41.109-21.336c-0.751-6.862,0.266-12.486,2.549-17.112
		c0,0-9.022,34.725,37.445,27.23c0,0,29.98,28.773,56.958,8.162c0,0,26.189,8.617,47.215-2.624
		C-729.441,124.251-730.786,110.235-730.786,110.235z"/>
	<path fill="#E2E5E7" d="M1173.596,130.79c0,0-9.914-23.512,15.669-39.191c25.58-15.677,49.095-3.36,60.292,12.317
		c0,0-26.872,1.121-27.995,26.874c0,0,6.717-26.296,39.191-23.226c32.472,3.07,35.859,40.022,8.971,50.1
		c-26.885,10.079-45.36,3.919-45.36,3.919s-30.233,21.837-62.143-3.919c0,0-40.31,12.875-44.231-22.957
		c-3.917-35.83,36.952-40.308,60.467-42.547C1178.456,92.16,1159.219,112.313,1173.596,130.79z"/>
	<path fill="#C6CBCB" d="M1287.174,128.179c2.502,11.358-3.255,24.165-17.448,29.484c-26.886,10.079-45.36,3.919-45.36,3.919
		s-30.233,21.837-62.144-3.919c0,0-40.31,12.875-44.231-22.957c-0.808-7.383,0.286-13.434,2.742-18.411
		c0,0-9.707,37.363,40.289,29.297c0,0,32.256,30.958,61.283,8.781c0,0,28.178,9.271,50.8-2.823
		C1288.621,143.258,1287.174,128.179,1287.174,128.179z"/>
</g>
</svg>
