<?xml version="1.0" encoding="utf-8"?>
<!-- Generator: Adobe Illustrator 17.0.0, SVG Export Plug-In . SVG Version: 6.00 Build 0)  -->
<!DOCTYPE svg PUBLIC "-//W3C//DTD SVG 1.1//EN" "http://www.w3.org/Graphics/SVG/1.1/DTD/svg11.dtd">
<svg version="1.1" id="Capa_1" xmlns="http://www.w3.org/2000/svg" xmlns:xlink="http://www.w3.org/1999/xlink" x="0px" y="0px"
	 width="1000px" height="1000px" viewBox="0 0 1000 1000" enable-background="new 0 0 1000 1000" xml:space="preserve">
<g>
	<path d="M488.29,302.87c0,7.98-6.45,14.43-14.42,14.43h-187.5c-7.97,0-14.42-6.45-14.42-14.43c0-7.97,6.45-14.42,14.42-14.42h187.5
		C481.84,288.45,488.29,294.9,488.29,302.87z"/>
	<path d="M488.29,749.97c0,7.98-6.45,14.43-14.42,14.43h-187.5c-7.97,0-14.42-6.45-14.42-14.43c0-7.97,6.45-14.42,14.42-14.42h187.5
		C481.84,735.55,488.29,742,488.29,749.97z"/>
	<path d="M719.05,389.41c0,7.98-6.45,14.42-14.42,14.42H286.37c-7.97,0-14.42-6.44-14.42-14.42c0-7.98,6.45-14.42,14.42-14.42
		h418.26C712.6,374.99,719.05,381.43,719.05,389.41z"/>
	<path d="M719.05,562.48c0,7.98-6.45,14.42-14.42,14.42H286.37c-7.97,0-14.42-6.44-14.42-14.42c0-7.97,6.45-14.42,14.42-14.42
		h418.26C712.6,548.06,719.05,554.51,719.05,562.48z"/>
	<path d="M719.05,663.44c0,7.98-6.45,14.42-14.42,14.42H286.37c-7.97,0-14.42-6.44-14.42-14.42s6.45-14.42,14.42-14.42h418.26
		C712.6,649.02,719.05,655.46,719.05,663.44z"/>
	<path d="M502.71,475.95c0,7.97-6.45,14.42-14.42,14.42H286.37c-7.97,0-14.42-6.45-14.42-14.42c0-7.98,6.45-14.43,14.42-14.43
		h201.92C496.26,461.52,502.71,467.97,502.71,475.95z"/>
	<path d="M719.05,475.95c0,7.97-6.45,14.42-14.42,14.42H603.67c-7.98,0-14.42-6.45-14.42-14.42c0-7.98,6.44-14.43,14.42-14.43
		h100.96C712.6,461.52,719.05,467.97,719.05,475.95z"/>
	<path d="M560.4,475.95c0,3.89-1.59,7.5-4.18,10.24c-2.74,2.59-6.35,4.18-10.24,4.18c-3.91,0-7.52-1.46-10.24-4.18
		c-2.61-2.74-4.18-6.49-4.18-10.24c0-3.91,1.44-7.52,4.18-10.24c5.48-5.48,15-5.34,20.48,0C558.94,468.43,560.4,472.04,560.4,475.95
		z"/>
	<path d="M574.82,100.96V86.54c0-7.98-6.44-14.43-14.42-14.43H430.6c-7.98,0-14.42,6.45-14.42,14.43v14.42H142.15v836.51h706.7
		V100.96H574.82z M445.02,100.96h100.96v43.27H445.02V100.96z M344.06,129.8h72.12v43.27h158.64V129.8h72.12v57.69H344.06V129.8z
		 M675.78,216.34v-43.27h100.96v692.29H214.26V173.07h100.96v43.27H675.78z M820.01,908.62H170.99V129.8h144.23v14.43H185.41V894.2
		h620.18V144.23H675.78V129.8h144.23V908.62z"/>
</g>
</svg>
