<?xml version="1.0" encoding="utf-8"?>
<!-- Generator: Adobe Illustrator 17.0.0, SVG Export Plug-In . SVG Version: 6.00 Build 0)  -->
<!DOCTYPE svg PUBLIC "-//W3C//DTD SVG 1.1//EN" "http://www.w3.org/Graphics/SVG/1.1/DTD/svg11.dtd">
<svg version="1.1" id="Layer_1" xmlns="http://www.w3.org/2000/svg" xmlns:xlink="http://www.w3.org/1999/xlink" x="0px" y="0px"
	 width="1000px" height="1000px" viewBox="0 0 1000 1000" enable-background="new 0 0 1000 1000" xml:space="preserve">
<path fill="#C0AB91" d="M164.367,252.387c-53.868,0-97.692-43.824-97.692-97.692s43.824-97.692,97.692-97.692
	s97.692,43.824,97.692,97.692S218.235,252.387,164.367,252.387z"/>
<path fill="#B39A7C" d="M130.23,154.695c0-42.744,27.606-79.137,65.916-92.357c-9.971-3.441-20.655-5.335-31.779-5.335
	c-53.868,0-97.692,43.824-97.692,97.692s43.824,97.692,97.692,97.692c11.124,0,21.808-1.894,31.775-5.335
	C157.836,233.833,130.23,197.439,130.23,154.695z"/>
<path fill="#C0AB91" d="M213.314,343.43l-22.8-22.8l-20.901,20.899l-6.617,6.617l0.403,173.137H96.66
	c-27.201-0.004-49.329,22.126-49.329,49.327c0,27.201,22.128,49.328,49.329,49.328h93.552c39.616,0,71.847-32.23,71.847-71.847
	V444.467L289,417.526V343.43L213.314,343.43L213.314,343.43z"/>
<g>
	<path fill="#B39A7C" d="M220.834,498.577l-0.348-150.433l4.714-4.714h-11.89l-22.8-22.8l-20.899,20.899l-6.617,6.617l0.403,173.137
		h34.785C210.716,521.279,220.866,511.106,220.834,498.577z"/>
	<path fill="#B39A7C" d="M104.82,570.609c0-27.201,22.128-49.328,49.328-49.328H96.66c-27.201-0.002-49.329,22.128-49.329,49.328
		c0,27.201,22.128,49.328,49.329,49.328h57.489C126.948,619.938,104.82,597.81,104.82,570.609z"/>
</g>
<path fill="#C0AB91" d="M774.1,797.612c-17.907,0-35.073-6.64-48.333-18.692L512.574,580.281l77.38-77.38l193.599,192.232
	l59.563-35.738c7.515-4.509,16.094-6.893,24.808-6.893c15.06,0,29.462,7.214,38.53,19.299c8.355,11.143,11.483,25.344,8.579,38.963
	s-11.55,25.309-23.723,32.072l-82.315,45.728C798.333,794.482,786.269,797.612,774.1,797.612z"/>
<path fill="#B39A7C" d="M782.837,778.92L569.642,580.281l48.947-48.947l-28.635-28.433l-77.38,77.38L725.768,778.92
	c13.258,12.054,30.426,18.692,48.333,18.692c9.791,0,19.5-2.058,28.477-5.934C795.41,788.567,788.735,784.281,782.837,778.92z"/>
<path fill="#ECE5DD" d="M309.453,929.455c-27.201,0-49.328-22.128-49.328-49.328v-96.381c0-19.191,7.473-37.234,21.044-50.803
	l133.314-133.314L163.001,348.144l127.073-127.073c30.951-30.951,72.105-48.001,115.881-48.001h229.19
	c39.616,0.002,71.847,32.233,71.847,71.849v74.206c0,27.201-22.128,49.328-49.328,49.328c-27.201,0-49.329-22.128-49.329-49.328
	v-47.394H437.534l174.728,174.73c14.938,14.938,22.976,34.795,22.637,55.919c-0.341,21.123-9.014,40.712-24.426,55.16
	L358.783,793.494v86.631C358.783,907.326,336.654,929.455,309.453,929.455z"/>
<g>
	<path fill="#D9CBBD" d="M666.566,319.125v-24.062c0-12.885-10.447-23.332-23.332-23.332h-34.903v46.284
		c0,26.465,20.39,49.058,46.823,50.377c11.844,0.591,22.835-3.029,31.625-9.481C674.536,349.926,666.566,335.441,666.566,319.125z"
		/>
	<path fill="#D9CBBD" d="M318.36,880.125v-96.381c0-19.055,7.57-37.329,21.044-50.803l111.432-111.433
		c12.086-12.086,12.086-31.681,0-43.766L245.694,372.6c-13.509-13.509-13.509-35.409,0-48.917l102.614-102.613
		c30.951-30.951,72.105-48.001,115.881-48.001h-58.235c-43.463,0-85.146,17.265-115.881,47.999L162.997,348.144l251.482,251.482
		L281.165,732.94c-13.472,13.474-21.042,31.749-21.042,50.803v95.271c0,26.465,20.39,49.058,46.823,50.377
		c11.844,0.591,22.835-3.029,31.625-9.481C326.327,910.926,318.36,896.44,318.36,880.125z"/>
</g>
<path fill="#C0AB91" d="M454.54,942.996H222.403c-8.012,0-14.508-6.497-14.508-14.508c0-8.012,6.497-14.508,14.508-14.508H454.54
	c8.012,0,14.508,6.497,14.508,14.508S462.552,942.996,454.54,942.996z"/>
<g>
	<path fill="#ECE5DD" d="M570.609,942.996H531.92c-8.012,0-14.508-6.497-14.508-14.508c0-8.012,6.497-14.508,14.508-14.508h38.689
		c8.012,0,14.508,6.497,14.508,14.508S578.621,942.996,570.609,942.996z"/>
	<path fill="#ECE5DD" d="M686.678,942.996h-38.689c-8.012,0-14.508-6.497-14.508-14.508c0-8.012,6.497-14.508,14.508-14.508h38.689
		c8.012,0,14.508,6.497,14.508,14.508C701.186,936.5,694.69,942.996,686.678,942.996z"/>
	<path fill="#ECE5DD" d="M822.091,111.17h-38.689c-8.012,0-14.508-6.496-14.508-14.508s6.497-14.508,14.508-14.508h38.689
		c8.012,0,14.508,6.497,14.508,14.508S830.103,111.17,822.091,111.17z"/>
</g>
<path fill="#C0AB91" d="M725.367,111.17H609.298c-8.012,0-14.508-6.496-14.508-14.508s6.497-14.508,14.508-14.508h116.069
	c8.012,0,14.508,6.497,14.508,14.508S733.379,111.17,725.367,111.17z"/>
<path fill="#ECE5DD" d="M938.16,111.17h-38.689c-8.012,0-14.508-6.496-14.508-14.508s6.497-14.508,14.508-14.508h38.689
	c8.012,0,14.508,6.497,14.508,14.508S946.172,111.17,938.16,111.17z"/>
</svg>
