<?xml version="1.0" encoding="utf-8"?>
<!-- Generator: Adobe Illustrator 17.0.0, SVG Export Plug-In . SVG Version: 6.00 Build 0)  -->
<!DOCTYPE svg PUBLIC "-//W3C//DTD SVG 1.1//EN" "http://www.w3.org/Graphics/SVG/1.1/DTD/svg11.dtd">
<svg version="1.1" id="Capa_1" xmlns="http://www.w3.org/2000/svg" xmlns:xlink="http://www.w3.org/1999/xlink" x="0px" y="0px"
	 width="1000px" height="1000px" viewBox="0 0 1000 1000" enable-background="new 0 0 1000 1000" xml:space="preserve">
<path fill="none" stroke="#FFFFFF" stroke-width="70" stroke-miterlimit="10" d="M953.914,447.187
	c18.529-18.058,25.07-44.561,17.078-69.198c-8.011-24.637-28.878-42.224-54.514-45.956l-227.933-33.119
	c-9.708-1.414-18.096-7.502-22.431-16.305L564.212,76.089c-11.442-23.204-34.665-37.624-60.546-37.624
	c-25.862,0-49.085,14.42-60.527,37.624L341.218,282.628c-4.335,8.803-12.743,14.891-22.45,16.305L90.835,332.052
	c-25.617,3.713-46.503,21.319-54.514,45.956c-7.992,24.637-1.451,51.14,17.078,69.198l164.917,160.752
	c7.031,6.861,10.254,16.739,8.596,26.39l-38.906,226.99c-3.45,19.981,1.791,39.415,14.722,54.74
	c20.094,23.883,55.174,31.159,83.222,16.418l203.843-107.18c8.52-4.467,19.246-4.43,27.747,0l203.861,107.18
	c9.915,5.221,20.49,7.86,31.404,7.86c19.924,0,38.812-8.859,51.799-24.279c12.95-15.325,18.171-34.797,14.722-54.74l-38.925-226.99
	c-1.659-9.67,1.565-19.528,8.596-26.39L953.914,447.187z"/>
</svg>
