<?xml version="1.0" encoding="utf-8"?>
<!-- Generator: Adobe Illustrator 17.0.0, SVG Export Plug-In . SVG Version: 6.00 Build 0)  -->
<!DOCTYPE svg PUBLIC "-//W3C//DTD SVG 1.1//EN" "http://www.w3.org/Graphics/SVG/1.1/DTD/svg11.dtd">
<svg version="1.1" id="Capa_1" xmlns="http://www.w3.org/2000/svg" xmlns:xlink="http://www.w3.org/1999/xlink" x="0px" y="0px"
	 width="1000px" height="1000px" viewBox="0 0 1000 1000" enable-background="new 0 0 1000 1000" xml:space="preserve">
<polygon fill="#57565C" points="922.162,462.482 913.617,445.588 880.879,413.023 526.627,60.719 505.977,40.164 491.529,47.346 
	669.434,958.875 692.055,943.543 912.449,794.232 1000,616.582 "/>
<polygon fill="#A8A7AD" points="466.385,59.844 193.689,195.334 171.014,206.604 150.596,236.131 31.416,408.449 0,453.859 
	0,768.092 253.854,916.799 289.084,937.432 346.504,940.818 615.734,956.74 668.016,959.836 669.434,958.875 491.529,47.346 "/>
<path fill="#DCDCDE" d="M922.162,462.482l-8.545-16.895l-32.738-32.564l-17.518,37.293l-190.945,388.1L528.943,70.275l-2.316-9.557
	l-20.652-20.555l-39.59,19.678l5.295,21.896l66.49,356.041l-330.389-232.09l-14.092-10.355l-22.676,11.27l-20.418,29.527
	l22.871,16.797l339.926,238.789L144.756,598.148L54.344,448.117l-22.93-39.668L0,453.859v16.953l3.912,6.773l258.369,428.723
	l9.781,21.154l17.021,9.967l22.324,1.318l20.264-27.594l232.482-334.301l65.303,349.6l5.506,31.426l33.053,1.957l17.404-11.795
	l4.9-13.762l225.553-458.424L922.162,462.482z M299.557,855.039L175.938,649.924L509.09,553.73L299.557,855.039z"/>
<polygon fill="#C2C1C7" points="1.713,451.385 0,453.859 0,470.813 1.713,473.779 "/>
</svg>
