<?xml version="1.0" encoding="utf-8"?>
<!-- Generator: Adobe Illustrator 17.0.0, SVG Export Plug-In . SVG Version: 6.00 Build 0)  -->
<!DOCTYPE svg PUBLIC "-//W3C//DTD SVG 1.1//EN" "http://www.w3.org/Graphics/SVG/1.1/DTD/svg11.dtd">
<svg version="1.1" id="Capa_1" xmlns="http://www.w3.org/2000/svg" xmlns:xlink="http://www.w3.org/1999/xlink" x="0px" y="0px"
	 width="1000px" height="1000px" viewBox="0 0 1000 1000" enable-background="new 0 0 1000 1000" xml:space="preserve">
<g>
	<path fill="#CF4737" d="M136.214,342.436h37.782l0,0v137.388l0,0h-37.782c-17.071,0-30.912-13.843-30.912-30.912v-75.563
		C105.301,356.279,119.143,342.436,136.214,342.436z"/>
	<path fill="#FEC9A3" d="M770.12,313.983c-14.083-18.77-40.735-22.582-59.505-8.501c-1.615,1.203-3.125,2.525-4.55,3.949
		l-85.558,85.558L534.64,291.947v137.388l7.505,11.249c27.719,41.542,83.859,52.773,125.418,25.057
		c4.963-3.314,9.583-7.093,13.79-11.318l84.82-84.82C781.112,354.546,782.795,330.899,770.12,313.983z"/>
	<g id="surface1">
		<path fill="#E0E0E2" d="M504.146,293.508l-2.607,7.821l79.659-79.659l-21.616-21.616
			C534.645,226.891,515.744,258.759,504.146,293.508z"/>
		<path fill="#E0E0E2" d="M711.55,91.318l-7.821,2.607c-34.75,11.597-66.617,30.499-93.455,55.436l21.616,21.616L711.55,91.318z"/>
		<path fill="#808285" d="M577.579,167.358l-25.346,25.346l36.208,36.208l25.346-25.346L577.579,167.358z"/>
		<path fill="#939598" d="M613.787,203.566l25.346-25.346l-36.208-36.208l-25.346,25.346L613.787,203.566z"/>
		<path fill="#6D6E71" d="M613.787,203.566l10.862-10.862l120.447,120.447l-10.862,10.862L613.787,203.566z"/>
		<path fill="#58595B" d="M735.914,325.693L613.787,203.566l-10.863,10.863l122.127,122.127L735.914,325.693z"/>
		<path fill="#6D6E71" d="M776.727,366.505l3.621-3.621c3.999-3.999,3.999-10.482-0.002-14.483l-36.208-36.208l-10.862,10.862
			L776.727,366.505z"/>
		<path fill="#58595B" d="M729.656,326.677l-7.241,7.241l36.208,36.208c4.001,4.001,10.484,4.001,14.483,0.002l3.621-3.621
			l-43.45-43.45L729.656,326.677z"/>
		<path fill="#58595B" d="M566.716,156.495l-3.621,3.621c-3.999,3.999-4.001,10.484,0,14.484l3.621,3.621l10.863-10.863
			L566.716,156.495z"/>
		<path fill="#6D6E71" d="M588.441,156.496l-3.621-3.621c-4.001-4.001-10.484-4.001-14.483-0.002l-3.621,3.621l10.863,10.863
			L588.441,156.496z"/>
	</g>
	<path fill="#3E8CC7" d="M465.944,206.082H397.25c-37.937,0-68.694,30.757-68.694,68.694V583.9h206.082V274.776
		C534.638,236.84,503.881,206.082,465.944,206.082z"/>
	<path fill="#FEC9A3" d="M517.465,34.347L382.241,51.52c-1.443,5.615-2.164,11.386-2.164,17.173v68.694
		c0,37.937,30.757,68.694,68.694,68.694s68.694-30.757,68.694-68.694V68.694C518.169,57.256,518.169,45.784,517.465,34.347z"/>
	<g>
		<path fill="#75462E" d="M380.077,51.52v68.694l68.694-68.694h51.52c28.457,0,51.52-23.065,51.52-51.52H431.597
			C403.142,0,380.077,23.065,380.077,51.52L380.077,51.52"/>
	</g>
	<g>
		<path fill="#75462E" d="M387.823,188.908H259.863v31.49h127.959c24.832,0.016,44.944,18.485,44.926,41.252
			c0,6.219-1.545,12.36-4.5,17.95L320.314,483.341l-43.278,4.723v31.49l48.944-6.471c11.282-1.495,21.002-8.014,25.984-17.415
			l107.111-202.292c19.131-36.119,2.697-79.623-36.7-97.163C411.608,191.411,399.793,188.924,387.823,188.908z"/>
		<path fill="#75462E" d="M173.995,497.204c0,28.457,23.065,51.52,51.52,51.52h51.52c28.457,0,51.52-23.065,51.52-51.52v-17.173
			H173.995C173.995,480.031,173.995,497.204,173.995,497.204z"/>
	</g>
	<path fill="#DE4C3C" d="M325.638,222.222c-7.281-20.59-26.756-34.365-48.602-34.347h-51.52c-28.457,0-51.52,23.065-51.52,51.52
		v240.429h154.561V239.395L325.638,222.222z"/>
	<path fill="#FEC9A3" d="M445.336,284.616l-99.606,60.726l116.78,83.996c19.715,13.189,25.004,39.843,11.816,59.558
		c-0.412,0.619-0.842,1.219-1.289,1.82l0,0c-13.671,18.186-39.138,22.549-58.082,9.96L271.197,398.752
		c-17.827-11.919-28.525-31.961-28.508-53.41l0,0c0-21.45,10.716-41.491,28.576-53.393l126.586-78.672
		c18.942-12.589,44.411-8.226,58.082,9.96l0,0c14.169,19.01,10.253,45.905-8.759,60.089
		C446.572,283.774,445.955,284.203,445.336,284.616z"/>
	<g>
		<path fill="#5B3524" d="M442.84,640.12l-12.27,42.62l-35.44,123.04l-112.07,61.95l35.44-123.04l39.1-135.78
			c6.02-20.9,23.14-34.94,42.61-34.94c4.68,0,9.34,0.83,13.85,2.48c11.39,4.17,20.65,13.09,26.08,25.11
			C445.58,613.59,446.53,627.28,442.84,640.12z"/>
		<path fill="#5B3524" d="M430.57,682.74l-35.44,123.04l-112.07,61.95l-68.45,37.84l-27.45,15.18c-17.97,9.93-38.6,8.54-52.43-3.21
			l-14.27-28.56c-1.54-19.39,9.38-40,28.5-50.57l25.13-13.89l144.41-79.83L430.57,682.74z"/>
	</g>
	<path fill="#75462E" d="M534.64,566.72v14.19c0,37.93-30.76,68.69-68.7,68.69h-68.69c-37.94,0-68.69-30.76-68.69-68.69v-14.19
		H534.64z"/>
	<path fill="#75462E" d="M701.73,970.31l-45.95,21.24c-16.04-2.36-31.55-12.22-40.87-27.45c-0.47-0.75-0.91-1.51-1.34-2.28
		L437.12,642.63c-11.12-20.11-8.82-43.39,5.72-57.93c3.5-3.5,7.61-6.36,12.21-8.49c11.62-5.39,25.2-5.65,38.24-0.73
		c13.04,4.92,23.99,14.44,30.81,26.79L684.5,892.4l16.06,29.06C709.58,937.78,709.76,956.19,701.73,970.31z"/>
	<g>
		<path fill="#3E8CC7" d="M235.01,977.07c-2.91,5.82-7.34,10.57-12.67,13.86c-5.32,3.29-11.55,5.13-18.05,5.13h-9.07
			c-13.02,0-24.92-7.35-30.72-18.99l-29.77-59.53l-14.27-28.56l-15.16-30.31l68.69-34.34l0.1,0.19l40.52,81.05l20.4,40.79
			C239.84,956.03,239.84,967.4,235.01,977.07z"/>
		<path fill="#3E8CC7" d="M769.42,915.27c0,14.09-8.42,27.65-22.97,34.38l-44.72,20.66l-45.95,21.24l-20.82,9.62l-20.05-37.07
			l-17.11-31.63l86.7-40.07l24.78-11.45c20.54-9.48,45.49-1.8,55.75,17.18C768.01,903.64,769.42,909.5,769.42,915.27z"/>
	</g>
</g>
</svg>
