<?xml version="1.0" encoding="utf-8"?>
<!-- Generator: Adobe Illustrator 17.0.0, SVG Export Plug-In . SVG Version: 6.00 Build 0)  -->
<!DOCTYPE svg PUBLIC "-//W3C//DTD SVG 1.1//EN" "http://www.w3.org/Graphics/SVG/1.1/DTD/svg11.dtd">
<svg version="1.1" id="Layer_1" xmlns="http://www.w3.org/2000/svg" xmlns:xlink="http://www.w3.org/1999/xlink" x="0px" y="0px"
	 width="1000px" height="1000px" viewBox="0 0 1000 1000" enable-background="new 0 0 1000 1000" xml:space="preserve">
<g>
	<path fill="#BBC7ED" d="M951.204,888.177H151.387H48.796c0,0,101.802-365.531,105.439-371.412
		c8.513-13.764,14.249-51.295,91.191-90.241s77.892-58.894,107.339-108.289s62.694-121.588,62.694-121.588
		s19.948-57.944,105.439-18.998s108.289,133.936,113.038,157.684c4.75,23.748,67.443,66.493,71.243,73.143
		s55.094,56.994,66.493,127.287c11.399,70.293,54.144,38.946,82.642,151.035l4.75,98.79c0,0,0,37.996,33.247,46.545
		C925.557,840.682,947.404,878.678,951.204,888.177z"/>
	<path fill="#8B9DC6" d="M496.2,893.401c0,0,5.699-122.537,14.249-145.335c8.549-22.798,38.471-42.746,61.269-79.792
		s45.595-175.257,56.994-182.381c11.399-7.124,55.569,9.974,76.942,82.642s52.72,106.805,68.393,120.371
		s14.249,74.834,15.673,99.057c1.425,24.222,21.373,105.439,21.373,105.439H496.2z"/>
	<path fill="#526386" d="M494.776,884.852c0,0,15.673-135.361,22.798-139.636c7.124-4.275,88.341-19.948,89.766,96.89
		c1.425,116.838,0,42.746,0,42.746H494.776z"/>
	<path fill="#8B9DC6" d="M338.042,887.702c0,0,24.223-132.511,37.046-139.636s48.445-39.896,61.269-98.315
		c12.824-58.419,21.373-54.144,21.373-54.144s9.974-24.223,9.974,55.569s-11.399,34.196-39.896,109.714
		c0,0-18.523,28.497-18.523,75.517s-1.425,51.295-1.425,51.295H338.042z"/>
	<path fill="#EBF1FF" d="M484.802,166.725c0,0,8.761,47.363,41.321,65.543c16.19,9.04,9.307-2.85,36.379,51.295
		c0,0,41.424,108.634,61.936,126.812c23.422,20.757,39.896,61.269,109.714,47.02c0,0-47.02-54.144-66.968-75.517
		c-19.948-21.373-76.942-156.734-76.942-156.734S534.671,169.575,484.802,166.725z"/>
	<path fill="#8B9DC6" d="M51.646,882.002c0,0,86.916-343.39,115.413-388.985s106.864-81.217,131.087-91.191
		c24.223-9.974-37.046,85.491-51.295,105.439c-14.249,19.948-56.994,35.621-56.994,35.621s-14.249-2.153-35.621,98.663
		c0,0-32.772,87.993-19.948,135.013c0,0,5.699,24.223,76.942,41.321c0,0,11.399,38.471,58.419-203.754
		c0,0,5.51-19.948,34.102-37.046c0,0,17.193-12.824,42.84-79.792c25.647-66.968,29.922-8.549,18.523,12.824
		c0,0-42.746,135.361-49.87,161.009s-4.275,81.217-4.275,81.217s-11.399,95.465-27.072,129.662H51.646z"/>
	<path fill="none" stroke="#000000" stroke-width="10" stroke-miterlimit="10" d="M951.204,888.177H151.387H48.796
		c0,0,101.802-365.531,105.439-371.412c8.513-13.764,14.249-51.295,91.191-90.241s77.892-58.894,107.339-108.289
		s62.694-121.588,62.694-121.588s19.948-57.944,105.439-18.998s108.289,133.936,113.038,157.684
		c4.75,23.748,67.443,66.493,71.243,73.143s55.094,56.994,66.493,127.287c11.399,70.293,54.144,38.946,82.642,151.035l4.75,98.79
		c0,0,0,37.996,33.247,46.545C925.557,840.682,947.404,878.678,951.204,888.177z"/>
	<path fill="none" stroke="#000000" stroke-width="10" stroke-miterlimit="10" d="M376.513,465.47
		c0,0-47.495,177.632-64.593,215.628c0,0-6.649,27.547,0,80.742c0,0-4.75,90.241-28.497,126.337"/>
	<path fill="none" stroke="#000000" stroke-width="10" stroke-miterlimit="10" d="M145.686,888.177
		c6.649-8.549,64.593-234.626,64.593-234.626s0.39-46.008,9.334-99.74c5.534-33.247,38.161-57.944,47.66-84.541
		c0,0,26.866-49.635,26.257-71.363"/>
	<path fill="none" stroke="#000000" stroke-width="10" stroke-miterlimit="10" d="M614.106,531.368
		c0,0,16.981,126.043,32.179,153.56c15.198,27.517,47.495,51.265,56.994,65.513s22.798,56.044,19.948,92.141
		s0.392,45.595,0.392,45.595"/>
	<path fill="none" stroke="#000000" stroke-width="10" stroke-miterlimit="10" d="M500,888.177c0,0,3.8-149.135,19.948-163.383
		c0,0,37.996-32.297,46.545-42.746c8.549-10.449,28.497-72.193,31.347-94.04c2.85-21.848,32.297-102.59,32.297-102.59
		s23.748-23.748,63.643,48.445c0,0,17.098,62.694,42.746,104.489s40.846,38.946,47.495,122.537
		c6.649,83.591,22.798,87.391,35.146,127.287"/>
	<path fill="none" stroke="#000000" stroke-width="10" stroke-miterlimit="10" d="M614.106,888.177l-4.867-64.593
		c-7.599-94.04-98.341-72.281-98.341-72.281"/>
</g>
</svg>
