<?xml version="1.0" encoding="utf-8"?>
<!-- Generator: Adobe Illustrator 17.0.0, SVG Export Plug-In . SVG Version: 6.00 Build 0)  -->
<!DOCTYPE svg PUBLIC "-//W3C//DTD SVG 1.1//EN" "http://www.w3.org/Graphics/SVG/1.1/DTD/svg11.dtd">
<svg version="1.1" id="Layer_1" xmlns="http://www.w3.org/2000/svg" xmlns:xlink="http://www.w3.org/1999/xlink" x="0px" y="0px"
	 width="488px" height="488px" viewBox="0 0 488 488" enable-background="new 0 0 488 488" xml:space="preserve">
<g>
	<g>
		
			<linearGradient id="SVGID_1_" gradientUnits="userSpaceOnUse" x1="-37.103" y1="476.6079" x2="-93.9043" y2="483.1096" gradientTransform="matrix(1.9607 0 0 1.9607 448.185 -627.3228)">
			<stop  offset="0" style="stop-color:#816965"/>
			<stop  offset="1" style="stop-color:#654E48"/>
		</linearGradient>
		<path fill="url(#SVGID_1_)" d="M376.733,307.4v9.719c0,0.14-0.003,0.279-0.008,0.414c-0.099,2.778-1.179,4.968-2.498,4.968
			h-86.296c-1.384,0-2.506-2.409-2.506-5.382V307.4c0-2.973,1.121-5.382,2.506-5.382h86.296c1.319,0,2.399,2.191,2.498,4.968
			C376.73,307.121,376.733,307.261,376.733,307.4z"/>
		
			<linearGradient id="SVGID_2_" gradientUnits="userSpaceOnUse" x1="-37.1029" y1="455.713" x2="-93.9044" y2="462.2159" gradientTransform="matrix(1.9607 0 0 1.9607 448.185 -627.3228)">
			<stop  offset="0" style="stop-color:#816965"/>
			<stop  offset="1" style="stop-color:#654E48"/>
		</linearGradient>
		<path fill="url(#SVGID_2_)" d="M376.733,266.429v9.724c0,0.14-0.003,0.279-0.008,0.414c-0.099,2.777-1.179,4.968-2.498,4.968
			h-86.296c-1.384,0-2.506-2.414-2.506-5.382v-9.724c0-2.968,1.121-5.382,2.506-5.382h86.296c1.319,0,2.399,2.191,2.498,4.968
			C376.73,266.15,376.733,266.289,376.733,266.429z"/>
		
			<linearGradient id="SVGID_3_" gradientUnits="userSpaceOnUse" x1="-37.103" y1="497.5021" x2="-93.9043" y2="504.0037" gradientTransform="matrix(1.9607 0 0 1.9607 448.185 -627.3228)">
			<stop  offset="0" style="stop-color:#816965"/>
			<stop  offset="1" style="stop-color:#654E48"/>
		</linearGradient>
		<path fill="url(#SVGID_3_)" d="M376.733,348.368v9.719c0,0.14-0.003,0.279-0.008,0.414c-0.099,2.778-1.179,4.968-2.498,4.968
			h-86.296c-1.384,0-2.506-2.409-2.506-5.382v-9.719c0-2.973,1.121-5.382,2.506-5.382h86.296c1.319,0,2.399,2.191,2.498,4.968
			C376.73,348.089,376.733,348.229,376.733,348.368z"/>
	</g>
	<g>
		
			<linearGradient id="SVGID_4_" gradientUnits="userSpaceOnUse" x1="-129.7892" y1="495.9803" x2="-129.7892" y2="509.8383" gradientTransform="matrix(1.9607 0 0 1.9607 448.185 -627.3228)">
			<stop  offset="0" style="stop-color:#654E48"/>
			<stop  offset="1" style="stop-color:#503837"/>
		</linearGradient>
		<path fill="url(#SVGID_4_)" d="M297.08,352.083v2.28c0,3.683-2.185,6.852-5.331,8.288c-1.146,0.526-2.426,0.816-3.772,0.816
			H99.423c-5.024,0-9.099-4.074-9.099-9.104v-2.28c0-5.024,4.074-9.099,9.099-9.099h188.553c1.347,0,2.626,0.291,3.772,0.816
			C294.894,345.237,297.08,348.407,297.08,352.083z"/>
		
			<linearGradient id="SVGID_5_" gradientUnits="userSpaceOnUse" x1="-81.5704" y1="484.1253" x2="-202.6408" y2="497.9833" gradientTransform="matrix(1.9607 0 0 1.9607 448.185 -627.3228)">
			<stop  offset="0" style="stop-color:#816965"/>
			<stop  offset="1" style="stop-color:#654E48"/>
		</linearGradient>
		<path fill="url(#SVGID_5_)" d="M291.764,327.885v9.719c0,0.14-0.006,0.279-0.017,0.414c-0.213,2.778-2.532,4.968-5.365,4.968
			H101.021c-2.973,0-5.382-2.409-5.382-5.382v-9.719c0-2.973,2.409-5.382,5.382-5.382h185.361c2.834,0,5.153,2.191,5.365,4.968
			C291.759,327.605,291.764,327.745,291.764,327.885z"/>
		
			<linearGradient id="SVGID_6_" gradientUnits="userSpaceOnUse" x1="-129.7892" y1="475.0879" x2="-129.7892" y2="488.9459" gradientTransform="matrix(1.9607 0 0 1.9607 448.185 -627.3228)">
			<stop  offset="0" style="stop-color:#654E48"/>
			<stop  offset="1" style="stop-color:#503837"/>
		</linearGradient>
		<path fill="url(#SVGID_6_)" d="M297.08,311.118v2.28c0,3.683-2.185,6.852-5.331,8.288c-1.146,0.526-2.426,0.816-3.772,0.816
			H99.423c-5.024,0-9.099-4.074-9.099-9.104v-2.28c0-5.024,4.074-9.099,9.099-9.099h188.553c1.347,0,2.626,0.291,3.772,0.816
			C294.894,304.272,297.08,307.441,297.08,311.118z"/>
		
			<linearGradient id="SVGID_7_" gradientUnits="userSpaceOnUse" x1="-81.5704" y1="463.2298" x2="-202.6408" y2="477.0906" gradientTransform="matrix(1.9607 0 0 1.9607 448.185 -627.3228)">
			<stop  offset="0" style="stop-color:#816965"/>
			<stop  offset="1" style="stop-color:#654E48"/>
		</linearGradient>
		<path fill="url(#SVGID_7_)" d="M291.764,286.913v9.724c0,0.14-0.006,0.279-0.017,0.414c-0.213,2.777-2.532,4.968-5.365,4.968
			H101.021c-2.973,0-5.382-2.414-5.382-5.382v-9.724c0-2.968,2.409-5.382,5.382-5.382h185.361c2.834,0,5.153,2.191,5.365,4.968
			C291.759,286.634,291.764,286.774,291.764,286.913z"/>
		
			<linearGradient id="SVGID_8_" gradientUnits="userSpaceOnUse" x1="-129.7892" y1="454.1927" x2="-129.7892" y2="468.0506" gradientTransform="matrix(1.9607 0 0 1.9607 448.185 -627.3228)">
			<stop  offset="0" style="stop-color:#654E48"/>
			<stop  offset="1" style="stop-color:#503837"/>
		</linearGradient>
		<path fill="url(#SVGID_8_)" d="M297.08,270.153v2.28c0,3.678-2.185,6.846-5.331,8.282c-1.146,0.526-2.426,0.816-3.772,0.816
			H99.423c-5.024,0-9.099-4.074-9.099-9.099v-2.28c0-5.03,4.074-9.104,9.099-9.104h188.553c1.347,0,2.626,0.291,3.772,0.816
			C294.894,263.301,297.08,266.47,297.08,270.153z"/>
		
			<linearGradient id="SVGID_9_" gradientUnits="userSpaceOnUse" x1="-81.5705" y1="442.3368" x2="-202.6409" y2="456.1947" gradientTransform="matrix(1.9607 0 0 1.9607 448.185 -627.3228)">
			<stop  offset="0" style="stop-color:#816965"/>
			<stop  offset="1" style="stop-color:#654E48"/>
		</linearGradient>
		<path fill="url(#SVGID_9_)" d="M291.764,245.948v9.719c0,0.14-0.006,0.279-0.017,0.414c-0.213,2.778-2.532,4.968-5.365,4.968
			H101.021c-2.973,0-5.382-2.409-5.382-5.382v-9.719c0-2.973,2.409-5.382,5.382-5.382h185.361c2.834,0,5.153,2.191,5.365,4.968
			C291.759,245.669,291.764,245.808,291.764,245.948z"/>
		
			<linearGradient id="SVGID_10_" gradientUnits="userSpaceOnUse" x1="-129.7892" y1="433.3003" x2="-129.7892" y2="447.1582" gradientTransform="matrix(1.9607 0 0 1.9607 448.185 -627.3228)">
			<stop  offset="0" style="stop-color:#654E48"/>
			<stop  offset="1" style="stop-color:#503837"/>
		</linearGradient>
		<path fill="url(#SVGID_10_)" d="M297.08,229.187v2.28c0,3.678-2.185,6.846-5.331,8.282c-1.146,0.526-2.426,0.816-3.772,0.816
			H99.423c-5.024,0-9.099-4.074-9.099-9.099v-2.28c0-3.672,2.174-6.841,5.304-8.277c1.157-0.531,2.442-0.827,3.795-0.827h188.553
			c1.347,0,2.626,0.291,3.772,0.816C294.894,222.335,297.08,225.504,297.08,229.187z"/>
	</g>
	<g>
		
			<linearGradient id="SVGID_11_" gradientUnits="userSpaceOnUse" x1="-59.7252" y1="485.5331" x2="-59.7252" y2="499.3911" gradientTransform="matrix(1.9607 0 0 1.9607 448.185 -627.3228)">
			<stop  offset="0" style="stop-color:#654E48"/>
			<stop  offset="1" style="stop-color:#503837"/>
		</linearGradient>
		<path fill="url(#SVGID_11_)" d="M379.207,331.599v2.28c0,3.683-1.017,6.852-2.482,8.288c-0.533,0.526-1.129,0.816-1.756,0.816
			h-87.782c-2.339,0-4.236-4.074-4.236-9.104v-2.28c0-5.024,1.897-9.099,4.236-9.099h87.781c0.627,0,1.223,0.291,1.756,0.816
			C378.19,324.753,379.207,327.922,379.207,331.599z"/>
		
			<linearGradient id="SVGID_12_" gradientUnits="userSpaceOnUse" x1="-59.7252" y1="464.6407" x2="-59.7252" y2="478.4987" gradientTransform="matrix(1.9607 0 0 1.9607 448.185 -627.3228)">
			<stop  offset="0" style="stop-color:#654E48"/>
			<stop  offset="1" style="stop-color:#503837"/>
		</linearGradient>
		<path fill="url(#SVGID_12_)" d="M379.207,290.634v2.28c0,3.683-1.017,6.852-2.482,8.288c-0.533,0.526-1.129,0.816-1.756,0.816
			h-87.782c-2.339,0-4.236-4.074-4.236-9.104v-2.28c0-5.024,1.897-9.099,4.236-9.099h87.781c0.627,0,1.223,0.291,1.756,0.816
			C378.19,283.788,379.207,286.956,379.207,290.634z"/>
		
			<linearGradient id="SVGID_13_" gradientUnits="userSpaceOnUse" x1="-59.7252" y1="443.7462" x2="-59.7252" y2="457.6041" gradientTransform="matrix(1.9607 0 0 1.9607 448.185 -627.3228)">
			<stop  offset="0" style="stop-color:#654E48"/>
			<stop  offset="1" style="stop-color:#503837"/>
		</linearGradient>
		<path fill="url(#SVGID_13_)" d="M379.207,249.67v2.28c0,3.677-1.017,6.846-2.482,8.282c-0.533,0.526-1.129,0.816-1.756,0.816
			h-87.782c-2.339,0-4.236-4.074-4.236-9.099v-2.28c0-5.03,1.897-9.104,4.236-9.104h87.781c0.627,0,1.223,0.291,1.756,0.816
			C378.19,242.818,379.207,245.987,379.207,249.67z"/>
	</g>
	<path fill="#F4B844" d="M280.84,111.203l122.933,129.364l-88.008,0.042v-0.406l-60.253-64.425l-60.258-64.425v-0.109
		L280.84,111.203z"/>
	
		<linearGradient id="SVGID_14_" gradientUnits="userSpaceOnUse" x1="-81.5387" y1="421.7225" x2="-202.6091" y2="435.5804" gradientTransform="matrix(1.9607 0 0 1.9607 448.185 -627.3228)">
		<stop  offset="0" style="stop-color:#816965"/>
		<stop  offset="1" style="stop-color:#654E48"/>
	</linearGradient>
	<path fill="url(#SVGID_14_)" d="M291.764,214.701c0,0.173-0.006,0.341-0.022,0.509c-0.257,2.733-2.56,4.873-5.36,4.873H101.021
		c-2.873,0-5.22-2.252-5.377-5.086v-0.017c-0.006-0.095-0.006-0.184-0.006-0.279c0-0.71,0.14-1.403,0.408-2.051
		c0.263-0.643,0.654-1.235,1.157-1.738l0.257-0.263c0.011-0.006,0.017-0.011,0.022-0.022l9.384-9.439
		c1.006-1.012,2.381-1.587,3.817-1.587H276.72c1.347,0,2.644,0.509,3.627,1.414c0.067,0.05,0.129,0.112,0.19,0.173l9.663,9.724
		C291.2,211.918,291.764,213.281,291.764,214.701z"/>
	
		<linearGradient id="SVGID_15_" gradientUnits="userSpaceOnUse" x1="-81.5033" y1="411.5849" x2="-202.5738" y2="425.4428" gradientTransform="matrix(1.9607 0 0 1.9607 448.185 -627.3228)">
		<stop  offset="0" style="stop-color:#816965"/>
		<stop  offset="1" style="stop-color:#654E48"/>
	</linearGradient>
	<polygon fill="url(#SVGID_15_)" points="278.961,199.602 108.443,199.602 128.803,179.12 258.601,179.12 	"/>
	
		<linearGradient id="SVGID_16_" gradientUnits="userSpaceOnUse" x1="-81.5033" y1="401.1363" x2="-202.5737" y2="414.997" gradientTransform="matrix(1.9607 0 0 1.9607 448.185 -627.3228)">
		<stop  offset="0" style="stop-color:#816965"/>
		<stop  offset="1" style="stop-color:#654E48"/>
	</linearGradient>
	<polygon fill="url(#SVGID_16_)" points="258.601,179.12 128.803,179.12 149.168,158.631 238.23,158.631 	"/>
	
		<linearGradient id="SVGID_17_" gradientUnits="userSpaceOnUse" x1="-81.5034" y1="390.689" x2="-202.5738" y2="404.547" gradientTransform="matrix(1.9607 0 0 1.9607 448.185 -627.3228)">
		<stop  offset="0" style="stop-color:#816965"/>
		<stop  offset="1" style="stop-color:#654E48"/>
	</linearGradient>
	<polygon fill="url(#SVGID_17_)" points="238.23,158.631 149.168,158.631 169.527,138.148 217.87,138.148 	"/>
	
		<linearGradient id="SVGID_18_" gradientUnits="userSpaceOnUse" x1="-81.5034" y1="380.2427" x2="-202.5738" y2="394.1006" gradientTransform="matrix(1.9607 0 0 1.9607 448.185 -627.3228)">
		<stop  offset="0" style="stop-color:#816965"/>
		<stop  offset="1" style="stop-color:#654E48"/>
	</linearGradient>
	<polygon fill="url(#SVGID_18_)" points="217.87,138.148 169.527,138.148 189.887,117.666 197.511,117.666 	"/>
	
		<linearGradient id="SVGID_19_" gradientUnits="userSpaceOnUse" x1="-121.2132" y1="441.0219" x2="-164.9789" y2="397.2562" gradientTransform="matrix(1.9607 0 0 1.9607 448.185 -627.3228)">
		<stop  offset="0" style="stop-color:#654E48;stop-opacity:0"/>
		<stop  offset="1" style="stop-color:#503837"/>
	</linearGradient>
	<path fill="url(#SVGID_19_)" d="M287.976,240.566h-1.593c2.834,0,5.153,2.191,5.365,4.968v10.546
		c-0.213,2.778-2.532,4.968-5.365,4.968h1.593c1.347,0,2.626,0.291,3.772,0.816v18.851c-1.146,0.526-2.426,0.816-3.772,0.816h-1.593
		c2.834,0,5.153,2.191,5.365,4.968v10.552c-0.213,2.777-2.532,4.968-5.365,4.968h1.593c1.347,0,2.626,0.291,3.772,0.816v18.85
		c-1.146,0.526-2.426,0.816-3.772,0.816h-1.593c2.834,0,5.153,2.191,5.365,4.968v10.546c-0.213,2.778-2.532,4.968-5.365,4.968h1.593
		c1.347,0,2.626,0.291,3.772,0.816v19.667H229.83L95.628,229.266v-8.355c1.157-0.531,2.442-0.827,3.795-0.827h1.598
		c-2.873,0-5.22-2.252-5.377-5.086v-0.017c0.106-1.609,0.749-3.13,1.816-4.331c0.011-0.006,0.017-0.011,0.022-0.022
		c0.078-0.084,0.162-0.173,0.246-0.257l95.959-96.54l3.812,3.834l40.72,40.965l20.365,20.488l20.36,20.483l1.403,1.414l9.3,9.356
		c1.285,1.291,2.029,3.018,2.096,4.84c-0.257,2.733-2.56,4.873-5.36,4.873h1.593c1.347,0,2.626,0.291,3.772,0.816v18.851
		C290.602,240.275,289.322,240.566,287.976,240.566z"/>
	
		<linearGradient id="SVGID_20_" gradientUnits="userSpaceOnUse" x1="-110.0754" y1="454.2794" x2="-162.369" y2="401.9885" gradientTransform="matrix(1.9607 0 0 1.9607 448.185 -627.3228)">
		<stop  offset="0" style="stop-color:#654E48;stop-opacity:0"/>
		<stop  offset="1" style="stop-color:#503837"/>
	</linearGradient>
	<path fill="url(#SVGID_20_)" d="M294.317,258.473l-95.299-95.299c-0.829-2.138-2.9-3.655-5.33-3.655
		c-3.159,0-5.721,2.561-5.721,5.721v1.732c-1.294,0.625-2.512,1.461-3.586,2.535l-52.71,52.71c-2.276,2.275-2.234,5.991,0.126,8.213
		L274.535,372.53h19.783L294.317,258.473L294.317,258.473z"/>
	
		<linearGradient id="SVGID_21_" gradientUnits="userSpaceOnUse" x1="-129.7964" y1="417.4243" x2="-129.7964" y2="469.3874" gradientTransform="matrix(1.9607 0 0 1.9607 448.185 -627.3228)">
		<stop  offset="0" style="stop-color:#F4CA3E"/>
		<stop  offset="1" style="stop-color:#DB9E36"/>
	</linearGradient>
	<path fill="url(#SVGID_21_)" d="M317.067,231.617L199.757,114.27c-3.343-3.343-8.765-3.343-12.109,0L70.309,231.608
		c-2.187,2.187-2.187,5.734,0,7.922l5.001,5.001c2.187,2.187,5.734,2.187,7.922,0l108.877-108.876c0.88-0.88,2.307-0.88,3.188,0
		L304.144,244.54c2.187,2.187,5.734,2.187,7.922,0l5.001-5.001C319.254,237.351,319.254,233.804,317.067,231.617z"/>
	
		<linearGradient id="SVGID_22_" gradientUnits="userSpaceOnUse" x1="-96.117" y1="414.2545" x2="-154.2595" y2="372.7861" gradientTransform="matrix(1.9607 0 0 1.9607 448.185 -627.3228)">
		<stop  offset="0" style="stop-color:#DB9E36;stop-opacity:0"/>
		<stop  offset="1" style="stop-color:#9E6429"/>
	</linearGradient>
	<path fill="url(#SVGID_22_)" d="M199.757,114.27c-1.672-1.672-3.863-2.508-6.054-2.508v23.232c0.577,0,1.154,0.22,1.594,0.66
		L304.145,244.54c2.187,2.187,5.734,2.187,7.922,0l5.001-5.001c2.187-2.187,2.187-5.734,0-7.922L199.757,114.27z"/>
	<polygon fill="#503837" points="145.633,218.633 193.688,170.578 241.742,218.633 	"/>
	
		<linearGradient id="SVGID_23_" gradientUnits="userSpaceOnUse" x1="-129.7964" y1="434.7534" x2="-129.7964" y2="401.2976" gradientTransform="matrix(1.9607 0 0 1.9607 448.185 -627.3228)">
		<stop  offset="0" style="stop-color:#F4CA3E"/>
		<stop  offset="1" style="stop-color:#DB9E36"/>
	</linearGradient>
	<path fill="url(#SVGID_23_)" d="M193.688,225.117c-3.159,0-5.721-2.561-5.721-5.721v-54.157c0-3.159,2.561-5.721,5.721-5.721
		c3.159,0,5.721,2.561,5.721,5.721v54.157C199.408,222.555,196.847,225.117,193.688,225.117z"/>
	
		<linearGradient id="SVGID_24_" gradientUnits="userSpaceOnUse" x1="-129.7964" y1="429.696" x2="-129.7964" y2="435.5311" gradientTransform="matrix(1.9607 0 0 1.9607 448.185 -627.3228)">
		<stop  offset="0" style="stop-color:#F4CA3E"/>
		<stop  offset="1" style="stop-color:#DB9E36"/>
	</linearGradient>
	<path fill="url(#SVGID_24_)" d="M144.107,215.2h99.161c3.159,0,5.721,2.561,5.721,5.721s-2.561,5.721-5.721,5.721h-99.161
		c-3.159,0-5.721-2.561-5.721-5.721S140.948,215.2,144.107,215.2z"/>
	
		<linearGradient id="SVGID_25_" gradientUnits="userSpaceOnUse" x1="-129.7962" y1="438.2547" x2="-129.7962" y2="404.4254" gradientTransform="matrix(1.9607 0 0 1.9607 448.185 -627.3228)">
		<stop  offset="0" style="stop-color:#F4CA3E"/>
		<stop  offset="1" style="stop-color:#DB9E36"/>
	</linearGradient>
	<path fill="url(#SVGID_25_)" d="M251.659,231.982c-1.464,0-2.928-0.559-4.045-1.676l-49.539-49.539
		c-2.423-2.423-6.351-2.423-8.775,0l-49.368,49.368c-2.215,2.215-5.854,2.44-8.134,0.293c-2.36-2.222-2.402-5.938-0.126-8.213
		l52.71-52.71c5.14-5.14,13.474-5.14,18.613,0l52.71,52.71c2.235,2.234,2.235,5.856,0,8.09
		C254.587,231.423,253.123,231.982,251.659,231.982z"/>
	
		<linearGradient id="SVGID_26_" gradientUnits="userSpaceOnUse" x1="-92.9711" y1="428.1599" x2="-199.3313" y2="394.9971" gradientTransform="matrix(1.9607 0 0 1.9607 448.185 -627.3228)">
		<stop  offset="0" style="stop-color:#DB9E36;stop-opacity:0"/>
		<stop  offset="1" style="stop-color:#9E6429"/>
	</linearGradient>
	<path fill="url(#SVGID_26_)" d="M255.701,230.303c-1.114,1.121-2.578,1.678-4.043,1.678c-1.464,0-2.929-0.557-4.043-1.678
		l-48.207-48.2v-15.149c1.297,0.625,2.51,1.472,3.585,2.548l52.708,52.715C257.937,224.453,257.937,228.068,255.701,230.303z"/>
	<path fill="#503837" d="M214.673,281.184v82.283h-41.972v-82.283c0-4.851,3.935-8.786,8.786-8.786h24.4
		C210.739,272.399,214.673,276.333,214.673,281.184z"/>
	
		<linearGradient id="SVGID_27_" gradientUnits="userSpaceOnUse" x1="-159.128" y1="425.6354" x2="-132.4268" y2="477.5985" gradientTransform="matrix(1.9607 0 0 1.9607 448.185 -627.3228)">
		<stop  offset="0" style="stop-color:#F4CA3E"/>
		<stop  offset="1" style="stop-color:#DB9E36"/>
	</linearGradient>
	<path fill="url(#SVGID_27_)" d="M219.866,277.306v86.162h-10.39V284.18c0-3.621-2.962-6.583-6.583-6.583h-18.409
		c-3.632,0-6.583,2.945-6.583,6.583v79.287h-10.39v-86.161c0-5.577,4.521-10.104,10.105-10.104h32.147
		C215.344,267.201,219.866,271.728,219.866,277.306z"/>
	<circle fill="#FFFFFF" cx="186.244" cy="313.69" r="4.738"/>
</g>
</svg>
