<?xml version="1.0" encoding="utf-8"?>
<!-- Generator: Adobe Illustrator 17.0.0, SVG Export Plug-In . SVG Version: 6.00 Build 0)  -->
<!DOCTYPE svg PUBLIC "-//W3C//DTD SVG 1.1//EN" "http://www.w3.org/Graphics/SVG/1.1/DTD/svg11.dtd">
<svg version="1.1" id="Layer_1" xmlns="http://www.w3.org/2000/svg" xmlns:xlink="http://www.w3.org/1999/xlink" x="0px" y="0px"
	 width="511px" height="511px" viewBox="0 0 511 511" enable-background="new 0 0 511 511" xml:space="preserve">
<path fill="#FFFFFF" d="M388.571,242.224l21.506-27.991c13.076-16.513,10.575-40.874-5.613-54.377l-41.664-34.755
	c-13.676-11.41-31.02-17.695-48.828-17.695h-4.785c6.659-10.118,10.545-22.208,10.545-35.201c0-35.416-28.814-64.231-64.231-64.231
	s-64.231,28.814-64.231,64.231c0,12.989,3.886,25.083,10.541,35.201h-4.782c-17.812,0-35.152,6.285-48.828,17.691l-41.667,34.759
	c-16.188,13.503-18.688,37.868-5.609,54.381l18.809,24.452l22.216,28.882l29.642,38.544v66.965v80.736
	c0,27.134,22.076,49.21,49.214,49.21c13.525,0,25.789-5.488,34.695-14.349c8.902,8.861,21.17,14.349,34.695,14.349
	c27.134,0,49.21-22.076,49.21-49.21V373.08v-29.03v-37.834l27.443-35.719L388.571,242.224z M220.3,72.205
	c0-19.41,15.791-35.201,35.201-35.201c19.406,0,35.197,15.791,35.197,35.201c0,19.398-15.769,35.182-35.163,35.201h-0.072
	C236.069,107.387,220.3,91.603,220.3,72.205z M125.133,182.148l41.664-34.755c8.468-7.067,19.206-10.957,30.234-10.957h58.433h0.038
	h0.038h58.433c11.029,0,21.763,3.89,30.234,10.957l41.664,34.755c4.196,3.497,4.838,9.82,1.428,14.092l-47.805,62.221v-82.436
	H310.46v59.313l-109.834,0.064V176.12h-29.03v82.379l-47.726-62.052l-0.162-0.208C120.298,191.968,120.936,185.645,125.133,182.148z
	 M290.197,473.997c-11.127,0-20.18-9.053-20.18-20.18V310.111h-29.03v143.705c0,11.127-9.053,20.18-20.18,20.18
	c-11.131,0-20.18-9.053-20.18-20.18v-189.38l109.751-0.068v189.448C310.377,464.943,301.324,473.997,290.197,473.997z"/>
</svg>
