<?xml version="1.0" encoding="utf-8"?>
<!-- Generator: Adobe Illustrator 17.0.0, SVG Export Plug-In . SVG Version: 6.00 Build 0)  -->
<!DOCTYPE svg PUBLIC "-//W3C//DTD SVG 1.1//EN" "http://www.w3.org/Graphics/SVG/1.1/DTD/svg11.dtd">
<svg version="1.1" id="Layer_1" xmlns="http://www.w3.org/2000/svg" xmlns:xlink="http://www.w3.org/1999/xlink" x="0px" y="0px"
	 width="1000px" height="1000px" viewBox="0 0 1000 1000" enable-background="new 0 0 1000 1000" xml:space="preserve">
<g>
	<path fill="none" stroke="#FFFFFF" stroke-width="40" stroke-miterlimit="10" d="M595.3,744.88c0.04,90.96,0.07,154.21,0.07,154.21
		S595.65,920,581.52,920H145.26c0,0-15.26-2.71-15.26-23.17v-703.6V98.06c0,0,0.05-18.06,15.26-18.06h436.26
		c0,0,14.13-0.6,13.85,18.65c-0.07,4.8-0.11,39.55-0.14,92.11c0,19.34-0.01,41.08-0.01,64.63"/>
	
		<line fill="none" stroke="#FFFFFF" stroke-width="40" stroke-miterlimit="10" x1="595.233" y1="190.758" x2="130.686" y2="193.23"/>
	
		<line fill="none" stroke="#FFFFFF" stroke-width="40" stroke-miterlimit="10" x1="595.233" y1="793.514" x2="130.686" y2="795.986"/>
	
		<line fill="none" stroke="#FFFFFF" stroke-width="40" stroke-miterlimit="10" x1="438.652" y1="852.802" x2="298.667" y2="855.273"/>
	<path fill="none" stroke="#FFFFFF" stroke-width="40" stroke-miterlimit="10" d="M824,512.412v132.495l-207.238,0.389l1.249,91.686
		c1.94,21.756-11.31,9.712-11.31,9.712L338,500.968v-1.941l268.688-245.388c0,0,13.432-12.027,11.492,9.699l-1.321,91.56
		L824,355.286v144.711V512.412z"/>
</g>
<g>
	<circle fill="none" stroke="#FFFFFF" stroke-width="12" stroke-miterlimit="10" cx="626.667" cy="498.333" r="106.38"/>
	<circle fill="#FFFFFF" cx="538.865" cy="499.511" r="5.867"/>
	<circle fill="#FFFFFF" cx="541.798" cy="481.911" r="5.867"/>
	<circle fill="#FFFFFF" cx="546.198" cy="465.777" r="5.867"/>
	<circle fill="#FFFFFF" cx="553.532" cy="449.643" r="5.867"/>
	<circle fill="#FFFFFF" cx="564.043" cy="434.976" r="5.867"/>
	<circle fill="#FFFFFF" cx="578.71" cy="424.71" r="5.867"/>
	<circle fill="#FFFFFF" cx="593.377" cy="415.909" r="5.867"/>
	<circle fill="#FFFFFF" cx="609.266" cy="411.509" r="5.867"/>
	<circle fill="#FFFFFF" cx="625.644" cy="408.576" r="5.867"/>
	<ellipse fill="#FFFFFF" cx="712.389" cy="499.511" rx="5.852" ry="5.867"/>
	<ellipse fill="#FFFFFF" cx="709.463" cy="481.911" rx="5.852" ry="5.867"/>
	<ellipse fill="#FFFFFF" cx="705.074" cy="465.777" rx="5.852" ry="5.867"/>
	<ellipse fill="#FFFFFF" cx="697.759" cy="449.643" rx="5.852" ry="5.867"/>
	<ellipse fill="#FFFFFF" cx="687.274" cy="434.976" rx="5.852" ry="5.867"/>
	<ellipse fill="#FFFFFF" cx="672.643" cy="424.71" rx="5.852" ry="5.867"/>
	<ellipse fill="#FFFFFF" cx="658.012" cy="415.909" rx="5.852" ry="5.867"/>
	<ellipse fill="#FFFFFF" cx="642.163" cy="411.509" rx="5.852" ry="5.867"/>
	<circle fill="#FFFFFF" cx="541.798" cy="517.57" r="5.867"/>
	<circle fill="#FFFFFF" cx="546.198" cy="533.703" r="5.867"/>
	<circle fill="#FFFFFF" cx="553.532" cy="549.837" r="5.867"/>
	<circle fill="#FFFFFF" cx="564.043" cy="564.504" r="5.867"/>
	<circle fill="#FFFFFF" cx="578.71" cy="574.771" r="5.867"/>
	<circle fill="#FFFFFF" cx="593.377" cy="583.571" r="5.867"/>
	<circle fill="#FFFFFF" cx="609.266" cy="587.971" r="5.867"/>
	<circle fill="#FFFFFF" cx="625.644" cy="590.904" r="5.867"/>
	<ellipse fill="#FFFFFF" cx="709.463" cy="517.57" rx="5.852" ry="5.867"/>
	<ellipse fill="#FFFFFF" cx="705.074" cy="533.703" rx="5.852" ry="5.867"/>
	<ellipse fill="#FFFFFF" cx="697.759" cy="549.837" rx="5.852" ry="5.867"/>
	<ellipse fill="#FFFFFF" cx="687.274" cy="564.504" rx="5.852" ry="5.867"/>
	<ellipse fill="#FFFFFF" cx="672.643" cy="574.771" rx="5.852" ry="5.867"/>
	<ellipse fill="#FFFFFF" cx="658.012" cy="583.571" rx="5.852" ry="5.867"/>
	<ellipse fill="#FFFFFF" cx="642.163" cy="587.971" rx="5.852" ry="5.867"/>
	<g>
		<path fill="#FFFFFF" d="M571.698,479.675c3.656,15.533,23.202,45.884,41.476,52.002c2.321,0.777,6.253,2.236,17.162,1.192
			c0,0,2.066,0.479,2.543-2.781c0,0,0,0,0.795-7.469c0,0,2.066-2.86,8.74,3.019c0,0,6.515,5.085,9.852,6.992
			c0,0,9.534,1.748,22.247-0.318c0,0,2.225-0.636,2.543-3.019c0,0,0.477-1.351-2.225-4.291c0,0-10.011-11.282-14.461-14.778
			c0,0-1.589-1.112-0.159-2.543c0,0,9.693-11.362,14.54-22.009c0,0,2.195-4.692,2.304-8.025c0,0-0.397-0.953-2.384-1.271
			c-3.569-0.571-11.759-2.066-19.863,0c-1.791,0.457-2.216,1.929-3.973,5.403c-2.663,5.264-8.359,15.742-10.01,18.462
			c0,0-1.572,3.13-4.371,3.229c-0.538,0.019-3.417-0.686-4.052-4.211c0,0,0.159-17.798-0.238-18.751c0,0-0.896-3.099-3.518-3.337
			c0,0-9.433-1.748-17.935-0.079c0,0-1.986,0.079-3.178,1.827c0,0-0.556,1.112,1.351,1.748c0,0,1.907-0.079,2.384,1.033
			c0,0,0.277,13.671-1.271,18.115c0,0-0.556,2.304-1.748,2.622c0,0-1.351,0.079-2.304-1.271c0,0-10.567-18.354-12.315-21.85
			c0,0-1.416-1.751-3.019-2.225c0,0-15.2-2.275-17.957-0.159C572.077,477.375,571.532,478.968,571.698,479.675z"/>
	</g>
</g>
</svg>
