<?xml version="1.0" encoding="utf-8"?>
<!-- Generator: Adobe Illustrator 17.0.0, SVG Export Plug-In . SVG Version: 6.00 Build 0)  -->
<!DOCTYPE svg PUBLIC "-//W3C//DTD SVG 1.1//EN" "http://www.w3.org/Graphics/SVG/1.1/DTD/svg11.dtd">
<svg version="1.1" id="Layer_1" xmlns="http://www.w3.org/2000/svg" xmlns:xlink="http://www.w3.org/1999/xlink" x="0px" y="0px"
	 width="1187.409px" height="1000px" viewBox="0 0 1187.409 1000" enable-background="new 0 0 1187.409 1000" xml:space="preserve">
<g>
	<path fill="none" stroke="#FFFFFF" stroke-width="40" stroke-miterlimit="10" d="M556.3,745.88c0.04,90.96,0.07,154.21,0.07,154.21
		S556.65,921,542.52,921H106.26c0,0-15.26-2.71-15.26-23.17v-703.6V99.06c0,0,0.05-18.06,15.26-18.06h436.26
		c0,0,14.13-0.6,13.85,18.65c-0.07,4.8-0.11,39.55-0.14,92.11c0,19.34-0.01,41.08-0.01,64.63"/>
	<line fill="none" stroke="#FFFFFF" stroke-width="40" stroke-miterlimit="10" x1="556.233" y1="191.758" x2="91.686" y2="194.23"/>
	
		<line fill="none" stroke="#FFFFFF" stroke-width="40" stroke-miterlimit="10" x1="556.233" y1="794.514" x2="91.686" y2="796.986"/>
	
		<line fill="none" stroke="#FFFFFF" stroke-width="40" stroke-miterlimit="10" x1="399.652" y1="853.802" x2="259.667" y2="856.273"/>
</g>
<g>
	
		<ellipse fill="none" stroke="#FFFFFF" stroke-width="12" stroke-miterlimit="10" cx="587.746" cy="499.129" rx="104.459" ry="108.175"/>
	<ellipse fill="#FFFFFF" cx="501.529" cy="500.326" rx="5.761" ry="5.966"/>
	<ellipse fill="#FFFFFF" cx="504.41" cy="482.429" rx="5.761" ry="5.966"/>
	<ellipse fill="#FFFFFF" cx="508.731" cy="466.023" rx="5.761" ry="5.966"/>
	<ellipse fill="#FFFFFF" cx="515.932" cy="449.617" rx="5.761" ry="5.966"/>
	<ellipse fill="#FFFFFF" cx="526.253" cy="434.703" rx="5.761" ry="5.966"/>
	<ellipse fill="#FFFFFF" cx="540.655" cy="424.262" rx="5.761" ry="5.966"/>
	<ellipse fill="#FFFFFF" cx="555.057" cy="415.314" rx="5.761" ry="5.966"/>
	<ellipse fill="#FFFFFF" cx="570.66" cy="410.839" rx="5.761" ry="5.966"/>
	<ellipse fill="#FFFFFF" cx="586.742" cy="407.857" rx="5.761" ry="5.966"/>
	<ellipse fill="#FFFFFF" cx="671.921" cy="500.326" rx="5.747" ry="5.966"/>
	<ellipse fill="#FFFFFF" cx="669.047" cy="482.429" rx="5.747" ry="5.966"/>
	<ellipse fill="#FFFFFF" cx="664.738" cy="466.023" rx="5.747" ry="5.966"/>
	<ellipse fill="#FFFFFF" cx="657.554" cy="449.617" rx="5.747" ry="5.966"/>
	<ellipse fill="#FFFFFF" cx="647.258" cy="434.703" rx="5.747" ry="5.966"/>
	<ellipse fill="#FFFFFF" cx="632.892" cy="424.262" rx="5.747" ry="5.966"/>
	<ellipse fill="#FFFFFF" cx="618.526" cy="415.314" rx="5.747" ry="5.966"/>
	<ellipse fill="#FFFFFF" cx="602.962" cy="410.839" rx="5.747" ry="5.966"/>
	<ellipse fill="#FFFFFF" cx="504.41" cy="518.69" rx="5.761" ry="5.966"/>
	<ellipse fill="#FFFFFF" cx="508.731" cy="535.096" rx="5.761" ry="5.966"/>
	<ellipse fill="#FFFFFF" cx="515.932" cy="551.502" rx="5.761" ry="5.966"/>
	<ellipse fill="#FFFFFF" cx="526.253" cy="566.416" rx="5.761" ry="5.966"/>
	<ellipse fill="#FFFFFF" cx="540.655" cy="576.856" rx="5.761" ry="5.966"/>
	<ellipse fill="#FFFFFF" cx="555.057" cy="585.805" rx="5.761" ry="5.966"/>
	<ellipse fill="#FFFFFF" cx="570.66" cy="590.279" rx="5.761" ry="5.966"/>
	<ellipse fill="#FFFFFF" cx="586.742" cy="593.262" rx="5.761" ry="5.966"/>
	<ellipse fill="#FFFFFF" cx="669.047" cy="518.69" rx="5.747" ry="5.966"/>
	<ellipse fill="#FFFFFF" cx="664.738" cy="535.096" rx="5.747" ry="5.966"/>
	<ellipse fill="#FFFFFF" cx="657.554" cy="551.502" rx="5.747" ry="5.966"/>
	<ellipse fill="#FFFFFF" cx="647.258" cy="566.416" rx="5.747" ry="5.966"/>
	<ellipse fill="#FFFFFF" cx="632.892" cy="576.856" rx="5.747" ry="5.966"/>
	<ellipse fill="#FFFFFF" cx="618.526" cy="585.805" rx="5.747" ry="5.966"/>
	<ellipse fill="#FFFFFF" cx="602.962" cy="590.279" rx="5.747" ry="5.966"/>
	<g>
		<path fill="#FFFFFF" d="M533.77,480.155c3.59,15.795,22.783,46.658,40.727,52.88c2.279,0.79,6.14,2.273,16.852,1.212
			c0,0,2.028,0.487,2.497-2.828c0,0,0,0,0.78-7.595c0,0,2.029-2.909,8.582,3.07c0,0,6.398,5.171,9.674,7.11
			c0,0,9.362,1.777,21.845-0.323c0,0,2.185-0.646,2.497-3.07c0,0,0.468-1.374-2.185-4.363c0,0-9.83-11.473-14.2-15.028
			c0,0-1.56-1.131-0.156-2.585c0,0,9.518-11.554,14.278-22.38c0,0,2.155-4.772,2.263-8.16c0,0-0.39-0.97-2.341-1.293
			c-3.505-0.581-11.547-2.101-19.505,0c-1.759,0.464-2.176,1.962-3.901,5.494c-2.615,5.353-8.208,16.008-9.83,18.774
			c0,0-1.544,3.182-4.292,3.283c-0.528,0.019-3.355-0.698-3.979-4.282c0,0,0.156-18.098-0.234-19.068c0,0-0.88-3.151-3.454-3.393
			c0,0-9.263-1.777-17.611-0.081c0,0-1.951,0.081-3.121,1.858c0,0-0.546,1.131,1.326,1.777c0,0,1.872-0.081,2.341,1.05
			c0,0,0.272,13.902-1.248,18.421c0,0-0.546,2.343-1.716,2.666c0,0-1.326,0.081-2.263-1.293c0,0-10.377-18.664-12.093-22.219
			c0,0-1.39-1.78-2.965-2.262c0,0-14.926-2.314-17.632-0.162C534.142,477.817,533.606,479.437,533.77,480.155z"/>
	</g>
</g>
<g>
	<path fill="none" stroke="#FFFFFF" stroke-width="40" stroke-miterlimit="10" d="M619.448,745.88
		c-0.04,90.96-0.07,154.21-0.07,154.21S619.098,921,633.229,921h436.283c0,0,15.488-2.71,15.488-23.17v-703.6V99.06
		c0,0-0.277-18.06-15.488-18.06H633.229c0,0-14.131-0.6-13.851,18.65c0.07,4.8,0.11,39.55,0.14,92.11c0,19.34,0.01,41.08,0.01,64.63
		"/>
	
		<line fill="none" stroke="#FFFFFF" stroke-width="40" stroke-miterlimit="10" x1="619.515" y1="191.758" x2="1084.087" y2="194.23"/>
	
		<line fill="none" stroke="#FFFFFF" stroke-width="40" stroke-miterlimit="10" x1="619.515" y1="794.514" x2="1084.087" y2="796.986"/>
	
		<line fill="none" stroke="#FFFFFF" stroke-width="40" stroke-miterlimit="10" x1="776.105" y1="853.802" x2="916.096" y2="856.273"/>
</g>
<g>
	<path fill="none" stroke="#FFFFFF" stroke-width="25" stroke-miterlimit="10" d="M790.846,349.259
		c-47.405-58.586-121.353-96.272-204.502-96.272c-142.917,0-258.82,111.426-258.82,248.821c0,8.225,0.41,16.336,1.231,24.392
		l53.03-0.507c-0.938-7.83-1.465-15.829-1.465-23.885c0-109.398,92.231-198.065,206.025-198.065
		c67.21,0,126.861,30.927,164.48,78.753 M776.666,425.759h56.135v-0.056 M394.676,574.589 M418.407,616.501
		c37.326,50.474,98.618,83.372,167.937,83.372c113.794,0,206.025-88.667,206.025-198.065c0-7.436-0.41-14.815-1.289-22.082
		l52.971-0.563c0.762,7.436,1.113,15.041,1.113,22.646c0,137.395-115.904,248.821-258.82,248.821
		c-84.608,0-159.746-39.029-206.946-99.378"/>
	<polyline fill="none" stroke="#FFFFFF" stroke-width="25" stroke-miterlimit="10" points="381.843,525.693 381.785,525.693 
		328.755,526.2 327.524,526.2 	"/>
	<polyline fill="none" stroke="#FFFFFF" stroke-width="25" stroke-miterlimit="10" points="845.165,479.162 844.052,479.162 
		791.081,479.725 790.846,479.725 	"/>
	<polyline fill="none" stroke="#FFFFFF" stroke-width="25" stroke-miterlimit="10" points="750.825,382.496 697.678,425.759 
		776.666,425.759 832.801,425.759 832.801,425.703 832.801,303.686 790.846,349.259 	"/>
	<polyline fill="none" stroke="#FFFFFF" stroke-width="25" stroke-miterlimit="10" points="416.767,617.853 418.407,616.501 
		469.855,574.589 394.676,574.589 338.833,574.589 334.732,574.589 334.732,696.662 376.745,651.089 	"/>
</g>
</svg>
