<?xml version="1.0" encoding="utf-8"?>
<!-- Generator: Adobe Illustrator 17.0.0, SVG Export Plug-In . SVG Version: 6.00 Build 0)  -->
<!DOCTYPE svg PUBLIC "-//W3C//DTD SVG 1.1//EN" "http://www.w3.org/Graphics/SVG/1.1/DTD/svg11.dtd">
<svg version="1.1" id="Layer_1" xmlns="http://www.w3.org/2000/svg" xmlns:xlink="http://www.w3.org/1999/xlink" x="0px" y="0px"
	 width="1000px" height="1000px" viewBox="0 0 1000 1000" enable-background="new 0 0 1000 1000" xml:space="preserve">
<path d="M500,135.75c-201.19,0-364.25,163.06-364.25,364.25S298.81,864.25,500,864.25S864.25,701.19,864.25,500
	S701.19,135.75,500,135.75z M761.956,304.987l38.928,77.598l-91.099,45.701l-38.928-77.598L761.956,304.987z M454.704,169.717
	h86.813v101.923h-86.813V169.717z M235.962,304.987l91.257,45.701l-39.007,77.598l-91.245-45.701L235.962,304.987z M239.146,698.782
	l-42.911-75.516l88.804-50.269l42.9,75.516L239.146,698.782z M543.406,825.828h-86.813V723.917h86.813V825.828z M499.021,690.614
	c-106.828,0-193.415-86.587-193.415-193.404c0-106.895,86.587-193.494,193.415-193.494c106.895,0,193.483,86.599,193.483,193.494
	C692.504,604.026,605.917,690.614,499.021,690.614z M670.216,645.486l42.832-75.505l88.646,50.281l-42.832,75.516L670.216,645.486z"
	/>
</svg>
