<?xml version="1.0" encoding="utf-8"?>
<!-- Generator: Adobe Illustrator 17.0.0, SVG Export Plug-In . SVG Version: 6.00 Build 0)  -->
<!DOCTYPE svg PUBLIC "-//W3C//DTD SVG 1.1//EN" "http://www.w3.org/Graphics/SVG/1.1/DTD/svg11.dtd">
<svg version="1.1" id="Layer_1" xmlns="http://www.w3.org/2000/svg" xmlns:xlink="http://www.w3.org/1999/xlink" x="0px" y="0px"
	 width="1000px" height="1000px" viewBox="0 0 1000 1000" enable-background="new 0 0 1000 1000" xml:space="preserve">
<g>
	<g>
		<circle fill="none" stroke="#000000" stroke-width="18" stroke-miterlimit="10" cx="511.285" cy="522.951" r="450.618"/>
		<circle cx="139.362" cy="527.941" r="24.851"/>
		<circle cx="151.788" cy="453.387" r="24.851"/>
		<circle cx="170.427" cy="385.046" r="24.851"/>
		<circle cx="201.491" cy="316.704" r="24.851"/>
		<circle cx="246.016" cy="254.576" r="24.851"/>
		<circle cx="308.144" cy="211.086" r="24.851"/>
		<circle cx="370.272" cy="173.809" r="24.851"/>
		<circle cx="437.578" cy="155.171" r="24.851"/>
		<circle cx="506.955" cy="142.745" r="24.851"/>
		<ellipse cx="874.401" cy="527.941" rx="24.79" ry="24.851"/>
		<ellipse cx="862.007" cy="453.387" rx="24.79" ry="24.851"/>
		<ellipse cx="843.414" cy="385.046" rx="24.79" ry="24.851"/>
		<ellipse cx="812.427" cy="316.704" rx="24.79" ry="24.851"/>
		<ellipse cx="768.013" cy="254.576" rx="24.79" ry="24.851"/>
		<ellipse cx="706.038" cy="211.086" rx="24.79" ry="24.851"/>
		<ellipse cx="644.064" cy="173.809" rx="24.79" ry="24.851"/>
		<ellipse cx="576.926" cy="155.171" rx="24.79" ry="24.851"/>
		<circle cx="151.788" cy="604.436" r="24.851"/>
		<circle cx="170.427" cy="672.777" r="24.851"/>
		<circle cx="201.491" cy="741.118" r="24.851"/>
		<circle cx="246.016" cy="803.246" r="24.851"/>
		<circle cx="308.144" cy="846.736" r="24.851"/>
		<circle cx="370.272" cy="884.013" r="24.851"/>
		<circle cx="437.578" cy="902.652" r="24.851"/>
		<circle cx="506.955" cy="915.077" r="24.851"/>
		<ellipse cx="862.007" cy="604.436" rx="24.79" ry="24.851"/>
		<ellipse cx="843.414" cy="672.777" rx="24.79" ry="24.851"/>
		<ellipse cx="812.427" cy="741.118" rx="24.79" ry="24.851"/>
		<ellipse cx="768.013" cy="803.246" rx="24.79" ry="24.851"/>
		<ellipse cx="706.038" cy="846.736" rx="24.79" ry="24.851"/>
		<ellipse cx="644.064" cy="884.013" rx="24.79" ry="24.851"/>
		<ellipse cx="576.926" cy="902.652" rx="24.79" ry="24.851"/>
		<g>
			<path d="M278.441,443.916c15.486,65.795,98.28,194.362,175.69,220.277c9.832,3.291,26.487,9.47,72.697,5.048
				c0,0,8.751,2.029,10.77-11.78c0,0,0,0,3.366-31.637c0,0,8.751-12.116,37.022,12.789c0,0,27.598,21.54,41.734,29.617
				c0,0,40.387,7.404,94.237-1.346c0,0,9.424-2.692,10.77-12.789c0,0,2.019-5.722-9.424-18.174c0,0-42.407-47.792-61.254-62.6
				c0,0-6.731-4.712-0.673-10.77c0,0,41.061-48.128,61.591-93.228c0,0,9.296-19.877,9.76-33.993c0,0-1.683-4.039-10.097-5.385
				c-15.119-2.419-49.811-8.751-84.14,0c-7.587,1.934-9.386,8.172-16.828,22.886c-11.279,22.3-35.409,66.683-42.404,78.205
				c0,0-6.659,13.257-18.514,13.677c-2.278,0.081-14.472-2.907-17.165-17.838c0,0,0.673-75.39-1.01-79.429
				c0,0-3.794-13.126-14.901-14.136c0,0-39.959-7.404-75.971-0.337c0,0-8.414,0.337-13.462,7.741c0,0-2.356,4.712,5.722,7.404
				c0,0,8.077-0.337,10.097,4.375c0,0,1.174,57.909-5.385,76.736c0,0-2.356,9.76-7.404,11.107c0,0-5.722,0.337-9.76-5.385
				c0,0-44.763-77.746-52.167-92.554c0,0-5.996-7.415-12.789-9.424c0,0-64.388-9.639-76.063-0.673
				C280.046,434.175,277.736,440.923,278.441,443.916z"/>
		</g>
	</g>
</g>
</svg>
