<?xml version="1.0" encoding="utf-8"?>
<!-- Generator: Adobe Illustrator 17.0.0, SVG Export Plug-In . SVG Version: 6.00 Build 0)  -->
<!DOCTYPE svg PUBLIC "-//W3C//DTD SVG 1.1//EN" "http://www.w3.org/Graphics/SVG/1.1/DTD/svg11.dtd">
<svg version="1.1" id="Layer_1" xmlns="http://www.w3.org/2000/svg" xmlns:xlink="http://www.w3.org/1999/xlink" x="0px" y="0px"
	 width="1000px" height="1000px" viewBox="0 0 1000 1000" enable-background="new 0 0 1000 1000" xml:space="preserve">
<circle fill="none" stroke="#FFFFFF" stroke-width="60" stroke-miterlimit="10" cx="497.794" cy="578.852" r="341.588"/>
<rect x="699.661" y="227.247" transform="matrix(-0.8268 -0.5625 0.5625 -0.8268 1181.0242 885.9347)" fill="#FFFFFF" width="54.495" height="67.786"/>
<path fill="#FFFFFF" d="M424.692,55.552h134.243c0,0,45.191,7.975,46.52,54.495s-41.203,58.482-41.203,58.482h-139.56
	c0,0-35.887-17.279-35.887-56.488S424.692,55.552,424.692,55.552z"/>
<rect x="469.898" y="153.529" fill="#FFFFFF" width="54.495" height="67.786"/>
<rect x="695.106" y="162.817" transform="matrix(-0.8347 -0.5506 0.5506 -0.8347 1282.5724 800.6712)" fill="#FFFFFF" width="132.652" height="90.121"/>
<path fill="#FFFFFF" d="M469.898,217.789v79.748c0,0,6.661,22.595,27.247,21.266s27.247-21.266,27.247-21.266v-79.748"/>
<path fill="#FFFFFF" d="M525.042,944.448v-79.748c0,0-6.661-22.595-27.247-21.266c-20.586,1.329-27.247,21.266-27.247,21.266v79.748
	"/>
<path fill="#FFFFFF" d="M862.714,551.604h-79.748c0,0-22.595,6.661-21.266,27.247s21.266,27.247,21.266,27.247h79.748"/>
<path fill="#FFFFFF" d="M137.285,606.099h79.748c0,0,22.595-6.661,21.266-27.247s-21.266-27.247-21.266-27.247h-79.748"/>
<path fill="#FFFFFF" d="M775.44,819.971l-56.39-56.39c0,0-20.687-11.267-34.304,4.229c-13.617,15.497-4.229,34.304-4.229,34.304
	l56.391,56.391"/>
<path fill="#FFFFFF" d="M254.725,858.104l56.39-56.39c0,0,11.267-20.687-4.229-34.304c-15.497-13.617-34.304-4.229-34.304-4.229
	l-56.39,56.39"/>
<path fill="#FFFFFF" d="M737.308,301.513l-56.39,56.39c0,0-11.267,20.687,4.229,34.304c15.497,13.617,34.304,4.229,34.304,4.229
	l56.39-56.39"/>
<path fill="#FFFFFF" d="M216.592,339.646l56.39,56.39c0,0,20.687,11.267,34.304-4.229c13.617-15.497,4.229-34.304,4.229-34.304
	l-56.39-56.39"/>
<rect x="268.735" y="476.449" fill="none" width="456.819" height="90.573"/>
<g enable-background="new    ">
	<path fill="#FFFFFF" d="M328.981,548.128c-10.612,0-18.97-3.215-25.073-9.645c-6.104-6.428-9.155-15.371-9.155-26.83
		c0-11.426,3.06-20.353,9.18-26.783c6.12-6.429,14.469-9.644,25.049-9.644c5.892,0,11.23,1.181,16.016,3.54
		c4.785,2.36,8.585,5.681,11.401,9.961c2.815,4.281,4.305,9.156,4.468,14.625h-17.236c-0.423-4.135-1.986-7.462-4.688-9.986
		c-2.702-2.522-6.022-3.784-9.961-3.784c-4.916,0-8.806,1.97-11.67,5.908c-2.865,3.94-4.297,9.311-4.297,16.114
		c0,6.9,1.432,12.32,4.297,16.26c2.864,3.939,6.771,5.908,11.719,5.908c3.938,0,7.234-1.205,9.888-3.613
		c2.653-2.408,4.256-5.68,4.81-9.814h17.236c-0.423,8.334-3.581,15.047-9.473,20.141
		C345.598,545.581,338.095,548.128,328.981,548.128z"/>
	<path fill="#FFFFFF" d="M376.808,485.042c6.266-6.543,14.738-9.814,25.415-9.814s19.141,3.271,25.391,9.814
		s9.375,15.43,9.375,26.661s-3.125,20.109-9.375,26.635c-6.25,6.527-14.714,9.791-25.391,9.791c-10.71,0-19.189-3.264-25.439-9.791
		c-6.25-6.525-9.375-15.404-9.375-26.635S370.541,491.585,376.808,485.042z M414.259,495.711c-3.011-3.955-7.023-5.933-12.036-5.933
		s-9.025,1.978-12.036,5.933c-3.011,3.955-4.517,9.287-4.517,15.992c0,6.674,1.497,11.986,4.492,15.941
		c2.995,3.955,7.015,5.934,12.061,5.934c5.013,0,9.025-1.979,12.036-5.934c3.011-3.955,4.517-9.268,4.517-15.941
		C418.776,504.997,417.27,499.665,414.259,495.711z"/>
	<path fill="#FFFFFF" d="M523.073,546.908h-15.772v-43.994h-0.342l-17.432,43.262h-10.254l-17.383-43.262h-0.391v43.994h-15.771
		v-70.459h20.703l17.773,45.264h0.391l17.773-45.264h20.704L523.073,546.908L523.073,546.908z"/>
	<path fill="#FFFFFF" d="M551.637,546.908h-17.92v-70.459h17.92V546.908z"/>
	<path fill="#FFFFFF" d="M579.275,546.908h-16.992v-70.459h14.307l29.883,40.967h0.391v-40.967h16.992v70.459h-14.16l-30.029-41.357
		h-0.391L579.275,546.908L579.275,546.908z"/>
	<path fill="#FFFFFF" d="M699.344,517.122c0,9.635-2.832,17.211-8.496,22.729c-5.664,5.518-13.493,8.277-23.486,8.277
		c-10.905,0-19.434-3.215-25.586-9.645c-6.152-6.428-9.229-15.404-9.229-26.928c0-11.393,3.06-20.296,9.18-26.709
		c6.119-6.412,14.518-9.619,25.195-9.619c8.496,0,15.674,2.279,21.533,6.836c5.859,4.558,9.244,10.434,10.156,17.627h-17.724
		c-0.879-3.125-2.556-5.583-5.029-7.374c-2.475-1.79-5.437-2.686-8.887-2.686c-5.078,0-9.042,1.904-11.89,5.713
		c-2.849,3.809-4.272,9.131-4.272,15.967c0,6.934,1.529,12.402,4.59,16.406c3.06,4.004,7.178,6.006,12.354,6.006
		c4.036,0,7.356-1.09,9.961-3.271c2.604-2.182,4.036-5.045,4.297-8.594l0.049-1.074h-12.891v-12.305h30.176v8.644L699.344,517.122
		L699.344,517.122z"/>
</g>
<rect x="267.984" y="556.224" fill="none" width="458.322" height="135.213"/>
<g enable-background="new    ">
	<path fill="#FFFFFF" d="M328.173,639.322c0,6.9,4.974,10.35,14.925,10.35c9.949,0,14.925-3.098,14.925-9.3c0-3.3-1.702-6-5.1-8.1
		c-3.401-2.101-7.526-3.849-12.375-5.25c-4.852-1.399-9.701-3.023-14.55-4.875c-4.852-1.85-8.977-4.749-12.375-8.7
		c-3.401-3.949-5.1-8.873-5.1-14.775c0-25.099,16.148-37.649,48.45-37.649c11.799,0,20.724,2.227,26.775,6.675
		c6.049,4.451,9.075,10.627,9.075,18.525c0,2.901-0.375,5.676-1.125,8.324c-0.75,2.651-1.526,4.526-2.325,5.625l-1.2,1.801h-26.55
		c2.198-2.3,3.3-5.199,3.3-8.7c0-6.499-4.251-9.75-12.75-9.75c-10.702,0-16.05,3.4-16.05,10.2c0,3.4,1.699,6.101,5.1,8.1
		c3.398,2.002,7.523,3.576,12.375,4.725c4.85,1.151,9.725,2.576,14.625,4.275c4.898,1.701,9.049,4.525,12.45,8.475
		c3.398,3.952,5.1,9.075,5.1,15.375c0,12.701-3.802,22.125-11.4,28.275c-7.601,6.15-19.301,9.225-35.1,9.225
		c-15.802,0-26.602-2.798-32.4-8.399c-4.301-4.2-6.45-9.999-6.45-17.4c0-2.798,0.3-5.85,0.9-9.149l0.45-2.4h27l-0.3,1.8
		C328.272,637.622,328.173,638.523,328.173,639.322z"/>
	<path fill="#FFFFFF" d="M455.073,561.021c24.098,0,36.15,9.851,36.15,29.55c0,3.3-0.352,6.851-1.05,10.65l-5.25,30
		c-2.4,13.9-7.601,24.201-15.6,30.899c-8.002,6.701-19.252,10.05-33.75,10.05c-14.501,0-24.6-3.349-30.3-10.05
		c-3.9-4.599-5.85-10.95-5.85-19.05c0-3.6,0.398-7.549,1.2-11.85l5.25-30C410.572,574.422,426.971,561.021,455.073,561.021z
		 M439.622,648.921c4.999,0,9-1.298,12-3.899c3-2.6,5.1-7.399,6.3-14.4l5.1-28.8c0.3-1.999,0.45-3.799,0.45-5.4
		c0-8.1-4.102-12.149-12.3-12.149c-10.301,0.201-16.451,6.052-18.45,17.55l-5.1,28.8c-0.401,2.501-0.6,5.101-0.6,7.8
		C427.022,645.422,431.222,648.921,439.622,648.921z"/>
	<path fill="#FFFFFF" d="M554.672,561.021c24.099,0,36.15,9.851,36.15,29.55c0,3.3-0.352,6.851-1.051,10.65l-5.25,30
		c-2.399,13.9-7.601,24.201-15.6,30.899c-8.002,6.701-19.252,10.05-33.75,10.05c-14.501,0-24.6-3.349-30.3-10.05
		c-3.9-4.599-5.85-10.95-5.85-19.05c0-3.6,0.398-7.549,1.2-11.85l5.25-30C510.17,574.422,526.569,561.021,554.672,561.021z
		 M539.22,648.921c4.999,0,9-1.298,12-3.899c3-2.6,5.101-7.399,6.3-14.4l5.101-28.8c0.3-1.999,0.45-3.799,0.45-5.4
		c0-8.1-4.102-12.149-12.301-12.149c-10.301,0.201-16.45,6.052-18.449,17.55l-5.101,28.8c-0.4,2.501-0.6,5.101-0.6,7.8
		C526.621,645.422,530.822,648.921,539.22,648.921z"/>
	<path fill="#FFFFFF" d="M698.219,562.072l-18.9,108h-27.149l-18.9-59.1l-10.2,59.1h-27.149l19.05-108h27.899l18.601,55.2l9.75-55.2
		H698.219z"/>
</g>
</svg>
