<?xml version="1.0" encoding="utf-8"?>
<!-- Generator: Adobe Illustrator 17.0.0, SVG Export Plug-In . SVG Version: 6.00 Build 0)  -->
<!DOCTYPE svg PUBLIC "-//W3C//DTD SVG 1.1//EN" "http://www.w3.org/Graphics/SVG/1.1/DTD/svg11.dtd">
<svg version="1.1" id="Layer_1" xmlns="http://www.w3.org/2000/svg" xmlns:xlink="http://www.w3.org/1999/xlink" x="0px" y="0px"
	 width="1000px" height="1000px" viewBox="0 0 1000 1000" enable-background="new 0 0 1000 1000" xml:space="preserve">
<g>
	<path fill="none" stroke="#FFFFFF" stroke-width="40" stroke-miterlimit="10" d="M764.546,231.466v-0.086
		c0.086-77.433,0.086-131.386,0.259-137.515c0.345-19.25-19.596-17.438-19.596-17.438H609.594h-72.685H128.767
		c-21.581,0-21.667,15.625-21.667,15.625v797.032c0,20.372,21.667,24.689,21.667,24.689h427.046h36.256h153.139
		c19.941,0,19.596-21.063,19.596-21.063s-0.086-61.981-0.173-151.499"/>
	<polyline fill="none" stroke="#FFFFFF" stroke-width="40" stroke-miterlimit="10" points="743.022,299.432 931.497,495.078 
		743.022,682.136 	"/>
	
		<line fill="none" stroke="#FFFFFF" stroke-width="40" stroke-miterlimit="10" x1="374.705" y1="490.784" x2="931.497" y2="490.784"/>
	<line fill="none" x1="609.594" y1="76.427" x2="536.909" y2="76.427"/>
</g>
</svg>
