<?xml version="1.0" encoding="utf-8"?>
<!-- Generator: Adobe Illustrator 17.0.0, SVG Export Plug-In . SVG Version: 6.00 Build 0)  -->
<!DOCTYPE svg PUBLIC "-//W3C//DTD SVG 1.1//EN" "http://www.w3.org/Graphics/SVG/1.1/DTD/svg11.dtd">
<svg version="1.1" id="Layer_1" xmlns="http://www.w3.org/2000/svg" xmlns:xlink="http://www.w3.org/1999/xlink" x="0px" y="0px"
	 width="1000px" height="1000px" viewBox="0 0 1000 1000" enable-background="new 0 0 1000 1000" xml:space="preserve">
<g>
	<g>
		<path fill="none" stroke="#000000" stroke-width="18" stroke-miterlimit="10" d="M348,562.84V323.18 M348,849H53.96
			c0,0-18.96,1.49-18.96-18.07V66.91c0,0-1.27-18.91,18.96-17.91h579.91c0,0,18.79-0.25,18.41,18.16
			c-0.09,4.43-0.15,35.53-0.18,82.84"/>
		<polygon stroke="#000000" stroke-width="2" stroke-miterlimit="10" points="348,323.18 348,562.84 343.9,568.58 251.87,439.71 
			343.9,317.75 		"/>
		<g>
			<polyline fill="#FFFFFF" stroke="#000000" stroke-width="18" stroke-miterlimit="10" points="532.3,150 549.3,106.03 566.3,150 
							"/>
		</g>
		<g>
			<polyline fill="#FFFFFF" stroke="#000000" stroke-width="18" stroke-miterlimit="10" points="189.209,668.688 172.647,711.528 
				144.282,784.901 116.766,713.727 116.179,712.209 99.354,668.688 			"/>
			<g>
				<line fill="none" stroke="#000000" stroke-width="18" stroke-miterlimit="10" x1="169" y1="715" x2="123" y2="715"/>
			</g>
		</g>
	</g>
	<g>
		<g>
			<path fill="none" stroke="#000000" stroke-width="18" stroke-miterlimit="10" d="M348,562.84V849v83.18
				c0,19.56,18.93,18.82,18.93,18.82h579.91c18.79,0,18.41-18.55,18.41-18.55s-0.47-741.15,0-764.16
				c0.38-18.41-18.41-18.29-18.41-18.29H652.1h-85.8h-34H366.93C346.7,150,348,168.16,348,168.16v155.02"/>
		</g>
		<g>
			<line fill="none" stroke="#000000" stroke-width="18" stroke-miterlimit="10" x1="399" y1="201" x2="399" y2="329"/>
			
				<line fill="none" stroke="#000000" stroke-width="18" stroke-miterlimit="10" x1="467.032" y1="206.136" x2="399.145" y2="283.228"/>
			
				<line fill="none" stroke="#000000" stroke-width="18" stroke-miterlimit="10" x1="476.237" y1="329.253" x2="424.835" y2="254.055"/>
		</g>
		<g>
			<line fill="none" stroke="#000000" stroke-width="18" stroke-miterlimit="10" x1="905" y1="900" x2="905" y2="771"/>
			
				<line fill="none" stroke="#000000" stroke-width="18" stroke-miterlimit="10" x1="836.521" y1="892.115" x2="905.421" y2="817.776"/>
			
				<line fill="none" stroke="#000000" stroke-width="18" stroke-miterlimit="10" x1="827.178" y1="773.395" x2="879.348" y2="845.907"/>
		</g>
		<g>
			<path d="M499.85,845.93l-3.26,3.07L455,888.15l-0.62,0.58l-6.22,5.94l-0.14,0.14l-1.09-0.92l-1.93-1.75V771h21.34
				c0,0-9.2,20.67-9.29,42.48c1.19-2.12,4.51-4.95,13.44-7.89c13.8-4.6,25.31,6.91,25.31,6.91c8.65,7.46,9.2,14.37,9.2,14.37
				C508.5,834.97,499.85,845.93,499.85,845.93z"/>
			<path d="M455,771v117.73l-6.66,6.08l-0.18-0.14l-0.99-0.78l-2.17-1.91L396.18,849l-3.49-3.07c0,0-8.7-10.95-5.2-19.05
				c0,0,0.54-6.91,9.19-14.36c0,0,11.49-11.51,25.3-6.91c8.93,2.95,12.24,5.75,13.44,7.87c-0.1-21.81-9.31-42.48-9.31-42.48H455z"/>
		</g>
		<g>
			<path d="M859,212.26V329h-18.66c0,0,9.21-18.47,9.3-40.28c-1.2,2.11-4.51,6.04-13.44,8.99c-13.81,4.6-25.31-6.37-25.31-6.37
				c-8.66-7.45-9.21-14.09-9.21-14.09c-3.5-8.1,5.16-18.78,5.16-18.78L852,215.95l0.31-0.29l1.19-1.13l5.16-4.94l-0.24,0.92
				l0.08,0.23L859,212.26z"/>
			<path d="M922.02,277.52c0,0-0.45,6.9-9.1,14.36c0,0-11.46,11.51-25.26,6.9c-8.93-2.94-12.22-7.95-13.42-10.06
				c0.09,21.81,9.33,40.28,9.33,40.28H852V215.66l1.5-1.13l5-3.79l1.51-1.15l1.83,0.92l54.82,47.96
				C916.66,258.47,925.52,269.42,922.02,277.52z"/>
		</g>
		<g>
			<path d="M853.26,583.39c0,0-19.75,16.11-31.26,14.38l-0.57,58.11c0,0-6.51,34.76-66.76,48.12c-15.03,3.33-44.17,8.75-61.54,2.51
				c-6.42-2.31-19.62-16.56,11.51-24.74c17.15-4.51,54.64-4.96,69.4-14.81c14.02-9.35,14.01-13.82,15.18-18.95
				c1.66-7.26-2.31-15.72-2.31-15.72c-8.63,5.18-20.01,9.46-27.29,10.46c-19.97,2.76-29.74-3.66-36.12-8.5
				c-10.38-7.87-13.29-17.28-12.5-24.37c1-9,6.72-17.2,12.05-19.01c13.61-4.64,17.83,3.45,17.83,3.45c-4.6,0-10.26,4.78-10.35,8.06
				c-0.28,9.87,11.12,10.13,15.54,9.2c9.3-1.96,20.14-14.96,20.14-14.96c12.08-32.22,40.86-32.22,40.86-32.22
				c13.23-1.72,12.62-7.76,12.62-7.76l-35.29-57.97c-14.39-16.68-36.55-17.76-36.55-17.76c-20.14-2.87-40.25,0.9-40.25,0.9
				c-22.93,3.86-40.6,41.75-40.6,41.75s2.57,84.25,0,112.18c-1.21,13.1-0.14,10.29-4.88,26.64c-2.12,7.3-5.62,14.42-9.93,21.16v0.01
				c-18.95,29.71-53.46,52.26-53.46,52.26c-28.76,14.96-58.15,17.8-58.15,17.8c-23.01,1.73-42.62-4.49-55.58-10.61
				c-22.32-10.54-28.36-19.97-33.67-29.33c-10.39-18.33-1.51-49.16-1.51-49.16c12.26-37.4,69.28-40.27,69.28-40.27
				s-1.37-81.76,2.01-108.74c1.13-9.01,4.6-19.56,17.84-31.64l-1.73-138.65c13.23-27.61,35.09-6.33,35.09-6.33l28.19,29.92
				c0,0,14.06,8.66,20.71-1.15c10.06-14.85,20.99-47.28,30.86-62.95c0-0.01,0-0.01,0-0.01c0.2-0.31,0.39-0.61,0.58-0.9
				c4.49-6.86,17.35-24.12,32.68,0c8.7,13.68,22.06,45.83,31.94,58.68c4.47,5.81,14.37,12.08,29.32,0c0,0,17.92-17.44,24.08-24.47
				c4.92-5.62,18.66-20.67,33.33-0.27v130.6l46.11,75.36C850.11,543.69,867.84,566.13,853.26,583.39z"/>
			<path d="M763.89,537.37c0,10.16-8.24,18.41-18.41,18.41c-10.16,0-18.41-8.25-18.41-18.41c0-10.17,8.25-18.41,18.41-18.41
				C755.65,518.96,763.89,527.2,763.89,537.37z"/>
		</g>
	</g>
</g>
</svg>
