<?xml version="1.0" encoding="utf-8"?>
<!-- Generator: Adobe Illustrator 17.0.0, SVG Export Plug-In . SVG Version: 6.00 Build 0)  -->
<!DOCTYPE svg PUBLIC "-//W3C//DTD SVG 1.1//EN" "http://www.w3.org/Graphics/SVG/1.1/DTD/svg11.dtd">
<svg version="1.1" id="Layer_1" xmlns="http://www.w3.org/2000/svg" xmlns:xlink="http://www.w3.org/1999/xlink" x="0px" y="0px"
	 width="1000px" height="1000px" viewBox="0 0 1000 1000" enable-background="new 0 0 1000 1000" xml:space="preserve">
<linearGradient id="SVGID_1_" gradientUnits="userSpaceOnUse" x1="-207.2426" y1="985.3928" x2="436.0951" y2="342.0552" gradientTransform="matrix(1 0 0 -1 202.34 1080.04)">
	<stop  offset="0" style="stop-color:#04BEFE"/>
	<stop  offset="1" style="stop-color:#4481EB"/>
</linearGradient>
<path fill="url(#SVGID_1_)" d="M144.47,739.54l12.54,36.86c2.85,8.36,4.75,15.96,6.65,23.37h0.38c1.9-7.6,3.99-15.39,6.46-23.18
	l12.54-37.05H144.47z M581.18,163l-2.89-8.5l-2.02-5.92c-2.85-8.36-4.75-15.96-6.65-23.37h-0.38c-1.9,7.6-3.99,15.39-6.46,23.18
	l-2.07,6.11l-2.87,8.5l-7.6,22.44h38.57L581.18,163z M581.18,163l-2.89-8.5l-2.02-5.92c-2.85-8.36-4.75-15.96-6.65-23.37h-0.38
	c-1.9,7.6-3.99,15.39-6.46,23.18l-2.07,6.11l-2.87,8.5l-7.6,22.44h38.57L581.18,163z M144.47,739.54l12.54,36.86
	c2.85,8.36,4.75,15.96,6.65,23.37h0.38c1.9-7.6,3.99-15.39,6.46-23.18l12.54-37.05H144.47z M144.47,739.54l12.54,36.86
	c2.85,8.36,4.75,15.96,6.65,23.37h0.38c1.9-7.6,3.99-15.39,6.46-23.18l12.54-37.05H144.47z M581.18,163l-2.89-8.5l-2.02-5.92
	c-2.85-8.36-4.75-15.96-6.65-23.37h-0.38c-1.9,7.6-3.99,15.39-6.46,23.18l-2.07,6.11l-2.87,8.5l-7.6,22.44h38.57L581.18,163z
	 M144.47,739.54l12.54,36.86c2.85,8.36,4.75,15.96,6.65,23.37h0.38c1.9-7.6,3.99-15.39,6.46-23.18l12.54-37.05H144.47z M581.18,163
	l-2.89-8.5l-2.02-5.92c-2.85-8.36-4.75-15.96-6.65-23.37h-0.38c-1.9,7.6-3.99,15.39-6.46,23.18l-2.07,6.11l-2.87,8.5l-7.6,22.44
	h38.57L581.18,163z M144.47,739.54l12.54,36.86c2.85,8.36,4.75,15.96,6.65,23.37h0.38c1.9-7.6,3.99-15.39,6.46-23.18l12.54-37.05
	H144.47z M396.87,218.39v119.98h8.53V225.16h6.87v-6.77H396.87z M405.69,858.93c0,0-8.7-10.95-5.2-19.05c0,0,0.17-2.22,1.9-5.5
	c-0.75,0.63-1.15,1.04-1.15,1.04c-8.84,7.65-9.39,14.75-9.39,14.75c-3.57,8.33,5.32,19.58,5.32,19.58L408.74,880h20.88
	L405.69,858.93z M442.38,792.74h-11.06c0,0,5.31,11.99,7.99,27.46c5.73,2.36,8.13,4.55,9.11,6.28
	C448.36,813.43,445.04,800.79,442.38,792.74z M431.55,284.57l-2.57,2.97l33.9,50.83h4.75L431.55,284.57z M458.64,218.39
	l-36.46,45.03c-0.56,0.73-1.13,1.48-1.71,2.24v15.79h0.52c3.12-4.5,6.23-8.66,9.18-12.47l35.68-43.82h6.16l5.74-6.77H458.64z
	 M490.47,880h5.38l10.82-10.25c0,0,3.53-4.5,5.23-9.92L490.47,880z M546.89,354.1l1.77,142.5c-13.53,12.42-17.07,23.26-18.23,32.52
	c-2.99,24.07-2.34,90.56-2.11,107.69c3.6-0.46,5.78-0.57,5.78-0.57s-1.37-81.76,2.01-108.74c1.13-9.01,4.6-19.56,17.84-31.64
	l-1.73-138.65c9.11-19.01,22.3-14.85,29.64-10.41C577.59,343.13,558.81,329.09,546.89,354.1z M581.18,163l-2.89-8.5l-2.02-5.92
	c-2.85-8.36-4.75-15.96-6.65-23.37h-0.38c-1.9,7.6-3.99,15.39-6.46,23.18l-2.07,6.11l-2.87,8.5l-7.6,22.44h38.57L581.18,163z
	 M613.73,747.81c-28.76,14.96-58.15,17.8-58.15,17.8c-23.01,1.73-42.62-4.49-55.58-10.61c-22.32-10.54-28.36-19.97-33.67-29.33
	c-10.39-18.33-1.51-49.16-1.51-49.16c2.75-8.39,7.75-15.04,13.85-20.3c-9.3,6.03-17.29,14.42-21.08,26.06c0,0-9.08,31.68,1.54,50.52
	c5.43,9.62,11.6,19.31,34.4,30.15c13.25,6.29,33.29,12.68,56.8,10.9c0,0,30.03-2.92,59.42-18.29c0,0,47.45-31.2,62.49-68.89
	C655.3,720.65,613.73,747.81,613.73,747.81z M686.62,299.89c-10.31-4.64-18.38,6.43-21.77,11.64
	c-10.24,15.72-21.65,50.08-32.13,65.64c-4.81,7.14-13.42,4.76-18.03,2.77l0.81,0.86c0,0,14.06,8.66,20.71-1.15
	c10.26-15.14,21.42-48.57,31.44-63.86c3.32-5.07,11.22-15.84,21.31-11.33v-3.27C688.17,300.66,687.39,300.23,686.62,299.89z
	 M144.47,739.54l12.54,36.86c2.85,8.36,4.75,15.96,6.65,23.37h0.38c1.9-7.6,3.99-15.39,6.46-23.18l12.54-37.05H144.47z M669.7,44
	H56.06C34.66,43,36,62.72,36,62.72v798.39C36,881.55,56.06,880,56.06,880H351.5V565.62l-80.64-112.91l80.64-106.85v-172.7
	c0,0-1.33-18.66,19.34-18.66h174.17l14.92-43.92h19.95l14.99,43.92h94.12c0.04-52.21,0.1-86.74,0.19-91.52
	C689.58,43.74,669.7,44,669.7,44z M173.35,814.4H153.4l-43.7-128.06h17.67l13.68,40.28h45.41l13.3-40.28h17.1L173.35,814.4z
	 M569.62,125.21h-0.38c-1.9,7.6-3.99,15.39-6.46,23.18l-2.07,6.11h17.58l-2.02-5.92C573.42,140.22,571.52,132.62,569.62,125.21z
	 M157.01,776.4c2.85,8.36,4.75,15.96,6.65,23.37h0.38c1.9-7.6,3.99-15.39,6.46-23.18l12.54-37.05h-38.57L157.01,776.4z M581.18,163
	l-2.89-8.5l-2.02-5.92c-2.85-8.36-4.75-15.96-6.65-23.37h-0.38c-1.9,7.6-3.99,15.39-6.46,23.18l-2.07,6.11l-2.87,8.5l-7.6,22.44
	h38.57L581.18,163z M144.47,739.54l12.54,36.86c2.85,8.36,4.75,15.96,6.65,23.37h0.38c1.9-7.6,3.99-15.39,6.46-23.18l12.54-37.05
	H144.47z M581.18,163l-2.89-8.5l-2.02-5.92c-2.85-8.36-4.75-15.96-6.65-23.37h-0.38c-1.9,7.6-3.99,15.39-6.46,23.18l-2.07,6.11
	l-2.87,8.5l-7.6,22.44h38.57L581.18,163z M144.47,739.54l12.54,36.86c2.85,8.36,4.75,15.96,6.65,23.37h0.38
	c1.9-7.6,3.99-15.39,6.46-23.18l12.54-37.05H144.47z M581.18,163l-2.89-8.5l-2.02-5.92c-2.85-8.36-4.75-15.96-6.65-23.37h-0.38
	c-1.9,7.6-3.99,15.39-6.46,23.18l-2.07,6.11l-2.87,8.5l-7.6,22.44h38.57L581.18,163z M144.47,739.54l12.54,36.86
	c2.85,8.36,4.75,15.96,6.65,23.37h0.38c1.9-7.6,3.99-15.39,6.46-23.18l12.54-37.05H144.47z M581.18,163l-2.89-8.5l-2.02-5.92
	c-2.85-8.36-4.75-15.96-6.65-23.37h-0.38c-1.9,7.6-3.99,15.39-6.46,23.18l-2.07,6.11l-2.87,8.5l-7.6,22.44h38.57L581.18,163z
	 M144.47,739.54l12.54,36.86c2.85,8.36,4.75,15.96,6.65,23.37h0.38c1.9-7.6,3.99-15.39,6.46-23.18l12.54-37.05H144.47z
	 M144.47,739.54l12.54,36.86c2.85,8.36,4.75,15.96,6.65,23.37h0.38c1.9-7.6,3.99-15.39,6.46-23.18l12.54-37.05H144.47z
	 M144.47,739.54l12.54,36.86c2.85,8.36,4.75,15.96,6.65,23.37h0.38c1.9-7.6,3.99-15.39,6.46-23.18l12.54-37.05H144.47z"/>
<g>
	<line fill="none" stroke="#FFFFFF" stroke-width="18" stroke-miterlimit="10" x1="541" y1="185" x2="587" y2="185"/>
</g>
<g>
	
		<linearGradient id="SVGID_2_" gradientUnits="userSpaceOnUse" x1="117.6362" y1="866.2814" x2="816.8463" y2="167.0714" gradientTransform="matrix(1 0 0 -1 202.34 1080.04)">
		<stop  offset="0" style="stop-color:#04BEFE"/>
		<stop  offset="1" style="stop-color:#4481EB"/>
	</linearGradient>
	<path fill="url(#SVGID_2_)" d="M978.25,945.45c0,0-0.47-741.15,0-764.16c0.38-18.41-18.41-18.29-18.41-18.29H379.93
		C359.7,163,361,181.16,361,181.16v764.02c0,19.56,18.93,18.82,18.93,18.82h579.91C978.63,964,978.25,945.45,978.25,945.45z
		 M405.4,225.16h15.07v56.29h0.52c3.12-4.5,6.23-8.66,9.18-12.47l35.68-43.82h18.7l-42.26,49.54l45.55,67.2H470l-38.45-57.33
		l-11.08,12.82v44.51H405.4V225.16z M468,901.15l-0.62,0.58l-6.22,5.94l-0.99-0.78l-2.17-1.91L429.62,880l-23.93-21.07
		c0,0-8.7-10.95-5.2-19.05c0,0,0.54-6.91,9.19-14.36c0,0,11.49-11.51,25.3-6.91c8.93,2.95,12.24,5.75,13.44,7.87
		c-0.1-21.81-9.31-42.48-9.31-42.48h40.23c0,0-9.2,20.67-9.29,42.48c1.19-2.12,4.51-4.95,13.44-7.89c13.8-4.6,25.31,6.91,25.31,6.91
		c8.65,7.46,9.2,14.37,9.2,14.37c3.5,8.1-5.15,19.06-5.15,19.06L490.47,880L468,901.15z M837,609.77l-0.57,58.11
		c0,0-6.51,34.76-66.76,48.12c-15.03,3.33-44.17,8.75-61.54,2.51c-6.42-2.31-19.62-16.56,11.51-24.74
		c17.15-4.51,54.64-4.96,69.4-14.81c14.02-9.35,14.01-13.82,15.18-18.95c1.66-7.26-2.31-15.72-2.31-15.72
		c-8.63,5.18-20.01,9.46-27.29,10.46c-19.97,2.76-29.74-3.66-36.12-8.5c-10.38-7.87-13.29-17.28-12.5-24.37
		c1-9,6.72-17.2,12.05-19.01c13.61-4.64,17.83,3.45,17.83,3.45c-4.6,0-10.26,4.78-10.35,8.06c-0.28,9.87,11.12,10.13,15.54,9.2
		c9.3-1.96,20.14-14.96,20.14-14.96c12.08-32.22,40.86-32.22,40.86-32.22c13.23-1.72,12.62-7.76,12.62-7.76l-35.29-57.97
		c-14.39-16.68-36.55-17.76-36.55-17.76c-20.14-2.87-40.25,0.9-40.25,0.9c-14.2,2.39-26.37,17.82-33.59,29.23
		c-4.44,7.02-7.01,12.52-7.01,12.52s2.57,84.25,0,112.18c-1.21,13.1-0.14,10.29-4.88,26.64c-11.43,39.48-63.39,73.43-63.39,73.43
		c-28.76,14.96-58.15,17.8-58.15,17.8c-23.01,1.73-42.62-4.49-55.58-10.61c-22.32-10.54-28.36-19.97-33.67-29.33
		c-10.39-18.33-1.51-49.16-1.51-49.16c12.26-37.4,69.28-40.27,69.28-40.27s-1.37-81.76,2.01-108.74c1.13-9.01,4.6-19.56,17.84-31.64
		l-1.73-138.65c13.23-27.61,35.09-6.33,35.09-6.33l28.19,29.92c0,0,14.06,8.66,20.71-1.15c10.26-15.14,21.42-48.57,31.44-63.86
		c3.32-5.07,11.22-15.84,21.31-11.33c3.55,1.57,7.38,5.05,11.37,11.33c8.7,13.68,22.06,45.83,31.94,58.68
		c4.47,5.81,14.37,12.08,29.32,0c0,0,17.92-17.44,24.08-24.47c4.92-5.62,18.66-20.67,33.33-0.27v130.6l46.11,75.36
		c0,0,17.73,22.44,3.15,39.7C868.26,595.39,848.51,611.5,837,609.77z M742.07,549.37c0-10.17,8.25-18.41,18.41-18.41
		c10.17,0,18.41,8.24,18.41,18.41c0,10.16-8.24,18.41-18.41,18.41C750.32,567.78,742.07,559.53,742.07,549.37z M925.19,900.74
		h-15.07v-56.29h-0.52c-3.11,4.5-6.23,8.66-9.17,12.47l-35.68,43.82h-18.71l42.26-49.54L842.75,784h17.84l38.45,57.33l11.08-12.82
		V784h15.07L925.19,900.74L925.19,900.74z M934.02,290.52c0,0-0.45,6.9-9.1,14.36c0,0-11.46,11.51-25.26,6.9
		c-8.93-2.94-12.22-7.95-13.42-10.06c0.09,21.81,9.33,40.28,9.33,40.28h-42.23c0,0,9.21-18.47,9.3-40.28
		c-1.2,2.11-4.51,6.04-13.44,8.99c-13.81,4.6-25.31-6.37-25.31-6.37c-8.66-7.45-9.21-14.09-9.21-14.09
		c-3.5-8.1,5.16-18.78,5.16-18.78L864,229.89l1.31-1.23l5.01-4.79l1.25-0.95l0.44-0.33l1.83,0.92l54.82,47.96
		C928.66,271.47,937.52,282.42,934.02,290.52z"/>
</g>
</svg>
