<?xml version="1.0" encoding="utf-8"?>
<!-- Generator: Adobe Illustrator 17.0.0, SVG Export Plug-In . SVG Version: 6.00 Build 0)  -->
<!DOCTYPE svg PUBLIC "-//W3C//DTD SVG 1.1//EN" "http://www.w3.org/Graphics/SVG/1.1/DTD/svg11.dtd">
<svg version="1.1" id="Layer_1" xmlns="http://www.w3.org/2000/svg" xmlns:xlink="http://www.w3.org/1999/xlink" x="0px" y="0px"
	 width="1000px" height="1000px" viewBox="0 0 1000 1000" enable-background="new 0 0 1000 1000" xml:space="preserve">
<linearGradient id="SVGID_1_" gradientUnits="userSpaceOnUse" x1="113.6406" y1="1053.7301" x2="893.215" y2="274.1559">
	<stop  offset="0" style="stop-color:#04BEFE"/>
	<stop  offset="1" style="stop-color:#4481EB"/>
</linearGradient>
<path fill="url(#SVGID_1_)" d="M360.875,989.38L361,569.183c0,0,0.29-8.17,4.912-14.485c4.809-6.586,16.529-5.698,16.529-5.698
	h241.796c0,0,11.386-0.888,16.195,5.698c4.601,6.284,4.568,14.413,4.568,14.485l-0.25,420.198l304.837-0.049
	c0,0,8.598,1.07,14.583-6.793c6.027-7.884,5.829-13.192,5.829-13.192V362.204c0,0,0.073-9.068-2.904-13.68
	c-2.113-3.251-10.982-10.907-10.982-10.907L531.855,22.744l-3.456-2.566c0,0-11.7-9.993-25.055-10.512
	c-12.97,0.519-25.05,10.533-25.05,10.533l-3.438,2.545L50.69,337.617c0,0-8.807,7.655-10.92,10.907
	c-2.977,4.612-2.77,13.68-2.77,13.68v607.142c0,0-0.333,5.308,5.694,13.192c5.985,7.863,14.438,6.793,14.438,6.793L360.875,989.38z"
	/>
</svg>
