<?xml version="1.0" encoding="utf-8"?>
<!-- Generator: Adobe Illustrator 17.0.0, SVG Export Plug-In . SVG Version: 6.00 Build 0)  -->
<!DOCTYPE svg PUBLIC "-//W3C//DTD SVG 1.1//EN" "http://www.w3.org/Graphics/SVG/1.1/DTD/svg11.dtd">
<svg version="1.1" id="Layer_1" xmlns="http://www.w3.org/2000/svg" xmlns:xlink="http://www.w3.org/1999/xlink" x="0px" y="0px"
	 width="1000px" height="1000px" viewBox="0 0 1000 1000" enable-background="new 0 0 1000 1000" xml:space="preserve">
<linearGradient id="SVGID_1_" gradientUnits="userSpaceOnUse" x1="77.3456" y1="923.6544" x2="927.6544" y2="73.3456">
	<stop  offset="0" style="stop-color:#04BEFE"/>
	<stop  offset="1" style="stop-color:#4481EB"/>
</linearGradient>
<path fill="url(#SVGID_1_)" d="M968,826.251C968,902.328,906.328,964,830.251,964H174.749C98.672,964,37,902.328,37,826.251V170.749
	C37,94.672,98.672,33,174.749,33h655.503C906.328,33,968,94.672,968,170.749V826.251z"/>
<g>
	<g>
		<g>
			<circle fill="none" stroke="#FFFFFF" stroke-width="18" stroke-miterlimit="10" cx="500.469" cy="575.681" r="299.335"/>
			<circle fill="#FFFFFF" cx="253.409" cy="578.995" r="16.508"/>
			<circle fill="#FFFFFF" cx="261.664" cy="529.47" r="16.508"/>
			<circle fill="#FFFFFF" cx="274.045" cy="484.073" r="16.508"/>
			<circle fill="#FFFFFF" cx="294.68" cy="438.676" r="16.508"/>
			<circle fill="#FFFFFF" cx="324.257" cy="397.405" r="16.508"/>
			<circle fill="#FFFFFF" cx="365.527" cy="368.516" r="16.508"/>
			<circle fill="#FFFFFF" cx="406.798" cy="343.754" r="16.508"/>
			<circle fill="#FFFFFF" cx="451.507" cy="331.373" r="16.508"/>
			<circle fill="#FFFFFF" cx="497.592" cy="323.118" r="16.508"/>
			<ellipse fill="#FFFFFF" cx="741.679" cy="578.995" rx="16.467" ry="16.508"/>
			<ellipse fill="#FFFFFF" cx="733.445" cy="529.47" rx="16.467" ry="16.508"/>
			<ellipse fill="#FFFFFF" cx="721.095" cy="484.073" rx="16.467" ry="16.508"/>
			<ellipse fill="#FFFFFF" cx="700.511" cy="438.676" rx="16.467" ry="16.508"/>
			<ellipse fill="#FFFFFF" cx="671.007" cy="397.405" rx="16.467" ry="16.508"/>
			<ellipse fill="#FFFFFF" cx="629.839" cy="368.516" rx="16.467" ry="16.508"/>
			<ellipse fill="#FFFFFF" cx="588.671" cy="343.754" rx="16.467" ry="16.508"/>
			<ellipse fill="#FFFFFF" cx="544.073" cy="331.373" rx="16.467" ry="16.508"/>
			<circle fill="#FFFFFF" cx="261.664" cy="629.809" r="16.508"/>
			<circle fill="#FFFFFF" cx="274.045" cy="675.206" r="16.508"/>
			<circle fill="#FFFFFF" cx="294.68" cy="720.604" r="16.508"/>
			<circle fill="#FFFFFF" cx="324.257" cy="761.874" r="16.508"/>
			<circle fill="#FFFFFF" cx="365.527" cy="790.763" r="16.508"/>
			<circle fill="#FFFFFF" cx="406.798" cy="815.526" r="16.508"/>
			<circle fill="#FFFFFF" cx="451.507" cy="827.907" r="16.508"/>
			<circle fill="#FFFFFF" cx="497.592" cy="836.161" r="16.508"/>
			<ellipse fill="#FFFFFF" cx="733.445" cy="629.809" rx="16.467" ry="16.508"/>
			<ellipse fill="#FFFFFF" cx="721.095" cy="675.206" rx="16.467" ry="16.508"/>
			<ellipse fill="#FFFFFF" cx="700.511" cy="720.604" rx="16.467" ry="16.508"/>
			<ellipse fill="#FFFFFF" cx="671.007" cy="761.874" rx="16.467" ry="16.508"/>
			<ellipse fill="#FFFFFF" cx="629.839" cy="790.763" rx="16.467" ry="16.508"/>
			<ellipse fill="#FFFFFF" cx="588.671" cy="815.526" rx="16.467" ry="16.508"/>
			<ellipse fill="#FFFFFF" cx="544.073" cy="827.907" rx="16.467" ry="16.508"/>
			<g>
				<path fill="#FFFFFF" d="M345.796,523.179c10.287,43.706,65.285,129.11,116.707,146.325c6.531,2.186,17.595,6.291,48.291,3.354
					c0,0,5.813,1.348,7.154-7.825c0,0,0,0,2.236-21.016c0,0,5.813-8.049,24.593,8.496c0,0,18.333,14.308,27.723,19.674
					c0,0,26.828,4.919,62.6-0.894c0,0,6.26-1.789,7.154-8.496c0,0,1.341-3.801-6.26-12.073c0,0-28.17-31.747-40.69-41.584
					c0,0-4.471-3.13-0.447-7.154c0,0,27.276-31.971,40.913-61.929c0,0,6.175-13.204,6.484-22.581c0,0-1.118-2.683-6.707-3.577
					c-10.043-1.607-33.088-5.813-55.893,0c-5.04,1.285-6.235,5.429-11.179,15.203c-7.492,14.813-23.521,44.296-28.168,51.95
					c0,0-4.424,8.806-12.298,9.085c-1.513,0.054-9.613-1.931-11.402-11.849c0,0,0.447-50.08-0.671-52.763c0,0-2.52-8.719-9.898-9.39
					c0,0-26.544-4.919-50.466-0.224c0,0-5.589,0.224-8.943,5.142c0,0-1.565,3.13,3.801,4.919c0,0,5.366-0.224,6.707,2.906
					c0,0,0.78,38.468-3.577,50.974c0,0-1.565,6.484-4.919,7.378c0,0-3.801,0.224-6.484-3.577c0,0-29.735-51.645-34.653-61.482
					c0,0-3.983-4.926-8.496-6.26c0,0-42.771-6.403-50.527-0.447C346.862,516.708,345.328,521.191,345.796,523.179z"/>
			</g>
		</g>
	</g>
	<g>
		<g>
			<path fill="none" stroke="#FFFFFF" stroke-width="12" stroke-miterlimit="10" d="M786.871,501.015
				c68.875-28.884,117.236-96.937,117.236-176.294c0-105.561-85.576-191.137-191.137-191.137
				c-86.064,0-158.831,56.887-182.767,135.09"/>
			<circle fill="#FFFFFF" cx="568.401" cy="266.224" r="10.541"/>
			<circle fill="#FFFFFF" cx="581.576" cy="237.238" r="10.541"/>
			<circle fill="#FFFFFF" cx="600.461" cy="210.886" r="10.541"/>
			<circle fill="#FFFFFF" cx="626.813" cy="192.44" r="10.541"/>
			<circle fill="#FFFFFF" cx="653.164" cy="176.63" r="10.541"/>
			<circle fill="#FFFFFF" cx="681.711" cy="168.724" r="10.541"/>
			<circle fill="#FFFFFF" cx="711.137" cy="163.454" r="10.541"/>
			<ellipse fill="#FFFFFF" cx="866.988" cy="326.832" rx="10.514" ry="10.541"/>
			<ellipse fill="#FFFFFF" cx="861.731" cy="295.211" rx="10.514" ry="10.541"/>
			<ellipse fill="#FFFFFF" cx="853.845" cy="266.224" rx="10.514" ry="10.541"/>
			<ellipse fill="#FFFFFF" cx="840.702" cy="237.238" rx="10.514" ry="10.541"/>
			<ellipse fill="#FFFFFF" cx="821.863" cy="210.886" rx="10.514" ry="10.541"/>
			<ellipse fill="#FFFFFF" cx="795.577" cy="192.44" rx="10.514" ry="10.541"/>
			<ellipse fill="#FFFFFF" cx="769.292" cy="176.63" rx="10.514" ry="10.541"/>
			<ellipse fill="#FFFFFF" cx="740.815" cy="168.724" rx="10.514" ry="10.541"/>
			<ellipse fill="#FFFFFF" cx="861.731" cy="359.278" rx="10.514" ry="10.541"/>
			<ellipse fill="#FFFFFF" cx="853.845" cy="388.264" rx="10.514" ry="10.541"/>
			<ellipse fill="#FFFFFF" cx="840.702" cy="417.251" rx="10.514" ry="10.541"/>
			<ellipse fill="#FFFFFF" cx="821.863" cy="443.602" rx="10.514" ry="10.541"/>
			<ellipse fill="#FFFFFF" cx="795.577" cy="462.048" rx="10.514" ry="10.541"/>
			<g>
				<path fill="#FFFFFF" d="M614.195,291.046c-0.196-1.33,0.743-4.028,1.74-4.772c4.948-3.813,32.247,0.274,32.247,0.274
					c2.894,0.86,5.436,4.009,5.436,4.009c2.484,4.987,15.019,26.889,20.045,35.63c1.271,2.249,2.073,3.618,2.073,3.618
					c1.721,2.425,4.146,2.288,4.146,2.288c0.274-0.078,0.508-0.196,0.743-0.352c1.623-1.193,2.405-4.361,2.405-4.361
					c2.777-7.979,2.268-32.541,2.268-32.541c-0.841-2.014-4.283-1.858-4.283-1.858c-3.422-1.154-2.425-3.148-2.425-3.148
					c2.151-3.129,5.71-3.285,5.71-3.285c15.273-2.992,32.228,0.156,32.228,0.156c4.713,0.411,6.316,5.984,6.316,5.984
					c0.724,1.721,0.43,33.694,0.43,33.694c1.134,6.336,6.316,7.607,7.275,7.568c5.026-0.176,7.861-5.808,7.861-5.808
					c2.972-4.889,13.2-23.701,17.991-33.166c3.148-6.238,3.911-8.878,7.138-9.7c14.549-3.716,29.275-1.036,35.689,0
					c3.559,0.567,4.283,2.268,4.283,2.268c-0.215,6.004-4.146,14.432-4.146,14.432c-8.702,19.125-26.126,39.542-26.126,39.542
					c-2.562,2.562,0.293,4.556,0.293,4.556c7.979,6.277,25.97,26.557,25.97,26.557c4.85,5.28,4.009,7.705,4.009,7.705
					c-0.587,4.283-4.576,5.436-4.576,5.436c-22.841,3.696-39.972,0.567-39.972,0.567c-6.004-3.422-17.698-12.574-17.698-12.574
					c-11.988-10.56-15.703-5.417-15.703-5.417c-0.332,3.109-0.587,5.515-0.782,7.333L614.195,291.046z"/>
			</g>
		</g>
	</g>
	<g>
		<g>
			<path fill="none" stroke="#FFFFFF" stroke-width="12" stroke-miterlimit="10" d="M205.384,490.455
				c-52.038-34.125-86.377-92.987-86.377-159.868c0-105.561,85.556-191.137,191.117-191.137
				c83.835,0,155.076,53.993,180.831,129.087"/>
			<circle fill="#FFFFFF" cx="152.378" cy="332.699" r="10.541"/>
			<circle fill="#FFFFFF" cx="157.649" cy="301.078" r="10.541"/>
			<circle fill="#FFFFFF" cx="165.554" cy="272.091" r="10.541"/>
			<circle fill="#FFFFFF" cx="178.73" cy="243.105" r="10.541"/>
			<circle fill="#FFFFFF" cx="197.615" cy="216.753" r="10.541"/>
			<circle fill="#FFFFFF" cx="223.966" cy="198.307" r="10.541"/>
			<circle fill="#FFFFFF" cx="250.318" cy="182.496" r="10.541"/>
			<circle fill="#FFFFFF" cx="278.865" cy="174.591" r="10.541"/>
			<circle fill="#FFFFFF" cx="308.291" cy="169.321" r="10.541"/>
			<ellipse fill="#FFFFFF" cx="450.998" cy="272.091" rx="10.514" ry="10.541"/>
			<ellipse fill="#FFFFFF" cx="437.855" cy="243.105" rx="10.514" ry="10.541"/>
			<ellipse fill="#FFFFFF" cx="419.017" cy="216.753" rx="10.514" ry="10.541"/>
			<ellipse fill="#FFFFFF" cx="392.731" cy="198.307" rx="10.514" ry="10.541"/>
			<ellipse fill="#FFFFFF" cx="366.445" cy="182.496" rx="10.514" ry="10.541"/>
			<ellipse fill="#FFFFFF" cx="337.968" cy="174.591" rx="10.514" ry="10.541"/>
			<circle fill="#FFFFFF" cx="157.649" cy="365.144" r="10.541"/>
			<circle fill="#FFFFFF" cx="165.554" cy="394.131" r="10.541"/>
			<circle fill="#FFFFFF" cx="178.73" cy="423.117" r="10.541"/>
			<circle fill="#FFFFFF" cx="197.615" cy="449.469" r="10.541"/>
			<g>
				<path fill="#FFFFFF" d="M319.999,298.555c0.489,1.173,0.508,16.212,0.469,25.794c-21.12,15.136-40.187,32.932-56.711,52.918
					c-25.051-20.944-47.305-58.569-52.39-80.198c-0.293-1.271,0.684-4.146,1.721-4.928c4.948-3.813,32.247,0.274,32.247,0.274
					c2.894,0.86,5.436,4.009,5.436,4.009c3.129,6.277,22.117,39.248,22.117,39.248c1.721,2.425,4.146,2.288,4.146,2.288
					c2.132-0.567,3.149-4.713,3.149-4.713c2.777-7.979,2.268-32.541,2.268-32.541c-0.841-2.014-4.283-1.858-4.283-1.858
					c-3.422-1.154-2.425-3.149-2.425-3.149c2.151-3.129,5.71-3.285,5.71-3.285c15.273-2.992,32.228,0.156,32.228,0.156
					C318.396,292.982,319.999,298.555,319.999,298.555z"/>
				<path fill="#FFFFFF" d="M384.201,289.54c-11.264,4.459-22.196,9.602-32.736,15.351c0.782-1.467,1.486-2.836,2.092-4.048
					c3.148-6.238,3.911-8.878,7.138-9.7C369.006,289.031,377.356,288.992,384.201,289.54z"/>
			</g>
		</g>
	</g>
</g>
</svg>
