<?xml version="1.0" encoding="utf-8"?>
<!-- Generator: Adobe Illustrator 17.0.0, SVG Export Plug-In . SVG Version: 6.00 Build 0)  -->
<!DOCTYPE svg PUBLIC "-//W3C//DTD SVG 1.1//EN" "http://www.w3.org/Graphics/SVG/1.1/DTD/svg11.dtd">
<svg version="1.1" id="Layer_1" xmlns="http://www.w3.org/2000/svg" xmlns:xlink="http://www.w3.org/1999/xlink" x="0px" y="0px"
	 width="1000px" height="1000px" viewBox="0 0 1000 1000" enable-background="new 0 0 1000 1000" xml:space="preserve">
<linearGradient id="SVGID_1_" gradientUnits="userSpaceOnUse" x1="150.7713" y1="844.2863" x2="813.4644" y2="181.5931">
	<stop  offset="0" style="stop-color:#04BEFE"/>
	<stop  offset="1" style="stop-color:#4481EB"/>
</linearGradient>
<path fill="url(#SVGID_1_)" d="M486.87,49c-258.75,0-468.5,209.84-468.5,468.69s209.75,468.69,468.5,468.69
	c77.35,0,150.32-18.75,214.62-51.98c-37.44-32.2-61.15-79.92-61.15-133.17c0-96.96,78.6-175.57,175.57-175.57
	c40.83,0,78.4,13.94,108.23,37.33v-28.86h16.65c9.52-37.23,14.58-76.24,14.58-116.44C955.37,258.84,745.61,49,486.87,49z
	 M867.17,448.39c0,13.72-11.1,24.85-24.79,24.85c-13.7,0-24.79-11.13-24.79-24.85c0-13.73,11.09-24.85,24.79-24.85
	C856.07,423.54,867.17,434.66,867.17,448.39z M624.43,143.96c13.69,0,24.79,11.12,24.79,24.85c0,13.72-11.1,24.85-24.79,24.85
	s-24.79-11.13-24.79-24.85C599.64,155.08,610.74,143.96,624.43,143.96z M557.29,125.32c13.7,0,24.79,11.13,24.79,24.85
	c0,13.73-11.09,24.85-24.79,24.85c-13.69,0-24.79-11.12-24.79-24.85C532.5,136.45,543.6,125.32,557.29,125.32z M487.32,112.89
	c13.73,0,24.85,11.13,24.85,24.85c0,13.73-11.12,24.86-24.85,24.86c-13.72,0-24.85-11.13-24.85-24.86
	C462.47,124.02,473.6,112.89,487.32,112.89z M417.95,125.32c13.72,0,24.85,11.13,24.85,24.85c0,13.73-11.13,24.85-24.85,24.85
	c-13.73,0-24.85-11.12-24.85-24.85C393.1,136.45,404.22,125.32,417.95,125.32z M350.64,143.96c13.73,0,24.85,11.12,24.85,24.85
	c0,13.72-11.12,24.85-24.85,24.85c-13.72,0-24.85-11.13-24.85-24.85C325.79,155.08,336.92,143.96,350.64,143.96z M288.51,181.24
	c13.73,0,24.85,11.12,24.85,24.85c0,13.72-11.12,24.85-24.85,24.85c-13.72,0-24.85-11.13-24.85-24.85
	C263.66,192.36,274.79,181.24,288.51,181.24z M181.86,286.85c13.72,0,24.85,11.13,24.85,24.85c0,13.73-11.13,24.86-24.85,24.86
	c-13.73,0-24.85-11.13-24.85-24.86C157.01,297.98,168.13,286.85,181.86,286.85z M150.8,355.19c13.72,0,24.85,11.13,24.85,24.86
	c0,13.72-11.13,24.85-24.85,24.85c-13.73,0-24.86-11.13-24.86-24.85C125.94,366.32,137.07,355.19,150.8,355.19z M132.16,423.54
	c13.72,0,24.85,11.12,24.85,24.85c0,13.72-11.13,24.85-24.85,24.85c-13.73,0-24.85-11.13-24.85-24.85
	C107.31,434.66,118.43,423.54,132.16,423.54z M94.88,522.94c0-13.72,11.13-24.85,24.85-24.85c13.73,0,24.85,11.13,24.85,24.85
	c0,13.73-11.12,24.85-24.85,24.85C106.01,547.79,94.88,536.67,94.88,522.94z M107.31,599.44c0-13.73,11.12-24.86,24.85-24.86
	c13.72,0,24.85,11.13,24.85,24.86c0,13.72-11.13,24.85-24.85,24.85C118.43,624.29,107.31,613.16,107.31,599.44z M150.8,692.63
	c-13.73,0-24.86-11.13-24.86-24.85c0-13.73,11.13-24.85,24.86-24.85c13.72,0,24.85,11.12,24.85,24.85
	C175.65,681.5,164.52,692.63,150.8,692.63z M181.86,760.97c-13.73,0-24.85-11.13-24.85-24.85c0-13.73,11.12-24.85,24.85-24.85
	c13.72,0,24.85,11.12,24.85,24.85C206.71,749.84,195.58,760.97,181.86,760.97z M226.38,823.1c-13.72,0-24.85-11.13-24.85-24.85
	c0-13.73,11.13-24.86,24.85-24.86c13.73,0,24.86,11.13,24.86,24.86C251.24,811.97,240.11,823.1,226.38,823.1z M226.38,274.43
	c-13.72,0-24.85-11.13-24.85-24.85c0-13.73,11.13-24.85,24.85-24.85c13.73,0,24.86,11.12,24.86,24.85
	C251.24,263.3,240.11,274.43,226.38,274.43z M288.51,866.59c-13.72,0-24.85-11.13-24.85-24.85c0-13.73,11.13-24.85,24.85-24.85
	c13.73,0,24.85,11.12,24.85,24.85C313.36,855.46,302.24,866.59,288.51,866.59z M350.64,903.86c-13.72,0-24.85-11.12-24.85-24.85
	c0-13.72,11.13-24.85,24.85-24.85c13.73,0,24.85,11.13,24.85,24.85C375.49,892.74,364.37,903.86,350.64,903.86z M417.95,922.5
	c-13.73,0-24.85-11.12-24.85-24.85c0-13.72,11.12-24.85,24.85-24.85c13.72,0,24.85,11.13,24.85,24.85
	C442.8,911.38,431.67,922.5,417.95,922.5z M487.32,934.93c-13.72,0-24.85-11.13-24.85-24.85c0-13.73,11.13-24.85,24.85-24.85
	c13.73,0,24.85,11.12,24.85,24.85C512.17,923.8,501.05,934.93,487.32,934.93z M557.29,922.5c-13.69,0-24.79-11.12-24.79-24.85
	c0-13.72,11.1-24.85,24.79-24.85c13.7,0,24.79,11.13,24.79,24.85C582.08,911.38,570.99,922.5,557.29,922.5z M649.22,879.01
	c0,13.73-11.1,24.85-24.79,24.85s-24.79-11.12-24.79-24.85c0-13.72,11.1-24.85,24.79-24.85S649.22,865.29,649.22,879.01z
	 M705.1,649.09c-1.35,10.1-10.77,12.79-10.77,12.79c-53.85,8.75-94.24,1.35-94.24,1.35c-14.14-8.08-41.74-29.62-41.74-29.62
	c-28.27-24.9-37.02-12.79-37.02-12.79c-3.36,31.64-3.36,31.64-3.36,31.64c-2.02,13.81-10.77,11.78-10.77,11.78
	c-46.21,4.42-62.87-1.76-72.7-5.05c-77.41-25.91-160.2-154.48-175.69-220.27c-0.71-3,1.6-9.75,4.04-11.62
	c11.68-8.97,76.07,0.67,76.07,0.67c6.79,2.01,12.79,9.43,12.79,9.43c7.4,14.8,52.16,92.55,52.16,92.55
	c4.04,5.72,9.76,5.39,9.76,5.39c5.05-1.35,7.41-11.11,7.41-11.11c6.56-18.83,5.38-76.74,5.38-76.74
	c-2.02-4.71-10.09-4.37-10.09-4.37c-8.08-2.69-5.73-7.41-5.73-7.41c5.05-7.4,13.47-7.74,13.47-7.74
	c36.01-7.06,75.97,0.34,75.97,0.34c11.1,1.01,14.9,14.14,14.9,14.14c1.68,4.03,1.01,79.42,1.01,79.42
	c2.69,14.94,14.88,17.92,17.16,17.84c11.86-0.42,18.52-13.67,18.52-13.67c6.99-11.53,31.12-55.91,42.4-78.21
	c7.44-14.71,9.24-20.95,16.83-22.89c34.33-8.75,69.02-2.41,84.14,0c8.41,1.35,10.1,5.39,10.1,5.39
	c-0.47,14.12-9.76,33.99-9.76,33.99c-20.53,45.1-61.6,93.23-61.6,93.23c-6.05,6.06,0.68,10.77,0.68,10.77
	c18.84,14.81,61.25,62.6,61.25,62.6C707.11,643.37,705.1,649.09,705.1,649.09z M686.41,230.94c-13.69,0-24.79-11.13-24.79-24.85
	c0-13.73,11.1-24.85,24.79-24.85s24.79,11.12,24.79,24.85C711.2,219.81,700.1,230.94,686.41,230.94z M748.38,274.43
	c-13.69,0-24.79-11.13-24.79-24.85c0-13.73,11.1-24.85,24.79-24.85s24.79,11.12,24.79,24.85
	C773.17,263.3,762.07,274.43,748.38,274.43z M768.01,311.7c0-13.72,11.09-24.85,24.79-24.85c13.69,0,24.79,11.13,24.79,24.85
	c0,13.73-11.1,24.86-24.79,24.86C779.1,336.56,768.01,325.43,768.01,311.7z M798.99,380.05c0-13.73,11.1-24.86,24.79-24.86
	c13.69,0,24.79,11.13,24.79,24.86c0,13.72-11.1,24.85-24.79,24.85C810.09,404.9,798.99,393.77,798.99,380.05z M842.38,624.29
	c-13.7,0-24.79-11.13-24.79-24.85c0-13.73,11.09-24.86,24.79-24.86c13.69,0,24.79,11.13,24.79,24.86
	C867.17,613.16,856.07,624.29,842.38,624.29z M854.77,547.79c-13.69,0-24.79-11.12-24.79-24.85c0-13.72,11.1-24.85,24.79-24.85
	s24.79,11.13,24.79,24.85C879.56,536.67,868.46,547.79,854.77,547.79z M924.14,674.68c-29.16-25.27-67.21-40.55-108.82-40.55
	c-91.86,0-166.32,74.46-166.32,166.32c0,52.14,23.99,98.67,61.54,129.16c6.45-3.51,12.81-7.17,19.07-10.97
	c-18.75-13.52-34.17-31.38-44.78-52.1c-12.95-0.82-23.21-11.61-23.21-24.8c0-7.7,3.49-14.58,8.97-19.13
	c-1.14-7.35-1.73-14.88-1.73-22.55c0-76.6,58.95-139.42,133.97-145.57c4.39-6.95,12.14-11.56,20.95-11.56
	c9.98,0,18.58,5.91,22.51,14.43c28.34,6.21,53.59,20.63,73.14,40.65c1.63-3.88,3.2-7.79,4.71-11.73c1.12-2.89,2.21-5.79,3.26-8.71
	C926.33,676.59,925.24,675.63,924.14,674.68z"/>
<path fill="#FFFFFF" d="M945.08,696.41c-0.54-0.67-1.09-1.34-1.64-2.01c-1.61-1.95-3.27-3.86-4.97-5.73c-0.54-0.6-1.1-1.2-1.66-1.8
	c-2.13-2.29-4.34-4.52-6.61-6.69c-0.41-0.39-0.83-0.78-1.25-1.17c-0.51-0.49-1.03-0.97-1.55-1.44c-1.07-0.98-2.16-1.94-3.26-2.89
	c-29.16-25.27-67.21-40.55-108.82-40.55c-91.86,0-166.32,74.46-166.32,166.32c0,52.14,23.99,98.67,61.54,129.16
	c28.6,23.23,65.06,37.15,104.78,37.15c91.85,0,166.31-74.46,166.31-166.31C981.63,761.08,967.95,724.9,945.08,696.41z
	 M814.93,946.13c-31.85,0-61.32-10.19-85.32-27.49c-18.75-13.52-34.17-31.38-44.78-52.1c-6.94-13.56-11.82-28.34-14.24-43.93
	c-1.14-7.35-1.73-14.88-1.73-22.55c0-76.6,58.95-139.42,133.97-145.57c3.99-0.33,8.03-0.5,12.1-0.5c10.77,0,21.26,1.17,31.36,3.37
	c28.34,6.21,53.59,20.63,73.14,40.65c25.71,26.33,41.56,62.34,41.56,102.05C960.99,880.73,895.6,946.13,814.93,946.13z"/>
<linearGradient id="SVGID_2_" gradientUnits="userSpaceOnUse" x1="649" y1="800.445" x2="981.63" y2="800.445">
	<stop  offset="0" style="stop-color:#04BEFE"/>
	<stop  offset="1" style="stop-color:#4481EB"/>
</linearGradient>
<path fill="url(#SVGID_2_)" d="M945.08,696.41v22.85l-8.51-0.07c15.43,23.15,24.42,50.96,24.42,80.87
	c0,80.67-65.39,146.07-146.06,146.07c-31.85,0-61.32-10.19-85.32-27.49c-18.75-13.52-34.17-31.38-44.78-52.1
	c-6.94-13.56-11.82-28.34-14.24-43.93c-1.14-7.35-1.73-14.88-1.73-22.55c0-76.6,58.95-139.42,133.97-145.57
	c3.99-0.33,8.03-0.5,12.1-0.5c10.77,0,21.26,1.17,31.36,3.37c28.34,6.21,53.59,20.63,73.14,40.65c0.22,0.23,0.44,0.45,0.65,0.68
	l4.06-0.05v-12.36c1.12-2.89,2.21-5.79,3.26-8.71c-1.07-0.98-2.16-1.94-3.26-2.89c-29.16-25.27-67.21-40.55-108.82-40.55
	c-91.86,0-166.32,74.46-166.32,166.32c0,52.14,23.99,98.67,61.54,129.16c28.6,23.23,65.06,37.15,104.78,37.15
	c91.85,0,166.31-74.46,166.31-166.31C981.63,761.08,967.95,724.9,945.08,696.41z"/>
<linearGradient id="SVGID_3_" gradientUnits="userSpaceOnUse" x1="397.6206" y1="651.8629" x2="473.1261" y2="576.3572" gradientTransform="matrix(1 0 0 1 404.68 159.0801)">
	<stop  offset="0" style="stop-color:#04BEFE"/>
	<stop  offset="1" style="stop-color:#4481EB"/>
</linearGradient>
<path fill="url(#SVGID_3_)" d="M829.249,804.98l52.95,52.94l-14.045,14.04l-54.374-54.386l-0.121-0.123
	c-7.43-0.56-13.25-6.84-13.25-14.43c0-3.58,1.3-6.84,3.46-9.37V682.5h21l-0.02,109.69l0.02,0.32c2.8,2.64,4.54,6.38,4.54,10.53
	c0,0.35-0.01,0.68-0.04,1.02c-0.02,0.31-0.05,0.62-0.1,0.92"/>
<path fill="#FFFFFF" d="M924.14,674.68c1.1,0.95,2.19,1.91,3.26,2.89c-1.05,2.92-2.14,5.82-3.26,8.71V674.68z"/>
<linearGradient id="SVGID_4_" gradientUnits="userSpaceOnUse" x1="477.695" y1="570.2949" x2="554.195" y2="493.7949" gradientTransform="matrix(1 0 0 1 404.68 159.0801)">
	<stop  offset="0" style="stop-color:#04BEFE"/>
	<stop  offset="1" style="stop-color:#4481EB"/>
</linearGradient>
<polygon fill="url(#SVGID_4_)" points="927.5,636.5 942.5,636.5 942.5,717 869.5,716.5 869.5,702 927.5,701.5 "/>
</svg>
