<?xml version="1.0" encoding="utf-8"?>
<!-- Generator: Adobe Illustrator 17.0.0, SVG Export Plug-In . SVG Version: 6.00 Build 0)  -->
<!DOCTYPE svg PUBLIC "-//W3C//DTD SVG 1.1//EN" "http://www.w3.org/Graphics/SVG/1.1/DTD/svg11.dtd">
<svg version="1.1" id="Layer_1" xmlns="http://www.w3.org/2000/svg" xmlns:xlink="http://www.w3.org/1999/xlink" x="0px" y="0px"
	 width="1000px" height="1000px" viewBox="0 0 1000 1000" enable-background="new 0 0 1000 1000" xml:space="preserve">
<g>
	<g>
		<path fill="none" stroke="#FFFFFF" stroke-width="18" stroke-miterlimit="10" d="M801.47,654.49c3.99-0.33,8.02-0.5,12.09-0.5
			c10.77,0,21.26,1.16,31.36,3.37 M802.72,682.87v-3.71h21v13.44 M490.29,67.33c-248.87,0-450.62,201.75-450.62,450.62
			s201.75,450.62,450.62,450.62c74.45,0,144.68-18.06,206.55-50.03c-30.39-30.13-49.21-71.91-49.21-118.09
			c0-91.86,74.46-166.32,166.32-166.32c38.08,0,73.17,12.79,101.2,34.32c1.25-3.51,2.45-7.04,3.6-10.59
			c3.43-10.49,6.48-21.14,9.13-31.95c8.51-34.59,13.02-70.75,13.02-107.96C940.9,269.08,739.15,67.33,490.29,67.33z M802.72,758.24
			V714 M669.22,822.61c-1.14-7.35-1.73-14.88-1.73-22.55c0-76.6,58.97-139.43,133.98-145.57c3.99-0.33,8.02-0.5,12.09-0.5
			c10.77,0,21.26,1.16,31.36,3.37c23.52,5.15,44.91,15.96,62.68,30.93c-0.38,0.91-0.76,1.82-1.14,2.73
			c-2.12,5.1-4.33,10.16-6.64,15.16c-17.06,37.05-38.99,71.39-64.99,102.2l-6.73-6.73h0.02c0.05-0.3,0.08-0.61,0.1-0.92
			c0.03-0.34,0.04-0.68,0.04-1.02c0-4.16-1.74-7.89-4.54-10.54l-0.02-0.32l0.02-96.25v-13.44h-21v3.71V714v44.24v32.08
			c-2.16,2.53-3.46,5.79-3.46,9.37c0,7.59,5.82,13.87,13.25,14.43l9.17,9.17c-30.8,33.41-66.58,62.15-106.18,85.04
			c-13.04-11.83-23.94-25.97-32.04-41.79"/>
		<circle fill="#FFFFFF" cx="118.362" cy="522.941" r="24.851"/>
		<circle fill="#FFFFFF" cx="130.788" cy="448.387" r="24.851"/>
		<circle fill="#FFFFFF" cx="149.427" cy="380.046" r="24.851"/>
		<circle fill="#FFFFFF" cx="180.491" cy="311.704" r="24.851"/>
		<circle fill="#FFFFFF" cx="225.016" cy="249.576" r="24.851"/>
		<circle fill="#FFFFFF" cx="287.144" cy="206.086" r="24.851"/>
		<circle fill="#FFFFFF" cx="349.272" cy="168.809" r="24.851"/>
		<circle fill="#FFFFFF" cx="416.578" cy="150.171" r="24.851"/>
		<circle fill="#FFFFFF" cx="485.955" cy="137.745" r="24.851"/>
		<ellipse fill="#FFFFFF" cx="853.401" cy="522.941" rx="24.79" ry="24.851"/>
		<ellipse fill="#FFFFFF" cx="841.007" cy="448.387" rx="24.79" ry="24.851"/>
		<ellipse fill="#FFFFFF" cx="822.414" cy="380.046" rx="24.79" ry="24.851"/>
		<ellipse fill="#FFFFFF" cx="791.427" cy="311.704" rx="24.79" ry="24.851"/>
		<ellipse fill="#FFFFFF" cx="747.013" cy="249.576" rx="24.79" ry="24.851"/>
		<ellipse fill="#FFFFFF" cx="685.038" cy="206.086" rx="24.79" ry="24.851"/>
		<ellipse fill="#FFFFFF" cx="623.064" cy="168.809" rx="24.79" ry="24.851"/>
		<ellipse fill="#FFFFFF" cx="555.926" cy="150.171" rx="24.79" ry="24.851"/>
		<circle fill="#FFFFFF" cx="130.788" cy="599.436" r="24.851"/>
		<circle fill="#FFFFFF" cx="149.427" cy="667.777" r="24.851"/>
		<circle fill="#FFFFFF" cx="180.491" cy="736.118" r="24.851"/>
		<circle fill="#FFFFFF" cx="225.016" cy="798.246" r="24.851"/>
		<circle fill="#FFFFFF" cx="287.144" cy="841.736" r="24.851"/>
		<circle fill="#FFFFFF" cx="349.272" cy="879.013" r="24.851"/>
		<circle fill="#FFFFFF" cx="416.578" cy="897.652" r="24.851"/>
		<circle fill="#FFFFFF" cx="485.955" cy="910.077" r="24.851"/>
		<ellipse fill="#FFFFFF" cx="841.007" cy="599.436" rx="24.79" ry="24.851"/>
		<path fill="#FFFFFF" d="M847.2,667.78c0,13.28-10.39,24.14-23.48,24.82v-13.44h-21v3.71c-3.2-4.18-5.1-9.41-5.1-15.09
			c0-4.89,1.41-9.45,3.85-13.29c3.99-0.33,8.02-0.5,12.09-0.5c10.77,0,21.26,1.16,31.36,3.37
			C846.39,660.53,847.2,664.06,847.2,667.78z"/>
		<path fill="#FFFFFF" d="M802.72,714v44.24c-3.38,1.75-7.22,2.73-11.29,2.73c-13.69,0-24.79-11.13-24.79-24.85
			c0-13.73,11.1-24.85,24.79-24.85C795.5,711.27,799.34,712.25,802.72,714z"/>
		<ellipse fill="#FFFFFF" cx="747.013" cy="798.246" rx="24.79" ry="24.851"/>
		<path fill="#FFFFFF" d="M683.46,866.54c0.52,0.03,1.05,0.05,1.58,0.05c13.69,0,24.79-11.13,24.79-24.85
			c0-13.73-11.1-24.85-24.79-24.85c-6.01,0-11.52,2.15-15.82,5.72L683.46,866.54z"/>
		<ellipse fill="#FFFFFF" cx="623.064" cy="879.013" rx="24.79" ry="24.851"/>
		<ellipse fill="#FFFFFF" cx="555.926" cy="897.652" rx="24.79" ry="24.851"/>
		<g>
			<path fill="#FFFFFF" d="M257.441,438.916c15.486,65.795,98.28,194.362,175.69,220.277c9.832,3.291,26.487,9.47,72.697,5.048
				c0,0,8.751,2.029,10.77-11.78c0,0,0,0,3.366-31.637c0,0,8.751-12.116,37.022,12.789c0,0,27.598,21.54,41.734,29.617
				c0,0,40.387,7.404,94.237-1.346c0,0,9.424-2.692,10.77-12.789c0,0,2.019-5.722-9.424-18.174c0,0-42.407-47.792-61.254-62.6
				c0,0-6.731-4.712-0.673-10.77c0,0,41.061-48.128,61.591-93.228c0,0,9.296-19.877,9.76-33.993c0,0-1.683-4.039-10.097-5.385
				c-15.119-2.419-49.811-8.751-84.14,0c-7.587,1.934-9.386,8.172-16.828,22.886c-11.279,22.3-35.409,66.683-42.404,78.205
				c0,0-6.659,13.257-18.514,13.677c-2.278,0.081-14.472-2.907-17.165-17.838c0,0,0.673-75.39-1.01-79.429
				c0,0-3.794-13.126-14.901-14.136c0,0-39.959-7.404-75.971-0.337c0,0-8.414,0.337-13.462,7.741c0,0-2.356,4.712,5.722,7.404
				c0,0,8.077-0.337,10.097,4.375c0,0,1.174,57.909-5.385,76.736c0,0-2.356,9.76-7.404,11.107c0,0-5.722,0.337-9.76-5.385
				c0,0-44.763-77.746-52.167-92.554c0,0-5.996-7.415-12.789-9.424c0,0-64.388-9.639-76.063-0.673
				C259.046,429.175,256.736,435.923,257.441,438.916z"/>
		</g>
	</g>
	<g>
		<g>
			<path fill="none" stroke="#FFFFFF" stroke-width="18" stroke-miterlimit="10" d="M801.47,654.49c3.99-0.33,8.02-0.5,12.09-0.5
				c10.77,0,21.26,1.16,31.36,3.37 M802.72,682.87v-3.71h21v13.44 M802.72,758.24V714 M696.84,918.54
				c30.06,29.8,71.43,48.22,117.11,48.22c91.85,0,166.31-74.46,166.31-166.31c0-44.8-17.71-85.45-46.51-115.36
				c-4.71-4.89-9.72-9.5-15-13.79c-1.19-0.97-2.39-1.92-3.6-2.85 M669.22,822.61c-1.14-7.35-1.73-14.88-1.73-22.55
				c0-76.6,58.97-139.43,133.98-145.57c3.99-0.33,8.02-0.5,12.09-0.5c10.77,0,21.26,1.16,31.36,3.37
				c23.52,5.15,44.91,15.96,62.68,30.93 M683.46,866.54c8.1,15.82,19,29.96,32.04,41.79"/>
			<path fill="#FFFFFF" d="M925.61,706.35c-4.59-5.48-9.57-10.61-14.9-15.37c-1.02-0.91-2.06-1.81-3.11-2.69
				c-17.77-14.97-39.16-25.78-62.68-30.93c-10.1-2.21-20.59-3.37-31.36-3.37c-4.07,0-8.1,0.17-12.09,0.5
				c-75.01,6.14-133.98,68.97-133.98,145.57c0,7.67,0.59,15.2,1.73,22.55c2.42,15.59,7.3,30.37,14.24,43.93
				c8.1,15.82,19,29.96,32.04,41.79c25.93,23.49,60.32,37.8,98.06,37.8c80.67,0,146.06-65.4,146.06-146.07
				C959.62,764.39,946.84,731.72,925.61,706.35z M867.01,868.62l-54.5-54.5c-7.43-0.56-13.25-6.84-13.25-14.43
				c0-3.58,1.3-6.84,3.46-9.37V679.16h21v13.44l-0.02,96.25l0.02,0.32c2.8,2.65,4.54,6.38,4.54,10.54c0,0.34-0.01,0.68-0.04,1.02
				c-0.02,0.31-0.05,0.62-0.1,0.92h-0.02l6.73,6.73l46.22,46.21L867.01,868.62z"/>
		</g>
		<polygon fill="none" stroke="#FFFFFF" stroke-width="5" stroke-miterlimit="10" points="933.75,625.91 933.75,706.41 
			925.61,706.35 899.82,706.18 860.75,705.91 860.75,691.41 906.46,691.02 910.71,690.98 918.75,690.91 918.75,625.91 		"/>
	</g>
</g>
</svg>
