<?xml version="1.0" encoding="utf-8"?>
<!-- Generator: Adobe Illustrator 17.0.0, SVG Export Plug-In . SVG Version: 6.00 Build 0)  -->
<!DOCTYPE svg PUBLIC "-//W3C//DTD SVG 1.1//EN" "http://www.w3.org/Graphics/SVG/1.1/DTD/svg11.dtd">
<svg version="1.1" id="Layer_1" xmlns="http://www.w3.org/2000/svg" xmlns:xlink="http://www.w3.org/1999/xlink" x="0px" y="0px"
	 width="1584px" height="1104px" viewBox="0 0 1584 1104" enable-background="new 0 0 1584 1104" xml:space="preserve">
<linearGradient id="SVGID_1_" gradientUnits="userSpaceOnUse" x1="7.212" y1="157.537" x2="1166.108" y2="1316.4331" gradientTransform="matrix(1 0 0 -1 202.34 1184.04)">
	<stop  offset="0" style="stop-color:#04BEFE"/>
	<stop  offset="1" style="stop-color:#4481EB"/>
</linearGradient>
<path fill="url(#SVGID_1_)" stroke="#026AAA" stroke-width="15" stroke-miterlimit="10" d="M1550.5,823.465
	c0,25.424-17.909,46.035-40,46.035H67.5c-22.091,0-40-20.611-40-46.035V70.791c0-25.424,17.909-46.291,40-46.291h1443
	c22.091,0,40,20.867,40,46.291V823.465z"/>
<g>
	<g>
		<g>
			<g>
				<path fill="#FFFFFF" d="M1382.254,612.337c-1.909,10.29-7.835,17.85-14.808,17.85c-6.974,0-12.9-7.56-14.809-17.85h-40.004
					l-8.5,220.86h122.562l-7.247-220.86H1382.254z"/>
			</g>
		</g>
		<g>
			<g>
				<g>
					<path fill="#FFBB8A" d="M1305.506,535.504h-2.612c-5.775,0-10.5-4.725-10.5-10.5v-2.612c0-5.775,4.725-10.5,10.5-10.5h2.612
						c5.775,0,10.5,4.725,10.5,10.5v2.612C1316.006,530.779,1311.281,535.504,1305.506,535.504z"/>
				</g>
				<g>
					<path fill="#FFBB8A" d="M1432.559,535.504h-2.612c-5.775,0-10.5-4.725-10.5-10.5v-2.612c0-5.775,4.725-10.5,10.5-10.5h2.612
						c5.775,0,10.5,4.725,10.5,10.5v2.612C1443.059,530.779,1438.334,535.504,1432.559,535.504z"/>
				</g>
				<g>
					<path fill="#EF9960" d="M1307.656,533.278h-2.119c-4.686,0-8.521-3.834-8.521-8.521v-2.119c0-4.686,3.834-8.521,8.521-8.521
						h2.119c4.686,0,8.521,3.834,8.521,8.521v2.119C1316.176,529.444,1312.342,533.278,1307.656,533.278z"/>
				</g>
				<g>
					<path fill="#EF9960" d="M1429.917,533.278h-2.119c-4.686,0-8.521-3.834-8.521-8.521v-2.119c0-4.686,3.834-8.521,8.521-8.521
						h2.119c4.686,0,8.521,3.834,8.521,8.521v2.119C1438.438,529.444,1434.604,533.278,1429.917,533.278z"/>
				</g>
			</g>
			<g>
				<g>
					<path fill="#FFBB8A" d="M1367.708,595.786L1367.708,595.786c-5.061,0-9.975-1.211-14.664-3.471v16.455
						c0,14.547,6.481,26.45,14.402,26.45s14.402-11.902,14.402-26.45v-16.214C1377.317,594.656,1372.581,595.786,1367.708,595.786z"
						/>
				</g>
				<g>
					<path fill="#FFAE77" d="M1354.615,599.374c0.174,4.016,5.873,7.272,12.831,7.272s12.657-3.256,12.831-7.272v-4.756
						c-0.155,0.023-0.313,0.038-0.469,0.06c-7.934,1.772-16.176,1.765-24.083,0.02c-0.369-0.051-0.744-0.092-1.11-0.147
						L1354.615,599.374L1354.615,599.374z"/>
				</g>
			</g>
			<g>
				<path fill="#FFBB8A" d="M1374.629,597.343h-13.804c-30.525,0-55.5-24.975-55.5-55.5v-65.355c0-13.612,11.137-24.75,24.75-24.75
					h75.304c13.612,0,24.75,11.138,24.75,24.75v65.355C1430.129,572.368,1405.154,597.343,1374.629,597.343z"/>
			</g>
			<g>
				<g>
					<path fill="#FFAE77" d="M1325.148,443.117c0,0-26.455,46.974-22.635,50.879v17.896h3.46c8.121,0,14.703-6.583,14.703-14.704
						v-15.953c0.54-0.013,1.078-0.028,1.652-0.028h2.819c3.826,0,7.274-2.398,9.689-6.188c4.451,6.979,11.86,11.574,20.212,11.574
						h53.237c2.063,0,4.068-0.223,5.986-0.658v11.252c0,8.121,6.583,14.704,14.704,14.704h2.988v-43.967
						C1432.557,465.453,1328.241,443.117,1325.148,443.117z"/>
				</g>
				<g>
					<path fill="#252A34" d="M1303.103,511.892h-5.086v-49.48c0-8.69,7.045-15.735,15.735-15.735h2.429v52.138
						C1316.18,506.037,1310.325,511.892,1303.103,511.892z"/>
				</g>
				<g>
					<path fill="#252A34" d="M1432.972,511.892h4.614v-49.48c0-8.69-7.045-15.735-15.735-15.735h-1.957v52.138
						C1419.895,506.037,1425.75,511.892,1432.972,511.892z"/>
				</g>
				<g>
					<path fill="#1F2630" d="M1299.703,466.618v18.009c2.454-1.914,6.934-3.434,14.791-3.757v-30.211
						C1306.233,451.281,1299.703,458.201,1299.703,466.618z"/>
				</g>
				<g>
					<path fill="#1F2630" d="M1421.581,485.067c5.929-1.622,10.967-4.997,14.319-9.989v-8.46c0-8.256-6.283-15.072-14.319-15.917
						V485.067z"/>
				</g>
				<g>
					<path fill="#2A3958" d="M1424.514,405.131c0,0,15.788,18.928-35.705,18.928h-33.416c-10.222,0-19.153,5.783-23.679,14.229
						c-2.461-2.599-5.567-4.166-8.941-4.166h-16.302c-7.914,0-14.389,6.733-14.389,19.045s2.544,34.435,8.467,32.512
						c0,0-8.467-13.466,19.149-13.466h3.075c4.174,0,7.935-2.398,10.57-6.188c4.855,6.979,12.939,11.574,22.05,11.574h58.078
						c14.757,0,26.83-9.464,26.83-26.77C1440.302,433.523,1435.559,402.427,1424.514,405.131z"/>
				</g>
				<g>
					<path fill="#2F456D" d="M1426.379,421.979c0,0,6.708,7.91-15.171,7.91h-14.198c-4.343,0-9.425,4.167-10.061,5.946
						c-0.636,1.779-1.191,9.806,0,11.59s6.19,4.837,10.061,4.837h24.676c6.27,0,11.4-3.955,11.4-11.186
						C1433.087,433.843,1431.072,420.849,1426.379,421.979z"/>
				</g>
			</g>
		</g>
		<g>
			<g>
				<g>
					<ellipse fill="#FF696B" cx="1338.391" cy="529.128" rx="8.854" ry="2.276"/>
				</g>
				<g>
					<ellipse fill="#FF696B" cx="1398.085" cy="529.128" rx="8.854" ry="2.276"/>
				</g>
				<g>
					<ellipse fill="#231F20" cx="1338.813" cy="518.034" rx="3.654" ry="5.974"/>
				</g>
				<g>
					<ellipse fill="#231F20" cx="1398.085" cy="518.034" rx="3.654" ry="5.974"/>
				</g>
				<g>
					<path fill="#252A34" d="M1347.713,505.065l-20.685,1.456c-1.715,0.121-3.215-1.2-3.334-2.936l-0.054-0.785
						c-0.119-1.735,1.186-3.254,2.901-3.374l20.685-1.456c1.715-0.121,3.215,1.2,3.334,2.936l0.054,0.785
						C1350.732,503.425,1349.427,504.944,1347.713,505.065z"/>
				</g>
				<g>
					<path fill="#252A34" d="M1388.686,505.065l20.685,1.456c1.715,0.121,3.215-1.2,3.334-2.936l0.054-0.785
						c0.119-1.735-1.186-3.254-2.901-3.374l-20.685-1.456c-1.715-0.121-3.215,1.2-3.334,2.936l-0.054,0.785
						C1385.666,503.425,1386.972,504.944,1388.686,505.065z"/>
				</g>
			</g>
			<g>
				<path fill="#EF9960" d="M1367.663,570.852c-0.502,0-1.003-0.021-1.505-0.062c-8.923-0.74-14.38-7.818-14.608-8.118
					c-0.504-0.666-0.38-1.619,0.278-2.129c0.656-0.511,1.596-0.384,2.101,0.279l0,0c0.048,0.063,4.919,6.331,12.505,6.945
					c5.318,0.425,10.764-1.968,16.2-7.127c0.604-0.57,1.553-0.543,2.121,0.069c0.566,0.612,0.535,1.572-0.068,2.147
					C1379.086,568.167,1373.367,570.852,1367.663,570.852z"/>
			</g>
			<g>
				<path fill="#EF9960" d="M1367.77,545.439c-0.743,0-1.388-0.558-1.486-1.323c-0.105-0.83,0.471-1.589,1.291-1.7
					c0.26-0.035,6.298-0.943,6.298-6.93c0-5.71-5.481-5.921-6.106-5.926c-0.824-0.007-1.494-0.685-1.494-1.518v-17.12
					c0-0.838,0.672-1.518,1.5-1.518s1.5,0.68,1.5,1.518v15.727c3.231,0.518,7.601,2.763,7.601,8.837
					c0,6.943-5.827,9.538-8.908,9.941C1367.899,545.435,1367.834,545.439,1367.77,545.439z"/>
			</g>
		</g>
	</g>
	<g>
		<g>
			<path fill="#E83445" d="M1417.31,862.497h-102.538c-6.351,0-11.547-4.871-11.547-10.824v-16.218
				c0-5.953,5.196-10.824,11.547-10.824h102.538c6.351,0,11.547,4.871,11.547,10.824v16.218
				C1428.857,857.627,1423.661,862.497,1417.31,862.497z"/>
		</g>
	</g>
	<g>
		<g>
			<path fill="#3ECFF7" d="M1398.751,1017.673l31.483,1.569l-10.766-185.635c-0.615-8.842-8.353-15.573-17.194-14.958
				c-8.842,0.615-15.573,8.352-14.958,17.194L1398.751,1017.673z"/>
		</g>
		<g>
			<ellipse fill="#59D5F7" cx="1403.291" cy="830.252" rx="8.854" ry="2.249"/>
		</g>
		<g>
			<g>
				<path fill="#D1D3D4" d="M1394.933,1080.569h39.662c4.145,0,7.505-3.36,7.505-7.505v-25.289h-54.672v25.289
					C1387.427,1077.208,1390.788,1080.569,1394.933,1080.569z"/>
			</g>
			<g>
				<path fill="#3ECFF7" d="M1400.545,1069.606h28.437c7.215,0,13.117-14.617,13.117-21.831l0,0c0-7.215-5.903-13.118-13.117-13.118
					h-28.437c-7.215,0-13.118,5.903-13.118,13.118l0,0C1387.427,1054.989,1393.33,1069.606,1400.545,1069.606z"/>
			</g>
			<g>
				<path fill="#FFFFFF" stroke="#000000" stroke-width="0.5" stroke-miterlimit="10" d="M1427.948,1035.782h-27.052l-7.081-19.188
					c-1.295-3.509,1.301-7.235,5.042-7.235h31.813c3.811,0,6.411,3.857,4.981,7.39L1427.948,1035.782z"/>
			</g>
			<g>
				<polygon fill="#FFFFFF" points="1427.984,1035.782 1431.02,1056.114 1399.35,1056.114 1401.249,1035.782 				"/>
			</g>
			<g>
				<path fill="#FFFFFF" d="M1438.166,1061.543c0,0-1.244-5.429-7.147-5.429s-27.547,0-32.044,0s-7.615,5.429-7.615,5.429
					s2.726,6.621,6.116,7.688s29.515,0.942,31.506,0.375C1431.926,1068.767,1436.383,1065.86,1438.166,1061.543z"/>
			</g>
			<g>
				<g>
					<path fill="#243047" d="M1400.663,1047.292c-0.51,0-1.007-0.26-1.288-0.73c-0.426-0.711-0.194-1.632,0.517-2.057
						c0.746-0.446,18.451-10.874,33.417-5.523c0.78,0.278,1.187,1.137,0.907,1.917c-0.278,0.779-1.138,1.185-1.917,0.907
						c-13.649-4.879-30.696,5.171-30.866,5.273C1401.191,1047.223,1400.925,1047.292,1400.663,1047.292z"/>
				</g>
				<g>
					<path fill="#243047" d="M1399.832,1052.664c-0.592,0-1.151-0.351-1.389-0.932c-0.314-0.767,0.053-1.643,0.819-1.956
						c1.094-0.449,26.927-10.899,38.294-4.609c0.726,0.4,0.988,1.313,0.587,2.038c-0.401,0.727-1.316,0.985-2.038,0.587
						c-10.129-5.599-35.451,4.657-35.706,4.76C1400.213,1052.627,1400.02,1052.664,1399.832,1052.664z"/>
				</g>
				<g>
					<path fill="#243047" d="M1429.253,1047.292c-0.203,0-0.409-0.041-0.606-0.129c-6.11-2.705-23.569-8.952-30.882-5.419
						c-0.745,0.36-1.643,0.048-2.003-0.698c-0.36-0.746-0.048-1.643,0.698-2.003c10.057-4.861,32.453,4.957,33.401,5.378
						c0.758,0.335,1.1,1.221,0.764,1.979C1430.376,1046.958,1429.828,1047.292,1429.253,1047.292z"/>
				</g>
				<g>
					<path fill="#243047" d="M1430.084,1052.664c-0.175,0-0.351-0.03-0.524-0.095c-0.25-0.093-25.047-9.246-35.896-4.706
						c-0.767,0.321-1.643-0.04-1.963-0.805c-0.319-0.765,0.041-1.644,0.805-1.963c11.945-4.997,37.041,4.267,38.104,4.663
						c0.776,0.29,1.171,1.153,0.881,1.93C1431.264,1052.292,1430.692,1052.664,1430.084,1052.664z"/>
				</g>
			</g>
		</g>
		<g>
			<path fill="#3ECFF7" d="M1335.145,1013.812l11.316-177.968c0.615-8.842-6.116-16.579-14.958-17.194l0,0
				c-8.842-0.615-16.579,6.116-17.194,14.958l-11.084,185.635L1335.145,1013.812z"/>
		</g>
		<g>
			<ellipse fill="#59D5F7" cx="1329.46" cy="830.252" rx="8.854" ry="2.249"/>
		</g>
		<g>
			<g>
				<path fill="#D1D3D4" d="M1338.376,1080.569h-39.662c-4.145,0-7.505-3.36-7.505-7.505v-25.289h54.672v25.289
					C1345.881,1077.208,1342.521,1080.569,1338.376,1080.569z"/>
			</g>
			<g>
				<path fill="#FFFFFF" stroke="#000000" stroke-width="0.5" stroke-miterlimit="10" d="M1305.361,1035.782h27.052l7.081-19.188
					c1.295-3.509-1.301-7.235-5.042-7.235h-31.813c-3.811,0-6.411,3.857-4.981,7.39L1305.361,1035.782z"/>
			</g>
			<g>
				<path fill="#3ECFF7" d="M1332.764,1069.606h-28.437c-7.215,0-13.117-14.617-13.117-21.831l0,0
					c0-7.215,5.903-13.118,13.117-13.118h28.437c7.215,0,13.118,5.903,13.118,13.118l0,0
					C1345.881,1054.989,1339.979,1069.606,1332.764,1069.606z"/>
			</g>
			<g>
				<polygon fill="#FFFFFF" points="1305.325,1035.782 1302.289,1056.114 1333.959,1056.114 1332.06,1035.782 				"/>
			</g>
			<g>
				<path fill="#FFFFFF" d="M1295.143,1061.543c0,0,1.244-5.429,7.147-5.429s27.547,0,32.044,0s7.615,5.429,7.615,5.429
					s-2.726,6.621-6.116,7.688s-29.515,0.942-31.506,0.375C1301.383,1068.767,1296.926,1065.86,1295.143,1061.543z"/>
			</g>
			<g>
				<g>
					<path fill="#243047" d="M1332.645,1047.292c-0.262,0-0.526-0.068-0.768-0.213c-0.171-0.103-17.245-10.143-30.867-5.273
						c-0.779,0.281-1.639-0.127-1.918-0.907c-0.279-0.78,0.128-1.639,0.908-1.917c14.968-5.353,32.67,5.077,33.416,5.523
						c0.711,0.425,0.942,1.346,0.517,2.057C1333.653,1047.031,1333.156,1047.292,1332.645,1047.292z"/>
				</g>
				<g>
					<path fill="#243047" d="M1333.478,1052.664c-0.19,0-0.382-0.036-0.568-0.111c-0.254-0.104-25.588-10.353-35.705-4.761
						c-0.724,0.4-1.638,0.138-2.039-0.587s-0.138-1.638,0.586-2.038c11.369-6.291,37.2,4.16,38.294,4.609
						c0.767,0.313,1.133,1.189,0.82,1.956C1334.629,1052.312,1334.068,1052.664,1333.478,1052.664z"/>
				</g>
				<g>
					<path fill="#243047" d="M1304.056,1047.292c-0.576,0-1.125-0.333-1.373-0.893c-0.335-0.758,0.007-1.644,0.764-1.979
						c0.948-0.422,23.345-10.236,33.401-5.378c0.746,0.36,1.059,1.257,0.698,2.003c-0.36,0.746-1.259,1.059-2.003,0.698
						c-7.314-3.535-24.771,2.715-30.882,5.419C1304.465,1047.25,1304.259,1047.292,1304.056,1047.292z"/>
				</g>
				<g>
					<path fill="#243047" d="M1303.225,1052.664c-0.608,0-1.181-0.372-1.406-0.976c-0.29-0.776,0.104-1.64,0.88-1.93
						c1.063-0.396,26.16-9.661,38.104-4.663c0.764,0.319,1.125,1.198,0.805,1.963s-1.199,1.124-1.963,0.805
						c-10.853-4.544-35.648,4.613-35.896,4.706C1303.576,1052.633,1303.399,1052.664,1303.225,1052.664z"/>
				</g>
			</g>
		</g>
	</g>
	<g>
		<g>
			<path fill="#FFFFFF" d="M1324.232,700.106l-0.336-73.069c-6.435-1.855-11.183-7.667-11.214-14.525
				c0-0.082,0.008-0.162,0.009-0.245c0,0-20.422,0.77-28.391,9.844s-3.785,78.146-3.785,78.146L1324.232,700.106z"/>
		</g>
	</g>
	<g>
		<g>
			<path fill="#FFFFFF" d="M1408.603,700.197l-0.25-73.069c6.422-1.907,11.125-7.757,11.101-14.615c0-0.082-0.01-0.162-0.011-0.244
				c0,0,20.435,0.604,28.479,9.614c8.045,9.009,4.413,78.113,4.413,78.113L1408.603,700.197z"/>
		</g>
	</g>
	<g>
		<g>
			<path fill="#F1F2F2" d="M1468.069,811.492h-201.997c-10.837,0-19.705-8.867-19.705-19.705V673.311
				c0-10.838,8.867-19.705,19.705-19.705h201.997c10.838,0,19.705,8.867,19.705,19.705v118.476
				C1487.774,802.625,1478.907,811.492,1468.069,811.492z"/>
		</g>
		<g>
			<path fill="#D7D8D8" d="M1246.371,809.744c0,0.027-0.004,0.054-0.004,0.081l0,0c0,6.126,8.867,11.138,19.705,11.138h201.997
				c10.838,0,19.705-5.012,19.705-11.138l0,0c0-0.027-0.003-0.054-0.004-0.081H1246.371z"/>
		</g>
		<g>
			<path fill="#DBDCDD" d="M1468.069,655.06h-56.519l-98.568,154.978h155.088c10.064,0,18.251-8.187,18.251-18.251V673.312
				C1486.32,663.248,1478.133,655.06,1468.069,655.06z"/>
		</g>
		<g>
			<path fill="#C1C2C3" d="M1306.592,819.509h161.477c9.018,0,16.76-3.684,18.06-8.312h-174.25L1306.592,819.509z"/>
		</g>
		<g>
			<g>
				<circle fill="#FFC86B" cx="1353.727" cy="731.716" r="9.791"/>
			</g>
			<g>
				<polygon fill="#0BD390" points="1366.468,752.436 1369.674,733.219 1384.714,745.604 				"/>
			</g>
			<g>
				<rect x="1375.037" y="713.02" fill="#FF494B" width="15.168" height="15.168"/>
			</g>
		</g>
	</g>
</g>
<g>
	<g>
		<rect x="115.165" y="554.942" fill="#F1F2F2" width="978.328" height="24.946"/>
	</g>
	<g>
		<rect x="128.85" y="579.888" fill="#5D7E87" width="45.615" height="12.23"/>
	</g>
	<g>
		<rect x="136.052" y="592.119" fill="#D1D3D4" width="31.211" height="269.979"/>
	</g>
	<g>
		<rect x="1032.753" y="579.888" fill="#5D7E87" width="45.615" height="12.23"/>
	</g>
	<g>
		<rect x="1039.955" y="592.119" fill="#D1D3D4" width="31.21" height="269.979"/>
	</g>
</g>
<g>
	<g>
		<g>
			<polygon fill="#D1D3D4" points="877.907,828.683 883.835,861.62 981.201,861.62 986.681,828.683 			"/>
		</g>
		<g>
			<polygon fill="#BBC2C4" points="986.438,830.149 991.918,797.212 872.243,797.212 878.171,830.149 			"/>
		</g>
		<g>
			<polygon fill="#D1D3D4" points="991.674,798.677 997.155,765.74 866.579,765.74 872.507,798.677 			"/>
		</g>
		<g>
			<polygon fill="#BBC2C4" points="996.911,767.206 1002.392,734.269 860.915,734.269 866.842,767.206 			"/>
		</g>
		<g>
			<polygon fill="#D1D3D4" points="1002.148,735.734 1007.629,702.797 855.251,702.797 861.178,735.734 			"/>
		</g>
	</g>
	<g>
		<g>
			<polygon fill="#C4CCCE" points="979.929,860.12 984.667,831.649 908.837,831.649 887.206,860.12 			"/>
		</g>
		<g>
			<polygon fill="#A4AFB2" points="985.161,828.683 989.904,800.177 932.746,800.177 911.164,828.586 			"/>
		</g>
		<g>
			<polygon fill="#C4CCCE" points="990.397,797.212 995.141,768.706 956.656,768.706 934.999,797.212 			"/>
		</g>
		<g>
			<polygon fill="#A4AFB2" points="995.884,765.74 1000.378,737.234 980.566,737.234 959.078,765.74 			"/>
		</g>
		<g>
			<polygon fill="#C4CCCE" points="1001.12,734.269 1005.858,704.297 1005.589,704.297 982.912,734.269 			"/>
		</g>
	</g>
</g>
<g>
	<g>
		<rect x="221.389" y="612.072" fill="#5D7E87" width="127.284" height="249.873"/>
	</g>
	<g>
		<path fill="#D1D3D4" d="M314.821,612.072c0.713,0.562,1.108,1.156,1.108,1.772c0,3.421-11.797,6.194-26.35,6.194
			s-26.35-2.773-26.35-6.194c0-0.616,0.395-1.21,1.109-1.772h-42.949v41.645h127.285v-41.645H314.821z"/>
	</g>
	<g>
		<path fill="#BBC2C4" d="M314.821,653.718c0.713,0.562,1.108,1.156,1.108,1.772c0,3.421-11.797,6.194-26.35,6.194
			s-26.35-2.773-26.35-6.194c0-0.616,0.395-1.21,1.109-1.772h-42.949v41.646h127.285v-41.646H314.821z"/>
	</g>
	<g>
		<path fill="#D1D3D4" d="M314.821,695.363c0.713,0.562,1.108,1.156,1.108,1.772c0,3.421-11.797,6.194-26.35,6.194
			s-26.35-2.773-26.35-6.194c0-0.616,0.395-1.211,1.109-1.772h-42.949v41.646h127.285v-41.646H314.821z"/>
	</g>
	<g>
		<path fill="#BBC2C4" d="M314.821,737.009c0.713,0.562,1.108,1.156,1.108,1.772c0,3.421-11.797,6.194-26.35,6.194
			s-26.35-2.773-26.35-6.194c0-0.616,0.395-1.21,1.109-1.772h-42.949v41.646h127.285v-41.646H314.821z"/>
	</g>
	<g>
		<path fill="#D1D3D4" d="M314.821,778.654c0.713,0.562,1.108,1.156,1.108,1.772c0,3.421-11.797,6.194-26.35,6.194
			s-26.35-2.773-26.35-6.194c0-0.616,0.395-1.21,1.109-1.772h-42.949V820.3h127.285v-41.645L314.821,778.654L314.821,778.654z"/>
	</g>
	<g>
		<path fill="#BBC2C4" d="M314.821,820.3c0.713,0.562,1.108,1.156,1.108,1.772c0,3.421-11.797,6.194-26.35,6.194
			s-26.35-2.773-26.35-6.194c0-0.616,0.395-1.21,1.109-1.772h-42.949v41.646h127.285V820.3H314.821z"/>
	</g>
	<g>
		<rect x="201.029" y="600.431" fill="#F1F2F2" width="168.004" height="12.149"/>
	</g>
</g>
<g>
	<g>
		<g>
			<path fill="#148C66" d="M925.193,206.404c0.758-2.783,28.762,8.06,29.742,5.436c1.94-5.193-22.835-23.607-20.146-28.063
				c1.792-2.97,18.397,10.077,20.464,7.49c1.841-2.305-10.883-20.284-8.86-22.251c1.995-1.94,8.069,7.632,10.209,6.051
				c2.849-2.105,1.813-15.217,4.853-16.623c3.042-1.407,4.609,10.486,7.766,9.851c3.719-0.748,9.043-13.867,12.807-13.436
				c0.769,0.088,1.538,0.202,2.305,0.342c4.039,0.738-4.89,16.883-1.415,18.898c2.855,1.656,18.213-11.01,20.635-8.609
				c2.202,2.183-20.692,21.48-18.887,24.196c2.096,3.155,28.82-10.185,30.329-6.426c1.398,3.483,4.592,17.713,4.888,21.182
				c0.25,2.937-43.815,19.923-43.875,22.984c-0.066,3.34,43.843-7.236,43.388-3.791c-0.277,2.098-0.628,4.212-1.056,6.336
				c-0.25,1.239-3.755,13.88-5.77,18.553c-1.685,3.906-41.654,13.424-43.779,16.867c-1.399,2.267,35.159-1.4,33.596,0.641
				c-1.482,1.935-3.034,3.764-4.645,5.477c-1.09,1.159-28.299,2.645-29.44,3.696c-2.242,2.065,21.513,3.536,19.104,5.152
				c-9.237,6.196-19.54,8.944-29.691,7.089c-2.502-0.457-4.904-1.178-7.196-2.139c-3.173-1.33,9.979,0.07,7.256-2.122
				c-2.02-1.626-20.022-6.665-21.768-8.709c-2.777-3.25,17.613,0.236,15.6-3.909c-1.618-3.332-25.783-14.153-26.855-17.949
				c-1.363-4.825,26.019,0.973,25.622-4.415c-0.44-5.981-28.541-23.201-27.667-29.604
				C922.978,216.636,924.634,208.455,925.193,206.404z"/>
		</g>
		<g>
			<path fill="#99CE62" d="M957.414,287.413c0,0,21.246-78.155,10.739-93.947L957.414,287.413z"/>
		</g>
	</g>
	<g>
		<g>
			<path fill="#148C66" d="M1022.166,533.448c0.74-0.621,1.309-1.459,1.58-2.433c0.349-1.253,8.582-31.142,11.048-71.043
				c2.286-37.002-0.276-89.687-25.463-130.55c-20.692-33.57-53.36-54.391-97.097-61.884c-2.41-0.413-4.866,1.212-5.484,3.63
				c-0.619,2.418,0.834,4.713,3.244,5.125c41.3,7.075,72.096,26.651,91.532,58.182c24.069,39.048,26.485,89.9,24.274,125.683
				c-2.408,38.963-10.647,68.871-10.73,69.168c-0.672,2.408,0.727,4.738,3.123,5.204
				C1019.619,534.809,1021.078,534.363,1022.166,533.448z"/>
		</g>
	</g>
	<g>
		<g>
			<path fill="#FBFAF8" d="M1057.042,512.427v18.78c0,13.054-9.144,23.735-20.32,23.735h-28.594
				c-11.176,0-20.32-10.681-20.32-23.735v-18.78H1057.042z"/>
		</g>
		<g>
			<path fill="#E5E1DE" d="M1036.722,553.611c10.47,0,18.988-10.05,18.988-22.404v-17.449h-19.971l-30.496,39.594
				c0.941,0.17,1.905,0.258,2.885,0.258L1036.722,553.611L1036.722,553.611z"/>
		</g>
	</g>
	<g>
		<g>
			<path fill="#148C66" d="M876.703,290.325c-1.712-0.14-12.924,21.239-14.587,20.988c-2.257-0.339-14.919-3.753-18.67-5.456
				c-2.499-1.135,6.224-15.389,4-16.775c-1.981-1.234-14.939,10.424-16.672,9.015c-1.708-1.389,5.254-7.046,3.814-8.582
				c-1.917-2.045-12.127-0.022-13.512-2.281c-1.386-2.261,7.817-4.589,7.027-7.012c-0.931-2.854-11.733-5.829-11.741-8.827
				c-0.002-0.613,0.017-1.227,0.057-1.844c0.208-3.243,4.65-13.93,6.314-16.055c1.513-1.932,18.791,14.283,20.759,12.614
				c2.286-1.939-10.662-21.712-7.847-23.245c2.609-1.42,17.59,21.513,20.577,20.487c2.484-0.853-7.079-25.73-4.38-26.282
				c2.285-0.467,19.7,32.6,22.111,32.365c2.631-0.256-9.73-33.792-6.981-33.752c1.675,0.024,3.368,0.105,5.077,0.245
				c0.997,0.082,11.256,1.671,15.114,2.824c3.226,0.964,14.392,31.501,17.294,32.854c1.911,0.891-4.342-27.505-2.594-26.465
				c1.658,0.987,3.238,2.037,4.733,3.145c1.011,0.749,4.688,21.998,5.619,22.798c1.829,1.572,0.795-17.235,2.287-15.491
				c5.721,6.688,8.832,14.533,8.309,22.683c-0.129,2.009-1.882-1.997-3.355,0.345c-1.092,1.738-3.392,16.351-4.838,17.912
				c-2.298,2.482-1.439-13.865-4.511-11.901c-2.469,1.579-8.746,21.57-11.631,22.763c-3.666,1.516-1.634-20.54-5.833-19.731
				c-4.66,0.898-15.603,24.572-20.716,24.476C870.362,312.111,878.299,290.456,876.703,290.325z"/>
		</g>
		<g>
			<path fill="#3ABB78" d="M922.815,278.518c0,0-63.387-9.492-74.831,0.223L922.815,278.518z"/>
		</g>
	</g>
	<g>
		<g>
			<path fill="#99CE62" d="M975.477,422.574c-2.832,2.454-20.05-13.81-22.996-11.687c-5.83,4.201,2.473,26.303-3.597,29.171
				c-4.045,1.911-11.747-24.097-15.795-22.796c-3.607,1.159-3.564,29.692-7.112,30.357c-3.5,0.655-2.795-14.031-6.182-13.867
				c-4.509,0.219-13.055,15.096-17.25,14.424c-4.198-0.672,2.901-14.618-0.85-16.205c-4.419-1.87-19.587,8.44-23.188,5.266
				c-0.735-0.648-1.452-1.324-2.147-2.028c-3.661-3.702,17.479-14.678,15.342-19.35c-1.756-3.839-27.033-1.237-27.79-5.567
				c-0.688-3.937,37.296-8.263,37.411-12.489c0.134-4.909-37.462-9.758-36.274-14.896c1.101-4.76,8.222-22.395,10.46-26.346
				c1.895-3.345,60.213,10.05,62.522,6.795c2.52-3.552-50.93-23.745-47.928-27.131c1.828-2.062,3.745-4.087,5.748-6.069
				c1.169-1.156,56.95,14.049,58.147,12.953c5.15-4.718-44.052-25.211-38.526-28.797c4.62-2.998,53.194,15.5,57.932,13.319
				c3.12-1.437-37.611-23.788-34.487-24.862c2.963-1.019,5.919-1.874,8.853-2.562c1.984-0.465,31.386,17.51,33.345,17.198
				c3.849-0.612-19.79-19.289-16.097-19.298c14.158-0.032,26.896,4.419,36.096,13.722c2.268,2.293,4.238,4.798,5.918,7.482
				c2.325,3.716,6.833,18.656,7.15,22.115c0.504,5.501-11.095,0.244-12.043,6.16c-0.762,4.755,9.38,20.634,7.71,25.497
				c-2.123,6.181-18.997-4.306-22.538,1.786c-3.932,6.763,5.307,30.078-0.302,36.35C985.291,413.14,977.563,420.765,975.477,422.574
				z"/>
		</g>
		<g>
			<path fill="#3ABB78" d="M1004.08,319.808c0,0-82.143,61.222-82.801,85.802L1004.08,319.808z"/>
		</g>
	</g>
</g>
<rect x="159.157" y="303.499" fill="none" width="865.49" height="248.623"/>
<g enable-background="new    ">
	<path fill="#FFFFFF" d="M183.813,303.521v37.945h-9.867v-15.938h-2.953v15.938h-9.867v-37.945h9.867v13.57h2.953v-13.57H183.813z"
		/>
	<path fill="#FFFFFF" d="M203.871,303.521l5.643,37.945H199.43l-0.529-6.82h-3.53l-0.593,6.82h-10.201l5.033-37.945H203.871z
		 M198.642,327.919c-0.5-4.298-1-9.61-1.503-15.938c-1.005,7.266-1.637,12.578-1.894,15.938H198.642z"/>
	<path fill="#FFFFFF" d="M245.808,341.466h-35.578v-37.969h9.891v30.375h2.93v-30.375h9.891v30.375h2.93v-30.375h9.938V341.466z"/>
</g>
<text transform="matrix(1 0 0 1 246.096 341.4659)" fill="#FFFFFF" font-family="'Alef-Bold'" font-size="48"> </text>
<g enable-background="new    ">
	<path fill="#FFFFFF" d="M283.263,320.044h-9.867v-6.595c0-1.918-0.105-3.114-0.316-3.591c-0.211-0.475-0.676-0.713-1.395-0.713
		c-0.813,0-1.328,0.289-1.547,0.867s-0.328,1.828-0.328,3.75v17.625c0,1.844,0.109,3.047,0.328,3.609s0.711,0.844,1.477,0.844
		c0.734,0,1.215-0.281,1.441-0.846c0.227-0.563,0.34-1.888,0.34-3.971v-4.77h9.867v1.479c0,3.928-0.277,6.713-0.832,8.356
		c-0.555,1.643-1.781,3.082-3.68,4.318s-4.238,1.854-7.02,1.854c-2.891,0-5.273-0.523-7.148-1.57s-3.117-2.496-3.727-4.348
		s-0.914-4.637-0.914-8.355v-11.086c0-2.734,0.094-4.785,0.281-6.152s0.746-2.684,1.676-3.949s2.219-2.262,3.867-2.988
		s3.543-1.09,5.684-1.09c2.906,0,5.305,0.562,7.195,1.686c1.891,1.123,3.133,2.524,3.727,4.201c0.594,1.678,0.891,4.287,0.891,7.829
		V320.044z"/>
	<path fill="#FFFFFF" d="M285.842,303.521h16.453v7.594h-6.586v7.195h6.164v7.219h-6.164v8.344h7.242v7.594h-17.109V303.521z"/>
	<path fill="#FFFFFF" d="M304.827,303.521h9.938c2.688,0,4.754,0.211,6.199,0.633s2.531,1.031,3.258,1.828s1.219,1.762,1.477,2.895
		s0.387,2.887,0.387,5.262v3.305c0,2.422-0.25,4.188-0.75,5.297s-1.418,1.961-2.754,2.555s-3.082,0.891-5.238,0.891h-2.648v15.281
		h-9.867V303.521z M314.694,310.013v9.656c0.281,0.016,0.523,0.023,0.727,0.023c0.906,0,1.535-0.223,1.887-0.668
		s0.527-1.371,0.527-2.777v-3.117c0-1.297-0.203-2.141-0.609-2.531S315.976,310.013,314.694,310.013z"/>
	<path fill="#FFFFFF" d="M327.961,303.521h9.844c3.109,0,5.465,0.242,7.066,0.727c1.602,0.483,2.895,1.463,3.879,2.938
		c0.984,1.477,1.477,3.854,1.477,7.132c0,2.218-0.348,3.764-1.043,4.639c-0.695,0.874-2.066,1.545-4.113,2.014
		c2.281,0.516,3.828,1.372,4.641,2.568c0.813,1.195,1.219,3.029,1.219,5.499v3.518c0,2.563-0.293,4.464-0.879,5.698
		c-0.586,1.235-1.52,2.079-2.801,2.533c-1.281,0.453-3.906,0.68-7.875,0.68h-11.414V303.521z M337.828,310.013v8.438
		c0.422-0.016,0.75-0.023,0.984-0.023c0.969,0,1.586-0.238,1.852-0.715s0.398-1.84,0.398-4.09c0-1.188-0.109-2.02-0.328-2.496
		s-0.504-0.777-0.855-0.902S338.844,310.028,337.828,310.013z M337.828,324.356v10.617c1.391-0.047,2.277-0.266,2.66-0.656
		s0.574-1.352,0.574-2.883v-3.539c0-1.625-0.172-2.609-0.516-2.953S339.297,324.403,337.828,324.356z"/>
	<path fill="#FFFFFF" d="M375.54,341.466h-8.25v-17.273l-5.133,17.273h-8.648v-37.969h8.25v17.133l5.531-17.133h8.25V341.466z"/>
	<path fill="#FFFFFF" d="M401.557,320.044h-9.867v-6.595c0-1.918-0.105-3.114-0.316-3.591c-0.211-0.475-0.676-0.713-1.395-0.713
		c-0.813,0-1.328,0.289-1.547,0.867s-0.328,1.828-0.328,3.75v17.625c0,1.844,0.109,3.047,0.328,3.609s0.711,0.844,1.477,0.844
		c0.734,0,1.215-0.281,1.441-0.846c0.227-0.563,0.34-1.888,0.34-3.971v-4.77h9.867v1.479c0,3.928-0.277,6.713-0.832,8.356
		c-0.555,1.643-1.781,3.082-3.68,4.318s-4.238,1.854-7.02,1.854c-2.891,0-5.273-0.523-7.148-1.57s-3.117-2.496-3.727-4.348
		s-0.914-4.637-0.914-8.355v-11.086c0-2.734,0.094-4.785,0.281-6.152s0.746-2.684,1.676-3.949s2.219-2.262,3.867-2.988
		s3.543-1.09,5.684-1.09c2.906,0,5.305,0.562,7.195,1.686c1.891,1.123,3.133,2.524,3.727,4.201c0.594,1.678,0.891,4.287,0.891,7.829
		V320.044z"/>
</g>
<text transform="matrix(1 0 0 1 400.727 341.4659)" fill="#FFFFFF" font-family="'BowlbyOneSC-Regular'" font-size="48"> </text>
<g enable-background="new    ">
	<path fill="#FFFFFF" d="M415.933,303.521h9.844c3.109,0,5.465,0.242,7.066,0.727c1.602,0.483,2.895,1.463,3.879,2.938
		c0.984,1.477,1.477,3.854,1.477,7.132c0,2.218-0.348,3.764-1.043,4.639c-0.695,0.874-2.066,1.545-4.113,2.014
		c2.281,0.516,3.828,1.372,4.641,2.568c0.813,1.195,1.219,3.029,1.219,5.499v3.518c0,2.563-0.293,4.464-0.879,5.698
		c-0.586,1.235-1.52,2.079-2.801,2.533c-1.281,0.453-3.906,0.68-7.875,0.68h-11.414V303.521z M425.8,310.013v8.438
		c0.422-0.016,0.75-0.023,0.984-0.023c0.969,0,1.586-0.238,1.852-0.715s0.398-1.84,0.398-4.09c0-1.188-0.109-2.02-0.328-2.496
		s-0.504-0.777-0.855-0.902S426.815,310.028,425.8,310.013z M425.8,324.356v10.617c1.391-0.047,2.277-0.266,2.66-0.656
		s0.574-1.352,0.574-2.883v-3.539c0-1.625-0.172-2.609-0.516-2.953S427.269,324.403,425.8,324.356z"/>
	<path fill="#FFFFFF" d="M477.2,348.005h-6.82v-6.539h-15.938v6.539h-6.797v-14.461h2.016c1.063-3.109,1.934-7.199,2.613-12.27
		s1.02-10.613,1.02-16.629v-1.148h21.891v30h2.016V348.005z M465.294,333.497v-22.5h-2.93v0.281c0,7.266-0.781,14.672-2.344,22.219
		H465.294z"/>
	<path fill="#FFFFFF" d="M496.367,303.521l5.643,37.945h-10.084l-0.529-6.82h-3.53l-0.593,6.82h-10.201l5.033-37.945H496.367z
		 M491.138,327.919c-0.5-4.298-1-9.61-1.503-15.938c-1.005,7.266-1.637,12.578-1.894,15.938H491.138z"/>
	<path fill="#FFFFFF" d="M525.413,303.521v37.945h-9.867v-15.938h-2.953v15.938h-9.867v-37.945h9.867v13.57h2.953v-13.57H525.413z"
		/>
	<path fill="#FFFFFF" d="M551.102,303.521v37.945h-9.867v-15.938h-2.953v15.938h-9.867v-37.945h9.867v13.57h2.953v-13.57H551.102z"
		/>
	<path fill="#FFFFFF" d="M577.095,332.583c0,2.828-0.367,4.859-1.102,6.094s-1.848,2.008-3.34,2.32s-3.871,0.469-7.137,0.469
		h-11.414v-37.969h9.891v13.008h1.523c3.047,0,5.352,0.18,6.914,0.539s2.73,1.152,3.504,2.379s1.16,3.152,1.16,5.777V332.583z
		 M567.204,331.435v-5.484c0-1.594-0.16-2.563-0.48-2.906s-1.23-0.539-2.73-0.586v12.469c1.25,0,2.098-0.16,2.543-0.48
		S567.204,333.122,567.204,331.435z M590.337,341.466h-9.891v-37.969h9.891V341.466z"/>
	<path fill="#FFFFFF" d="M615.017,341.466h-8.25v-17.273l-5.133,17.273h-8.648v-37.969h8.25v17.133l5.531-17.133h8.25V341.466z
		 M606.626,295.247h3.984c-0.094,2.125-0.715,3.836-1.863,5.133s-2.746,1.945-4.793,1.945c-2.063,0-3.66-0.652-4.793-1.957
		c-1.133-1.305-1.746-3.012-1.84-5.121h3.984c0.188,2.141,1.07,3.211,2.648,3.211C605.548,298.458,606.439,297.388,606.626,295.247z
		"/>
	<path fill="#FFFFFF" d="M655.941,303.521v37.945h-8.625l-0.012-25.617l-3.434,25.617h-6.117l-3.621-25.031l-0.012,25.031h-8.625
		v-37.945h12.768c0.378,2.281,0.769,4.971,1.171,8.066l1.401,9.652l2.268-17.719H655.941z"/>
	<path fill="#FFFFFF" d="M681.489,325.739c0,3.813-0.09,6.512-0.27,8.098c-0.18,1.586-0.742,3.035-1.688,4.348
		c-0.946,1.313-2.223,2.32-3.832,3.023c-1.609,0.703-3.484,1.055-5.625,1.055c-2.031,0-3.855-0.332-5.473-0.996
		s-2.918-1.66-3.902-2.988s-1.57-2.773-1.758-4.336s-0.281-4.297-0.281-8.203v-6.492c0-3.813,0.09-6.512,0.27-8.098
		c0.179-1.586,0.742-3.035,1.688-4.348c0.945-1.313,2.223-2.32,3.832-3.023c1.609-0.703,3.484-1.055,5.625-1.055
		c2.031,0,3.855,0.332,5.473,0.996s2.918,1.66,3.902,2.988s1.57,2.773,1.758,4.336s0.281,4.297,0.281,8.203V325.739z
		 M671.622,313.271c0-1.766-0.098-2.895-0.293-3.387c-0.196-0.492-0.598-0.738-1.207-0.738c-0.516,0-0.911,0.199-1.184,0.598
		c-0.273,0.398-0.41,1.574-0.41,3.527v17.719c0,2.203,0.09,3.563,0.27,4.078c0.179,0.516,0.598,0.773,1.254,0.773
		c0.671,0,1.102-0.297,1.289-0.891s0.281-2.008,0.281-4.242V313.271z"/>
	<path fill="#FFFFFF" d="M714.654,303.521v37.945h-8.625l-0.012-25.617l-3.434,25.617h-6.117l-3.621-25.031l-0.012,25.031h-8.625
		v-37.945h12.768c0.378,2.281,0.769,4.971,1.171,8.066l1.401,9.652l2.268-17.719H714.654z"/>
	<path fill="#FFFFFF" d="M717.655,303.521h16.453v7.594h-6.586v7.195h6.164v7.219h-6.164v8.344h7.242v7.594h-17.109V303.521z"/>
	<path fill="#FFFFFF" d="M759.328,303.521v37.945h-9.867v-15.938h-2.953v15.938h-9.867v-37.945h9.867v13.57h2.953v-13.57H759.328z"
		/>
	<path fill="#FFFFFF" d="M782.204,303.521v7.594h-5.859v30.352h-9.867v-30.352h-5.836v-7.594H782.204z"/>
</g>
<g enable-background="new    ">
	<path fill="#FFFFFF" d="M183.837,399.066h-9.891v-30.375h-2.93v30.375h-9.891v-37.969h22.711V399.066z"/>
	<path fill="#FFFFFF" d="M209.361,383.339c0,3.813-0.09,6.512-0.27,8.098s-0.742,3.035-1.688,4.348s-2.223,2.32-3.832,3.023
		s-3.484,1.055-5.625,1.055c-2.031,0-3.855-0.332-5.473-0.996s-2.918-1.66-3.902-2.988s-1.57-2.773-1.758-4.336
		s-0.281-4.297-0.281-8.203v-6.492c0-3.813,0.09-6.512,0.27-8.098s0.742-3.035,1.688-4.348s2.223-2.32,3.832-3.023
		s3.484-1.055,5.625-1.055c2.031,0,3.855,0.332,5.473,0.996s2.918,1.66,3.902,2.988s1.57,2.773,1.758,4.336s0.281,4.297,0.281,8.203
		V383.339z M199.494,370.871c0-1.766-0.098-2.895-0.293-3.387s-0.598-0.738-1.207-0.738c-0.516,0-0.91,0.199-1.184,0.598
		s-0.41,1.574-0.41,3.527v17.719c0,2.203,0.09,3.563,0.27,4.078s0.598,0.773,1.254,0.773c0.672,0,1.102-0.297,1.289-0.891
		s0.281-2.008,0.281-4.242V370.871z"/>
	<path fill="#FFFFFF" d="M240.3,405.605h-6.82v-6.539h-15.938v6.539h-6.797v-14.461h2.016c1.063-3.109,1.934-7.199,2.613-12.27
		s1.02-10.613,1.02-16.629v-1.148h21.891v30h2.016V405.605z M228.394,391.097v-22.5h-2.93v0.281c0,7.266-0.781,14.672-2.344,22.219
		H228.394z"/>
	<path fill="#FFFFFF" d="M270.629,405.605h-6.82v-6.539h-15.938v6.539h-6.797v-14.461h2.016c1.063-3.109,1.934-7.199,2.613-12.27
		s1.02-10.613,1.02-16.629v-1.148h21.891v30h2.016V405.605z M258.723,391.097v-22.5h-2.93v0.281c0,7.266-0.781,14.672-2.344,22.219
		H258.723z"/>
	<path fill="#FFFFFF" d="M272.739,361.121h16.453v7.594h-6.586v7.195h6.164v7.219h-6.164v8.344h7.242v7.594h-17.109V361.121z"/>
	<path fill="#FFFFFF" d="M291.725,361.121h9.938c2.688,0,4.754,0.211,6.199,0.633s2.531,1.031,3.258,1.828s1.219,1.762,1.477,2.895
		s0.387,2.887,0.387,5.262v3.305c0,2.422-0.25,4.188-0.75,5.297s-1.418,1.961-2.754,2.555s-3.082,0.891-5.238,0.891h-2.648v15.281
		h-9.867V361.121z M301.592,367.613v9.656c0.281,0.016,0.523,0.023,0.727,0.023c0.906,0,1.535-0.223,1.887-0.668
		s0.527-1.371,0.527-2.777v-3.117c0-1.297-0.203-2.141-0.609-2.531S302.873,367.613,301.592,367.613z"/>
	<path fill="#FFFFFF" d="M325.757,382.753c-2.078,0.047-3.117,0.938-3.117,2.672v9.984c0,1.328-0.146,2.27-0.436,2.824
		c-0.291,0.555-0.499,0.832-0.625,0.832h-8.15c0.703-1.016,1.055-2.523,1.055-4.523v-8.531c0-1.813,0.504-3.195,1.512-4.148
		s2.738-1.633,5.191-2.039v-0.047c-4.438-0.234-6.656-2.297-6.656-6.188v-8.039c0-1.984-0.352-3.469-1.055-4.453h8.15
		c0.235,0.094,0.471,0.434,0.707,1.02c0.235,0.586,0.354,1.449,0.354,2.59v9.445c0,1.734,1.023,2.633,3.07,2.695v-15.75h9.891v15.75
		c2.078-0.063,3.117-0.961,3.117-2.695v-9.445c0-1.313,0.142-2.242,0.424-2.789c0.283-0.547,0.495-0.82,0.637-0.82h8.15
		c-0.703,0.984-1.055,2.469-1.055,4.453v8.039c0,3.891-2.227,5.953-6.68,6.188v0.047c2.453,0.406,4.188,1.086,5.203,2.039
		s1.523,2.336,1.523,4.148v8.531c0,2,0.352,3.508,1.055,4.523h-8.15c-0.251-0.109-0.491-0.461-0.719-1.055
		c-0.228-0.594-0.342-1.461-0.342-2.602v-9.984c0-1.734-1.055-2.625-3.164-2.672v16.313h-9.891V382.753z"/>
	<path fill="#FFFFFF" d="M371.46,399.066h-8.25v-17.273l-5.133,17.273h-8.648v-37.969h8.25v17.133l5.531-17.133h8.25V399.066z"/>
	<path fill="#FFFFFF" d="M374.438,361.121h9.844c3.109,0,5.464,0.242,7.066,0.727c1.602,0.483,2.895,1.463,3.879,2.938
		c0.984,1.477,1.477,3.854,1.477,7.132c0,2.218-0.348,3.764-1.043,4.639c-0.695,0.874-2.066,1.545-4.113,2.014
		c2.281,0.516,3.828,1.372,4.641,2.568c0.812,1.195,1.219,3.029,1.219,5.499v3.518c0,2.563-0.293,4.464-0.879,5.698
		c-0.586,1.235-1.52,2.079-2.801,2.533c-1.281,0.453-3.906,0.68-7.875,0.68h-11.414V361.121z M384.305,367.613v8.438
		c0.422-0.016,0.75-0.023,0.984-0.023c0.969,0,1.585-0.238,1.852-0.715c0.266-0.477,0.398-1.84,0.398-4.09
		c0-1.188-0.109-2.02-0.328-2.496c-0.219-0.477-0.504-0.777-0.855-0.902S385.321,367.628,384.305,367.613z M384.305,381.957v10.617
		c1.391-0.047,2.277-0.266,2.66-0.656c0.383-0.391,0.574-1.352,0.574-2.883v-3.539c0-1.625-0.172-2.609-0.516-2.953
		C386.68,382.199,385.773,382.003,384.305,381.957z"/>
	<path fill="#FFFFFF" d="M417.042,361.121l5.643,37.945h-10.084l-0.53-6.82h-3.529l-0.593,6.82h-10.201l5.033-37.945H417.042z
		 M411.813,385.519c-0.5-4.298-1-9.61-1.503-15.938c-1.005,7.266-1.637,12.578-1.894,15.938H411.813z"/>
	<path fill="#FFFFFF" d="M423.401,361.121h16.453v7.594h-6.586v7.195h6.164v7.219h-6.164v8.344h7.242v7.594h-17.109V361.121z"/>
	<path fill="#FFFFFF" d="M462.261,361.121v7.594h-5.859v30.352h-9.867v-30.352h-5.836v-7.594H462.261z"/>
	<path fill="#FFFFFF" d="M490.927,361.121v7.594h-5.859v30.352h-9.867v-30.352h-5.836v-7.594H490.927z"/>
	<path fill="#FFFFFF" d="M514.764,383.339c0,3.813-0.09,6.512-0.27,8.098c-0.18,1.586-0.742,3.035-1.688,4.348
		c-0.946,1.313-2.223,2.32-3.832,3.023c-1.609,0.703-3.484,1.055-5.625,1.055c-2.031,0-3.855-0.332-5.473-0.996
		s-2.918-1.66-3.902-2.988s-1.57-2.773-1.758-4.336s-0.281-4.297-0.281-8.203v-6.492c0-3.813,0.09-6.512,0.27-8.098
		c0.179-1.586,0.742-3.035,1.688-4.348c0.945-1.313,2.223-2.32,3.832-3.023c1.609-0.703,3.484-1.055,5.625-1.055
		c2.031,0,3.855,0.332,5.473,0.996s2.918,1.66,3.902,2.988s1.57,2.773,1.758,4.336s0.281,4.297,0.281,8.203V383.339z
		 M504.897,370.871c0-1.766-0.098-2.895-0.293-3.387c-0.196-0.492-0.598-0.738-1.207-0.738c-0.516,0-0.911,0.199-1.184,0.598
		c-0.273,0.398-0.41,1.574-0.41,3.527v17.719c0,2.203,0.09,3.563,0.27,4.078c0.179,0.516,0.598,0.773,1.254,0.773
		c0.671,0,1.102-0.297,1.289-0.891s0.281-2.008,0.281-4.242V370.871z"/>
	<path fill="#FFFFFF" d="M541.578,399.066h-9.891v-30.375h-2.883v21.492c0,2.828-0.365,4.859-1.094,6.094
		c-0.729,1.234-1.836,2.008-3.319,2.32c-1.483,0.313-3.849,0.469-7.096,0.469h-1.546v-6.539c1.203,0,2.031-0.148,2.484-0.445
		c0.453-0.297,0.68-1.313,0.68-3.047v-27.938h22.664V399.066z"/>
	<path fill="#FFFFFF" d="M567.547,390.183c0,2.828-0.367,4.859-1.102,6.094c-0.735,1.234-1.848,2.008-3.34,2.32
		c-1.492,0.313-3.871,0.469-7.137,0.469h-11.414v-37.969h9.891v13.008h1.523c3.047,0,5.352,0.18,6.914,0.539
		c1.562,0.359,2.73,1.152,3.504,2.379s1.16,3.152,1.16,5.777V390.183z M557.657,389.035v-5.484c0-1.594-0.161-2.563-0.48-2.906
		c-0.32-0.344-1.23-0.539-2.73-0.586v12.469c1.25,0,2.098-0.16,2.543-0.48S557.657,390.722,557.657,389.035z"/>
	<path fill="#FFFFFF" d="M570.08,361.097h9.891l0.047,16.031c1.859-0.047,2.82-1.078,2.883-3.094l0.188-7.406
		c0.062-2.734,0.594-4.578,1.594-5.531h9.117c-0.891,0.922-1.328,2.828-1.313,5.719l0.047,6.516c0.031,3.938-2.188,6.18-6.656,6.727
		c4.468,0.547,6.688,2.82,6.656,6.82l-0.047,6.047c-0.016,2.875,0.422,4.922,1.313,6.141h-9.117
		c-1.063-0.953-1.594-2.797-1.594-5.531v-7.406c0-0.938-0.285-1.691-0.855-2.262c-0.571-0.57-1.309-0.863-2.215-0.879l-0.047,16.078
		h-9.891V361.097z"/>
	<path fill="#FFFFFF" d="M617.401,383.339c0,3.813-0.09,6.512-0.27,8.098c-0.18,1.586-0.742,3.035-1.688,4.348
		c-0.946,1.313-2.223,2.32-3.832,3.023c-1.609,0.703-3.484,1.055-5.625,1.055c-2.031,0-3.855-0.332-5.473-0.996
		s-2.918-1.66-3.902-2.988s-1.57-2.773-1.758-4.336s-0.281-4.297-0.281-8.203v-6.492c0-3.813,0.09-6.512,0.27-8.098
		c0.179-1.586,0.742-3.035,1.688-4.348c0.945-1.313,2.223-2.32,3.832-3.023c1.609-0.703,3.484-1.055,5.625-1.055
		c2.031,0,3.855,0.332,5.473,0.996s2.918,1.66,3.902,2.988s1.57,2.773,1.758,4.336s0.281,4.297,0.281,8.203V383.339z
		 M607.534,370.871c0-1.766-0.098-2.895-0.293-3.387c-0.196-0.492-0.598-0.738-1.207-0.738c-0.516,0-0.911,0.199-1.184,0.598
		c-0.273,0.398-0.41,1.574-0.41,3.527v17.719c0,2.203,0.09,3.563,0.27,4.078c0.179,0.516,0.598,0.773,1.254,0.773
		c0.671,0,1.102-0.297,1.289-0.891s0.281-2.008,0.281-4.242V370.871z"/>
</g>
<g enable-background="new    ">
	<path fill="#FFFFFF" d="M191.571,418.721v37.945h-8.625l-0.012-25.617l-3.434,25.617h-6.117l-3.621-25.031l-0.012,25.031h-8.625
		v-37.945h12.768c0.379,2.281,0.769,4.971,1.171,8.066l1.401,9.652l2.268-17.719H191.571z"/>
	<path fill="#FFFFFF" d="M217.119,440.939c0,3.813-0.09,6.512-0.27,8.098s-0.742,3.035-1.688,4.348s-2.223,2.32-3.832,3.023
		s-3.484,1.055-5.625,1.055c-2.031,0-3.855-0.332-5.473-0.996s-2.918-1.66-3.902-2.988s-1.57-2.773-1.758-4.336
		s-0.281-4.297-0.281-8.203v-6.492c0-3.813,0.09-6.512,0.27-8.098s0.742-3.035,1.688-4.348s2.223-2.32,3.832-3.023
		s3.484-1.055,5.625-1.055c2.031,0,3.855,0.332,5.473,0.996s2.918,1.66,3.902,2.988s1.57,2.773,1.758,4.336s0.281,4.297,0.281,8.203
		V440.939z M207.252,428.471c0-1.766-0.098-2.895-0.293-3.387s-0.598-0.738-1.207-0.738c-0.516,0-0.91,0.199-1.184,0.598
		s-0.41,1.574-0.41,3.527v17.719c0,2.203,0.09,3.563,0.27,4.078s0.598,0.773,1.254,0.773c0.672,0,1.102-0.297,1.289-0.891
		s0.281-2.008,0.281-4.242V428.471z"/>
	<path fill="#FFFFFF" d="M242.831,447.783c0,2.828-0.367,4.859-1.102,6.094s-1.848,2.008-3.34,2.32s-3.871,0.469-7.137,0.469
		h-11.414v-37.969h19.336v6.586h-9.445v6.422h1.523c3.047,0,5.352,0.18,6.914,0.539s2.73,1.152,3.504,2.379s1.16,3.152,1.16,5.777
		V447.783z M232.94,446.635v-5.484c0-1.594-0.16-2.563-0.48-2.906s-1.23-0.539-2.73-0.586v12.469c1.25,0,2.098-0.16,2.543-0.48
		S232.94,448.322,232.94,446.635z"/>
	<path fill="#FFFFFF" d="M267.395,456.666h-8.25v-17.273l-5.133,17.273h-8.648v-37.969h8.25v17.133l5.531-17.133h8.25V456.666z"/>
	<path fill="#FFFFFF" d="M294.466,456.666h-9.891v-30.375h-2.883v21.492c0,2.828-0.365,4.859-1.094,6.094
		c-0.729,1.234-1.836,2.008-3.319,2.32c-1.483,0.313-3.848,0.469-7.096,0.469h-1.546v-6.539c1.203,0,2.031-0.148,2.484-0.445
		s0.68-1.313,0.68-3.047v-27.938h22.664V456.666z"/>
	<path fill="#FFFFFF" d="M320.436,447.783c0,2.828-0.367,4.859-1.102,6.094s-1.848,2.008-3.34,2.32s-3.871,0.469-7.137,0.469
		h-11.414v-37.969h9.891v13.008h1.523c3.047,0,5.352,0.18,6.914,0.539s2.73,1.152,3.504,2.379s1.16,3.152,1.16,5.777V447.783z
		 M310.545,446.635v-5.484c0-1.594-0.16-2.563-0.48-2.906s-1.23-0.539-2.73-0.586v12.469c1.25,0,2.098-0.16,2.543-0.48
		S310.545,448.322,310.545,446.635z"/>
	<path fill="#FFFFFF" d="M345.655,418.721v37.945h-9.867v-15.938h-2.953v15.938h-9.867v-37.945h9.867v13.57h2.953v-13.57H345.655z"
		/>
	<path fill="#FFFFFF" d="M371.648,447.783c0,2.828-0.367,4.859-1.102,6.094c-0.735,1.234-1.848,2.008-3.34,2.32
		c-1.492,0.313-3.871,0.469-7.137,0.469h-11.414v-37.969h9.891v13.008h1.523c3.047,0,5.352,0.18,6.914,0.539
		c1.562,0.359,2.73,1.152,3.504,2.379s1.16,3.152,1.16,5.777V447.783z M361.757,446.635v-5.484c0-1.594-0.161-2.563-0.48-2.906
		c-0.32-0.344-1.23-0.539-2.73-0.586v12.469c1.25,0,2.098-0.16,2.543-0.48S361.757,448.322,361.757,446.635z M384.89,456.666H375
		v-37.969h9.891V456.666z"/>
	<path fill="#FFFFFF" d="M387.54,418.721h16.453v7.594h-6.586v7.195h6.164v7.219h-6.164v8.344h7.242v7.594H387.54V418.721z"/>
	<path fill="#FFFFFF" d="M433.567,418.697l-2.688,25.148c-0.424,3.969-0.879,6.754-1.363,8.355s-1.422,2.746-2.812,3.434
		c-1.391,0.688-3.679,1.031-6.866,1.031h-5.765v-4.898h0.587c1.299,0,2.101-0.105,2.407-0.316c0.305-0.211,0.458-0.535,0.458-0.973
		c0-0.031-0.188-1.102-0.563-3.211l-5.185-28.57h8.572l3.135,23.648L425,418.697H433.567z"/>
	<path fill="#FFFFFF" d="M457.621,435.244h-9.867v-6.595c0-1.918-0.105-3.114-0.316-3.591c-0.211-0.475-0.676-0.713-1.395-0.713
		c-0.813,0-1.328,0.289-1.547,0.867c-0.219,0.578-0.328,1.828-0.328,3.75v17.625c0,1.844,0.109,3.047,0.328,3.609
		c0.219,0.563,0.711,0.844,1.477,0.844c0.734,0,1.215-0.281,1.441-0.846c0.226-0.563,0.34-1.888,0.34-3.971v-4.77h9.867v1.479
		c0,3.928-0.278,6.713-0.832,8.356c-0.555,1.643-1.781,3.082-3.68,4.318s-4.239,1.854-7.02,1.854c-2.891,0-5.273-0.523-7.148-1.57
		s-3.117-2.496-3.727-4.348s-0.914-4.637-0.914-8.355v-11.086c0-2.734,0.094-4.785,0.281-6.152s0.746-2.684,1.676-3.949
		c0.929-1.266,2.218-2.262,3.867-2.988c1.648-0.727,3.542-1.09,5.684-1.09c2.906,0,5.305,0.562,7.195,1.686
		c1.89,1.123,3.132,2.524,3.727,4.201c0.594,1.678,0.891,4.287,0.891,7.829V435.244z"/>
	<path fill="#FFFFFF" d="M480.075,418.721v7.594h-5.859v30.352h-9.867v-30.352h-5.836v-7.594H480.075z"/>
	<path fill="#FFFFFF" d="M481.365,418.721h9.938c2.687,0,4.754,0.211,6.199,0.633c1.445,0.422,2.531,1.031,3.258,1.828
		s1.219,1.762,1.477,2.895s0.387,2.887,0.387,5.262v3.305c0,2.422-0.25,4.188-0.75,5.297c-0.5,1.109-1.418,1.961-2.754,2.555
		s-3.082,0.891-5.238,0.891h-2.648v15.281h-9.867V418.721z M491.232,425.213v9.656c0.281,0.016,0.523,0.023,0.727,0.023
		c0.906,0,1.535-0.223,1.887-0.668s0.527-1.371,0.527-2.777v-3.117c0-1.297-0.203-2.141-0.609-2.531
		C493.356,425.408,492.513,425.213,491.232,425.213z"/>
	<path fill="#FFFFFF" d="M527.045,440.939c0,3.813-0.09,6.512-0.27,8.098c-0.18,1.586-0.742,3.035-1.688,4.348
		c-0.946,1.313-2.223,2.32-3.832,3.023c-1.609,0.703-3.484,1.055-5.625,1.055c-2.031,0-3.855-0.332-5.473-0.996
		s-2.918-1.66-3.902-2.988s-1.57-2.773-1.758-4.336s-0.281-4.297-0.281-8.203v-6.492c0-3.813,0.09-6.512,0.27-8.098
		c0.179-1.586,0.742-3.035,1.688-4.348c0.945-1.313,2.223-2.32,3.832-3.023c1.609-0.703,3.484-1.055,5.625-1.055
		c2.031,0,3.855,0.332,5.473,0.996s2.918,1.66,3.902,2.988s1.57,2.773,1.758,4.336s0.281,4.297,0.281,8.203V440.939z
		 M517.178,428.471c0-1.766-0.098-2.895-0.293-3.387c-0.196-0.492-0.598-0.738-1.207-0.738c-0.516,0-0.911,0.199-1.184,0.598
		c-0.273,0.398-0.41,1.574-0.41,3.527v17.719c0,2.203,0.09,3.563,0.27,4.078c0.179,0.516,0.598,0.773,1.254,0.773
		c0.671,0,1.102-0.297,1.289-0.891s0.281-2.008,0.281-4.242V428.471z"/>
	<path fill="#FFFFFF" d="M551.796,456.666h-8.25v-17.273l-5.133,17.273h-8.648v-37.969h8.25v17.133l5.531-17.133h8.25V456.666z
		 M543.406,410.447h3.984c-0.094,2.125-0.715,3.836-1.863,5.133s-2.746,1.945-4.793,1.945c-2.063,0-3.66-0.652-4.793-1.957
		c-1.133-1.305-1.746-3.012-1.84-5.121h3.984c0.188,2.141,1.07,3.211,2.648,3.211C542.328,413.658,543.218,412.588,543.406,410.447z
		"/>
	<path fill="#FFFFFF" d="M574.649,418.721v7.594h-5.859v30.352h-9.867v-30.352h-5.836v-7.594H574.649z"/>
	<path fill="#FFFFFF" d="M575.939,418.721h9.844c3.109,0,5.464,0.242,7.066,0.727c1.602,0.483,2.895,1.463,3.879,2.938
		c0.984,1.477,1.477,3.854,1.477,7.132c0,2.218-0.348,3.764-1.043,4.639c-0.695,0.874-2.066,1.545-4.113,2.014
		c2.281,0.516,3.828,1.372,4.641,2.568c0.812,1.195,1.219,3.029,1.219,5.499v3.518c0,2.563-0.293,4.464-0.879,5.698
		c-0.586,1.235-1.52,2.079-2.801,2.533c-1.281,0.453-3.906,0.68-7.875,0.68h-11.414V418.721z M585.806,425.213v8.438
		c0.422-0.016,0.75-0.023,0.984-0.023c0.969,0,1.585-0.238,1.852-0.715c0.266-0.477,0.398-1.84,0.398-4.09
		c0-1.188-0.109-2.02-0.328-2.496c-0.219-0.477-0.504-0.777-0.855-0.902S586.822,425.229,585.806,425.213z M585.806,439.557v10.617
		c1.391-0.047,2.277-0.266,2.66-0.656c0.383-0.391,0.574-1.352,0.574-2.883v-3.539c0-1.625-0.172-2.609-0.516-2.953
		C588.181,439.799,587.274,439.604,585.806,439.557z"/>
	<path fill="#FFFFFF" d="M618.543,418.721l5.643,37.945h-10.084l-0.53-6.82h-3.529l-0.593,6.82h-10.201l5.033-37.945H618.543z
		 M613.314,443.119c-0.5-4.298-1-9.61-1.503-15.938c-1.005,7.266-1.637,12.578-1.894,15.938H613.314z"/>
</g>
<g enable-background="new    ">
	<path fill="#6D6D6D" d="M177.649,471.407v28.459h-7.4v-11.953h-2.215v11.953h-7.4v-28.459h7.4v10.178h2.215v-10.178H177.649z"/>
	<path fill="#6D6D6D" d="M197.53,488.071c0,2.859-0.067,4.884-0.202,6.073s-0.557,2.276-1.266,3.261s-1.667,1.74-2.874,2.268
		s-2.613,0.791-4.219,0.791c-1.523,0-2.892-0.249-4.104-0.747s-2.188-1.245-2.927-2.241s-1.178-2.08-1.318-3.252
		s-0.211-3.223-0.211-6.152v-4.869c0-2.859,0.067-4.884,0.202-6.073s0.557-2.276,1.266-3.261s1.667-1.74,2.874-2.268
		s2.613-0.791,4.219-0.791c1.523,0,2.892,0.249,4.104,0.747s2.188,1.245,2.927,2.241s1.178,2.08,1.318,3.252
		s0.211,3.223,0.211,6.152V488.071z M190.13,478.719c0-1.324-0.073-2.171-0.22-2.54s-0.448-0.554-0.905-0.554
		c-0.387,0-0.683,0.149-0.888,0.448s-0.308,1.181-0.308,2.646v13.289c0,1.652,0.067,2.672,0.202,3.059s0.448,0.58,0.94,0.58
		c0.504,0,0.826-0.223,0.967-0.668s0.211-1.506,0.211-3.182V478.719z"/>
	<path fill="#6D6D6D" d="M206.636,471.407h7.453c2.016,0,3.565,0.158,4.649,0.475s1.898,0.773,2.443,1.371s0.914,1.321,1.107,2.171
		s0.29,2.165,0.29,3.946v2.479c0,1.816-0.188,3.141-0.563,3.973s-1.063,1.471-2.065,1.916s-2.312,0.668-3.929,0.668h-1.986v11.461
		h-7.4V471.407z M214.036,476.276v7.242c0.211,0.012,0.393,0.018,0.545,0.018c0.68,0,1.151-0.167,1.415-0.501
		s0.396-1.028,0.396-2.083v-2.338c0-0.973-0.152-1.605-0.457-1.898S214.997,476.276,214.036,476.276z"/>
	<path fill="#6D6D6D" d="M237.499,471.407l4.232,28.459h-7.563l-0.397-5.115h-2.647l-0.445,5.115h-7.651l3.775-28.459H237.499z
		 M233.576,489.706c-0.375-3.224-0.75-7.208-1.127-11.953c-0.754,5.449-1.228,9.434-1.42,11.953H233.576z"/>
	<path fill="#6D6D6D" d="M260.003,471.407v28.459h-7.4v-11.953h-2.215v11.953h-7.4v-28.459h7.4v10.178h2.215v-10.178H260.003z"/>
	<path fill="#6D6D6D" d="M279.884,488.071c0,2.859-0.067,4.884-0.202,6.073s-0.557,2.276-1.266,3.261s-1.667,1.74-2.874,2.268
		s-2.613,0.791-4.219,0.791c-1.523,0-2.892-0.249-4.104-0.747s-2.188-1.245-2.927-2.241s-1.178-2.08-1.318-3.252
		s-0.211-3.223-0.211-6.152v-4.869c0-2.859,0.067-4.884,0.202-6.073s0.557-2.276,1.266-3.261s1.667-1.74,2.874-2.268
		s2.613-0.791,4.219-0.791c1.523,0,2.892,0.249,4.104,0.747s2.188,1.245,2.927,2.241s1.178,2.08,1.318,3.252
		s0.211,3.223,0.211,6.152V488.071z M272.483,478.719c0-1.324-0.073-2.171-0.22-2.54s-0.448-0.554-0.905-0.554
		c-0.387,0-0.683,0.149-0.888,0.448s-0.308,1.181-0.308,2.646v13.289c0,1.652,0.067,2.672,0.202,3.059s0.448,0.58,0.94,0.58
		c0.504,0,0.826-0.223,0.967-0.668s0.211-1.506,0.211-3.182V478.719z"/>
	<path fill="#6D6D6D" d="M305.513,499.866h-6.188v-12.955l-3.85,12.955h-6.486v-28.477h6.188v12.85l4.148-12.85h6.188V499.866z"/>
	<path fill="#6D6D6D" d="M326.536,499.866h-7.418v-22.781h-2.162v16.119c0,2.121-0.273,3.645-0.82,4.57
		c-0.547,0.926-1.377,1.506-2.489,1.74s-2.886,0.352-5.322,0.352h-1.159v-4.904c0.902,0,1.523-0.111,1.863-0.334
		s0.51-0.984,0.51-2.285v-20.953h16.998V499.866z"/>
	<path fill="#6D6D6D" d="M346.013,499.866h-6.188v-12.955l-3.85,12.955h-6.486v-28.477h6.188v12.85l4.148-12.85h6.188V499.866z"/>
	<path fill="#6D6D6D" d="M372.345,499.866h-7.418v-22.781h-2.197v22.781h-7.418v-28.477h17.033V499.866z"/>
	<path fill="#6D6D6D" d="M392.208,488.071c0,2.859-0.067,4.884-0.202,6.073s-0.557,2.276-1.266,3.261s-1.667,1.74-2.874,2.268
		s-2.613,0.791-4.219,0.791c-1.523,0-2.892-0.249-4.104-0.747s-2.188-1.245-2.927-2.241s-1.178-2.08-1.318-3.252
		s-0.211-3.223-0.211-6.152v-4.869c0-2.859,0.067-4.884,0.202-6.073s0.557-2.276,1.266-3.261s1.667-1.74,2.874-2.268
		s2.613-0.791,4.219-0.791c1.523,0,2.892,0.249,4.104,0.747s2.188,1.245,2.927,2.241s1.178,2.08,1.318,3.252
		s0.211,3.223,0.211,6.152V488.071z M384.808,478.719c0-1.324-0.073-2.171-0.22-2.54s-0.448-0.554-0.905-0.554
		c-0.387,0-0.683,0.149-0.888,0.448s-0.308,1.181-0.308,2.646v13.289c0,1.652,0.067,2.672,0.202,3.059s0.448,0.58,0.94,0.58
		c0.504,0,0.826-0.223,0.967-0.668s0.211-1.506,0.211-3.182V478.719z"/>
	<path fill="#6D6D6D" d="M408.099,483.738c1.078,0.363,1.881,0.959,2.408,1.785c0.527,0.827,0.791,2.765,0.791,5.813
		c0,2.263-0.258,4.019-0.773,5.268s-1.406,2.198-2.672,2.849c-1.266,0.651-2.889,0.977-4.869,0.977c-2.25,0-4.017-0.378-5.3-1.134
		s-2.127-1.682-2.531-2.777s-0.606-2.997-0.606-5.704v-2.25h7.102v4.623c0,1.23,0.073,2.013,0.22,2.347s0.472,0.501,0.976,0.501
		c0.551,0,0.914-0.211,1.09-0.633s0.264-1.523,0.264-3.305v-1.969c0-1.09-0.123-1.887-0.369-2.391s-0.609-0.835-1.09-0.993
		s-1.412-0.249-2.795-0.272v-4.131c1.688,0,2.73-0.064,3.129-0.193s0.686-0.41,0.861-0.844s0.264-1.113,0.264-2.039v-1.582
		c0-0.996-0.103-1.652-0.308-1.969s-0.524-0.475-0.958-0.475c-0.492,0-0.829,0.167-1.011,0.501s-0.272,1.046-0.272,2.136v2.338
		h-7.102v-2.426c0-2.719,0.621-4.556,1.863-5.511s3.217-1.433,5.924-1.433c3.387,0,5.684,0.662,6.891,1.985s1.811,3.161,1.811,5.516
		c0,1.593-0.217,2.743-0.65,3.451C409.95,482.505,409.188,483.152,408.099,483.738z"/>
	<path fill="#6D6D6D" d="M435.222,504.77h-5.115v-4.904h-11.953v4.904h-5.098v-10.846h1.512c0.797-2.332,1.45-5.399,1.96-9.202
		s0.765-7.96,0.765-12.472v-0.861h16.418v22.5h1.512V504.77z M426.292,493.889v-16.875h-2.197v0.211
		c0,5.449-0.586,11.004-1.758,16.664H426.292z"/>
	<path fill="#6D6D6D" d="M454.54,471.407v28.459h-7.4v-11.953h-2.215v11.953h-7.4v-28.459h7.4v10.178h2.215v-10.178H454.54z"/>
	<path fill="#6D6D6D" d="M474.421,488.071c0,2.859-0.067,4.884-0.202,6.073s-0.557,2.276-1.266,3.261s-1.667,1.74-2.874,2.268
		s-2.613,0.791-4.219,0.791c-1.523,0-2.892-0.249-4.104-0.747s-2.188-1.245-2.927-2.241s-1.178-2.08-1.318-3.252
		S457.3,491,457.3,488.071v-4.869c0-2.859,0.067-4.884,0.202-6.073s0.557-2.276,1.266-3.261s1.667-1.74,2.874-2.268
		s2.613-0.791,4.219-0.791c1.523,0,2.892,0.249,4.104,0.747s2.188,1.245,2.927,2.241s1.178,2.08,1.318,3.252
		s0.211,3.223,0.211,6.152V488.071z M467.021,478.719c0-1.324-0.073-2.171-0.22-2.54s-0.448-0.554-0.905-0.554
		c-0.387,0-0.683,0.149-0.888,0.448s-0.308,1.181-0.308,2.646v13.289c0,1.652,0.067,2.672,0.202,3.059s0.448,0.58,0.94,0.58
		c0.504,0,0.826-0.223,0.967-0.668s0.211-1.506,0.211-3.182V478.719z"/>
	<path fill="#6D6D6D" d="M496.657,483.738c1.078,0.363,1.881,0.959,2.408,1.785c0.527,0.827,0.791,2.765,0.791,5.813
		c0,2.263-0.258,4.019-0.773,5.268s-1.406,2.198-2.672,2.849c-1.266,0.651-2.889,0.977-4.869,0.977c-2.25,0-4.017-0.378-5.3-1.134
		s-2.127-1.682-2.531-2.777s-0.606-2.997-0.606-5.704v-2.25h7.102v4.623c0,1.23,0.073,2.013,0.22,2.347s0.472,0.501,0.976,0.501
		c0.551,0,0.914-0.211,1.09-0.633s0.264-1.523,0.264-3.305v-1.969c0-1.09-0.123-1.887-0.369-2.391s-0.609-0.835-1.09-0.993
		s-1.412-0.249-2.795-0.272v-4.131c1.688,0,2.73-0.064,3.129-0.193s0.686-0.41,0.861-0.844s0.264-1.113,0.264-2.039v-1.582
		c0-0.996-0.103-1.652-0.308-1.969s-0.524-0.475-0.958-0.475c-0.492,0-0.829,0.167-1.011,0.501s-0.272,1.046-0.272,2.136v2.338
		h-7.102v-2.426c0-2.719,0.621-4.556,1.863-5.511s3.217-1.433,5.924-1.433c3.387,0,5.684,0.662,6.891,1.985s1.811,3.161,1.811,5.516
		c0,1.593-0.217,2.743-0.65,3.451C498.509,482.505,497.747,483.152,496.657,483.738z"/>
	<path fill="#6D6D6D" d="M523.78,504.77h-5.115v-4.904h-11.953v4.904h-5.098v-10.846h1.512c0.797-2.332,1.45-5.399,1.96-9.202
		s0.765-7.96,0.765-12.472v-0.861h16.418v22.5h1.512V504.77z M514.851,493.889v-16.875h-2.197v0.211
		c0,5.449-0.586,11.004-1.758,16.664H514.851z"/>
	<path fill="#6D6D6D" d="M526.083,471.407h12.34v5.695h-4.939v5.396h4.623v5.414h-4.623v6.258h5.432v5.695h-12.832V471.407z"/>
	<path fill="#6D6D6D" d="M558.321,483.799h-7.4v-4.946c0-1.438-0.079-2.336-0.237-2.692s-0.507-0.535-1.046-0.535
		c-0.609,0-0.996,0.217-1.16,0.65s-0.246,1.371-0.246,2.813v13.219c0,1.383,0.082,2.285,0.246,2.707s0.533,0.633,1.107,0.633
		c0.551,0,0.911-0.211,1.081-0.634c0.17-0.424,0.255-1.416,0.255-2.979v-3.577h7.4v1.109c0,2.945-0.208,5.034-0.624,6.267
		s-1.336,2.313-2.76,3.239s-3.179,1.391-5.265,1.391c-2.168,0-3.955-0.393-5.361-1.178s-2.338-1.872-2.795-3.261
		s-0.686-3.478-0.686-6.267v-8.314c0-2.051,0.07-3.589,0.211-4.614s0.56-2.013,1.257-2.962s1.664-1.696,2.9-2.241
		s2.657-0.817,4.263-0.817c2.18,0,3.979,0.421,5.396,1.264s2.35,1.894,2.795,3.151s0.668,3.215,0.668,5.872V483.799z"/>
	<path fill="#6D6D6D" d="M578.22,493.204c0,2.121-0.275,3.645-0.826,4.57s-1.386,1.506-2.505,1.74s-2.903,0.352-5.353,0.352h-8.561
		v-28.477h7.418v9.756h1.143c2.285,0,4.014,0.135,5.186,0.404s2.048,0.864,2.628,1.784s0.87,2.364,0.87,4.333V493.204z
		 M570.802,492.342v-4.113c0-1.195-0.12-1.922-0.36-2.18s-0.923-0.404-2.048-0.439v9.352c0.938,0,1.573-0.12,1.907-0.36
		S570.802,493.608,570.802,492.342z"/>
</g>
<g enable-background="new    ">
	<path fill="#6D6D6D" d="M177.667,543.066h-7.418v-22.781h-2.197v22.781h-7.418v-28.477h17.033V543.066z"/>
	<path fill="#6D6D6D" d="M197.53,531.271c0,2.859-0.067,4.884-0.202,6.073s-0.557,2.276-1.266,3.261s-1.667,1.74-2.874,2.268
		s-2.613,0.791-4.219,0.791c-1.523,0-2.892-0.249-4.104-0.747s-2.188-1.245-2.927-2.241s-1.178-2.08-1.318-3.252
		s-0.211-3.223-0.211-6.152v-4.869c0-2.859,0.067-4.884,0.202-6.073s0.557-2.276,1.266-3.261s1.667-1.74,2.874-2.268
		s2.613-0.791,4.219-0.791c1.523,0,2.892,0.249,4.104,0.747s2.188,1.245,2.927,2.241s1.178,2.08,1.318,3.252
		s0.211,3.223,0.211,6.152V531.271z M190.13,521.919c0-1.324-0.073-2.171-0.22-2.54s-0.448-0.554-0.905-0.554
		c-0.387,0-0.683,0.149-0.888,0.448s-0.308,1.181-0.308,2.646v13.289c0,1.652,0.067,2.672,0.202,3.059s0.448,0.58,0.94,0.58
		c0.504,0,0.826-0.223,0.967-0.668s0.211-1.506,0.211-3.182V521.919z"/>
	<path fill="#6D6D6D" d="M216.778,543.066h-7.418v-12.814c-0.938,0-1.544,0.155-1.819,0.466s-0.413,0.993-0.413,2.048v10.301h-6.873
		v-8.49c0-1.441,0.079-2.537,0.238-3.287c0.158-0.75,0.525-1.371,1.1-1.863s1.484-0.902,2.728-1.23
		c-1.701-0.152-2.804-0.636-3.308-1.45c-0.505-0.814-0.757-2.276-0.757-4.386c0-1.898,0.234-3.384,0.703-4.456
		s1.148-1.843,2.039-2.312s1.916-0.753,3.076-0.853s2.977-0.149,5.449-0.149h5.256V543.066z M209.36,525.787v-6.293h-0.352
		c-0.621,0-1.09,0.138-1.406,0.413s-0.475,0.864-0.475,1.767v1.564c0,1.055,0.132,1.743,0.396,2.065S208.399,525.787,209.36,525.787
		z"/>
	<path fill="#6D6D6D" d="M219.661,514.607h7.383c2.332,0,4.099,0.182,5.3,0.545s2.171,1.098,2.909,2.204s1.107,2.89,1.107,5.349
		c0,1.663-0.261,2.822-0.782,3.479s-1.55,1.159-3.085,1.511c1.711,0.387,2.871,1.029,3.48,1.926
		c0.609,0.897,0.914,2.272,0.914,4.125v2.638c0,1.923-0.22,3.348-0.659,4.274c-0.439,0.926-1.14,1.56-2.101,1.899
		s-2.93,0.51-5.906,0.51h-8.561V514.607z M227.062,519.476v6.328c0.316-0.012,0.563-0.018,0.738-0.018
		c0.727,0,1.189-0.179,1.389-0.536s0.299-1.38,0.299-3.067c0-0.891-0.082-1.515-0.246-1.872s-0.378-0.583-0.642-0.677
		S227.823,519.488,227.062,519.476z M227.062,530.234v7.963c1.043-0.035,1.708-0.199,1.995-0.492s0.431-1.014,0.431-2.162v-2.654
		c0-1.219-0.129-1.957-0.387-2.215S228.163,530.269,227.062,530.234z"/>
	<path fill="#6D6D6D" d="M256.065,543.066h-6.188v-12.955l-3.85,12.955h-6.486v-28.477h6.188v12.85l4.148-12.85h6.188V543.066z"/>
	<path fill="#6D6D6D" d="M273.925,514.607v5.695h-4.395v22.764h-7.4v-22.764h-4.377v-5.695H273.925z"/>
	<path fill="#6D6D6D" d="M292.892,527h-7.4v-4.946c0-1.438-0.079-2.336-0.237-2.692s-0.507-0.535-1.046-0.535
		c-0.609,0-0.996,0.217-1.16,0.65s-0.246,1.371-0.246,2.813v13.219c0,1.383,0.082,2.285,0.246,2.707s0.533,0.633,1.107,0.633
		c0.551,0,0.911-0.211,1.081-0.634c0.17-0.424,0.255-1.416,0.255-2.979v-3.577h7.4v1.109c0,2.945-0.208,5.034-0.624,6.267
		s-1.336,2.313-2.76,3.239s-3.179,1.391-5.265,1.391c-2.168,0-3.955-0.393-5.361-1.178s-2.338-1.872-2.795-3.261
		s-0.686-3.478-0.686-6.267v-8.314c0-2.051,0.07-3.589,0.211-4.614s0.56-2.013,1.257-2.962s1.664-1.696,2.9-2.241
		s2.657-0.817,4.263-0.817c2.18,0,3.979,0.421,5.396,1.264s2.35,1.894,2.795,3.151s0.668,3.215,0.668,5.872V527z"/>
	<path fill="#6D6D6D" d="M312.034,543.066h-7.418v-12.814c-0.938,0-1.544,0.155-1.819,0.466s-0.413,0.993-0.413,2.048v10.301h-6.873
		v-8.49c0-1.441,0.079-2.537,0.238-3.287c0.158-0.75,0.525-1.371,1.1-1.863s1.484-0.902,2.728-1.23
		c-1.701-0.152-2.804-0.636-3.308-1.45c-0.505-0.814-0.757-2.276-0.757-4.386c0-1.898,0.234-3.384,0.703-4.456
		s1.148-1.843,2.039-2.312s1.916-0.753,3.076-0.853s2.977-0.149,5.449-0.149h5.256V543.066z M304.616,525.787v-6.293h-0.352
		c-0.621,0-1.09,0.138-1.406,0.413s-0.475,0.864-0.475,1.767v1.564c0,1.055,0.132,1.743,0.396,2.065
		S303.655,525.787,304.616,525.787z"/>
	<path fill="#6D6D6D" d="M331.37,532.15c-0.598,0.633-1.377,1.14-2.338,1.521s-1.934,0.571-2.918,0.571
		c-1.77,0-3.056-0.492-3.858-1.477s-1.204-2.508-1.204-4.57v-13.605h7.418v12.814c0,1.113,0.097,1.878,0.29,2.294
		s0.513,0.624,0.958,0.624c1.102,0,1.652-0.949,1.652-2.848v-12.885h7.418v28.477h-7.418V532.15z"/>
	<path fill="#6D6D6D" d="M356.647,514.607v5.695h-4.395v22.764h-7.4v-22.764h-4.377v-5.695H356.647z"/>
	<path fill="#6D6D6D" d="M375.245,531.271c0,2.859-0.067,4.884-0.202,6.073s-0.557,2.276-1.266,3.261s-1.667,1.74-2.874,2.268
		s-2.613,0.791-4.219,0.791c-1.523,0-2.892-0.249-4.104-0.747s-2.188-1.245-2.927-2.241s-1.178-2.08-1.318-3.252
		s-0.211-3.223-0.211-6.152v-4.869c0-2.859,0.067-4.884,0.202-6.073s0.557-2.276,1.266-3.261s1.667-1.74,2.874-2.268
		s2.613-0.791,4.219-0.791c1.523,0,2.892,0.249,4.104,0.747s2.188,1.245,2.927,2.241s1.178,2.08,1.318,3.252
		s0.211,3.223,0.211,6.152V531.271z M367.845,521.919c0-1.324-0.073-2.171-0.22-2.54s-0.448-0.554-0.905-0.554
		c-0.387,0-0.683,0.149-0.888,0.448s-0.308,1.181-0.308,2.646v13.289c0,1.652,0.067,2.672,0.202,3.059s0.448,0.58,0.94,0.58
		c0.504,0,0.826-0.223,0.967-0.668s0.211-1.506,0.211-3.182V521.919z"/>
	<path fill="#6D6D6D" d="M386.495,528.951v4.904h-9.334v-4.904H386.495z"/>
	<path fill="#6D6D6D" d="M403.511,514.607v5.695h-4.395v22.764h-7.4v-22.764h-4.377v-5.695H403.511z"/>
	<path fill="#6D6D6D" d="M422.108,531.271c0,2.859-0.067,4.884-0.202,6.073s-0.557,2.276-1.266,3.261s-1.667,1.74-2.874,2.268
		s-2.613,0.791-4.219,0.791c-1.523,0-2.892-0.249-4.104-0.747s-2.188-1.245-2.927-2.241s-1.178-2.08-1.318-3.252
		s-0.211-3.223-0.211-6.152v-4.869c0-2.859,0.067-4.884,0.202-6.073s0.557-2.276,1.266-3.261s1.667-1.74,2.874-2.268
		s2.613-0.791,4.219-0.791c1.523,0,2.892,0.249,4.104,0.747s2.188,1.245,2.927,2.241s1.178,2.08,1.318,3.252
		s0.211,3.223,0.211,6.152V531.271z M414.708,521.919c0-1.324-0.073-2.171-0.22-2.54s-0.448-0.554-0.905-0.554
		c-0.387,0-0.683,0.149-0.888,0.448s-0.308,1.181-0.308,2.646v13.289c0,1.652,0.067,2.672,0.202,3.059s0.448,0.58,0.94,0.58
		c0.504,0,0.826-0.223,0.967-0.668s0.211-1.506,0.211-3.182V521.919z"/>
	<path fill="#6D6D6D" d="M447.737,543.066h-6.188v-12.955l-3.85,12.955h-6.486v-28.477h6.188v12.85l4.148-12.85h6.188V543.066z"/>
	<path fill="#6D6D6D" d="M467.706,514.607v28.459h-7.4v-11.953h-2.215v11.953h-7.4v-28.459h7.4v10.178h2.215v-10.178H467.706z"/>
	<path fill="#6D6D6D" d="M485.583,514.607v5.695h-4.395v22.764h-7.4v-22.764h-4.377v-5.695H485.583z"/>
	<path fill="#6D6D6D" d="M487.271,514.607h12.34v5.695h-4.939v5.396h4.623v5.414h-4.623v6.258h5.432v5.695h-12.832V514.607z"/>
	<path fill="#6D6D6D" d="M502.229,514.607h7.453c2.016,0,3.565,0.158,4.649,0.475s1.898,0.773,2.443,1.371s0.914,1.321,1.107,2.171
		s0.29,2.165,0.29,3.946v2.479c0,1.816-0.188,3.141-0.563,3.973s-1.063,1.471-2.065,1.916s-2.312,0.668-3.929,0.668h-1.986v11.461
		h-7.4V514.607z M509.63,519.476v7.242c0.211,0.012,0.393,0.018,0.545,0.018c0.68,0,1.151-0.167,1.415-0.501
		s0.396-1.028,0.396-2.083v-2.338c0-0.973-0.152-1.605-0.457-1.898S510.591,519.476,509.63,519.476z"/>
	<path fill="#6D6D6D" d="M520.3,514.607h12.34v5.695H527.7v5.396h4.623v5.414H527.7v6.258h5.432v5.695H520.3V514.607z"/>
	<path fill="#6D6D6D" d="M552.538,527h-7.4v-4.946c0-1.438-0.079-2.336-0.237-2.692s-0.507-0.535-1.046-0.535
		c-0.609,0-0.996,0.217-1.16,0.65s-0.246,1.371-0.246,2.813v13.219c0,1.383,0.082,2.285,0.246,2.707s0.533,0.633,1.107,0.633
		c0.551,0,0.911-0.211,1.081-0.634c0.17-0.424,0.255-1.416,0.255-2.979v-3.577h7.4v1.109c0,2.945-0.208,5.034-0.624,6.267
		s-1.336,2.313-2.76,3.239s-3.179,1.391-5.265,1.391c-2.168,0-3.955-0.393-5.361-1.178s-2.338-1.872-2.795-3.261
		s-0.686-3.478-0.686-6.267v-8.314c0-2.051,0.07-3.589,0.211-4.614s0.56-2.013,1.257-2.962s1.664-1.696,2.9-2.241
		s2.657-0.817,4.263-0.817c2.18,0,3.979,0.421,5.396,1.264s2.35,1.894,2.795,3.151s0.668,3.215,0.668,5.872V527z"/>
	<path fill="#6D6D6D" d="M572.208,514.607v28.459h-7.4v-11.953h-2.215v11.953h-7.4v-28.459h7.4v10.178h2.215v-10.178H572.208z"/>
	<path fill="#6D6D6D" d="M592.089,531.271c0,2.859-0.067,4.884-0.202,6.073s-0.557,2.276-1.266,3.261s-1.667,1.74-2.874,2.268
		s-2.613,0.791-4.219,0.791c-1.523,0-2.892-0.249-4.104-0.747s-2.188-1.245-2.927-2.241s-1.178-2.08-1.318-3.252
		s-0.211-3.223-0.211-6.152v-4.869c0-2.859,0.067-4.884,0.202-6.073s0.557-2.276,1.266-3.261s1.667-1.74,2.874-2.268
		s2.613-0.791,4.219-0.791c1.523,0,2.892,0.249,4.104,0.747s2.188,1.245,2.927,2.241s1.178,2.08,1.318,3.252
		s0.211,3.223,0.211,6.152V531.271z M584.688,521.919c0-1.324-0.073-2.171-0.22-2.54s-0.448-0.554-0.905-0.554
		c-0.387,0-0.683,0.149-0.888,0.448s-0.308,1.181-0.308,2.646v13.289c0,1.652,0.067,2.672,0.202,3.059s0.448,0.58,0.94,0.58
		c0.504,0,0.826-0.223,0.967-0.668s0.211-1.506,0.211-3.182V521.919z"/>
	<path fill="#6D6D6D" d="M594.849,514.607h12.34v5.695h-4.939v5.396h4.623v5.414h-4.623v6.258h5.432v5.695h-12.832V514.607z"/>
</g>
<g>
	<ellipse fill="#FFD794" cx="789" cy="157.644" rx="22.529" ry="36.161"/>
	<ellipse fill="#FFC057" cx="789" cy="108.252" rx="22.529" ry="36.161"/>
	<path fill="#FFAB1F" d="M789,142.913c11.596,0,21.029-15.549,21.029-34.661c0-12.681-4.156-23.788-10.339-29.83l-30.314,42.269
		C772.417,133.674,780.064,142.913,789,142.913z"/>
	<rect x="786.797" y="32.125" fill="#FFC058" width="4.407" height="39.967"/>
	<path fill="#FFC058" d="M710.546,182.804c0.902-42.558,35.68-76.781,78.454-76.781s77.552,34.223,78.454,76.781H710.546z"/>
	<path fill="#FFAB1F" d="M865.906,181.304c-1.373-33.282-24.349-61.33-55.028-70.559l-50.603,70.559H865.906z"/>
</g>
<polyline opacity="0.1" fill="#FFC058" enable-background="new    " points="775,180.41 867.164,181.3 1171.66,862.5 775,862 
	803,862 405.11,862.5 710.55,181.3 803,180.41 "/>
</svg>
