<?xml version="1.0" encoding="utf-8"?>
<!-- Generator: Adobe Illustrator 17.0.0, SVG Export Plug-In . SVG Version: 6.00 Build 0)  -->
<!DOCTYPE svg PUBLIC "-//W3C//DTD SVG 1.1//EN" "http://www.w3.org/Graphics/SVG/1.1/DTD/svg11.dtd">
<svg version="1.1" id="Layer_1" xmlns="http://www.w3.org/2000/svg" xmlns:xlink="http://www.w3.org/1999/xlink" x="0px" y="0px"
	 width="1000px" height="1000px" viewBox="0 0 1000 1000" enable-background="new 0 0 1000 1000" xml:space="preserve">
<path fill="#FFFFFF" d="M261.72,146.606c9.9-12.167,28.204-26.286,39.602-31.938c35.376-17.544,58.694-12.101,77.68-7.604
	c92.568,21.921,90.627,104.179,90.627,104.179c3.808,75.5-41.507,127.35-73.872,155.889
	C364.36,394.816,261.72,467.509,261.72,467.509s-102.486-72.693-133.836-100.377c-32.317-28.539-77.564-80.388-73.762-155.889
	c0,0-1.938-82.258,90.491-104.179c18.958-4.496,42.241-9.939,77.564,7.604C233.558,120.32,251.834,134.439,261.72,146.606z"/>
<polygon fill="#FFFFFF" points="757.625,922.859 597.934,727.427 757.625,519.829 911.232,727.427 "/>
<g>
	<path fill="#FFFFFF" d="M754.718,357.031c-8.627,10.429-24.575,22.531-34.506,27.376c-30.825,15.038-51.142,10.372-67.686,6.518
		c-80.658-18.789-78.967-89.297-78.967-89.297c-3.318-64.715,36.166-109.158,64.368-133.62
		c27.357-23.73,116.791-86.038,116.791-86.038s89.301,62.309,116.617,86.038c28.159,24.462,67.585,68.905,64.272,133.62
		c0,0,1.689,70.508-78.849,89.297c-16.519,3.854-36.806,8.52-67.585-6.518C779.256,379.562,763.332,367.46,754.718,357.031z"/>
	<path fill="#FFFFFF" d="M784.642,347.594c5.725,52.598,26.213,119.914,26.213,119.914H698.311c0,0,23.817-77.592,27.878-116.688"/>
</g>
<g>
	<path fill="#FFFFFF" d="M260.483,741.462c0,0-47.03-47.03-79.065-60.662c-23.979-10.204-81.466-29.089-105.647,25.56
		c-17.04,38.51-0.396,75.059,8.179,84.858c14.313,16.357,40.414,27.696,80.486,14.313
		C195.05,795.307,260.483,741.462,260.483,741.462z"/>
	<path fill="#FFFFFF" d="M262.122,740.315c0,0,47.03-47.03,60.662-79.065c10.204-23.979,29.089-81.466-25.56-105.647
		c-38.51-17.04-75.059-0.396-84.858,8.179c-16.357,14.313-27.696,40.414-14.313,80.486
		C208.276,674.883,262.122,740.315,262.122,740.315z"/>
	<path fill="#FFFFFF" d="M263.268,739.169c0,0,47.03,47.03,79.065,60.662c23.979,10.204,81.466,29.089,105.647-25.56
		c17.04-38.51,0.396-75.059-8.179-84.858c-14.313-16.357-40.414-27.696-80.486-14.313
		C328.701,685.324,263.268,739.169,263.268,739.169z"/>
	<g>
		<path fill="#FFFFFF" d="M263.254,740.315v154.149H212.04C212.04,894.465,247.652,819.171,263.254,740.315z"/>
		<path fill="#FFFFFF" d="M263.254,740.315v154.149h51.241C314.495,894.465,278.865,819.171,263.254,740.315z"/>
	</g>
</g>
</svg>
