<?xml version="1.0" encoding="utf-8"?>
<!-- Generator: Adobe Illustrator 17.0.0, SVG Export Plug-In . SVG Version: 6.00 Build 0)  -->
<!DOCTYPE svg PUBLIC "-//W3C//DTD SVG 1.1//EN" "http://www.w3.org/Graphics/SVG/1.1/DTD/svg11.dtd">
<svg version="1.1" id="Layer_1" xmlns="http://www.w3.org/2000/svg" xmlns:xlink="http://www.w3.org/1999/xlink" x="0px" y="0px"
	 width="512px" height="512px" viewBox="0 0 512 512" enable-background="new 0 0 512 512" xml:space="preserve">
<g id="XMLID_2409_">
	<g id="XMLID_10577_">
		<g id="XMLID_13980_">
			<g id="XMLID_13966_">
				<polygon id="XMLID_13063_" fill="#FFD387" points="236.301,338.438 225.228,369.244 223.991,372.704 197.048,447.711 
					186.447,477.229 165.427,469.686 173.322,447.711 202.177,367.384 203.333,364.155 215.282,330.886 				"/>
				<path id="XMLID_13041_" fill="#F9BA3D" d="M215.282,330.886l21.02,7.553l-11.073,30.806c-7.442-1.257-14.744-2.957-21.895-5.089
					L215.282,330.886z"/>
				<polygon id="XMLID_13977_" fill="#F9BA3D" points="173.32,447.71 197.05,447.71 186.448,477.233 165.427,469.685 				"/>
				<polygon id="XMLID_13053_" fill="#FFD387" points="346.479,469.686 325.459,477.229 314.859,447.711 287.916,372.704 
					286.668,369.234 275.605,338.438 296.625,330.886 308.553,364.115 309.73,367.384 338.584,447.711 				"/>
				<path id="XMLID_13046_" fill="#F9BA3D" d="M308.553,364.115c-7.201,2.172-14.503,3.872-21.885,5.119l-11.063-30.796l21.02-7.553
					L308.553,364.115z"/>
				<polygon id="XMLID_13967_" fill="#F9BA3D" points="346.48,469.685 325.459,477.233 314.857,447.71 338.587,447.71 				"/>
			</g>
			<rect id="XMLID_13953_" x="134.354" y="460.895" fill="#F2A212" width="243.199" height="26.615"/>
			<rect id="XMLID_13950_" x="120.941" y="482.693" fill="#FFD387" width="270.025" height="21.807"/>
		</g>
		<g id="XMLID_13900_">
			<g id="XMLID_13872_">
				<path id="XMLID_14107_" fill="#A4BEBD" d="M322.763,345.11c-86.93,36.89-187.3-3.66-224.19-90.58
					c-36.9-86.92,3.65-187.3,90.57-224.19c10.75-4.57,21.71-7.95,32.74-10.2c22.89-4.68,46.03-4.5,68.13,0.02
					c53.28,10.88,100.47,46.93,123.32,100.76C450.233,207.84,409.683,308.21,322.763,345.11z"/>
				<path id="XMLID_14105_" fill="#708C8A" d="M290.013,20.16L267.48,98.099c-3.341,11.556-19.714,11.556-23.056,0L221.883,20.14
					C244.773,15.46,267.913,15.64,290.013,20.16z"/>
				<path id="XMLID_10599_" fill="#708C8A" d="M256.018,343.883c-62.804,0-119.24-37.353-143.777-95.159
					c-16.294-38.387-16.665-80.821-1.043-119.486c15.622-38.666,45.366-68.934,83.753-85.229
					c19.459-8.26,39.962-12.448,60.938-12.448c62.804,0,119.24,37.353,143.777,95.159c16.294,38.387,16.665,80.821,1.043,119.487
					s-45.366,68.934-83.753,85.228C297.497,339.694,276.994,343.883,256.018,343.883z"/>
				<circle id="XMLID_13354_" fill="#FFEED3" cx="255.953" cy="187.722" r="143.124"/>
			</g>
		</g>
	</g>
</g>
</svg>
