<?xml version="1.0" encoding="utf-8"?>
<!-- Generator: Adobe Illustrator 17.0.0, SVG Export Plug-In . SVG Version: 6.00 Build 0)  -->
<!DOCTYPE svg PUBLIC "-//W3C//DTD SVG 1.1//EN" "http://www.w3.org/Graphics/SVG/1.1/DTD/svg11.dtd">
<svg version="1.1" id="Layer_1" xmlns="http://www.w3.org/2000/svg" xmlns:xlink="http://www.w3.org/1999/xlink" x="0px" y="0px"
	 width="1000px" height="1000px" viewBox="0 0 1000 1000" enable-background="new 0 0 1000 1000" xml:space="preserve">
<g>
	<path fill="none" stroke="#000000" stroke-width="40" stroke-miterlimit="10" d="M507.665,656.656
		c-83.055,0-150.464-67.305-150.464-150.464s67.409-150.464,150.464-150.464c83.159,0,150.569,67.305,150.569,150.464
		S590.824,656.656,507.665,656.656z"/>
	<path fill="none" stroke="#000000" stroke-width="40" stroke-miterlimit="10" d="M684.153,780.632l103.706,83.118l78.75-85.354
		l-84.874-100.705l0,0c18.9-29.715,35.093-60.153,43.598-95.328l0,0l135.659-14.949l-4.67-116.039l-131.224-11.194l0,0
		c-8.19-42.42-22.682-79.225-45.467-114.084l0,0l85.354-106.496l-85.354-78.75l-98.925,83.418l0,0
		c-31.815-20.055-67.305-34.86-105.209-43.05l0,0l-14.6-132.954l-116.039,4.67L433.85,181.429l0,0
		c-38.535,8.4-74.523,23.685-106.653,44.37l0,0l-106.496-85.354l-78.75,85.354l84.874,100.705l0,0
		c-21.945,34.335-37.64,72.542-45.515,114.017l0,0L49.194,455.47l4.67,116.039l130.928,11.228l0,0
		c8.715,35.28,22.995,68.25,42,97.964l0,0l-83.215,103.893l85.354,78.75l97.885-82.191l0,0
		c32.34,20.895,68.395,36.153,107.245,44.657l0,0l14.89,134.252l116.039-4.67l11.194-131.224l0,0
		c39.06-8.505,75.051-22.153,107.601-43.258L684.153,780.632z"/>
</g>
</svg>
