<?xml version="1.0" encoding="utf-8"?>
<!-- Generator: Adobe Illustrator 17.0.0, SVG Export Plug-In . SVG Version: 6.00 Build 0)  -->
<!DOCTYPE svg PUBLIC "-//W3C//DTD SVG 1.1//EN" "http://www.w3.org/Graphics/SVG/1.1/DTD/svg11.dtd">
<svg version="1.1" id="Layer_1" xmlns="http://www.w3.org/2000/svg" xmlns:xlink="http://www.w3.org/1999/xlink" x="0px" y="0px"
	 width="1000px" height="1000px" viewBox="0 0 1000 1000" enable-background="new 0 0 1000 1000" xml:space="preserve">
<g>
	<linearGradient id="SVGID_1_" gradientUnits="userSpaceOnUse" x1="11.7628" y1="929.6616" x2="216.4918" y2="724.9326">
		<stop  offset="0" style="stop-color:#04BEFE"/>
		<stop  offset="1" style="stop-color:#4481EB"/>
	</linearGradient>
	<rect x="38.701" y="697.995" fill="url(#SVGID_1_)" width="150.853" height="258.605"/>
	<linearGradient id="SVGID_2_" gradientUnits="userSpaceOnUse" x1="189.5538" y1="910.805" x2="431.9961" y2="668.3627">
		<stop  offset="0" style="stop-color:#04BEFE"/>
		<stop  offset="1" style="stop-color:#4481EB"/>
	</linearGradient>
	<rect x="235.348" y="622.568" fill="url(#SVGID_2_)" width="150.853" height="334.032"/>
	<linearGradient id="SVGID_3_" gradientUnits="userSpaceOnUse" x1="341.7537" y1="871.7449" x2="662.3162" y2="551.1823">
		<stop  offset="0" style="stop-color:#04BEFE"/>
		<stop  offset="1" style="stop-color:#4481EB"/>
	</linearGradient>
	<rect x="426.608" y="466.327" fill="url(#SVGID_3_)" width="150.853" height="490.272"/>
	<linearGradient id="SVGID_4_" gradientUnits="userSpaceOnUse" x1="546.4827" y1="895.9891" x2="818.5568" y2="623.915">
		<stop  offset="0" style="stop-color:#04BEFE"/>
		<stop  offset="1" style="stop-color:#4481EB"/>
	</linearGradient>
	<rect x="607.093" y="563.304" fill="url(#SVGID_4_)" width="150.853" height="393.295"/>
	<linearGradient id="SVGID_5_" gradientUnits="userSpaceOnUse" x1="675.7853" y1="828.644" x2="1082.5496" y2="421.8797">
		<stop  offset="0" style="stop-color:#04BEFE"/>
		<stop  offset="1" style="stop-color:#4481EB"/>
	</linearGradient>
	<rect x="803.741" y="293.924" fill="url(#SVGID_5_)" width="150.853" height="662.676"/>
	<linearGradient id="SVGID_6_" gradientUnits="userSpaceOnUse" x1="68.62" y1="281.355" x2="921.98" y2="281.355">
		<stop  offset="0" style="stop-color:#04BEFE"/>
		<stop  offset="1" style="stop-color:#4481EB"/>
	</linearGradient>
	<path fill="none" stroke="url(#SVGID_6_)" stroke-width="12" stroke-miterlimit="10" d="M531.19,244.35l138.45,72.91l0,0
		c5.58-3.41,12.14-5.38,19.17-5.38c1.58,0,3.13,0.1,4.66,0.3l0,0L845.1,94.22l0,0c-1.77-4.32-2.75-9.05-2.75-14
		c0-20.34,16.48-36.82,36.82-36.82c20.33,0,36.81,16.48,36.81,36.82c0,20.33-16.48,36.81-36.81,36.81
		c-0.95,0-1.849-0.085-2.779-0.155l-0.077,0.11L723.56,336.52l0,0c1.33,3.81,2.06,7.91,2.06,12.18c0,20.33-16.48,36.81-36.81,36.81
		c-19.34,0-35.19-14.9-36.7-33.84l0,0l-129.67-68.29l0,0c-6.64,6.52-15.74,10.54-25.79,10.54c-5.37,0-10.47-1.15-15.06-3.21l0,0
		L341.2,406.25l0,0c0.07,0.86,0.1,1.73,0.1,2.61c0,20.33-16.48,36.81-36.81,36.81c-8.08,0-15.54-2.6-21.61-7.01l0,0l-135.44,51.53
		l0,0c-3.54,16.63-18.31,29.12-36.01,29.12c-20.33,0-36.81-16.49-36.81-36.82c0-20.33,16.48-36.82,36.81-36.82
		c8.74,0,16.76,3.04,23.08,8.14l0,0l133.63-50.85l0,0c2.83-17.53,18.03-30.92,36.35-30.92c5,0,9.77,1,14.11,2.8l0,0l141.26-116.26
		l0,0c-0.02-0.49-0.03-0.98-0.03-1.47c0-20.33,16.48-36.82,36.82-36.82C512.49,220.29,526,230.31,531.19,244.35L531.19,244.35z"/>
</g>
</svg>
