<?xml version="1.0" encoding="utf-8"?>
<!-- Generator: Adobe Illustrator 17.0.0, SVG Export Plug-In . SVG Version: 6.00 Build 0)  -->
<!DOCTYPE svg PUBLIC "-//W3C//DTD SVG 1.1//EN" "http://www.w3.org/Graphics/SVG/1.1/DTD/svg11.dtd">
<svg version="1.1" id="Layer_1" xmlns="http://www.w3.org/2000/svg" xmlns:xlink="http://www.w3.org/1999/xlink" x="0px" y="0px"
	 width="1000px" height="1000px" viewBox="0 0 1000 1000" enable-background="new 0 0 1000 1000" xml:space="preserve">
<g>
	
		<rect x="38.701" y="697.995" fill="none" stroke="#FFFFFF" stroke-width="18" stroke-miterlimit="10" width="150.853" height="258.605"/>
	
		<rect x="235.348" y="622.568" fill="none" stroke="#FFFFFF" stroke-width="18" stroke-miterlimit="10" width="150.853" height="334.032"/>
	
		<rect x="426.608" y="466.327" fill="none" stroke="#FFFFFF" stroke-width="18" stroke-miterlimit="10" width="150.853" height="490.272"/>
	
		<rect x="607.093" y="563.304" fill="none" stroke="#FFFFFF" stroke-width="18" stroke-miterlimit="10" width="150.853" height="393.295"/>
	
		<rect x="803.741" y="293.924" fill="none" stroke="#FFFFFF" stroke-width="18" stroke-miterlimit="10" width="150.853" height="662.676"/>
	<circle fill="#FFFFFF" cx="111.433" cy="482.49" r="36.815"/>
	<circle fill="#FFFFFF" cx="304.489" cy="408.86" r="36.815"/>
	<circle fill="#FFFFFF" cx="496.647" cy="257.109" r="36.815"/>
	<circle fill="#FFFFFF" cx="688.805" cy="348.698" r="36.815"/>
	<circle fill="#FFFFFF" cx="879.167" cy="80.216" r="36.815"/>
	
		<rect x="181.438" y="363.963" transform="matrix(-0.3556 -0.9346 0.9346 -0.3556 -147.7681 796.6487)" fill="#FFFFFF" width="38.61" height="170.602"/>
	
		<rect x="379.028" y="233.237" transform="matrix(-0.6355 -0.7721 0.7721 -0.6355 393.412 854.195)" fill="#FFFFFF" width="38.611" height="201.996"/>
	
		<rect x="575.499" y="198.675" transform="matrix(0.466 -0.8848 0.8848 0.466 52.4811 686.3039)" fill="#FFFFFF" width="38.612" height="201.999"/>
	
		<rect x="761.617" y="75.767" transform="matrix(-0.8209 -0.5711 0.5711 -0.8209 1296.1624 847.1167)" fill="#FFFFFF" width="38.612" height="289.064"/>
</g>
</svg>
