<?xml version="1.0" encoding="utf-8"?>
<!-- Generator: Adobe Illustrator 17.0.0, SVG Export Plug-In . SVG Version: 6.00 Build 0)  -->
<!DOCTYPE svg PUBLIC "-//W3C//DTD SVG 1.1//EN" "http://www.w3.org/Graphics/SVG/1.1/DTD/svg11.dtd">
<svg version="1.1" id="Capa_1" xmlns="http://www.w3.org/2000/svg" xmlns:xlink="http://www.w3.org/1999/xlink" x="0px" y="0px"
	 width="1000px" height="1000px" viewBox="0 0 1000 1000" enable-background="new 0 0 1000 1000" xml:space="preserve">
<path d="M980.784,500c0-265.095-215.688-480.784-480.784-480.784S19.216,234.905,19.216,500
	c0,140.022,60.212,266.232,156.054,354.171l-0.455,0.402l15.595,13.147c1.014,0.857,2.115,1.556,3.129,2.395
	c8.287,6.871,16.871,13.392,25.613,19.703c2.832,2.046,5.665,4.091,8.549,6.084c9.336,6.434,18.917,12.535,28.707,18.322
	c2.133,1.259,4.283,2.483,6.434,3.706c10.717,6.102,21.661,11.854,32.868,17.133c0.822,0.385,1.661,0.734,2.483,1.119
	c36.522,16.976,75.509,29.441,116.28,36.802c1.066,0.192,2.133,0.385,3.217,0.577c12.658,2.185,25.455,3.934,38.41,5.105
	c1.573,0.14,3.147,0.227,4.738,0.367c12.902,1.066,25.945,1.748,39.162,1.748c13.095,0,26.015-0.682,38.847-1.713
	c1.626-0.14,3.252-0.227,4.878-0.367c12.85-1.171,25.543-2.867,38.078-5.018c1.084-0.192,2.185-0.385,3.269-0.594
	c40.159-7.203,78.586-19.389,114.636-35.928c1.329-0.612,2.675-1.189,4.004-1.818c10.787-5.07,21.329-10.542,31.662-16.364
	c2.57-1.451,5.123-2.92,7.675-4.423c9.406-5.542,18.654-11.329,27.641-17.483c3.234-2.203,6.399-4.528,9.598-6.836
	c7.675-5.525,15.21-11.224,22.536-17.186c1.626-1.311,3.374-2.448,4.965-3.794l15.997-13.357l-0.472-0.402
	C919.995,767.526,980.784,640.738,980.784,500z M54.182,500C54.182,254.171,254.171,54.182,500,54.182S945.818,254.171,945.818,500
	c0,132.469-58.131,251.563-150.162,333.279c-5.14-3.549-10.315-6.731-15.612-9.388l-148.029-74.006
	c-13.287-6.644-21.539-20.001-21.539-34.844v-51.697c3.427-4.231,7.046-9.021,10.787-14.284
	c19.161-27.064,34.529-57.17,45.736-89.566c22.151-10.525,36.452-32.588,36.452-57.502v-61.977c0-15.158-5.56-29.861-15.508-41.417
	v-81.593c0.909-9.074,4.126-60.282-32.921-102.521C622.801,177.7,570.649,159.081,500,159.081S377.199,177.7,344.978,214.467
	c-37.047,42.239-33.83,93.447-32.921,102.521v81.593c-9.93,11.556-15.507,26.26-15.507,41.417v61.977
	c0,19.249,8.637,37.204,23.427,49.32c14.161,55.474,43.306,97.468,54.075,111.699v50.596c0,14.266-7.78,27.378-20.315,34.232
	l-138.238,75.404c-4.406,2.395-8.776,5.192-13.147,8.322C111.457,749.868,54.182,631.507,54.182,500z M761.529,860.71
	c-6.119,4.441-12.343,8.742-18.654,12.85c-2.902,1.888-5.787,3.776-8.742,5.612c-8.252,5.105-16.644,9.965-25.211,14.511
	c-1.888,0.997-3.794,1.941-5.699,2.92c-19.686,10.088-40.054,18.759-60.981,25.805c-0.734,0.245-1.469,0.507-2.22,0.752
	c-10.962,3.636-22.064,6.871-33.288,9.651c-0.035,0-0.07,0.018-0.105,0.018c-11.329,2.797-22.798,5.122-34.337,7.028
	c-0.315,0.052-0.629,0.122-0.944,0.175c-10.857,1.766-21.801,3.042-32.781,4.004c-1.941,0.175-3.881,0.297-5.839,0.437
	c-10.857,0.822-21.766,1.346-32.728,1.346c-11.084,0-22.134-0.542-33.13-1.364c-1.906-0.14-3.811-0.262-5.699-0.437
	c-11.084-0.979-22.116-2.29-33.043-4.074c-0.49-0.087-0.979-0.175-1.469-0.262c-23.113-3.864-45.858-9.546-68.009-16.976
	c-0.682-0.227-1.381-0.472-2.063-0.699c-10.997-3.741-21.871-7.885-32.553-12.465c-0.07-0.035-0.157-0.07-0.227-0.105
	c-10.105-4.353-20.018-9.179-29.809-14.266c-1.276-0.664-2.57-1.294-3.829-1.976c-8.934-4.773-17.675-9.93-26.294-15.315
	c-2.553-1.608-5.088-3.234-7.605-4.878c-7.937-5.192-15.77-10.595-23.392-16.312c-0.787-0.594-1.539-1.224-2.325-1.818
	c0.559-0.315,1.119-0.629,1.678-0.944l138.238-75.404c23.777-12.972,38.55-37.851,38.55-64.932l-0.017-62.974l-4.021-4.86
	c-0.385-0.437-38.183-46.417-52.467-108.675l-1.591-6.923l-5.962-3.864c-8.409-5.437-13.444-14.528-13.444-24.336v-61.977
	c0-8.13,3.444-15.7,9.738-21.382l5.769-5.21V316.01l-0.157-2.29c-0.052-0.42-5.21-42.466,24.406-76.226
	c25.28-28.812,68.603-43.445,128.728-43.445c59.897,0,103.08,14.511,128.43,43.113c29.581,33.41,24.739,76.244,24.704,76.593
	l-0.157,99.671l5.769,5.21c6.276,5.664,9.738,13.252,9.738,21.382v61.977c0,12.465-8.479,23.777-20.647,27.536l-8.689,2.675
	l-2.797,8.654c-10.315,32.046-25.001,61.645-43.638,87.975c-4.581,6.469-9.039,12.203-12.867,16.591l-4.336,4.948v64.67
	c0,28.183,15.665,53.533,40.875,66.121l148.029,74.006c0.944,0.472,1.871,0.962,2.797,1.451
	C765.34,858.035,763.417,859.346,761.529,860.71z"/>
</svg>
