<?xml version="1.0" encoding="utf-8"?>
<!-- Generator: Adobe Illustrator 17.0.0, SVG Export Plug-In . SVG Version: 6.00 Build 0)  -->
<!DOCTYPE svg PUBLIC "-//W3C//DTD SVG 1.1//EN" "http://www.w3.org/Graphics/SVG/1.1/DTD/svg11.dtd">
<svg version="1.1" id="Capa_1" xmlns="http://www.w3.org/2000/svg" xmlns:xlink="http://www.w3.org/1999/xlink" x="0px" y="0px"
	 width="1000px" height="1000px" viewBox="0 0 1000 1000" enable-background="new 0 0 1000 1000" xml:space="preserve">
<g>
	<path fill="#FFFFFF" d="M500,490.504c96.565,0,174.854-95.086,174.854-212.381c0-117.299-25.703-212.385-174.854-212.385
		S325.14,160.824,325.14,278.121C325.14,395.417,403.429,490.504,500,490.504z"/>
	<path fill="#FFFFFF" d="M169.734,814.786C169.705,807.634,169.675,812.771,169.734,814.786L169.734,814.786z"/>
	<path fill="#FFFFFF" d="M830.25,820.372C830.344,818.413,830.282,806.788,830.25,820.372L830.25,820.372z"/>
	<path fill="#FFFFFF" d="M829.878,806.21c-3.239-204.332-29.924-262.555-234.134-299.41c0,0-28.746,36.629-95.746,36.629
		S404.246,506.8,404.246,506.8c-201.982,36.453-230.29,93.813-234.013,292.772c-0.305,16.247-0.446,17.1-0.501,15.214
		c0.012,3.534,0.027,10.07,0.027,21.467c0,0,48.617,98.01,330.238,98.01c281.616,0,330.238-98.01,330.238-98.01
		c0-7.323,0.005-12.415,0.012-15.879C830.193,821.54,830.083,819.279,829.878,806.21z"/>
</g>
</svg>
